ISO-10303-21;
HEADER;
FILE_DESCRIPTION (( 'STEP AP214' ),
    '1' );
FILE_NAME ('34.STEP',
    '2026-05-16T13:59:46',
    ( '' ),
    ( '' ),
    'SwSTEP 2.0',
    'SolidWorks 2025',
    '' );
FILE_SCHEMA (( 'AUTOMOTIVE_DESIGN' ));
ENDSEC;

DATA;
#1 = ORIENTED_EDGE ( 'NONE', *, *, #112, .T. ) ;
#2 = ORIENTED_EDGE ( 'NONE', *, *, #174, .F. ) ;
#3 = ORIENTED_EDGE ( 'NONE', *, *, #61, .F. ) ;
#4 = UNCERTAINTY_MEASURE_WITH_UNIT (LENGTH_MEASURE( 1.000000000000000082E-05 ), #65, 'distance_accuracy_value', 'NONE');
#5 = DIRECTION ( 'NONE',  ( -1.000000000000000000, 0.000000000000000000, -0.000000000000000000 ) ) ;
#6 = CARTESIAN_POINT ( 'NONE',  ( -10.00000000000000000, 9.999999999999998224, 16.50000000000000000 ) ) ;
#7 = PRODUCT_DEFINITION_CONTEXT ( 'detailed design', #144, 'design' ) ;
#8 = DIRECTION ( 'NONE',  ( 0.000000000000000000, -1.000000000000000000, -1.051347561198064958E-16 ) ) ;
#9 = EDGE_CURVE ( 'NONE', #141, #139, #13, .T. ) ;
#10 = EDGE_LOOP ( 'NONE', ( #2, #15, #1, #101 ) ) ;
#11 = VECTOR ( 'NONE', #113, 1000.000000000000000 ) ;
#12 = CARTESIAN_POINT ( 'NONE',  ( 0.000000000000000000, 0.000000000000000000, 0.000000000000000000 ) ) ;
#13 = LINE ( 'NONE', #16, #31 ) ;
#14 = ORIENTED_EDGE ( 'NONE', *, *, #102, .F. ) ;
#15 = ORIENTED_EDGE ( 'NONE', *, *, #169, .F. ) ;
#16 = CARTESIAN_POINT ( 'NONE',  ( -10.00000000000000000, -9.999999999999998224, -16.50000000000000000 ) ) ;
#17 =( NAMED_UNIT ( * ) PLANE_ANGLE_UNIT ( ) SI_UNIT ( $, .RADIAN. ) );
#18 = LINE ( 'NONE', #33, #103 ) ;
#19 = MECHANICAL_DESIGN_GEOMETRIC_PRESENTATION_REPRESENTATION (  '', ( #140 ), #148 ) ;
#20 = FILL_AREA_STYLE_COLOUR ( '', #84 ) ;
#21 = ORIENTED_EDGE ( 'NONE', *, *, #35, .T. ) ;
#22 = CARTESIAN_POINT ( 'NONE',  ( 10.00000000000000000, 10.00000000000000178, -16.50000000000000000 ) ) ;
#23 = ADVANCED_FACE ( 'NONE', ( #58 ), #116, .T. ) ;
#24 = PRODUCT_DEFINITION_FORMATION_WITH_SPECIFIED_SOURCE ( 'ไป', '', #127, .NOT_KNOWN. ) ;
#25 =( GEOMETRIC_REPRESENTATION_CONTEXT ( 3 ) GLOBAL_UNCERTAINTY_ASSIGNED_CONTEXT ( ( #120 ) ) GLOBAL_UNIT_ASSIGNED_CONTEXT ( ( #39, #155, #56 ) ) REPRESENTATION_CONTEXT ( 'NONE', 'WORKASPACE' ) );
#26 = LINE ( 'NONE', #22, #93 ) ;
#27 = ORIENTED_EDGE ( 'NONE', *, *, #169, .T. ) ;
#28 = PLANE ( 'NONE',  #67 ) ;
#29 = ORIENTED_EDGE ( 'NONE', *, *, #112, .F. ) ;
#30 = DIRECTION ( 'NONE',  ( -0.000000000000000000, 1.051347561198064835E-16, -1.000000000000000000 ) ) ;
#31 = VECTOR ( 'NONE', #70, 1000.000000000000000 ) ;
#32 = CARTESIAN_POINT ( 'NONE',  ( -10.00000000000000000, 10.00000000000000178, -16.50000000000000000 ) ) ;
#33 = CARTESIAN_POINT ( 'NONE',  ( -10.00000000000000000, -9.999999999999998224, -16.50000000000000000 ) ) ;
#34 = VECTOR ( 'NONE', #30, 1000.000000000000000 ) ;
#35 = EDGE_CURVE ( 'NONE', #38, #105, #143, .T. ) ;
#36 = CARTESIAN_POINT ( 'NONE',  ( -10.00000000000000000, -9.999999999999998224, -16.50000000000000000 ) ) ;
#37 = ORIENTED_EDGE ( 'NONE', *, *, #61, .T. ) ;
#38 = VERTEX_POINT ( 'NONE', #176 ) ;
#39 =( LENGTH_UNIT ( ) NAMED_UNIT ( * ) SI_UNIT ( .MILLI., .METRE. ) );
#40 = CARTESIAN_POINT ( 'NONE',  ( -10.00000000000000000, -9.999999999999998224, -16.50000000000000000 ) ) ;
#41 = VECTOR ( 'NONE', #91, 1000.000000000000000 ) ;
#42 = ADVANCED_FACE ( 'NONE', ( #160 ), #28, .T. ) ;
#43 = EDGE_LOOP ( 'NONE', ( #71, #104, #85, #29 ) ) ;
#44 = EDGE_LOOP ( 'NONE', ( #111, #151, #168, #88 ) ) ;
#45 = CARTESIAN_POINT ( 'NONE',  ( -10.00000000000000000, 10.00000000000000178, -16.50000000000000000 ) ) ;
#46 = EDGE_CURVE ( 'NONE', #59, #128, #150, .T. ) ;
#47 = DIRECTION ( 'NONE',  ( 0.000000000000000000, 1.051347561198064958E-16, -1.000000000000000000 ) ) ;
#48 = CARTESIAN_POINT ( 'NONE',  ( -10.00000000000000000, -10.00000000000000178, 16.50000000000000000 ) ) ;
#49 = CARTESIAN_POINT ( 'NONE',  ( 10.00000000000000000, 9.999999999999998224, 16.50000000000000000 ) ) ;
#50 = FACE_OUTER_BOUND ( 'NONE', #44, .T. ) ;
#51 = AXIS2_PLACEMENT_3D ( 'NONE', #12, #96, #182 ) ;
#52 = AXIS2_PLACEMENT_3D ( 'NONE', #180, #108, #109 ) ;
#53 = ORIENTED_EDGE ( 'NONE', *, *, #46, .T. ) ;
#54 = PRODUCT_CONTEXT ( 'NONE', #130, 'mechanical' ) ;
#55 = CARTESIAN_POINT ( 'NONE',  ( -10.00000000000000000, -10.00000000000000178, 16.50000000000000000 ) ) ;
#56 =( NAMED_UNIT ( * ) SI_UNIT ( $, .STERADIAN. ) SOLID_ANGLE_UNIT ( ) );
#57 = APPLICATION_PROTOCOL_DEFINITION ( 'draft international standard', 'automotive_design', 1998, #130 ) ;
#58 = FACE_OUTER_BOUND ( 'NONE', #177, .T. ) ;
#59 = VERTEX_POINT ( 'NONE', #66 ) ;
#60 = VECTOR ( 'NONE', #153, 1000.000000000000000 ) ;
#61 = EDGE_CURVE ( 'NONE', #114, #119, #76, .T. ) ;
#62 = DIRECTION ( 'NONE',  ( 0.000000000000000000, 0.000000000000000000, -1.000000000000000000 ) ) ;
#63 = SURFACE_STYLE_USAGE ( .BOTH. , #80 ) ;
#64 = ADVANCED_FACE ( 'NONE', ( #50 ), #178, .T. ) ;
#65 =( LENGTH_UNIT ( ) NAMED_UNIT ( * ) SI_UNIT ( .MILLI., .METRE. ) );
#66 = CARTESIAN_POINT ( 'NONE',  ( -10.00000000000000000, 9.999999999999998224, 16.50000000000000000 ) ) ;
#67 = AXIS2_PLACEMENT_3D ( 'NONE', #87, #8, #47 ) ;
#68 = PRODUCT_DEFINITION_SHAPE ( 'NONE', 'NONE',  #78 ) ;
#69 = DIRECTION ( 'NONE',  ( 0.000000000000000000, -1.051347561198064835E-16, 1.000000000000000000 ) ) ;
#70 = DIRECTION ( 'NONE',  ( 0.000000000000000000, 1.000000000000000000, 0.000000000000000000 ) ) ;
#71 = ORIENTED_EDGE ( 'NONE', *, *, #46, .F. ) ;
#72 = CARTESIAN_POINT ( 'NONE',  ( 10.00000000000000000, -9.999999999999998224, -16.50000000000000000 ) ) ;
#73 = ORIENTED_EDGE ( 'NONE', *, *, #174, .T. ) ;
#74 = PRESENTATION_LAYER_ASSIGNMENT (  '', '', ( #140 ) ) ;
#75 = EDGE_CURVE ( 'NONE', #59, #114, #121, .T. ) ;
#76 = LINE ( 'NONE', #146, #90 ) ;
#77 = CARTESIAN_POINT ( 'NONE',  ( 10.00000000000000000, 10.00000000000000178, -16.50000000000000000 ) ) ;
#78 = PRODUCT_DEFINITION ( 'ๆ', '', #24, #7 ) ;
#79 = LINE ( 'NONE', #45, #156 ) ;
#80 = SURFACE_SIDE_STYLE ('',( #94 ) ) ;
#81 = DIRECTION ( 'NONE',  ( 1.000000000000000000, 0.000000000000000000, -0.000000000000000000 ) ) ;
#82 = ADVANCED_FACE ( 'NONE', ( #106 ), #92, .F. ) ;
#83 = EDGE_CURVE ( 'NONE', #141, #38, #18, .T. ) ;
#84 = COLOUR_RGB ( '',0.7921568627450980005, 0.8196078431372548767, 0.9333333333333333481 ) ;
#85 = ORIENTED_EDGE ( 'NONE', *, *, #9, .F. ) ;
#86 = DIRECTION ( 'NONE',  ( -0.000000000000000000, 0.000000000000000000, -1.000000000000000000 ) ) ;
#87 = CARTESIAN_POINT ( 'NONE',  ( -10.00000000000000000, -9.999999999999998224, -16.50000000000000000 ) ) ;
#88 = ORIENTED_EDGE ( 'NONE', *, *, #102, .T. ) ;
#89 = CARTESIAN_POINT ( 'NONE',  ( 10.00000000000000000, -10.00000000000000178, 16.50000000000000000 ) ) ;
#90 = VECTOR ( 'NONE', #162, 1000.000000000000000 ) ;
#91 = DIRECTION ( 'NONE',  ( -0.000000000000000000, -1.000000000000000000, -0.000000000000000000 ) ) ;
#92 = PLANE ( 'NONE',  #52 ) ;
#93 = VECTOR ( 'NONE', #69, 1000.000000000000000 ) ;
#94 = SURFACE_STYLE_FILL_AREA ( #137 ) ;
#95 = PLANE ( 'NONE',  #175 ) ;
#96 = DIRECTION ( 'NONE',  ( 0.000000000000000000, 0.000000000000000000, 1.000000000000000000 ) ) ;
#97 = ADVANCED_FACE ( 'NONE', ( #110 ), #134, .T. ) ;
#98 = DIRECTION ( 'NONE',  ( 0.000000000000000000, -1.051347561198064958E-16, 1.000000000000000000 ) ) ;
#99 = EDGE_CURVE ( 'NONE', #139, #59, #181, .T. ) ;
#100 = AXIS2_PLACEMENT_3D ( 'NONE', #172, #159, #86 ) ;
#101 = ORIENTED_EDGE ( 'NONE', *, *, #83, .T. ) ;
#102 = EDGE_CURVE ( 'NONE', #139, #105, #79, .T. ) ;
#103 = VECTOR ( 'NONE', #107, 1000.000000000000000 ) ;
#104 = ORIENTED_EDGE ( 'NONE', *, *, #99, .F. ) ;
#105 = VERTEX_POINT ( 'NONE', #77 ) ;
#106 = FACE_OUTER_BOUND ( 'NONE', #43, .T. ) ;
#107 = DIRECTION ( 'NONE',  ( 1.000000000000000000, 0.000000000000000000, 0.000000000000000000 ) ) ;
#108 = DIRECTION ( 'NONE',  ( 1.000000000000000000, 0.000000000000000000, -0.000000000000000000 ) ) ;
#109 = DIRECTION ( 'NONE',  ( -0.000000000000000000, 0.000000000000000000, -1.000000000000000000 ) ) ;
#110 = FACE_OUTER_BOUND ( 'NONE', #131, .T. ) ;
#111 = ORIENTED_EDGE ( 'NONE', *, *, #35, .F. ) ;
#112 = EDGE_CURVE ( 'NONE', #128, #141, #149, .T. ) ;
#113 = DIRECTION ( 'NONE',  ( 1.000000000000000000, 0.000000000000000000, 0.000000000000000000 ) ) ;
#114 = VERTEX_POINT ( 'NONE', #49 ) ;
#115 = CLOSED_SHELL ( 'NONE', ( #97, #136, #64, #42, #82, #23 ) ) ;
#116 = PLANE ( 'NONE',  #100 ) ;
#117 = ORIENTED_EDGE ( 'NONE', *, *, #154, .T. ) ;
#118 = VECTOR ( 'NONE', #124, 1000.000000000000000 ) ;
#119 = VERTEX_POINT ( 'NONE', #89 ) ;
#120 = UNCERTAINTY_MEASURE_WITH_UNIT (LENGTH_MEASURE( 1.000000000000000082E-05 ), #39, 'distance_accuracy_value', 'NONE');
#121 = LINE ( 'NONE', #6, #118 ) ;
#122 = MANIFOLD_SOLID_BREP ( '\X2\51f853f0\X0\-\X2\62c94f38\X0\1', #115 ) ;
#123 = DIRECTION ( 'NONE',  ( 0.000000000000000000, 0.000000000000000000, 1.000000000000000000 ) ) ;
#124 = DIRECTION ( 'NONE',  ( 1.000000000000000000, 0.000000000000000000, 0.000000000000000000 ) ) ;
#125 = VECTOR ( 'NONE', #132, 1000.000000000000000 ) ;
#126 = DIRECTION ( 'NONE',  ( -0.000000000000000000, 1.000000000000000000, 1.051347561198064958E-16 ) ) ;
#127 = PRODUCT ( '34', '34', '', ( #54 ) ) ;
#128 = VERTEX_POINT ( 'NONE', #179 ) ;
#129 = ADVANCED_BREP_SHAPE_REPRESENTATION ( '34', ( #122, #51 ), #25 ) ;
#130 = APPLICATION_CONTEXT ( 'automotive_design' ) ;
#131 = EDGE_LOOP ( 'NONE', ( #3, #133, #53, #27 ) ) ;
#132 = DIRECTION ( 'NONE',  ( 0.000000000000000000, 1.000000000000000000, 0.000000000000000000 ) ) ;
#133 = ORIENTED_EDGE ( 'NONE', *, *, #75, .F. ) ;
#134 = PLANE ( 'NONE',  #157 ) ;
#135 =( NAMED_UNIT ( * ) SI_UNIT ( $, .STERADIAN. ) SOLID_ANGLE_UNIT ( ) );
#136 = ADVANCED_FACE ( 'NONE', ( #164 ), #95, .T. ) ;
#137 = FILL_AREA_STYLE ('',( #20 ) ) ;
#138 = DIRECTION ( 'NONE',  ( 0.000000000000000000, -1.051347561198064835E-16, 1.000000000000000000 ) ) ;
#139 = VERTEX_POINT ( 'NONE', #152 ) ;
#140 = STYLED_ITEM ( 'NONE', ( #145 ), #122 ) ;
#141 = VERTEX_POINT ( 'NONE', #40 ) ;
#142 = EDGE_LOOP ( 'NONE', ( #158, #14, #173, #161 ) ) ;
#143 = LINE ( 'NONE', #72, #125 ) ;
#144 = APPLICATION_CONTEXT ( 'automotive_design' ) ;
#145 = PRESENTATION_STYLE_ASSIGNMENT (( #63 ) ) ;
#146 = CARTESIAN_POINT ( 'NONE',  ( 10.00000000000000000, -10.00000000000000178, 16.50000000000000000 ) ) ;
#147 = CARTESIAN_POINT ( 'NONE',  ( -10.00000000000000000, -9.999999999999998224, -16.50000000000000000 ) ) ;
#148 =( GEOMETRIC_REPRESENTATION_CONTEXT ( 3 ) GLOBAL_UNCERTAINTY_ASSIGNED_CONTEXT ( ( #4 ) ) GLOBAL_UNIT_ASSIGNED_CONTEXT ( ( #65, #17, #135 ) ) REPRESENTATION_CONTEXT ( 'NONE', 'WORKASPACE' ) );
#149 = LINE ( 'NONE', #36, #34 ) ;
#150 = LINE ( 'NONE', #48, #41 ) ;
#151 = ORIENTED_EDGE ( 'NONE', *, *, #83, .F. ) ;
#152 = CARTESIAN_POINT ( 'NONE',  ( -10.00000000000000000, 10.00000000000000178, -16.50000000000000000 ) ) ;
#153 = DIRECTION ( 'NONE',  ( -0.000000000000000000, 1.051347561198064835E-16, -1.000000000000000000 ) ) ;
#154 = EDGE_CURVE ( 'NONE', #105, #114, #26, .T. ) ;
#155 =( NAMED_UNIT ( * ) PLANE_ANGLE_UNIT ( ) SI_UNIT ( $, .RADIAN. ) );
#156 = VECTOR ( 'NONE', #165, 1000.000000000000000 ) ;
#157 = AXIS2_PLACEMENT_3D ( 'NONE', #163, #123, #81 ) ;
#158 = ORIENTED_EDGE ( 'NONE', *, *, #154, .F. ) ;
#159 = DIRECTION ( 'NONE',  ( 1.000000000000000000, 0.000000000000000000, -0.000000000000000000 ) ) ;
#160 = FACE_OUTER_BOUND ( 'NONE', #10, .T. ) ;
#161 = ORIENTED_EDGE ( 'NONE', *, *, #75, .T. ) ;
#162 = DIRECTION ( 'NONE',  ( -0.000000000000000000, -1.000000000000000000, -0.000000000000000000 ) ) ;
#163 = CARTESIAN_POINT ( 'NONE',  ( -10.00000000000000000, -10.00000000000000178, 16.50000000000000000 ) ) ;
#164 = FACE_OUTER_BOUND ( 'NONE', #142, .T. ) ;
#165 = DIRECTION ( 'NONE',  ( 1.000000000000000000, 0.000000000000000000, 0.000000000000000000 ) ) ;
#166 = CARTESIAN_POINT ( 'NONE',  ( -10.00000000000000000, 10.00000000000000178, -16.50000000000000000 ) ) ;
#167 = LINE ( 'NONE', #170, #60 ) ;
#168 = ORIENTED_EDGE ( 'NONE', *, *, #9, .T. ) ;
#169 = EDGE_CURVE ( 'NONE', #128, #119, #183, .T. ) ;
#170 = CARTESIAN_POINT ( 'NONE',  ( 10.00000000000000000, -9.999999999999998224, -16.50000000000000000 ) ) ;
#171 = AXIS2_PLACEMENT_3D ( 'NONE', #147, #62, #5 ) ;
#172 = CARTESIAN_POINT ( 'NONE',  ( 10.00000000000000000, 0.000000000000000000, 0.000000000000000000 ) ) ;
#173 = ORIENTED_EDGE ( 'NONE', *, *, #99, .T. ) ;
#174 = EDGE_CURVE ( 'NONE', #119, #38, #167, .T. ) ;
#175 = AXIS2_PLACEMENT_3D ( 'NONE', #32, #126, #98 ) ;
#176 = CARTESIAN_POINT ( 'NONE',  ( 10.00000000000000000, -9.999999999999998224, -16.50000000000000000 ) ) ;
#177 = EDGE_LOOP ( 'NONE', ( #37, #73, #21, #117 ) ) ;
#178 = PLANE ( 'NONE',  #171 ) ;
#179 = CARTESIAN_POINT ( 'NONE',  ( -10.00000000000000000, -10.00000000000000178, 16.50000000000000000 ) ) ;
#180 = CARTESIAN_POINT ( 'NONE',  ( -10.00000000000000000, 0.000000000000000000, 0.000000000000000000 ) ) ;
#181 = LINE ( 'NONE', #166, #184 ) ;
#182 = DIRECTION ( 'NONE',  ( 1.000000000000000000, 0.000000000000000000, 0.000000000000000000 ) ) ;
#183 = LINE ( 'NONE', #55, #11 ) ;
#184 = VECTOR ( 'NONE', #138, 1000.000000000000000 ) ;
#185 = PRODUCT_RELATED_PRODUCT_CATEGORY ( 'part', '', ( #127 ) ) ;
#186 = APPLICATION_PROTOCOL_DEFINITION ( 'draft international standard', 'automotive_design', 1998, #144 ) ;
#187 = SHAPE_DEFINITION_REPRESENTATION ( #68, #129 ) ;
ENDSEC;
END-ISO-10303-21;
