ISO-10303-21;
HEADER;
FILE_DESCRIPTION (( 'STEP AP214' ),
    '1' );
FILE_NAME ('344.STEP',
    '2026-05-17T04:00:08',
    ( '' ),
    ( '' ),
    'SwSTEP 2.0',
    'SolidWorks 2025',
    '' );
FILE_SCHEMA (( 'AUTOMOTIVE_DESIGN' ));
ENDSEC;

DATA;
#1 = PLANE ( 'NONE',  #157 ) ;
#2 = DIRECTION ( 'NONE',  ( -0.000000000000000000, -1.000000000000000000, -0.000000000000000000 ) ) ;
#3 = VERTEX_POINT ( 'NONE', #618 ) ;
#4 = VERTEX_POINT ( 'NONE', #59 ) ;
#5 = VECTOR ( 'NONE', #939, 1000.000000000000000 ) ;
#6 = DIRECTION ( 'NONE',  ( 0.000000000000000000, -1.000000000000000000, 0.000000000000000000 ) ) ;
#7 = DIRECTION ( 'NONE',  ( 0.000000000000000000, 0.000000000000000000, 1.000000000000000000 ) ) ;
#8 = VERTEX_POINT ( 'NONE', #963 ) ;
#9 = EDGE_CURVE ( 'NONE', #411, #949, #874, .T. ) ;
#10 = DIRECTION ( 'NONE',  ( 0.000000000000000000, 0.000000000000000000, 1.000000000000000000 ) ) ;
#11 = VERTEX_POINT ( 'NONE', #1008 ) ;
#12 = DIRECTION ( 'NONE',  ( 1.000000000000000000, 0.000000000000000000, 0.000000000000000000 ) ) ;
#13 = FACE_OUTER_BOUND ( 'NONE', #77, .T. ) ;
#14 = VECTOR ( 'NONE', #808, 1000.000000000000000 ) ;
#15 = PRESENTATION_STYLE_ASSIGNMENT (( #264 ) ) ;
#16 = VERTEX_POINT ( 'NONE', #597 ) ;
#17 = EDGE_CURVE ( 'NONE', #334, #467, #688, .T. ) ;
#18 = EDGE_CURVE ( 'NONE', #16, #419, #289, .T. ) ;
#19 = FACE_BOUND ( 'NONE', #893, .T. ) ;
#20 = AXIS2_PLACEMENT_3D ( 'NONE', #119, #764, #285 ) ;
#21 = DIRECTION ( 'NONE',  ( 1.000000000000000000, 0.000000000000000000, 0.000000000000000000 ) ) ;
#22 = APPLICATION_CONTEXT ( 'automotive_design' ) ;
#23 = FACE_OUTER_BOUND ( 'NONE', #974, .T. ) ;
#24 = ORIENTED_EDGE ( 'NONE', *, *, #9, .T. ) ;
#25 = DIRECTION ( 'NONE',  ( 0.000000000000000000, 1.000000000000000000, 0.000000000000000000 ) ) ;
#26 = DIRECTION ( 'NONE',  ( -0.000000000000000000, -0.000000000000000000, 1.000000000000000000 ) ) ;
#27 = ORIENTED_EDGE ( 'NONE', *, *, #801, .F. ) ;
#28 = LINE ( 'NONE', #122, #521 ) ;
#29 = LINE ( 'NONE', #512, #239 ) ;
#30 = EDGE_CURVE ( 'NONE', #968, #54, #841, .T. ) ;
#31 =( LENGTH_UNIT ( ) NAMED_UNIT ( * ) SI_UNIT ( .MILLI., .METRE. ) );
#32 = ORIENTED_EDGE ( 'NONE', *, *, #543, .F. ) ;
#33 = PLANE ( 'NONE',  #378 ) ;
#34 = DIRECTION ( 'NONE',  ( -0.000000000000000000, 1.000000000000000000, -0.000000000000000000 ) ) ;
#35 = DIRECTION ( 'NONE',  ( 0.000000000000000000, 0.000000000000000000, 1.000000000000000000 ) ) ;
#36 = EDGE_CURVE ( 'NONE', #1049, #67, #392, .T. ) ;
#37 = CARTESIAN_POINT ( 'NONE',  ( -39.08999999999999631, -37.50000000000000711, 20.99999999999999645 ) ) ;
#38 = PLANE ( 'NONE',  #851 ) ;
#39 = AXIS2_PLACEMENT_3D ( 'NONE', #862, #623, #627 ) ;
#40 = PRODUCT_DEFINITION_FORMATION_WITH_SPECIFIED_SOURCE ( 'ไป', '', #442, .NOT_KNOWN. ) ;
#41 = EDGE_CURVE ( 'NONE', #968, #705, #355, .T. ) ;
#42 = CIRCLE ( 'NONE', #965, 1.600000000000000755 ) ;
#43 = DIRECTION ( 'NONE',  ( 0.000000000000000000, 0.000000000000000000, 1.000000000000000000 ) ) ;
#44 = CARTESIAN_POINT ( 'NONE',  ( 0.000000000000000000, -45.50000000000000000, 0.000000000000000000 ) ) ;
#45 = CARTESIAN_POINT ( 'NONE',  ( -54.49999999999999289, -45.50000000000000000, 37.00000000000000711 ) ) ;
#46 = CARTESIAN_POINT ( 'NONE',  ( -50.58999999999998920, -23.49999999999999645, 37.00000000000000000 ) ) ;
#47 = CARTESIAN_POINT ( 'NONE',  ( -39.08999999999999631, -37.50000000000000711, 37.00000000000000000 ) ) ;
#48 = CARTESIAN_POINT ( 'NONE',  ( -54.50000000000000711, 0.000000000000000000, 8.015947490640082608E-15 ) ) ;
#49 = ADVANCED_FACE ( 'NONE', ( #938 ), #853, .T. ) ;
#50 = DIRECTION ( 'NONE',  ( 0.000000000000000000, 1.000000000000000000, 0.000000000000000000 ) ) ;
#51 = VERTEX_POINT ( 'NONE', #845 ) ;
#52 = AXIS2_PLACEMENT_3D ( 'NONE', #523, #363, #918 ) ;
#53 = LINE ( 'NONE', #713, #414 ) ;
#54 = VERTEX_POINT ( 'NONE', #438 ) ;
#55 = DIRECTION ( 'NONE',  ( -0.000000000000000000, -0.000000000000000000, 1.000000000000000000 ) ) ;
#56 = ADVANCED_FACE ( 'NONE', ( #520 ), #38, .T. ) ;
#57 = VERTEX_POINT ( 'NONE', #526 ) ;
#58 = CARTESIAN_POINT ( 'NONE',  ( -8.679999999999996163, -23.49999999999999645, 33.49999999999999289 ) ) ;
#59 = CARTESIAN_POINT ( 'NONE',  ( -50.58999999999998920, -41.24000000000000199, 37.00000000000000000 ) ) ;
#60 = DIRECTION ( 'NONE',  ( 0.000000000000000000, 0.000000000000000000, 1.000000000000000000 ) ) ;
#61 = ORIENTED_EDGE ( 'NONE', *, *, #955, .T. ) ;
#62 = DIRECTION ( 'NONE',  ( 1.000000000000000000, 0.000000000000000000, 0.000000000000000000 ) ) ;
#63 = ORIENTED_EDGE ( 'NONE', *, *, #761, .F. ) ;
#64 = CARTESIAN_POINT ( 'NONE',  ( -21.09000000000001762, -37.50000000000000711, 37.00000000000000000 ) ) ;
#65 = CIRCLE ( 'NONE', #664, 0.9100000000000002531 ) ;
#66 = AXIS2_PLACEMENT_3D ( 'NONE', #858, #131, #276 ) ;
#67 = VERTEX_POINT ( 'NONE', #202 ) ;
#68 = VERTEX_POINT ( 'NONE', #376 ) ;
#69 = DIRECTION ( 'NONE',  ( 0.000000000000000000, -0.000000000000000000, -1.000000000000000000 ) ) ;
#70 = CARTESIAN_POINT ( 'NONE',  ( -54.49999999999999289, -28.49999999999999645, 33.50000000000000000 ) ) ;
#71 = ORIENTED_EDGE ( 'NONE', *, *, #36, .F. ) ;
#72 = ORIENTED_EDGE ( 'NONE', *, *, #531, .F. ) ;
#73 = ORIENTED_EDGE ( 'NONE', *, *, #998, .T. ) ;
#74 = DIRECTION ( 'NONE',  ( 0.000000000000000000, 0.000000000000000000, 1.000000000000000000 ) ) ;
#75 = EDGE_CURVE ( 'NONE', #817, #334, #214, .T. ) ;
#76 = CARTESIAN_POINT ( 'NONE',  ( -54.49999999999999289, -45.50000000000000000, 33.50000000000000000 ) ) ;
#77 = EDGE_LOOP ( 'NONE', ( #567, #536, #1039, #556 ) ) ;
#78 = ORIENTED_EDGE ( 'NONE', *, *, #134, .F. ) ;
#79 = LINE ( 'NONE', #1050, #1020 ) ;
#80 = ADVANCED_FACE ( 'NONE', ( #849 ), #1023, .F. ) ;
#81 = CARTESIAN_POINT ( 'NONE',  ( 0.000000000000000000, 2.500000000000000000, 9.400000000000000355 ) ) ;
#82 = EDGE_CURVE ( 'NONE', #1042, #51, #198, .T. ) ;
#83 = CARTESIAN_POINT ( 'NONE',  ( -21.08999999999998920, -28.49999999999999645, 20.99999999999999645 ) ) ;
#84 = CIRCLE ( 'NONE', #103, 1.600000000000000755 ) ;
#85 = ORIENTED_EDGE ( 'NONE', *, *, #439, .T. ) ;
#86 = ORIENTED_EDGE ( 'NONE', *, *, #823, .F. ) ;
#87 = CARTESIAN_POINT ( 'NONE',  ( -6.499999999999997335, 2.500000000000000000, 37.00000000000000000 ) ) ;
#88 = EDGE_CURVE ( 'NONE', #323, #4, #777, .T. ) ;
#89 = LINE ( 'NONE', #256, #1006 ) ;
#90 = AXIS2_PLACEMENT_3D ( 'NONE', #222, #1033, #942 ) ;
#91 = VERTEX_POINT ( 'NONE', #699 ) ;
#92 = LINE ( 'NONE', #710, #834 ) ;
#93 = ORIENTED_EDGE ( 'NONE', *, *, #620, .F. ) ;
#94 = LINE ( 'NONE', #341, #603 ) ;
#95 = CARTESIAN_POINT ( 'NONE',  ( -54.49999999999999289, -20.49999999999999645, 37.00000000000000711 ) ) ;
#96 = VECTOR ( 'NONE', #534, 1000.000000000000000 ) ;
#97 = EDGE_CURVE ( 'NONE', #907, #248, #360, .T. ) ;
#98 = AXIS2_PLACEMENT_3D ( 'NONE', #1016, #288, #519 ) ;
#99 = CYLINDRICAL_SURFACE ( 'NONE', #1025, 1.600000000000000755 ) ;
#100 = ORIENTED_EDGE ( 'NONE', *, *, #991, .T. ) ;
#101 = DIRECTION ( 'NONE',  ( 1.000000000000000000, 0.000000000000000000, 0.000000000000000000 ) ) ;
#102 = LINE ( 'NONE', #655, #961 ) ;
#103 = AXIS2_PLACEMENT_3D ( 'NONE', #273, #670, #816 ) ;
#104 = LINE ( 'NONE', #430, #697 ) ;
#105 = VERTEX_POINT ( 'NONE', #292 ) ;
#106 = EDGE_CURVE ( 'NONE', #792, #907, #448, .T. ) ;
#107 = VECTOR ( 'NONE', #480, 1000.000000000000000 ) ;
#108 = DIRECTION ( 'NONE',  ( -0.000000000000000000, -1.000000000000000000, -0.000000000000000000 ) ) ;
#109 = DIRECTION ( 'NONE',  ( -0.000000000000000000, -0.000000000000000000, 1.000000000000000000 ) ) ;
#110 = CIRCLE ( 'NONE', #250, 0.9100000000000010303 ) ;
#111 = ORIENTED_EDGE ( 'NONE', *, *, #890, .F. ) ;
#112 = ADVANCED_FACE ( 'NONE', ( #612 ), #530, .F. ) ;
#113 = CARTESIAN_POINT ( 'NONE',  ( -6.499999999999997335, 2.500000000000000000, 37.00000000000000000 ) ) ;
#114 = DIRECTION ( 'NONE',  ( 2.478176394252579662E-16, 0.000000000000000000, 1.000000000000000000 ) ) ;
#115 = LINE ( 'NONE', #679, #230 ) ;
#116 = ADVANCED_BREP_SHAPE_REPRESENTATION ( '344', ( #140, #185 ), #1047 ) ;
#117 = ORIENTED_EDGE ( 'NONE', *, *, #97, .F. ) ;
#118 = CARTESIAN_POINT ( 'NONE',  ( 0.000000000000000000, -2.500000000000000444, 11.00000000000000178 ) ) ;
#119 = CARTESIAN_POINT ( 'NONE',  ( -6.500000000000000888, 2.500000000000000000, -13.00000000000000000 ) ) ;
#120 = CARTESIAN_POINT ( 'NONE',  ( -9.579999999999998295, -23.49999999999999645, 20.99999999999999645 ) ) ;
#121 = EDGE_CURVE ( 'NONE', #419, #616, #593, .T. ) ;
#122 = CARTESIAN_POINT ( 'NONE',  ( 0.000000000000000000, -10.50000000000000000, -7.799999999999999822 ) ) ;
#123 = CARTESIAN_POINT ( 'NONE',  ( -50.58999999999998920, -41.24000000000000199, 20.99999999999999645 ) ) ;
#124 = EDGE_CURVE ( 'NONE', #705, #622, #29, .T. ) ;
#125 = DIRECTION ( 'NONE',  ( 0.000000000000000000, -1.000000000000000000, 0.000000000000000000 ) ) ;
#126 = CARTESIAN_POINT ( 'NONE',  ( -6.500000000000000888, 2.500000000000000000, -13.00000000000000000 ) ) ;
#127 = CARTESIAN_POINT ( 'NONE',  ( 6.499999999999999112, 2.500000000000000000, -13.00000000000000000 ) ) ;
#128 = DIRECTION ( 'NONE',  ( -0.000000000000000000, -0.000000000000000000, 1.000000000000000000 ) ) ;
#129 = CIRCLE ( 'NONE', #271, 1.600000000000000755 ) ;
#130 = PLANE ( 'NONE',  #959 ) ;
#131 = DIRECTION ( 'NONE',  ( -0.000000000000000000, -0.000000000000000000, 1.000000000000000000 ) ) ;
#132 = LINE ( 'NONE', #45, #234 ) ;
#133 = PRODUCT_CONTEXT ( 'NONE', #917, 'mechanical' ) ;
#134 = EDGE_CURVE ( 'NONE', #3, #217, #747, .T. ) ;
#135 = VERTEX_POINT ( 'NONE', #418 ) ;
#136 = CARTESIAN_POINT ( 'NONE',  ( -51.49999999999999289, -23.49999999999999645, 20.99999999999999645 ) ) ;
#137 = ORIENTED_EDGE ( 'NONE', *, *, #837, .F. ) ;
#138 = AXIS2_PLACEMENT_3D ( 'NONE', #407, #744, #397 ) ;
#139 = DIRECTION ( 'NONE',  ( 0.000000000000000000, 0.000000000000000000, 1.000000000000000000 ) ) ;
#140 = MANIFOLD_SOLID_BREP ( '\X2\52079664\X0\-\X2\62c94f38\X0\3', #210 ) ;
#141 = EDGE_LOOP ( 'NONE', ( #505, #221, #975, #663 ) ) ;
#142 = DIRECTION ( 'NONE',  ( 1.000000000000000000, 0.000000000000000000, 0.000000000000000000 ) ) ;
#143 = EDGE_LOOP ( 'NONE', ( #78, #329, #553, #947 ) ) ;
#144 = CARTESIAN_POINT ( 'NONE',  ( -39.08999999999999631, -20.49999999999999645, 37.00000000000000000 ) ) ;
#145 = AXIS2_PLACEMENT_3D ( 'NONE', #598, #850, #607 ) ;
#146 = EDGE_LOOP ( 'NONE', ( #196, #802, #581, #868 ) ) ;
#147 = CARTESIAN_POINT ( 'NONE',  ( 0.000000000000000000, -10.50000000000000000, -9.400000000000000355 ) ) ;
#148 = ORIENTED_EDGE ( 'NONE', *, *, #304, .T. ) ;
#149 = CARTESIAN_POINT ( 'NONE',  ( -6.499999999999997335, -45.50000000000000000, 37.00000000000000000 ) ) ;
#150 = EDGE_CURVE ( 'NONE', #889, #91, #984, .T. ) ;
#151 = VECTOR ( 'NONE', #125, 1000.000000000000000 ) ;
#152 = ORIENTED_EDGE ( 'NONE', *, *, #212, .F. ) ;
#153 = EDGE_LOOP ( 'NONE', ( #259, #1026, #985, #1046 ) ) ;
#154 = DIRECTION ( 'NONE',  ( 1.000000000000000000, 0.000000000000000000, 0.000000000000000000 ) ) ;
#155 = ORIENTED_EDGE ( 'NONE', *, *, #749, .F. ) ;
#156 = SURFACE_STYLE_FILL_AREA ( #908 ) ;
#157 = AXIS2_PLACEMENT_3D ( 'NONE', #992, #330, #325 ) ;
#158 = VECTOR ( 'NONE', #258, 1000.000000000000000 ) ;
#159 = ADVANCED_FACE ( 'NONE', ( #23 ), #99, .F. ) ;
#160 = ORIENTED_EDGE ( 'NONE', *, *, #165, .F. ) ;
#161 = ORIENTED_EDGE ( 'NONE', *, *, #503, .T. ) ;
#162 = DIRECTION ( 'NONE',  ( 1.000000000000000000, 0.000000000000000000, 0.000000000000000000 ) ) ;
#163 = FACE_BOUND ( 'NONE', #626, .T. ) ;
#164 = ORIENTED_EDGE ( 'NONE', *, *, #367, .F. ) ;
#165 = EDGE_CURVE ( 'NONE', #333, #57, #319, .T. ) ;
#166 = ORIENTED_EDGE ( 'NONE', *, *, #692, .T. ) ;
#167 = ORIENTED_EDGE ( 'NONE', *, *, #41, .F. ) ;
#168 = LINE ( 'NONE', #478, #14 ) ;
#169 = CARTESIAN_POINT ( 'NONE',  ( 6.499999999999999112, -2.500000000000000000, -13.00000000000000000 ) ) ;
#170 = ORIENTED_EDGE ( 'NONE', *, *, #766, .F. ) ;
#171 = LINE ( 'NONE', #661, #685 ) ;
#172 = ORIENTED_EDGE ( 'NONE', *, *, #36, .T. ) ;
#173 = EDGE_LOOP ( 'NONE', ( #886, #653, #463, #522 ) ) ;
#174 = EDGE_CURVE ( 'NONE', #254, #405, #104, .T. ) ;
#175 = DIRECTION ( 'NONE',  ( 1.000000000000000000, 0.000000000000000000, 0.000000000000000000 ) ) ;
#176 = CARTESIAN_POINT ( 'NONE',  ( 0.000000000000000000, -2.500000000000000000, 0.000000000000000000 ) ) ;
#177 = ORIENTED_EDGE ( 'NONE', *, *, #205, .T. ) ;
#178 = VECTOR ( 'NONE', #533, 1000.000000000000000 ) ;
#179 = DIRECTION ( 'NONE',  ( 1.000000000000000000, -0.000000000000000000, -1.334402673828313339E-16 ) ) ;
#180 = ORIENTED_EDGE ( 'NONE', *, *, #890, .T. ) ;
#181 = DIRECTION ( 'NONE',  ( 0.000000000000000000, 1.000000000000000000, -0.000000000000000000 ) ) ;
#182 = DIRECTION ( 'NONE',  ( 0.000000000000000000, -1.000000000000000000, 0.000000000000000000 ) ) ;
#183 = ORIENTED_EDGE ( 'NONE', *, *, #733, .T. ) ;
#184 = ORIENTED_EDGE ( 'NONE', *, *, #614, .F. ) ;
#185 = AXIS2_PLACEMENT_3D ( 'NONE', #847, #934, #216 ) ;
#186 = AXIS2_PLACEMENT_3D ( 'NONE', #468, #387, #551 ) ;
#187 = DIRECTION ( 'NONE',  ( 1.000000000000000000, 0.000000000000000000, 0.000000000000000000 ) ) ;
#188 = LINE ( 'NONE', #822, #541 ) ;
#189 = EDGE_CURVE ( 'NONE', #811, #240, #671, .T. ) ;
#190 = CARTESIAN_POINT ( 'NONE',  ( -39.08999999999999631, -28.49999999999999645, 37.00000000000000000 ) ) ;
#191 = ORIENTED_EDGE ( 'NONE', *, *, #884, .T. ) ;
#192 = CARTESIAN_POINT ( 'NONE',  ( -39.08999999999999631, -20.49999999999999645, 33.50000000000000000 ) ) ;
#193 = PRESENTATION_LAYER_ASSIGNMENT (  '', '', ( #920 ) ) ;
#194 = DIRECTION ( 'NONE',  ( -0.000000000000000000, 1.000000000000000000, -0.000000000000000000 ) ) ;
#195 = VECTOR ( 'NONE', #737, 1000.000000000000000 ) ;
#196 = ORIENTED_EDGE ( 'NONE', *, *, #726, .T. ) ;
#197 = CYLINDRICAL_SURFACE ( 'NONE', #98, 0.9100000000000010303 ) ;
#198 = LINE ( 'NONE', #929, #610 ) ;
#199 = VECTOR ( 'NONE', #108, 1000.000000000000000 ) ;
#200 = EDGE_LOOP ( 'NONE', ( #177, #560, #575, #967, #227, #662, #148, #384, #475, #412, #465, #274 ) ) ;
#201 = FACE_BOUND ( 'NONE', #1044, .T. ) ;
#202 = CARTESIAN_POINT ( 'NONE',  ( -52.40999999999998948, -23.49999999999999645, 37.00000000000000000 ) ) ;
#203 = CARTESIAN_POINT ( 'NONE',  ( -6.499999999999997335, -45.50000000000000000, 37.00000000000000000 ) ) ;
#204 = DIRECTION ( 'NONE',  ( 0.000000000000000000, -1.000000000000000000, 0.000000000000000000 ) ) ;
#205 = EDGE_CURVE ( 'NONE', #672, #968, #883, .T. ) ;
#206 = SHAPE_DEFINITION_REPRESENTATION ( #682, #116 ) ;
#207 = CIRCLE ( 'NONE', #750, 1.600000000000000755 ) ;
#208 = DIRECTION ( 'NONE',  ( -0.000000000000000000, 0.000000000000000000, 1.000000000000000000 ) ) ;
#209 = DIRECTION ( 'NONE',  ( -1.000000000000000000, 0.000000000000000000, 2.478176394252579662E-16 ) ) ;
#210 = CLOSED_SHELL ( 'NONE', ( #253, #369, #321, #1004, #159, #809, #770, #711, #590, #950, #327, #80, #469, #1000, #537, #484, #931, #56, #559, #846, #49, #495, #112, #482, #718, #402, #650, #791, #855, #869, #972 ) ) ;
#211 = DIRECTION ( 'NONE',  ( -0.000000000000000000, 1.000000000000000000, -0.000000000000000000 ) ) ;
#212 = EDGE_CURVE ( 'NONE', #135, #67, #818, .T. ) ;
#213 = CARTESIAN_POINT ( 'NONE',  ( -54.49999999999999289, -20.49999999999999645, 37.00000000000000711 ) ) ;
#214 = LINE ( 'NONE', #281, #629 ) ;
#215 = CARTESIAN_POINT ( 'NONE',  ( -54.49999999999999289, -20.49999999999999645, 37.00000000000000711 ) ) ;
#216 = DIRECTION ( 'NONE',  ( 1.000000000000000000, 0.000000000000000000, 0.000000000000000000 ) ) ;
#217 = VERTEX_POINT ( 'NONE', #1052 ) ;
#218 = FACE_OUTER_BOUND ( 'NONE', #146, .T. ) ;
#219 = ORIENTED_EDGE ( 'NONE', *, *, #1031, .F. ) ;
#220 = DIRECTION ( 'NONE',  ( 1.334402673828313339E-16, 0.000000000000000000, 1.000000000000000000 ) ) ;
#221 = ORIENTED_EDGE ( 'NONE', *, *, #246, .F. ) ;
#222 = CARTESIAN_POINT ( 'NONE',  ( -8.679999999999996163, -23.49999999999999645, 37.00000000000000000 ) ) ;
#223 = EDGE_LOOP ( 'NONE', ( #358, #441, #904, #577 ) ) ;
#224 = CARTESIAN_POINT ( 'NONE',  ( -50.58999999999998920, -41.24000000000000199, 33.50000000000000000 ) ) ;
#225 = EDGE_LOOP ( 'NONE', ( #417, #1001, #117, #723 ) ) ;
#226 = LINE ( 'NONE', #544, #554 ) ;
#227 = ORIENTED_EDGE ( 'NONE', *, *, #755, .F. ) ;
#228 = CARTESIAN_POINT ( 'NONE',  ( -8.679999999999996163, -41.24000000000000199, 20.99999999999999645 ) ) ;
#229 = CIRCLE ( 'NONE', #548, 0.9100000000000010303 ) ;
#230 = VECTOR ( 'NONE', #1019, 1000.000000000000000 ) ;
#231 = ORIENTED_EDGE ( 'NONE', *, *, #189, .T. ) ;
#232 = FACE_OUTER_BOUND ( 'NONE', #141, .T. ) ;
#233 = CARTESIAN_POINT ( 'NONE',  ( -6.499999999999997335, -45.50000000000000000, 37.00000000000000000 ) ) ;
#234 = VECTOR ( 'NONE', #382, 1000.000000000000000 ) ;
#235 = LINE ( 'NONE', #302, #509 ) ;
#236 = AXIS2_PLACEMENT_3D ( 'NONE', #136, #451, #62 ) ;
#237 = EDGE_CURVE ( 'NONE', #431, #714, #92, .T. ) ;
#238 = EDGE_LOOP ( 'NONE', ( #485, #493, #1054, #1055 ) ) ;
#239 = VECTOR ( 'NONE', #424, 1000.000000000000000 ) ;
#240 = VERTEX_POINT ( 'NONE', #372 ) ;
#241 = FACE_OUTER_BOUND ( 'NONE', #223, .T. ) ;
#242 = DIRECTION ( 'NONE',  ( 0.000000000000000000, 1.000000000000000000, 0.000000000000000000 ) ) ;
#243 = AXIS2_PLACEMENT_3D ( 'NONE', #665, #242, #578 ) ;
#244 = EDGE_CURVE ( 'NONE', #431, #3, #42, .T. ) ;
#245 = VECTOR ( 'NONE', #720, 1000.000000000000000 ) ;
#246 = EDGE_CURVE ( 'NONE', #386, #811, #638, .T. ) ;
#247 = EDGE_LOOP ( 'NONE', ( #587, #73, #881, #659 ) ) ;
#248 = VERTEX_POINT ( 'NONE', #1035 ) ;
#249 = DIRECTION ( 'NONE',  ( -0.000000000000000000, -0.000000000000000000, 1.000000000000000000 ) ) ;
#250 = AXIS2_PLACEMENT_3D ( 'NONE', #932, #514, #529 ) ;
#251 = DIRECTION ( 'NONE',  ( 1.334402673828313339E-16, -0.000000000000000000, 1.000000000000000000 ) ) ;
#252 = VERTEX_POINT ( 'NONE', #789 ) ;
#253 = ADVANCED_FACE ( 'NONE', ( #700 ), #313, .F. ) ;
#254 = VERTEX_POINT ( 'NONE', #958 ) ;
#255 = CARTESIAN_POINT ( 'NONE',  ( -39.08999999999999631, -45.50000000000000000, 33.50000000000000000 ) ) ;
#256 = CARTESIAN_POINT ( 'NONE',  ( -39.08999999999999631, -37.50000000000000711, 20.99999999999999645 ) ) ;
#257 = ORIENTED_EDGE ( 'NONE', *, *, #9, .F. ) ;
#258 = DIRECTION ( 'NONE',  ( -0.000000000000000000, -0.000000000000000000, 1.000000000000000000 ) ) ;
#259 = ORIENTED_EDGE ( 'NONE', *, *, #332, .F. ) ;
#260 = CARTESIAN_POINT ( 'NONE',  ( -7.779999999999995808, -23.49999999999999645, 37.00000000000000000 ) ) ;
#261 = FACE_OUTER_BOUND ( 'NONE', #624, .T. ) ;
#262 = ORIENTED_EDGE ( 'NONE', *, *, #657, .T. ) ;
#263 = VECTOR ( 'NONE', #943, 1000.000000000000000 ) ;
#264 = SURFACE_STYLE_USAGE ( .BOTH. , #658 ) ;
#265 = ORIENTED_EDGE ( 'NONE', *, *, #740, .T. ) ;
#266 = CARTESIAN_POINT ( 'NONE',  ( -50.58999999999998920, -23.49999999999999645, 20.99999999999999645 ) ) ;
#267 = EDGE_CURVE ( 'NONE', #252, #675, #132, .T. ) ;
#268 = DIRECTION ( 'NONE',  ( 1.000000000000000000, 0.000000000000000000, -1.334402673828313339E-16 ) ) ;
#269 = FILL_AREA_STYLE_COLOUR ( '', #778 ) ;
#270 = ORIENTED_EDGE ( 'NONE', *, *, #423, .T. ) ;
#271 = AXIS2_PLACEMENT_3D ( 'NONE', #546, #540, #139 ) ;
#272 = FACE_OUTER_BOUND ( 'NONE', #707, .T. ) ;
#273 = CARTESIAN_POINT ( 'NONE',  ( 0.000000000000000000, -2.500000000000000444, -9.400000000000000355 ) ) ;
#274 = ORIENTED_EDGE ( 'NONE', *, *, #823, .T. ) ;
#275 = FACE_BOUND ( 'NONE', #728, .T. ) ;
#276 = DIRECTION ( 'NONE',  ( 1.000000000000000000, 0.000000000000000000, 0.000000000000000000 ) ) ;
#277 = DIRECTION ( 'NONE',  ( 1.000000000000000000, 0.000000000000000000, 0.000000000000000000 ) ) ;
#278 = AXIS2_PLACEMENT_3D ( 'NONE', #584, #504, #21 ) ;
#279 = VERTEX_POINT ( 'NONE', #964 ) ;
#280 = DIRECTION ( 'NONE',  ( -0.000000000000000000, -0.000000000000000000, 1.000000000000000000 ) ) ;
#281 = CARTESIAN_POINT ( 'NONE',  ( -6.500000000000000888, -2.500000000000000000, -13.00000000000000000 ) ) ;
#282 = CYLINDRICAL_SURFACE ( 'NONE', #738, 1.600000000000000755 ) ;
#283 = EDGE_CURVE ( 'NONE', #467, #51, #235, .T. ) ;
#284 = DIRECTION ( 'NONE',  ( 1.000000000000000000, 0.000000000000000000, 0.000000000000000000 ) ) ;
#285 = DIRECTION ( 'NONE',  ( 1.000000000000000000, 0.000000000000000000, -0.000000000000000000 ) ) ;
#286 = CIRCLE ( 'NONE', #872, 0.9100000000000002531 ) ;
#287 = CARTESIAN_POINT ( 'NONE',  ( -6.499999999999997335, 2.500000000000000000, 37.00000000000000000 ) ) ;
#288 = DIRECTION ( 'NONE',  ( -0.000000000000000000, -0.000000000000000000, 1.000000000000000000 ) ) ;
#289 = LINE ( 'NONE', #605, #446 ) ;
#290 = AXIS2_PLACEMENT_3D ( 'NONE', #771, #380, #951 ) ;
#291 = CARTESIAN_POINT ( 'NONE',  ( -51.49999999999999289, -41.24000000000000199, 37.00000000000000000 ) ) ;
#292 = CARTESIAN_POINT ( 'NONE',  ( -7.769999999999996909, -41.24000000000000199, 33.49999999999999289 ) ) ;
#293 = CARTESIAN_POINT ( 'NONE',  ( -6.500000000000000888, 2.500000000000000000, -13.00000000000000000 ) ) ;
#294 = EDGE_CURVE ( 'NONE', #794, #254, #706, .T. ) ;
#295 = VERTEX_POINT ( 'NONE', #1030 ) ;
#296 = LINE ( 'NONE', #962, #151 ) ;
#297 = EDGE_LOOP ( 'NONE', ( #803, #891, #922, #312 ) ) ;
#298 = CARTESIAN_POINT ( 'NONE',  ( -39.08999999999999631, -45.50000000000000000, 33.50000000000000000 ) ) ;
#299 = ORIENTED_EDGE ( 'NONE', *, *, #518, .F. ) ;
#300 = DIRECTION ( 'NONE',  ( -1.334402673828313339E-16, 0.000000000000000000, -1.000000000000000000 ) ) ;
#301 = ORIENTED_EDGE ( 'NONE', *, *, #357, .F. ) ;
#302 = CARTESIAN_POINT ( 'NONE',  ( -6.499999999999994671, -2.500000000000000000, 24.99999999999999645 ) ) ;
#303 = ORIENTED_EDGE ( 'NONE', *, *, #978, .T. ) ;
#304 = EDGE_CURVE ( 'NONE', #381, #279, #859, .T. ) ;
#305 = DIRECTION ( 'NONE',  ( 0.000000000000000000, 0.000000000000000000, 1.000000000000000000 ) ) ;
#306 = VERTEX_POINT ( 'NONE', #630 ) ;
#307 = DIRECTION ( 'NONE',  ( -2.478176394252579662E-16, 0.000000000000000000, -1.000000000000000000 ) ) ;
#308 = AXIS2_PLACEMENT_3D ( 'NONE', #48, #209, #114 ) ;
#309 = ORIENTED_EDGE ( 'NONE', *, *, #383, .T. ) ;
#310 = EDGE_CURVE ( 'NONE', #279, #11, #377, .T. ) ;
#311 = DIRECTION ( 'NONE',  ( 1.000000000000000000, 0.000000000000000000, 0.000000000000000000 ) ) ;
#312 = ORIENTED_EDGE ( 'NONE', *, *, #1031, .T. ) ;
#313 = CYLINDRICAL_SURFACE ( 'NONE', #1015, 0.9000000000000005773 ) ;
#314 = VECTOR ( 'NONE', #930, 1000.000000000000000 ) ;
#315 = VECTOR ( 'NONE', #833, 1000.000000000000000 ) ;
#316 = ORIENTED_EDGE ( 'NONE', *, *, #740, .F. ) ;
#317 = ORIENTED_EDGE ( 'NONE', *, *, #340, .F. ) ;
#318 = CARTESIAN_POINT ( 'NONE',  ( -21.08999999999998920, -20.49999999999999645, 33.50000000000000000 ) ) ;
#319 = LINE ( 'NONE', #190, #609 ) ;
#320 = CARTESIAN_POINT ( 'NONE',  ( -54.49999999999999289, -45.50000000000000000, 33.50000000000000000 ) ) ;
#321 = ADVANCED_FACE ( 'NONE', ( #619 ), #464, .F. ) ;
#322 = ORIENTED_EDGE ( 'NONE', *, *, #921, .T. ) ;
#323 = VERTEX_POINT ( 'NONE', #224 ) ;
#324 = CARTESIAN_POINT ( 'NONE',  ( -54.49999999999999289, -20.49999999999999645, 37.00000000000000711 ) ) ;
#325 = DIRECTION ( 'NONE',  ( 0.000000000000000000, -0.000000000000000000, -1.000000000000000000 ) ) ;
#326 = AXIS2_PLACEMENT_3D ( 'NONE', #320, #805, #268 ) ;
#327 = ADVANCED_FACE ( 'NONE', ( #870 ), #557, .F. ) ;
#328 = ORIENTED_EDGE ( 'NONE', *, *, #357, .T. ) ;
#329 = ORIENTED_EDGE ( 'NONE', *, *, #244, .F. ) ;
#330 = DIRECTION ( 'NONE',  ( 0.000000000000000000, -1.000000000000000000, 0.000000000000000000 ) ) ;
#331 = FACE_BOUND ( 'NONE', #494, .T. ) ;
#332 = EDGE_CURVE ( 'NONE', #3, #431, #129, .T. ) ;
#333 = VERTEX_POINT ( 'NONE', #144 ) ;
#334 = VERTEX_POINT ( 'NONE', #864 ) ;
#335 = CARTESIAN_POINT ( 'NONE',  ( -21.09000000000001762, -45.50000000000000711, 33.50000000000000000 ) ) ;
#336 = LINE ( 'NONE', #410, #865 ) ;
#337 = ORIENTED_EDGE ( 'NONE', *, *, #332, .T. ) ;
#338 = ORIENTED_EDGE ( 'NONE', *, *, #88, .T. ) ;
#339 = CIRCLE ( 'NONE', #935, 0.9100000000000010303 ) ;
#340 = EDGE_CURVE ( 'NONE', #135, #425, #912, .T. ) ;
#341 = CARTESIAN_POINT ( 'NONE',  ( -54.49999999999999289, -45.50000000000000000, 33.50000000000000000 ) ) ;
#342 = AXIS2_PLACEMENT_3D ( 'NONE', #976, #249, #568 ) ;
#343 = DIRECTION ( 'NONE',  ( 1.000000000000000000, -0.000000000000000000, -1.334402673828313339E-16 ) ) ;
#344 = VECTOR ( 'NONE', #1017, 1000.000000000000000 ) ;
#345 =( LENGTH_UNIT ( ) NAMED_UNIT ( * ) SI_UNIT ( .MILLI., .METRE. ) );
#346 = ORIENTED_EDGE ( 'NONE', *, *, #892, .F. ) ;
#347 = DIRECTION ( 'NONE',  ( 0.000000000000000000, -0.000000000000000000, 1.000000000000000000 ) ) ;
#348 = CARTESIAN_POINT ( 'NONE',  ( -39.08999999999999631, -45.50000000000000711, 20.99999999999999645 ) ) ;
#349 = ORIENTED_EDGE ( 'NONE', *, *, #615, .F. ) ;
#350 = CARTESIAN_POINT ( 'NONE',  ( 0.000000000000000000, -2.500000000000000444, -7.799999999999999822 ) ) ;
#351 = DIRECTION ( 'NONE',  ( -1.000000000000000000, 0.000000000000000000, 0.000000000000000000 ) ) ;
#352 = EDGE_CURVE ( 'NONE', #616, #814, #455, .T. ) ;
#353 = ORIENTED_EDGE ( 'NONE', *, *, #30, .F. ) ;
#354 = CARTESIAN_POINT ( 'NONE',  ( 0.000000000000000000, 2.500000000000000000, 0.000000000000000000 ) ) ;
#355 = LINE ( 'NONE', #602, #263 ) ;
#356 = DIRECTION ( 'NONE',  ( -0.000000000000000000, 1.000000000000000000, -0.000000000000000000 ) ) ;
#357 = EDGE_CURVE ( 'NONE', #949, #743, #795, .T. ) ;
#358 = ORIENTED_EDGE ( 'NONE', *, *, #606, .F. ) ;
#359 = CARTESIAN_POINT ( 'NONE',  ( -52.40999999999998948, -41.24000000000000199, 37.00000000000000000 ) ) ;
#360 = LINE ( 'NONE', #126, #1041 ) ;
#361 = LINE ( 'NONE', #287, #5 ) ;
#362 = AXIS2_PLACEMENT_3D ( 'NONE', #956, #873, #793 ) ;
#363 = DIRECTION ( 'NONE',  ( 0.000000000000000000, 1.000000000000000000, 0.000000000000000000 ) ) ;
#364 = DIRECTION ( 'NONE',  ( -1.334402673828313339E-16, -0.000000000000000000, -1.000000000000000000 ) ) ;
#365 = FACE_OUTER_BOUND ( 'NONE', #143, .T. ) ;
#366 = VECTOR ( 'NONE', #307, 1000.000000000000000 ) ;
#367 = EDGE_CURVE ( 'NONE', #248, #836, #1024, .T. ) ;
#368 = VECTOR ( 'NONE', #370, 1000.000000000000000 ) ;
#369 = ADVANCED_FACE ( 'NONE', ( #944 ), #550, .F. ) ;
#370 = DIRECTION ( 'NONE',  ( -1.000000000000000000, -0.000000000000000000, -0.000000000000000000 ) ) ;
#371 = DIRECTION ( 'NONE',  ( 0.000000000000000000, -0.000000000000000000, -1.000000000000000000 ) ) ;
#372 = CARTESIAN_POINT ( 'NONE',  ( 1.959434878635764984E-16, 2.500000000000000000, -11.00000000000000178 ) ) ;
#373 =( NAMED_UNIT ( * ) SI_UNIT ( $, .STERADIAN. ) SOLID_ANGLE_UNIT ( ) );
#374 = CIRCLE ( 'NONE', #243, 1.600000000000000755 ) ;
#375 = CARTESIAN_POINT ( 'NONE',  ( -9.579999999999998295, -23.49999999999999645, 33.49999999999999289 ) ) ;
#376 = CARTESIAN_POINT ( 'NONE',  ( 0.000000000000000000, 2.500000000000000000, -7.799999999999999822 ) ) ;
#377 = LINE ( 'NONE', #298, #96 ) ;
#378 = AXIS2_PLACEMENT_3D ( 'NONE', #354, #25, #347 ) ;
#379 = ORIENTED_EDGE ( 'NONE', *, *, #511, .F. ) ;
#380 = DIRECTION ( 'NONE',  ( -0.000000000000000000, 1.000000000000000000, 0.000000000000000000 ) ) ;
#381 = VERTEX_POINT ( 'NONE', #434 ) ;
#382 = DIRECTION ( 'NONE',  ( 2.478176394252579662E-16, -0.000000000000000000, 1.000000000000000000 ) ) ;
#383 = EDGE_CURVE ( 'NONE', #703, #675, #668, .T. ) ;
#384 = ORIENTED_EDGE ( 'NONE', *, *, #310, .T. ) ;
#385 = FACE_OUTER_BOUND ( 'NONE', #507, .T. ) ;
#386 = VERTEX_POINT ( 'NONE', #350 ) ;
#387 = DIRECTION ( 'NONE',  ( 1.334402673828313339E-16, -0.000000000000000000, 1.000000000000000000 ) ) ;
#388 = ORIENTED_EDGE ( 'NONE', *, *, #212, .T. ) ;
#389 = CARTESIAN_POINT ( 'NONE',  ( -6.499999999999996447, -45.50000000000000000, 33.49999999999999289 ) ) ;
#390 = ORIENTED_EDGE ( 'NONE', *, *, #106, .F. ) ;
#391 = DIRECTION ( 'NONE',  ( -0.000000000000000000, 1.000000000000000000, -0.000000000000000000 ) ) ;
#392 = CIRCLE ( 'NONE', #941, 0.9100000000000010303 ) ;
#393 = ORIENTED_EDGE ( 'NONE', *, *, #97, .T. ) ;
#394 = EDGE_LOOP ( 'NONE', ( #786, #309, #513, #646 ) ) ;
#395 = CARTESIAN_POINT ( 'NONE',  ( -51.49999999999999289, -23.49999999999999645, 37.00000000000000000 ) ) ;
#396 = CARTESIAN_POINT ( 'NONE',  ( -52.40999999999998948, -23.49999999999999645, 20.99999999999999645 ) ) ;
#397 = DIRECTION ( 'NONE',  ( 0.000000000000000000, 0.000000000000000000, -1.000000000000000000 ) ) ;
#398 = AXIS2_PLACEMENT_3D ( 'NONE', #127, #695, #220 ) ;
#399 = ORIENTED_EDGE ( 'NONE', *, *, #643, .F. ) ;
#400 = ORIENTED_EDGE ( 'NONE', *, *, #927, .F. ) ;
#401 = CARTESIAN_POINT ( 'NONE',  ( -39.08999999999999631, -28.49999999999999645, 33.50000000000000000 ) ) ;
#402 = ADVANCED_FACE ( 'NONE', ( #759 ), #604, .F. ) ;
#403 = FACE_OUTER_BOUND ( 'NONE', #595, .T. ) ;
#404 = ORIENTED_EDGE ( 'NONE', *, *, #755, .T. ) ;
#405 = VERTEX_POINT ( 'NONE', #192 ) ;
#406 = LINE ( 'NONE', #555, #527 ) ;
#407 = CARTESIAN_POINT ( 'NONE',  ( -21.09000000000001762, -37.50000000000000711, 20.99999999999999645 ) ) ;
#408 = VECTOR ( 'NONE', #343, 1000.000000000000000 ) ;
#409 = EDGE_CURVE ( 'NONE', #386, #68, #28, .T. ) ;
#410 = CARTESIAN_POINT ( 'NONE',  ( -54.49999999999999289, -45.50000000000000000, 33.50000000000000000 ) ) ;
#411 = VERTEX_POINT ( 'NONE', #673 ) ;
#412 = ORIENTED_EDGE ( 'NONE', *, *, #884, .F. ) ;
#413 = PLANE ( 'NONE',  #138 ) ;
#414 = VECTOR ( 'NONE', #457, 1000.000000000000000 ) ;
#415 = LINE ( 'NONE', #982, #678 ) ;
#416 = AXIS2_PLACEMENT_3D ( 'NONE', #176, #896, #510 ) ;
#417 = ORIENTED_EDGE ( 'NONE', *, *, #75, .T. ) ;
#418 = CARTESIAN_POINT ( 'NONE',  ( -52.40999999999998948, -23.49999999999999645, 33.50000000000000000 ) ) ;
#419 = VERTEX_POINT ( 'NONE', #844 ) ;
#420 = DIRECTION ( 'NONE',  ( 1.334402673828313339E-16, -0.000000000000000000, 1.000000000000000000 ) ) ;
#421 = CIRCLE ( 'NONE', #90, 0.9000000000000005773 ) ;
#422 = CARTESIAN_POINT ( 'NONE',  ( -39.08999999999999631, -28.49999999999999645, 20.99999999999999645 ) ) ;
#423 = EDGE_CURVE ( 'NONE', #425, #135, #110, .T. ) ;
#424 = DIRECTION ( 'NONE',  ( -0.000000000000000000, -0.000000000000000000, 1.000000000000000000 ) ) ;
#425 = VERTEX_POINT ( 'NONE', #1002 ) ;
#426 = CIRCLE ( 'NONE', #882, 0.9100000000000002531 ) ;
#427 = FACE_OUTER_BOUND ( 'NONE', #1034, .T. ) ;
#428 = LINE ( 'NONE', #95, #408 ) ;
#429 = VECTOR ( 'NONE', #499, 1000.000000000000000 ) ;
#430 = CARTESIAN_POINT ( 'NONE',  ( -54.49999999999999289, -20.49999999999999645, 33.50000000000000000 ) ) ;
#431 = VERTEX_POINT ( 'NONE', #118 ) ;
#432 = EDGE_CURVE ( 'NONE', #248, #334, #997, .T. ) ;
#433 = EDGE_CURVE ( 'NONE', #68, #240, #651, .T. ) ;
#434 = CARTESIAN_POINT ( 'NONE',  ( -21.09000000000001762, -37.50000000000000711, 33.49999999999999289 ) ) ;
#435 = PLANE ( 'NONE',  #1014 ) ;
#436 = ORIENTED_EDGE ( 'NONE', *, *, #439, .F. ) ;
#437 = FACE_OUTER_BOUND ( 'NONE', #916, .T. ) ;
#438 = CARTESIAN_POINT ( 'NONE',  ( -21.08999999999998920, -28.49999999999999645, 37.00000000000000000 ) ) ;
#439 = EDGE_CURVE ( 'NONE', #814, #1042, #767, .T. ) ;
#440 = CARTESIAN_POINT ( 'NONE',  ( -39.08999999999999631, -28.49999999999999645, 20.99999999999999645 ) ) ;
#441 = ORIENTED_EDGE ( 'NONE', *, *, #124, .T. ) ;
#442 = PRODUCT ( '344', '344', '', ( #133 ) ) ;
#443 = LINE ( 'NONE', #840, #1027 ) ;
#444 = DIRECTION ( 'NONE',  ( 0.000000000000000000, 0.000000000000000000, 1.000000000000000000 ) ) ;
#445 = CARTESIAN_POINT ( 'NONE',  ( 6.500000000000002665, -45.50000000000000000, 24.99999999999999645 ) ) ;
#446 = VECTOR ( 'NONE', #458, 1000.000000000000000 ) ;
#447 = CARTESIAN_POINT ( 'NONE',  ( -6.499999999999994671, -45.50000000000000000, 24.99999999999999645 ) ) ;
#448 = LINE ( 'NONE', #768, #528 ) ;
#449 = EDGE_CURVE ( 'NONE', #622, #16, #443, .T. ) ;
#450 = EDGE_CURVE ( 'NONE', #792, #836, #763, .T. ) ;
#451 = DIRECTION ( 'NONE',  ( -0.000000000000000000, -0.000000000000000000, 1.000000000000000000 ) ) ;
#452 = DIRECTION ( 'NONE',  ( 1.334402673828313339E-16, 0.000000000000000000, 1.000000000000000000 ) ) ;
#453 = VECTOR ( 'NONE', #128, 1000.000000000000000 ) ;
#454 = VECTOR ( 'NONE', #391, 1000.000000000000000 ) ;
#455 = LINE ( 'NONE', #149, #856 ) ;
#456 = CARTESIAN_POINT ( 'NONE',  ( -52.40999999999998948, -41.24000000000000199, 20.99999999999999645 ) ) ;
#457 = DIRECTION ( 'NONE',  ( -0.000000000000000000, -1.000000000000000000, -0.000000000000000000 ) ) ;
#458 = DIRECTION ( 'NONE',  ( -2.478176394252579662E-16, 0.000000000000000000, -1.000000000000000000 ) ) ;
#459 = DIRECTION ( 'NONE',  ( -1.000000000000000000, 0.000000000000000000, 1.334402673828313339E-16 ) ) ;
#460 = CIRCLE ( 'NONE', #278, 0.9000000000000005773 ) ;
#461 = ORIENTED_EDGE ( 'NONE', *, *, #450, .T. ) ;
#462 = DIRECTION ( 'NONE',  ( 1.334402673828313339E-16, -0.000000000000000000, 1.000000000000000000 ) ) ;
#463 = ORIENTED_EDGE ( 'NONE', *, *, #174, .F. ) ;
#464 = CYLINDRICAL_SURFACE ( 'NONE', #722, 0.9100000000000002531 ) ;
#465 = ORIENTED_EDGE ( 'NONE', *, *, #174, .T. ) ;
#466 = DIRECTION ( 'NONE',  ( 0.000000000000000000, -1.000000000000000000, 0.000000000000000000 ) ) ;
#467 = VERTEX_POINT ( 'NONE', #592 ) ;
#468 = CARTESIAN_POINT ( 'NONE',  ( -51.49999999999999289, -23.49999999999999645, 33.50000000000000000 ) ) ;
#469 = ADVANCED_FACE ( 'NONE', ( #676, #275, #272 ), #33, .T. ) ;
#470 = ORIENTED_EDGE ( 'NONE', *, *, #839, .T. ) ;
#471 = LINE ( 'NONE', #852, #632 ) ;
#472 = ORIENTED_EDGE ( 'NONE', *, *, #518, .T. ) ;
#473 = DIRECTION ( 'NONE',  ( 2.168404344971008868E-16, 0.000000000000000000, -1.000000000000000000 ) ) ;
#474 = AXIS2_PLACEMENT_3D ( 'NONE', #324, #647, #69 ) ;
#475 = ORIENTED_EDGE ( 'NONE', *, *, #775, .F. ) ;
#476 = AXIS2_PLACEMENT_3D ( 'NONE', #905, #420, #175 ) ;
#477 = VERTEX_POINT ( 'NONE', #359 ) ;
#478 = CARTESIAN_POINT ( 'NONE',  ( -21.09000000000001762, -37.50000000000000711, 20.99999999999999645 ) ) ;
#479 = EDGE_LOOP ( 'NONE', ( #878, #545, #945, #736 ) ) ;
#480 = DIRECTION ( 'NONE',  ( 1.000000000000000000, 0.000000000000000000, -1.334402673828313339E-16 ) ) ;
#481 = VECTOR ( 'NONE', #452, 1000.000000000000000 ) ;
#482 = ADVANCED_FACE ( 'NONE', ( #924 ), #197, .F. ) ;
#483 = ORIENTED_EDGE ( 'NONE', *, *, #614, .T. ) ;
#484 = ADVANCED_FACE ( 'NONE', ( #437, #1007, #19, #928, #201 ), #680, .T. ) ;
#485 = ORIENTED_EDGE ( 'NONE', *, *, #1036, .F. ) ;
#486 = CARTESIAN_POINT ( 'NONE',  ( -54.49999999999999289, -45.50000000000000000, 37.00000000000000711 ) ) ;
#487 = CYLINDRICAL_SURFACE ( 'NONE', #648, 1.600000000000000755 ) ;
#488 = ORIENTED_EDGE ( 'NONE', *, *, #367, .T. ) ;
#489 = ORIENTED_EDGE ( 'NONE', *, *, #686, .F. ) ;
#490 = DIRECTION ( 'NONE',  ( 0.000000000000000000, 1.000000000000000000, 0.000000000000000000 ) ) ;
#491 = CARTESIAN_POINT ( 'NONE',  ( -21.09000000000001762, -45.50000000000000000, 33.49999999999999289 ) ) ;
#492 = PLANE ( 'NONE',  #923 ) ;
#493 = ORIENTED_EDGE ( 'NONE', *, *, #635, .F. ) ;
#494 = EDGE_LOOP ( 'NONE', ( #741, #337 ) ) ;
#495 = ADVANCED_FACE ( 'NONE', ( #427 ), #751, .F. ) ;
#496 = LINE ( 'NONE', #266, #195 ) ;
#497 = CARTESIAN_POINT ( 'NONE',  ( 6.499999999999999112, 2.500000000000000000, -13.00000000000000000 ) ) ;
#498 = ORIENTED_EDGE ( 'NONE', *, *, #1051, .F. ) ;
#499 = DIRECTION ( 'NONE',  ( -0.000000000000000000, 1.000000000000000000, -0.000000000000000000 ) ) ;
#500 = EDGE_LOOP ( 'NONE', ( #100, #631, #1059, #86 ) ) ;
#501 = DIRECTION ( 'NONE',  ( 1.000000000000000000, 0.000000000000000000, 0.000000000000000000 ) ) ;
#502 = CIRCLE ( 'NONE', #39, 0.9100000000000010303 ) ;
#503 = EDGE_CURVE ( 'NONE', #54, #622, #226, .T. ) ;
#504 = DIRECTION ( 'NONE',  ( 0.000000000000000000, 0.000000000000000000, 1.000000000000000000 ) ) ;
#505 = ORIENTED_EDGE ( 'NONE', *, *, #189, .F. ) ;
#506 = DIRECTION ( 'NONE',  ( -0.000000000000000000, 1.000000000000000000, -0.000000000000000000 ) ) ;
#507 = EDGE_LOOP ( 'NONE', ( #954, #983, #498, #164, #979, #582, #547, #724 ) ) ;
#508 = FACE_BOUND ( 'NONE', #571, .T. ) ;
#509 = VECTOR ( 'NONE', #625, 1000.000000000000000 ) ;
#510 = DIRECTION ( 'NONE',  ( 0.000000000000000000, -0.000000000000000000, 1.000000000000000000 ) ) ;
#511 = EDGE_CURVE ( 'NONE', #743, #639, #633, .T. ) ;
#512 = CARTESIAN_POINT ( 'NONE',  ( -21.08999999999998920, -20.49999999999999645, 20.99999999999999645 ) ) ;
#513 = ORIENTED_EDGE ( 'NONE', *, *, #267, .F. ) ;
#514 = DIRECTION ( 'NONE',  ( 1.334402673828313339E-16, -0.000000000000000000, 1.000000000000000000 ) ) ;
#515 = AXIS2_PLACEMENT_3D ( 'NONE', #721, #660, #501 ) ;
#516 = FACE_OUTER_BOUND ( 'NONE', #500, .T. ) ;
#517 = ORIENTED_EDGE ( 'NONE', *, *, #686, .T. ) ;
#518 = EDGE_CURVE ( 'NONE', #640, #295, #826, .T. ) ;
#519 = DIRECTION ( 'NONE',  ( 1.000000000000000000, 0.000000000000000000, 0.000000000000000000 ) ) ;
#520 = FACE_OUTER_BOUND ( 'NONE', #1032, .T. ) ;
#521 = VECTOR ( 'NONE', #601, 1000.000000000000000 ) ;
#522 = ORIENTED_EDGE ( 'NONE', *, *, #294, .F. ) ;
#523 = CARTESIAN_POINT ( 'NONE',  ( 0.000000000000000000, 2.500000000000000000, -9.400000000000000355 ) ) ;
#524 = DIRECTION ( 'NONE',  ( 1.000000000000000000, 0.000000000000000000, 0.000000000000000000 ) ) ;
#525 = CARTESIAN_POINT ( 'NONE',  ( -6.500000000000000888, 2.500000000000000000, -13.00000000000000000 ) ) ;
#526 = CARTESIAN_POINT ( 'NONE',  ( -39.08999999999999631, -28.49999999999999645, 37.00000000000000000 ) ) ;
#527 = VECTOR ( 'NONE', #880, 1000.000000000000000 ) ;
#528 = VECTOR ( 'NONE', #364, 1000.000000000000000 ) ;
#529 = DIRECTION ( 'NONE',  ( 1.000000000000000000, 0.000000000000000000, 0.000000000000000000 ) ) ;
#530 = CYLINDRICAL_SURFACE ( 'NONE', #66, 0.9100000000000002531 ) ;
#531 = EDGE_CURVE ( 'NONE', #295, #819, #549, .T. ) ;
#532 = CYLINDRICAL_SURFACE ( 'NONE', #1018, 1.600000000000000755 ) ;
#533 = DIRECTION ( 'NONE',  ( -0.000000000000000000, -0.000000000000000000, 1.000000000000000000 ) ) ;
#534 = DIRECTION ( 'NONE',  ( 0.000000000000000000, -1.000000000000000000, 0.000000000000000000 ) ) ;
#535 = FACE_OUTER_BOUND ( 'NONE', #879, .T. ) ;
#536 = ORIENTED_EDGE ( 'NONE', *, *, #17, .F. ) ;
#537 = ADVANCED_FACE ( 'NONE', ( #232 ), #532, .F. ) ;
#538 = FACE_OUTER_BOUND ( 'NONE', #173, .T. ) ;
#539 = ORIENTED_EDGE ( 'NONE', *, *, #246, .T. ) ;
#540 = DIRECTION ( 'NONE',  ( 0.000000000000000000, 1.000000000000000000, 0.000000000000000000 ) ) ;
#541 = VECTOR ( 'NONE', #26, 1000.000000000000000 ) ;
#542 = ORIENTED_EDGE ( 'NONE', *, *, #766, .T. ) ;
#543 = EDGE_CURVE ( 'NONE', #819, #8, #421, .T. ) ;
#544 = CARTESIAN_POINT ( 'NONE',  ( -21.08999999999998920, -28.49999999999999645, 37.00000000000000000 ) ) ;
#545 = ORIENTED_EDGE ( 'NONE', *, *, #643, .T. ) ;
#546 = CARTESIAN_POINT ( 'NONE',  ( 0.000000000000000000, -2.500000000000000444, 9.400000000000000355 ) ) ;
#547 = ORIENTED_EDGE ( 'NONE', *, *, #921, .F. ) ;
#548 = AXIS2_PLACEMENT_3D ( 'NONE', #291, #43, #617 ) ;
#549 = LINE ( 'NONE', #708, #877 ) ;
#550 = CYLINDRICAL_SURFACE ( 'NONE', #585, 0.9100000000000010303 ) ;
#551 = DIRECTION ( 'NONE',  ( 1.000000000000000000, 0.000000000000000000, 0.000000000000000000 ) ) ;
#552 = AXIS2_PLACEMENT_3D ( 'NONE', #773, #50, #60 ) ;
#553 = ORIENTED_EDGE ( 'NONE', *, *, #237, .T. ) ;
#554 = VECTOR ( 'NONE', #867, 1000.000000000000000 ) ;
#555 = CARTESIAN_POINT ( 'NONE',  ( -21.09000000000001762, -45.50000000000000711, 20.99999999999999645 ) ) ;
#556 = ORIENTED_EDGE ( 'NONE', *, *, #876, .F. ) ;
#557 = PLANE ( 'NONE',  #398 ) ;
#558 = VECTOR ( 'NONE', #490, 1000.000000000000000 ) ;
#559 = ADVANCED_FACE ( 'NONE', ( #538 ), #787, .F. ) ;
#560 = ORIENTED_EDGE ( 'NONE', *, *, #41, .T. ) ;
#561 = ORIENTED_EDGE ( 'NONE', *, *, #927, .T. ) ;
#562 = FACE_OUTER_BOUND ( 'NONE', #238, .T. ) ;
#563 = DIRECTION ( 'NONE',  ( -0.000000000000000000, 1.000000000000000000, -0.000000000000000000 ) ) ;
#564 = ORIENTED_EDGE ( 'NONE', *, *, #409, .F. ) ;
#565 = VECTOR ( 'NONE', #687, 1000.000000000000000 ) ;
#566 = EDGE_LOOP ( 'NONE', ( #32, #111 ) ) ;
#567 = ORIENTED_EDGE ( 'NONE', *, *, #283, .F. ) ;
#568 = DIRECTION ( 'NONE',  ( 1.000000000000000000, 0.000000000000000000, 0.000000000000000000 ) ) ;
#569 = CARTESIAN_POINT ( 'NONE',  ( -21.09000000000001762, -37.50000000000000711, 37.00000000000000000 ) ) ;
#570 = DIRECTION ( 'NONE',  ( -0.000000000000000000, -0.000000000000000000, 1.000000000000000000 ) ) ;
#571 = EDGE_LOOP ( 'NONE', ( #542, #717 ) ) ;
#572 = EDGE_LOOP ( 'NONE', ( #299, #926, #180, #72 ) ) ;
#573 = LINE ( 'NONE', #491, #608 ) ;
#574 = FACE_BOUND ( 'NONE', #1037, .T. ) ;
#575 = ORIENTED_EDGE ( 'NONE', *, *, #606, .T. ) ;
#576 = CARTESIAN_POINT ( 'NONE',  ( 1.959434878635765477E-16, -10.50000000000000000, -11.00000000000000178 ) ) ;
#577 = ORIENTED_EDGE ( 'NONE', *, *, #18, .T. ) ;
#578 = DIRECTION ( 'NONE',  ( 0.000000000000000000, 0.000000000000000000, 1.000000000000000000 ) ) ;
#579 = DIRECTION ( 'NONE',  ( -1.334402673828313339E-16, -0.000000000000000000, -1.000000000000000000 ) ) ;
#580 = VECTOR ( 'NONE', #933, 1000.000000000000000 ) ;
#581 = ORIENTED_EDGE ( 'NONE', *, *, #899, .F. ) ;
#582 = ORIENTED_EDGE ( 'NONE', *, *, #17, .T. ) ;
#583 = CARTESIAN_POINT ( 'NONE',  ( -8.679999999999996163, -41.24000000000000199, 37.00000000000000000 ) ) ;
#584 = CARTESIAN_POINT ( 'NONE',  ( -8.679999999999996163, -23.49999999999999645, 37.00000000000000000 ) ) ;
#585 = AXIS2_PLACEMENT_3D ( 'NONE', #848, #280, #284 ) ;
#586 = CARTESIAN_POINT ( 'NONE',  ( 0.000000000000000000, -10.50000000000000000, -9.400000000000000355 ) ) ;
#587 = ORIENTED_EDGE ( 'NONE', *, *, #600, .F. ) ;
#588 = DIRECTION ( 'NONE',  ( -1.000000000000000000, 0.000000000000000000, -0.000000000000000000 ) ) ;
#589 = CARTESIAN_POINT ( 'NONE',  ( -6.499999999999994671, -45.50000000000000000, 24.99999999999999645 ) ) ;
#590 = ADVANCED_FACE ( 'NONE', ( #385 ), #130, .F. ) ;
#591 = EDGE_LOOP ( 'NONE', ( #729, #472 ) ) ;
#592 = CARTESIAN_POINT ( 'NONE',  ( -6.499999999999995559, -2.500000000000000000, 24.99999999999998579 ) ) ;
#593 = LINE ( 'NONE', #925, #993 ) ;
#594 = CIRCLE ( 'NONE', #780, 0.9100000000000002531 ) ;
#595 = EDGE_LOOP ( 'NONE', ( #183, #328, #898, #63 ) ) ;
#596 = DIRECTION ( 'NONE',  ( 1.000000000000000000, -0.000000000000000000, -1.334402673828313339E-16 ) ) ;
#597 = CARTESIAN_POINT ( 'NONE',  ( -6.499999999999997335, -20.49999999999999645, 37.00000000000000000 ) ) ;
#598 = CARTESIAN_POINT ( 'NONE',  ( -51.49999999999999289, -23.49999999999999645, 20.99999999999999645 ) ) ;
#599 = PRODUCT_RELATED_PRODUCT_CATEGORY ( 'part', '', ( #442 ) ) ;
#600 = EDGE_CURVE ( 'NONE', #306, #323, #502, .T. ) ;
#601 = DIRECTION ( 'NONE',  ( -0.000000000000000000, 1.000000000000000000, -0.000000000000000000 ) ) ;
#602 = CARTESIAN_POINT ( 'NONE',  ( -21.08999999999998920, -45.50000000000000000, 33.49999999999999289 ) ) ;
#603 = VECTOR ( 'NONE', #815, 1000.000000000000000 ) ;
#604 = PLANE ( 'NONE',  #702 ) ;
#605 = CARTESIAN_POINT ( 'NONE',  ( -6.499999999999993783, -20.49999999999999645, 37.00000000000000000 ) ) ;
#606 = EDGE_CURVE ( 'NONE', #705, #419, #471, .T. ) ;
#607 = DIRECTION ( 'NONE',  ( 1.000000000000000000, 0.000000000000000000, 0.000000000000000000 ) ) ;
#608 = VECTOR ( 'NONE', #900, 1000.000000000000000 ) ;
#609 = VECTOR ( 'NONE', #830, 1000.000000000000000 ) ;
#610 = VECTOR ( 'NONE', #34, 1000.000000000000000 ) ;
#611 = CARTESIAN_POINT ( 'NONE',  ( -39.08999999999999631, -37.50000000000000711, 37.00000000000000000 ) ) ;
#612 = FACE_OUTER_BOUND ( 'NONE', #297, .T. ) ;
#613 = DIRECTION ( 'NONE',  ( 1.334402673828313339E-16, 0.000000000000000000, 1.000000000000000000 ) ) ;
#614 = EDGE_CURVE ( 'NONE', #4, #477, #229, .T. ) ;
#615 = EDGE_CURVE ( 'NONE', #217, #714, #820, .T. ) ;
#616 = VERTEX_POINT ( 'NONE', #389 ) ;
#617 = DIRECTION ( 'NONE',  ( 1.000000000000000000, 0.000000000000000000, 0.000000000000000000 ) ) ;
#618 = CARTESIAN_POINT ( 'NONE',  ( 1.959434878635764984E-16, -2.500000000000000444, 7.799999999999999822 ) ) ;
#619 = FACE_OUTER_BOUND ( 'NONE', #863, .T. ) ;
#620 = EDGE_CURVE ( 'NONE', #907, #817, #53, .T. ) ;
#621 = PRODUCT_DEFINITION_CONTEXT ( 'detailed design', #22, 'design' ) ;
#622 = VERTEX_POINT ( 'NONE', #946 ) ;
#623 = DIRECTION ( 'NONE',  ( 1.334402673828313339E-16, -0.000000000000000000, 1.000000000000000000 ) ) ;
#624 = EDGE_LOOP ( 'NONE', ( #1029, #166, #353, #897 ) ) ;
#625 = DIRECTION ( 'NONE',  ( 1.000000000000000000, 0.000000000000000000, 0.000000000000000000 ) ) ;
#626 = EDGE_LOOP ( 'NONE', ( #270, #797 ) ) ;
#627 = DIRECTION ( 'NONE',  ( 1.000000000000000000, 0.000000000000000000, 0.000000000000000000 ) ) ;
#628 = ORIENTED_EDGE ( 'NONE', *, *, #82, .F. ) ;
#629 = VECTOR ( 'NONE', #694, 1000.000000000000000 ) ;
#630 = CARTESIAN_POINT ( 'NONE',  ( -52.40999999999998948, -41.24000000000000199, 33.50000000000000000 ) ) ;
#631 = ORIENTED_EDGE ( 'NONE', *, *, #165, .T. ) ;
#632 = VECTOR ( 'NONE', #1022, 1000.000000000000000 ) ;
#633 = LINE ( 'NONE', #47, #368 ) ;
#634 = ORIENTED_EDGE ( 'NONE', *, *, #383, .F. ) ;
#635 = EDGE_CURVE ( 'NONE', #295, #640, #1012, .T. ) ;
#636 = CARTESIAN_POINT ( 'NONE',  ( -8.679999999999996163, -23.49999999999999645, 20.99999999999999645 ) ) ;
#637 = VECTOR ( 'NONE', #1009, 1000.000000000000000 ) ;
#638 = CIRCLE ( 'NONE', #552, 1.600000000000000755 ) ;
#639 = VERTEX_POINT ( 'NONE', #611 ) ;
#640 = VERTEX_POINT ( 'NONE', #375 ) ;
#641 = CARTESIAN_POINT ( 'NONE',  ( -7.769999999999996909, -41.24000000000000199, 37.00000000000000000 ) ) ;
#642 = LINE ( 'NONE', #255, #832 ) ;
#643 = EDGE_CURVE ( 'NONE', #639, #703, #296, .T. ) ;
#644 = VECTOR ( 'NONE', #506, 1000.000000000000000 ) ;
#645 = ORIENTED_EDGE ( 'NONE', *, *, #955, .F. ) ;
#646 = ORIENTED_EDGE ( 'NONE', *, *, #775, .T. ) ;
#647 = DIRECTION ( 'NONE',  ( 0.000000000000000000, -1.000000000000000000, 0.000000000000000000 ) ) ;
#648 = AXIS2_PLACEMENT_3D ( 'NONE', #732, #563, #981 ) ;
#649 = PLANE ( 'NONE',  #326 ) ;
#650 = ADVANCED_FACE ( 'NONE', ( #218 ), #783, .F. ) ;
#651 = CIRCLE ( 'NONE', #52, 1.600000000000000755 ) ;
#652 = ORIENTED_EDGE ( 'NONE', *, *, #294, .T. ) ;
#653 = ORIENTED_EDGE ( 'NONE', *, *, #991, .F. ) ;
#654 = CARTESIAN_POINT ( 'NONE',  ( -54.49999999999999289, -20.49999999999999645, 37.00000000000000711 ) ) ;
#655 = CARTESIAN_POINT ( 'NONE',  ( 6.500000000000002665, -45.50000000000000000, 37.00000000000000000 ) ) ;
#656 = EDGE_LOOP ( 'NONE', ( #885, #645, #788, #989, #93, #390 ) ) ;
#657 = EDGE_CURVE ( 'NONE', #105, #889, #426, .T. ) ;
#658 = SURFACE_SIDE_STYLE ('',( #156 ) ) ;
#659 = ORIENTED_EDGE ( 'NONE', *, *, #88, .F. ) ;
#660 = DIRECTION ( 'NONE',  ( 0.000000000000000000, 0.000000000000000000, 1.000000000000000000 ) ) ;
#661 = CARTESIAN_POINT ( 'NONE',  ( 6.500000000000002665, 2.500000000000000000, 37.00000000000000000 ) ) ;
#662 = ORIENTED_EDGE ( 'NONE', *, *, #761, .T. ) ;
#663 = ORIENTED_EDGE ( 'NONE', *, *, #433, .T. ) ;
#664 = AXIS2_PLACEMENT_3D ( 'NONE', #799, #251, #12 ) ;
#665 = CARTESIAN_POINT ( 'NONE',  ( 0.000000000000000000, 2.500000000000000000, -9.400000000000000355 ) ) ;
#666 = CARTESIAN_POINT ( 'NONE',  ( 6.499999999999999112, -2.500000000000000000, -13.00000000000000000 ) ) ;
#667 = ORIENTED_EDGE ( 'NONE', *, *, #150, .T. ) ;
#668 = LINE ( 'NONE', #203, #315 ) ;
#669 = EDGE_CURVE ( 'NONE', #67, #1049, #339, .T. ) ;
#670 = DIRECTION ( 'NONE',  ( 0.000000000000000000, 1.000000000000000000, 0.000000000000000000 ) ) ;
#671 = LINE ( 'NONE', #576, #429 ) ;
#672 = VERTEX_POINT ( 'NONE', #401 ) ;
#673 = CARTESIAN_POINT ( 'NONE',  ( 6.500000000000002665, -45.50000000000000000, 37.00000000000000000 ) ) ;
#674 = DIRECTION ( 'NONE',  ( 1.000000000000000000, 0.000000000000000000, 0.000000000000000000 ) ) ;
#675 = VERTEX_POINT ( 'NONE', #486 ) ;
#676 = FACE_BOUND ( 'NONE', #1060, .T. ) ;
#677 = CARTESIAN_POINT ( 'NONE',  ( -21.08999999999998920, -28.49999999999999645, 20.99999999999999645 ) ) ;
#678 = VECTOR ( 'NONE', #194, 1000.000000000000000 ) ;
#679 = CARTESIAN_POINT ( 'NONE',  ( -39.08999999999999631, -20.49999999999999645, 20.99999999999999645 ) ) ;
#680 = PLANE ( 'NONE',  #691 ) ;
#681 = DIRECTION ( 'NONE',  ( -1.000000000000000000, -0.000000000000000000, -0.000000000000000000 ) ) ;
#682 = PRODUCT_DEFINITION_SHAPE ( 'NONE', 'NONE',  #790 ) ;
#683 =( NAMED_UNIT ( * ) PLANE_ANGLE_UNIT ( ) SI_UNIT ( $, .RADIAN. ) );
#684 = AXIS2_PLACEMENT_3D ( 'NONE', #213, #466, #776 ) ;
#685 = VECTOR ( 'NONE', #356, 1000.000000000000000 ) ;
#686 = EDGE_CURVE ( 'NONE', #675, #794, #725, .T. ) ;
#687 = DIRECTION ( 'NONE',  ( 1.000000000000000000, 0.000000000000000000, 0.000000000000000000 ) ) ;
#688 = LINE ( 'NONE', #772, #481 ) ;
#689 = VECTOR ( 'NONE', #459, 1000.000000000000000 ) ;
#690 = LINE ( 'NONE', #456, #637 ) ;
#691 = AXIS2_PLACEMENT_3D ( 'NONE', #1010, #208, #101 ) ;
#692 = EDGE_CURVE ( 'NONE', #57, #54, #79, .T. ) ;
#693 = DIRECTION ( 'NONE',  ( -0.000000000000000000, 1.000000000000000000, -0.000000000000000000 ) ) ;
#694 = DIRECTION ( 'NONE',  ( -1.000000000000000000, -0.000000000000000000, -0.000000000000000000 ) ) ;
#695 = DIRECTION ( 'NONE',  ( -1.000000000000000000, 0.000000000000000000, 1.334402673828313339E-16 ) ) ;
#696 = AXIS2_PLACEMENT_3D ( 'NONE', #589, #994, #674 ) ;
#697 = VECTOR ( 'NONE', #179, 1000.000000000000000 ) ;
#698 = CARTESIAN_POINT ( 'NONE',  ( -8.679999999999996163, -23.49999999999999645, 33.49999999999999289 ) ) ;
#699 = CARTESIAN_POINT ( 'NONE',  ( -9.589999999999998082, -41.24000000000000199, 37.00000000000000000 ) ) ;
#700 = FACE_OUTER_BOUND ( 'NONE', #572, .T. ) ;
#701 = CARTESIAN_POINT ( 'NONE',  ( 0.000000000000000000, -10.50000000000000000, 9.400000000000000355 ) ) ;
#702 = AXIS2_PLACEMENT_3D ( 'NONE', #37, #588, #756 ) ;
#703 = VERTEX_POINT ( 'NONE', #1056 ) ;
#704 = CARTESIAN_POINT ( 'NONE',  ( -8.679999999999996163, -41.24000000000000199, 33.49999999999999289 ) ) ;
#705 = VERTEX_POINT ( 'NONE', #318 ) ;
#706 = LINE ( 'NONE', #215, #366 ) ;
#707 = EDGE_LOOP ( 'NONE', ( #960, #393, #488, #980 ) ) ;
#708 = CARTESIAN_POINT ( 'NONE',  ( -7.779999999999995808, -23.49999999999999645, 20.99999999999999645 ) ) ;
#709 = VERTEX_POINT ( 'NONE', #641 ) ;
#710 = CARTESIAN_POINT ( 'NONE',  ( 0.000000000000000000, -10.50000000000000000, 11.00000000000000178 ) ) ;
#711 = ADVANCED_FACE ( 'NONE', ( #241 ), #894, .F. ) ;
#712 = ORIENTED_EDGE ( 'NONE', *, *, #124, .F. ) ;
#713 = CARTESIAN_POINT ( 'NONE',  ( 6.499999999999999112, 2.500000000000000000, -13.00000000000000000 ) ) ;
#714 = VERTEX_POINT ( 'NONE', #730 ) ;
#715 = CARTESIAN_POINT ( 'NONE',  ( 0.000000000000000000, -2.500000000000000444, 9.400000000000000355 ) ) ;
#716 = ORIENTED_EDGE ( 'NONE', *, *, #449, .F. ) ;
#717 = ORIENTED_EDGE ( 'NONE', *, *, #600, .T. ) ;
#718 = ADVANCED_FACE ( 'NONE', ( #562 ), #887, .F. ) ;
#719 = DIRECTION ( 'NONE',  ( 1.000000000000000000, 0.000000000000000000, 0.000000000000000000 ) ) ;
#720 = DIRECTION ( 'NONE',  ( -0.000000000000000000, -0.000000000000000000, 1.000000000000000000 ) ) ;
#721 = CARTESIAN_POINT ( 'NONE',  ( -51.49999999999999289, -41.24000000000000199, 37.00000000000000000 ) ) ;
#722 = AXIS2_PLACEMENT_3D ( 'NONE', #228, #948, #875 ) ;
#723 = ORIENTED_EDGE ( 'NONE', *, *, #620, .T. ) ;
#724 = ORIENTED_EDGE ( 'NONE', *, *, #352, .F. ) ;
#725 = LINE ( 'NONE', #969, #558 ) ;
#726 = EDGE_CURVE ( 'NONE', #381, #743, #168, .T. ) ;
#727 = FACE_OUTER_BOUND ( 'NONE', #153, .T. ) ;
#728 = EDGE_LOOP ( 'NONE', ( #155, #349 ) ) ;
#729 = ORIENTED_EDGE ( 'NONE', *, *, #635, .T. ) ;
#730 = CARTESIAN_POINT ( 'NONE',  ( 0.000000000000000000, 2.500000000000000000, 11.00000000000000178 ) ) ;
#731 = VECTOR ( 'NONE', #579, 1000.000000000000000 ) ;
#732 = CARTESIAN_POINT ( 'NONE',  ( 0.000000000000000000, -10.50000000000000000, 9.400000000000000355 ) ) ;
#733 = EDGE_CURVE ( 'NONE', #825, #949, #406, .T. ) ;
#734 = CARTESIAN_POINT ( 'NONE',  ( -9.589999999999998082, -41.24000000000000199, 33.49999999999999289 ) ) ;
#735 = ORIENTED_EDGE ( 'NONE', *, *, #829, .F. ) ;
#736 = ORIENTED_EDGE ( 'NONE', *, *, #310, .F. ) ;
#737 = DIRECTION ( 'NONE',  ( -0.000000000000000000, -0.000000000000000000, 1.000000000000000000 ) ) ;
#738 = AXIS2_PLACEMENT_3D ( 'NONE', #701, #211, #854 ) ;
#739 = CARTESIAN_POINT ( 'NONE',  ( -21.08999999999998920, -28.49999999999999645, 33.50000000000000000 ) ) ;
#740 = EDGE_CURVE ( 'NONE', #889, #105, #65, .T. ) ;
#741 = ORIENTED_EDGE ( 'NONE', *, *, #244, .T. ) ;
#742 =( NAMED_UNIT ( * ) SI_UNIT ( $, .STERADIAN. ) SOLID_ANGLE_UNIT ( ) );
#743 = VERTEX_POINT ( 'NONE', #569 ) ;
#744 = DIRECTION ( 'NONE',  ( 1.000000000000000000, 0.000000000000000000, 0.000000000000000000 ) ) ;
#745 = FACE_OUTER_BOUND ( 'NONE', #758, .T. ) ;
#746 = AXIS2_PLACEMENT_3D ( 'NONE', #698, #1043, #311 ) ;
#747 = LINE ( 'NONE', #903, #644 ) ;
#748 = ORIENTED_EDGE ( 'NONE', *, *, #433, .F. ) ;
#749 = EDGE_CURVE ( 'NONE', #714, #217, #207, .T. ) ;
#750 = AXIS2_PLACEMENT_3D ( 'NONE', #81, #181, #821 ) ;
#751 = CYLINDRICAL_SURFACE ( 'NONE', #236, 0.9100000000000010303 ) ;
#752 =( GEOMETRIC_REPRESENTATION_CONTEXT ( 3 ) GLOBAL_UNCERTAINTY_ASSIGNED_CONTEXT ( ( #781 ) ) GLOBAL_UNIT_ASSIGNED_CONTEXT ( ( #345, #995, #742 ) ) REPRESENTATION_CONTEXT ( 'NONE', 'WORKASPACE' ) );
#753 = LINE ( 'NONE', #666, #731 ) ;
#754 = EDGE_LOOP ( 'NONE', ( #909, #170, #338, #483 ) ) ;
#755 = EDGE_CURVE ( 'NONE', #825, #616, #977, .T. ) ;
#756 = DIRECTION ( 'NONE',  ( -0.000000000000000000, 0.000000000000000000, 1.000000000000000000 ) ) ;
#757 = CARTESIAN_POINT ( 'NONE',  ( -39.08999999999999631, -28.49999999999999645, 20.99999999999999645 ) ) ;
#758 = EDGE_LOOP ( 'NONE', ( #800, #628, #436, #322 ) ) ;
#759 = FACE_OUTER_BOUND ( 'NONE', #479, .T. ) ;
#760 = DIRECTION ( 'NONE',  ( -0.000000000000000000, -1.000000000000000000, -0.000000000000000000 ) ) ;
#761 = EDGE_CURVE ( 'NONE', #825, #381, #573, .T. ) ;
#762 = ORIENTED_EDGE ( 'NONE', *, *, #733, .F. ) ;
#763 = LINE ( 'NONE', #113, #838 ) ;
#764 = DIRECTION ( 'NONE',  ( 0.000000000000000000, 0.000000000000000000, 1.000000000000000000 ) ) ;
#765 = CARTESIAN_POINT ( 'NONE',  ( -8.679999999999996163, -41.24000000000000199, 37.00000000000000000 ) ) ;
#766 = EDGE_CURVE ( 'NONE', #323, #306, #937, .T. ) ;
#767 = LINE ( 'NONE', #447, #565 ) ;
#768 = CARTESIAN_POINT ( 'NONE',  ( 6.499999999999999112, 2.500000000000000000, -13.00000000000000000 ) ) ;
#769 = LINE ( 'NONE', #120, #314 ) ;
#770 = ADVANCED_FACE ( 'NONE', ( #987 ), #1, .T. ) ;
#771 = CARTESIAN_POINT ( 'NONE',  ( -39.08999999999999631, -37.50000000000000711, 20.99999999999999645 ) ) ;
#772 = CARTESIAN_POINT ( 'NONE',  ( -6.500000000000000888, -2.500000000000000000, -13.00000000000000000 ) ) ;
#773 = CARTESIAN_POINT ( 'NONE',  ( 0.000000000000000000, -2.500000000000000444, -9.400000000000000355 ) ) ;
#774 = CYLINDRICAL_SURFACE ( 'NONE', #145, 0.9100000000000010303 ) ;
#775 = EDGE_CURVE ( 'NONE', #252, #11, #94, .T. ) ;
#776 = DIRECTION ( 'NONE',  ( 0.000000000000000000, -0.000000000000000000, -1.000000000000000000 ) ) ;
#777 = LINE ( 'NONE', #123, #178 ) ;
#778 = COLOUR_RGB ( '',0.7921568627450980005, 0.8196078431372548767, 0.9333333333333333481 ) ;
#779 = DIRECTION ( 'NONE',  ( -0.000000000000000000, 1.000000000000000000, -0.000000000000000000 ) ) ;
#780 = AXIS2_PLACEMENT_3D ( 'NONE', #583, #910, #187 ) ;
#781 = UNCERTAINTY_MEASURE_WITH_UNIT (LENGTH_MEASURE( 1.000000000000000082E-05 ), #345, 'distance_accuracy_value', 'NONE');
#782 = ORIENTED_EDGE ( 'NONE', *, *, #913, .F. ) ;
#783 = PLANE ( 'NONE',  #290 ) ;
#784 = ORIENTED_EDGE ( 'NONE', *, *, #30, .T. ) ;
#785 = DIRECTION ( 'NONE',  ( 0.000000000000000000, 0.000000000000000000, 1.000000000000000000 ) ) ;
#786 = ORIENTED_EDGE ( 'NONE', *, *, #940, .T. ) ;
#787 = PLANE ( 'NONE',  #684 ) ;
#788 = ORIENTED_EDGE ( 'NONE', *, *, #82, .T. ) ;
#789 = CARTESIAN_POINT ( 'NONE',  ( -54.49999999999999289, -45.50000000000000000, 33.50000000000000000 ) ) ;
#790 = PRODUCT_DEFINITION ( 'ๆ', '', #40, #621 ) ;
#791 = ADVANCED_FACE ( 'NONE', ( #403 ), #413, .F. ) ;
#792 = VERTEX_POINT ( 'NONE', #970 ) ;
#793 = DIRECTION ( 'NONE',  ( 0.000000000000000000, 0.000000000000000000, -1.000000000000000000 ) ) ;
#794 = VERTEX_POINT ( 'NONE', #654 ) ;
#795 = LINE ( 'NONE', #64, #454 ) ;
#796 = VECTOR ( 'NONE', #827, 1000.000000000000000 ) ;
#797 = ORIENTED_EDGE ( 'NONE', *, *, #340, .T. ) ;
#798 = ORIENTED_EDGE ( 'NONE', *, *, #839, .F. ) ;
#799 = CARTESIAN_POINT ( 'NONE',  ( -8.679999999999996163, -41.24000000000000199, 33.49999999999999289 ) ) ;
#800 = ORIENTED_EDGE ( 'NONE', *, *, #283, .T. ) ;
#801 = EDGE_CURVE ( 'NONE', #240, #68, #374, .T. ) ;
#802 = ORIENTED_EDGE ( 'NONE', *, *, #511, .T. ) ;
#803 = ORIENTED_EDGE ( 'NONE', *, *, #150, .F. ) ;
#804 = DIRECTION ( 'NONE',  ( 1.334402673828313339E-16, -0.000000000000000000, 1.000000000000000000 ) ) ;
#805 = DIRECTION ( 'NONE',  ( 1.334402673828313339E-16, -0.000000000000000000, 1.000000000000000000 ) ) ;
#806 = EDGE_LOOP ( 'NONE', ( #219, #798 ) ) ;
#807 = ORIENTED_EDGE ( 'NONE', *, *, #692, .F. ) ;
#808 = DIRECTION ( 'NONE',  ( -0.000000000000000000, -0.000000000000000000, 1.000000000000000000 ) ) ;
#809 = ADVANCED_FACE ( 'NONE', ( #727 ), #487, .F. ) ;
#810 = FACE_BOUND ( 'NONE', #591, .T. ) ;
#811 = VERTEX_POINT ( 'NONE', #888 ) ;
#812 = DIRECTION ( 'NONE',  ( 0.000000000000000000, -0.000000000000000000, -1.000000000000000000 ) ) ;
#813 = ORIENTED_EDGE ( 'NONE', *, *, #669, .T. ) ;
#814 = VERTEX_POINT ( 'NONE', #895 ) ;
#815 = DIRECTION ( 'NONE',  ( 1.000000000000000000, -0.000000000000000000, -1.334402673828313339E-16 ) ) ;
#816 = DIRECTION ( 'NONE',  ( 0.000000000000000000, 0.000000000000000000, 1.000000000000000000 ) ) ;
#817 = VERTEX_POINT ( 'NONE', #169 ) ;
#818 = LINE ( 'NONE', #396, #245 ) ;
#819 = VERTEX_POINT ( 'NONE', #260 ) ;
#820 = CIRCLE ( 'NONE', #362, 1.600000000000000755 ) ;
#821 = DIRECTION ( 'NONE',  ( 0.000000000000000000, 0.000000000000000000, -1.000000000000000000 ) ) ;
#822 = CARTESIAN_POINT ( 'NONE',  ( -7.769999999999996909, -41.24000000000000199, 20.99999999999999645 ) ) ;
#823 = EDGE_CURVE ( 'NONE', #405, #672, #642, .T. ) ;
#824 = CARTESIAN_POINT ( 'NONE',  ( -9.589999999999998082, -41.24000000000000199, 20.99999999999999645 ) ) ;
#825 = VERTEX_POINT ( 'NONE', #335 ) ;
#826 = CIRCLE ( 'NONE', #966, 0.9000000000000005773 ) ;
#827 = DIRECTION ( 'NONE',  ( 1.000000000000000000, -0.000000000000000000, -1.334402673828313339E-16 ) ) ;
#828 = DIRECTION ( 'NONE',  ( 1.000000000000000000, -0.000000000000000000, 0.000000000000000000 ) ) ;
#829 = EDGE_CURVE ( 'NONE', #477, #4, #973, .T. ) ;
#830 = DIRECTION ( 'NONE',  ( -0.000000000000000000, -1.000000000000000000, -0.000000000000000000 ) ) ;
#831 = ORIENTED_EDGE ( 'NONE', *, *, #267, .T. ) ;
#832 = VECTOR ( 'NONE', #6, 1000.000000000000000 ) ;
#833 = DIRECTION ( 'NONE',  ( -1.000000000000000000, -0.000000000000000000, -0.000000000000000000 ) ) ;
#834 = VECTOR ( 'NONE', #779, 1000.000000000000000 ) ;
#835 = CARTESIAN_POINT ( 'NONE',  ( -21.09000000000001762, -45.50000000000000711, 37.00000000000000000 ) ) ;
#836 = VERTEX_POINT ( 'NONE', #87 ) ;
#837 = EDGE_CURVE ( 'NONE', #425, #1049, #496, .T. ) ;
#838 = VECTOR ( 'NONE', #936, 1000.000000000000000 ) ;
#839 = EDGE_CURVE ( 'NONE', #91, #709, #594, .T. ) ;
#840 = CARTESIAN_POINT ( 'NONE',  ( -54.49999999999999289, -20.49999999999999645, 37.00000000000000711 ) ) ;
#841 = LINE ( 'NONE', #677, #580 ) ;
#842 = LINE ( 'NONE', #440, #453 ) ;
#843 = ORIENTED_EDGE ( 'NONE', *, *, #503, .F. ) ;
#844 = CARTESIAN_POINT ( 'NONE',  ( -6.499999999999994671, -20.49999999999999645, 33.49999999999999289 ) ) ;
#845 = CARTESIAN_POINT ( 'NONE',  ( 6.500000000000002665, -2.500000000000000000, 24.99999999999999645 ) ) ;
#846 = ADVANCED_FACE ( 'NONE', ( #810, #508, #1053, #163, #1057 ), #649, .F. ) ;
#847 = CARTESIAN_POINT ( 'NONE',  ( 0.000000000000000000, 0.000000000000000000, 0.000000000000000000 ) ) ;
#848 = CARTESIAN_POINT ( 'NONE',  ( -51.49999999999999289, -41.24000000000000199, 20.99999999999999645 ) ) ;
#849 = FACE_OUTER_BOUND ( 'NONE', #225, .T. ) ;
#850 = DIRECTION ( 'NONE',  ( -0.000000000000000000, -0.000000000000000000, 1.000000000000000000 ) ) ;
#851 = AXIS2_PLACEMENT_3D ( 'NONE', #44, #204, #371 ) ;
#852 = CARTESIAN_POINT ( 'NONE',  ( -54.49999999999999289, -20.49999999999999645, 33.50000000000000000 ) ) ;
#853 = PLANE ( 'NONE',  #308 ) ;
#854 = DIRECTION ( 'NONE',  ( 0.000000000000000000, 0.000000000000000000, 1.000000000000000000 ) ) ;
#855 = ADVANCED_FACE ( 'NONE', ( #914 ), #988, .F. ) ;
#856 = VECTOR ( 'NONE', #473, 1000.000000000000000 ) ;
#857 = CARTESIAN_POINT ( 'NONE',  ( -6.500000000000000888, 2.500000000000000000, -13.00000000000000000 ) ) ;
#858 = CARTESIAN_POINT ( 'NONE',  ( -8.679999999999996163, -41.24000000000000199, 20.99999999999999645 ) ) ;
#859 = LINE ( 'NONE', #953, #689 ) ;
#860 = APPLICATION_PROTOCOL_DEFINITION ( 'draft international standard', 'automotive_design', 1998, #917 ) ;
#861 = ORIENTED_EDGE ( 'NONE', *, *, #801, .T. ) ;
#862 = CARTESIAN_POINT ( 'NONE',  ( -51.49999999999999289, -41.24000000000000199, 33.50000000000000000 ) ) ;
#863 = EDGE_LOOP ( 'NONE', ( #316, #667, #470, #346 ) ) ;
#864 = CARTESIAN_POINT ( 'NONE',  ( -6.500000000000000888, -2.500000000000000000, -13.00000000000000000 ) ) ;
#865 = VECTOR ( 'NONE', #2, 1000.000000000000000 ) ;
#866 = ORIENTED_EDGE ( 'NONE', *, *, #837, .T. ) ;
#867 = DIRECTION ( 'NONE',  ( 0.000000000000000000, 1.000000000000000000, 0.000000000000000000 ) ) ;
#868 = ORIENTED_EDGE ( 'NONE', *, *, #304, .F. ) ;
#869 = ADVANCED_FACE ( 'NONE', ( #261 ), #492, .F. ) ;
#870 = FACE_OUTER_BOUND ( 'NONE', #656, .T. ) ;
#871 = EDGE_LOOP ( 'NONE', ( #262, #265 ) ) ;
#872 = AXIS2_PLACEMENT_3D ( 'NONE', #765, #35, #277 ) ;
#873 = DIRECTION ( 'NONE',  ( 0.000000000000000000, 1.000000000000000000, -0.000000000000000000 ) ) ;
#874 = LINE ( 'NONE', #233, #344 ) ;
#875 = DIRECTION ( 'NONE',  ( 1.000000000000000000, 0.000000000000000000, 0.000000000000000000 ) ) ;
#876 = EDGE_CURVE ( 'NONE', #51, #817, #753, .T. ) ;
#877 = VECTOR ( 'NONE', #1038, 1000.000000000000000 ) ;
#878 = ORIENTED_EDGE ( 'NONE', *, *, #899, .T. ) ;
#879 = EDGE_LOOP ( 'NONE', ( #317, #388, #813, #137 ) ) ;
#880 = DIRECTION ( 'NONE',  ( -0.000000000000000000, -0.000000000000000000, 1.000000000000000000 ) ) ;
#881 = ORIENTED_EDGE ( 'NONE', *, *, #829, .T. ) ;
#882 = AXIS2_PLACEMENT_3D ( 'NONE', #704, #804, #162 ) ;
#883 = LINE ( 'NONE', #70, #107 ) ;
#884 = EDGE_CURVE ( 'NONE', #254, #252, #336, .T. ) ;
#885 = ORIENTED_EDGE ( 'NONE', *, *, #978, .F. ) ;
#886 = ORIENTED_EDGE ( 'NONE', *, *, #913, .T. ) ;
#887 = CYLINDRICAL_SURFACE ( 'NONE', #342, 0.9000000000000005773 ) ;
#888 = CARTESIAN_POINT ( 'NONE',  ( 1.959434878635764984E-16, -2.500000000000000444, -11.00000000000000178 ) ) ;
#889 = VERTEX_POINT ( 'NONE', #734 ) ;
#890 = EDGE_CURVE ( 'NONE', #8, #819, #460, .T. ) ;
#891 = ORIENTED_EDGE ( 'NONE', *, *, #657, .F. ) ;
#892 = EDGE_CURVE ( 'NONE', #105, #709, #188, .T. ) ;
#893 = EDGE_LOOP ( 'NONE', ( #184, #735 ) ) ;
#894 = PLANE ( 'NONE',  #474 ) ;
#895 = CARTESIAN_POINT ( 'NONE',  ( -6.499999999999994671, -45.50000000000000000, 24.99999999999999645 ) ) ;
#896 = DIRECTION ( 'NONE',  ( 0.000000000000000000, 1.000000000000000000, 0.000000000000000000 ) ) ;
#897 = ORIENTED_EDGE ( 'NONE', *, *, #205, .F. ) ;
#898 = ORIENTED_EDGE ( 'NONE', *, *, #726, .F. ) ;
#899 = EDGE_CURVE ( 'NONE', #279, #639, #89, .T. ) ;
#900 = DIRECTION ( 'NONE',  ( -0.000000000000000000, 1.000000000000000000, 0.000000000000000000 ) ) ;
#901 = PLANE ( 'NONE',  #696 ) ;
#902 = ORIENTED_EDGE ( 'NONE', *, *, #669, .F. ) ;
#903 = CARTESIAN_POINT ( 'NONE',  ( 1.959434878635765477E-16, -10.50000000000000000, 7.799999999999999822 ) ) ;
#904 = ORIENTED_EDGE ( 'NONE', *, *, #449, .T. ) ;
#905 = CARTESIAN_POINT ( 'NONE',  ( -51.49999999999999289, -41.24000000000000199, 33.50000000000000000 ) ) ;
#906 = DIRECTION ( 'NONE',  ( 0.000000000000000000, 0.000000000000000000, -1.000000000000000000 ) ) ;
#907 = VERTEX_POINT ( 'NONE', #497 ) ;
#908 = FILL_AREA_STYLE ('',( #269 ) ) ;
#909 = ORIENTED_EDGE ( 'NONE', *, *, #998, .F. ) ;
#910 = DIRECTION ( 'NONE',  ( 0.000000000000000000, 0.000000000000000000, 1.000000000000000000 ) ) ;
#911 = VECTOR ( 'NONE', #570, 1000.000000000000000 ) ;
#912 = CIRCLE ( 'NONE', #186, 0.9100000000000010303 ) ;
#913 = EDGE_CURVE ( 'NONE', #794, #333, #428, .T. ) ;
#914 = FACE_OUTER_BOUND ( 'NONE', #952, .T. ) ;
#915 = DIRECTION ( 'NONE',  ( -0.000000000000000000, 1.000000000000000000, -0.000000000000000000 ) ) ;
#916 = EDGE_LOOP ( 'NONE', ( #843, #807, #160, #782, #489, #634, #399, #379, #301, #257, #303, #461, #996, #716 ) ) ;
#917 = APPLICATION_CONTEXT ( 'automotive_design' ) ;
#918 = DIRECTION ( 'NONE',  ( 0.000000000000000000, 0.000000000000000000, 1.000000000000000000 ) ) ;
#919 = PLANE ( 'NONE',  #416 ) ;
#920 = STYLED_ITEM ( 'NONE', ( #15 ), #140 ) ;
#921 = EDGE_CURVE ( 'NONE', #814, #467, #415, .T. ) ;
#922 = ORIENTED_EDGE ( 'NONE', *, *, #892, .T. ) ;
#923 = AXIS2_PLACEMENT_3D ( 'NONE', #422, #182, #812 ) ;
#924 = FACE_OUTER_BOUND ( 'NONE', #754, .T. ) ;
#925 = CARTESIAN_POINT ( 'NONE',  ( -6.499999999999994671, -45.50000000000000000, 33.49999999999999289 ) ) ;
#926 = ORIENTED_EDGE ( 'NONE', *, *, #1036, .T. ) ;
#927 = EDGE_CURVE ( 'NONE', #811, #386, #84, .T. ) ;
#928 = FACE_BOUND ( 'NONE', #806, .T. ) ;
#929 = CARTESIAN_POINT ( 'NONE',  ( 6.500000000000002665, -45.50000000000000000, 24.99999999999999645 ) ) ;
#930 = DIRECTION ( 'NONE',  ( -0.000000000000000000, -0.000000000000000000, 1.000000000000000000 ) ) ;
#931 = ADVANCED_FACE ( 'NONE', ( #745 ), #901, .F. ) ;
#932 = CARTESIAN_POINT ( 'NONE',  ( -51.49999999999999289, -23.49999999999999645, 33.50000000000000000 ) ) ;
#933 = DIRECTION ( 'NONE',  ( -0.000000000000000000, -0.000000000000000000, 1.000000000000000000 ) ) ;
#934 = DIRECTION ( 'NONE',  ( 0.000000000000000000, 0.000000000000000000, 1.000000000000000000 ) ) ;
#935 = AXIS2_PLACEMENT_3D ( 'NONE', #395, #74, #719 ) ;
#936 = DIRECTION ( 'NONE',  ( -1.000000000000000000, -0.000000000000000000, -0.000000000000000000 ) ) ;
#937 = CIRCLE ( 'NONE', #476, 0.9100000000000010303 ) ;
#938 = FACE_OUTER_BOUND ( 'NONE', #990, .T. ) ;
#939 = DIRECTION ( 'NONE',  ( 0.000000000000000000, -1.000000000000000000, 0.000000000000000000 ) ) ;
#940 = EDGE_CURVE ( 'NONE', #11, #703, #999, .T. ) ;
#941 = AXIS2_PLACEMENT_3D ( 'NONE', #1011, #444, #524 ) ;
#942 = DIRECTION ( 'NONE',  ( 1.000000000000000000, 0.000000000000000000, 0.000000000000000000 ) ) ;
#943 = DIRECTION ( 'NONE',  ( 0.000000000000000000, 1.000000000000000000, 0.000000000000000000 ) ) ;
#944 = FACE_OUTER_BOUND ( 'NONE', #247, .T. ) ;
#945 = ORIENTED_EDGE ( 'NONE', *, *, #940, .F. ) ;
#946 = CARTESIAN_POINT ( 'NONE',  ( -21.08999999999998920, -20.49999999999999645, 37.00000000000000000 ) ) ;
#947 = ORIENTED_EDGE ( 'NONE', *, *, #749, .T. ) ;
#948 = DIRECTION ( 'NONE',  ( -0.000000000000000000, -0.000000000000000000, 1.000000000000000000 ) ) ;
#949 = VERTEX_POINT ( 'NONE', #835 ) ;
#950 = ADVANCED_FACE ( 'NONE', ( #331, #574, #13 ), #919, .F. ) ;
#951 = DIRECTION ( 'NONE',  ( 0.000000000000000000, -0.000000000000000000, 1.000000000000000000 ) ) ;
#952 = EDGE_LOOP ( 'NONE', ( #784, #161, #712, #167 ) ) ;
#953 = CARTESIAN_POINT ( 'NONE',  ( -54.49999999999999289, -37.50000000000000711, 33.50000000000000000 ) ) ;
#954 = ORIENTED_EDGE ( 'NONE', *, *, #121, .F. ) ;
#955 = EDGE_CURVE ( 'NONE', #1042, #411, #102, .T. ) ;
#956 = CARTESIAN_POINT ( 'NONE',  ( 0.000000000000000000, 2.500000000000000000, 9.400000000000000355 ) ) ;
#957 = ORIENTED_EDGE ( 'NONE', *, *, #423, .F. ) ;
#958 = CARTESIAN_POINT ( 'NONE',  ( -54.49999999999999289, -20.49999999999999645, 33.50000000000000000 ) ) ;
#959 = AXIS2_PLACEMENT_3D ( 'NONE', #857, #1028, #300 ) ;
#960 = ORIENTED_EDGE ( 'NONE', *, *, #106, .T. ) ;
#961 = VECTOR ( 'NONE', #109, 1000.000000000000000 ) ;
#962 = CARTESIAN_POINT ( 'NONE',  ( -39.08999999999999631, -37.50000000000000711, 37.00000000000000000 ) ) ;
#963 = CARTESIAN_POINT ( 'NONE',  ( -9.579999999999998295, -23.49999999999999645, 37.00000000000000000 ) ) ;
#964 = CARTESIAN_POINT ( 'NONE',  ( -39.08999999999999631, -37.50000000000000711, 33.50000000000000000 ) ) ;
#965 = AXIS2_PLACEMENT_3D ( 'NONE', #715, #1045, #785 ) ;
#966 = AXIS2_PLACEMENT_3D ( 'NONE', #58, #462, #142 ) ;
#967 = ORIENTED_EDGE ( 'NONE', *, *, #121, .T. ) ;
#968 = VERTEX_POINT ( 'NONE', #739 ) ;
#969 = CARTESIAN_POINT ( 'NONE',  ( -54.49999999999999289, -45.50000000000000000, 37.00000000000000711 ) ) ;
#970 = CARTESIAN_POINT ( 'NONE',  ( 6.500000000000002665, 2.500000000000000000, 37.00000000000000000 ) ) ;
#971 = MECHANICAL_DESIGN_GEOMETRIC_PRESENTATION_REPRESENTATION (  '', ( #920 ), #752 ) ;
#972 = ADVANCED_FACE ( 'NONE', ( #516 ), #435, .F. ) ;
#973 = CIRCLE ( 'NONE', #515, 0.9100000000000010303 ) ;
#974 = EDGE_LOOP ( 'NONE', ( #400, #231, #861, #564 ) ) ;
#975 = ORIENTED_EDGE ( 'NONE', *, *, #409, .T. ) ;
#976 = CARTESIAN_POINT ( 'NONE',  ( -8.679999999999996163, -23.49999999999999645, 20.99999999999999645 ) ) ;
#977 = LINE ( 'NONE', #76, #796 ) ;
#978 = EDGE_CURVE ( 'NONE', #411, #792, #171, .T. ) ;
#979 = ORIENTED_EDGE ( 'NONE', *, *, #432, .T. ) ;
#980 = ORIENTED_EDGE ( 'NONE', *, *, #450, .F. ) ;
#981 = DIRECTION ( 'NONE',  ( 0.000000000000000000, 0.000000000000000000, 1.000000000000000000 ) ) ;
#982 = CARTESIAN_POINT ( 'NONE',  ( -6.499999999999994671, -45.50000000000000000, 24.99999999999999645 ) ) ;
#983 = ORIENTED_EDGE ( 'NONE', *, *, #18, .F. ) ;
#984 = LINE ( 'NONE', #824, #158 ) ;
#985 = ORIENTED_EDGE ( 'NONE', *, *, #615, .T. ) ;
#986 = EDGE_CURVE ( 'NONE', #672, #57, #842, .T. ) ;
#987 = FACE_OUTER_BOUND ( 'NONE', #394, .T. ) ;
#988 = PLANE ( 'NONE',  #1058 ) ;
#989 = ORIENTED_EDGE ( 'NONE', *, *, #876, .T. ) ;
#990 = EDGE_LOOP ( 'NONE', ( #517, #652, #191, #831 ) ) ;
#991 = EDGE_CURVE ( 'NONE', #405, #333, #115, .T. ) ;
#992 = CARTESIAN_POINT ( 'NONE',  ( 0.000000000000000000, -45.50000000000000000, 0.000000000000000000 ) ) ;
#993 = VECTOR ( 'NONE', #760, 1000.000000000000000 ) ;
#994 = DIRECTION ( 'NONE',  ( -0.000000000000000000, 0.000000000000000000, 1.000000000000000000 ) ) ;
#995 =( NAMED_UNIT ( * ) PLANE_ANGLE_UNIT ( ) SI_UNIT ( $, .RADIAN. ) );
#996 = ORIENTED_EDGE ( 'NONE', *, *, #1051, .T. ) ;
#997 = LINE ( 'NONE', #525, #199 ) ;
#998 = EDGE_CURVE ( 'NONE', #306, #477, #690, .T. ) ;
#999 = LINE ( 'NONE', #348, #911 ) ;
#1000 = ADVANCED_FACE ( 'NONE', ( #365 ), #282, .F. ) ;
#1001 = ORIENTED_EDGE ( 'NONE', *, *, #432, .F. ) ;
#1002 = CARTESIAN_POINT ( 'NONE',  ( -50.58999999999998920, -23.49999999999999645, 33.50000000000000000 ) ) ;
#1003 = DIRECTION ( 'NONE',  ( -0.000000000000000000, -0.000000000000000000, 1.000000000000000000 ) ) ;
#1004 = ADVANCED_FACE ( 'NONE', ( #535 ), #774, .F. ) ;
#1005 = ORIENTED_EDGE ( 'NONE', *, *, #352, .T. ) ;
#1006 = VECTOR ( 'NONE', #1003, 1000.000000000000000 ) ;
#1007 = FACE_BOUND ( 'NONE', #566, .T. ) ;
#1008 = CARTESIAN_POINT ( 'NONE',  ( -39.08999999999999631, -45.50000000000000711, 33.50000000000000000 ) ) ;
#1009 = DIRECTION ( 'NONE',  ( -0.000000000000000000, -0.000000000000000000, 1.000000000000000000 ) ) ;
#1010 = CARTESIAN_POINT ( 'NONE',  ( 0.000000000000000000, 0.000000000000000000, 37.00000000000000000 ) ) ;
#1011 = CARTESIAN_POINT ( 'NONE',  ( -51.49999999999999289, -23.49999999999999645, 37.00000000000000000 ) ) ;
#1012 = CIRCLE ( 'NONE', #746, 0.9000000000000005773 ) ;
#1013 = APPLICATION_PROTOCOL_DEFINITION ( 'draft international standard', 'automotive_design', 1998, #22 ) ;
#1014 = AXIS2_PLACEMENT_3D ( 'NONE', #757, #351, #7 ) ;
#1015 = AXIS2_PLACEMENT_3D ( 'NONE', #636, #55, #1040 ) ;
#1016 = CARTESIAN_POINT ( 'NONE',  ( -51.49999999999999289, -41.24000000000000199, 20.99999999999999645 ) ) ;
#1017 = DIRECTION ( 'NONE',  ( -1.000000000000000000, -0.000000000000000000, -0.000000000000000000 ) ) ;
#1018 = AXIS2_PLACEMENT_3D ( 'NONE', #147, #693, #305 ) ;
#1019 = DIRECTION ( 'NONE',  ( -0.000000000000000000, -0.000000000000000000, 1.000000000000000000 ) ) ;
#1020 = VECTOR ( 'NONE', #154, 1000.000000000000000 ) ;
#1021 = UNCERTAINTY_MEASURE_WITH_UNIT (LENGTH_MEASURE( 1.000000000000000082E-05 ), #31, 'distance_accuracy_value', 'NONE');
#1022 = DIRECTION ( 'NONE',  ( 1.000000000000000000, -0.000000000000000000, -1.334402673828313339E-16 ) ) ;
#1023 = PLANE ( 'NONE',  #20 ) ;
#1024 = LINE ( 'NONE', #293, #1048 ) ;
#1025 = AXIS2_PLACEMENT_3D ( 'NONE', #586, #915, #10 ) ;
#1026 = ORIENTED_EDGE ( 'NONE', *, *, #134, .T. ) ;
#1027 = VECTOR ( 'NONE', #596, 1000.000000000000000 ) ;
#1028 = DIRECTION ( 'NONE',  ( 1.000000000000000000, 0.000000000000000000, -1.334402673828313339E-16 ) ) ;
#1029 = ORIENTED_EDGE ( 'NONE', *, *, #986, .T. ) ;
#1030 = CARTESIAN_POINT ( 'NONE',  ( -7.779999999999995808, -23.49999999999999645, 33.49999999999999289 ) ) ;
#1031 = EDGE_CURVE ( 'NONE', #709, #91, #286, .T. ) ;
#1032 = EDGE_LOOP ( 'NONE', ( #762, #404, #1005, #85, #61, #24 ) ) ;
#1033 = DIRECTION ( 'NONE',  ( 0.000000000000000000, 0.000000000000000000, 1.000000000000000000 ) ) ;
#1034 = EDGE_LOOP ( 'NONE', ( #152, #957, #866, #172 ) ) ;
#1035 = CARTESIAN_POINT ( 'NONE',  ( -6.500000000000000888, 2.500000000000000000, -13.00000000000000000 ) ) ;
#1036 = EDGE_CURVE ( 'NONE', #640, #8, #769, .T. ) ;
#1037 = EDGE_LOOP ( 'NONE', ( #539, #561 ) ) ;
#1038 = DIRECTION ( 'NONE',  ( -0.000000000000000000, -0.000000000000000000, 1.000000000000000000 ) ) ;
#1039 = ORIENTED_EDGE ( 'NONE', *, *, #75, .F. ) ;
#1040 = DIRECTION ( 'NONE',  ( 1.000000000000000000, 0.000000000000000000, 0.000000000000000000 ) ) ;
#1041 = VECTOR ( 'NONE', #681, 1000.000000000000000 ) ;
#1042 = VERTEX_POINT ( 'NONE', #445 ) ;
#1043 = DIRECTION ( 'NONE',  ( 1.334402673828313339E-16, -0.000000000000000000, 1.000000000000000000 ) ) ;
#1044 = EDGE_LOOP ( 'NONE', ( #71, #902 ) ) ;
#1045 = DIRECTION ( 'NONE',  ( 0.000000000000000000, 1.000000000000000000, 0.000000000000000000 ) ) ;
#1046 = ORIENTED_EDGE ( 'NONE', *, *, #237, .F. ) ;
#1047 =( GEOMETRIC_REPRESENTATION_CONTEXT ( 3 ) GLOBAL_UNCERTAINTY_ASSIGNED_CONTEXT ( ( #1021 ) ) GLOBAL_UNIT_ASSIGNED_CONTEXT ( ( #31, #683, #373 ) ) REPRESENTATION_CONTEXT ( 'NONE', 'WORKASPACE' ) );
#1048 = VECTOR ( 'NONE', #613, 1000.000000000000000 ) ;
#1049 = VERTEX_POINT ( 'NONE', #46 ) ;
#1050 = CARTESIAN_POINT ( 'NONE',  ( -39.08999999999999631, -28.49999999999999645, 37.00000000000000000 ) ) ;
#1051 = EDGE_CURVE ( 'NONE', #836, #16, #361, .T. ) ;
#1052 = CARTESIAN_POINT ( 'NONE',  ( 1.959434878635764984E-16, 2.500000000000000000, 7.799999999999999822 ) ) ;
#1053 = FACE_BOUND ( 'NONE', #871, .T. ) ;
#1054 = ORIENTED_EDGE ( 'NONE', *, *, #531, .T. ) ;
#1055 = ORIENTED_EDGE ( 'NONE', *, *, #543, .T. ) ;
#1056 = CARTESIAN_POINT ( 'NONE',  ( -39.08999999999999631, -45.50000000000000711, 37.00000000000000000 ) ) ;
#1057 = FACE_OUTER_BOUND ( 'NONE', #200, .T. ) ;
#1058 = AXIS2_PLACEMENT_3D ( 'NONE', #83, #828, #906 ) ;
#1059 = ORIENTED_EDGE ( 'NONE', *, *, #986, .F. ) ;
#1060 = EDGE_LOOP ( 'NONE', ( #748, #27 ) ) ;
ENDSEC;
END-ISO-10303-21;
