ISO-10303-21;
HEADER;
FILE_DESCRIPTION (( 'STEP AP214' ),
    '1' );
FILE_NAME ('c_pl_.STEP',
    '2026-05-13T07:47:52',
    ( '' ),
    ( '' ),
    'SwSTEP 2.0',
    'SolidWorks 2025',
    '' );
FILE_SCHEMA (( 'AUTOMOTIVE_DESIGN' ));
ENDSEC;

DATA;
#1 = CARTESIAN_POINT ( 'NONE',  ( -6.000000000000000888, 2.500000000000000000, 14.00000000000000000 ) ) ;
#2 = VECTOR ( 'NONE', #51, 1000.000000000000000 ) ;
#3 = LINE ( 'NONE', #254, #550 ) ;
#4 = AXIS2_PLACEMENT_3D ( 'NONE', #318, #67, #514 ) ;
#5 = DIRECTION ( 'NONE',  ( -1.000000000000000000, -0.000000000000000000, -0.000000000000000000 ) ) ;
#6 = EDGE_LOOP ( 'NONE', ( #604, #326, #634, #554 ) ) ;
#7 = CARTESIAN_POINT ( 'NONE',  ( 20.50000000000000000, 19.50000000000000000, 42.14999999999999858 ) ) ;
#8 = DIRECTION ( 'NONE',  ( 0.000000000000000000, 0.000000000000000000, 1.000000000000000000 ) ) ;
#9 = EDGE_LOOP ( 'NONE', ( #589, #245, #371, #309 ) ) ;
#10 = CARTESIAN_POINT ( 'NONE',  ( 5.999999999999998224, 14.39338664083523689, 35.69999999999998863 ) ) ;
#11 = EDGE_CURVE ( 'NONE', #420, #621, #415, .T. ) ;
#12 = ORIENTED_EDGE ( 'NONE', *, *, #441, .F. ) ;
#13 = CARTESIAN_POINT ( 'NONE',  ( 5.999999999999999112, 17.49999999999997868, 22.99999999999999645 ) ) ;
#14 = PRODUCT_DEFINITION ( 'ๆ', '', #321, #104 ) ;
#15 = AXIS2_PLACEMENT_3D ( 'NONE', #118, #515, #68 ) ;
#16 = ORIENTED_EDGE ( 'NONE', *, *, #389, .F. ) ;
#17 = DIRECTION ( 'NONE',  ( 0.000000000000000000, 0.000000000000000000, 1.000000000000000000 ) ) ;
#18 = ORIENTED_EDGE ( 'NONE', *, *, #102, .F. ) ;
#19 = CARTESIAN_POINT ( 'NONE',  ( 5.999999999999998224, 19.50000000000000000, 38.84999999999998721 ) ) ;
#20 = ORIENTED_EDGE ( 'NONE', *, *, #278, .F. ) ;
#21 = CARTESIAN_POINT ( 'NONE',  ( 0.000000000000000000, 2.500000000000000000, 9.400000000000000355 ) ) ;
#22 = CIRCLE ( 'NONE', #582, 1.650000000000005684 ) ;
#23 = ORIENTED_EDGE ( 'NONE', *, *, #487, .F. ) ;
#24 = ADVANCED_FACE ( 'NONE', ( #544 ), #440, .F. ) ;
#25 = ORIENTED_EDGE ( 'NONE', *, *, #567, .F. ) ;
#26 = DIRECTION ( 'NONE',  ( 1.000000000000000000, 0.000000000000000000, -0.000000000000000000 ) ) ;
#27 = EDGE_CURVE ( 'NONE', #222, #497, #445, .T. ) ;
#28 = ORIENTED_EDGE ( 'NONE', *, *, #123, .F. ) ;
#29 = PRODUCT ( 'c_pl_', 'c_pl_', '', ( #594 ) ) ;
#30 = DIRECTION ( 'NONE',  ( 1.000000000000000000, 0.000000000000000000, 0.000000000000000000 ) ) ;
#31 = EDGE_CURVE ( 'NONE', #131, #608, #502, .T. ) ;
#32 = EDGE_LOOP ( 'NONE', ( #344, #16, #285, #334 ) ) ;
#33 = VECTOR ( 'NONE', #88, 1000.000000000000000 ) ;
#34 = AXIS2_PLACEMENT_3D ( 'NONE', #103, #361, #106 ) ;
#35 = DIRECTION ( 'NONE',  ( 1.000000000000000000, 0.000000000000000000, -0.000000000000000000 ) ) ;
#36 = DIRECTION ( 'NONE',  ( -0.000000000000000000, -1.000000000000000000, -0.000000000000000000 ) ) ;
#37 = DIRECTION ( 'NONE',  ( -0.000000000000000000, -1.000000000000000000, -0.000000000000000000 ) ) ;
#38 = EDGE_LOOP ( 'NONE', ( #456, #322, #77, #28 ) ) ;
#39 = VERTEX_POINT ( 'NONE', #636 ) ;
#40 =( NAMED_UNIT ( * ) SI_UNIT ( $, .STERADIAN. ) SOLID_ANGLE_UNIT ( ) );
#41 = PLANE ( 'NONE',  #434 ) ;
#42 = ORIENTED_EDGE ( 'NONE', *, *, #286, .T. ) ;
#43 = AXIS2_PLACEMENT_3D ( 'NONE', #392, #632, #30 ) ;
#44 = EDGE_CURVE ( 'NONE', #174, #643, #540, .T. ) ;
#45 = VECTOR ( 'NONE', #37, 1000.000000000000000 ) ;
#46 = DIRECTION ( 'NONE',  ( -1.000000000000000000, -0.000000000000000000, -0.000000000000000000 ) ) ;
#47 = APPLICATION_PROTOCOL_DEFINITION ( 'draft international standard', 'automotive_design', 1998, #480 ) ;
#48 = VERTEX_POINT ( 'NONE', #633 ) ;
#49 = FACE_BOUND ( 'NONE', #453, .T. ) ;
#50 = DIRECTION ( 'NONE',  ( -1.000000000000000000, 0.000000000000000000, 0.000000000000000000 ) ) ;
#51 = DIRECTION ( 'NONE',  ( -1.000000000000000000, -0.000000000000000000, -0.000000000000000000 ) ) ;
#52 = FACE_OUTER_BOUND ( 'NONE', #345, .T. ) ;
#53 = DIRECTION ( 'NONE',  ( 1.000000000000000000, 0.000000000000000000, -0.000000000000000000 ) ) ;
#54 = ORIENTED_EDGE ( 'NONE', *, *, #648, .F. ) ;
#55 = CARTESIAN_POINT ( 'NONE',  ( -4.500000000000001776, 2.500000000000000000, 44.00000000000000000 ) ) ;
#56 = VECTOR ( 'NONE', #150, 1000.000000000000000 ) ;
#57 = DIRECTION ( 'NONE',  ( -0.000000000000000000, -0.000000000000000000, 1.000000000000000000 ) ) ;
#58 = CARTESIAN_POINT ( 'NONE',  ( -4.500000000000001776, 19.50000000000000000, 38.84999999999998721 ) ) ;
#59 = VERTEX_POINT ( 'NONE', #354 ) ;
#60 = EDGE_CURVE ( 'NONE', #586, #74, #244, .T. ) ;
#61 = LINE ( 'NONE', #13, #86 ) ;
#62 = ORIENTED_EDGE ( 'NONE', *, *, #93, .T. ) ;
#63 = LINE ( 'NONE', #520, #463 ) ;
#64 = AXIS2_PLACEMENT_3D ( 'NONE', #140, #95, #149 ) ;
#65 = AXIS2_PLACEMENT_3D ( 'NONE', #510, #615, #121 ) ;
#66 = VERTEX_POINT ( 'NONE', #551 ) ;
#67 = DIRECTION ( 'NONE',  ( 0.000000000000000000, 1.000000000000000000, 0.000000000000000000 ) ) ;
#68 = DIRECTION ( 'NONE',  ( 0.000000000000000000, 0.000000000000000000, 1.000000000000000000 ) ) ;
#69 = ADVANCED_FACE ( 'NONE', ( #642 ), #136, .F. ) ;
#70 = ORIENTED_EDGE ( 'NONE', *, *, #360, .T. ) ;
#71 = CARTESIAN_POINT ( 'NONE',  ( -6.000000000000000888, 2.500000000000000000, -14.00000000000000000 ) ) ;
#72 = DIRECTION ( 'NONE',  ( 0.000000000000000000, 0.000000000000000000, 1.000000000000000000 ) ) ;
#73 = EDGE_CURVE ( 'NONE', #497, #174, #90, .T. ) ;
#74 = VERTEX_POINT ( 'NONE', #302 ) ;
#75 = CARTESIAN_POINT ( 'NONE',  ( 20.50000000000000000, 19.50000000000000000, 40.49999999999999289 ) ) ;
#76 = PRESENTATION_LAYER_ASSIGNMENT (  '', '', ( #385 ) ) ;
#77 = ORIENTED_EDGE ( 'NONE', *, *, #325, .F. ) ;
#78 = VECTOR ( 'NONE', #253, 1000.000000000000000 ) ;
#79 = CARTESIAN_POINT ( 'NONE',  ( 5.999999999999999112, 27.50000000000000000, 22.99999999999999645 ) ) ;
#80 = VERTEX_POINT ( 'NONE', #592 ) ;
#81 =( LENGTH_UNIT ( ) NAMED_UNIT ( * ) SI_UNIT ( .MILLI., .METRE. ) );
#82 = ORIENTED_EDGE ( 'NONE', *, *, #27, .T. ) ;
#83 = PLANE ( 'NONE',  #617 ) ;
#84 = DIRECTION ( 'NONE',  ( -0.000000000000000000, 0.000000000000000000, 1.000000000000000000 ) ) ;
#85 = VECTOR ( 'NONE', #635, 1000.000000000000000 ) ;
#86 = VECTOR ( 'NONE', #573, 1000.000000000000000 ) ;
#87 = AXIS2_PLACEMENT_3D ( 'NONE', #603, #364, #151 ) ;
#88 = DIRECTION ( 'NONE',  ( -0.000000000000000000, -1.000000000000000000, -0.000000000000000000 ) ) ;
#89 = ADVANCED_FACE ( 'NONE', ( #142 ), #647, .F. ) ;
#90 = LINE ( 'NONE', #407, #570 ) ;
#91 = CARTESIAN_POINT ( 'NONE',  ( -4.500000000000001776, 2.500000000000000000, 38.99999999999998579 ) ) ;
#92 = FACE_OUTER_BOUND ( 'NONE', #481, .T. ) ;
#93 = EDGE_CURVE ( 'NONE', #185, #522, #350, .T. ) ;
#94 = LINE ( 'NONE', #298, #558 ) ;
#95 = DIRECTION ( 'NONE',  ( -0.000000000000000000, -1.000000000000000000, -0.000000000000000000 ) ) ;
#96 = ORIENTED_EDGE ( 'NONE', *, *, #418, .F. ) ;
#97 = ADVANCED_FACE ( 'NONE', ( #92 ), #41, .T. ) ;
#98 = AXIS2_PLACEMENT_3D ( 'NONE', #212, #460, #17 ) ;
#99 = CARTESIAN_POINT ( 'NONE',  ( 0.000000000000000000, 2.500000000000000000, 9.400000000000000355 ) ) ;
#100 = DIRECTION ( 'NONE',  ( 0.000000000000000000, 0.000000000000000000, -1.000000000000000000 ) ) ;
#101 = CARTESIAN_POINT ( 'NONE',  ( 0.000000000000000000, 2.500000000000000000, 7.849999999999999645 ) ) ;
#102 = EDGE_CURVE ( 'NONE', #126, #124, #484, .T. ) ;
#103 = CARTESIAN_POINT ( 'NONE',  ( 0.000000000000000000, 2.500000000000000000, 9.400000000000000355 ) ) ;
#104 = PRODUCT_DEFINITION_CONTEXT ( 'detailed design', #480, 'design' ) ;
#105 = DIRECTION ( 'NONE',  ( 1.000000000000000000, -0.000000000000000000, -0.000000000000000000 ) ) ;
#106 = DIRECTION ( 'NONE',  ( 0.000000000000000000, 0.000000000000000000, -1.000000000000000000 ) ) ;
#107 = ORIENTED_EDGE ( 'NONE', *, *, #541, .T. ) ;
#108 = DIRECTION ( 'NONE',  ( -0.000000000000000000, -0.000000000000000000, 1.000000000000000000 ) ) ;
#109 = VECTOR ( 'NONE', #57, 1000.000000000000000 ) ;
#110 = EDGE_CURVE ( 'NONE', #621, #420, #22, .T. ) ;
#111 = ORIENTED_EDGE ( 'NONE', *, *, #329, .T. ) ;
#112 = DIRECTION ( 'NONE',  ( -0.000000000000000000, -1.000000000000000000, -0.000000000000000000 ) ) ;
#113 = ORIENTED_EDGE ( 'NONE', *, *, #286, .F. ) ;
#114 = DIRECTION ( 'NONE',  ( -1.000000000000000000, -0.000000000000000000, -0.000000000000000000 ) ) ;
#115 = ORIENTED_EDGE ( 'NONE', *, *, #516, .F. ) ;
#116 = LINE ( 'NONE', #565, #640 ) ;
#117 = ADVANCED_FACE ( 'NONE', ( #293 ), #299, .F. ) ;
#118 = CARTESIAN_POINT ( 'NONE',  ( 20.50000000000000000, 19.50000000000000000, 40.49999999999999289 ) ) ;
#119 = AXIS2_PLACEMENT_3D ( 'NONE', #397, #146, #100 ) ;
#120 = ORIENTED_EDGE ( 'NONE', *, *, #218, .T. ) ;
#121 = DIRECTION ( 'NONE',  ( 0.000000000000000000, 0.000000000000000000, -1.000000000000000000 ) ) ;
#122 = CARTESIAN_POINT ( 'NONE',  ( 1.898202538678396719E-16, -2.500000000000000000, 10.95000000000000107 ) ) ;
#123 = EDGE_CURVE ( 'NONE', #373, #556, #620, .T. ) ;
#124 = VERTEX_POINT ( 'NONE', #204 ) ;
#125 = CARTESIAN_POINT ( 'NONE',  ( -6.000000000000000888, -2.500000000000000000, 33.99999999999996447 ) ) ;
#126 = VERTEX_POINT ( 'NONE', #569 ) ;
#127 = CARTESIAN_POINT ( 'NONE',  ( -6.000000000000000888, 7.500000000000001776, 44.00000000000000000 ) ) ;
#128 = VERTEX_POINT ( 'NONE', #152 ) ;
#129 = EDGE_CURVE ( 'NONE', #526, #416, #482, .T. ) ;
#130 = CIRCLE ( 'NONE', #583, 1.650000000000005684 ) ;
#131 = VERTEX_POINT ( 'NONE', #122 ) ;
#132 = DIRECTION ( 'NONE',  ( 0.000000000000000000, 0.000000000000000000, 1.000000000000000000 ) ) ;
#133 = ADVANCED_BREP_SHAPE_REPRESENTATION ( 'c_pl_', ( #187, #561 ), #501 ) ;
#134 = EDGE_LOOP ( 'NONE', ( #433, #462 ) ) ;
#135 = SURFACE_STYLE_USAGE ( .BOTH. , #390 ) ;
#136 = PLANE ( 'NONE',  #119 ) ;
#137 = ORIENTED_EDGE ( 'NONE', *, *, #431, .F. ) ;
#138 = CARTESIAN_POINT ( 'NONE',  ( -4.500000000000001776, 19.50000000000000000, 40.49999999999999289 ) ) ;
#139 = EDGE_CURVE ( 'NONE', #522, #180, #308, .T. ) ;
#140 = CARTESIAN_POINT ( 'NONE',  ( 0.000000000000000000, 2.500000000000000000, -9.400000000000000355 ) ) ;
#141 = LINE ( 'NONE', #1, #426 ) ;
#142 = FACE_OUTER_BOUND ( 'NONE', #6, .T. ) ;
#143 = ADVANCED_FACE ( 'NONE', ( #259 ), #276, .F. ) ;
#144 = ORIENTED_EDGE ( 'NONE', *, *, #639, .T. ) ;
#145 = DIRECTION ( 'NONE',  ( 0.000000000000000000, 0.000000000000000000, 1.000000000000000000 ) ) ;
#146 = DIRECTION ( 'NONE',  ( 1.000000000000000000, -0.000000000000000000, 0.000000000000000000 ) ) ;
#147 = DIRECTION ( 'NONE',  ( 0.000000000000000000, 1.000000000000000000, -0.000000000000000000 ) ) ;
#148 = DIRECTION ( 'NONE',  ( -1.000000000000000000, -0.000000000000000000, -0.000000000000000000 ) ) ;
#149 = DIRECTION ( 'NONE',  ( 0.000000000000000000, 0.000000000000000000, -1.000000000000000000 ) ) ;
#150 = DIRECTION ( 'NONE',  ( -0.000000000000000000, -0.000000000000000000, 1.000000000000000000 ) ) ;
#151 = DIRECTION ( 'NONE',  ( 0.000000000000000000, 0.000000000000000000, 1.000000000000000000 ) ) ;
#152 = CARTESIAN_POINT ( 'NONE',  ( -4.500000000000001776, 19.50000000000000000, 42.14999999999999858 ) ) ;
#153 = ORIENTED_EDGE ( 'NONE', *, *, #335, .F. ) ;
#154 = LINE ( 'NONE', #55, #56 ) ;
#155 = FACE_BOUND ( 'NONE', #205, .T. ) ;
#156 = EDGE_CURVE ( 'NONE', #579, #211, #170, .T. ) ;
#157 = FACE_OUTER_BOUND ( 'NONE', #439, .T. ) ;
#158 = ORIENTED_EDGE ( 'NONE', *, *, #73, .T. ) ;
#159 = FACE_OUTER_BOUND ( 'NONE', #317, .T. ) ;
#160 =( GEOMETRIC_REPRESENTATION_CONTEXT ( 3 ) GLOBAL_UNCERTAINTY_ASSIGNED_CONTEXT ( ( #421 ) ) GLOBAL_UNIT_ASSIGNED_CONTEXT ( ( #81, #178, #40 ) ) REPRESENTATION_CONTEXT ( 'NONE', 'WORKASPACE' ) );
#161 = AXIS2_PLACEMENT_3D ( 'NONE', #75, #314, #267 ) ;
#162 = ADVANCED_FACE ( 'NONE', ( #157 ), #428, .F. ) ;
#163 = AXIS2_PLACEMENT_3D ( 'NONE', #251, #505, #403 ) ;
#164 = ORIENTED_EDGE ( 'NONE', *, *, #389, .T. ) ;
#165 = DIRECTION ( 'NONE',  ( -1.000000000000000000, 0.000000000000000000, 0.000000000000000000 ) ) ;
#166 = ORIENTED_EDGE ( 'NONE', *, *, #441, .T. ) ;
#167 = DIRECTION ( 'NONE',  ( 0.000000000000000000, 0.000000000000000000, -1.000000000000000000 ) ) ;
#168 = ORIENTED_EDGE ( 'NONE', *, *, #139, .T. ) ;
#169 = LINE ( 'NONE', #425, #310 ) ;
#170 = CIRCLE ( 'NONE', #443, 1.550000000000000933 ) ;
#171 = ORIENTED_EDGE ( 'NONE', *, *, #335, .T. ) ;
#172 = CARTESIAN_POINT ( 'NONE',  ( 5.999999999999999112, 2.500000000000000000, -14.00000000000000000 ) ) ;
#173 = DIRECTION ( 'NONE',  ( 0.000000000000000000, 0.000000000000000000, -1.000000000000000000 ) ) ;
#174 = VERTEX_POINT ( 'NONE', #273 ) ;
#175 = CARTESIAN_POINT ( 'NONE',  ( 0.000000000000000000, -2.500000000000000000, 7.849999999999999645 ) ) ;
#176 = LINE ( 'NONE', #383, #33 ) ;
#177 = ORIENTED_EDGE ( 'NONE', *, *, #408, .T. ) ;
#178 =( NAMED_UNIT ( * ) PLANE_ANGLE_UNIT ( ) SI_UNIT ( $, .RADIAN. ) );
#179 = AXIS2_PLACEMENT_3D ( 'NONE', #231, #284, #132 ) ;
#180 = VERTEX_POINT ( 'NONE', #379 ) ;
#181 = LINE ( 'NONE', #530, #85 ) ;
#182 = ORIENTED_EDGE ( 'NONE', *, *, #578, .T. ) ;
#183 = DIRECTION ( 'NONE',  ( 0.000000000000000000, 1.000000000000000000, 0.000000000000000000 ) ) ;
#184 = DIRECTION ( 'NONE',  ( -1.000000000000000000, 0.000000000000000000, 0.000000000000000000 ) ) ;
#185 = VERTEX_POINT ( 'NONE', #221 ) ;
#186 = EDGE_CURVE ( 'NONE', #402, #608, #616, .T. ) ;
#187 = MANIFOLD_SOLID_BREP ( '\X2\501289d2\X0\2', #547 ) ;
#188 = FACE_OUTER_BOUND ( 'NONE', #465, .T. ) ;
#189 = CARTESIAN_POINT ( 'NONE',  ( 0.000000000000000000, -2.500000000000000000, 9.400000000000000355 ) ) ;
#190 = VECTOR ( 'NONE', #346, 1000.000000000000000 ) ;
#191 = ORIENTED_EDGE ( 'NONE', *, *, #195, .F. ) ;
#192 = AXIS2_PLACEMENT_3D ( 'NONE', #261, #352, #546 ) ;
#193 = CYLINDRICAL_SURFACE ( 'NONE', #572, 1.550000000000000933 ) ;
#194 = DIRECTION ( 'NONE',  ( 0.000000000000000000, 0.000000000000000000, 1.000000000000000000 ) ) ;
#195 = EDGE_CURVE ( 'NONE', #48, #556, #328, .T. ) ;
#196 = CARTESIAN_POINT ( 'NONE',  ( -6.000000000000000888, 2.500000000000000000, -14.00000000000000000 ) ) ;
#197 = CARTESIAN_POINT ( 'NONE',  ( 0.000000000000000000, 2.500000000000000444, 38.99999999999998579 ) ) ;
#198 = CARTESIAN_POINT ( 'NONE',  ( 5.999999999999998224, 14.39338664083523689, 37.34999999999999432 ) ) ;
#199 = LINE ( 'NONE', #599, #454 ) ;
#200 = PLANE ( 'NONE',  #87 ) ;
#201 = CARTESIAN_POINT ( 'NONE',  ( -4.500000000000001776, 14.39338664083523689, 37.34999999999999432 ) ) ;
#202 = VECTOR ( 'NONE', #525, 1000.000000000000000 ) ;
#203 = FACE_OUTER_BOUND ( 'NONE', #38, .T. ) ;
#204 = CARTESIAN_POINT ( 'NONE',  ( -4.500000000000001776, 2.500000000000000000, 22.99999999999999645 ) ) ;
#205 = EDGE_LOOP ( 'NONE', ( #164, #571 ) ) ;
#206 = EDGE_CURVE ( 'NONE', #66, #613, #332, .T. ) ;
#207 = FACE_BOUND ( 'NONE', #563, .T. ) ;
#208 =( LENGTH_UNIT ( ) NAMED_UNIT ( * ) SI_UNIT ( .MILLI., .METRE. ) );
#209 = EDGE_LOOP ( 'NONE', ( #271, #62, #168, #182 ) ) ;
#210 = LINE ( 'NONE', #71, #549 ) ;
#211 = VERTEX_POINT ( 'NONE', #585 ) ;
#212 = CARTESIAN_POINT ( 'NONE',  ( 5.999999999999998224, 19.50000000000000000, 40.49999999999999289 ) ) ;
#213 = VECTOR ( 'NONE', #596, 1000.000000000000000 ) ;
#214 = ADVANCED_FACE ( 'NONE', ( #188 ), #534, .F. ) ;
#215 = APPLICATION_CONTEXT ( 'automotive_design' ) ;
#216 = ORIENTED_EDGE ( 'NONE', *, *, #206, .T. ) ;
#217 = CYLINDRICAL_SURFACE ( 'NONE', #65, 1.550000000000000933 ) ;
#218 = EDGE_CURVE ( 'NONE', #315, #128, #461, .T. ) ;
#219 = ORIENTED_EDGE ( 'NONE', *, *, #578, .F. ) ;
#220 = FACE_OUTER_BOUND ( 'NONE', #377, .T. ) ;
#221 = CARTESIAN_POINT ( 'NONE',  ( 5.999999999999999112, 27.50000000000000000, 32.99999999999998579 ) ) ;
#222 = VERTEX_POINT ( 'NONE', #91 ) ;
#223 = DIRECTION ( 'NONE',  ( -0.000000000000000000, -1.000000000000000000, -0.000000000000000000 ) ) ;
#224 = COLOUR_RGB ( '',0.7921568627450980005, 0.8196078431372548767, 0.9333333333333333481 ) ;
#225 = AXIS2_PLACEMENT_3D ( 'NONE', #316, #275, #614 ) ;
#226 = EDGE_LOOP ( 'NONE', ( #25, #54 ) ) ;
#227 = CARTESIAN_POINT ( 'NONE',  ( 1.898202538678396719E-16, 2.500000000000000000, -7.849999999999999645 ) ) ;
#228 = ORIENTED_EDGE ( 'NONE', *, *, #156, .F. ) ;
#229 = FILL_AREA_STYLE ('',( #521 ) ) ;
#230 = ORIENTED_EDGE ( 'NONE', *, *, #337, .F. ) ;
#231 = CARTESIAN_POINT ( 'NONE',  ( 0.000000000000000000, -2.500000000000000000, -9.400000000000000355 ) ) ;
#232 = EDGE_CURVE ( 'NONE', #613, #211, #176, .T. ) ;
#233 = AXIS2_PLACEMENT_3D ( 'NONE', #257, #147, #311 ) ;
#234 = ORIENTED_EDGE ( 'NONE', *, *, #297, .T. ) ;
#235 = SURFACE_STYLE_FILL_AREA ( #229 ) ;
#236 = DIRECTION ( 'NONE',  ( 1.000000000000000000, 0.000000000000000000, 0.000000000000000000 ) ) ;
#237 = ADVANCED_FACE ( 'NONE', ( #477 ), #386, .T. ) ;
#238 = CARTESIAN_POINT ( 'NONE',  ( 5.999999999999999112, 2.500000000000000000, -14.00000000000000000 ) ) ;
#239 = DIRECTION ( 'NONE',  ( -1.000000000000000000, 0.000000000000000000, 0.000000000000000000 ) ) ;
#240 = ORIENTED_EDGE ( 'NONE', *, *, #431, .T. ) ;
#241 = DIRECTION ( 'NONE',  ( 0.000000000000000000, 0.000000000000000000, 1.000000000000000000 ) ) ;
#242 =( NAMED_UNIT ( * ) PLANE_ANGLE_UNIT ( ) SI_UNIT ( $, .RADIAN. ) );
#243 = DIRECTION ( 'NONE',  ( -0.000000000000000000, 1.000000000000000000, -0.000000000000000000 ) ) ;
#244 = CIRCLE ( 'NONE', #610, 1.650000000000005684 ) ;
#245 = ORIENTED_EDGE ( 'NONE', *, *, #511, .T. ) ;
#246 = LINE ( 'NONE', #644, #387 ) ;
#247 = SHAPE_DEFINITION_REPRESENTATION ( #538, #133 ) ;
#248 = CARTESIAN_POINT ( 'NONE',  ( -4.500000000000001776, 7.500000000000001776, 44.00000000000000000 ) ) ;
#249 = EDGE_LOOP ( 'NONE', ( #618, #478, #20, #305 ) ) ;
#250 = LINE ( 'NONE', #498, #78 ) ;
#251 = CARTESIAN_POINT ( 'NONE',  ( 0.000000000000000000, 2.500000000000000000, 0.000000000000000000 ) ) ;
#252 = ORIENTED_EDGE ( 'NONE', *, *, #102, .T. ) ;
#253 = DIRECTION ( 'NONE',  ( -0.000000000000000000, -1.000000000000000000, -0.000000000000000000 ) ) ;
#254 = CARTESIAN_POINT ( 'NONE',  ( 20.50000000000000000, 19.50000000000000000, 38.84999999999998721 ) ) ;
#255 = ORIENTED_EDGE ( 'NONE', *, *, #186, .T. ) ;
#256 = VECTOR ( 'NONE', #36, 1000.000000000000000 ) ;
#257 = CARTESIAN_POINT ( 'NONE',  ( 0.000000000000000000, -2.500000000000000000, 9.400000000000000355 ) ) ;
#258 = VECTOR ( 'NONE', #331, 1000.000000000000000 ) ;
#259 = FACE_OUTER_BOUND ( 'NONE', #513, .T. ) ;
#260 = EDGE_CURVE ( 'NONE', #211, #579, #533, .T. ) ;
#261 = CARTESIAN_POINT ( 'NONE',  ( 0.000000000000000000, -2.500000000000000000, 0.000000000000000000 ) ) ;
#262 = ORIENTED_EDGE ( 'NONE', *, *, #195, .T. ) ;
#263 = UNCERTAINTY_MEASURE_WITH_UNIT (LENGTH_MEASURE( 1.000000000000000082E-05 ), #208, 'distance_accuracy_value', 'NONE');
#264 = CYLINDRICAL_SURFACE ( 'NONE', #161, 1.650000000000005684 ) ;
#265 = EDGE_CURVE ( 'NONE', #80, #373, #338, .T. ) ;
#266 = ORIENTED_EDGE ( 'NONE', *, *, #129, .T. ) ;
#267 = DIRECTION ( 'NONE',  ( 0.000000000000000000, 0.000000000000000000, 1.000000000000000000 ) ) ;
#268 = AXIS2_PLACEMENT_3D ( 'NONE', #471, #376, #173 ) ;
#269 = CIRCLE ( 'NONE', #629, 1.550000000000000933 ) ;
#270 = EDGE_CURVE ( 'NONE', #575, #373, #485, .T. ) ;
#271 = ORIENTED_EDGE ( 'NONE', *, *, #516, .T. ) ;
#272 = CARTESIAN_POINT ( 'NONE',  ( 5.999999999999999112, 2.500000000000000000, 22.99999999999999645 ) ) ;
#273 = CARTESIAN_POINT ( 'NONE',  ( 5.999999999999999112, 7.500000000000001776, 44.00000000000000000 ) ) ;
#274 = ORIENTED_EDGE ( 'NONE', *, *, #564, .F. ) ;
#275 = DIRECTION ( 'NONE',  ( -1.000000000000000000, 0.000000000000000000, 0.000000000000000000 ) ) ;
#276 = CYLINDRICAL_SURFACE ( 'NONE', #268, 1.550000000000000933 ) ;
#277 = ORIENTED_EDGE ( 'NONE', *, *, #44, .F. ) ;
#278 = EDGE_CURVE ( 'NONE', #522, #126, #181, .T. ) ;
#279 = CARTESIAN_POINT ( 'NONE',  ( 1.898202538678396719E-16, 2.500000000000000000, 10.95000000000000107 ) ) ;
#280 = CIRCLE ( 'NONE', #233, 1.550000000000000933 ) ;
#281 = VECTOR ( 'NONE', #165, 1000.000000000000000 ) ;
#282 = ORIENTED_EDGE ( 'NONE', *, *, #329, .F. ) ;
#283 = ADVANCED_FACE ( 'NONE', ( #395 ), #83, .F. ) ;
#284 = DIRECTION ( 'NONE',  ( 0.000000000000000000, 1.000000000000000000, 0.000000000000000000 ) ) ;
#285 = ORIENTED_EDGE ( 'NONE', *, *, #313, .T. ) ;
#286 = EDGE_CURVE ( 'NONE', #410, #575, #591, .T. ) ;
#287 = ORIENTED_EDGE ( 'NONE', *, *, #31, .F. ) ;
#288 = DIRECTION ( 'NONE',  ( 0.000000000000000000, -0.000000000000000000, 1.000000000000000000 ) ) ;
#289 = AXIS2_PLACEMENT_3D ( 'NONE', #324, #475, #72 ) ;
#290 = VECTOR ( 'NONE', #417, 1000.000000000000000 ) ;
#291 = DIRECTION ( 'NONE',  ( -1.000000000000000000, 0.000000000000000000, 0.000000000000000000 ) ) ;
#292 = CARTESIAN_POINT ( 'NONE',  ( 5.999999999999999112, -2.500000000000000000, 14.00000000000000000 ) ) ;
#293 = FACE_OUTER_BOUND ( 'NONE', #517, .T. ) ;
#294 = ORIENTED_EDGE ( 'NONE', *, *, #511, .F. ) ;
#295 = DIRECTION ( 'NONE',  ( 0.000000000000000000, 0.000000000000000000, -1.000000000000000000 ) ) ;
#296 = ORIENTED_EDGE ( 'NONE', *, *, #451, .F. ) ;
#297 = EDGE_CURVE ( 'NONE', #59, #222, #539, .T. ) ;
#298 = CARTESIAN_POINT ( 'NONE',  ( 5.999999999999999112, 27.50000000000000000, 22.99999999999999645 ) ) ;
#299 = PLANE ( 'NONE',  #590 ) ;
#300 = PRODUCT_RELATED_PRODUCT_CATEGORY ( 'part', '', ( #29 ) ) ;
#301 = DIRECTION ( 'NONE',  ( -0.000000000000000000, -0.7071067811865465735, -0.7071067811865484609 ) ) ;
#302 = CARTESIAN_POINT ( 'NONE',  ( 5.999999999999998224, 14.39338664083523689, 39.00000000000000000 ) ) ;
#303 = ORIENTED_EDGE ( 'NONE', *, *, #232, .T. ) ;
#304 = CARTESIAN_POINT ( 'NONE',  ( 5.999999999999998224, 19.50000000000000000, 42.14999999999999858 ) ) ;
#305 = ORIENTED_EDGE ( 'NONE', *, *, #93, .F. ) ;
#306 = CARTESIAN_POINT ( 'NONE',  ( 20.50000000000000000, 14.39338664083523689, 37.34999999999999432 ) ) ;
#307 =( NAMED_UNIT ( * ) SI_UNIT ( $, .STERADIAN. ) SOLID_ANGLE_UNIT ( ) );
#308 = LINE ( 'NONE', #423, #109 ) ;
#309 = ORIENTED_EDGE ( 'NONE', *, *, #186, .F. ) ;
#310 = VECTOR ( 'NONE', #223, 1000.000000000000000 ) ;
#311 = DIRECTION ( 'NONE',  ( 0.000000000000000000, 0.000000000000000000, -1.000000000000000000 ) ) ;
#312 = ORIENTED_EDGE ( 'NONE', *, *, #612, .T. ) ;
#313 = EDGE_CURVE ( 'NONE', #74, #420, #552, .T. ) ;
#314 = DIRECTION ( 'NONE',  ( -1.000000000000000000, -0.000000000000000000, -0.000000000000000000 ) ) ;
#315 = VERTEX_POINT ( 'NONE', #58 ) ;
#316 = CARTESIAN_POINT ( 'NONE',  ( -4.500000000000001776, 19.50000000000000000, 40.49999999999999289 ) ) ;
#317 = EDGE_LOOP ( 'NONE', ( #294, #545, #255, #287 ) ) ;
#318 = CARTESIAN_POINT ( 'NONE',  ( 0.000000000000000000, 27.50000000000000000, 0.000000000000000000 ) ) ;
#319 = AXIS2_PLACEMENT_3D ( 'NONE', #138, #587, #241 ) ;
#320 = CARTESIAN_POINT ( 'NONE',  ( -6.000000000000000888, -2.500000000000000000, -14.00000000000000000 ) ) ;
#321 = PRODUCT_DEFINITION_FORMATION_WITH_SPECIFIED_SOURCE ( 'ไป', '', #29, .NOT_KNOWN. ) ;
#322 = ORIENTED_EDGE ( 'NONE', *, *, #451, .T. ) ;
#323 = FACE_OUTER_BOUND ( 'NONE', #209, .T. ) ;
#324 = CARTESIAN_POINT ( 'NONE',  ( 5.999999999999998224, 19.50000000000000000, 40.49999999999999289 ) ) ;
#325 = EDGE_CURVE ( 'NONE', #556, #506, #199, .T. ) ;
#326 = ORIENTED_EDGE ( 'NONE', *, *, #449, .T. ) ;
#327 = DIRECTION ( 'NONE',  ( 0.000000000000000000, 1.000000000000000000, 0.000000000000000000 ) ) ;
#328 = LINE ( 'NONE', #528, #45 ) ;
#329 = EDGE_CURVE ( 'NONE', #124, #222, #154, .T. ) ;
#330 = ORIENTED_EDGE ( 'NONE', *, *, #325, .T. ) ;
#331 = DIRECTION ( 'NONE',  ( -0.000000000000000000, 0.7071067811865465735, 0.7071067811865484609 ) ) ;
#332 = CIRCLE ( 'NONE', #600, 1.550000000000000933 ) ;
#333 = VECTOR ( 'NONE', #5, 1000.000000000000000 ) ;
#334 = ORIENTED_EDGE ( 'NONE', *, *, #11, .T. ) ;
#335 = EDGE_CURVE ( 'NONE', #48, #59, #141, .T. ) ;
#336 = ORIENTED_EDGE ( 'NONE', *, *, #368, .F. ) ;
#337 = EDGE_CURVE ( 'NONE', #39, #410, #94, .T. ) ;
#338 = LINE ( 'NONE', #292, #202 ) ;
#339 = ORIENTED_EDGE ( 'NONE', *, *, #337, .T. ) ;
#340 = PRESENTATION_STYLE_ASSIGNMENT (( #135 ) ) ;
#341 = CIRCLE ( 'NONE', #34, 1.550000000000000933 ) ;
#342 = VECTOR ( 'NONE', #105, 1000.000000000000000 ) ;
#343 = VECTOR ( 'NONE', #46, 1000.000000000000000 ) ;
#344 = ORIENTED_EDGE ( 'NONE', *, *, #468, .F. ) ;
#345 = EDGE_LOOP ( 'NONE', ( #277, #177, #476, #362, #113, #230, #312, #115 ) ) ;
#346 = DIRECTION ( 'NONE',  ( 0.000000000000000000, 0.000000000000000000, -1.000000000000000000 ) ) ;
#347 = CARTESIAN_POINT ( 'NONE',  ( -4.500000000000001776, 27.50000000000000000, 22.99999999999999645 ) ) ;
#348 = ORIENTED_EDGE ( 'NONE', *, *, #123, .T. ) ;
#349 = DIRECTION ( 'NONE',  ( -1.000000000000000000, 0.000000000000000000, 0.000000000000000000 ) ) ;
#350 = LINE ( 'NONE', #496, #353 ) ;
#351 = ORIENTED_EDGE ( 'NONE', *, *, #564, .T. ) ;
#352 = DIRECTION ( 'NONE',  ( 0.000000000000000000, -1.000000000000000000, 0.000000000000000000 ) ) ;
#353 = VECTOR ( 'NONE', #184, 1000.000000000000000 ) ;
#354 = CARTESIAN_POINT ( 'NONE',  ( -6.000000000000000888, 2.500000000000000000, 38.99999999999998579 ) ) ;
#355 = AXIS2_PLACEMENT_3D ( 'NONE', #593, #543, #491 ) ;
#356 = VECTOR ( 'NONE', #523, 1000.000000000000000 ) ;
#357 = FACE_OUTER_BOUND ( 'NONE', #9, .T. ) ;
#358 = CARTESIAN_POINT ( 'NONE',  ( 5.999999999999999112, 27.50000000000000000, 44.00000000000000000 ) ) ;
#359 = DIRECTION ( 'NONE',  ( 0.000000000000000000, 0.000000000000000000, 1.000000000000000000 ) ) ;
#360 = EDGE_CURVE ( 'NONE', #608, #131, #280, .T. ) ;
#361 = DIRECTION ( 'NONE',  ( 0.000000000000000000, 1.000000000000000000, -0.000000000000000000 ) ) ;
#362 = ORIENTED_EDGE ( 'NONE', *, *, #270, .F. ) ;
#363 = LINE ( 'NONE', #7, #343 ) ;
#364 = DIRECTION ( 'NONE',  ( -1.000000000000000000, 0.000000000000000000, 0.000000000000000000 ) ) ;
#365 = ORIENTED_EDGE ( 'NONE', *, *, #27, .F. ) ;
#366 = AXIS2_PLACEMENT_3D ( 'NONE', #466, #327, #419 ) ;
#367 = CARTESIAN_POINT ( 'NONE',  ( 0.000000000000000000, -2.500000000000000000, -10.95000000000000107 ) ) ;
#368 = EDGE_CURVE ( 'NONE', #416, #128, #363, .T. ) ;
#369 = ORIENTED_EDGE ( 'NONE', *, *, #129, .F. ) ;
#370 = CARTESIAN_POINT ( 'NONE',  ( 0.000000000000000000, -2.500000000000000000, 33.99999999999996447 ) ) ;
#371 = ORIENTED_EDGE ( 'NONE', *, *, #360, .F. ) ;
#372 = CARTESIAN_POINT ( 'NONE',  ( -4.500000000000001776, 27.50000000000000000, 32.99999999999998579 ) ) ;
#373 = VERTEX_POINT ( 'NONE', #597 ) ;
#374 = LINE ( 'NONE', #272, #290 ) ;
#375 = VECTOR ( 'NONE', #574, 1000.000000000000000 ) ;
#376 = DIRECTION ( 'NONE',  ( -0.000000000000000000, -1.000000000000000000, -0.000000000000000000 ) ) ;
#377 = EDGE_LOOP ( 'NONE', ( #391, #12, #446, #424 ) ) ;
#378 = LINE ( 'NONE', #576, #455 ) ;
#379 = CARTESIAN_POINT ( 'NONE',  ( -4.500000000000001776, 27.50000000000000000, 44.00000000000000000 ) ) ;
#380 = ADVANCED_FACE ( 'NONE', ( #557 ), #447, .F. ) ;
#381 = EDGE_LOOP ( 'NONE', ( #611, #472, #529, #503 ) ) ;
#382 = LINE ( 'NONE', #622, #356 ) ;
#383 = CARTESIAN_POINT ( 'NONE',  ( 1.898202538678397705E-16, 2.500000000000000000, -7.849999999999999645 ) ) ;
#384 = ADVANCED_FACE ( 'NONE', ( #409, #203, #405 ), #646, .T. ) ;
#385 = STYLED_ITEM ( 'NONE', ( #340 ), #187 ) ;
#386 = PLANE ( 'NONE',  #406 ) ;
#387 = VECTOR ( 'NONE', #301, 1000.000000000000000 ) ;
#388 = ORIENTED_EDGE ( 'NONE', *, *, #44, .T. ) ;
#389 = EDGE_CURVE ( 'NONE', #74, #586, #130, .T. ) ;
#390 = SURFACE_SIDE_STYLE ('',( #235 ) ) ;
#391 = ORIENTED_EDGE ( 'NONE', *, *, #639, .F. ) ;
#392 = CARTESIAN_POINT ( 'NONE',  ( 0.000000000000000000, 7.500000000000001776, 44.00000000000000000 ) ) ;
#393 = CARTESIAN_POINT ( 'NONE',  ( 5.999999999999999112, 2.500000000000000000, 44.00000000000000000 ) ) ;
#394 = ORIENTED_EDGE ( 'NONE', *, *, #139, .F. ) ;
#395 = FACE_OUTER_BOUND ( 'NONE', #645, .T. ) ;
#396 = ADVANCED_FACE ( 'NONE', ( #357 ), #193, .F. ) ;
#397 = CARTESIAN_POINT ( 'NONE',  ( -6.000000000000000888, 2.500000000000000000, 14.00000000000000000 ) ) ;
#398 = ORIENTED_EDGE ( 'NONE', *, *, #110, .F. ) ;
#399 = PLANE ( 'NONE',  #355 ) ;
#400 = DIRECTION ( 'NONE',  ( 1.000000000000000000, 0.000000000000000000, 0.000000000000000000 ) ) ;
#401 = ADVANCED_FACE ( 'NONE', ( #207, #49, #605 ), #399, .F. ) ;
#402 = VERTEX_POINT ( 'NONE', #101 ) ;
#403 = DIRECTION ( 'NONE',  ( 0.000000000000000000, -0.000000000000000000, -1.000000000000000000 ) ) ;
#404 = DIRECTION ( 'NONE',  ( 0.000000000000000000, 0.000000000000000000, 1.000000000000000000 ) ) ;
#405 = FACE_BOUND ( 'NONE', #488, .T. ) ;
#406 = AXIS2_PLACEMENT_3D ( 'NONE', #625, #581, #26 ) ;
#407 = CARTESIAN_POINT ( 'NONE',  ( 0.000000000000000000, 7.500000000000001776, 44.00000000000000000 ) ) ;
#408 = EDGE_CURVE ( 'NONE', #174, #80, #246, .T. ) ;
#409 = FACE_BOUND ( 'NONE', #458, .T. ) ;
#410 = VERTEX_POINT ( 'NONE', #495 ) ;
#411 = DIRECTION ( 'NONE',  ( -0.000000000000000000, -0.000000000000000000, 1.000000000000000000 ) ) ;
#412 = CARTESIAN_POINT ( 'NONE',  ( 0.000000000000000000, 0.000000000000000000, 0.000000000000000000 ) ) ;
#413 = DIRECTION ( 'NONE',  ( 0.000000000000000000, 1.000000000000000000, 0.000000000000000000 ) ) ;
#414 = LINE ( 'NONE', #609, #535 ) ;
#415 = CIRCLE ( 'NONE', #628, 1.650000000000005684 ) ;
#416 = VERTEX_POINT ( 'NONE', #304 ) ;
#417 = DIRECTION ( 'NONE',  ( -1.000000000000000000, 0.000000000000000000, 0.000000000000000000 ) ) ;
#418 = EDGE_CURVE ( 'NONE', #180, #497, #250, .T. ) ;
#419 = DIRECTION ( 'NONE',  ( 0.000000000000000000, 0.000000000000000000, 1.000000000000000000 ) ) ;
#420 = VERTEX_POINT ( 'NONE', #508 ) ;
#421 = UNCERTAINTY_MEASURE_WITH_UNIT (LENGTH_MEASURE( 1.000000000000000082E-05 ), #81, 'distance_accuracy_value', 'NONE');
#422 = CARTESIAN_POINT ( 'NONE',  ( -4.500000000000001776, 7.500000000000003553, 44.00000000000000000 ) ) ;
#423 = CARTESIAN_POINT ( 'NONE',  ( -4.500000000000001776, 27.50000000000000000, 44.00000000000000000 ) ) ;
#424 = ORIENTED_EDGE ( 'NONE', *, *, #487, .T. ) ;
#425 = CARTESIAN_POINT ( 'NONE',  ( 1.898202538678397705E-16, 2.500000000000000000, 10.95000000000000107 ) ) ;
#426 = VECTOR ( 'NONE', #411, 1000.000000000000000 ) ;
#427 = CIRCLE ( 'NONE', #225, 1.650000000000005684 ) ;
#428 = CYLINDRICAL_SURFACE ( 'NONE', #15, 1.650000000000005684 ) ;
#429 = ORIENTED_EDGE ( 'NONE', *, *, #31, .T. ) ;
#430 = CARTESIAN_POINT ( 'NONE',  ( -4.500000000000001776, 14.39338664083523689, 35.69999999999998863 ) ) ;
#431 = EDGE_CURVE ( 'NONE', #410, #124, #374, .T. ) ;
#432 = EDGE_LOOP ( 'NONE', ( #166, #266 ) ) ;
#433 = ORIENTED_EDGE ( 'NONE', *, *, #206, .F. ) ;
#434 = AXIS2_PLACEMENT_3D ( 'NONE', #601, #84, #236 ) ;
#435 = DIRECTION ( 'NONE',  ( -0.000000000000000000, -1.000000000000000000, -0.000000000000000000 ) ) ;
#436 = EDGE_LOOP ( 'NONE', ( #171, #234, #282, #137, #42, #351 ) ) ;
#437 = CARTESIAN_POINT ( 'NONE',  ( 5.999999999999999112, 2.500000000000000000, 14.00000000000000000 ) ) ;
#438 = CARTESIAN_POINT ( 'NONE',  ( -4.500000000000001776, 14.39338664083523689, 37.34999999999999432 ) ) ;
#439 = EDGE_LOOP ( 'NONE', ( #369, #144, #120, #336 ) ) ;
#440 = CYLINDRICAL_SURFACE ( 'NONE', #492, 1.650000000000005684 ) ;
#441 = EDGE_CURVE ( 'NONE', #416, #526, #559, .T. ) ;
#442 = DIRECTION ( 'NONE',  ( 0.000000000000000000, 0.000000000000000000, 1.000000000000000000 ) ) ;
#443 = AXIS2_PLACEMENT_3D ( 'NONE', #467, #413, #607 ) ;
#444 = CIRCLE ( 'NONE', #366, 1.550000000000000933 ) ;
#445 = LINE ( 'NONE', #248, #213 ) ;
#446 = ORIENTED_EDGE ( 'NONE', *, *, #368, .T. ) ;
#447 = CYLINDRICAL_SURFACE ( 'NONE', #483, 1.650000000000005684 ) ;
#448 = FACE_OUTER_BOUND ( 'NONE', #436, .T. ) ;
#449 = EDGE_CURVE ( 'NONE', #613, #66, #444, .T. ) ;
#450 = DIRECTION ( 'NONE',  ( -1.000000000000000000, -0.000000000000000000, -0.000000000000000000 ) ) ;
#451 = EDGE_CURVE ( 'NONE', #80, #506, #568, .T. ) ;
#452 = EDGE_LOOP ( 'NONE', ( #111, #82, #96, #394, #493, #252 ) ) ;
#453 = EDGE_LOOP ( 'NONE', ( #627, #398 ) ) ;
#454 = VECTOR ( 'NONE', #108, 1000.000000000000000 ) ;
#455 = VECTOR ( 'NONE', #459, 1000.000000000000000 ) ;
#456 = ORIENTED_EDGE ( 'NONE', *, *, #265, .F. ) ;
#457 = DIRECTION ( 'NONE',  ( -0.000000000000000000, -1.000000000000000000, -0.000000000000000000 ) ) ;
#458 = EDGE_LOOP ( 'NONE', ( #560, #469 ) ) ;
#459 = DIRECTION ( 'NONE',  ( 1.000000000000000000, -0.000000000000000000, -0.000000000000000000 ) ) ;
#460 = DIRECTION ( 'NONE',  ( -1.000000000000000000, 0.000000000000000000, 0.000000000000000000 ) ) ;
#461 = CIRCLE ( 'NONE', #319, 1.650000000000005684 ) ;
#462 = ORIENTED_EDGE ( 'NONE', *, *, #449, .F. ) ;
#463 = VECTOR ( 'NONE', #167, 1000.000000000000000 ) ;
#464 = PLANE ( 'NONE',  #4 ) ;
#465 = EDGE_LOOP ( 'NONE', ( #630, #296, #490, #499, #365, #542 ) ) ;
#466 = CARTESIAN_POINT ( 'NONE',  ( 0.000000000000000000, 2.500000000000000000, -9.400000000000000355 ) ) ;
#467 = CARTESIAN_POINT ( 'NONE',  ( 0.000000000000000000, -2.500000000000000000, -9.400000000000000355 ) ) ;
#468 = EDGE_CURVE ( 'NONE', #586, #621, #116, .T. ) ;
#469 = ORIENTED_EDGE ( 'NONE', *, *, #260, .T. ) ;
#470 = DIRECTION ( 'NONE',  ( -1.000000000000000000, -0.000000000000000000, -0.000000000000000000 ) ) ;
#471 = CARTESIAN_POINT ( 'NONE',  ( 0.000000000000000000, 2.500000000000000000, -9.400000000000000355 ) ) ;
#472 = ORIENTED_EDGE ( 'NONE', *, *, #468, .T. ) ;
#473 = FACE_BOUND ( 'NONE', #226, .T. ) ;
#474 = VECTOR ( 'NONE', #435, 1000.000000000000000 ) ;
#475 = DIRECTION ( 'NONE',  ( -1.000000000000000000, 0.000000000000000000, 0.000000000000000000 ) ) ;
#476 = ORIENTED_EDGE ( 'NONE', *, *, #265, .T. ) ;
#477 = FACE_OUTER_BOUND ( 'NONE', #249, .T. ) ;
#478 = ORIENTED_EDGE ( 'NONE', *, *, #541, .F. ) ;
#479 = CARTESIAN_POINT ( 'NONE',  ( 0.000000000000000000, 2.500000000000000000, -9.400000000000000355 ) ) ;
#480 = APPLICATION_CONTEXT ( 'automotive_design' ) ;
#481 = EDGE_LOOP ( 'NONE', ( #494, #158, #388, #219 ) ) ;
#482 = CIRCLE ( 'NONE', #289, 1.650000000000005684 ) ;
#483 = AXIS2_PLACEMENT_3D ( 'NONE', #306, #638, #145 ) ;
#484 = LINE ( 'NONE', #347, #256 ) ;
#485 = LINE ( 'NONE', #238, #474 ) ;
#486 = DIRECTION ( 'NONE',  ( 1.000000000000000000, 0.000000000000000000, 0.000000000000000000 ) ) ;
#487 = EDGE_CURVE ( 'NONE', #128, #315, #427, .T. ) ;
#488 = EDGE_LOOP ( 'NONE', ( #70, #429 ) ) ;
#489 = DIRECTION ( 'NONE',  ( 0.000000000000000000, 0.000000000000000000, 1.000000000000000000 ) ) ;
#490 = ORIENTED_EDGE ( 'NONE', *, *, #408, .F. ) ;
#491 = DIRECTION ( 'NONE',  ( 0.000000000000000000, 0.000000000000000000, -1.000000000000000000 ) ) ;
#492 = AXIS2_PLACEMENT_3D ( 'NONE', #598, #450, #588 ) ;
#493 = ORIENTED_EDGE ( 'NONE', *, *, #278, .T. ) ;
#494 = ORIENTED_EDGE ( 'NONE', *, *, #418, .T. ) ;
#495 = CARTESIAN_POINT ( 'NONE',  ( 5.999999999999999112, 2.500000000000000000, 22.99999999999999645 ) ) ;
#496 = CARTESIAN_POINT ( 'NONE',  ( -4.500000000000001776, 27.50000000000000000, 32.99999999999998579 ) ) ;
#497 = VERTEX_POINT ( 'NONE', #422 ) ;
#498 = CARTESIAN_POINT ( 'NONE',  ( -4.500000000000001776, 27.50000000000000000, 44.00000000000000000 ) ) ;
#499 = ORIENTED_EDGE ( 'NONE', *, *, #73, .F. ) ;
#500 = DIRECTION ( 'NONE',  ( 0.000000000000000000, 0.000000000000000000, -1.000000000000000000 ) ) ;
#501 =( GEOMETRIC_REPRESENTATION_CONTEXT ( 3 ) GLOBAL_UNCERTAINTY_ASSIGNED_CONTEXT ( ( #263 ) ) GLOBAL_UNIT_ASSIGNED_CONTEXT ( ( #208, #242, #307 ) ) REPRESENTATION_CONTEXT ( 'NONE', 'WORKASPACE' ) );
#502 = CIRCLE ( 'NONE', #512, 1.550000000000000933 ) ;
#503 = ORIENTED_EDGE ( 'NONE', *, *, #313, .F. ) ;
#504 = CARTESIAN_POINT ( 'NONE',  ( 5.999999999999998224, 14.39338664083523689, 37.34999999999999432 ) ) ;
#505 = DIRECTION ( 'NONE',  ( 0.000000000000000000, -1.000000000000000000, 0.000000000000000000 ) ) ;
#506 = VERTEX_POINT ( 'NONE', #125 ) ;
#507 = ADVANCED_FACE ( 'NONE', ( #159 ), #217, .F. ) ;
#508 = CARTESIAN_POINT ( 'NONE',  ( -4.500000000000001776, 14.39338664083523689, 39.00000000000000000 ) ) ;
#509 = ORIENTED_EDGE ( 'NONE', *, *, #270, .T. ) ;
#510 = CARTESIAN_POINT ( 'NONE',  ( 0.000000000000000000, 2.500000000000000000, 9.400000000000000355 ) ) ;
#511 = EDGE_CURVE ( 'NONE', #624, #131, #169, .T. ) ;
#512 = AXIS2_PLACEMENT_3D ( 'NONE', #189, #532, #295 ) ;
#513 = EDGE_LOOP ( 'NONE', ( #216, #303, #228, #519 ) ) ;
#514 = DIRECTION ( 'NONE',  ( 0.000000000000000000, -0.000000000000000000, 1.000000000000000000 ) ) ;
#515 = DIRECTION ( 'NONE',  ( -1.000000000000000000, -0.000000000000000000, -0.000000000000000000 ) ) ;
#516 = EDGE_CURVE ( 'NONE', #643, #185, #63, .T. ) ;
#517 = EDGE_LOOP ( 'NONE', ( #348, #191, #274, #509 ) ) ;
#518 = CARTESIAN_POINT ( 'NONE',  ( -6.000000000000000888, -2.500000000000000000, -14.00000000000000000 ) ) ;
#519 = ORIENTED_EDGE ( 'NONE', *, *, #595, .F. ) ;
#520 = CARTESIAN_POINT ( 'NONE',  ( 5.999999999999999112, 27.50000000000000000, 44.00000000000000000 ) ) ;
#521 = FILL_AREA_STYLE_COLOUR ( '', #224 ) ;
#522 = VERTEX_POINT ( 'NONE', #372 ) ;
#523 = DIRECTION ( 'NONE',  ( 0.000000000000000000, 0.7071067811865486830, 0.7071067811865464625 ) ) ;
#524 = VECTOR ( 'NONE', #243, 1000.000000000000000 ) ;
#525 = DIRECTION ( 'NONE',  ( 0.000000000000000000, 0.000000000000000000, -1.000000000000000000 ) ) ;
#526 = VERTEX_POINT ( 'NONE', #19 ) ;
#527 = ADVANCED_FACE ( 'NONE', ( #220 ), #264, .F. ) ;
#528 = CARTESIAN_POINT ( 'NONE',  ( -6.000000000000000888, 2.500000000000000000, -14.00000000000000000 ) ) ;
#529 = ORIENTED_EDGE ( 'NONE', *, *, #110, .T. ) ;
#530 = CARTESIAN_POINT ( 'NONE',  ( -4.500000000000001776, 27.50000000000000000, 32.99999999999998579 ) ) ;
#531 = ADVANCED_FACE ( 'NONE', ( #323 ), #464, .T. ) ;
#532 = DIRECTION ( 'NONE',  ( 0.000000000000000000, 1.000000000000000000, -0.000000000000000000 ) ) ;
#533 = CIRCLE ( 'NONE', #179, 1.550000000000000933 ) ;
#534 = PLANE ( 'NONE',  #43 ) ;
#535 = VECTOR ( 'NONE', #112, 1000.000000000000000 ) ;
#536 = DIRECTION ( 'NONE',  ( 0.000000000000000000, 0.000000000000000000, 1.000000000000000000 ) ) ;
#537 = EDGE_LOOP ( 'NONE', ( #330, #584, #153, #262 ) ) ;
#538 = PRODUCT_DEFINITION_SHAPE ( 'NONE', 'NONE',  #14 ) ;
#539 = LINE ( 'NONE', #197, #342 ) ;
#540 = LINE ( 'NONE', #393, #524 ) ;
#541 = EDGE_CURVE ( 'NONE', #126, #39, #61, .T. ) ;
#542 = ORIENTED_EDGE ( 'NONE', *, *, #297, .F. ) ;
#543 = DIRECTION ( 'NONE',  ( 1.000000000000000000, -0.000000000000000000, 0.000000000000000000 ) ) ;
#544 = FACE_OUTER_BOUND ( 'NONE', #381, .T. ) ;
#545 = ORIENTED_EDGE ( 'NONE', *, *, #648, .T. ) ;
#546 = DIRECTION ( 'NONE',  ( 0.000000000000000000, -0.000000000000000000, -1.000000000000000000 ) ) ;
#547 = CLOSED_SHELL ( 'NONE', ( #162, #24, #396, #143, #626, #384, #631, #117, #69, #89, #507, #97, #283, #401, #531, #237, #380, #527, #214 ) ) ;
#548 = FACE_BOUND ( 'NONE', #134, .T. ) ;
#549 = VECTOR ( 'NONE', #470, 1000.000000000000000 ) ;
#550 = VECTOR ( 'NONE', #148, 1000.000000000000000 ) ;
#551 = CARTESIAN_POINT ( 'NONE',  ( 0.000000000000000000, 2.500000000000000000, -10.95000000000000107 ) ) ;
#552 = LINE ( 'NONE', #602, #2 ) ;
#553 = PLANE ( 'NONE',  #163 ) ;
#554 = ORIENTED_EDGE ( 'NONE', *, *, #260, .F. ) ;
#555 = DIRECTION ( 'NONE',  ( -0.000000000000000000, -1.000000000000000000, -0.000000000000000000 ) ) ;
#556 = VERTEX_POINT ( 'NONE', #518 ) ;
#557 = FACE_OUTER_BOUND ( 'NONE', #32, .T. ) ;
#558 = VECTOR ( 'NONE', #457, 1000.000000000000000 ) ;
#559 = CIRCLE ( 'NONE', #98, 1.650000000000005684 ) ;
#560 = ORIENTED_EDGE ( 'NONE', *, *, #156, .T. ) ;
#561 = AXIS2_PLACEMENT_3D ( 'NONE', #412, #194, #400 ) ;
#562 = DIRECTION ( 'NONE',  ( 0.000000000000000000, 1.000000000000000000, -0.000000000000000000 ) ) ;
#563 = EDGE_LOOP ( 'NONE', ( #23, #566 ) ) ;
#564 = EDGE_CURVE ( 'NONE', #575, #48, #210, .T. ) ;
#565 = CARTESIAN_POINT ( 'NONE',  ( 20.50000000000000000, 14.39338664083523689, 35.69999999999998863 ) ) ;
#566 = ORIENTED_EDGE ( 'NONE', *, *, #218, .F. ) ;
#567 = EDGE_CURVE ( 'NONE', #402, #624, #269, .T. ) ;
#568 = LINE ( 'NONE', #370, #281 ) ;
#569 = CARTESIAN_POINT ( 'NONE',  ( -4.500000000000001776, 17.49999999999997868, 22.99999999999999645 ) ) ;
#570 = VECTOR ( 'NONE', #486, 1000.000000000000000 ) ;
#571 = ORIENTED_EDGE ( 'NONE', *, *, #60, .T. ) ;
#572 = AXIS2_PLACEMENT_3D ( 'NONE', #99, #555, #500 ) ;
#573 = DIRECTION ( 'NONE',  ( 1.000000000000000000, 0.000000000000000000, 0.000000000000000000 ) ) ;
#574 = DIRECTION ( 'NONE',  ( -0.000000000000000000, -1.000000000000000000, -0.000000000000000000 ) ) ;
#575 = VERTEX_POINT ( 'NONE', #172 ) ;
#576 = CARTESIAN_POINT ( 'NONE',  ( 5.999999999999999112, 27.50000000000000000, 44.00000000000000000 ) ) ;
#577 = CARTESIAN_POINT ( 'NONE',  ( 0.000000000000000000, 2.500000000000000000, 7.849999999999999645 ) ) ;
#578 = EDGE_CURVE ( 'NONE', #180, #643, #378, .T. ) ;
#579 = VERTEX_POINT ( 'NONE', #367 ) ;
#580 = LINE ( 'NONE', #127, #258 ) ;
#581 = DIRECTION ( 'NONE',  ( -0.000000000000000000, 0.7071067811865463515, -0.7071067811865486830 ) ) ;
#582 = AXIS2_PLACEMENT_3D ( 'NONE', #438, #239, #536 ) ;
#583 = AXIS2_PLACEMENT_3D ( 'NONE', #504, #349, #359 ) ;
#584 = ORIENTED_EDGE ( 'NONE', *, *, #623, .T. ) ;
#585 = CARTESIAN_POINT ( 'NONE',  ( 1.898202538678396719E-16, -2.500000000000000000, -7.849999999999999645 ) ) ;
#586 = VERTEX_POINT ( 'NONE', #10 ) ;
#587 = DIRECTION ( 'NONE',  ( -1.000000000000000000, 0.000000000000000000, 0.000000000000000000 ) ) ;
#588 = DIRECTION ( 'NONE',  ( 0.000000000000000000, 0.000000000000000000, 1.000000000000000000 ) ) ;
#589 = ORIENTED_EDGE ( 'NONE', *, *, #567, .T. ) ;
#590 = AXIS2_PLACEMENT_3D ( 'NONE', #196, #8, #53 ) ;
#591 = LINE ( 'NONE', #437, #190 ) ;
#592 = CARTESIAN_POINT ( 'NONE',  ( 5.999999999999999112, -2.500000000000000000, 33.99999999999996447 ) ) ;
#593 = CARTESIAN_POINT ( 'NONE',  ( -4.500000000000001776, 27.50000000000000000, 44.00000000000000000 ) ) ;
#594 = PRODUCT_CONTEXT ( 'NONE', #215, 'mechanical' ) ;
#595 = EDGE_CURVE ( 'NONE', #66, #579, #414, .T. ) ;
#596 = DIRECTION ( 'NONE',  ( -0.000000000000000000, 0.7071067811865465735, 0.7071067811865484609 ) ) ;
#597 = CARTESIAN_POINT ( 'NONE',  ( 5.999999999999999112, -2.500000000000000000, -14.00000000000000000 ) ) ;
#598 = CARTESIAN_POINT ( 'NONE',  ( 20.50000000000000000, 14.39338664083523689, 37.34999999999999432 ) ) ;
#599 = CARTESIAN_POINT ( 'NONE',  ( -6.000000000000000888, -2.500000000000000000, 14.00000000000000000 ) ) ;
#600 = AXIS2_PLACEMENT_3D ( 'NONE', #479, #183, #442 ) ;
#601 = CARTESIAN_POINT ( 'NONE',  ( 0.000000000000000000, 0.000000000000000000, 44.00000000000000000 ) ) ;
#602 = CARTESIAN_POINT ( 'NONE',  ( 20.50000000000000000, 14.39338664083523689, 39.00000000000000000 ) ) ;
#603 = CARTESIAN_POINT ( 'NONE',  ( 5.999999999999999112, 2.500000000000000000, 14.00000000000000000 ) ) ;
#604 = ORIENTED_EDGE ( 'NONE', *, *, #232, .F. ) ;
#605 = FACE_OUTER_BOUND ( 'NONE', #452, .T. ) ;
#606 = FACE_BOUND ( 'NONE', #432, .T. ) ;
#607 = DIRECTION ( 'NONE',  ( 0.000000000000000000, 0.000000000000000000, 1.000000000000000000 ) ) ;
#608 = VERTEX_POINT ( 'NONE', #175 ) ;
#609 = CARTESIAN_POINT ( 'NONE',  ( 0.000000000000000000, 2.500000000000000000, -10.95000000000000107 ) ) ;
#610 = AXIS2_PLACEMENT_3D ( 'NONE', #198, #50, #404 ) ;
#611 = ORIENTED_EDGE ( 'NONE', *, *, #60, .F. ) ;
#612 = EDGE_CURVE ( 'NONE', #39, #185, #382, .T. ) ;
#613 = VERTEX_POINT ( 'NONE', #227 ) ;
#614 = DIRECTION ( 'NONE',  ( 0.000000000000000000, 0.000000000000000000, 1.000000000000000000 ) ) ;
#615 = DIRECTION ( 'NONE',  ( -0.000000000000000000, -1.000000000000000000, -0.000000000000000000 ) ) ;
#616 = LINE ( 'NONE', #577, #375 ) ;
#617 = AXIS2_PLACEMENT_3D ( 'NONE', #79, #288, #35 ) ;
#618 = ORIENTED_EDGE ( 'NONE', *, *, #612, .F. ) ;
#619 = DIRECTION ( 'NONE',  ( 0.000000000000000000, 0.000000000000000000, -1.000000000000000000 ) ) ;
#620 = LINE ( 'NONE', #320, #333 ) ;
#621 = VERTEX_POINT ( 'NONE', #430 ) ;
#622 = CARTESIAN_POINT ( 'NONE',  ( 5.999999999999999112, 27.50000000000000000, 32.99999999999998579 ) ) ;
#623 = EDGE_CURVE ( 'NONE', #506, #59, #580, .T. ) ;
#624 = VERTEX_POINT ( 'NONE', #279 ) ;
#625 = CARTESIAN_POINT ( 'NONE',  ( 0.000000000000000000, 27.50000000000000000, 32.99999999999998579 ) ) ;
#626 = ADVANCED_FACE ( 'NONE', ( #473, #548, #448 ), #553, .F. ) ;
#627 = ORIENTED_EDGE ( 'NONE', *, *, #11, .F. ) ;
#628 = AXIS2_PLACEMENT_3D ( 'NONE', #201, #291, #489 ) ;
#629 = AXIS2_PLACEMENT_3D ( 'NONE', #21, #562, #619 ) ;
#630 = ORIENTED_EDGE ( 'NONE', *, *, #623, .F. ) ;
#631 = ADVANCED_FACE ( 'NONE', ( #606, #155, #52 ), #200, .F. ) ;
#632 = DIRECTION ( 'NONE',  ( 0.000000000000000000, 0.7071067811865484609, -0.7071067811865465735 ) ) ;
#633 = CARTESIAN_POINT ( 'NONE',  ( -6.000000000000000888, 2.500000000000000000, -14.00000000000000000 ) ) ;
#634 = ORIENTED_EDGE ( 'NONE', *, *, #595, .T. ) ;
#635 = DIRECTION ( 'NONE',  ( 0.000000000000000000, -0.7071067811865486830, -0.7071067811865464625 ) ) ;
#636 = CARTESIAN_POINT ( 'NONE',  ( 5.999999999999999112, 17.49999999999997868, 22.99999999999999645 ) ) ;
#637 = MECHANICAL_DESIGN_GEOMETRIC_PRESENTATION_REPRESENTATION (  '', ( #385 ), #160 ) ;
#638 = DIRECTION ( 'NONE',  ( -1.000000000000000000, -0.000000000000000000, -0.000000000000000000 ) ) ;
#639 = EDGE_CURVE ( 'NONE', #526, #315, #3, .T. ) ;
#640 = VECTOR ( 'NONE', #114, 1000.000000000000000 ) ;
#641 = APPLICATION_PROTOCOL_DEFINITION ( 'draft international standard', 'automotive_design', 1998, #215 ) ;
#642 = FACE_OUTER_BOUND ( 'NONE', #537, .T. ) ;
#643 = VERTEX_POINT ( 'NONE', #358 ) ;
#644 = CARTESIAN_POINT ( 'NONE',  ( 5.999999999999999112, 7.500000000000001776, 44.00000000000000000 ) ) ;
#645 = EDGE_LOOP ( 'NONE', ( #18, #107, #339, #240 ) ) ;
#646 = PLANE ( 'NONE',  #192 ) ;
#647 = CYLINDRICAL_SURFACE ( 'NONE', #64, 1.550000000000000933 ) ;
#648 = EDGE_CURVE ( 'NONE', #624, #402, #341, .T. ) ;
ENDSEC;
END-ISO-10303-21;
