ISO-10303-21;
HEADER;
FILE_DESCRIPTION (( 'STEP AP214' ),
    '1' );
FILE_NAME ('mor_.STEP',
    '2026-05-04T04:06:09',
    ( '' ),
    ( '' ),
    'SwSTEP 2.0',
    'SolidWorks 2025',
    '' );
FILE_SCHEMA (( 'AUTOMOTIVE_DESIGN' ));
ENDSEC;

DATA;
#1 = ORIENTED_EDGE ( 'NONE', *, *, #77, .T. ) ;
#2 = LINE ( 'NONE', #138, #69 ) ;
#3 = VECTOR ( 'NONE', #110, 1000.000000000000000 ) ;
#4 = DIRECTION ( 'NONE',  ( 0.000000000000000000, -1.000000000000000000, 0.000000000000000000 ) ) ;
#5 = ORIENTED_EDGE ( 'NONE', *, *, #33, .F. ) ;
#6 = LINE ( 'NONE', #162, #79 ) ;
#7 = CARTESIAN_POINT ( 'NONE',  ( 0.000000000000000000, 5.000000000000000000, 0.000000000000000000 ) ) ;
#8 = DIRECTION ( 'NONE',  ( 0.000000000000000000, 0.000000000000000000, -1.000000000000000000 ) ) ;
#9 = CARTESIAN_POINT ( 'NONE',  ( 5.000000000000000888, 5.000000000000000000, 2.174999999999999822 ) ) ;
#10 = CARTESIAN_POINT ( 'NONE',  ( 5.000000000000000888, 5.000000000000000000, 0.000000000000000000 ) ) ;
#11 = ADVANCED_FACE ( 'NONE', ( #27, #114, #243 ), #93, .F. ) ;
#12 = VECTOR ( 'NONE', #158, 1000.000000000000000 ) ;
#13 = CARTESIAN_POINT ( 'NONE',  ( -5.000000000000000888, 0.000000000000000000, 0.000000000000000000 ) ) ;
#14 = CARTESIAN_POINT ( 'NONE',  ( -17.50000000000000000, 0.000000000000000000, -4.650000000000001243 ) ) ;
#15 = FACE_OUTER_BOUND ( 'NONE', #76, .T. ) ;
#16 = EDGE_LOOP ( 'NONE', ( #303, #78 ) ) ;
#17 = LINE ( 'NONE', #325, #105 ) ;
#18 = VERTEX_POINT ( 'NONE', #192 ) ;
#19 = FACE_BOUND ( 'NONE', #103, .T. ) ;
#20 = VERTEX_POINT ( 'NONE', #111 ) ;
#21 = ORIENTED_EDGE ( 'NONE', *, *, #133, .T. ) ;
#22 =( GEOMETRIC_REPRESENTATION_CONTEXT ( 3 ) GLOBAL_UNCERTAINTY_ASSIGNED_CONTEXT ( ( #264 ) ) GLOBAL_UNIT_ASSIGNED_CONTEXT ( ( #88, #34, #299 ) ) REPRESENTATION_CONTEXT ( 'NONE', 'WORKASPACE' ) );
#23 = ORIENTED_EDGE ( 'NONE', *, *, #247, .T. ) ;
#24 = AXIS2_PLACEMENT_3D ( 'NONE', #217, #31, #94 ) ;
#25 = VECTOR ( 'NONE', #143, 1000.000000000000000 ) ;
#26 = DIRECTION ( 'NONE',  ( 0.000000000000000000, 0.000000000000000000, -1.000000000000000000 ) ) ;
#27 = FACE_OUTER_BOUND ( 'NONE', #159, .T. ) ;
#28 = EDGE_LOOP ( 'NONE', ( #152, #256, #282, #127 ) ) ;
#29 = DIRECTION ( 'NONE',  ( 0.000000000000000000, 0.000000000000000000, 1.000000000000000000 ) ) ;
#30 = LINE ( 'NONE', #194, #52 ) ;
#31 = DIRECTION ( 'NONE',  ( 0.000000000000000000, 0.000000000000000000, -1.000000000000000000 ) ) ;
#32 = DIRECTION ( 'NONE',  ( 0.000000000000000000, 0.000000000000000000, -1.000000000000000000 ) ) ;
#33 = EDGE_CURVE ( 'NONE', #254, #284, #132, .T. ) ;
#34 =( NAMED_UNIT ( * ) PLANE_ANGLE_UNIT ( ) SI_UNIT ( $, .RADIAN. ) );
#35 = AXIS2_PLACEMENT_3D ( 'NONE', #241, #214, #320 ) ;
#36 = SURFACE_STYLE_FILL_AREA ( #272 ) ;
#37 = EDGE_CURVE ( 'NONE', #42, #90, #197, .T. ) ;
#38 = DIRECTION ( 'NONE',  ( -1.000000000000000000, -0.000000000000000000, -0.000000000000000000 ) ) ;
#39 = AXIS2_PLACEMENT_3D ( 'NONE', #102, #277, #43 ) ;
#40 = AXIS2_PLACEMENT_3D ( 'NONE', #13, #246, #224 ) ;
#41 =( NAMED_UNIT ( * ) PLANE_ANGLE_UNIT ( ) SI_UNIT ( $, .RADIAN. ) );
#42 = VERTEX_POINT ( 'NONE', #269 ) ;
#43 = DIRECTION ( 'NONE',  ( 0.000000000000000000, 0.000000000000000000, -1.000000000000000000 ) ) ;
#44 = VERTEX_POINT ( 'NONE', #53 ) ;
#45 = ORIENTED_EDGE ( 'NONE', *, *, #245, .F. ) ;
#46 = ORIENTED_EDGE ( 'NONE', *, *, #168, .F. ) ;
#47 = EDGE_CURVE ( 'NONE', #244, #20, #81, .T. ) ;
#48 = ORIENTED_EDGE ( 'NONE', *, *, #47, .T. ) ;
#49 = AXIS2_PLACEMENT_3D ( 'NONE', #281, #232, #174 ) ;
#50 = AXIS2_PLACEMENT_3D ( 'NONE', #316, #29, #222 ) ;
#51 = EDGE_CURVE ( 'NONE', #208, #18, #291, .T. ) ;
#52 = VECTOR ( 'NONE', #32, 1000.000000000000000 ) ;
#53 = CARTESIAN_POINT ( 'NONE',  ( 17.50000000000000000, 0.000000000000000000, 4.649999999999999467 ) ) ;
#54 = CYLINDRICAL_SURFACE ( 'NONE', #156, 2.174999999999999822 ) ;
#55 = CARTESIAN_POINT ( 'NONE',  ( 17.50000000000000000, 5.000000000000000000, 4.649999999999999467 ) ) ;
#56 = ORIENTED_EDGE ( 'NONE', *, *, #77, .F. ) ;
#57 = DIRECTION ( 'NONE',  ( 0.000000000000000000, 0.000000000000000000, 1.000000000000000000 ) ) ;
#58 = EDGE_CURVE ( 'NONE', #90, #44, #298, .T. ) ;
#59 = CARTESIAN_POINT ( 'NONE',  ( -5.000000000000000888, 5.000000000000000000, 0.000000000000000000 ) ) ;
#60 = APPLICATION_PROTOCOL_DEFINITION ( 'draft international standard', 'automotive_design', 1998, #219 ) ;
#61 = CARTESIAN_POINT ( 'NONE',  ( 5.000000000000000888, 5.000000000000000000, 0.000000000000000000 ) ) ;
#62 = ORIENTED_EDGE ( 'NONE', *, *, #63, .F. ) ;
#63 = EDGE_CURVE ( 'NONE', #149, #180, #70, .T. ) ;
#64 = FILL_AREA_STYLE_COLOUR ( '', #308 ) ;
#65 = FACE_OUTER_BOUND ( 'NONE', #28, .T. ) ;
#66 = PLANE ( 'NONE',  #312 ) ;
#67 = PLANE ( 'NONE',  #171 ) ;
#68 = ADVANCED_FACE ( 'NONE', ( #139 ), #66, .F. ) ;
#69 = VECTOR ( 'NONE', #250, 1000.000000000000000 ) ;
#70 = CIRCLE ( 'NONE', #40, 2.174999999999999822 ) ;
#71 = FACE_OUTER_BOUND ( 'NONE', #122, .T. ) ;
#72 = ORIENTED_EDGE ( 'NONE', *, *, #223, .F. ) ;
#73 = CARTESIAN_POINT ( 'NONE',  ( 5.000000000000000888, 0.000000000000000000, 0.000000000000000000 ) ) ;
#74 = ORIENTED_EDGE ( 'NONE', *, *, #245, .T. ) ;
#75 = DIRECTION ( 'NONE',  ( 0.000000000000000000, -1.000000000000000000, 0.000000000000000000 ) ) ;
#76 = EDGE_LOOP ( 'NONE', ( #48, #259, #72, #331 ) ) ;
#77 = EDGE_CURVE ( 'NONE', #20, #244, #288, .T. ) ;
#78 = ORIENTED_EDGE ( 'NONE', *, *, #142, .T. ) ;
#79 = VECTOR ( 'NONE', #270, 1000.000000000000000 ) ;
#80 = VECTOR ( 'NONE', #112, 1000.000000000000000 ) ;
#81 = CIRCLE ( 'NONE', #118, 2.174999999999999822 ) ;
#82 = FACE_OUTER_BOUND ( 'NONE', #229, .T. ) ;
#83 = CARTESIAN_POINT ( 'NONE',  ( 5.000000000000000888, 5.000000000000000000, -2.174999999999999822 ) ) ;
#84 = ORIENTED_EDGE ( 'NONE', *, *, #51, .T. ) ;
#85 = FACE_OUTER_BOUND ( 'NONE', #179, .T. ) ;
#86 = CARTESIAN_POINT ( 'NONE',  ( -17.50000000000000000, 0.000000000000000000, 4.649999999999999467 ) ) ;
#87 = ORIENTED_EDGE ( 'NONE', *, *, #335, .F. ) ;
#88 =( LENGTH_UNIT ( ) NAMED_UNIT ( * ) SI_UNIT ( .MILLI., .METRE. ) );
#89 = EDGE_CURVE ( 'NONE', #254, #329, #221, .T. ) ;
#90 = VERTEX_POINT ( 'NONE', #86 ) ;
#91 = PRODUCT_CONTEXT ( 'NONE', #219, 'mechanical' ) ;
#92 = DIRECTION ( 'NONE',  ( 0.000000000000000000, 0.000000000000000000, -1.000000000000000000 ) ) ;
#93 = PLANE ( 'NONE',  #276 ) ;
#94 = DIRECTION ( 'NONE',  ( -1.000000000000000000, 0.000000000000000000, -0.000000000000000000 ) ) ;
#95 = CARTESIAN_POINT ( 'NONE',  ( -17.50000000000000000, 5.000000000000000000, -4.650000000000001243 ) ) ;
#96 = ORIENTED_EDGE ( 'NONE', *, *, #51, .F. ) ;
#97 =( LENGTH_UNIT ( ) NAMED_UNIT ( * ) SI_UNIT ( .MILLI., .METRE. ) );
#98 = EDGE_LOOP ( 'NONE', ( #147, #279, #46, #205 ) ) ;
#99 = CARTESIAN_POINT ( 'NONE',  ( -5.000000000000000888, 0.000000000000000000, 2.174999999999999822 ) ) ;
#100 = ORIENTED_EDGE ( 'NONE', *, *, #182, .F. ) ;
#101 = EDGE_CURVE ( 'NONE', #267, #208, #30, .T. ) ;
#102 = CARTESIAN_POINT ( 'NONE',  ( -5.000000000000000888, 5.000000000000000000, 0.000000000000000000 ) ) ;
#103 = EDGE_LOOP ( 'NONE', ( #260, #278 ) ) ;
#104 = EDGE_CURVE ( 'NONE', #284, #151, #140, .T. ) ;
#105 = VECTOR ( 'NONE', #176, 1000.000000000000000 ) ;
#106 = ORIENTED_EDGE ( 'NONE', *, *, #58, .T. ) ;
#107 = PLANE ( 'NONE',  #50 ) ;
#108 = STYLED_ITEM ( 'NONE', ( #323 ), #113 ) ;
#109 = DIRECTION ( 'NONE',  ( 1.000000000000000000, 0.000000000000000000, 0.000000000000000000 ) ) ;
#110 = DIRECTION ( 'NONE',  ( -0.000000000000000000, -1.000000000000000000, -0.000000000000000000 ) ) ;
#111 = CARTESIAN_POINT ( 'NONE',  ( -5.000000000000000888, 5.000000000000000000, 2.174999999999999822 ) ) ;
#112 = DIRECTION ( 'NONE',  ( -0.000000000000000000, -1.000000000000000000, -0.000000000000000000 ) ) ;
#113 = MANIFOLD_SOLID_BREP ( '\X2\51f853f0\X0\-\X2\62c94f38\X0\1', #215 ) ;
#114 = FACE_BOUND ( 'NONE', #333, .T. ) ;
#115 = APPLICATION_PROTOCOL_DEFINITION ( 'draft international standard', 'automotive_design', 1998, #195 ) ;
#116 = PRODUCT_DEFINITION_SHAPE ( 'NONE', 'NONE',  #212 ) ;
#117 = DIRECTION ( 'NONE',  ( 0.000000000000000000, 0.000000000000000000, -1.000000000000000000 ) ) ;
#118 = AXIS2_PLACEMENT_3D ( 'NONE', #294, #189, #226 ) ;
#119 = SURFACE_SIDE_STYLE ('',( #36 ) ) ;
#120 = CARTESIAN_POINT ( 'NONE',  ( 17.50000000000000000, 5.000000000000000000, -4.650000000000001243 ) ) ;
#121 = CYLINDRICAL_SURFACE ( 'NONE', #49, 2.174999999999999822 ) ;
#122 = EDGE_LOOP ( 'NONE', ( #184, #1, #21, #62 ) ) ;
#123 = FACE_BOUND ( 'NONE', #16, .T. ) ;
#124 = ORIENTED_EDGE ( 'NONE', *, *, #335, .T. ) ;
#125 = LINE ( 'NONE', #330, #334 ) ;
#126 = ADVANCED_FACE ( 'NONE', ( #15 ), #121, .F. ) ;
#127 = ORIENTED_EDGE ( 'NONE', *, *, #142, .F. ) ;
#128 = CARTESIAN_POINT ( 'NONE',  ( 5.000000000000000888, 5.000000000000000000, 0.000000000000000000 ) ) ;
#129 = EDGE_LOOP ( 'NONE', ( #164, #235, #309, #177 ) ) ;
#130 = PRODUCT_DEFINITION_FORMATION_WITH_SPECIFIED_SOURCE ( 'ไป', '', #206, .NOT_KNOWN. ) ;
#131 = VECTOR ( 'NONE', #141, 1000.000000000000000 ) ;
#132 = CIRCLE ( 'NONE', #238, 2.174999999999999822 ) ;
#133 = EDGE_CURVE ( 'NONE', #244, #180, #17, .T. ) ;
#134 = EDGE_CURVE ( 'NONE', #18, #263, #332, .T. ) ;
#135 = CARTESIAN_POINT ( 'NONE',  ( -5.000000000000000888, 0.000000000000000000, 0.000000000000000000 ) ) ;
#136 = AXIS2_PLACEMENT_3D ( 'NONE', #135, #324, #57 ) ;
#137 = DIRECTION ( 'NONE',  ( -1.000000000000000000, 0.000000000000000000, 0.000000000000000000 ) ) ;
#138 = CARTESIAN_POINT ( 'NONE',  ( -5.000000000000000888, 5.000000000000000000, 2.174999999999999822 ) ) ;
#139 = FACE_OUTER_BOUND ( 'NONE', #146, .T. ) ;
#140 = LINE ( 'NONE', #9, #173 ) ;
#141 = DIRECTION ( 'NONE',  ( -0.000000000000000000, -0.000000000000000000, 1.000000000000000000 ) ) ;
#142 = EDGE_CURVE ( 'NONE', #151, #329, #144, .T. ) ;
#143 = DIRECTION ( 'NONE',  ( -0.000000000000000000, -1.000000000000000000, -0.000000000000000000 ) ) ;
#144 = CIRCLE ( 'NONE', #154, 2.174999999999999822 ) ;
#145 = PLANE ( 'NONE',  #24 ) ;
#146 = EDGE_LOOP ( 'NONE', ( #271, #187, #231, #23 ) ) ;
#147 = ORIENTED_EDGE ( 'NONE', *, *, #188, .F. ) ;
#148 = CYLINDRICAL_SURFACE ( 'NONE', #39, 2.174999999999999822 ) ;
#149 = VERTEX_POINT ( 'NONE', #99 ) ;
#150 = DIRECTION ( 'NONE',  ( 0.000000000000000000, -0.000000000000000000, -1.000000000000000000 ) ) ;
#151 = VERTEX_POINT ( 'NONE', #202 ) ;
#152 = ORIENTED_EDGE ( 'NONE', *, *, #104, .F. ) ;
#153 = UNCERTAINTY_MEASURE_WITH_UNIT (LENGTH_MEASURE( 1.000000000000000082E-05 ), #97, 'distance_accuracy_value', 'NONE');
#154 = AXIS2_PLACEMENT_3D ( 'NONE', #73, #204, #304 ) ;
#155 = ADVANCED_FACE ( 'NONE', ( #71 ), #148, .F. ) ;
#156 = AXIS2_PLACEMENT_3D ( 'NONE', #61, #273, #318 ) ;
#157 = PRESENTATION_LAYER_ASSIGNMENT (  '', '', ( #108 ) ) ;
#158 = DIRECTION ( 'NONE',  ( -1.000000000000000000, -0.000000000000000000, -0.000000000000000000 ) ) ;
#159 = EDGE_LOOP ( 'NONE', ( #216, #84, #74, #124 ) ) ;
#160 = LINE ( 'NONE', #293, #131 ) ;
#161 = DIRECTION ( 'NONE',  ( 0.000000000000000000, 1.000000000000000000, -0.000000000000000000 ) ) ;
#162 = CARTESIAN_POINT ( 'NONE',  ( -17.50000000000000000, 5.000000000000000000, 4.649999999999999467 ) ) ;
#163 = DIRECTION ( 'NONE',  ( 0.000000000000000000, 0.000000000000000000, 1.000000000000000000 ) ) ;
#164 = ORIENTED_EDGE ( 'NONE', *, *, #33, .T. ) ;
#165 = LINE ( 'NONE', #200, #3 ) ;
#166 = CARTESIAN_POINT ( 'NONE',  ( -17.50000000000000000, 0.000000000000000000, 4.649999999999999467 ) ) ;
#167 = SHAPE_DEFINITION_REPRESENTATION ( #116, #228 ) ;
#168 = EDGE_CURVE ( 'NONE', #263, #90, #125, .T. ) ;
#169 = FACE_OUTER_BOUND ( 'NONE', #129, .T. ) ;
#170 = DIRECTION ( 'NONE',  ( 0.000000000000000000, -0.000000000000000000, -1.000000000000000000 ) ) ;
#171 = AXIS2_PLACEMENT_3D ( 'NONE', #265, #295, #8 ) ;
#172 = DIRECTION ( 'NONE',  ( 0.000000000000000000, 1.000000000000000000, -0.000000000000000000 ) ) ;
#173 = VECTOR ( 'NONE', #319, 1000.000000000000000 ) ;
#174 = DIRECTION ( 'NONE',  ( 0.000000000000000000, 0.000000000000000000, -1.000000000000000000 ) ) ;
#175 = ORIENTED_EDGE ( 'NONE', *, *, #37, .F. ) ;
#176 = DIRECTION ( 'NONE',  ( -0.000000000000000000, -1.000000000000000000, -0.000000000000000000 ) ) ;
#177 = ORIENTED_EDGE ( 'NONE', *, *, #89, .F. ) ;
#178 =( NAMED_UNIT ( * ) SI_UNIT ( $, .STERADIAN. ) SOLID_ANGLE_UNIT ( ) );
#179 = EDGE_LOOP ( 'NONE', ( #210, #175, #45, #326 ) ) ;
#180 = VERTEX_POINT ( 'NONE', #255 ) ;
#181 = ADVANCED_FACE ( 'NONE', ( #19, #257, #123 ), #207, .T. ) ;
#182 = EDGE_CURVE ( 'NONE', #284, #254, #285, .T. ) ;
#183 = AXIS2_PLACEMENT_3D ( 'NONE', #10, #239, #117 ) ;
#184 = ORIENTED_EDGE ( 'NONE', *, *, #236, .F. ) ;
#185 = AXIS2_PLACEMENT_3D ( 'NONE', #191, #300, #92 ) ;
#186 =( GEOMETRIC_REPRESENTATION_CONTEXT ( 3 ) GLOBAL_UNCERTAINTY_ASSIGNED_CONTEXT ( ( #153 ) ) GLOBAL_UNIT_ASSIGNED_CONTEXT ( ( #97, #41, #178 ) ) REPRESENTATION_CONTEXT ( 'NONE', 'WORKASPACE' ) );
#187 = ORIENTED_EDGE ( 'NONE', *, *, #280, .F. ) ;
#188 = EDGE_CURVE ( 'NONE', #44, #203, #275, .T. ) ;
#189 = DIRECTION ( 'NONE',  ( 0.000000000000000000, 1.000000000000000000, 0.000000000000000000 ) ) ;
#190 = ORIENTED_EDGE ( 'NONE', *, *, #247, .F. ) ;
#191 = CARTESIAN_POINT ( 'NONE',  ( 5.000000000000000888, 0.000000000000000000, 0.000000000000000000 ) ) ;
#192 = CARTESIAN_POINT ( 'NONE',  ( -17.50000000000000000, 5.000000000000000000, -4.650000000000001243 ) ) ;
#193 = CARTESIAN_POINT ( 'NONE',  ( -5.000000000000000888, 5.000000000000000000, -2.174999999999999822 ) ) ;
#194 = CARTESIAN_POINT ( 'NONE',  ( 17.50000000000000000, 5.000000000000000000, 4.649999999999999467 ) ) ;
#195 = APPLICATION_CONTEXT ( 'automotive_design' ) ;
#196 = ADVANCED_FACE ( 'NONE', ( #82 ), #145, .F. ) ;
#197 = LINE ( 'NONE', #296, #25 ) ;
#198 = LINE ( 'NONE', #14, #201 ) ;
#199 = DIRECTION ( 'NONE',  ( 0.000000000000000000, 0.000000000000000000, -1.000000000000000000 ) ) ;
#200 = CARTESIAN_POINT ( 'NONE',  ( 17.50000000000000000, 5.000000000000000000, 4.649999999999999467 ) ) ;
#201 = VECTOR ( 'NONE', #38, 1000.000000000000000 ) ;
#202 = CARTESIAN_POINT ( 'NONE',  ( 5.000000000000000888, 0.000000000000000000, 2.174999999999999822 ) ) ;
#203 = VERTEX_POINT ( 'NONE', #321 ) ;
#204 = DIRECTION ( 'NONE',  ( 0.000000000000000000, 1.000000000000000000, -0.000000000000000000 ) ) ;
#205 = ORIENTED_EDGE ( 'NONE', *, *, #258, .F. ) ;
#206 = PRODUCT ( 'mor_', 'mor_', '', ( #91 ) ) ;
#207 = PLANE ( 'NONE',  #237 ) ;
#208 = VERTEX_POINT ( 'NONE', #248 ) ;
#209 = EDGE_CURVE ( 'NONE', #329, #151, #311, .T. ) ;
#210 = ORIENTED_EDGE ( 'NONE', *, *, #168, .T. ) ;
#211 = VECTOR ( 'NONE', #314, 1000.000000000000000 ) ;
#212 = PRODUCT_DEFINITION ( 'ๆ', '', #130, #286 ) ;
#213 = VECTOR ( 'NONE', #26, 1000.000000000000000 ) ;
#214 = DIRECTION ( 'NONE',  ( 0.000000000000000000, 0.000000000000000000, 1.000000000000000000 ) ) ;
#215 = CLOSED_SHELL ( 'NONE', ( #322, #126, #11, #181, #68, #310, #283, #196, #155, #287 ) ) ;
#216 = ORIENTED_EDGE ( 'NONE', *, *, #101, .T. ) ;
#217 = CARTESIAN_POINT ( 'NONE',  ( -17.50000000000000000, 5.000000000000000000, 4.649999999999999467 ) ) ;
#218 = DIRECTION ( 'NONE',  ( 0.000000000000000000, 1.000000000000000000, 0.000000000000000000 ) ) ;
#219 = APPLICATION_CONTEXT ( 'automotive_design' ) ;
#220 = LINE ( 'NONE', #120, #80 ) ;
#221 = LINE ( 'NONE', #83, #211 ) ;
#222 = DIRECTION ( 'NONE',  ( 1.000000000000000000, 0.000000000000000000, -0.000000000000000000 ) ) ;
#223 = EDGE_CURVE ( 'NONE', #180, #149, #301, .T. ) ;
#224 = DIRECTION ( 'NONE',  ( 0.000000000000000000, 0.000000000000000000, 1.000000000000000000 ) ) ;
#225 = CARTESIAN_POINT ( 'NONE',  ( 5.000000000000000888, 0.000000000000000000, -2.174999999999999822 ) ) ;
#226 = DIRECTION ( 'NONE',  ( 0.000000000000000000, 0.000000000000000000, 1.000000000000000000 ) ) ;
#227 = CYLINDRICAL_SURFACE ( 'NONE', #183, 2.174999999999999822 ) ;
#228 = ADVANCED_BREP_SHAPE_REPRESENTATION ( 'mor_', ( #113, #35 ), #22 ) ;
#229 = EDGE_LOOP ( 'NONE', ( #106, #190, #87, #315 ) ) ;
#230 = DIRECTION ( 'NONE',  ( 0.000000000000000000, 0.000000000000000000, -1.000000000000000000 ) ) ;
#231 = ORIENTED_EDGE ( 'NONE', *, *, #101, .F. ) ;
#232 = DIRECTION ( 'NONE',  ( -0.000000000000000000, -1.000000000000000000, -0.000000000000000000 ) ) ;
#233 = EDGE_LOOP ( 'NONE', ( #292, #252, #96, #305 ) ) ;
#234 = DIRECTION ( 'NONE',  ( -0.000000000000000000, -1.000000000000000000, -0.000000000000000000 ) ) ;
#235 = ORIENTED_EDGE ( 'NONE', *, *, #104, .T. ) ;
#236 = EDGE_CURVE ( 'NONE', #20, #149, #2, .T. ) ;
#237 = AXIS2_PLACEMENT_3D ( 'NONE', #306, #75, #150 ) ;
#238 = AXIS2_PLACEMENT_3D ( 'NONE', #289, #161, #199 ) ;
#239 = DIRECTION ( 'NONE',  ( -0.000000000000000000, -1.000000000000000000, -0.000000000000000000 ) ) ;
#240 = DIRECTION ( 'NONE',  ( 0.000000000000000000, 0.000000000000000000, 1.000000000000000000 ) ) ;
#241 = CARTESIAN_POINT ( 'NONE',  ( 0.000000000000000000, 0.000000000000000000, 0.000000000000000000 ) ) ;
#242 = CARTESIAN_POINT ( 'NONE',  ( 5.000000000000000888, 5.000000000000000000, -2.174999999999999822 ) ) ;
#243 = FACE_BOUND ( 'NONE', #307, .T. ) ;
#244 = VERTEX_POINT ( 'NONE', #193 ) ;
#245 = EDGE_CURVE ( 'NONE', #18, #42, #160, .T. ) ;
#246 = DIRECTION ( 'NONE',  ( 0.000000000000000000, 1.000000000000000000, 0.000000000000000000 ) ) ;
#247 = EDGE_CURVE ( 'NONE', #267, #44, #165, .T. ) ;
#248 = CARTESIAN_POINT ( 'NONE',  ( 17.50000000000000000, 5.000000000000000000, -4.650000000000001243 ) ) ;
#249 = SURFACE_STYLE_USAGE ( .BOTH. , #119 ) ;
#250 = DIRECTION ( 'NONE',  ( -0.000000000000000000, -1.000000000000000000, -0.000000000000000000 ) ) ;
#251 = MECHANICAL_DESIGN_GEOMETRIC_PRESENTATION_REPRESENTATION (  '', ( #108 ), #186 ) ;
#252 = ORIENTED_EDGE ( 'NONE', *, *, #134, .F. ) ;
#253 = DIRECTION ( 'NONE',  ( -0.000000000000000000, -0.000000000000000000, 1.000000000000000000 ) ) ;
#254 = VERTEX_POINT ( 'NONE', #242 ) ;
#255 = CARTESIAN_POINT ( 'NONE',  ( -5.000000000000000888, 0.000000000000000000, -2.174999999999999822 ) ) ;
#256 = ORIENTED_EDGE ( 'NONE', *, *, #182, .T. ) ;
#257 = FACE_OUTER_BOUND ( 'NONE', #98, .T. ) ;
#258 = EDGE_CURVE ( 'NONE', #203, #263, #198, .T. ) ;
#259 = ORIENTED_EDGE ( 'NONE', *, *, #236, .T. ) ;
#260 = ORIENTED_EDGE ( 'NONE', *, *, #223, .T. ) ;
#261 = AXIS2_PLACEMENT_3D ( 'NONE', #128, #172, #230 ) ;
#262 = AXIS2_PLACEMENT_3D ( 'NONE', #59, #218, #163 ) ;
#263 = VERTEX_POINT ( 'NONE', #313 ) ;
#264 = UNCERTAINTY_MEASURE_WITH_UNIT (LENGTH_MEASURE( 1.000000000000000082E-05 ), #88, 'distance_accuracy_value', 'NONE');
#265 = CARTESIAN_POINT ( 'NONE',  ( -17.50000000000000000, 5.000000000000000000, 4.649999999999999467 ) ) ;
#266 = CARTESIAN_POINT ( 'NONE',  ( -17.50000000000000000, 5.000000000000000000, -4.650000000000001243 ) ) ;
#267 = VERTEX_POINT ( 'NONE', #297 ) ;
#268 = CARTESIAN_POINT ( 'NONE',  ( 5.000000000000000888, 5.000000000000000000, 2.174999999999999822 ) ) ;
#269 = CARTESIAN_POINT ( 'NONE',  ( -17.50000000000000000, 5.000000000000000000, 4.649999999999999467 ) ) ;
#270 = DIRECTION ( 'NONE',  ( 1.000000000000000000, 0.000000000000000000, 0.000000000000000000 ) ) ;
#271 = ORIENTED_EDGE ( 'NONE', *, *, #188, .T. ) ;
#272 = FILL_AREA_STYLE ('',( #64 ) ) ;
#273 = DIRECTION ( 'NONE',  ( -0.000000000000000000, -1.000000000000000000, -0.000000000000000000 ) ) ;
#274 = PRODUCT_RELATED_PRODUCT_CATEGORY ( 'part', '', ( #206 ) ) ;
#275 = LINE ( 'NONE', #328, #213 ) ;
#276 = AXIS2_PLACEMENT_3D ( 'NONE', #7, #4, #170 ) ;
#277 = DIRECTION ( 'NONE',  ( -0.000000000000000000, -1.000000000000000000, -0.000000000000000000 ) ) ;
#278 = ORIENTED_EDGE ( 'NONE', *, *, #63, .T. ) ;
#279 = ORIENTED_EDGE ( 'NONE', *, *, #58, .F. ) ;
#280 = EDGE_CURVE ( 'NONE', #208, #203, #220, .T. ) ;
#281 = CARTESIAN_POINT ( 'NONE',  ( -5.000000000000000888, 5.000000000000000000, 0.000000000000000000 ) ) ;
#282 = ORIENTED_EDGE ( 'NONE', *, *, #89, .T. ) ;
#283 = ADVANCED_FACE ( 'NONE', ( #85 ), #67, .F. ) ;
#284 = VERTEX_POINT ( 'NONE', #268 ) ;
#285 = CIRCLE ( 'NONE', #261, 2.174999999999999822 ) ;
#286 = PRODUCT_DEFINITION_CONTEXT ( 'detailed design', #195, 'design' ) ;
#287 = ADVANCED_FACE ( 'NONE', ( #65 ), #227, .F. ) ;
#288 = CIRCLE ( 'NONE', #262, 2.174999999999999822 ) ;
#289 = CARTESIAN_POINT ( 'NONE',  ( 5.000000000000000888, 5.000000000000000000, 0.000000000000000000 ) ) ;
#290 = FACE_OUTER_BOUND ( 'NONE', #233, .T. ) ;
#291 = LINE ( 'NONE', #266, #12 ) ;
#292 = ORIENTED_EDGE ( 'NONE', *, *, #258, .T. ) ;
#293 = CARTESIAN_POINT ( 'NONE',  ( -17.50000000000000000, 5.000000000000000000, 4.649999999999999467 ) ) ;
#294 = CARTESIAN_POINT ( 'NONE',  ( -5.000000000000000888, 5.000000000000000000, 0.000000000000000000 ) ) ;
#295 = DIRECTION ( 'NONE',  ( 1.000000000000000000, -0.000000000000000000, 0.000000000000000000 ) ) ;
#296 = CARTESIAN_POINT ( 'NONE',  ( -17.50000000000000000, 5.000000000000000000, 4.649999999999999467 ) ) ;
#297 = CARTESIAN_POINT ( 'NONE',  ( 17.50000000000000000, 5.000000000000000000, 4.649999999999999467 ) ) ;
#298 = LINE ( 'NONE', #166, #302 ) ;
#299 =( NAMED_UNIT ( * ) SI_UNIT ( $, .STERADIAN. ) SOLID_ANGLE_UNIT ( ) );
#300 = DIRECTION ( 'NONE',  ( 0.000000000000000000, 1.000000000000000000, -0.000000000000000000 ) ) ;
#301 = CIRCLE ( 'NONE', #136, 2.174999999999999822 ) ;
#302 = VECTOR ( 'NONE', #109, 1000.000000000000000 ) ;
#303 = ORIENTED_EDGE ( 'NONE', *, *, #209, .T. ) ;
#304 = DIRECTION ( 'NONE',  ( 0.000000000000000000, 0.000000000000000000, -1.000000000000000000 ) ) ;
#305 = ORIENTED_EDGE ( 'NONE', *, *, #280, .T. ) ;
#306 = CARTESIAN_POINT ( 'NONE',  ( 0.000000000000000000, 0.000000000000000000, 0.000000000000000000 ) ) ;
#307 = EDGE_LOOP ( 'NONE', ( #5, #100 ) ) ;
#308 = COLOUR_RGB ( '',0.7921568627450980005, 0.8196078431372548767, 0.9333333333333333481 ) ;
#309 = ORIENTED_EDGE ( 'NONE', *, *, #209, .F. ) ;
#310 = ADVANCED_FACE ( 'NONE', ( #290 ), #107, .F. ) ;
#311 = CIRCLE ( 'NONE', #185, 2.174999999999999822 ) ;
#312 = AXIS2_PLACEMENT_3D ( 'NONE', #55, #137, #240 ) ;
#313 = CARTESIAN_POINT ( 'NONE',  ( -17.50000000000000000, 0.000000000000000000, -4.650000000000001243 ) ) ;
#314 = DIRECTION ( 'NONE',  ( -0.000000000000000000, -1.000000000000000000, -0.000000000000000000 ) ) ;
#315 = ORIENTED_EDGE ( 'NONE', *, *, #37, .T. ) ;
#316 = CARTESIAN_POINT ( 'NONE',  ( -17.50000000000000000, 5.000000000000000000, -4.650000000000001243 ) ) ;
#317 = ORIENTED_EDGE ( 'NONE', *, *, #47, .F. ) ;
#318 = DIRECTION ( 'NONE',  ( 0.000000000000000000, 0.000000000000000000, -1.000000000000000000 ) ) ;
#319 = DIRECTION ( 'NONE',  ( -0.000000000000000000, -1.000000000000000000, -0.000000000000000000 ) ) ;
#320 = DIRECTION ( 'NONE',  ( 1.000000000000000000, 0.000000000000000000, 0.000000000000000000 ) ) ;
#321 = CARTESIAN_POINT ( 'NONE',  ( 17.50000000000000000, 0.000000000000000000, -4.650000000000001243 ) ) ;
#322 = ADVANCED_FACE ( 'NONE', ( #169 ), #54, .F. ) ;
#323 = PRESENTATION_STYLE_ASSIGNMENT (( #249 ) ) ;
#324 = DIRECTION ( 'NONE',  ( 0.000000000000000000, 1.000000000000000000, 0.000000000000000000 ) ) ;
#325 = CARTESIAN_POINT ( 'NONE',  ( -5.000000000000000888, 5.000000000000000000, -2.174999999999999822 ) ) ;
#326 = ORIENTED_EDGE ( 'NONE', *, *, #134, .T. ) ;
#327 = VECTOR ( 'NONE', #234, 1000.000000000000000 ) ;
#328 = CARTESIAN_POINT ( 'NONE',  ( 17.50000000000000000, 0.000000000000000000, 4.649999999999999467 ) ) ;
#329 = VERTEX_POINT ( 'NONE', #225 ) ;
#330 = CARTESIAN_POINT ( 'NONE',  ( -17.50000000000000000, 0.000000000000000000, 4.649999999999999467 ) ) ;
#331 = ORIENTED_EDGE ( 'NONE', *, *, #133, .F. ) ;
#332 = LINE ( 'NONE', #95, #327 ) ;
#333 = EDGE_LOOP ( 'NONE', ( #317, #56 ) ) ;
#334 = VECTOR ( 'NONE', #253, 1000.000000000000000 ) ;
#335 = EDGE_CURVE ( 'NONE', #42, #267, #6, .T. ) ;
ENDSEC;
END-ISO-10303-21;
