ISO-10303-21;
HEADER;
FILE_DESCRIPTION (( 'STEP AP214' ),
    '1' );
FILE_NAME ('mor_2.STEP',
    '2026-05-04T04:17:02',
    ( '' ),
    ( '' ),
    'SwSTEP 2.0',
    'SolidWorks 2025',
    '' );
FILE_SCHEMA (( 'AUTOMOTIVE_DESIGN' ));
ENDSEC;

DATA;
#1 = DIRECTION ( 'NONE',  ( -0.000000000000000000, 1.000000000000000000, -0.000000000000000000 ) ) ;
#2 = LINE ( 'NONE', #80, #96 ) ;
#3 = VERTEX_POINT ( 'NONE', #10 ) ;
#4 = VECTOR ( 'NONE', #1, 1000.000000000000000 ) ;
#5 = VECTOR ( 'NONE', #235, 1000.000000000000000 ) ;
#6 = CARTESIAN_POINT ( 'NONE',  ( 0.000000000000000000, 0.000000000000000000, 0.000000000000000000 ) ) ;
#7 = EDGE_CURVE ( 'NONE', #165, #95, #122, .T. ) ;
#8 = COLOUR_RGB ( '',0.7921568627450980005, 0.8196078431372548767, 0.9333333333333333481 ) ;
#9 = EDGE_LOOP ( 'NONE', ( #141, #217, #166, #194 ) ) ;
#10 = CARTESIAN_POINT ( 'NONE',  ( -7.500000000000000000, 0.000000000000000000, 1.600000000000000089 ) ) ;
#11 = FILL_AREA_STYLE ('',( #195 ) ) ;
#12 = EDGE_CURVE ( 'NONE', #37, #65, #119, .T. ) ;
#13 = ORIENTED_EDGE ( 'NONE', *, *, #66, .T. ) ;
#14 = ORIENTED_EDGE ( 'NONE', *, *, #254, .F. ) ;
#15 = VECTOR ( 'NONE', #154, 1000.000000000000000 ) ;
#16 = PLANE ( 'NONE',  #253 ) ;
#17 = FACE_OUTER_BOUND ( 'NONE', #170, .T. ) ;
#18 = ADVANCED_FACE ( 'NONE', ( #152 ), #16, .F. ) ;
#19 = LINE ( 'NONE', #21, #260 ) ;
#20 = AXIS2_PLACEMENT_3D ( 'NONE', #181, #280, #136 ) ;
#21 = CARTESIAN_POINT ( 'NONE',  ( -16.49999999999995737, 3.000000000000000000, -7.500000000000000888 ) ) ;
#22 = DIRECTION ( 'NONE',  ( -0.000000000000000000, -1.000000000000000000, -0.000000000000000000 ) ) ;
#23 = EDGE_CURVE ( 'NONE', #64, #320, #99, .T. ) ;
#24 = LINE ( 'NONE', #51, #328 ) ;
#25 = DIRECTION ( 'NONE',  ( 0.000000000000000000, 1.000000000000000000, 0.000000000000000000 ) ) ;
#26 = DIRECTION ( 'NONE',  ( -0.000000000000000000, -1.000000000000000000, -0.000000000000000000 ) ) ;
#27 = DIRECTION ( 'NONE',  ( 0.000000000000000000, -1.000000000000000000, 0.000000000000000000 ) ) ;
#28 = CIRCLE ( 'NONE', #192, 1.600000000000000089 ) ;
#29 = AXIS2_PLACEMENT_3D ( 'NONE', #175, #258, #109 ) ;
#30 = DIRECTION ( 'NONE',  ( 0.000000000000000000, 0.000000000000000000, -1.000000000000000000 ) ) ;
#31 = ORIENTED_EDGE ( 'NONE', *, *, #92, .F. ) ;
#32 = ORIENTED_EDGE ( 'NONE', *, *, #12, .F. ) ;
#33 = AXIS2_PLACEMENT_3D ( 'NONE', #261, #290, #30 ) ;
#34 = DIRECTION ( 'NONE',  ( 1.000000000000000000, 0.000000000000000000, 0.000000000000000000 ) ) ;
#35 = EDGE_CURVE ( 'NONE', #120, #64, #259, .T. ) ;
#36 = ADVANCED_FACE ( 'NONE', ( #314 ), #282, .F. ) ;
#37 = VERTEX_POINT ( 'NONE', #232 ) ;
#38 = CIRCLE ( 'NONE', #118, 1.600000000000001865 ) ;
#39 = ORIENTED_EDGE ( 'NONE', *, *, #48, .T. ) ;
#40 = ADVANCED_FACE ( 'NONE', ( #134 ), #153, .F. ) ;
#41 = ORIENTED_EDGE ( 'NONE', *, *, #225, .T. ) ;
#42 = ORIENTED_EDGE ( 'NONE', *, *, #254, .T. ) ;
#43 = DIRECTION ( 'NONE',  ( 0.000000000000000000, -1.000000000000000000, 0.000000000000000000 ) ) ;
#44 = CARTESIAN_POINT ( 'NONE',  ( 7.500000000000000000, 3.000000000000000000, 1.600000000000001865 ) ) ;
#45 = SURFACE_STYLE_USAGE ( .BOTH. , #220 ) ;
#46 = CIRCLE ( 'NONE', #163, 1.600000000000001865 ) ;
#47 = CARTESIAN_POINT ( 'NONE',  ( -7.500000000000000000, 3.000000000000000000, 0.000000000000000000 ) ) ;
#48 = EDGE_CURVE ( 'NONE', #189, #120, #176, .T. ) ;
#49 = CARTESIAN_POINT ( 'NONE',  ( -16.49999999999995737, 0.000000000000000000, 7.499999999999999112 ) ) ;
#50 = DIRECTION ( 'NONE',  ( 0.000000000000000000, -1.000000000000000000, 0.000000000000000000 ) ) ;
#51 = CARTESIAN_POINT ( 'NONE',  ( 16.50000000000004263, 0.000000000000000000, 7.499999999999999112 ) ) ;
#52 = CARTESIAN_POINT ( 'NONE',  ( 7.500000000000000000, 0.000000000000000000, -1.600000000000001865 ) ) ;
#53 = ADVANCED_FACE ( 'NONE', ( #100 ), #174, .F. ) ;
#54 = LINE ( 'NONE', #158, #4 ) ;
#55 = CARTESIAN_POINT ( 'NONE',  ( 16.50000000000004263, 0.000000000000000000, 17.49999999999999645 ) ) ;
#56 = DIRECTION ( 'NONE',  ( 0.000000000000000000, 1.000000000000000000, 0.000000000000000000 ) ) ;
#57 = FACE_OUTER_BOUND ( 'NONE', #197, .T. ) ;
#58 = VECTOR ( 'NONE', #108, 1000.000000000000000 ) ;
#59 = VECTOR ( 'NONE', #206, 1000.000000000000000 ) ;
#60 =( LENGTH_UNIT ( ) NAMED_UNIT ( * ) SI_UNIT ( .MILLI., .METRE. ) );
#61 = EDGE_CURVE ( 'NONE', #3, #264, #272, .T. ) ;
#62 = ORIENTED_EDGE ( 'NONE', *, *, #113, .F. ) ;
#63 = EDGE_LOOP ( 'NONE', ( #144, #191 ) ) ;
#64 = VERTEX_POINT ( 'NONE', #316 ) ;
#65 = VERTEX_POINT ( 'NONE', #334 ) ;
#66 = EDGE_CURVE ( 'NONE', #265, #64, #24, .T. ) ;
#67 = AXIS2_PLACEMENT_3D ( 'NONE', #229, #281, #233 ) ;
#68 = ADVANCED_FACE ( 'NONE', ( #17 ), #81, .F. ) ;
#69 = EDGE_CURVE ( 'NONE', #320, #171, #173, .T. ) ;
#70 = ORIENTED_EDGE ( 'NONE', *, *, #7, .T. ) ;
#71 = DIRECTION ( 'NONE',  ( 0.000000000000000000, 0.000000000000000000, 1.000000000000000000 ) ) ;
#72 = ORIENTED_EDGE ( 'NONE', *, *, #35, .T. ) ;
#73 = ORIENTED_EDGE ( 'NONE', *, *, #322, .F. ) ;
#74 = ADVANCED_FACE ( 'NONE', ( #129 ), #106, .T. ) ;
#75 = DIRECTION ( 'NONE',  ( 1.000000000000000000, 0.000000000000000000, -0.000000000000000000 ) ) ;
#76 = DIRECTION ( 'NONE',  ( 0.000000000000000000, 0.000000000000000000, -1.000000000000000000 ) ) ;
#77 = DIRECTION ( 'NONE',  ( -1.000000000000000000, -0.000000000000000000, -0.000000000000000000 ) ) ;
#78 = CARTESIAN_POINT ( 'NONE',  ( 16.50000000000004263, 3.000000000000000000, 17.49999999999999645 ) ) ;
#79 = CARTESIAN_POINT ( 'NONE',  ( 7.500000000000000000, 3.000000000000000000, 0.000000000000000000 ) ) ;
#80 = CARTESIAN_POINT ( 'NONE',  ( -7.500000000000000000, 3.000000000000000000, 1.600000000000000089 ) ) ;
#81 = CYLINDRICAL_SURFACE ( 'NONE', #198, 1.600000000000000089 ) ;
#82 =( NAMED_UNIT ( * ) SI_UNIT ( $, .STERADIAN. ) SOLID_ANGLE_UNIT ( ) );
#83 = CARTESIAN_POINT ( 'NONE',  ( 0.000000000000000000, 3.000000000000000000, 0.000000000000000000 ) ) ;
#84 = ORIENTED_EDGE ( 'NONE', *, *, #218, .F. ) ;
#85 = LINE ( 'NONE', #89, #291 ) ;
#86 = EDGE_LOOP ( 'NONE', ( #196, #148 ) ) ;
#87 = EDGE_LOOP ( 'NONE', ( #97, #149 ) ) ;
#88 =( GEOMETRIC_REPRESENTATION_CONTEXT ( 3 ) GLOBAL_UNCERTAINTY_ASSIGNED_CONTEXT ( ( #304 ) ) GLOBAL_UNIT_ASSIGNED_CONTEXT ( ( #60, #213, #115 ) ) REPRESENTATION_CONTEXT ( 'NONE', 'WORKASPACE' ) );
#89 = CARTESIAN_POINT ( 'NONE',  ( -7.500000000000000000, 3.000000000000000000, -1.600000000000000089 ) ) ;
#90 = ORIENTED_EDGE ( 'NONE', *, *, #150, .F. ) ;
#91 = VERTEX_POINT ( 'NONE', #286 ) ;
#92 = EDGE_CURVE ( 'NONE', #265, #189, #54, .T. ) ;
#93 = AXIS2_PLACEMENT_3D ( 'NONE', #190, #43, #277 ) ;
#94 = VERTEX_POINT ( 'NONE', #249 ) ;
#95 = VERTEX_POINT ( 'NONE', #128 ) ;
#96 = VECTOR ( 'NONE', #207, 1000.000000000000000 ) ;
#97 = ORIENTED_EDGE ( 'NONE', *, *, #187, .T. ) ;
#98 = ORIENTED_EDGE ( 'NONE', *, *, #103, .T. ) ;
#99 = LINE ( 'NONE', #279, #301 ) ;
#100 = FACE_OUTER_BOUND ( 'NONE', #239, .T. ) ;
#101 = LINE ( 'NONE', #210, #212 ) ;
#102 = CIRCLE ( 'NONE', #67, 1.600000000000001865 ) ;
#103 = EDGE_CURVE ( 'NONE', #189, #94, #326, .T. ) ;
#104 = FACE_BOUND ( 'NONE', #87, .T. ) ;
#105 = DIRECTION ( 'NONE',  ( -0.000000000000000000, -1.000000000000000000, -0.000000000000000000 ) ) ;
#106 = PLANE ( 'NONE',  #20 ) ;
#107 = DIRECTION ( 'NONE',  ( 0.000000000000000000, 1.000000000000000000, -0.000000000000000000 ) ) ;
#108 = DIRECTION ( 'NONE',  ( -0.000000000000000000, -0.000000000000000000, 1.000000000000000000 ) ) ;
#109 = DIRECTION ( 'NONE',  ( 0.000000000000000000, 0.000000000000000000, 1.000000000000000000 ) ) ;
#110 = VECTOR ( 'NONE', #22, 1000.000000000000000 ) ;
#111 = DIRECTION ( 'NONE',  ( -0.000000000000000000, -1.000000000000000000, -0.000000000000000000 ) ) ;
#112 = DIRECTION ( 'NONE',  ( 0.000000000000000000, 1.000000000000000000, -0.000000000000000000 ) ) ;
#113 = EDGE_CURVE ( 'NONE', #120, #140, #19, .T. ) ;
#114 = APPLICATION_CONTEXT ( 'automotive_design' ) ;
#115 =( NAMED_UNIT ( * ) SI_UNIT ( $, .STERADIAN. ) SOLID_ANGLE_UNIT ( ) );
#116 = AXIS2_PLACEMENT_3D ( 'NONE', #132, #209, #161 ) ;
#117 = ORIENTED_EDGE ( 'NONE', *, *, #12, .T. ) ;
#118 = AXIS2_PLACEMENT_3D ( 'NONE', #79, #228, #329 ) ;
#119 = CIRCLE ( 'NONE', #241, 1.600000000000000089 ) ;
#120 = VERTEX_POINT ( 'NONE', #155 ) ;
#121 = PRODUCT_DEFINITION_SHAPE ( 'NONE', 'NONE',  #293 ) ;
#122 = LINE ( 'NONE', #44, #308 ) ;
#123 = SURFACE_STYLE_FILL_AREA ( #11 ) ;
#124 = ORIENTED_EDGE ( 'NONE', *, *, #183, .F. ) ;
#125 = ORIENTED_EDGE ( 'NONE', *, *, #169, .T. ) ;
#126 = UNCERTAINTY_MEASURE_WITH_UNIT (LENGTH_MEASURE( 1.000000000000000082E-05 ), #303, 'distance_accuracy_value', 'NONE');
#127 = ORIENTED_EDGE ( 'NONE', *, *, #23, .F. ) ;
#128 = CARTESIAN_POINT ( 'NONE',  ( 7.500000000000000000, 0.000000000000000000, 1.600000000000001865 ) ) ;
#129 = FACE_OUTER_BOUND ( 'NONE', #211, .T. ) ;
#130 = LINE ( 'NONE', #251, #278 ) ;
#131 = AXIS2_PLACEMENT_3D ( 'NONE', #6, #267, #34 ) ;
#132 = CARTESIAN_POINT ( 'NONE',  ( 7.500000000000000000, 3.000000000000000000, 0.000000000000000000 ) ) ;
#133 =( NAMED_UNIT ( * ) PLANE_ANGLE_UNIT ( ) SI_UNIT ( $, .RADIAN. ) );
#134 = FACE_OUTER_BOUND ( 'NONE', #184, .T. ) ;
#135 = CARTESIAN_POINT ( 'NONE',  ( -7.500000000000000000, 0.000000000000000000, -1.600000000000000089 ) ) ;
#136 = DIRECTION ( 'NONE',  ( 1.000000000000000000, 0.000000000000000000, 0.000000000000000000 ) ) ;
#137 = CARTESIAN_POINT ( 'NONE',  ( -16.49999999999995737, 0.000000000000000000, 17.49999999999999645 ) ) ;
#138 = EDGE_CURVE ( 'NONE', #91, #165, #38, .T. ) ;
#139 = ADVANCED_FACE ( 'NONE', ( #104, #202, #312 ), #275, .T. ) ;
#140 = VERTEX_POINT ( 'NONE', #243 ) ;
#141 = ORIENTED_EDGE ( 'NONE', *, *, #7, .F. ) ;
#142 = MECHANICAL_DESIGN_GEOMETRIC_PRESENTATION_REPRESENTATION (  '', ( #215 ), #252 ) ;
#143 = APPLICATION_PROTOCOL_DEFINITION ( 'draft international standard', 'automotive_design', 1998, #114 ) ;
#144 = ORIENTED_EDGE ( 'NONE', *, *, #183, .T. ) ;
#145 = PRODUCT_CONTEXT ( 'NONE', #289, 'mechanical' ) ;
#146 = MANIFOLD_SOLID_BREP ( '\X2\51f853f0\X0\-\X2\62c94f38\X0\2', #193 ) ;
#147 = ORIENTED_EDGE ( 'NONE', *, *, #309, .T. ) ;
#148 = ORIENTED_EDGE ( 'NONE', *, *, #266, .F. ) ;
#149 = ORIENTED_EDGE ( 'NONE', *, *, #61, .T. ) ;
#150 = EDGE_CURVE ( 'NONE', #94, #171, #299, .T. ) ;
#151 = ORIENTED_EDGE ( 'NONE', *, *, #113, .T. ) ;
#152 = FACE_OUTER_BOUND ( 'NONE', #247, .T. ) ;
#153 = CYLINDRICAL_SURFACE ( 'NONE', #199, 1.600000000000000089 ) ;
#154 = DIRECTION ( 'NONE',  ( -1.000000000000000000, -0.000000000000000000, -0.000000000000000000 ) ) ;
#155 = CARTESIAN_POINT ( 'NONE',  ( 16.50000000000004263, 3.000000000000000000, -7.500000000000000888 ) ) ;
#156 = LINE ( 'NONE', #256, #110 ) ;
#157 = VECTOR ( 'NONE', #105, 1000.000000000000000 ) ;
#158 = CARTESIAN_POINT ( 'NONE',  ( 16.50000000000004263, 3.000000000000000000, 17.49999999999999645 ) ) ;
#159 = CARTESIAN_POINT ( 'NONE',  ( 7.500000000000000000, 0.000000000000000000, 0.000000000000000000 ) ) ;
#160 = ADVANCED_FACE ( 'NONE', ( #318 ), #335, .F. ) ;
#161 = DIRECTION ( 'NONE',  ( 0.000000000000000000, 0.000000000000000000, -1.000000000000000000 ) ) ;
#162 = FACE_BOUND ( 'NONE', #86, .T. ) ;
#163 = AXIS2_PLACEMENT_3D ( 'NONE', #159, #107, #201 ) ;
#164 = ADVANCED_FACE ( 'NONE', ( #57, #182, #162 ), #227, .F. ) ;
#165 = VERTEX_POINT ( 'NONE', #179 ) ;
#166 = ORIENTED_EDGE ( 'NONE', *, *, #288, .T. ) ;
#167 = ORIENTED_EDGE ( 'NONE', *, *, #218, .T. ) ;
#168 = DIRECTION ( 'NONE',  ( -1.000000000000000000, 0.000000000000000000, 0.000000000000000000 ) ) ;
#169 = EDGE_CURVE ( 'NONE', #140, #94, #130, .T. ) ;
#170 = EDGE_LOOP ( 'NONE', ( #306, #117, #300, #298 ) ) ;
#171 = VERTEX_POINT ( 'NONE', #137 ) ;
#172 = AXIS2_PLACEMENT_3D ( 'NONE', #177, #112, #333 ) ;
#173 = LINE ( 'NONE', #49, #58 ) ;
#174 = PLANE ( 'NONE',  #216 ) ;
#175 = CARTESIAN_POINT ( 'NONE',  ( -7.500000000000000000, 0.000000000000000000, 0.000000000000000000 ) ) ;
#176 = LINE ( 'NONE', #257, #59 ) ;
#177 = CARTESIAN_POINT ( 'NONE',  ( 7.500000000000000000, 0.000000000000000000, 0.000000000000000000 ) ) ;
#178 = CARTESIAN_POINT ( 'NONE',  ( -16.49999999999995737, 3.000000000000000000, -7.500000000000000888 ) ) ;
#179 = CARTESIAN_POINT ( 'NONE',  ( 7.500000000000000000, 3.000000000000000000, 1.600000000000001865 ) ) ;
#180 = ADVANCED_FACE ( 'NONE', ( #203 ), #313, .F. ) ;
#181 = CARTESIAN_POINT ( 'NONE',  ( 0.000000000000000000, 0.000000000000000000, 17.49999999999999645 ) ) ;
#182 = FACE_BOUND ( 'NONE', #242, .T. ) ;
#183 = EDGE_CURVE ( 'NONE', #295, #95, #46, .T. ) ;
#184 = EDGE_LOOP ( 'NONE', ( #42, #41, #223, #73 ) ) ;
#185 = ORIENTED_EDGE ( 'NONE', *, *, #69, .T. ) ;
#186 = PRESENTATION_LAYER_ASSIGNMENT (  '', '', ( #215 ) ) ;
#187 = EDGE_CURVE ( 'NONE', #264, #3, #240, .T. ) ;
#188 = SHAPE_DEFINITION_REPRESENTATION ( #121, #269 ) ;
#189 = VERTEX_POINT ( 'NONE', #78 ) ;
#190 = CARTESIAN_POINT ( 'NONE',  ( 0.000000000000000000, 0.000000000000000000, 0.000000000000000000 ) ) ;
#191 = ORIENTED_EDGE ( 'NONE', *, *, #237, .T. ) ;
#192 = AXIS2_PLACEMENT_3D ( 'NONE', #311, #25, #283 ) ;
#193 = CLOSED_SHELL ( 'NONE', ( #36, #40, #164, #139, #18, #53, #160, #68, #180, #74 ) ) ;
#194 = ORIENTED_EDGE ( 'NONE', *, *, #237, .F. ) ;
#195 = FILL_AREA_STYLE_COLOUR ( '', #8 ) ;
#196 = ORIENTED_EDGE ( 'NONE', *, *, #138, .F. ) ;
#197 = EDGE_LOOP ( 'NONE', ( #39, #151, #125, #245 ) ) ;
#198 = AXIS2_PLACEMENT_3D ( 'NONE', #200, #26, #332 ) ;
#199 = AXIS2_PLACEMENT_3D ( 'NONE', #47, #111, #76 ) ;
#200 = CARTESIAN_POINT ( 'NONE',  ( -7.500000000000000000, 3.000000000000000000, 0.000000000000000000 ) ) ;
#201 = DIRECTION ( 'NONE',  ( 0.000000000000000000, 0.000000000000000000, -1.000000000000000000 ) ) ;
#202 = FACE_OUTER_BOUND ( 'NONE', #319, .T. ) ;
#203 = FACE_OUTER_BOUND ( 'NONE', #9, .T. ) ;
#204 = CARTESIAN_POINT ( 'NONE',  ( -7.500000000000000000, 0.000000000000000000, 0.000000000000000000 ) ) ;
#205 = CARTESIAN_POINT ( 'NONE',  ( -16.49999999999995737, 3.000000000000000000, 17.49999999999999645 ) ) ;
#206 = DIRECTION ( 'NONE',  ( 0.000000000000000000, 0.000000000000000000, -1.000000000000000000 ) ) ;
#207 = DIRECTION ( 'NONE',  ( -0.000000000000000000, -1.000000000000000000, -0.000000000000000000 ) ) ;
#208 = AXIS2_PLACEMENT_3D ( 'NONE', #83, #50, #287 ) ;
#209 = DIRECTION ( 'NONE',  ( -0.000000000000000000, -1.000000000000000000, -0.000000000000000000 ) ) ;
#210 = CARTESIAN_POINT ( 'NONE',  ( -16.49999999999995737, 0.000000000000000000, 17.49999999999999645 ) ) ;
#211 = EDGE_LOOP ( 'NONE', ( #302, #167, #268, #98 ) ) ;
#212 = VECTOR ( 'NONE', #236, 1000.000000000000000 ) ;
#213 =( NAMED_UNIT ( * ) PLANE_ANGLE_UNIT ( ) SI_UNIT ( $, .RADIAN. ) );
#214 = CARTESIAN_POINT ( 'NONE',  ( -16.49999999999995737, 0.000000000000000000, -7.500000000000000888 ) ) ;
#215 = STYLED_ITEM ( 'NONE', ( #248 ), #146 ) ;
#216 = AXIS2_PLACEMENT_3D ( 'NONE', #178, #255, #75 ) ;
#217 = ORIENTED_EDGE ( 'NONE', *, *, #266, .T. ) ;
#218 = EDGE_CURVE ( 'NONE', #171, #265, #101, .T. ) ;
#219 = CARTESIAN_POINT ( 'NONE',  ( -7.500000000000000000, 3.000000000000000000, 0.000000000000000000 ) ) ;
#220 = SURFACE_SIDE_STYLE ('',( #123 ) ) ;
#221 = ORIENTED_EDGE ( 'NONE', *, *, #288, .F. ) ;
#222 = CIRCLE ( 'NONE', #172, 1.600000000000001865 ) ;
#223 = ORIENTED_EDGE ( 'NONE', *, *, #187, .F. ) ;
#224 = CARTESIAN_POINT ( 'NONE',  ( 16.50000000000004263, 3.000000000000000000, 7.499999999999999112 ) ) ;
#225 = EDGE_CURVE ( 'NONE', #37, #3, #2, .T. ) ;
#226 = CARTESIAN_POINT ( 'NONE',  ( -16.49999999999995737, 3.000000000000000000, 17.49999999999999645 ) ) ;
#227 = PLANE ( 'NONE',  #208 ) ;
#228 = DIRECTION ( 'NONE',  ( 0.000000000000000000, 1.000000000000000000, -0.000000000000000000 ) ) ;
#229 = CARTESIAN_POINT ( 'NONE',  ( 7.500000000000000000, 3.000000000000000000, 0.000000000000000000 ) ) ;
#230 = DIRECTION ( 'NONE',  ( 0.000000000000000000, 0.000000000000000000, 1.000000000000000000 ) ) ;
#231 = CARTESIAN_POINT ( 'NONE',  ( 7.500000000000000000, 3.000000000000000000, 0.000000000000000000 ) ) ;
#232 = CARTESIAN_POINT ( 'NONE',  ( -7.500000000000000000, 3.000000000000000000, 1.600000000000000089 ) ) ;
#233 = DIRECTION ( 'NONE',  ( 0.000000000000000000, 0.000000000000000000, -1.000000000000000000 ) ) ;
#234 = PRODUCT_DEFINITION_CONTEXT ( 'detailed design', #114, 'design' ) ;
#235 = DIRECTION ( 'NONE',  ( -0.000000000000000000, -1.000000000000000000, -0.000000000000000000 ) ) ;
#236 = DIRECTION ( 'NONE',  ( 1.000000000000000000, 0.000000000000000000, 0.000000000000000000 ) ) ;
#237 = EDGE_CURVE ( 'NONE', #95, #295, #222, .T. ) ;
#238 = ORIENTED_EDGE ( 'NONE', *, *, #69, .F. ) ;
#239 = EDGE_LOOP ( 'NONE', ( #294, #305, #62, #72 ) ) ;
#240 = CIRCLE ( 'NONE', #29, 1.600000000000000089 ) ;
#241 = AXIS2_PLACEMENT_3D ( 'NONE', #219, #321, #71 ) ;
#242 = EDGE_LOOP ( 'NONE', ( #14, #32 ) ) ;
#243 = CARTESIAN_POINT ( 'NONE',  ( -16.49999999999995737, 3.000000000000000000, -7.500000000000000888 ) ) ;
#244 = PRODUCT ( 'mor_2', 'mor_2', '', ( #145 ) ) ;
#245 = ORIENTED_EDGE ( 'NONE', *, *, #103, .F. ) ;
#246 = ORIENTED_EDGE ( 'NONE', *, *, #48, .F. ) ;
#247 = EDGE_LOOP ( 'NONE', ( #13, #274, #246, #31 ) ) ;
#248 = PRESENTATION_STYLE_ASSIGNMENT (( #45 ) ) ;
#249 = CARTESIAN_POINT ( 'NONE',  ( -16.49999999999995737, 3.000000000000000000, 17.49999999999999645 ) ) ;
#250 = DIRECTION ( 'NONE',  ( 0.000000000000000000, 0.000000000000000000, -1.000000000000000000 ) ) ;
#251 = CARTESIAN_POINT ( 'NONE',  ( -16.49999999999995737, 3.000000000000000000, 7.499999999999999112 ) ) ;
#252 =( GEOMETRIC_REPRESENTATION_CONTEXT ( 3 ) GLOBAL_UNCERTAINTY_ASSIGNED_CONTEXT ( ( #126 ) ) GLOBAL_UNIT_ASSIGNED_CONTEXT ( ( #303, #133, #82 ) ) REPRESENTATION_CONTEXT ( 'NONE', 'WORKASPACE' ) );
#253 = AXIS2_PLACEMENT_3D ( 'NONE', #224, #168, #325 ) ;
#254 = EDGE_CURVE ( 'NONE', #65, #37, #28, .T. ) ;
#255 = DIRECTION ( 'NONE',  ( 0.000000000000000000, 0.000000000000000000, 1.000000000000000000 ) ) ;
#256 = CARTESIAN_POINT ( 'NONE',  ( -16.49999999999995737, 3.000000000000000000, -7.500000000000000888 ) ) ;
#257 = CARTESIAN_POINT ( 'NONE',  ( 16.50000000000004263, 3.000000000000000000, 7.499999999999999112 ) ) ;
#258 = DIRECTION ( 'NONE',  ( 0.000000000000000000, 1.000000000000000000, 0.000000000000000000 ) ) ;
#259 = LINE ( 'NONE', #284, #5 ) ;
#260 = VECTOR ( 'NONE', #77, 1000.000000000000000 ) ;
#261 = CARTESIAN_POINT ( 'NONE',  ( -16.49999999999995737, 3.000000000000000000, 7.499999999999999112 ) ) ;
#262 = ORIENTED_EDGE ( 'NONE', *, *, #138, .T. ) ;
#263 = APPLICATION_PROTOCOL_DEFINITION ( 'draft international standard', 'automotive_design', 1998, #289 ) ;
#264 = VERTEX_POINT ( 'NONE', #135 ) ;
#265 = VERTEX_POINT ( 'NONE', #55 ) ;
#266 = EDGE_CURVE ( 'NONE', #165, #91, #102, .T. ) ;
#267 = DIRECTION ( 'NONE',  ( 0.000000000000000000, 0.000000000000000000, 1.000000000000000000 ) ) ;
#268 = ORIENTED_EDGE ( 'NONE', *, *, #92, .T. ) ;
#269 = ADVANCED_BREP_SHAPE_REPRESENTATION ( 'mor_2', ( #146, #131 ), #88 ) ;
#270 = EDGE_LOOP ( 'NONE', ( #185, #90, #273, #147 ) ) ;
#271 = VECTOR ( 'NONE', #27, 1000.000000000000000 ) ;
#272 = CIRCLE ( 'NONE', #292, 1.600000000000000089 ) ;
#273 = ORIENTED_EDGE ( 'NONE', *, *, #169, .F. ) ;
#274 = ORIENTED_EDGE ( 'NONE', *, *, #35, .F. ) ;
#275 = PLANE ( 'NONE',  #93 ) ;
#276 = ORIENTED_EDGE ( 'NONE', *, *, #66, .F. ) ;
#277 = DIRECTION ( 'NONE',  ( 0.000000000000000000, -0.000000000000000000, -1.000000000000000000 ) ) ;
#278 = VECTOR ( 'NONE', #327, 1000.000000000000000 ) ;
#279 = CARTESIAN_POINT ( 'NONE',  ( -16.49999999999995737, 0.000000000000000000, -7.500000000000000888 ) ) ;
#280 = DIRECTION ( 'NONE',  ( -0.000000000000000000, 0.000000000000000000, 1.000000000000000000 ) ) ;
#281 = DIRECTION ( 'NONE',  ( 0.000000000000000000, 1.000000000000000000, -0.000000000000000000 ) ) ;
#282 = CYLINDRICAL_SURFACE ( 'NONE', #116, 1.600000000000001865 ) ;
#283 = DIRECTION ( 'NONE',  ( 0.000000000000000000, 0.000000000000000000, 1.000000000000000000 ) ) ;
#284 = CARTESIAN_POINT ( 'NONE',  ( 16.50000000000004263, 3.000000000000000000, -7.500000000000000888 ) ) ;
#285 = DIRECTION ( 'NONE',  ( -0.000000000000000000, -1.000000000000000000, -0.000000000000000000 ) ) ;
#286 = CARTESIAN_POINT ( 'NONE',  ( 7.500000000000000000, 3.000000000000000000, -1.600000000000001865 ) ) ;
#287 = DIRECTION ( 'NONE',  ( 0.000000000000000000, -0.000000000000000000, -1.000000000000000000 ) ) ;
#288 = EDGE_CURVE ( 'NONE', #91, #295, #317, .T. ) ;
#289 = APPLICATION_CONTEXT ( 'automotive_design' ) ;
#290 = DIRECTION ( 'NONE',  ( 1.000000000000000000, -0.000000000000000000, 0.000000000000000000 ) ) ;
#291 = VECTOR ( 'NONE', #297, 1000.000000000000000 ) ;
#292 = AXIS2_PLACEMENT_3D ( 'NONE', #204, #56, #230 ) ;
#293 = PRODUCT_DEFINITION ( 'ๆ', '', #296, #234 ) ;
#294 = ORIENTED_EDGE ( 'NONE', *, *, #23, .T. ) ;
#295 = VERTEX_POINT ( 'NONE', #52 ) ;
#296 = PRODUCT_DEFINITION_FORMATION_WITH_SPECIFIED_SOURCE ( 'ไป', '', #244, .NOT_KNOWN. ) ;
#297 = DIRECTION ( 'NONE',  ( -0.000000000000000000, -1.000000000000000000, -0.000000000000000000 ) ) ;
#298 = ORIENTED_EDGE ( 'NONE', *, *, #61, .F. ) ;
#299 = LINE ( 'NONE', #205, #271 ) ;
#300 = ORIENTED_EDGE ( 'NONE', *, *, #322, .T. ) ;
#301 = VECTOR ( 'NONE', #310, 1000.000000000000000 ) ;
#302 = ORIENTED_EDGE ( 'NONE', *, *, #150, .T. ) ;
#303 =( LENGTH_UNIT ( ) NAMED_UNIT ( * ) SI_UNIT ( .MILLI., .METRE. ) );
#304 = UNCERTAINTY_MEASURE_WITH_UNIT (LENGTH_MEASURE( 1.000000000000000082E-05 ), #60, 'distance_accuracy_value', 'NONE');
#305 = ORIENTED_EDGE ( 'NONE', *, *, #309, .F. ) ;
#306 = ORIENTED_EDGE ( 'NONE', *, *, #225, .F. ) ;
#307 = AXIS2_PLACEMENT_3D ( 'NONE', #231, #285, #315 ) ;
#308 = VECTOR ( 'NONE', #324, 1000.000000000000000 ) ;
#309 = EDGE_CURVE ( 'NONE', #140, #320, #156, .T. ) ;
#310 = DIRECTION ( 'NONE',  ( -1.000000000000000000, -0.000000000000000000, -0.000000000000000000 ) ) ;
#311 = CARTESIAN_POINT ( 'NONE',  ( -7.500000000000000000, 3.000000000000000000, 0.000000000000000000 ) ) ;
#312 = FACE_BOUND ( 'NONE', #63, .T. ) ;
#313 = CYLINDRICAL_SURFACE ( 'NONE', #307, 1.600000000000001865 ) ;
#314 = FACE_OUTER_BOUND ( 'NONE', #323, .T. ) ;
#315 = DIRECTION ( 'NONE',  ( 0.000000000000000000, 0.000000000000000000, -1.000000000000000000 ) ) ;
#316 = CARTESIAN_POINT ( 'NONE',  ( 16.50000000000004263, 0.000000000000000000, -7.500000000000000888 ) ) ;
#317 = LINE ( 'NONE', #330, #157 ) ;
#318 = FACE_OUTER_BOUND ( 'NONE', #270, .T. ) ;
#319 = EDGE_LOOP ( 'NONE', ( #276, #84, #238, #127 ) ) ;
#320 = VERTEX_POINT ( 'NONE', #214 ) ;
#321 = DIRECTION ( 'NONE',  ( 0.000000000000000000, 1.000000000000000000, 0.000000000000000000 ) ) ;
#322 = EDGE_CURVE ( 'NONE', #65, #264, #85, .T. ) ;
#323 = EDGE_LOOP ( 'NONE', ( #262, #70, #124, #221 ) ) ;
#324 = DIRECTION ( 'NONE',  ( -0.000000000000000000, -1.000000000000000000, -0.000000000000000000 ) ) ;
#325 = DIRECTION ( 'NONE',  ( 0.000000000000000000, 0.000000000000000000, 1.000000000000000000 ) ) ;
#326 = LINE ( 'NONE', #226, #15 ) ;
#327 = DIRECTION ( 'NONE',  ( -0.000000000000000000, -0.000000000000000000, 1.000000000000000000 ) ) ;
#328 = VECTOR ( 'NONE', #250, 1000.000000000000000 ) ;
#329 = DIRECTION ( 'NONE',  ( 0.000000000000000000, 0.000000000000000000, -1.000000000000000000 ) ) ;
#330 = CARTESIAN_POINT ( 'NONE',  ( 7.500000000000000000, 3.000000000000000000, -1.600000000000001865 ) ) ;
#331 = PRODUCT_RELATED_PRODUCT_CATEGORY ( 'part', '', ( #244 ) ) ;
#332 = DIRECTION ( 'NONE',  ( 0.000000000000000000, 0.000000000000000000, -1.000000000000000000 ) ) ;
#333 = DIRECTION ( 'NONE',  ( 0.000000000000000000, 0.000000000000000000, -1.000000000000000000 ) ) ;
#334 = CARTESIAN_POINT ( 'NONE',  ( -7.500000000000000000, 3.000000000000000000, -1.600000000000000089 ) ) ;
#335 = PLANE ( 'NONE',  #33 ) ;
ENDSEC;
END-ISO-10303-21;
