ISO-10303-21;
HEADER;
FILE_DESCRIPTION (( 'STEP AP214' ),
    '1' );
FILE_NAME ('ul.STEP',
    '2026-05-11T07:51:27',
    ( '' ),
    ( '' ),
    'SwSTEP 2.0',
    'SolidWorks 2025',
    '' );
FILE_SCHEMA (( 'AUTOMOTIVE_DESIGN' ));
ENDSEC;

DATA;
#1 = VERTEX_POINT ( 'NONE', #358 ) ;
#2 = ADVANCED_FACE ( 'NONE', ( #698 ), #68, .F. ) ;
#3 = CARTESIAN_POINT ( 'NONE',  ( -11.00000000000000355, -18.00000000000000355, 3.000000000000000000 ) ) ;
#4 = DIRECTION ( 'NONE',  ( 1.122448683923081701E-17, -0.2588190451025149108, 0.9659258262890698665 ) ) ;
#5 = DIRECTION ( 'NONE',  ( 0.000000000000000000, -0.9659258262890698665, -0.2588190451025149108 ) ) ;
#6 = CARTESIAN_POINT ( 'NONE',  ( -11.00000000000000355, 5.000000000000000000, 3.000000000000000000 ) ) ;
#7 = EDGE_CURVE ( 'NONE', #1031, #816, #267, .T. ) ;
#8 = ORIENTED_EDGE ( 'NONE', *, *, #976, .F. ) ;
#9 = VECTOR ( 'NONE', #992, 999.9999999999998863 ) ;
#10 = CIRCLE ( 'NONE', #1060, 1.650000000000000355 ) ;
#11 = DIRECTION ( 'NONE',  ( 1.122448683923081856E-17, -0.2588190451025149663, 0.9659258262890698665 ) ) ;
#12 = FACE_BOUND ( 'NONE', #182, .T. ) ;
#13 = DIRECTION ( 'NONE',  ( 0.000000000000000000, 0.000000000000000000, 1.000000000000000000 ) ) ;
#14 = ORIENTED_EDGE ( 'NONE', *, *, #927, .T. ) ;
#15 = DIRECTION ( 'NONE',  ( 1.000000000000000000, 0.000000000000000000, 0.000000000000000000 ) ) ;
#16 = DIRECTION ( 'NONE',  ( 1.122448683923070916E-17, -0.2588190451025129679, 0.9659258262890703106 ) ) ;
#17 = DIRECTION ( 'NONE',  ( 0.000000000000000000, 0.2588190451025150773, -0.9659258262890698665 ) ) ;
#18 = ADVANCED_FACE ( 'NONE', ( #521 ), #338, .F. ) ;
#19 = VERTEX_POINT ( 'NONE', #965 ) ;
#20 = EDGE_CURVE ( 'NONE', #1040, #951, #1050, .T. ) ;
#21 = CYLINDRICAL_SURFACE ( 'NONE', #741, 0.9100000000000006972 ) ;
#22 = CARTESIAN_POINT ( 'NONE',  ( 10.99999999999999645, -5.000000000000000000, 0.000000000000000000 ) ) ;
#23 = ORIENTED_EDGE ( 'NONE', *, *, #889, .F. ) ;
#24 = AXIS2_PLACEMENT_3D ( 'NONE', #527, #1067, #815 ) ;
#25 = CIRCLE ( 'NONE', #83, 1.650000000000000355 ) ;
#26 = CARTESIAN_POINT ( 'NONE',  ( 10.00000000000000178, -3.684746216489130699, 15.20116389007051261 ) ) ;
#27 = CARTESIAN_POINT ( 'NONE',  ( -9.999999999999998224, -10.89451473659666370, 11.19875987667224848 ) ) ;
#28 = ORIENTED_EDGE ( 'NONE', *, *, #460, .F. ) ;
#29 = FACE_OUTER_BOUND ( 'NONE', #684, .T. ) ;
#30 = DIRECTION ( 'NONE',  ( 0.000000000000000000, 0.000000000000000000, 1.000000000000000000 ) ) ;
#31 = ORIENTED_EDGE ( 'NONE', *, *, #1012, .T. ) ;
#32 = ORIENTED_EDGE ( 'NONE', *, *, #832, .T. ) ;
#33 = DIRECTION ( 'NONE',  ( -1.000000000000000000, 0.000000000000000000, 1.162044386198209809E-17 ) ) ;
#34 = PLANE ( 'NONE',  #652 ) ;
#35 = ORIENTED_EDGE ( 'NONE', *, *, #572, .F. ) ;
#36 = ORIENTED_EDGE ( 'NONE', *, *, #1110, .F. ) ;
#37 = ADVANCED_FACE ( 'NONE', ( #1056 ), #249, .F. ) ;
#38 = CARTESIAN_POINT ( 'NONE',  ( 10.00000000000000178, -11.41215282680169096, 13.13061152925039288 ) ) ;
#39 = AXIS2_PLACEMENT_3D ( 'NONE', #797, #446, #74 ) ;
#40 = AXIS2_PLACEMENT_3D ( 'NONE', #375, #651, #1008 ) ;
#41 = LINE ( 'NONE', #954, #246 ) ;
#42 = VECTOR ( 'NONE', #516, 1000.000000000000114 ) ;
#43 = ORIENTED_EDGE ( 'NONE', *, *, #678, .F. ) ;
#44 = FACE_OUTER_BOUND ( 'NONE', #472, .T. ) ;
#45 = CARTESIAN_POINT ( 'NONE',  ( 21.41000000000000014, -24.68793553600458068, 7.502823912608338475 ) ) ;
#46 = ORIENTED_EDGE ( 'NONE', *, *, #7, .F. ) ;
#47 = EDGE_CURVE ( 'NONE', #985, #668, #156, .T. ) ;
#48 = ORIENTED_EDGE ( 'NONE', *, *, #453, .T. ) ;
#49 = ORIENTED_EDGE ( 'NONE', *, *, #942, .T. ) ;
#50 = DIRECTION ( 'NONE',  ( -1.000000000000000000, -0.000000000000000000, -0.000000000000000000 ) ) ;
#51 = EDGE_CURVE ( 'NONE', #349, #233, #178, .T. ) ;
#52 = DIRECTION ( 'NONE',  ( 4.189035517289861871E-17, -0.9659258262890698665, -0.2588190451025146888 ) ) ;
#53 = ORIENTED_EDGE ( 'NONE', *, *, #387, .F. ) ;
#54 = CARTESIAN_POINT ( 'NONE',  ( -21.41000000000000369, -23.44758862236350438, 9.905726227273055073 ) ) ;
#55 = PRODUCT_RELATED_PRODUCT_CATEGORY ( 'part', '', ( #1115 ) ) ;
#56 = AXIS2_PLACEMENT_3D ( 'NONE', #891, #425, #606 ) ;
#57 = FACE_BOUND ( 'NONE', #961, .T. ) ;
#58 = VECTOR ( 'NONE', #524, 1000.000000000000000 ) ;
#59 = VERTEX_POINT ( 'NONE', #171 ) ;
#60 = CARTESIAN_POINT ( 'NONE',  ( -25.00000000000000000, -27.31525378351085465, 6.798836109929498051 ) ) ;
#61 = VECTOR ( 'NONE', #649, 1000.000000000000000 ) ;
#62 = DIRECTION ( 'NONE',  ( 1.122448683923081856E-17, -0.2588190451025149663, 0.9659258262890698665 ) ) ;
#63 = ORIENTED_EDGE ( 'NONE', *, *, #929, .T. ) ;
#64 = FACE_OUTER_BOUND ( 'NONE', #600, .T. ) ;
#65 = CARTESIAN_POINT ( 'NONE',  ( -9.999999999999998224, -20.10548526340333098, 10.80124012332775507 ) ) ;
#66 = EDGE_CURVE ( 'NONE', #439, #831, #692, .T. ) ;
#67 = ORIENTED_EDGE ( 'NONE', *, *, #471, .F. ) ;
#68 = PLANE ( 'NONE',  #227 ) ;
#69 = SURFACE_STYLE_USAGE ( .BOTH. , #1143 ) ;
#70 = ORIENTED_EDGE ( 'NONE', *, *, #453, .F. ) ;
#71 = CARTESIAN_POINT ( 'NONE',  ( -9.999999999999998224, -19.58784717319829838, 8.869388470749616005 ) ) ;
#72 = CARTESIAN_POINT ( 'NONE',  ( 10.99999999999999645, -5.000000000000000000, 3.000000000000000000 ) ) ;
#73 = ORIENTED_EDGE ( 'NONE', *, *, #490, .T. ) ;
#74 = DIRECTION ( 'NONE',  ( 0.000000000000000000, -0.9659258262890699775, -0.2588190451025148553 ) ) ;
#75 = FACE_OUTER_BOUND ( 'NONE', #251, .T. ) ;
#76 = ORIENTED_EDGE ( 'NONE', *, *, #943, .T. ) ;
#77 = EDGE_CURVE ( 'NONE', #523, #400, #91, .T. ) ;
#78 = LINE ( 'NONE', #780, #612 ) ;
#79 = LINE ( 'NONE', #1049, #179 ) ;
#80 = AXIS2_PLACEMENT_3D ( 'NONE', #926, #376, #201 ) ;
#81 = ORIENTED_EDGE ( 'NONE', *, *, #611, .F. ) ;
#82 = PLANE ( 'NONE',  #105 ) ;
#83 = AXIS2_PLACEMENT_3D ( 'NONE', #259, #154, #1070 ) ;
#84 = CARTESIAN_POINT ( 'NONE',  ( -25.00000000000000000, -27.83289187371588014, 8.730687762507633565 ) ) ;
#85 = VECTOR ( 'NONE', #718, 1000.000000000000000 ) ;
#86 = ORIENTED_EDGE ( 'NONE', *, *, #364, .F. ) ;
#87 = EDGE_CURVE ( 'NONE', #985, #405, #623, .T. ) ;
#88 = CARTESIAN_POINT ( 'NONE',  ( 21.41000000000000014, -6.312064463995400665, 14.49717608739166863 ) ) ;
#89 = DIRECTION ( 'NONE',  ( -0.000000000000000000, -1.000000000000000000, -0.000000000000000000 ) ) ;
#90 = ORIENTED_EDGE ( 'NONE', *, *, #813, .T. ) ;
#91 = LINE ( 'NONE', #345, #302 ) ;
#92 = EDGE_CURVE ( 'NONE', #707, #396, #609, .T. ) ;
#93 = CARTESIAN_POINT ( 'NONE',  ( 10.00000000000000178, -18.81139003789075304, 5.971610991882404740 ) ) ;
#94 = ORIENTED_EDGE ( 'NONE', *, *, #1136, .T. ) ;
#95 = CARTESIAN_POINT ( 'NONE',  ( 21.41000000000000014, -15.68301726928805451, -19.07204856139903981 ) ) ;
#96 = FACE_OUTER_BOUND ( 'NONE', #753, .T. ) ;
#97 = EDGE_CURVE ( 'NONE', #126, #59, #255, .T. ) ;
#98 = CARTESIAN_POINT ( 'NONE',  ( -25.00000000000000000, -27.31525378351085465, 6.798836109929498051 ) ) ;
#99 = ORIENTED_EDGE ( 'NONE', *, *, #927, .F. ) ;
#100 = CARTESIAN_POINT ( 'NONE',  ( 10.99999999999999645, -18.00000000000000355, 0.000000000000000000 ) ) ;
#101 = CARTESIAN_POINT ( 'NONE',  ( -25.00000000000000000, -27.83289187371588014, 8.730687762507633565 ) ) ;
#102 = CARTESIAN_POINT ( 'NONE',  ( -9.999999999999998224, -27.31525378351085465, 6.798836109929498051 ) ) ;
#103 = PRODUCT_CONTEXT ( 'NONE', #228, 'mechanical' ) ;
#104 = ORIENTED_EDGE ( 'NONE', *, *, #842, .F. ) ;
#105 = AXIS2_PLACEMENT_3D ( 'NONE', #1142, #440, #807 ) ;
#106 = VECTOR ( 'NONE', #1103, 999.9999999999998863 ) ;
#107 = LINE ( 'NONE', #539, #61 ) ;
#108 = VECTOR ( 'NONE', #162, 1000.000000000000000 ) ;
#109 = ADVANCED_FACE ( 'NONE', ( #186 ), #82, .F. ) ;
#110 = LINE ( 'NONE', #726, #872 ) ;
#111 = DIRECTION ( 'NONE',  ( 0.000000000000000000, -0.9659258262890693114, -0.2588190451025166317 ) ) ;
#112 = EDGE_CURVE ( 'NONE', #979, #1154, #211, .T. ) ;
#113 = EDGE_LOOP ( 'NONE', ( #141, #748, #759, #1066 ) ) ;
#114 = DIRECTION ( 'NONE',  ( 1.122448683923081856E-17, -0.2588190451025149663, 0.9659258262890698665 ) ) ;
#115 = PLANE ( 'NONE',  #158 ) ;
#116 = LINE ( 'NONE', #284, #758 ) ;
#117 =( NAMED_UNIT ( * ) SI_UNIT ( $, .STERADIAN. ) SOLID_ANGLE_UNIT ( ) );
#118 = ORIENTED_EDGE ( 'NONE', *, *, #619, .T. ) ;
#119 = CARTESIAN_POINT ( 'NONE',  ( -9.999999999999998224, -26.53879664820331286, 3.901058631062284565 ) ) ;
#120 = LINE ( 'NONE', #834, #931 ) ;
#121 = ORIENTED_EDGE ( 'NONE', *, *, #77, .T. ) ;
#122 = CIRCLE ( 'NONE', #80, 0.9100000000000002531 ) ;
#123 = VECTOR ( 'NONE', #4, 1000.000000000000114 ) ;
#124 = DIRECTION ( 'NONE',  ( 4.336808689942016503E-17, -1.000000000000000000, 0.000000000000000000 ) ) ;
#125 = CARTESIAN_POINT ( 'NONE',  ( -9.999999999999998224, -10.11805760128911658, 8.300982397805041657 ) ) ;
#126 = VERTEX_POINT ( 'NONE', #379 ) ;
#127 = EDGE_CURVE ( 'NONE', #233, #864, #457, .T. ) ;
#128 = DIRECTION ( 'NONE',  ( 0.000000000000000000, -0.9659258262890698665, -0.2588190451025148553 ) ) ;
#129 = FACE_BOUND ( 'NONE', #159, .T. ) ;
#130 = EDGE_CURVE ( 'NONE', #1011, #226, #910, .T. ) ;
#131 = ORIENTED_EDGE ( 'NONE', *, *, #1026, .F. ) ;
#132 = DIRECTION ( 'NONE',  ( 0.000000000000000000, 0.9659258262890698665, 0.2588190451025149663 ) ) ;
#133 = CARTESIAN_POINT ( 'NONE',  ( -11.00000000000000355, -18.00000000000000355, 3.000000000000000000 ) ) ;
#134 = ORIENTED_EDGE ( 'NONE', *, *, #669, .T. ) ;
#135 = CARTESIAN_POINT ( 'NONE',  ( -21.41000000000000014, -6.673418875713423404, 12.32979910377023991 ) ) ;
#136 = AXIS2_PLACEMENT_3D ( 'NONE', #125, #676, #1033 ) ;
#137 = EDGE_CURVE ( 'NONE', #452, #523, #116, .T. ) ;
#138 = VECTOR ( 'NONE', #679, 1000.000000000000000 ) ;
#139 = LINE ( 'NONE', #495, #801 ) ;
#140 = AXIS2_PLACEMENT_3D ( 'NONE', #1053, #1048, #1145 ) ;
#141 = ORIENTED_EDGE ( 'NONE', *, *, #130, .F. ) ;
#142 = ORIENTED_EDGE ( 'NONE', *, *, #734, .F. ) ;
#143 = ORIENTED_EDGE ( 'NONE', *, *, #994, .T. ) ;
#144 = LINE ( 'NONE', #866, #932 ) ;
#145 = DIRECTION ( 'NONE',  ( 0.000000000000000000, 0.9659258262890698665, 0.2588190451025148553 ) ) ;
#146 = ORIENTED_EDGE ( 'NONE', *, *, #490, .F. ) ;
#147 = EDGE_LOOP ( 'NONE', ( #786, #628, #1151, #677 ) ) ;
#148 = ORIENTED_EDGE ( 'NONE', *, *, #1150, .F. ) ;
#149 = CARTESIAN_POINT ( 'NONE',  ( -25.00000000000000000, -3.167108126284102543, 13.26931223749236644 ) ) ;
#150 = LINE ( 'NONE', #1153, #458 ) ;
#151 = ORIENTED_EDGE ( 'NONE', *, *, #347, .T. ) ;
#152 = CARTESIAN_POINT ( 'NONE',  ( -2.500000000000000000, -13.00000000000000178, 11.00000000000000000 ) ) ;
#153 = ORIENTED_EDGE ( 'NONE', *, *, #845, .F. ) ;
#154 = DIRECTION ( 'NONE',  ( 0.000000000000000000, 0.000000000000000000, 1.000000000000000000 ) ) ;
#155 = ADVANCED_FACE ( 'NONE', ( #1085 ), #564, .F. ) ;
#156 = CIRCLE ( 'NONE', #380, 1.650000000000000355 ) ;
#157 = DIRECTION ( 'NONE',  ( -0.000000000000000000, -0.000000000000000000, -1.000000000000000000 ) ) ;
#158 = AXIS2_PLACEMENT_3D ( 'NONE', #925, #922, #278 ) ;
#159 = EDGE_LOOP ( 'NONE', ( #586, #257 ) ) ;
#160 = ORIENTED_EDGE ( 'NONE', *, *, #364, .T. ) ;
#161 = ORIENTED_EDGE ( 'NONE', *, *, #505, .T. ) ;
#162 = DIRECTION ( 'NONE',  ( -0.000000000000000000, -0.000000000000000000, -1.000000000000000000 ) ) ;
#163 = DIRECTION ( 'NONE',  ( 1.122448683923081856E-17, -0.2588190451025149663, 0.9659258262890698665 ) ) ;
#164 = EDGE_CURVE ( 'NONE', #1052, #760, #122, .T. ) ;
#165 = ORIENTED_EDGE ( 'NONE', *, *, #503, .T. ) ;
#166 = CARTESIAN_POINT ( 'NONE',  ( 21.41000000000000014, -8.070049467841508672, 14.02612542530509465 ) ) ;
#167 = ORIENTED_EDGE ( 'NONE', *, *, #334, .F. ) ;
#168 = CARTESIAN_POINT ( 'NONE',  ( 10.99999999999999645, 5.000000000000000000, 3.000000000000000000 ) ) ;
#169 = PLANE ( 'NONE',  #212 ) ;
#170 = EDGE_LOOP ( 'NONE', ( #507, #1019, #49, #326 ) ) ;
#171 = CARTESIAN_POINT ( 'NONE',  ( 2.500000000000000000, -13.00000000000000178, 10.63459680066770829 ) ) ;
#172 = DIRECTION ( 'NONE',  ( 1.122448683923080777E-17, -0.2588190451025147443, 0.9659258262890698665 ) ) ;
#173 = ORIENTED_EDGE ( 'NONE', *, *, #1054, .F. ) ;
#174 = DIRECTION ( 'NONE',  ( -0.000000000000000000, -0.000000000000000000, -1.000000000000000000 ) ) ;
#175 = DIRECTION ( 'NONE',  ( 0.000000000000000000, 0.000000000000000000, -1.000000000000000000 ) ) ;
#176 = EDGE_CURVE ( 'NONE', #1078, #1069, #1090, .T. ) ;
#177 = CIRCLE ( 'NONE', #1156, 0.9100000000000002531 ) ;
#178 = LINE ( 'NONE', #536, #9 ) ;
#179 = VECTOR ( 'NONE', #157, 1000.000000000000000 ) ;
#180 = DIRECTION ( 'NONE',  ( -4.189035517289861255E-17, 0.9659258262890698665, 0.2588190451025148553 ) ) ;
#181 = AXIS2_PLACEMENT_3D ( 'NONE', #1046, #348, #1059 ) ;
#182 = EDGE_LOOP ( 'NONE', ( #776, #431 ) ) ;
#183 = EDGE_CURVE ( 'NONE', #410, #681, #552, .T. ) ;
#184 = CYLINDRICAL_SURFACE ( 'NONE', #804, 0.9100000000000003642 ) ;
#185 = DIRECTION ( 'NONE',  ( -2.696301922142130536E-33, 0.9659258262890699775, 0.2588190451025147443 ) ) ;
#186 = FACE_OUTER_BOUND ( 'NONE', #303, .T. ) ;
#187 = VERTEX_POINT ( 'NONE', #1014 ) ;
#188 = LINE ( 'NONE', #907, #779 ) ;
#189 = LINE ( 'NONE', #464, #230 ) ;
#190 = CARTESIAN_POINT ( 'NONE',  ( -25.00000000000000000, -3.167108126284102543, 13.26931223749236644 ) ) ;
#191 = ORIENTED_EDGE ( 'NONE', *, *, #176, .T. ) ;
#192 = LINE ( 'NONE', #3, #1137 ) ;
#193 = EDGE_CURVE ( 'NONE', #359, #405, #1006, .T. ) ;
#194 = DIRECTION ( 'NONE',  ( 0.000000000000000000, -0.9659258262890699775, -0.2588190451025148553 ) ) ;
#195 = CARTESIAN_POINT ( 'NONE',  ( 21.41000000000000014, -16.56200977121110895, -19.30757389244233124 ) ) ;
#196 = EDGE_LOOP ( 'NONE', ( #161, #142, #35, #806 ) ) ;
#197 = AXIS2_PLACEMENT_3D ( 'NONE', #657, #923, #904 ) ;
#198 = VECTOR ( 'NONE', #645, 1000.000000000000000 ) ;
#199 = LINE ( 'NONE', #735, #875 ) ;
#200 = LINE ( 'NONE', #559, #322 ) ;
#201 = DIRECTION ( 'NONE',  ( 0.000000000000000000, -0.9659258262890698665, -0.2588190451025148553 ) ) ;
#202 = ADVANCED_FACE ( 'NONE', ( #274 ), #1003, .F. ) ;
#203 = VERTEX_POINT ( 'NONE', #451 ) ;
#204 = FACE_OUTER_BOUND ( 'NONE', #700, .T. ) ;
#205 = DIRECTION ( 'NONE',  ( 1.122448683923081856E-17, -0.2588190451025149663, 0.9659258262890698665 ) ) ;
#206 = ORIENTED_EDGE ( 'NONE', *, *, #221, .F. ) ;
#207 = CARTESIAN_POINT ( 'NONE',  ( -21.41000000000000014, -7.552411377636476075, 12.09427377272694848 ) ) ;
#208 = DIRECTION ( 'NONE',  ( -4.189035517289864953E-17, 0.9659258262890704216, 0.2588190451025130234 ) ) ;
#209 = ADVANCED_FACE ( 'NONE', ( #737 ), #386, .F. ) ;
#210 = ORIENTED_EDGE ( 'NONE', *, *, #283, .F. ) ;
#211 = CIRCLE ( 'NONE', #701, 0.9100000000000002531 ) ;
#212 = AXIS2_PLACEMENT_3D ( 'NONE', #984, #175, #788 ) ;
#213 = EDGE_CURVE ( 'NONE', #19, #589, #885, .T. ) ;
#214 = CARTESIAN_POINT ( 'NONE',  ( -2.500000000000000000, -13.00000000000000178, 10.63459680066770829 ) ) ;
#215 = DIRECTION ( 'NONE',  ( -1.000000000000000000, 0.000000000000000000, 0.000000000000000000 ) ) ;
#216 = ORIENTED_EDGE ( 'NONE', *, *, #963, .T. ) ;
#217 = ORIENTED_EDGE ( 'NONE', *, *, #959, .F. ) ;
#218 = LINE ( 'NONE', #573, #1114 ) ;
#219 = CARTESIAN_POINT ( 'NONE',  ( -6.650000000000001243, 0.000000000000000000, 3.000000000000000000 ) ) ;
#220 = ORIENTED_EDGE ( 'NONE', *, *, #942, .F. ) ;
#221 = EDGE_CURVE ( 'NONE', #19, #745, #553, .T. ) ;
#222 = EDGE_CURVE ( 'NONE', #789, #841, #120, .T. ) ;
#223 = DIRECTION ( 'NONE',  ( 0.000000000000000000, 0.000000000000000000, 1.000000000000000000 ) ) ;
#224 = ADVANCED_FACE ( 'NONE', ( #819 ), #474, .F. ) ;
#225 = DIRECTION ( 'NONE',  ( 1.122448683923081701E-17, -0.2588190451025149108, 0.9659258262890698665 ) ) ;
#226 = VERTEX_POINT ( 'NONE', #839 ) ;
#227 = AXIS2_PLACEMENT_3D ( 'NONE', #615, #790, #268 ) ;
#228 = APPLICATION_CONTEXT ( 'automotive_design' ) ;
#229 = DIRECTION ( 'NONE',  ( 4.189035517289861871E-17, -0.9659258262890698665, -0.2588190451025150773 ) ) ;
#230 = VECTOR ( 'NONE', #16, 1000.000000000000227 ) ;
#231 = CIRCLE ( 'NONE', #384, 0.9100000000000002531 ) ;
#232 = CARTESIAN_POINT ( 'NONE',  ( 21.41000000000000014, -7.191056965918454225, 14.26165075634838253 ) ) ;
#233 = VERTEX_POINT ( 'NONE', #27 ) ;
#234 = ORIENTED_EDGE ( 'NONE', *, *, #77, .F. ) ;
#235 = LINE ( 'NONE', #149, #1098 ) ;
#236 = PLANE ( 'NONE',  #436 ) ;
#237 = EDGE_LOOP ( 'NONE', ( #688, #121, #945, #880 ) ) ;
#238 = CARTESIAN_POINT ( 'NONE',  ( -21.41000000000000014, -8.070049467841508672, 14.02612542530509465 ) ) ;
#239 = DIRECTION ( 'NONE',  ( 0.000000000000000000, -0.000000000000000000, -1.000000000000000000 ) ) ;
#240 = EDGE_CURVE ( 'NONE', #831, #1069, #371, .T. ) ;
#241 = ORIENTED_EDGE ( 'NONE', *, *, #87, .T. ) ;
#242 = LINE ( 'NONE', #426, #1009 ) ;
#243 = ORIENTED_EDGE ( 'NONE', *, *, #1096, .T. ) ;
#244 = DIRECTION ( 'NONE',  ( 1.122448683923081856E-17, -0.2588190451025149663, 0.9659258262890698665 ) ) ;
#245 = ADVANCED_FACE ( 'NONE', ( #1105 ), #660, .F. ) ;
#246 = VECTOR ( 'NONE', #1116, 1000.000000000000114 ) ;
#247 = DIRECTION ( 'NONE',  ( 0.000000000000000000, -0.9659258262890698665, -0.2588190451025149663 ) ) ;
#248 = AXIS2_PLACEMENT_3D ( 'NONE', #1017, #936, #128 ) ;
#249 = CYLINDRICAL_SURFACE ( 'NONE', #39, 0.9100000000000003642 ) ;
#250 = DIRECTION ( 'NONE',  ( 1.000000000000000000, 2.905110965495467130E-18, -1.084202172485481785E-17 ) ) ;
#251 = EDGE_LOOP ( 'NONE', ( #99, #339, #1138, #153 ) ) ;
#252 = LINE ( 'NONE', #787, #1080 ) ;
#253 = DIRECTION ( 'NONE',  ( 0.000000000000000000, -0.9659258262890698665, -0.2588190451025148553 ) ) ;
#254 = ORIENTED_EDGE ( 'NONE', *, *, #976, .T. ) ;
#255 = LINE ( 'NONE', #784, #724 ) ;
#256 = CARTESIAN_POINT ( 'NONE',  ( -2.500000000000000000, -18.00000000000000355, 9.294850838512127567 ) ) ;
#257 = ORIENTED_EDGE ( 'NONE', *, *, #1034, .F. ) ;
#258 = EDGE_CURVE ( 'NONE', #1040, #452, #732, .T. ) ;
#259 = CARTESIAN_POINT ( 'NONE',  ( -5.000000000000000888, 0.000000000000000000, 0.000000000000000000 ) ) ;
#260 = DIRECTION ( 'NONE',  ( -1.084202172485481785E-17, 0.000000000000000000, -1.000000000000000000 ) ) ;
#261 = ORIENTED_EDGE ( 'NONE', *, *, #577, .F. ) ;
#262 = EDGE_LOOP ( 'NONE', ( #131, #344 ) ) ;
#263 = EDGE_CURVE ( 'NONE', #1154, #979, #177, .T. ) ;
#264 = ORIENTED_EDGE ( 'NONE', *, *, #558, .T. ) ;
#265 = LINE ( 'NONE', #360, #743 ) ;
#266 = LINE ( 'NONE', #38, #512 ) ;
#267 = CIRCLE ( 'NONE', #56, 1.650000000000000355 ) ;
#268 = DIRECTION ( 'NONE',  ( 1.084202172485481785E-17, 0.000000000000000000, 1.000000000000000000 ) ) ;
#269 = CIRCLE ( 'NONE', #248, 0.9100000000000002531 ) ;
#270 = CIRCLE ( 'NONE', #181, 1.650000000000000355 ) ;
#271 = VERTEX_POINT ( 'NONE', #306 ) ;
#272 = FACE_OUTER_BOUND ( 'NONE', #442, .T. ) ;
#273 = CARTESIAN_POINT ( 'NONE',  ( 21.41000000000000014, 1.452506889080048547, -14.48059870128042270 ) ) ;
#274 = FACE_OUTER_BOUND ( 'NONE', #955, .T. ) ;
#275 = ORIENTED_EDGE ( 'NONE', *, *, #1084, .T. ) ;
#276 = EDGE_CURVE ( 'NONE', #439, #523, #41, .T. ) ;
#277 = CARTESIAN_POINT ( 'NONE',  ( 21.41000000000000014, -25.20557362620961328, 9.434675565186479318 ) ) ;
#278 = DIRECTION ( 'NONE',  ( 0.000000000000000000, -0.9659258262890699775, -0.2588190451025147443 ) ) ;
#279 = DIRECTION ( 'NONE',  ( -1.000000000000000000, 0.000000000000000000, 0.000000000000000000 ) ) ;
#280 = VERTEX_POINT ( 'NONE', #480 ) ;
#281 = CARTESIAN_POINT ( 'NONE',  ( 0.000000000000000000, 0.000000000000000000, 3.000000000000000000 ) ) ;
#282 = CARTESIAN_POINT ( 'NONE',  ( -21.41000000000000369, -16.56200977121110895, -19.30757389244232769 ) ) ;
#283 = EDGE_CURVE ( 'NONE', #1128, #354, #1029, .T. ) ;
#284 = CARTESIAN_POINT ( 'NONE',  ( 10.00000000000000178, -20.10548526340333098, 10.80124012332775507 ) ) ;
#285 = AXIS2_PLACEMENT_3D ( 'NONE', #1126, #1071, #260 ) ;
#286 = ORIENTED_EDGE ( 'NONE', *, *, #276, .F. ) ;
#287 = VECTOR ( 'NONE', #560, 1000.000000000000000 ) ;
#288 = AXIS2_PLACEMENT_3D ( 'NONE', #1146, #805, #444 ) ;
#289 =( GEOMETRIC_REPRESENTATION_CONTEXT ( 3 ) GLOBAL_UNCERTAINTY_ASSIGNED_CONTEXT ( ( #1157 ) ) GLOBAL_UNIT_ASSIGNED_CONTEXT ( ( #466, #911, #117 ) ) REPRESENTATION_CONTEXT ( 'NONE', 'WORKASPACE' ) );
#290 = DIRECTION ( 'NONE',  ( 1.122448683923081856E-17, -0.2588190451025149663, 0.9659258262890698665 ) ) ;
#291 = DIRECTION ( 'NONE',  ( 4.189035517289861871E-17, -0.9659258262890698665, -0.2588190451025150773 ) ) ;
#292 = UNCERTAINTY_MEASURE_WITH_UNIT (LENGTH_MEASURE( 1.000000000000000082E-05 ), #624, 'distance_accuracy_value', 'NONE');
#293 = ORIENTED_EDGE ( 'NONE', *, *, #577, .T. ) ;
#294 = EDGE_CURVE ( 'NONE', #745, #951, #300, .T. ) ;
#295 = CARTESIAN_POINT ( 'NONE',  ( 21.41000000000000014, -17.44100227313416340, -19.54309922348561912 ) ) ;
#296 = DIRECTION ( 'NONE',  ( 1.122448683923081701E-17, -0.2588190451025149108, 0.9659258262890698665 ) ) ;
#297 = VERTEX_POINT ( 'NONE', #663 ) ;
#298 = EDGE_CURVE ( 'NONE', #297, #1135, #395, .T. ) ;
#299 = CARTESIAN_POINT ( 'NONE',  ( -25.00000000000000000, -1.084202172485504434E-15, 7.360219264864538946E-63 ) ) ;
#300 = LINE ( 'NONE', #594, #362 ) ;
#301 = EDGE_LOOP ( 'NONE', ( #956, #489, #755, #647, #32, #502, #827, #1106, #920, #682, #393, #319 ) ) ;
#302 = VECTOR ( 'NONE', #541, 1000.000000000000000 ) ;
#303 = EDGE_LOOP ( 'NONE', ( #337, #1163, #143, #999 ) ) ;
#304 = VECTOR ( 'NONE', #592, 1000.000000000000114 ) ;
#305 = CYLINDRICAL_SURFACE ( 'NONE', #437, 0.9100000000000003642 ) ;
#306 = CARTESIAN_POINT ( 'NONE',  ( 21.41000000000000014, -23.44758862236350438, 9.905726227273053297 ) ) ;
#307 = ORIENTED_EDGE ( 'NONE', *, *, #130, .T. ) ;
#308 = EDGE_CURVE ( 'NONE', #1128, #1, #849, .T. ) ;
#309 = ORIENTED_EDGE ( 'NONE', *, *, #87, .F. ) ;
#310 = EDGE_CURVE ( 'NONE', #668, #985, #1038, .T. ) ;
#311 = CARTESIAN_POINT ( 'NONE',  ( -25.00000000000000000, -3.167108126284102543, 13.26931223749236644 ) ) ;
#312 = PLANE ( 'NONE',  #136 ) ;
#313 = EDGE_LOOP ( 'NONE', ( #1036, #720, #73, #847 ) ) ;
#314 = ORIENTED_EDGE ( 'NONE', *, *, #1084, .F. ) ;
#315 = ORIENTED_EDGE ( 'NONE', *, *, #137, .T. ) ;
#316 = CARTESIAN_POINT ( 'NONE',  ( -11.00000000000000355, -18.00000000000000355, 3.000000000000000000 ) ) ;
#317 = FACE_OUTER_BOUND ( 'NONE', #710, .T. ) ;
#318 = ORIENTED_EDGE ( 'NONE', *, *, #782, .T. ) ;
#319 = ORIENTED_EDGE ( 'NONE', *, *, #808, .T. ) ;
#320 = ORIENTED_EDGE ( 'NONE', *, *, #137, .F. ) ;
#321 = DIRECTION ( 'NONE',  ( 1.122448683923081856E-17, -0.2588190451025149663, 0.9659258262890698665 ) ) ;
#322 = VECTOR ( 'NONE', #1076, 1000.000000000000000 ) ;
#323 = VECTOR ( 'NONE', #1081, 1000.000000000000000 ) ;
#324 = LINE ( 'NONE', #133, #1113 ) ;
#325 = ORIENTED_EDGE ( 'NONE', *, *, #542, .F. ) ;
#326 = ORIENTED_EDGE ( 'NONE', *, *, #263, .T. ) ;
#327 = CARTESIAN_POINT ( 'NONE',  ( -25.00000000000000000, -27.31525378351085465, 6.798836109929498051 ) ) ;
#328 = DIRECTION ( 'NONE',  ( 0.000000000000000000, 0.000000000000000000, 1.000000000000000000 ) ) ;
#329 = ADVANCED_FACE ( 'NONE', ( #129, #672, #867, #391, #317 ), #34, .F. ) ;
#330 = CARTESIAN_POINT ( 'NONE',  ( -11.00000000000000355, 5.000000000000000000, 3.000000000000000000 ) ) ;
#331 = EDGE_LOOP ( 'NONE', ( #467, #1127, #1074, #160, #434, #587, #752, #1061 ) ) ;
#332 = DIRECTION ( 'NONE',  ( -0.000000000000000000, -0.000000000000000000, -1.000000000000000000 ) ) ;
#333 = EDGE_LOOP ( 'NONE', ( #206, #543, #31, #243 ) ) ;
#334 = EDGE_CURVE ( 'NONE', #850, #1031, #680, .T. ) ;
#335 = DIRECTION ( 'NONE',  ( 1.122448683923081856E-17, -0.2588190451025149663, 0.9659258262890698665 ) ) ;
#336 = DIRECTION ( 'NONE',  ( -0.000000000000000000, -0.9659258262890699775, -0.2588190451025147998 ) ) ;
#337 = ORIENTED_EDGE ( 'NONE', *, *, #97, .F. ) ;
#338 = PLANE ( 'NONE',  #837 ) ;
#339 = ORIENTED_EDGE ( 'NONE', *, *, #694, .T. ) ;
#340 = FACE_OUTER_BOUND ( 'NONE', #462, .T. ) ;
#341 = AXIS2_PLACEMENT_3D ( 'NONE', #195, #205, #111 ) ;
#342 = CARTESIAN_POINT ( 'NONE',  ( 10.00000000000000178, -19.58784717319829838, 8.869388470749616005 ) ) ;
#343 = AXIS2_PLACEMENT_3D ( 'NONE', #1093, #991, #829 ) ;
#344 = ORIENTED_EDGE ( 'NONE', *, *, #929, .F. ) ;
#345 = CARTESIAN_POINT ( 'NONE',  ( -9.999999999999998224, -20.10548526340333098, 10.80124012332775507 ) ) ;
#346 = AXIS2_PLACEMENT_3D ( 'NONE', #702, #321, #1161 ) ;
#347 = EDGE_CURVE ( 'NONE', #1042, #187, #1133, .T. ) ;
#348 = DIRECTION ( 'NONE',  ( 0.000000000000000000, 0.000000000000000000, 1.000000000000000000 ) ) ;
#349 = VERTEX_POINT ( 'NONE', #501 ) ;
#350 = LINE ( 'NONE', #711, #896 ) ;
#351 = LINE ( 'NONE', #330, #761 ) ;
#352 = DIRECTION ( 'NONE',  ( 1.122448683923081856E-17, -0.2588190451025149663, 0.9659258262890698665 ) ) ;
#353 = CYLINDRICAL_SURFACE ( 'NONE', #571, 1.650000000000000355 ) ;
#354 = VERTEX_POINT ( 'NONE', #757 ) ;
#355 = DIRECTION ( 'NONE',  ( 0.000000000000000000, 0.000000000000000000, -1.000000000000000000 ) ) ;
#356 = CARTESIAN_POINT ( 'NONE',  ( -2.500000000000000000, -13.00000000000000178, 3.000000000000000000 ) ) ;
#357 = ADVANCED_BREP_SHAPE_REPRESENTATION ( 'ul', ( #1104, #1062 ), #289 ) ;
#358 = CARTESIAN_POINT ( 'NONE',  ( -25.00000000000000000, -3.167108126284102543, 13.26931223749236644 ) ) ;
#359 = VERTEX_POINT ( 'NONE', #579 ) ;
#360 = CARTESIAN_POINT ( 'NONE',  ( -25.00000000000000000, -27.31525378351085465, 6.798836109929498051 ) ) ;
#361 = FACE_BOUND ( 'NONE', #565, .T. ) ;
#362 = VECTOR ( 'NONE', #52, 1000.000000000000114 ) ;
#363 = DIRECTION ( 'NONE',  ( 0.000000000000000000, 0.2588190451025149108, -0.9659258262890698665 ) ) ;
#364 = EDGE_CURVE ( 'NONE', #445, #368, #324, .T. ) ;
#365 = VECTOR ( 'NONE', #290, 1000.000000000000000 ) ;
#366 = APPLICATION_PROTOCOL_DEFINITION ( 'draft international standard', 'automotive_design', 1998, #228 ) ;
#367 = AXIS2_PLACEMENT_3D ( 'NONE', #1167, #114, #1075 ) ;
#368 = VERTEX_POINT ( 'NONE', #854 ) ;
#369 = CARTESIAN_POINT ( 'NONE',  ( 10.00000000000000178, -27.31525378351085820, 6.798836109929497162 ) ) ;
#370 = FACE_BOUND ( 'NONE', #938, .T. ) ;
#371 = LINE ( 'NONE', #102, #531 ) ;
#372 = VERTEX_POINT ( 'NONE', #485 ) ;
#373 = EDGE_CURVE ( 'NONE', #668, #359, #404, .T. ) ;
#374 = CARTESIAN_POINT ( 'NONE',  ( 25.00000000000000000, -27.31525378351085109, 6.798836109929498051 ) ) ;
#375 = CARTESIAN_POINT ( 'NONE',  ( -21.41000000000000369, -24.32658112428655528, 9.670200896229767196 ) ) ;
#376 = DIRECTION ( 'NONE',  ( 1.122448683923080777E-17, -0.2588190451025147443, 0.9659258262890698665 ) ) ;
#377 = ORIENTED_EDGE ( 'NONE', *, *, #650, .T. ) ;
#378 = FACE_BOUND ( 'NONE', #397, .T. ) ;
#379 = CARTESIAN_POINT ( 'NONE',  ( 2.500000000000000444, -18.00000000000000355, 9.294850838512127567 ) ) ;
#380 = AXIS2_PLACEMENT_3D ( 'NONE', #1169, #637, #432 ) ;
#381 = EDGE_LOOP ( 'NONE', ( #893, #773, #975, #76 ) ) ;
#382 = VECTOR ( 'NONE', #336, 999.9999999999998863 ) ;
#383 = ADVANCED_FACE ( 'NONE', ( #1122 ), #312, .F. ) ;
#384 = AXIS2_PLACEMENT_3D ( 'NONE', #443, #11, #811 ) ;
#385 = CARTESIAN_POINT ( 'NONE',  ( 2.500000000000000444, -18.00000000000000355, 3.000000000000000000 ) ) ;
#386 = CYLINDRICAL_SURFACE ( 'NONE', #914, 1.650000000000000355 ) ;
#387 = EDGE_CURVE ( 'NONE', #1052, #856, #139, .T. ) ;
#388 = ORIENTED_EDGE ( 'NONE', *, *, #347, .F. ) ;
#389 = APPLICATION_CONTEXT ( 'automotive_design' ) ;
#390 = CARTESIAN_POINT ( 'NONE',  ( -5.000000000000000888, 0.000000000000000000, 3.000000000000000000 ) ) ;
#391 = FACE_BOUND ( 'NONE', #1095, .T. ) ;
#392 = EDGE_LOOP ( 'NONE', ( #307, #673, #595, #898 ) ) ;
#393 = ORIENTED_EDGE ( 'NONE', *, *, #20, .F. ) ;
#394 = LINE ( 'NONE', #295, #894 ) ;
#395 = LINE ( 'NONE', #412, #510 ) ;
#396 = VERTEX_POINT ( 'NONE', #45 ) ;
#397 = EDGE_LOOP ( 'NONE', ( #318, #275 ) ) ;
#398 = ADVANCED_FACE ( 'NONE', ( #408 ), #771, .F. ) ;
#399 = AXIS2_PLACEMENT_3D ( 'NONE', #465, #291, #17 ) ;
#400 = VERTEX_POINT ( 'NONE', #599 ) ;
#401 = VECTOR ( 'NONE', #1100, 1000.000000000000000 ) ;
#402 = PRODUCT_DEFINITION_FORMATION_WITH_SPECIFIED_SOURCE ( 'ไป', '', #1115, .NOT_KNOWN. ) ;
#403 = DIRECTION ( 'NONE',  ( 0.000000000000000000, -0.9659258262890698665, -0.2588190451025148553 ) ) ;
#404 = LINE ( 'NONE', #687, #947 ) ;
#405 = VERTEX_POINT ( 'NONE', #884 ) ;
#406 = ADVANCED_FACE ( 'NONE', ( #897 ), #236, .F. ) ;
#407 = DIRECTION ( 'NONE',  ( 0.000000000000000000, 0.000000000000000000, -1.000000000000000000 ) ) ;
#408 = FACE_OUTER_BOUND ( 'NONE', #899, .T. ) ;
#409 = ORIENTED_EDGE ( 'NONE', *, *, #1096, .F. ) ;
#410 = VERTEX_POINT ( 'NONE', #888 ) ;
#411 = CYLINDRICAL_SURFACE ( 'NONE', #346, 0.9100000000000006972 ) ;
#412 = CARTESIAN_POINT ( 'NONE',  ( -2.500000000000000000, -12.90864920016693063, 10.65907417371091626 ) ) ;
#413 = EDGE_LOOP ( 'NONE', ( #665, #264, #1072, #220 ) ) ;
#414 = ADVANCED_FACE ( 'NONE', ( #795 ), #877, .F. ) ;
#415 = AXIS2_PLACEMENT_3D ( 'NONE', #1018, #5, #363 ) ;
#416 = CARTESIAN_POINT ( 'NONE',  ( -9.999999999999998224, -11.41215282680169096, 13.13061152925039288 ) ) ;
#417 = CIRCLE ( 'NONE', #513, 0.9100000000000002531 ) ;
#418 = CARTESIAN_POINT ( 'NONE',  ( -2.500000000000000000, -13.00000000000000178, 3.000000000000000000 ) ) ;
#419 = EDGE_CURVE ( 'NONE', #1086, #940, #725, .T. ) ;
#420 = DIRECTION ( 'NONE',  ( -1.000000000000000000, -2.905110965495463663E-18, 1.084202172485480707E-17 ) ) ;
#421 = LINE ( 'NONE', #998, #667 ) ;
#422 = ORIENTED_EDGE ( 'NONE', *, *, #858, .F. ) ;
#423 = CYLINDRICAL_SURFACE ( 'NONE', #570, 1.650000000000000355 ) ;
#424 = CARTESIAN_POINT ( 'NONE',  ( 25.00000000000000000, 1.084202172485504434E-15, 7.360219264864538946E-63 ) ) ;
#425 = DIRECTION ( 'NONE',  ( 0.000000000000000000, 0.000000000000000000, 1.000000000000000000 ) ) ;
#426 = CARTESIAN_POINT ( 'NONE',  ( -25.00000000000000000, -27.83289187371588014, 8.730687762507633565 ) ) ;
#427 = ORIENTED_EDGE ( 'NONE', *, *, #419, .F. ) ;
#428 = PLANE ( 'NONE',  #703 ) ;
#429 = CARTESIAN_POINT ( 'NONE',  ( -11.00000000000000355, 5.000000000000000000, 3.000000000000000000 ) ) ;
#430 = EDGE_CURVE ( 'NONE', #681, #410, #683, .T. ) ;
#431 = ORIENTED_EDGE ( 'NONE', *, *, #430, .T. ) ;
#432 = DIRECTION ( 'NONE',  ( -1.000000000000000000, 0.000000000000000000, 0.000000000000000000 ) ) ;
#433 = EDGE_CURVE ( 'NONE', #354, #864, #506, .T. ) ;
#434 = ORIENTED_EDGE ( 'NONE', *, *, #734, .T. ) ;
#435 = LINE ( 'NONE', #1139, #916 ) ;
#436 = AXIS2_PLACEMENT_3D ( 'NONE', #72, #958, #613 ) ;
#437 = AXIS2_PLACEMENT_3D ( 'NONE', #1107, #941, #584 ) ;
#438 = CARTESIAN_POINT ( 'NONE',  ( -11.00000000000000355, -5.000000000000000000, 0.000000000000000000 ) ) ;
#439 = VERTEX_POINT ( 'NONE', #342 ) ;
#440 = DIRECTION ( 'NONE',  ( -1.000000000000000000, -8.673617379884034239E-17, 0.000000000000000000 ) ) ;
#441 = LINE ( 'NONE', #974, #705 ) ;
#442 = EDGE_LOOP ( 'NONE', ( #729, #173, #509, #48, #1035, #86, #8, #146 ) ) ;
#443 = CARTESIAN_POINT ( 'NONE',  ( -21.41000000000000369, -24.32658112428655528, 9.670200896229767196 ) ) ;
#444 = DIRECTION ( 'NONE',  ( 0.000000000000000000, -0.2588190451025129679, 0.9659258262890703106 ) ) ;
#445 = VERTEX_POINT ( 'NONE', #697 ) ;
#446 = DIRECTION ( 'NONE',  ( 1.122448683923081856E-17, -0.2588190451025149663, 0.9659258262890698665 ) ) ;
#447 = PRESENTATION_STYLE_ASSIGNMENT (( #69 ) ) ;
#448 = ORIENTED_EDGE ( 'NONE', *, *, #1047, .T. ) ;
#449 = DIRECTION ( 'NONE',  ( 1.122448683923081856E-17, -0.2588190451025149663, 0.9659258262890698665 ) ) ;
#450 = CARTESIAN_POINT ( 'NONE',  ( 10.00000000000000178, -27.31525378351085465, 6.798836109929498051 ) ) ;
#451 = CARTESIAN_POINT ( 'NONE',  ( -11.00000000000000355, -18.00000000000000355, 0.000000000000000000 ) ) ;
#452 = VERTEX_POINT ( 'NONE', #691 ) ;
#453 = EDGE_CURVE ( 'NONE', #868, #1166, #351, .T. ) ;
#454 = DIRECTION ( 'NONE',  ( 1.000000000000000000, 4.336808689942017736E-17, -0.000000000000000000 ) ) ;
#455 = CARTESIAN_POINT ( 'NONE',  ( 10.99999999999999645, -18.00000000000000355, 3.000000000000000000 ) ) ;
#456 = VECTOR ( 'NONE', #1045, 1000.000000000000000 ) ;
#457 = LINE ( 'NONE', #997, #740 ) ;
#458 = VECTOR ( 'NONE', #870, 1000.000000000000000 ) ;
#459 = DIRECTION ( 'NONE',  ( -0.000000000000000000, -0.000000000000000000, -1.000000000000000000 ) ) ;
#460 = EDGE_CURVE ( 'NONE', #400, #814, #519, .T. ) ;
#461 = VECTOR ( 'NONE', #15, 1000.000000000000000 ) ;
#462 = EDGE_LOOP ( 'NONE', ( #890, #448, #63, #43 ) ) ;
#463 = CARTESIAN_POINT ( 'NONE',  ( 25.00000000000000000, -27.83289187371587659, 8.730687762507633565 ) ) ;
#464 = CARTESIAN_POINT ( 'NONE',  ( 25.00000000000000000, -27.31525378351085109, 6.798836109929498051 ) ) ;
#465 = CARTESIAN_POINT ( 'NONE',  ( -25.00000000000000000, -3.167108126284102543, 13.26931223749236644 ) ) ;
#466 =( LENGTH_UNIT ( ) NAMED_UNIT ( * ) SI_UNIT ( .MILLI., .METRE. ) );
#467 = ORIENTED_EDGE ( 'NONE', *, *, #749, .F. ) ;
#468 = DIRECTION ( 'NONE',  ( 4.189035517289861871E-17, -0.9659258262890698665, -0.2588190451025146888 ) ) ;
#469 = PLANE ( 'NONE',  #343 ) ;
#470 = CARTESIAN_POINT ( 'NONE',  ( 5.000000000000000888, 0.000000000000000000, 3.000000000000000000 ) ) ;
#471 = EDGE_CURVE ( 'NONE', #864, #841, #150, .T. ) ;
#472 = EDGE_LOOP ( 'NONE', ( #924, #939, #769, #583 ) ) ;
#473 = CARTESIAN_POINT ( 'NONE',  ( 10.99999999999999645, -18.00000000000000355, 3.000000000000000000 ) ) ;
#474 = PLANE ( 'NONE',  #399 ) ;
#475 = VECTOR ( 'NONE', #296, 1000.000000000000114 ) ;
#476 = ORIENTED_EDGE ( 'NONE', *, *, #263, .F. ) ;
#477 = AXIS2_PLACEMENT_3D ( 'NONE', #299, #566, #124 ) ;
#478 = AXIS2_PLACEMENT_3D ( 'NONE', #281, #355, #989 ) ;
#479 = CARTESIAN_POINT ( 'NONE',  ( 21.41000000000000014, -5.794426373790367180, 12.56532443481352246 ) ) ;
#480 = CARTESIAN_POINT ( 'NONE',  ( -21.41000000000000369, -25.20557362620960973, 9.434675565186481094 ) ) ;
#481 = ADVANCED_FACE ( 'NONE', ( #706 ), #1065, .F. ) ;
#482 = EDGE_LOOP ( 'NONE', ( #191, #733, #261, #422 ) ) ;
#483 = CARTESIAN_POINT ( 'NONE',  ( 2.500000000000000444, -18.00000000000000355, 11.00000000000000000 ) ) ;
#484 = ADVANCED_FACE ( 'NONE', ( #978, #533, #57 ), #169, .T. ) ;
#485 = CARTESIAN_POINT ( 'NONE',  ( -11.00000000000000355, 5.000000000000000000, 0.000000000000000000 ) ) ;
#486 = EDGE_LOOP ( 'NONE', ( #993, #886 ) ) ;
#487 = CARTESIAN_POINT ( 'NONE',  ( -21.41000000000000369, -24.68793553600458068, 7.502823912608342027 ) ) ;
#488 = CARTESIAN_POINT ( 'NONE',  ( -25.00000000000000000, -3.684746216489132475, 15.20116389007050550 ) ) ;
#489 = ORIENTED_EDGE ( 'NONE', *, *, #240, .T. ) ;
#490 = EDGE_CURVE ( 'NONE', #846, #526, #812, .T. ) ;
#491 = VECTOR ( 'NONE', #653, 1000.000000000000000 ) ;
#492 = AXIS2_PLACEMENT_3D ( 'NONE', #282, #540, #563 ) ;
#493 = AXIS2_PLACEMENT_3D ( 'NONE', #152, #1068, #900 ) ;
#494 = CYLINDRICAL_SURFACE ( 'NONE', #554, 1.650000000000000355 ) ;
#495 = CARTESIAN_POINT ( 'NONE',  ( -21.41000000000000369, -15.68301726928805451, -19.07204856139903626 ) ) ;
#496 = ORIENTED_EDGE ( 'NONE', *, *, #164, .T. ) ;
#497 = ORIENTED_EDGE ( 'NONE', *, *, #1119, .T. ) ;
#498 = PRODUCT_DEFINITION ( 'ๆ', '', #402, #528 ) ;
#499 = EDGE_LOOP ( 'NONE', ( #766, #1004, #81, #621 ) ) ;
#500 = CARTESIAN_POINT ( 'NONE',  ( 25.00000000000000000, -3.167108126284100322, 13.26931223749236644 ) ) ;
#501 = CARTESIAN_POINT ( 'NONE',  ( -9.999999999999998224, -3.167108126284101211, 13.26931223749236821 ) ) ;
#502 = ORIENTED_EDGE ( 'NONE', *, *, #51, .T. ) ;
#503 = EDGE_CURVE ( 'NONE', #868, #226, #79, .T. ) ;
#504 = CARTESIAN_POINT ( 'NONE',  ( 2.500000000000000000, -13.00000000000000178, 3.000000000000000000 ) ) ;
#505 = EDGE_CURVE ( 'NONE', #372, #203, #964, .T. ) ;
#506 = LINE ( 'NONE', #620, #382 ) ;
#507 = ORIENTED_EDGE ( 'NONE', *, *, #558, .F. ) ;
#508 = DIRECTION ( 'NONE',  ( 0.000000000000000000, -0.9659258262890698665, -0.2588190451025148553 ) ) ;
#509 = ORIENTED_EDGE ( 'NONE', *, *, #874, .T. ) ;
#510 = VECTOR ( 'NONE', #1023, 999.9999999999998863 ) ;
#511 = CARTESIAN_POINT ( 'NONE',  ( -2.500000000000000000, -18.00000000000000355, 11.00000000000000000 ) ) ;
#512 = VECTOR ( 'NONE', #132, 1000.000000000000114 ) ;
#513 = AXIS2_PLACEMENT_3D ( 'NONE', #602, #172, #508 ) ;
#514 = FACE_OUTER_BOUND ( 'NONE', #482, .T. ) ;
#515 = CARTESIAN_POINT ( 'NONE',  ( -11.00000000000000355, -5.000000000000000000, 3.000000000000000000 ) ) ;
#516 = DIRECTION ( 'NONE',  ( -1.122448683923082164E-17, 0.2588190451025150773, -0.9659258262890698665 ) ) ;
#517 = ORIENTED_EDGE ( 'NONE', *, *, #213, .F. ) ;
#518 = CARTESIAN_POINT ( 'NONE',  ( -6.650000000000001243, 0.000000000000000000, 3.000000000000000000 ) ) ;
#519 = LINE ( 'NONE', #65, #1022 ) ;
#520 = ADVANCED_FACE ( 'NONE', ( #514 ), #712, .F. ) ;
#521 = FACE_OUTER_BOUND ( 'NONE', #196, .T. ) ;
#522 = DIRECTION ( 'NONE',  ( -1.084202172485481785E-17, 0.000000000000000000, -1.000000000000000000 ) ) ;
#523 = VERTEX_POINT ( 'NONE', #1168 ) ;
#524 = DIRECTION ( 'NONE',  ( 0.000000000000000000, 1.000000000000000000, 0.000000000000000000 ) ) ;
#525 = DIRECTION ( 'NONE',  ( -1.000000000000000000, -0.000000000000000000, -0.000000000000000000 ) ) ;
#526 = VERTEX_POINT ( 'NONE', #356 ) ;
#527 = CARTESIAN_POINT ( 'NONE',  ( 21.41000000000000014, -23.80894303408152979, 7.738349243651629017 ) ) ;
#528 = PRODUCT_DEFINITION_CONTEXT ( 'detailed design', #389, 'design' ) ;
#529 = ORIENTED_EDGE ( 'NONE', *, *, #1026, .T. ) ;
#530 = DIRECTION ( 'NONE',  ( 1.122448683923070916E-17, -0.2588190451025129679, 0.9659258262890703106 ) ) ;
#531 = VECTOR ( 'NONE', #747, 999.9999999999998863 ) ;
#532 = CIRCLE ( 'NONE', #968, 0.9100000000000002531 ) ;
#533 = FACE_OUTER_BOUND ( 'NONE', #113, .T. ) ;
#534 = COLOUR_RGB ( '',0.7921568627450980005, 0.8196078431372548767, 0.9333333333333333481 ) ;
#535 = ORIENTED_EDGE ( 'NONE', *, *, #1034, .T. ) ;
#536 = CARTESIAN_POINT ( 'NONE',  ( -9.999999999999998224, -27.31525378351085465, 6.798836109929498051 ) ) ;
#537 = PLANE ( 'NONE',  #493 ) ;
#538 = EDGE_LOOP ( 'NONE', ( #118, #901, #1025, #638 ) ) ;
#539 = CARTESIAN_POINT ( 'NONE',  ( -21.41000000000000014, 1.452506889080048547, -14.48059870128042270 ) ) ;
#540 = DIRECTION ( 'NONE',  ( 1.122448683923081856E-17, -0.2588190451025149663, 0.9659258262890698665 ) ) ;
#541 = DIRECTION ( 'NONE',  ( -1.000000000000000000, -0.000000000000000000, -0.000000000000000000 ) ) ;
#542 = EDGE_CURVE ( 'NONE', #789, #19, #903, .T. ) ;
#543 = ORIENTED_EDGE ( 'NONE', *, *, #213, .T. ) ;
#544 = CARTESIAN_POINT ( 'NONE',  ( -2.500000000000000000, -13.00000000000000178, 3.000000000000000000 ) ) ;
#545 = LINE ( 'NONE', #273, #365 ) ;
#546 = ADVANCED_FACE ( 'NONE', ( #96 ), #731, .F. ) ;
#547 = CARTESIAN_POINT ( 'NONE',  ( 5.000000000000000888, 0.000000000000000000, 0.000000000000000000 ) ) ;
#548 = DIRECTION ( 'NONE',  ( 1.000000000000000000, 0.000000000000000000, 0.000000000000000000 ) ) ;
#549 = ORIENTED_EDGE ( 'NONE', *, *, #373, .T. ) ;
#550 = DIRECTION ( 'NONE',  ( -1.000000000000000000, -0.000000000000000000, -0.000000000000000000 ) ) ;
#551 = LINE ( 'NONE', #455, #838 ) ;
#552 = CIRCLE ( 'NONE', #197, 0.9100000000000002531 ) ;
#553 = LINE ( 'NONE', #190, #568 ) ;
#554 = AXIS2_PLACEMENT_3D ( 'NONE', #390, #578, #750 ) ;
#555 = CIRCLE ( 'NONE', #1117, 1.650000000000000355 ) ;
#556 = ORIENTED_EDGE ( 'NONE', *, *, #879, .F. ) ;
#557 = CARTESIAN_POINT ( 'NONE',  ( 2.500000000000000000, -13.00000000000000178, 3.000000000000000000 ) ) ;
#558 = EDGE_CURVE ( 'NONE', #681, #979, #545, .T. ) ;
#559 = CARTESIAN_POINT ( 'NONE',  ( -25.00000000000000000, -27.83289187371588014, 8.730687762507633565 ) ) ;
#560 = DIRECTION ( 'NONE',  ( 1.000000000000000000, 4.336808689942017736E-17, -0.000000000000000000 ) ) ;
#561 = ORIENTED_EDGE ( 'NONE', *, *, #222, .T. ) ;
#562 = ADVANCED_FACE ( 'NONE', ( #361, #909, #12, #378, #370, #1089 ), #115, .F. ) ;
#563 = DIRECTION ( 'NONE',  ( 0.000000000000000000, -0.9659258262890693114, -0.2588190451025166317 ) ) ;
#564 = PLANE ( 'NONE',  #855 ) ;
#565 = EDGE_LOOP ( 'NONE', ( #90, #496 ) ) ;
#566 = DIRECTION ( 'NONE',  ( -1.000000000000000000, -4.336808689942016503E-17, -2.002967142162725835E-32 ) ) ;
#567 = DIRECTION ( 'NONE',  ( -4.189035517289861255E-17, 0.9659258262890698665, 0.2588190451025148553 ) ) ;
#568 = VECTOR ( 'NONE', #1094, 1000.000000000000000 ) ;
#569 = EDGE_LOOP ( 'NONE', ( #596, #497, #617, #216 ) ) ;
#570 = AXIS2_PLACEMENT_3D ( 'NONE', #626, #983, #869 ) ;
#571 = AXIS2_PLACEMENT_3D ( 'NONE', #1051, #332, #798 ) ;
#572 = EDGE_CURVE ( 'NONE', #1166, #368, #739, .T. ) ;
#573 = CARTESIAN_POINT ( 'NONE',  ( -11.00000000000000355, 5.000000000000000000, 0.000000000000000000 ) ) ;
#574 = DIRECTION ( 'NONE',  ( 1.000000000000000000, 4.336808689942017736E-17, -0.000000000000000000 ) ) ;
#575 = EDGE_LOOP ( 'NONE', ( #625, #935 ) ) ;
#576 = VERTEX_POINT ( 'NONE', #473 ) ;
#577 = EDGE_CURVE ( 'NONE', #1118, #814, #634, .T. ) ;
#578 = DIRECTION ( 'NONE',  ( -0.000000000000000000, -0.000000000000000000, -1.000000000000000000 ) ) ;
#579 = CARTESIAN_POINT ( 'NONE',  ( 3.350000000000000533, 0.000000000000000000, 0.000000000000000000 ) ) ;
#580 = ADVANCED_FACE ( 'NONE', ( #818 ), #736, .F. ) ;
#581 = ORIENTED_EDGE ( 'NONE', *, *, #1136, .F. ) ;
#582 = EDGE_LOOP ( 'NONE', ( #94, #658 ) ) ;
#583 = ORIENTED_EDGE ( 'NONE', *, *, #308, .F. ) ;
#584 = DIRECTION ( 'NONE',  ( 0.000000000000000000, -0.9659258262890699775, -0.2588190451025148553 ) ) ;
#585 = CARTESIAN_POINT ( 'NONE',  ( 5.000000000000000888, 0.000000000000000000, 3.000000000000000000 ) ) ;
#586 = ORIENTED_EDGE ( 'NONE', *, *, #639, .F. ) ;
#587 = ORIENTED_EDGE ( 'NONE', *, *, #1058, .T. ) ;
#588 = VECTOR ( 'NONE', #895, 1000.000000000000000 ) ;
#589 = VERTEX_POINT ( 'NONE', #26 ) ;
#590 = CIRCLE ( 'NONE', #140, 0.9100000000000002531 ) ;
#591 = AXIS2_PLACEMENT_3D ( 'NONE', #696, #244, #610 ) ;
#592 = DIRECTION ( 'NONE',  ( 1.122448683923081701E-17, -0.2588190451025149108, 0.9659258262890698665 ) ) ;
#593 = ADVANCED_FACE ( 'NONE', ( #204 ), #469, .F. ) ;
#594 = CARTESIAN_POINT ( 'NONE',  ( 25.00000000000000000, -27.31525378351085109, 6.798836109929498051 ) ) ;
#595 = ORIENTED_EDGE ( 'NONE', *, *, #874, .F. ) ;
#596 = ORIENTED_EDGE ( 'NONE', *, *, #858, .T. ) ;
#597 = EDGE_CURVE ( 'NONE', #1011, #576, #551, .T. ) ;
#598 = CARTESIAN_POINT ( 'NONE',  ( 10.00000000000000178, -11.41215282680169096, 13.13061152925039288 ) ) ;
#599 = CARTESIAN_POINT ( 'NONE',  ( -9.999999999999998224, -20.10548526340333098, 10.80124012332775507 ) ) ;
#600 = EDGE_LOOP ( 'NONE', ( #1015, #241, #820, #906 ) ) ;
#601 = ORIENTED_EDGE ( 'NONE', *, *, #650, .F. ) ;
#602 = CARTESIAN_POINT ( 'NONE',  ( 21.41000000000000014, -23.80894303408152979, 7.738349243651629017 ) ) ;
#603 = ORIENTED_EDGE ( 'NONE', *, *, #298, .F. ) ;
#604 = DIRECTION ( 'NONE',  ( 1.000000000000000000, 0.000000000000000000, 0.000000000000000000 ) ) ;
#605 = DIRECTION ( 'NONE',  ( -1.000000000000000000, -4.336808689942016503E-17, -2.002967142162725835E-32 ) ) ;
#606 = DIRECTION ( 'NONE',  ( 1.000000000000000000, 0.000000000000000000, 0.000000000000000000 ) ) ;
#607 = PLANE ( 'NONE',  #840 ) ;
#608 = ORIENTED_EDGE ( 'NONE', *, *, #639, .T. ) ;
#609 = CIRCLE ( 'NONE', #24, 0.9100000000000002531 ) ;
#610 = DIRECTION ( 'NONE',  ( 0.000000000000000000, -0.9659258262890698665, -0.2588190451025148553 ) ) ;
#611 = EDGE_CURVE ( 'NONE', #1069, #814, #833, .T. ) ;
#612 = VECTOR ( 'NONE', #883, 1000.000000000000000 ) ;
#613 = DIRECTION ( 'NONE',  ( 0.000000000000000000, 0.000000000000000000, 1.000000000000000000 ) ) ;
#614 = ORIENTED_EDGE ( 'NONE', *, *, #193, .T. ) ;
#615 = CARTESIAN_POINT ( 'NONE',  ( -9.999999999999998224, -18.81139003789075304, 5.971610991882404740 ) ) ;
#616 = LINE ( 'NONE', #715, #42 ) ;
#617 = ORIENTED_EDGE ( 'NONE', *, *, #308, .T. ) ;
#618 = CARTESIAN_POINT ( 'NONE',  ( -5.000000000000000888, 0.000000000000000000, 3.000000000000000000 ) ) ;
#619 = EDGE_CURVE ( 'NONE', #349, #354, #110, .T. ) ;
#620 = CARTESIAN_POINT ( 'NONE',  ( -9.999999999999998224, -11.41215282680169096, 13.13061152925039288 ) ) ;
#621 = ORIENTED_EDGE ( 'NONE', *, *, #240, .F. ) ;
#622 = ADVANCED_FACE ( 'NONE', ( #836 ), #21, .F. ) ;
#623 = LINE ( 'NONE', #714, #800 ) ;
#624 =( LENGTH_UNIT ( ) NAMED_UNIT ( * ) SI_UNIT ( .MILLI., .METRE. ) );
#625 = ORIENTED_EDGE ( 'NONE', *, *, #310, .F. ) ;
#626 = CARTESIAN_POINT ( 'NONE',  ( 5.000000000000000888, 0.000000000000000000, 3.000000000000000000 ) ) ;
#627 = CARTESIAN_POINT ( 'NONE',  ( -21.41000000000000014, -7.191056965918454225, 14.26165075634838253 ) ) ;
#628 = ORIENTED_EDGE ( 'NONE', *, *, #258, .F. ) ;
#629 = CARTESIAN_POINT ( 'NONE',  ( -9.999999999999998224, -27.31525378351085820, 6.798836109929497162 ) ) ;
#630 = VERTEX_POINT ( 'NONE', #385 ) ;
#631 = DIRECTION ( 'NONE',  ( -1.000000000000000000, 0.000000000000000000, 1.162044386198209809E-17 ) ) ;
#632 = VECTOR ( 'NONE', #420, 1000.000000000000000 ) ;
#633 = AXIS2_PLACEMENT_3D ( 'NONE', #1001, #656, #194 ) ;
#634 = LINE ( 'NONE', #101, #198 ) ;
#635 = EDGE_CURVE ( 'NONE', #951, #1042, #189, .T. ) ;
#636 = CIRCLE ( 'NONE', #1082, 0.9100000000000002531 ) ;
#637 = DIRECTION ( 'NONE',  ( 0.000000000000000000, 0.000000000000000000, 1.000000000000000000 ) ) ;
#638 = ORIENTED_EDGE ( 'NONE', *, *, #51, .F. ) ;
#639 = EDGE_CURVE ( 'NONE', #280, #856, #988, .T. ) ;
#640 = DIRECTION ( 'NONE',  ( 0.000000000000000000, -0.9659258262890699775, -0.2588190451025148553 ) ) ;
#641 = CARTESIAN_POINT ( 'NONE',  ( -21.41000000000000369, -16.56200977121110895, -19.30757389244232769 ) ) ;
#642 = CARTESIAN_POINT ( 'NONE',  ( 10.00000000000000178, -2.390650990976556312, 10.37153475862516316 ) ) ;
#643 = ORIENTED_EDGE ( 'NONE', *, *, #1012, .F. ) ;
#644 = FACE_BOUND ( 'NONE', #575, .T. ) ;
#645 = DIRECTION ( 'NONE',  ( 1.000000000000000000, 4.336808689942017736E-17, -0.000000000000000000 ) ) ;
#646 = DIRECTION ( 'NONE',  ( 1.122448683923081701E-17, -0.2588190451025149108, 0.9659258262890698665 ) ) ;
#647 = ORIENTED_EDGE ( 'NONE', *, *, #963, .F. ) ;
#648 = EDGE_CURVE ( 'NONE', #452, #1042, #200, .T. ) ;
#649 = DIRECTION ( 'NONE',  ( 1.122448683923081856E-17, -0.2588190451025149663, 0.9659258262890698665 ) ) ;
#650 = EDGE_CURVE ( 'NONE', #841, #589, #266, .T. ) ;
#651 = DIRECTION ( 'NONE',  ( 1.122448683923081856E-17, -0.2588190451025149663, 0.9659258262890698665 ) ) ;
#652 = AXIS2_PLACEMENT_3D ( 'NONE', #775, #844, #145 ) ;
#653 = DIRECTION ( 'NONE',  ( 0.000000000000000000, 1.000000000000000000, 0.000000000000000000 ) ) ;
#654 = AXIS2_PLACEMENT_3D ( 'NONE', #627, #163, #253 ) ;
#655 = ORIENTED_EDGE ( 'NONE', *, *, #1119, .F. ) ;
#656 = DIRECTION ( 'NONE',  ( 1.122448683923081856E-17, -0.2588190451025149663, 0.9659258262890698665 ) ) ;
#657 = CARTESIAN_POINT ( 'NONE',  ( 21.41000000000000014, -6.673418875713422516, 12.32979910377023636 ) ) ;
#658 = ORIENTED_EDGE ( 'NONE', *, *, #92, .T. ) ;
#659 = LINE ( 'NONE', #316, #1134 ) ;
#660 = PLANE ( 'NONE',  #415 ) ;
#661 = ORIENTED_EDGE ( 'NONE', *, *, #943, .F. ) ;
#662 = FACE_OUTER_BOUND ( 'NONE', #1024, .T. ) ;
#663 = CARTESIAN_POINT ( 'NONE',  ( -2.500000000000000000, -13.00000000000000178, 10.63459680066770829 ) ) ;
#664 = ADVANCED_FACE ( 'NONE', ( #946 ), #862, .T. ) ;
#665 = ORIENTED_EDGE ( 'NONE', *, *, #430, .F. ) ;
#666 = VECTOR ( 'NONE', #33, 1000.000000000000000 ) ;
#667 = VECTOR ( 'NONE', #459, 1000.000000000000000 ) ;
#668 = VERTEX_POINT ( 'NONE', #1121 ) ;
#669 = EDGE_CURVE ( 'NONE', #226, #372, #218, .T. ) ;
#670 = DIRECTION ( 'NONE',  ( 1.000000000000000000, 0.000000000000000000, 0.000000000000000000 ) ) ;
#671 = DIRECTION ( 'NONE',  ( 0.000000000000000000, 0.000000000000000000, 1.000000000000000000 ) ) ;
#672 = FACE_BOUND ( 'NONE', #262, .T. ) ;
#673 = ORIENTED_EDGE ( 'NONE', *, *, #503, .F. ) ;
#674 = EDGE_LOOP ( 'NONE', ( #796, #987 ) ) ;
#675 = CARTESIAN_POINT ( 'NONE',  ( 21.41000000000000014, -22.92995053215847534, 7.973874574694918671 ) ) ;
#676 = DIRECTION ( 'NONE',  ( -1.000000000000000000, -2.905110965495465204E-18, 1.084202172485481939E-17 ) ) ;
#677 = ORIENTED_EDGE ( 'NONE', *, *, #635, .T. ) ;
#678 = EDGE_CURVE ( 'NONE', #396, #982, #394, .T. ) ;
#679 = DIRECTION ( 'NONE',  ( -0.000000000000000000, -0.000000000000000000, -1.000000000000000000 ) ) ;
#680 = LINE ( 'NONE', #219, #456 ) ;
#681 = VERTEX_POINT ( 'NONE', #479 ) ;
#682 = ORIENTED_EDGE ( 'NONE', *, *, #294, .T. ) ;
#683 = CIRCLE ( 'NONE', #777, 0.9100000000000002531 ) ;
#684 = EDGE_LOOP ( 'NONE', ( #716, #14, #46, #167 ) ) ;
#685 =( GEOMETRIC_REPRESENTATION_CONTEXT ( 3 ) GLOBAL_UNCERTAINTY_ASSIGNED_CONTEXT ( ( #292 ) ) GLOBAL_UNIT_ASSIGNED_CONTEXT ( ( #624, #986, #881 ) ) REPRESENTATION_CONTEXT ( 'NONE', 'WORKASPACE' ) );
#686 = DIRECTION ( 'NONE',  ( 1.000000000000000000, 4.336808689942017736E-17, -0.000000000000000000 ) ) ;
#687 = CARTESIAN_POINT ( 'NONE',  ( 3.350000000000000533, 0.000000000000000000, 3.000000000000000000 ) ) ;
#688 = ORIENTED_EDGE ( 'NONE', *, *, #276, .T. ) ;
#689 = CARTESIAN_POINT ( 'NONE',  ( -9.999999999999998224, -18.81139003789075304, 5.971610991882404740 ) ) ;
#690 = CARTESIAN_POINT ( 'NONE',  ( -3.350000000000000533, 2.020667218593133001E-16, 3.000000000000000000 ) ) ;
#691 = CARTESIAN_POINT ( 'NONE',  ( 10.00000000000000178, -27.83289187371589080, 8.730687762507633565 ) ) ;
#692 = LINE ( 'NONE', #1155, #632 ) ;
#693 = PLANE ( 'NONE',  #727 ) ;
#694 = EDGE_CURVE ( 'NONE', #722, #850, #10, .T. ) ;
#695 = VERTEX_POINT ( 'NONE', #207 ) ;
#696 = CARTESIAN_POINT ( 'NONE',  ( -21.41000000000000014, -7.191056965918454225, 14.26165075634838253 ) ) ;
#697 = CARTESIAN_POINT ( 'NONE',  ( -2.500000000000000444, -18.00000000000000355, 3.000000000000000000 ) ) ;
#698 = FACE_OUTER_BOUND ( 'NONE', #499, .T. ) ;
#699 = DIRECTION ( 'NONE',  ( 0.000000000000000000, -0.2588190451025149108, 0.9659258262890698665 ) ) ;
#700 = EDGE_LOOP ( 'NONE', ( #603, #772, #254, #556 ) ) ;
#701 = AXIS2_PLACEMENT_3D ( 'NONE', #1164, #352, #728 ) ;
#702 = CARTESIAN_POINT ( 'NONE',  ( 21.41000000000000014, -16.56200977121110895, -19.30757389244233124 ) ) ;
#703 = AXIS2_PLACEMENT_3D ( 'NONE', #1043, #957, #774 ) ;
#704 = EDGE_CURVE ( 'NONE', #59, #297, #1027, .T. ) ;
#705 = VECTOR ( 'NONE', #62, 1000.000000000000000 ) ;
#706 = FACE_OUTER_BOUND ( 'NONE', #1030, .T. ) ;
#707 = VERTEX_POINT ( 'NONE', #675 ) ;
#708 = DIRECTION ( 'NONE',  ( -0.000000000000000000, -0.000000000000000000, -1.000000000000000000 ) ) ;
#709 = FACE_OUTER_BOUND ( 'NONE', #313, .T. ) ;
#710 = EDGE_LOOP ( 'NONE', ( #293, #28, #234, #320, #861, #151, #643, #601, #67, #1109, #210, #655 ) ) ;
#711 = CARTESIAN_POINT ( 'NONE',  ( 21.41000000000000014, -0.3054781147660593499, -14.95164936336700023 ) ) ;
#712 = PLANE ( 'NONE',  #288 ) ;
#713 = PRODUCT_DEFINITION_SHAPE ( 'NONE', 'NONE',  #498 ) ;
#714 = CARTESIAN_POINT ( 'NONE',  ( 6.650000000000001243, 2.020667218593133494E-16, 3.000000000000000000 ) ) ;
#715 = CARTESIAN_POINT ( 'NONE',  ( 25.00000000000000000, -3.167108126284100322, 13.26931223749236644 ) ) ;
#716 = ORIENTED_EDGE ( 'NONE', *, *, #918, .T. ) ;
#717 = ADVANCED_FACE ( 'NONE', ( #44 ), #930, .F. ) ;
#718 = DIRECTION ( 'NONE',  ( -8.673617379884034239E-17, 1.000000000000000000, -0.000000000000000000 ) ) ;
#719 = DIRECTION ( 'NONE',  ( 4.336808689942016503E-17, -1.000000000000000000, 0.000000000000000000 ) ) ;
#720 = ORIENTED_EDGE ( 'NONE', *, *, #1160, .T. ) ;
#721 = ADVANCED_FACE ( 'NONE', ( #29 ), #494, .F. ) ;
#722 = VERTEX_POINT ( 'NONE', #1112 ) ;
#723 = LINE ( 'NONE', #828, #461 ) ;
#724 = VECTOR ( 'NONE', #980, 999.9999999999998863 ) ;
#725 = CIRCLE ( 'NONE', #654, 0.9100000000000002531 ) ;
#726 = CARTESIAN_POINT ( 'NONE',  ( -9.999999999999998224, -2.390650990976557200, 10.37153475862516139 ) ) ;
#727 = AXIS2_PLACEMENT_3D ( 'NONE', #689, #960, #699 ) ;
#728 = DIRECTION ( 'NONE',  ( 0.000000000000000000, 0.9659258262890698665, 0.2588190451025148553 ) ) ;
#729 = ORIENTED_EDGE ( 'NONE', *, *, #994, .F. ) ;
#730 = CARTESIAN_POINT ( 'NONE',  ( 6.650000000000001243, 2.020667218593133987E-16, 3.000000000000000000 ) ) ;
#731 = CYLINDRICAL_SURFACE ( 'NONE', #492, 0.9100000000000006972 ) ;
#732 = LINE ( 'NONE', #1039, #1079 ) ;
#733 = ORIENTED_EDGE ( 'NONE', *, *, #611, .T. ) ;
#734 = EDGE_CURVE ( 'NONE', #368, #203, #659, .T. ) ;
#735 = CARTESIAN_POINT ( 'NONE',  ( 1.080102923744274206E-16, -18.00000000000000355, 9.294850838512127567 ) ) ;
#736 = CYLINDRICAL_SURFACE ( 'NONE', #633, 0.9100000000000003642 ) ;
#737 = FACE_OUTER_BOUND ( 'NONE', #1091, .T. ) ;
#738 = VERTEX_POINT ( 'NONE', #1125 ) ;
#739 = LINE ( 'NONE', #1013, #401 ) ;
#740 = VECTOR ( 'NONE', #646, 1000.000000000000114 ) ;
#741 = AXIS2_PLACEMENT_3D ( 'NONE', #641, #824, #996 ) ;
#742 = DIRECTION ( 'NONE',  ( 0.000000000000000000, -0.2588190451025129679, 0.9659258262890703106 ) ) ;
#743 = VECTOR ( 'NONE', #468, 1000.000000000000114 ) ;
#744 = CARTESIAN_POINT ( 'NONE',  ( 0.000000000000000000, 0.000000000000000000, 0.000000000000000000 ) ) ;
#745 = VERTEX_POINT ( 'NONE', #500 ) ;
#746 = DIRECTION ( 'NONE',  ( -0.000000000000000000, -0.000000000000000000, -1.000000000000000000 ) ) ;
#747 = DIRECTION ( 'NONE',  ( 2.696301922142130536E-33, -0.9659258262890699775, -0.2588190451025147443 ) ) ;
#748 = ORIENTED_EDGE ( 'NONE', *, *, #1058, .F. ) ;
#749 = EDGE_CURVE ( 'NONE', #126, #630, #1032, .T. ) ;
#750 = DIRECTION ( 'NONE',  ( -1.000000000000000000, 0.000000000000000000, 0.000000000000000000 ) ) ;
#751 = DIRECTION ( 'NONE',  ( -0.000000000000000000, -0.000000000000000000, -1.000000000000000000 ) ) ;
#752 = ORIENTED_EDGE ( 'NONE', *, *, #597, .T. ) ;
#753 = EDGE_LOOP ( 'NONE', ( #763, #1102, #535, #148 ) ) ;
#754 = ADVANCED_FACE ( 'NONE', ( #662 ), #305, .F. ) ;
#755 = ORIENTED_EDGE ( 'NONE', *, *, #176, .F. ) ;
#756 = DIRECTION ( 'NONE',  ( 0.000000000000000000, 0.2588190451025150773, -0.9659258262890698665 ) ) ;
#757 = CARTESIAN_POINT ( 'NONE',  ( -9.999999999999998224, -3.684746216489132031, 15.20116389007051083 ) ) ;
#758 = VECTOR ( 'NONE', #917, 1000.000000000000114 ) ;
#759 = ORIENTED_EDGE ( 'NONE', *, *, #505, .F. ) ;
#760 = VERTEX_POINT ( 'NONE', #487 ) ;
#761 = VECTOR ( 'NONE', #1055, 1000.000000000000000 ) ;
#762 = CIRCLE ( 'NONE', #367, 0.9100000000000002531 ) ;
#763 = ORIENTED_EDGE ( 'NONE', *, *, #164, .F. ) ;
#764 = LINE ( 'NONE', #848, #106 ) ;
#765 = DIRECTION ( 'NONE',  ( 0.000000000000000000, 0.9659258262890698665, 0.2588190451025148553 ) ) ;
#766 = ORIENTED_EDGE ( 'NONE', *, *, #767, .T. ) ;
#767 = EDGE_CURVE ( 'NONE', #831, #400, #1020, .T. ) ;
#768 = ORIENTED_EDGE ( 'NONE', *, *, #127, .T. ) ;
#769 = ORIENTED_EDGE ( 'NONE', *, *, #832, .F. ) ;
#770 = DIRECTION ( 'NONE',  ( 1.122448683923081856E-17, -0.2588190451025149663, 0.9659258262890698665 ) ) ;
#771 = PLANE ( 'NONE',  #285 ) ;
#772 = ORIENTED_EDGE ( 'NONE', *, *, #793, .T. ) ;
#773 = ORIENTED_EDGE ( 'NONE', *, *, #782, .F. ) ;
#774 = DIRECTION ( 'NONE',  ( 0.000000000000000000, -0.000000000000000000, -1.000000000000000000 ) ) ;
#775 = CARTESIAN_POINT ( 'NONE',  ( -25.00000000000000000, -27.83289187371588014, 8.730687762507633565 ) ) ;
#776 = ORIENTED_EDGE ( 'NONE', *, *, #183, .T. ) ;
#777 = AXIS2_PLACEMENT_3D ( 'NONE', #781, #1162, #1140 ) ;
#778 = ORIENTED_EDGE ( 'NONE', *, *, #298, .T. ) ;
#779 = VECTOR ( 'NONE', #454, 1000.000000000000000 ) ;
#780 = CARTESIAN_POINT ( 'NONE',  ( -11.00000000000000355, 5.000000000000000000, 3.000000000000000000 ) ) ;
#781 = CARTESIAN_POINT ( 'NONE',  ( 21.41000000000000014, -6.673418875713422516, 12.32979910377023636 ) ) ;
#782 = EDGE_CURVE ( 'NONE', #695, #738, #532, .T. ) ;
#783 = ORIENTED_EDGE ( 'NONE', *, *, #704, .T. ) ;
#784 = CARTESIAN_POINT ( 'NONE',  ( 2.500000000000000000, -12.90864920016693063, 10.65907417371091626 ) ) ;
#785 = CARTESIAN_POINT ( 'NONE',  ( -25.00000000000000000, -3.684746216489132475, 15.20116389007050550 ) ) ;
#786 = ORIENTED_EDGE ( 'NONE', *, *, #648, .F. ) ;
#787 = CARTESIAN_POINT ( 'NONE',  ( -25.00000000000000000, -27.31525378351085465, 6.798836109929498051 ) ) ;
#788 = DIRECTION ( 'NONE',  ( -1.000000000000000000, 0.000000000000000000, -0.000000000000000000 ) ) ;
#789 = VERTEX_POINT ( 'NONE', #953 ) ;
#790 = DIRECTION ( 'NONE',  ( -1.000000000000000000, -2.905110965495467130E-18, 1.084202172485481785E-17 ) ) ;
#791 = CARTESIAN_POINT ( 'NONE',  ( -21.41000000000000014, -6.673418875713423404, 12.32979910377023991 ) ) ;
#792 = ORIENTED_EDGE ( 'NONE', *, *, #808, .F. ) ;
#793 = EDGE_CURVE ( 'NONE', #297, #526, #144, .T. ) ;
#794 = LINE ( 'NONE', #511, #108 ) ;
#795 = FACE_OUTER_BOUND ( 'NONE', #799, .T. ) ;
#796 = ORIENTED_EDGE ( 'NONE', *, *, #918, .F. ) ;
#797 = CARTESIAN_POINT ( 'NONE',  ( -21.41000000000000014, 0.5735143871569946539, -14.71612403232371236 ) ) ;
#798 = DIRECTION ( 'NONE',  ( -1.000000000000000000, 0.000000000000000000, 0.000000000000000000 ) ) ;
#799 = EDGE_LOOP ( 'NONE', ( #134, #23, #70, #165 ) ) ;
#800 = VECTOR ( 'NONE', #708, 1000.000000000000000 ) ;
#801 = VECTOR ( 'NONE', #863, 1000.000000000000000 ) ;
#802 = LINE ( 'NONE', #690, #1099 ) ;
#803 = VECTOR ( 'NONE', #89, 1000.000000000000000 ) ;
#804 = AXIS2_PLACEMENT_3D ( 'NONE', #902, #449, #640 ) ;
#805 = DIRECTION ( 'NONE',  ( -4.189035517289864953E-17, 0.9659258262890704216, 0.2588190451025130234 ) ) ;
#806 = ORIENTED_EDGE ( 'NONE', *, *, #889, .T. ) ;
#807 = DIRECTION ( 'NONE',  ( 8.673617379884034239E-17, -1.000000000000000000, 0.000000000000000000 ) ) ;
#808 = EDGE_CURVE ( 'NONE', #1040, #439, #764, .T. ) ;
#809 = DIRECTION ( 'NONE',  ( 1.122448683923080777E-17, -0.2588190451025147443, 0.9659258262890698665 ) ) ;
#810 = ORIENTED_EDGE ( 'NONE', *, *, #1110, .T. ) ;
#811 = DIRECTION ( 'NONE',  ( 0.000000000000000000, 0.9659258262890698665, 0.2588190451025148553 ) ) ;
#812 = LINE ( 'NONE', #418, #823 ) ;
#813 = EDGE_CURVE ( 'NONE', #760, #1052, #269, .T. ) ;
#814 = VERTEX_POINT ( 'NONE', #962 ) ;
#815 = DIRECTION ( 'NONE',  ( 0.000000000000000000, -0.9659258262890698665, -0.2588190451025148553 ) ) ;
#816 = VERTEX_POINT ( 'NONE', #1063 ) ;
#817 = CARTESIAN_POINT ( 'NONE',  ( -21.41000000000000369, -22.92995053215847534, 7.973874574694922224 ) ) ;
#818 = FACE_OUTER_BOUND ( 'NONE', #170, .T. ) ;
#819 = FACE_OUTER_BOUND ( 'NONE', #333, .T. ) ;
#820 = ORIENTED_EDGE ( 'NONE', *, *, #193, .F. ) ;
#821 = PLANE ( 'NONE',  #478 ) ;
#822 = VECTOR ( 'NONE', #574, 1000.000000000000000 ) ;
#823 = VECTOR ( 'NONE', #525, 1000.000000000000000 ) ;
#824 = DIRECTION ( 'NONE',  ( 1.122448683923081856E-17, -0.2588190451025149663, 0.9659258262890698665 ) ) ;
#825 = DIRECTION ( 'NONE',  ( -0.000000000000000000, -0.000000000000000000, -1.000000000000000000 ) ) ;
#826 = ADVANCED_FACE ( 'NONE', ( #977 ), #428, .T. ) ;
#827 = ORIENTED_EDGE ( 'NONE', *, *, #842, .T. ) ;
#828 = CARTESIAN_POINT ( 'NONE',  ( -11.00000000000000355, -18.00000000000000355, 0.000000000000000000 ) ) ;
#829 = DIRECTION ( 'NONE',  ( -0.000000000000000000, 0.000000000000000000, -1.000000000000000000 ) ) ;
#830 = DIRECTION ( 'NONE',  ( -1.000000000000000000, 0.000000000000000000, 0.000000000000000000 ) ) ;
#831 = VERTEX_POINT ( 'NONE', #71 ) ;
#832 = EDGE_CURVE ( 'NONE', #1, #349, #235, .T. ) ;
#833 = LINE ( 'NONE', #119, #123 ) ;
#834 = CARTESIAN_POINT ( 'NONE',  ( 10.00000000000000178, -10.11805760128911658, 8.300982397805041657 ) ) ;
#835 = EDGE_LOOP ( 'NONE', ( #476, #1129 ) ) ;
#836 = FACE_OUTER_BOUND ( 'NONE', #1123, .T. ) ;
#837 = AXIS2_PLACEMENT_3D ( 'NONE', #515, #1148, #973 ) ;
#838 = VECTOR ( 'NONE', #915, 1000.000000000000000 ) ;
#839 = CARTESIAN_POINT ( 'NONE',  ( 10.99999999999999645, 5.000000000000000000, 0.000000000000000000 ) ) ;
#840 = AXIS2_PLACEMENT_3D ( 'NONE', #93, #250, #522 ) ;
#841 = VERTEX_POINT ( 'NONE', #598 ) ;
#842 = EDGE_CURVE ( 'NONE', #233, #789, #1131, .T. ) ;
#843 = CARTESIAN_POINT ( 'NONE',  ( -5.000000000000000888, 0.000000000000000000, 3.000000000000000000 ) ) ;
#844 = DIRECTION ( 'NONE',  ( -1.122448683923081547E-17, 0.2588190451025148553, -0.9659258262890698665 ) ) ;
#845 = EDGE_CURVE ( 'NONE', #816, #1031, #25, .T. ) ;
#846 = VERTEX_POINT ( 'NONE', #504 ) ;
#847 = ORIENTED_EDGE ( 'NONE', *, *, #793, .F. ) ;
#848 = CARTESIAN_POINT ( 'NONE',  ( 10.00000000000000178, -27.31525378351085465, 6.798836109929498051 ) ) ;
#849 = LINE ( 'NONE', #944, #966 ) ;
#850 = VERTEX_POINT ( 'NONE', #518 ) ;
#851 = ORIENTED_EDGE ( 'NONE', *, *, #1016, .T. ) ;
#852 = DIRECTION ( 'NONE',  ( 1.122448683923080777E-17, -0.2588190451025147443, 0.9659258262890698665 ) ) ;
#853 = ADVANCED_FACE ( 'NONE', ( #64 ), #423, .F. ) ;
#854 = CARTESIAN_POINT ( 'NONE',  ( -11.00000000000000355, -18.00000000000000355, 3.000000000000000000 ) ) ;
#855 = AXIS2_PLACEMENT_3D ( 'NONE', #1010, #208, #742 ) ;
#856 = VERTEX_POINT ( 'NONE', #54 ) ;
#857 = ORIENTED_EDGE ( 'NONE', *, *, #471, .T. ) ;
#858 = EDGE_CURVE ( 'NONE', #1078, #1118, #252, .T. ) ;
#859 = AXIS2_PLACEMENT_3D ( 'NONE', #424, #605, #719 ) ;
#860 = MECHANICAL_DESIGN_GEOMETRIC_PRESENTATION_REPRESENTATION (  '', ( #934 ), #685 ) ;
#861 = ORIENTED_EDGE ( 'NONE', *, *, #648, .T. ) ;
#862 = PLANE ( 'NONE',  #477 ) ;
#863 = DIRECTION ( 'NONE',  ( 1.122448683923081856E-17, -0.2588190451025149663, 0.9659258262890698665 ) ) ;
#864 = VERTEX_POINT ( 'NONE', #416 ) ;
#865 = EDGE_LOOP ( 'NONE', ( #1144, #315, #286, #792 ) ) ;
#866 = CARTESIAN_POINT ( 'NONE',  ( -2.500000000000000000, -13.00000000000000178, 11.00000000000000000 ) ) ;
#867 = FACE_BOUND ( 'NONE', #835, .T. ) ;
#868 = VERTEX_POINT ( 'NONE', #168 ) ;
#869 = DIRECTION ( 'NONE',  ( -1.000000000000000000, 0.000000000000000000, 0.000000000000000000 ) ) ;
#870 = DIRECTION ( 'NONE',  ( 1.000000000000000000, 0.000000000000000000, 0.000000000000000000 ) ) ;
#871 = AXIS2_PLACEMENT_3D ( 'NONE', #547, #13, #279 ) ;
#872 = VECTOR ( 'NONE', #1083, 1000.000000000000114 ) ;
#873 = EDGE_LOOP ( 'NONE', ( #768, #857, #878, #104 ) ) ;
#874 = EDGE_CURVE ( 'NONE', #576, #868, #971, .T. ) ;
#875 = VECTOR ( 'NONE', #631, 1000.000000000000000 ) ;
#876 = DIRECTION ( 'NONE',  ( 1.122448683923081856E-17, -0.2588190451025149663, 0.9659258262890698665 ) ) ;
#877 = PLANE ( 'NONE',  #1007 ) ;
#878 = ORIENTED_EDGE ( 'NONE', *, *, #222, .F. ) ;
#879 = EDGE_CURVE ( 'NONE', #1135, #445, #794, .T. ) ;
#880 = ORIENTED_EDGE ( 'NONE', *, *, #66, .F. ) ;
#881 =( NAMED_UNIT ( * ) SI_UNIT ( $, .STERADIAN. ) SOLID_ANGLE_UNIT ( ) );
#882 = ORIENTED_EDGE ( 'NONE', *, *, #294, .F. ) ;
#883 = DIRECTION ( 'NONE',  ( -0.000000000000000000, -0.000000000000000000, -1.000000000000000000 ) ) ;
#884 = CARTESIAN_POINT ( 'NONE',  ( 6.650000000000001243, 2.020667218593133987E-16, 0.000000000000000000 ) ) ;
#885 = LINE ( 'NONE', #642, #475 ) ;
#886 = ORIENTED_EDGE ( 'NONE', *, *, #845, .T. ) ;
#887 = CARTESIAN_POINT ( 'NONE',  ( 10.99999999999999645, -5.000000000000000000, 3.000000000000000000 ) ) ;
#888 = CARTESIAN_POINT ( 'NONE',  ( 21.41000000000000014, -7.552411377636476075, 12.09427377272694493 ) ) ;
#889 = EDGE_CURVE ( 'NONE', #1166, #372, #78, .T. ) ;
#890 = ORIENTED_EDGE ( 'NONE', *, *, #92, .F. ) ;
#891 = CARTESIAN_POINT ( 'NONE',  ( -5.000000000000000888, 0.000000000000000000, 0.000000000000000000 ) ) ;
#892 = DIRECTION ( 'NONE',  ( 0.000000000000000000, -0.9659258262890698665, -0.2588190451025148553 ) ) ;
#893 = ORIENTED_EDGE ( 'NONE', *, *, #1016, .F. ) ;
#894 = VECTOR ( 'NONE', #770, 1000.000000000000000 ) ;
#895 = DIRECTION ( 'NONE',  ( 1.000000000000000000, 2.905110965495463663E-18, -1.084202172485480707E-17 ) ) ;
#896 = VECTOR ( 'NONE', #335, 1000.000000000000000 ) ;
#897 = FACE_OUTER_BOUND ( 'NONE', #392, .T. ) ;
#898 = ORIENTED_EDGE ( 'NONE', *, *, #597, .F. ) ;
#899 = EDGE_LOOP ( 'NONE', ( #561, #377, #517, #325 ) ) ;
#900 = DIRECTION ( 'NONE',  ( 0.000000000000000000, -0.000000000000000000, -1.000000000000000000 ) ) ;
#901 = ORIENTED_EDGE ( 'NONE', *, *, #433, .T. ) ;
#902 = CARTESIAN_POINT ( 'NONE',  ( 21.41000000000000014, 0.5735143871569946539, -14.71612403232371236 ) ) ;
#903 = LINE ( 'NONE', #450, #952 ) ;
#904 = DIRECTION ( 'NONE',  ( 0.000000000000000000, -0.9659258262890698665, -0.2588190451025148553 ) ) ;
#905 = APPLICATION_PROTOCOL_DEFINITION ( 'draft international standard', 'automotive_design', 1998, #389 ) ;
#906 = ORIENTED_EDGE ( 'NONE', *, *, #373, .F. ) ;
#907 = CARTESIAN_POINT ( 'NONE',  ( -25.00000000000000000, -3.684746216489132475, 15.20116389007050550 ) ) ;
#908 = EDGE_CURVE ( 'NONE', #695, #940, #435, .T. ) ;
#909 = FACE_BOUND ( 'NONE', #582, .T. ) ;
#910 = LINE ( 'NONE', #22, #491 ) ;
#911 =( NAMED_UNIT ( * ) PLANE_ANGLE_UNIT ( ) SI_UNIT ( $, .RADIAN. ) );
#912 = ORIENTED_EDGE ( 'NONE', *, *, #419, .T. ) ;
#913 = CARTESIAN_POINT ( 'NONE',  ( -6.650000000000001243, 0.000000000000000000, 0.000000000000000000 ) ) ;
#914 = AXIS2_PLACEMENT_3D ( 'NONE', #470, #825, #830 ) ;
#915 = DIRECTION ( 'NONE',  ( -0.000000000000000000, -0.000000000000000000, 1.000000000000000000 ) ) ;
#916 = VECTOR ( 'NONE', #876, 1000.000000000000000 ) ;
#917 = DIRECTION ( 'NONE',  ( -0.000000000000000000, 0.9659258262890698665, 0.2588190451025149663 ) ) ;
#918 = EDGE_CURVE ( 'NONE', #850, #722, #555, .T. ) ;
#919 = ADVANCED_FACE ( 'NONE', ( #340 ), #411, .F. ) ;
#920 = ORIENTED_EDGE ( 'NONE', *, *, #221, .T. ) ;
#921 = FACE_OUTER_BOUND ( 'NONE', #413, .T. ) ;
#922 = DIRECTION ( 'NONE',  ( 1.122448683923080777E-17, -0.2588190451025147443, 0.9659258262890699775 ) ) ;
#923 = DIRECTION ( 'NONE',  ( 1.122448683923080777E-17, -0.2588190451025147443, 0.9659258262890698665 ) ) ;
#924 = ORIENTED_EDGE ( 'NONE', *, *, #283, .T. ) ;
#925 = CARTESIAN_POINT ( 'NONE',  ( -25.00000000000000000, -27.31525378351085465, 6.798836109929498051 ) ) ;
#926 = CARTESIAN_POINT ( 'NONE',  ( -21.41000000000000369, -23.80894303408152979, 7.738349243651631681 ) ) ;
#927 = EDGE_CURVE ( 'NONE', #722, #816, #802, .T. ) ;
#928 = ORIENTED_EDGE ( 'NONE', *, *, #47, .T. ) ;
#929 = EDGE_CURVE ( 'NONE', #271, #982, #590, .T. ) ;
#930 = PLANE ( 'NONE',  #949 ) ;
#931 = VECTOR ( 'NONE', #1101, 1000.000000000000114 ) ;
#932 = VECTOR ( 'NONE', #746, 1000.000000000000000 ) ;
#933 = DIRECTION ( 'NONE',  ( -1.000000000000000000, -0.000000000000000000, -0.000000000000000000 ) ) ;
#934 = STYLED_ITEM ( 'NONE', ( #447 ), #1104 ) ;
#935 = ORIENTED_EDGE ( 'NONE', *, *, #47, .F. ) ;
#936 = DIRECTION ( 'NONE',  ( 1.122448683923080777E-17, -0.2588190451025147443, 0.9659258262890698665 ) ) ;
#937 = DIRECTION ( 'NONE',  ( -1.122448683923082164E-17, 0.2588190451025150773, -0.9659258262890698665 ) ) ;
#938 = EDGE_LOOP ( 'NONE', ( #217, #1159, #783, #778 ) ) ;
#939 = ORIENTED_EDGE ( 'NONE', *, *, #619, .F. ) ;
#940 = VERTEX_POINT ( 'NONE', #238 ) ;
#941 = DIRECTION ( 'NONE',  ( 1.122448683923081856E-17, -0.2588190451025149663, 0.9659258262890698665 ) ) ;
#942 = EDGE_CURVE ( 'NONE', #410, #1154, #350, .T. ) ;
#943 = EDGE_CURVE ( 'NONE', #940, #1086, #990, .T. ) ;
#944 = CARTESIAN_POINT ( 'NONE',  ( -25.00000000000000000, -3.167108126284102543, 13.26931223749236644 ) ) ;
#945 = ORIENTED_EDGE ( 'NONE', *, *, #767, .F. ) ;
#946 = FACE_OUTER_BOUND ( 'NONE', #569, .T. ) ;
#947 = VECTOR ( 'NONE', #751, 1000.000000000000000 ) ;
#948 = CARTESIAN_POINT ( 'NONE',  ( 25.00000000000000000, -27.83289187371587659, 8.730687762507633565 ) ) ;
#949 = AXIS2_PLACEMENT_3D ( 'NONE', #311, #229, #756 ) ;
#950 = ORIENTED_EDGE ( 'NONE', *, *, #635, .F. ) ;
#951 = VERTEX_POINT ( 'NONE', #374 ) ;
#952 = VECTOR ( 'NONE', #185, 999.9999999999998863 ) ;
#953 = CARTESIAN_POINT ( 'NONE',  ( 10.00000000000000178, -10.89451473659666370, 11.19875987667224848 ) ) ;
#954 = CARTESIAN_POINT ( 'NONE',  ( 10.00000000000000178, -18.81139003789075304, 5.971610991882404740 ) ) ;
#955 = EDGE_LOOP ( 'NONE', ( #969, #581, #1141, #529 ) ) ;
#956 = ORIENTED_EDGE ( 'NONE', *, *, #66, .T. ) ;
#957 = DIRECTION ( 'NONE',  ( 0.000000000000000000, -1.000000000000000000, 0.000000000000000000 ) ) ;
#958 = DIRECTION ( 'NONE',  ( -1.000000000000000000, 0.000000000000000000, 0.000000000000000000 ) ) ;
#959 = EDGE_CURVE ( 'NONE', #126, #1135, #199, .T. ) ;
#960 = DIRECTION ( 'NONE',  ( -0.000000000000000000, 0.9659258262890698665, 0.2588190451025149108 ) ) ;
#961 = EDGE_LOOP ( 'NONE', ( #614, #810 ) ) ;
#962 = CARTESIAN_POINT ( 'NONE',  ( -9.999999999999998224, -27.83289187371589080, 8.730687762507633565 ) ) ;
#963 = EDGE_CURVE ( 'NONE', #1, #1078, #265, .T. ) ;
#964 = LINE ( 'NONE', #438, #803 ) ;
#965 = CARTESIAN_POINT ( 'NONE',  ( 10.00000000000000178, -3.167108126284100766, 13.26931223749236644 ) ) ;
#966 = VECTOR ( 'NONE', #937, 1000.000000000000114 ) ;
#967 = FILL_AREA_STYLE ('',( #1073 ) ) ;
#968 = AXIS2_PLACEMENT_3D ( 'NONE', #135, #852, #403 ) ;
#969 = ORIENTED_EDGE ( 'NONE', *, *, #1047, .F. ) ;
#970 = PRESENTATION_LAYER_ASSIGNMENT (  '', '', ( #934 ) ) ;
#971 = LINE ( 'NONE', #887, #58 ) ;
#972 = DIRECTION ( 'NONE',  ( 0.000000000000000000, -1.000000000000000000, 0.000000000000000000 ) ) ;
#973 = DIRECTION ( 'NONE',  ( 0.000000000000000000, 0.000000000000000000, -1.000000000000000000 ) ) ;
#974 = CARTESIAN_POINT ( 'NONE',  ( -21.41000000000000369, -17.44100227313416340, -19.54309922348561557 ) ) ;
#975 = ORIENTED_EDGE ( 'NONE', *, *, #908, .T. ) ;
#976 = EDGE_CURVE ( 'NONE', #526, #445, #1005, .T. ) ;
#977 = FACE_OUTER_BOUND ( 'NONE', #331, .T. ) ;
#978 = FACE_BOUND ( 'NONE', #486, .T. ) ;
#979 = VERTEX_POINT ( 'NONE', #88 ) ;
#980 = DIRECTION ( 'NONE',  ( -8.378071034579723742E-17, 0.9659258262890699775, 0.2588190451025147443 ) ) ;
#981 = FACE_OUTER_BOUND ( 'NONE', #865, .T. ) ;
#982 = VERTEX_POINT ( 'NONE', #277 ) ;
#983 = DIRECTION ( 'NONE',  ( -0.000000000000000000, -0.000000000000000000, -1.000000000000000000 ) ) ;
#984 = CARTESIAN_POINT ( 'NONE',  ( 0.000000000000000000, 0.000000000000000000, 0.000000000000000000 ) ) ;
#985 = VERTEX_POINT ( 'NONE', #730 ) ;
#986 =( NAMED_UNIT ( * ) PLANE_ANGLE_UNIT ( ) SI_UNIT ( $, .RADIAN. ) );
#987 = ORIENTED_EDGE ( 'NONE', *, *, #694, .F. ) ;
#988 = CIRCLE ( 'NONE', #40, 0.9100000000000002531 ) ;
#989 = DIRECTION ( 'NONE',  ( -1.000000000000000000, 0.000000000000000000, -0.000000000000000000 ) ) ;
#990 = CIRCLE ( 'NONE', #591, 0.9100000000000002531 ) ;
#991 = DIRECTION ( 'NONE',  ( 1.000000000000000000, 0.000000000000000000, -0.000000000000000000 ) ) ;
#992 = DIRECTION ( 'NONE',  ( 7.703719777548945123E-34, -0.9659258262890699775, -0.2588190451025147443 ) ) ;
#993 = ORIENTED_EDGE ( 'NONE', *, *, #7, .T. ) ;
#994 = EDGE_CURVE ( 'NONE', #630, #846, #995, .T. ) ;
#995 = LINE ( 'NONE', #557, #85 ) ;
#996 = DIRECTION ( 'NONE',  ( 0.000000000000000000, -0.9659258262890693114, -0.2588190451025166317 ) ) ;
#997 = CARTESIAN_POINT ( 'NONE',  ( -9.999999999999998224, -10.11805760128911658, 8.300982397805041657 ) ) ;
#998 = CARTESIAN_POINT ( 'NONE',  ( 2.500000000000000000, -13.00000000000000178, 11.00000000000000000 ) ) ;
#999 = ORIENTED_EDGE ( 'NONE', *, *, #1160, .F. ) ;
#1000 = DIRECTION ( 'NONE',  ( 1.122448683923081856E-17, -0.2588190451025149663, 0.9659258262890698665 ) ) ;
#1001 = CARTESIAN_POINT ( 'NONE',  ( 21.41000000000000014, 0.5735143871569946539, -14.71612403232371236 ) ) ;
#1002 = ADVANCED_FACE ( 'NONE', ( #644, #1092, #272 ), #821, .F. ) ;
#1003 = CYLINDRICAL_SURFACE ( 'NONE', #341, 0.9100000000000006972 ) ;
#1004 = ORIENTED_EDGE ( 'NONE', *, *, #460, .T. ) ;
#1005 = LINE ( 'NONE', #544, #323 ) ;
#1006 = CIRCLE ( 'NONE', #871, 1.650000000000000355 ) ;
#1007 = AXIS2_PLACEMENT_3D ( 'NONE', #429, #972, #239 ) ;
#1008 = DIRECTION ( 'NONE',  ( 0.000000000000000000, 0.9659258262890698665, 0.2588190451025148553 ) ) ;
#1009 = VECTOR ( 'NONE', #180, 1000.000000000000114 ) ;
#1010 = CARTESIAN_POINT ( 'NONE',  ( -25.00000000000000000, -27.31525378351085465, 6.798836109929498051 ) ) ;
#1011 = VERTEX_POINT ( 'NONE', #100 ) ;
#1012 = EDGE_CURVE ( 'NONE', #589, #187, #188, .T. ) ;
#1013 = CARTESIAN_POINT ( 'NONE',  ( -11.00000000000000355, -5.000000000000000000, 3.000000000000000000 ) ) ;
#1014 = CARTESIAN_POINT ( 'NONE',  ( 25.00000000000000000, -3.684746216489130255, 15.20116389007050550 ) ) ;
#1015 = ORIENTED_EDGE ( 'NONE', *, *, #310, .T. ) ;
#1016 = EDGE_CURVE ( 'NONE', #738, #1086, #107, .T. ) ;
#1017 = CARTESIAN_POINT ( 'NONE',  ( -21.41000000000000369, -23.80894303408152979, 7.738349243651631681 ) ) ;
#1018 = CARTESIAN_POINT ( 'NONE',  ( -9.999999999999998224, -10.11805760128911658, 8.300982397805041657 ) ) ;
#1019 = ORIENTED_EDGE ( 'NONE', *, *, #183, .F. ) ;
#1020 = LINE ( 'NONE', #1037, #304 ) ;
#1021 = VECTOR ( 'NONE', #1077, 1000.000000000000000 ) ;
#1022 = VECTOR ( 'NONE', #247, 1000.000000000000114 ) ;
#1023 = DIRECTION ( 'NONE',  ( 0.000000000000000000, -0.9659258262890699775, -0.2588190451025147443 ) ) ;
#1024 = EDGE_LOOP ( 'NONE', ( #314, #851, #912, #1147 ) ) ;
#1025 = ORIENTED_EDGE ( 'NONE', *, *, #127, .F. ) ;
#1026 = EDGE_CURVE ( 'NONE', #982, #271, #762, .T. ) ;
#1027 = LINE ( 'NONE', #214, #666 ) ;
#1028 = SHAPE_DEFINITION_REPRESENTATION ( #713, #357 ) ;
#1029 = LINE ( 'NONE', #488, #822 ) ;
#1030 = EDGE_LOOP ( 'NONE', ( #950, #882, #409, #388 ) ) ;
#1031 = VERTEX_POINT ( 'NONE', #913 ) ;
#1032 = LINE ( 'NONE', #483, #138 ) ;
#1033 = DIRECTION ( 'NONE',  ( 1.084202172485481939E-17, 0.000000000000000000, 1.000000000000000000 ) ) ;
#1034 = EDGE_CURVE ( 'NONE', #856, #280, #231, .T. ) ;
#1035 = ORIENTED_EDGE ( 'NONE', *, *, #572, .T. ) ;
#1036 = ORIENTED_EDGE ( 'NONE', *, *, #704, .F. ) ;
#1037 = CARTESIAN_POINT ( 'NONE',  ( -9.999999999999998224, -18.81139003789075304, 5.971610991882404740 ) ) ;
#1038 = CIRCLE ( 'NONE', #1057, 1.650000000000000355 ) ;
#1039 = CARTESIAN_POINT ( 'NONE',  ( 10.00000000000000178, -26.53879664820331286, 3.901058631062284565 ) ) ;
#1040 = VERTEX_POINT ( 'NONE', #369 ) ;
#1041 = VECTOR ( 'NONE', #1000, 1000.000000000000000 ) ;
#1042 = VERTEX_POINT ( 'NONE', #463 ) ;
#1043 = CARTESIAN_POINT ( 'NONE',  ( 0.000000000000000000, -18.00000000000000355, 0.000000000000000000 ) ) ;
#1044 = ADVANCED_FACE ( 'NONE', ( #921 ), #184, .F. ) ;
#1045 = DIRECTION ( 'NONE',  ( -0.000000000000000000, -0.000000000000000000, -1.000000000000000000 ) ) ;
#1046 = CARTESIAN_POINT ( 'NONE',  ( 5.000000000000000888, 0.000000000000000000, 0.000000000000000000 ) ) ;
#1047 = EDGE_CURVE ( 'NONE', #707, #271, #1088, .T. ) ;
#1048 = DIRECTION ( 'NONE',  ( 1.122448683923081856E-17, -0.2588190451025149663, 0.9659258262890698665 ) ) ;
#1049 = CARTESIAN_POINT ( 'NONE',  ( 10.99999999999999645, 5.000000000000000000, 3.000000000000000000 ) ) ;
#1050 = LINE ( 'NONE', #60, #1021 ) ;
#1051 = CARTESIAN_POINT ( 'NONE',  ( -5.000000000000000888, 0.000000000000000000, 3.000000000000000000 ) ) ;
#1052 = VERTEX_POINT ( 'NONE', #817 ) ;
#1053 = CARTESIAN_POINT ( 'NONE',  ( 21.41000000000000014, -24.32658112428655528, 9.670200896229765419 ) ) ;
#1054 = EDGE_CURVE ( 'NONE', #576, #630, #192, .T. ) ;
#1055 = DIRECTION ( 'NONE',  ( -1.000000000000000000, -0.000000000000000000, -0.000000000000000000 ) ) ;
#1056 = FACE_OUTER_BOUND ( 'NONE', #381, .T. ) ;
#1057 = AXIS2_PLACEMENT_3D ( 'NONE', #585, #30, #215 ) ;
#1058 = EDGE_CURVE ( 'NONE', #203, #1011, #723, .T. ) ;
#1059 = DIRECTION ( 'NONE',  ( -1.000000000000000000, 0.000000000000000000, 0.000000000000000000 ) ) ;
#1060 = AXIS2_PLACEMENT_3D ( 'NONE', #843, #223, #670 ) ;
#1061 = ORIENTED_EDGE ( 'NONE', *, *, #1054, .T. ) ;
#1062 = AXIS2_PLACEMENT_3D ( 'NONE', #744, #671, #548 ) ;
#1063 = CARTESIAN_POINT ( 'NONE',  ( -3.350000000000000533, 2.020667218593132755E-16, 0.000000000000000000 ) ) ;
#1064 = ADVANCED_FACE ( 'NONE', ( #75 ), #353, .F. ) ;
#1065 = PLANE ( 'NONE',  #859 ) ;
#1066 = ORIENTED_EDGE ( 'NONE', *, *, #669, .F. ) ;
#1067 = DIRECTION ( 'NONE',  ( 1.122448683923080777E-17, -0.2588190451025147443, 0.9659258262890698665 ) ) ;
#1068 = DIRECTION ( 'NONE',  ( 0.000000000000000000, -1.000000000000000000, 0.000000000000000000 ) ) ;
#1069 = VERTEX_POINT ( 'NONE', #629 ) ;
#1070 = DIRECTION ( 'NONE',  ( 1.000000000000000000, 0.000000000000000000, 0.000000000000000000 ) ) ;
#1071 = DIRECTION ( 'NONE',  ( 1.000000000000000000, 2.905110965495467130E-18, -1.084202172485481785E-17 ) ) ;
#1072 = ORIENTED_EDGE ( 'NONE', *, *, #112, .T. ) ;
#1073 = FILL_AREA_STYLE_COLOUR ( '', #534 ) ;
#1074 = ORIENTED_EDGE ( 'NONE', *, *, #879, .T. ) ;
#1075 = DIRECTION ( 'NONE',  ( 0.000000000000000000, -0.9659258262890698665, -0.2588190451025148553 ) ) ;
#1076 = DIRECTION ( 'NONE',  ( 1.000000000000000000, 4.336808689942017736E-17, -0.000000000000000000 ) ) ;
#1077 = DIRECTION ( 'NONE',  ( 1.000000000000000000, 4.336808689942017736E-17, -0.000000000000000000 ) ) ;
#1078 = VERTEX_POINT ( 'NONE', #327 ) ;
#1079 = VECTOR ( 'NONE', #225, 1000.000000000000114 ) ;
#1080 = VECTOR ( 'NONE', #530, 1000.000000000000227 ) ;
#1081 = DIRECTION ( 'NONE',  ( 0.000000000000000000, -1.000000000000000000, 0.000000000000000000 ) ) ;
#1082 = AXIS2_PLACEMENT_3D ( 'NONE', #791, #809, #892 ) ;
#1083 = DIRECTION ( 'NONE',  ( 1.122448683923081701E-17, -0.2588190451025149108, 0.9659258262890698665 ) ) ;
#1084 = EDGE_CURVE ( 'NONE', #738, #695, #636, .T. ) ;
#1085 = FACE_OUTER_BOUND ( 'NONE', #147, .T. ) ;
#1086 = VERTEX_POINT ( 'NONE', #1165 ) ;
#1087 = ADVANCED_FACE ( 'NONE', ( #1158 ), #693, .F. ) ;
#1088 = LINE ( 'NONE', #95, #1041 ) ;
#1089 = FACE_OUTER_BOUND ( 'NONE', #301, .T. ) ;
#1090 = LINE ( 'NONE', #98, #287 ) ;
#1091 = EDGE_LOOP ( 'NONE', ( #309, #928, #549, #36 ) ) ;
#1092 = FACE_BOUND ( 'NONE', #674, .T. ) ;
#1093 = CARTESIAN_POINT ( 'NONE',  ( -2.500000000000000000, -13.00000000000000178, 11.00000000000000000 ) ) ;
#1094 = DIRECTION ( 'NONE',  ( 1.000000000000000000, 4.336808689942017736E-17, -0.000000000000000000 ) ) ;
#1095 = EDGE_LOOP ( 'NONE', ( #661, #427 ) ) ;
#1096 = EDGE_CURVE ( 'NONE', #187, #745, #616, .T. ) ;
#1097 = VECTOR ( 'NONE', #567, 1000.000000000000114 ) ;
#1098 = VECTOR ( 'NONE', #686, 1000.000000000000000 ) ;
#1099 = VECTOR ( 'NONE', #174, 1000.000000000000000 ) ;
#1100 = DIRECTION ( 'NONE',  ( -0.000000000000000000, -1.000000000000000000, -0.000000000000000000 ) ) ;
#1101 = DIRECTION ( 'NONE',  ( 1.122448683923081701E-17, -0.2588190451025149108, 0.9659258262890698665 ) ) ;
#1102 = ORIENTED_EDGE ( 'NONE', *, *, #387, .T. ) ;
#1103 = DIRECTION ( 'NONE',  ( -2.696301922142130536E-33, 0.9659258262890699775, 0.2588190451025147443 ) ) ;
#1104 = MANIFOLD_SOLID_BREP ( '\X2\52079664\X0\-\X2\62c94f38\X0\2', #1132 ) ;
#1105 = FACE_OUTER_BOUND ( 'NONE', #873, .T. ) ;
#1106 = ORIENTED_EDGE ( 'NONE', *, *, #542, .T. ) ;
#1107 = CARTESIAN_POINT ( 'NONE',  ( -21.41000000000000014, 0.5735143871569946539, -14.71612403232371236 ) ) ;
#1108 = DIRECTION ( 'NONE',  ( 1.122448683923081856E-17, -0.2588190451025149663, 0.9659258262890698665 ) ) ;
#1109 = ORIENTED_EDGE ( 'NONE', *, *, #433, .F. ) ;
#1110 = EDGE_CURVE ( 'NONE', #405, #359, #270, .T. ) ;
#1111 = ORIENTED_EDGE ( 'NONE', *, *, #813, .F. ) ;
#1112 = CARTESIAN_POINT ( 'NONE',  ( -3.350000000000000533, 2.020667218593132755E-16, 3.000000000000000000 ) ) ;
#1113 = VECTOR ( 'NONE', #933, 1000.000000000000000 ) ;
#1114 = VECTOR ( 'NONE', #50, 1000.000000000000000 ) ;
#1115 = PRODUCT ( 'ul', 'ul', '', ( #103 ) ) ;
#1116 = DIRECTION ( 'NONE',  ( 1.122448683923081701E-17, -0.2588190451025149108, 0.9659258262890698665 ) ) ;
#1117 = AXIS2_PLACEMENT_3D ( 'NONE', #618, #328, #604 ) ;
#1118 = VERTEX_POINT ( 'NONE', #84 ) ;
#1119 = EDGE_CURVE ( 'NONE', #1118, #1128, #242, .T. ) ;
#1120 = ADVANCED_FACE ( 'NONE', ( #709 ), #537, .F. ) ;
#1121 = CARTESIAN_POINT ( 'NONE',  ( 3.350000000000000533, 0.000000000000000000, 3.000000000000000000 ) ) ;
#1122 = FACE_OUTER_BOUND ( 'NONE', #538, .T. ) ;
#1123 = EDGE_LOOP ( 'NONE', ( #53, #1111, #1124, #608 ) ) ;
#1124 = ORIENTED_EDGE ( 'NONE', *, *, #1150, .T. ) ;
#1125 = CARTESIAN_POINT ( 'NONE',  ( -21.41000000000000014, -5.794426373790369844, 12.56532443481352956 ) ) ;
#1126 = CARTESIAN_POINT ( 'NONE',  ( 10.00000000000000178, -10.11805760128911658, 8.300982397805041657 ) ) ;
#1127 = ORIENTED_EDGE ( 'NONE', *, *, #959, .T. ) ;
#1128 = VERTEX_POINT ( 'NONE', #785 ) ;
#1129 = ORIENTED_EDGE ( 'NONE', *, *, #112, .F. ) ;
#1130 = ADVANCED_FACE ( 'NONE', ( #981 ), #607, .F. ) ;
#1131 = LINE ( 'NONE', #1152, #588 ) ;
#1132 = CLOSED_SHELL ( 'NONE', ( #546, #919, #1044, #754, #853, #721, #520, #717, #826, #109, #1120, #593, #1002, #484, #406, #414, #18, #1064, #209, #155, #329, #224, #562, #664, #481, #37, #580, #202, #622, #245, #383, #398, #2, #1087, #1130 ) ) ;
#1133 = LINE ( 'NONE', #948, #1097 ) ;
#1134 = VECTOR ( 'NONE', #407, 1000.000000000000000 ) ;
#1135 = VERTEX_POINT ( 'NONE', #256 ) ;
#1136 = EDGE_CURVE ( 'NONE', #396, #707, #417, .T. ) ;
#1137 = VECTOR ( 'NONE', #550, 1000.000000000000000 ) ;
#1138 = ORIENTED_EDGE ( 'NONE', *, *, #334, .T. ) ;
#1139 = CARTESIAN_POINT ( 'NONE',  ( -21.41000000000000014, -0.3054781147660593499, -14.95164936336700023 ) ) ;
#1140 = DIRECTION ( 'NONE',  ( 0.000000000000000000, -0.9659258262890698665, -0.2588190451025148553 ) ) ;
#1141 = ORIENTED_EDGE ( 'NONE', *, *, #678, .T. ) ;
#1142 = CARTESIAN_POINT ( 'NONE',  ( 2.500000000000000000, -13.00000000000000178, 11.00000000000000000 ) ) ;
#1143 = SURFACE_SIDE_STYLE ('',( #1149 ) ) ;
#1144 = ORIENTED_EDGE ( 'NONE', *, *, #258, .T. ) ;
#1145 = DIRECTION ( 'NONE',  ( 0.000000000000000000, -0.9659258262890698665, -0.2588190451025148553 ) ) ;
#1146 = CARTESIAN_POINT ( 'NONE',  ( -25.00000000000000000, -27.31525378351085465, 6.798836109929498051 ) ) ;
#1147 = ORIENTED_EDGE ( 'NONE', *, *, #908, .F. ) ;
#1148 = DIRECTION ( 'NONE',  ( 1.000000000000000000, 0.000000000000000000, 0.000000000000000000 ) ) ;
#1149 = SURFACE_STYLE_FILL_AREA ( #967 ) ;
#1150 = EDGE_CURVE ( 'NONE', #760, #280, #441, .T. ) ;
#1151 = ORIENTED_EDGE ( 'NONE', *, *, #20, .T. ) ;
#1152 = CARTESIAN_POINT ( 'NONE',  ( -25.00000000000000000, -10.89451473659666725, 11.19875987667224848 ) ) ;
#1153 = CARTESIAN_POINT ( 'NONE',  ( -9.999999999999998224, -11.41215282680169096, 13.13061152925039288 ) ) ;
#1154 = VERTEX_POINT ( 'NONE', #166 ) ;
#1155 = CARTESIAN_POINT ( 'NONE',  ( -25.00000000000000000, -19.58784717319829838, 8.869388470749616005 ) ) ;
#1156 = AXIS2_PLACEMENT_3D ( 'NONE', #232, #1108, #765 ) ;
#1157 = UNCERTAINTY_MEASURE_WITH_UNIT (LENGTH_MEASURE( 1.000000000000000082E-05 ), #466, 'distance_accuracy_value', 'NONE');
#1158 = FACE_OUTER_BOUND ( 'NONE', #237, .T. ) ;
#1159 = ORIENTED_EDGE ( 'NONE', *, *, #97, .T. ) ;
#1160 = EDGE_CURVE ( 'NONE', #59, #846, #421, .T. ) ;
#1161 = DIRECTION ( 'NONE',  ( 0.000000000000000000, -0.9659258262890693114, -0.2588190451025166317 ) ) ;
#1162 = DIRECTION ( 'NONE',  ( 1.122448683923080777E-17, -0.2588190451025147443, 0.9659258262890698665 ) ) ;
#1163 = ORIENTED_EDGE ( 'NONE', *, *, #749, .T. ) ;
#1164 = CARTESIAN_POINT ( 'NONE',  ( 21.41000000000000014, -7.191056965918454225, 14.26165075634838253 ) ) ;
#1165 = CARTESIAN_POINT ( 'NONE',  ( -21.41000000000000014, -6.312064463995400665, 14.49717608739166863 ) ) ;
#1166 = VERTEX_POINT ( 'NONE', #6 ) ;
#1167 = CARTESIAN_POINT ( 'NONE',  ( 21.41000000000000014, -24.32658112428655528, 9.670200896229765419 ) ) ;
#1168 = CARTESIAN_POINT ( 'NONE',  ( 10.00000000000000178, -20.10548526340333098, 10.80124012332775507 ) ) ;
#1169 = CARTESIAN_POINT ( 'NONE',  ( 5.000000000000000888, 0.000000000000000000, 3.000000000000000000 ) ) ;
ENDSEC;
END-ISO-10303-21;
