ISO-10303-21;
HEADER;
FILE_DESCRIPTION (( 'STEP AP214' ),
    '1' );
FILE_NAME ('¼Ð.STEP',
    '2026-05-09T06:33:52',
    ( '' ),
    ( '' ),
    'SwSTEP 2.0',
    'SolidWorks 2025',
    '' );
FILE_SCHEMA (( 'AUTOMOTIVE_DESIGN' ));
ENDSEC;

DATA;
#1 = DIRECTION ( 'NONE',  ( 0.000000000000000000, 0.000000000000000000, -1.000000000000000000 ) ) ;
#2 = ORIENTED_EDGE ( 'NONE', *, *, #587, .F. ) ;
#3 = CARTESIAN_POINT ( 'NONE',  ( 6.499999999999999112, 1.399999999999999689, -11.50000000000000000 ) ) ;
#4 = CIRCLE ( 'NONE', #212, 1.600000000000002531 ) ;
#5 = LINE ( 'NONE', #790, #185 ) ;
#6 = AXIS2_PLACEMENT_3D ( 'NONE', #494, #367, #509 ) ;
#7 = ORIENTED_EDGE ( 'NONE', *, *, #703, .F. ) ;
#8 = DIRECTION ( 'NONE',  ( 0.000000000000000000, 0.000000000000000000, 1.000000000000000000 ) ) ;
#9 = EDGE_CURVE ( 'NONE', #546, #665, #217, .T. ) ;
#10 = ADVANCED_FACE ( 'NONE', ( #96 ), #121, .F. ) ;
#11 = DIRECTION ( 'NONE',  ( -0.000000000000000000, -0.000000000000000000, 1.000000000000000000 ) ) ;
#12 = ORIENTED_EDGE ( 'NONE', *, *, #24, .F. ) ;
#13 = DIRECTION ( 'NONE',  ( 1.000000000000000000, 0.000000000000000000, 0.000000000000000000 ) ) ;
#14 = CARTESIAN_POINT ( 'NONE',  ( 6.499999999999999112, -1.400000000000000133, -11.50000000000000000 ) ) ;
#15 = ORIENTED_EDGE ( 'NONE', *, *, #647, .T. ) ;
#16 = PLANE ( 'NONE',  #383 ) ;
#17 = FILL_AREA_STYLE ('',( #322 ) ) ;
#18 = AXIS2_PLACEMENT_3D ( 'NONE', #731, #567, #375 ) ;
#19 = EDGE_LOOP ( 'NONE', ( #272, #508 ) ) ;
#20 = AXIS2_PLACEMENT_3D ( 'NONE', #528, #44, #234 ) ;
#21 = DIRECTION ( 'NONE',  ( -0.000000000000000000, 0.000000000000000000, 1.000000000000000000 ) ) ;
#22 = DIRECTION ( 'NONE',  ( -1.000000000000000000, 1.355252715606878324E-16, 0.000000000000000000 ) ) ;
#23 = ORIENTED_EDGE ( 'NONE', *, *, #743, .T. ) ;
#24 = EDGE_CURVE ( 'NONE', #586, #762, #675, .T. ) ;
#25 = CARTESIAN_POINT ( 'NONE',  ( 6.499999999999999112, -1.400000000000000133, 2.500000000000000000 ) ) ;
#26 = DIRECTION ( 'NONE',  ( 1.000000000000000000, 0.000000000000000000, 0.000000000000000000 ) ) ;
#27 = EDGE_LOOP ( 'NONE', ( #415, #716, #223, #190 ) ) ;
#28 = DIRECTION ( 'NONE',  ( 0.000000000000000000, 0.000000000000000000, 1.000000000000000000 ) ) ;
#29 = DIRECTION ( 'NONE',  ( 1.445602896647339410E-16, 1.000000000000000000, -0.000000000000000000 ) ) ;
#30 = UNCERTAINTY_MEASURE_WITH_UNIT (LENGTH_MEASURE( 1.000000000000000082E-05 ), #515, 'distance_accuracy_value', 'NONE');
#31 = ORIENTED_EDGE ( 'NONE', *, *, #724, .T. ) ;
#32 = VECTOR ( 'NONE', #627, 1000.000000000000000 ) ;
#33 = CIRCLE ( 'NONE', #570, 1.650000000000000355 ) ;
#34 = AXIS2_PLACEMENT_3D ( 'NONE', #330, #692, #136 ) ;
#35 = EDGE_CURVE ( 'NONE', #652, #203, #432, .T. ) ;
#36 = PLANE ( 'NONE',  #368 ) ;
#37 = ORIENTED_EDGE ( 'NONE', *, *, #192, .F. ) ;
#38 = DIRECTION ( 'NONE',  ( 0.000000000000000000, -1.000000000000000000, 0.000000000000000000 ) ) ;
#39 = VERTEX_POINT ( 'NONE', #796 ) ;
#40 = FACE_OUTER_BOUND ( 'NONE', #229, .T. ) ;
#41 = EDGE_CURVE ( 'NONE', #92, #758, #245, .T. ) ;
#42 = EDGE_LOOP ( 'NONE', ( #395, #624, #438, #467 ) ) ;
#43 = EDGE_LOOP ( 'NONE', ( #655, #226, #778, #474, #493, #519, #220, #433, #329, #737, #578, #526, #719, #128, #178, #31 ) ) ;
#44 = DIRECTION ( 'NONE',  ( -1.156482317317871478E-16, 1.000000000000000000, 0.000000000000000000 ) ) ;
#45 = VECTOR ( 'NONE', #768, 1000.000000000000000 ) ;
#46 = CIRCLE ( 'NONE', #20, 1.600000000000002531 ) ;
#47 = CARTESIAN_POINT ( 'NONE',  ( 1.499999999999999112, 1.399999999999999689, 2.500000000000000000 ) ) ;
#48 = ORIENTED_EDGE ( 'NONE', *, *, #802, .F. ) ;
#49 = DIRECTION ( 'NONE',  ( 1.000000000000000000, 0.000000000000000000, 0.000000000000000000 ) ) ;
#50 = CARTESIAN_POINT ( 'NONE',  ( -1.113114230418453027E-16, -1.100000000000001865, -2.500000000000000000 ) ) ;
#51 = DIRECTION ( 'NONE',  ( -1.000000000000000000, 0.000000000000000000, 0.000000000000000000 ) ) ;
#52 = LINE ( 'NONE', #294, #200 ) ;
#53 = EDGE_CURVE ( 'NONE', #297, #118, #683, .T. ) ;
#54 = CYLINDRICAL_SURFACE ( 'NONE', #260, 1.650000000000000355 ) ;
#55 = DIRECTION ( 'NONE',  ( 1.445602896647339410E-16, 1.000000000000000000, 0.000000000000000000 ) ) ;
#56 = VERTEX_POINT ( 'NONE', #735 ) ;
#57 = PLANE ( 'NONE',  #460 ) ;
#58 = COLOUR_RGB ( '',0.7921568627450980005, 0.8196078431372548767, 0.9333333333333333481 ) ;
#59 = VECTOR ( 'NONE', #382, 1000.000000000000000 ) ;
#60 = LINE ( 'NONE', #302, #405 ) ;
#61 = ORIENTED_EDGE ( 'NONE', *, *, #131, .T. ) ;
#62 = CARTESIAN_POINT ( 'NONE',  ( -1.272130549049660426E-16, 1.100000000000001643, 2.500000000000000000 ) ) ;
#63 = CARTESIAN_POINT ( 'NONE',  ( 14.99999999999997691, 1.100000000000003419, 2.500000000000000000 ) ) ;
#64 = DIRECTION ( 'NONE',  ( -0.000000000000000000, -0.000000000000000000, 1.000000000000000000 ) ) ;
#65 = EDGE_LOOP ( 'NONE', ( #600, #500, #676, #197 ) ) ;
#66 = CARTESIAN_POINT ( 'NONE',  ( -15.00000000000001954, 4.100000000000001421, -2.500000000000000000 ) ) ;
#67 = DIRECTION ( 'NONE',  ( 1.000000000000000000, -0.000000000000000000, 0.000000000000000000 ) ) ;
#68 = EDGE_CURVE ( 'NONE', #462, #303, #112, .T. ) ;
#69 = ORIENTED_EDGE ( 'NONE', *, *, #257, .F. ) ;
#70 =( NAMED_UNIT ( * ) PLANE_ANGLE_UNIT ( ) SI_UNIT ( $, .RADIAN. ) );
#71 = ADVANCED_FACE ( 'NONE', ( #296 ), #176, .T. ) ;
#72 = FACE_OUTER_BOUND ( 'NONE', #65, .T. ) ;
#73 = VECTOR ( 'NONE', #168, 1000.000000000000000 ) ;
#74 = DIRECTION ( 'NONE',  ( -1.000000000000000000, 0.000000000000000000, 0.000000000000000000 ) ) ;
#75 = AXIS2_PLACEMENT_3D ( 'NONE', #440, #635, #146 ) ;
#76 = ORIENTED_EDGE ( 'NONE', *, *, #544, .F. ) ;
#77 = APPLICATION_PROTOCOL_DEFINITION ( 'draft international standard', 'automotive_design', 1998, #186 ) ;
#78 = LINE ( 'NONE', #636, #538 ) ;
#79 = ORIENTED_EDGE ( 'NONE', *, *, #610, .F. ) ;
#80 = EDGE_CURVE ( 'NONE', #661, #446, #60, .T. ) ;
#81 = DIRECTION ( 'NONE',  ( 1.000000000000000000, -1.011922027653137513E-16, 0.000000000000000000 ) ) ;
#82 = ORIENTED_EDGE ( 'NONE', *, *, #464, .T. ) ;
#83 = CARTESIAN_POINT ( 'NONE',  ( 14.99999999999997691, 1.100000000000003419, -2.500000000000000000 ) ) ;
#84 = PLANE ( 'NONE',  #449 ) ;
#85 = EDGE_LOOP ( 'NONE', ( #167, #106 ) ) ;
#86 = VECTOR ( 'NONE', #476, 1000.000000000000000 ) ;
#87 = DIRECTION ( 'NONE',  ( 1.000000000000000000, 0.000000000000000000, 0.000000000000000000 ) ) ;
#88 = CARTESIAN_POINT ( 'NONE',  ( 6.499999999999999112, 1.399999999999999689, 2.500000000000000000 ) ) ;
#89 = ORIENTED_EDGE ( 'NONE', *, *, #574, .T. ) ;
#90 = CARTESIAN_POINT ( 'NONE',  ( 1.499999999999999112, -1.400000000000000133, -11.50000000000000000 ) ) ;
#91 = LINE ( 'NONE', #589, #381 ) ;
#92 = VERTEX_POINT ( 'NONE', #371 ) ;
#93 = EDGE_CURVE ( 'NONE', #786, #665, #423, .T. ) ;
#94 = DIRECTION ( 'NONE',  ( -0.000000000000000000, -0.000000000000000000, 1.000000000000000000 ) ) ;
#95 = DIRECTION ( 'NONE',  ( -5.782411586589369472E-16, -1.000000000000000000, 0.000000000000000000 ) ) ;
#96 = FACE_OUTER_BOUND ( 'NONE', #765, .T. ) ;
#97 = AXIS2_PLACEMENT_3D ( 'NONE', #478, #524, #649 ) ;
#98 = AXIS2_PLACEMENT_3D ( 'NONE', #387, #638, #701 ) ;
#99 = CARTESIAN_POINT ( 'NONE',  ( 1.499999999999999112, -1.100000000000002087, 2.500000000000000000 ) ) ;
#100 = ORIENTED_EDGE ( 'NONE', *, *, #595, .T. ) ;
#101 = ADVANCED_FACE ( 'NONE', ( #365 ), #116, .F. ) ;
#102 = CARTESIAN_POINT ( 'NONE',  ( 1.499999999999999112, 1.399999999999999689, 2.500000000000000000 ) ) ;
#103 = EDGE_LOOP ( 'NONE', ( #163, #76, #222, #388 ) ) ;
#104 = DIRECTION ( 'NONE',  ( -5.782411586589354681E-16, -1.000000000000000000, 0.000000000000000000 ) ) ;
#105 = EDGE_CURVE ( 'NONE', #637, #702, #369, .T. ) ;
#106 = ORIENTED_EDGE ( 'NONE', *, *, #155, .F. ) ;
#107 = EDGE_LOOP ( 'NONE', ( #573, #12, #89, #182 ) ) ;
#108 = CARTESIAN_POINT ( 'NONE',  ( 5.926971876254089262E-16, -4.099999999999998757, 2.500000000000000000 ) ) ;
#109 = AXIS2_PLACEMENT_3D ( 'NONE', #147, #581, #22 ) ;
#110 = VECTOR ( 'NONE', #215, 1000.000000000000000 ) ;
#111 = FACE_OUTER_BOUND ( 'NONE', #27, .T. ) ;
#112 = LINE ( 'NONE', #183, #263 ) ;
#113 = ORIENTED_EDGE ( 'NONE', *, *, #645, .F. ) ;
#114 = CARTESIAN_POINT ( 'NONE',  ( 14.99999999999997691, 4.099999999999996980, -2.500000000000000000 ) ) ;
#115 = CARTESIAN_POINT ( 'NONE',  ( 1.499999999999999112, 1.399999999999999689, -2.500000000000000000 ) ) ;
#116 = PLANE ( 'NONE',  #392 ) ;
#117 = AXIS2_PLACEMENT_3D ( 'NONE', #633, #799, #247 ) ;
#118 = VERTEX_POINT ( 'NONE', #442 ) ;
#119 = DIRECTION ( 'NONE',  ( 1.000000000000000000, 1.445602896647339410E-16, 0.000000000000000000 ) ) ;
#120 = DIRECTION ( 'NONE',  ( 1.000000000000000000, -5.782411586589369472E-16, 0.000000000000000000 ) ) ;
#121 = PLANE ( 'NONE',  #616 ) ;
#122 = VERTEX_POINT ( 'NONE', #428 ) ;
#123 = DIRECTION ( 'NONE',  ( -1.000000000000000000, 0.000000000000000000, 0.000000000000000000 ) ) ;
#124 = VECTOR ( 'NONE', #678, 1000.000000000000000 ) ;
#125 = LINE ( 'NONE', #50, #794 ) ;
#126 = VECTOR ( 'NONE', #782, 1000.000000000000000 ) ;
#127 = DIRECTION ( 'NONE',  ( -1.156482317317871478E-16, 1.000000000000000000, 0.000000000000000000 ) ) ;
#128 = ORIENTED_EDGE ( 'NONE', *, *, #351, .T. ) ;
#129 = DIRECTION ( 'NONE',  ( 0.000000000000000000, 1.000000000000000000, -0.000000000000000000 ) ) ;
#130 = PLANE ( 'NONE',  #643 ) ;
#131 = EDGE_CURVE ( 'NONE', #376, #537, #554, .T. ) ;
#132 = DIRECTION ( 'NONE',  ( 0.000000000000000000, 0.000000000000000000, -1.000000000000000000 ) ) ;
#133 = EDGE_CURVE ( 'NONE', #726, #254, #740, .T. ) ;
#134 = EDGE_LOOP ( 'NONE', ( #233, #357, #266, #205 ) ) ;
#135 =( LENGTH_UNIT ( ) NAMED_UNIT ( * ) SI_UNIT ( .MILLI., .METRE. ) );
#136 = DIRECTION ( 'NONE',  ( -0.000000000000000000, 0.000000000000000000, -1.000000000000000000 ) ) ;
#137 = DIRECTION ( 'NONE',  ( 1.000000000000000000, -1.011922027653137513E-16, 0.000000000000000000 ) ) ;
#138 = VERTEX_POINT ( 'NONE', #607 ) ;
#139 = PRODUCT_CONTEXT ( 'NONE', #599, 'mechanical' ) ;
#140 = PRESENTATION_LAYER_ASSIGNMENT (  '', '', ( #485 ) ) ;
#141 = VECTOR ( 'NONE', #535, 1000.000000000000000 ) ;
#142 = VERTEX_POINT ( 'NONE', #801 ) ;
#143 = LINE ( 'NONE', #386, #188 ) ;
#144 = DIRECTION ( 'NONE',  ( 0.000000000000000000, 0.000000000000000000, -1.000000000000000000 ) ) ;
#145 = EDGE_LOOP ( 'NONE', ( #2, #597 ) ) ;
#146 = DIRECTION ( 'NONE',  ( 1.000000000000000000, 0.000000000000000000, 0.000000000000000000 ) ) ;
#147 = CARTESIAN_POINT ( 'NONE',  ( 11.00000000000000000, -1.100000000000003642, 0.000000000000000000 ) ) ;
#148 = ORIENTED_EDGE ( 'NONE', *, *, #645, .T. ) ;
#149 = CARTESIAN_POINT ( 'NONE',  ( 1.499999999999999112, 0.000000000000000000, -2.500000000000000000 ) ) ;
#150 = AXIS2_PLACEMENT_3D ( 'NONE', #757, #755, #704 ) ;
#151 = ORIENTED_EDGE ( 'NONE', *, *, #412, .F. ) ;
#152 = VECTOR ( 'NONE', #129, 1000.000000000000000 ) ;
#153 = CARTESIAN_POINT ( 'NONE',  ( 12.60000000000000142, 4.099999999999996980, 1.959434878635766463E-16 ) ) ;
#154 = PRODUCT_DEFINITION_SHAPE ( 'NONE', 'NONE',  #404 ) ;
#155 = EDGE_CURVE ( 'NONE', #702, #637, #470, .T. ) ;
#156 = CARTESIAN_POINT ( 'NONE',  ( -12.65000000000000036, 2.020667218593133494E-16, -11.50000000000000000 ) ) ;
#157 = ADVANCED_FACE ( 'NONE', ( #305 ), #563, .F. ) ;
#158 = ORIENTED_EDGE ( 'NONE', *, *, #336, .F. ) ;
#159 = CARTESIAN_POINT ( 'NONE',  ( 6.499999999999999112, -1.400000000000000133, 2.500000000000000000 ) ) ;
#160 = DIRECTION ( 'NONE',  ( -1.000000000000000000, 5.782411586589354681E-16, 0.000000000000000000 ) ) ;
#161 = DIRECTION ( 'NONE',  ( 0.000000000000000000, 1.000000000000000000, -0.000000000000000000 ) ) ;
#162 = DIRECTION ( 'NONE',  ( -0.000000000000000000, -0.000000000000000000, -1.000000000000000000 ) ) ;
#163 = ORIENTED_EDGE ( 'NONE', *, *, #479, .F. ) ;
#164 = AXIS2_PLACEMENT_3D ( 'NONE', #510, #324, #199 ) ;
#165 = EDGE_CURVE ( 'NONE', #303, #604, #550, .T. ) ;
#166 = DIRECTION ( 'NONE',  ( 0.000000000000000000, 0.000000000000000000, 1.000000000000000000 ) ) ;
#167 = ORIENTED_EDGE ( 'NONE', *, *, #105, .F. ) ;
#168 = DIRECTION ( 'NONE',  ( -0.000000000000000000, -0.000000000000000000, 1.000000000000000000 ) ) ;
#169 = EDGE_LOOP ( 'NONE', ( #532, #473, #451, #113 ) ) ;
#170 = DIRECTION ( 'NONE',  ( 0.000000000000000000, 0.000000000000000000, 1.000000000000000000 ) ) ;
#171 = DIRECTION ( 'NONE',  ( -1.000000000000000000, -1.156482317317871478E-16, 0.000000000000000000 ) ) ;
#172 = EDGE_LOOP ( 'NONE', ( #151, #280, #148, #568 ) ) ;
#173 = DIRECTION ( 'NONE',  ( 1.000000000000000000, -1.011922027653137513E-16, 0.000000000000000000 ) ) ;
#174 = AXIS2_PLACEMENT_3D ( 'NONE', #90, #358, #792 ) ;
#175 = DIRECTION ( 'NONE',  ( 1.445602896647339410E-16, 1.000000000000000000, -0.000000000000000000 ) ) ;
#176 = PLANE ( 'NONE',  #18 ) ;
#177 = EDGE_CURVE ( 'NONE', #604, #297, #5, .T. ) ;
#178 = ORIENTED_EDGE ( 'NONE', *, *, #196, .T. ) ;
#179 = CARTESIAN_POINT ( 'NONE',  ( 14.99999999999997868, -8.673617379884041783E-15, -2.500000000000000000 ) ) ;
#180 = CYLINDRICAL_SURFACE ( 'NONE', #684, 1.600000000000002531 ) ;
#181 = DIRECTION ( 'NONE',  ( 1.000000000000000000, -1.445602896647339410E-16, 0.000000000000000000 ) ) ;
#182 = ORIENTED_EDGE ( 'NONE', *, *, #713, .T. ) ;
#183 = CARTESIAN_POINT ( 'NONE',  ( 1.499999999999999112, -1.400000000000000133, 2.500000000000000000 ) ) ;
#184 = EDGE_LOOP ( 'NONE', ( #663, #685, #705, #613 ) ) ;
#185 = VECTOR ( 'NONE', #261, 1000.000000000000000 ) ;
#186 = APPLICATION_CONTEXT ( 'automotive_design' ) ;
#187 = FACE_OUTER_BOUND ( 'NONE', #561, .T. ) ;
#188 = VECTOR ( 'NONE', #506, 1000.000000000000000 ) ;
#189 = DIRECTION ( 'NONE',  ( -1.000000000000000000, 0.000000000000000000, 0.000000000000000000 ) ) ;
#190 = ORIENTED_EDGE ( 'NONE', *, *, #763, .T. ) ;
#191 = CARTESIAN_POINT ( 'NONE',  ( -15.00000000000002132, 8.673617379884044938E-15, -2.500000000000000000 ) ) ;
#192 = EDGE_CURVE ( 'NONE', #652, #425, #201, .T. ) ;
#193 = DIRECTION ( 'NONE',  ( 0.000000000000000000, 0.000000000000000000, -1.000000000000000000 ) ) ;
#194 = ORIENTED_EDGE ( 'NONE', *, *, #736, .T. ) ;
#195 =( NAMED_UNIT ( * ) SI_UNIT ( $, .STERADIAN. ) SOLID_ANGLE_UNIT ( ) );
#196 = EDGE_CURVE ( 'NONE', #39, #693, #450, .T. ) ;
#197 = ORIENTED_EDGE ( 'NONE', *, *, #342, .T. ) ;
#198 = CARTESIAN_POINT ( 'NONE',  ( 14.99999999999997691, 1.100000000000003419, 2.500000000000000000 ) ) ;
#199 = DIRECTION ( 'NONE',  ( -1.000000000000000000, -1.355252715606878324E-16, 0.000000000000000000 ) ) ;
#200 = VECTOR ( 'NONE', #173, 1000.000000000000000 ) ;
#201 = LINE ( 'NONE', #641, #657 ) ;
#202 = MANIFOLD_SOLID_BREP ( '\X2\52079664\X0\-\X2\62c94f38\X0\3', #644 ) ;
#203 = VERTEX_POINT ( 'NONE', #764 ) ;
#204 = SURFACE_STYLE_USAGE ( .BOTH. , #394 ) ;
#205 = ORIENTED_EDGE ( 'NONE', *, *, #306, .T. ) ;
#206 = CARTESIAN_POINT ( 'NONE',  ( -11.00000000000000000, 0.000000000000000000, -2.500000000000000444 ) ) ;
#207 = ORIENTED_EDGE ( 'NONE', *, *, #795, .T. ) ;
#208 = EDGE_CURVE ( 'NONE', #203, #546, #78, .T. ) ;
#209 = CARTESIAN_POINT ( 'NONE',  ( 0.000000000000000000, 1.399999999999999689, -2.500000000000000000 ) ) ;
#210 = ADVANCED_FACE ( 'NONE', ( #575 ), #253, .F. ) ;
#211 = FACE_BOUND ( 'NONE', #19, .T. ) ;
#212 = AXIS2_PLACEMENT_3D ( 'NONE', #377, #631, #74 ) ;
#213 = VERTEX_POINT ( 'NONE', #320 ) ;
#214 = VECTOR ( 'NONE', #269, 1000.000000000000000 ) ;
#215 = DIRECTION ( 'NONE',  ( -0.000000000000000000, -0.000000000000000000, -1.000000000000000000 ) ) ;
#216 = CARTESIAN_POINT ( 'NONE',  ( 5.926971876254089262E-16, 4.099999999999998757, 2.500000000000000000 ) ) ;
#217 = LINE ( 'NONE', #714, #286 ) ;
#218 = CARTESIAN_POINT ( 'NONE',  ( 9.399999999999996803, -1.100000000000003642, 0.000000000000000000 ) ) ;
#219 = EDGE_CURVE ( 'NONE', #481, #275, #384, .T. ) ;
#220 = ORIENTED_EDGE ( 'NONE', *, *, #93, .T. ) ;
#221 = CARTESIAN_POINT ( 'NONE',  ( -9.349999999999999645, 0.000000000000000000, -2.500000000000000444 ) ) ;
#222 = ORIENTED_EDGE ( 'NONE', *, *, #363, .T. ) ;
#223 = ORIENTED_EDGE ( 'NONE', *, *, #743, .F. ) ;
#224 = ADVANCED_FACE ( 'NONE', ( #454 ), #84, .F. ) ;
#225 = PLANE ( 'NONE',  #668 ) ;
#226 = ORIENTED_EDGE ( 'NONE', *, *, #520, .T. ) ;
#227 = CARTESIAN_POINT ( 'NONE',  ( 14.99999999999997691, -4.099999999999996980, 2.500000000000000000 ) ) ;
#228 = DIRECTION ( 'NONE',  ( 1.445602896647339410E-16, 1.000000000000000000, -0.000000000000000000 ) ) ;
#229 = EDGE_LOOP ( 'NONE', ( #720, #632, #691, #316 ) ) ;
#230 = PLANE ( 'NONE',  #174 ) ;
#231 = ADVANCED_FACE ( 'NONE', ( #646, #211 ), #328, .F. ) ;
#232 = CARTESIAN_POINT ( 'NONE',  ( 11.00000000000000000, 4.099999999999996980, 0.000000000000000000 ) ) ;
#233 = ORIENTED_EDGE ( 'NONE', *, *, #93, .F. ) ;
#234 = DIRECTION ( 'NONE',  ( -1.000000000000000000, -1.355252715606878324E-16, 0.000000000000000000 ) ) ;
#235 = VECTOR ( 'NONE', #513, 1000.000000000000000 ) ;
#236 = VECTOR ( 'NONE', #1, 1000.000000000000000 ) ;
#237 = DIRECTION ( 'NONE',  ( 1.011922027653137513E-16, 1.000000000000000000, -0.000000000000000000 ) ) ;
#238 = DIRECTION ( 'NONE',  ( -0.000000000000000000, -0.000000000000000000, -1.000000000000000000 ) ) ;
#239 = VERTEX_POINT ( 'NONE', #88 ) ;
#240 = CARTESIAN_POINT ( 'NONE',  ( 14.99999999999997691, 0.000000000000000000, 2.500000000000000000 ) ) ;
#241 = DIRECTION ( 'NONE',  ( -1.000000000000000000, 1.011922027653137513E-16, 0.000000000000000000 ) ) ;
#242 = DIRECTION ( 'NONE',  ( 1.445602896647339410E-16, 1.000000000000000000, 0.000000000000000000 ) ) ;
#243 = EDGE_CURVE ( 'NONE', #496, #307, #300, .T. ) ;
#244 = EDGE_LOOP ( 'NONE', ( #769, #774 ) ) ;
#245 = LINE ( 'NONE', #751, #697 ) ;
#246 = VERTEX_POINT ( 'NONE', #265 ) ;
#247 = DIRECTION ( 'NONE',  ( 1.000000000000000000, 0.000000000000000000, 0.000000000000000000 ) ) ;
#248 = VECTOR ( 'NONE', #565, 1000.000000000000000 ) ;
#249 = CARTESIAN_POINT ( 'NONE',  ( 5.926971876254089262E-16, 4.099999999999998757, -2.500000000000000000 ) ) ;
#250 = ORIENTED_EDGE ( 'NONE', *, *, #595, .F. ) ;
#251 = CARTESIAN_POINT ( 'NONE',  ( 14.99999999999997868, -1.100000000000003419, -2.500000000000000000 ) ) ;
#252 = CARTESIAN_POINT ( 'NONE',  ( -9.349999999999999645, 0.000000000000000000, 2.500000000000000000 ) ) ;
#253 = CYLINDRICAL_SURFACE ( 'NONE', #150, 1.600000000000002531 ) ;
#254 = VERTEX_POINT ( 'NONE', #522 ) ;
#255 = CARTESIAN_POINT ( 'NONE',  ( 1.499999999999999112, 1.399999999999999689, -11.50000000000000000 ) ) ;
#256 = DIRECTION ( 'NONE',  ( 1.000000000000000000, 1.156482317317871478E-16, 0.000000000000000000 ) ) ;
#257 = EDGE_CURVE ( 'NONE', #376, #576, #770, .T. ) ;
#258 = ORIENTED_EDGE ( 'NONE', *, *, #267, .T. ) ;
#259 = VECTOR ( 'NONE', #181, 1000.000000000000000 ) ;
#260 = AXIS2_PLACEMENT_3D ( 'NONE', #295, #793, #87 ) ;
#261 = DIRECTION ( 'NONE',  ( 0.000000000000000000, 1.000000000000000000, 0.000000000000000000 ) ) ;
#262 = EDGE_LOOP ( 'NONE', ( #411, #722, #804, #283 ) ) ;
#263 = VECTOR ( 'NONE', #491, 1000.000000000000000 ) ;
#264 = FACE_OUTER_BOUND ( 'NONE', #564, .T. ) ;
#265 = CARTESIAN_POINT ( 'NONE',  ( 6.499999999999999112, 1.399999999999999689, -2.500000000000000444 ) ) ;
#266 = ORIENTED_EDGE ( 'NONE', *, *, #802, .T. ) ;
#267 = EDGE_CURVE ( 'NONE', #297, #92, #271, .T. ) ;
#268 = EDGE_CURVE ( 'NONE', #278, #741, #4, .T. ) ;
#269 = DIRECTION ( 'NONE',  ( 5.782411586589354681E-16, 1.000000000000000000, 0.000000000000000000 ) ) ;
#270 = VECTOR ( 'NONE', #497, 1000.000000000000000 ) ;
#271 = LINE ( 'NONE', #690, #459 ) ;
#272 = ORIENTED_EDGE ( 'NONE', *, *, #257, .T. ) ;
#273 = CARTESIAN_POINT ( 'NONE',  ( 6.499999999999999112, -1.400000000000000133, -11.50000000000000000 ) ) ;
#274 = FACE_BOUND ( 'NONE', #85, .T. ) ;
#275 = VERTEX_POINT ( 'NONE', #461 ) ;
#276 = ADVANCED_FACE ( 'NONE', ( #274, #287 ), #225, .T. ) ;
#277 = CARTESIAN_POINT ( 'NONE',  ( 9.399999999999995026, -4.099999999999999645, 0.000000000000000000 ) ) ;
#278 = VERTEX_POINT ( 'NONE', #277 ) ;
#279 = DIRECTION ( 'NONE',  ( 0.000000000000000000, -0.000000000000000000, 1.000000000000000000 ) ) ;
#280 = ORIENTED_EDGE ( 'NONE', *, *, #268, .F. ) ;
#281 = CARTESIAN_POINT ( 'NONE',  ( 1.499999999999999112, -1.400000000000000133, 2.500000000000000000 ) ) ;
#282 = ORIENTED_EDGE ( 'NONE', *, *, #378, .F. ) ;
#283 = ORIENTED_EDGE ( 'NONE', *, *, #610, .T. ) ;
#284 = VECTOR ( 'NONE', #662, 1000.000000000000000 ) ;
#285 = DIRECTION ( 'NONE',  ( -5.782411586589369472E-16, -1.000000000000000000, 0.000000000000000000 ) ) ;
#286 = VECTOR ( 'NONE', #161, 1000.000000000000000 ) ;
#287 = FACE_OUTER_BOUND ( 'NONE', #134, .T. ) ;
#288 = ORIENTED_EDGE ( 'NONE', *, *, #736, .F. ) ;
#289 = CARTESIAN_POINT ( 'NONE',  ( -7.000000000000020428, 1.100000000000000755, 2.500000000000000000 ) ) ;
#290 = EDGE_CURVE ( 'NONE', #576, #56, #533, .T. ) ;
#291 = ADVANCED_FACE ( 'NONE', ( #406 ), #531, .F. ) ;
#292 = LINE ( 'NONE', #729, #580 ) ;
#293 = DIRECTION ( 'NONE',  ( 1.000000000000000000, 0.000000000000000000, 0.000000000000000000 ) ) ;
#294 = CARTESIAN_POINT ( 'NONE',  ( -1.113114230418453027E-16, -1.100000000000001865, 2.500000000000000000 ) ) ;
#295 = CARTESIAN_POINT ( 'NONE',  ( -11.00000000000000000, 0.000000000000000000, -11.50000000000000000 ) ) ;
#296 = FACE_OUTER_BOUND ( 'NONE', #262, .T. ) ;
#297 = VERTEX_POINT ( 'NONE', #413 ) ;
#298 = AXIS2_PLACEMENT_3D ( 'NONE', #437, #55, #356 ) ;
#299 = VECTOR ( 'NONE', #551, 1000.000000000000000 ) ;
#300 = CIRCLE ( 'NONE', #109, 1.600000000000002531 ) ;
#301 = EDGE_CURVE ( 'NONE', #379, #138, #775, .T. ) ;
#302 = CARTESIAN_POINT ( 'NONE',  ( 0.000000000000000000, -1.400000000000000133, -2.500000000000000000 ) ) ;
#303 = VERTEX_POINT ( 'NONE', #773 ) ;
#304 = CARTESIAN_POINT ( 'NONE',  ( -1.113114230418453027E-16, -1.100000000000001865, 2.500000000000000000 ) ) ;
#305 = FACE_OUTER_BOUND ( 'NONE', #169, .T. ) ;
#306 = EDGE_CURVE ( 'NONE', #410, #665, #545, .T. ) ;
#307 = VERTEX_POINT ( 'NONE', #218 ) ;
#308 = LINE ( 'NONE', #62, #270 ) ;
#309 = CARTESIAN_POINT ( 'NONE',  ( 14.99999999999997868, -8.673617379884041783E-15, 2.500000000000000000 ) ) ;
#310 = CARTESIAN_POINT ( 'NONE',  ( 1.499999999999999112, -1.400000000000000133, 2.500000000000000000 ) ) ;
#311 = ORIENTED_EDGE ( 'NONE', *, *, #520, .F. ) ;
#312 = AXIS2_PLACEMENT_3D ( 'NONE', #718, #539, #279 ) ;
#313 = CARTESIAN_POINT ( 'NONE',  ( 0.000000000000000000, 0.000000000000000000, 2.500000000000000000 ) ) ;
#314 = VECTOR ( 'NONE', #38, 1000.000000000000000 ) ;
#315 =( NAMED_UNIT ( * ) PLANE_ANGLE_UNIT ( ) SI_UNIT ( $, .RADIAN. ) );
#316 = ORIENTED_EDGE ( 'NONE', *, *, #133, .T. ) ;
#317 = ADVANCED_FACE ( 'NONE', ( #785, #398 ), #664, .F. ) ;
#318 = CARTESIAN_POINT ( 'NONE',  ( 1.499999999999999112, -1.400000000000000133, -11.50000000000000000 ) ) ;
#319 = ADVANCED_BREP_SHAPE_REPRESENTATION ( '\X2\5939\X0\', ( #202, #117 ), #739 ) ;
#320 = CARTESIAN_POINT ( 'NONE',  ( -7.000000000000020428, 1.100000000000000755, 2.500000000000000000 ) ) ;
#321 = ORIENTED_EDGE ( 'NONE', *, *, #622, .T. ) ;
#322 = FILL_AREA_STYLE_COLOUR ( '', #58 ) ;
#323 = ORIENTED_EDGE ( 'NONE', *, *, #80, .F. ) ;
#324 = DIRECTION ( 'NONE',  ( -1.156482317317871478E-16, 1.000000000000000000, 0.000000000000000000 ) ) ;
#325 = VECTOR ( 'NONE', #81, 1000.000000000000000 ) ;
#326 = CIRCLE ( 'NONE', #97, 1.600000000000002531 ) ;
#327 = ADVANCED_FACE ( 'NONE', ( #780 ), #36, .T. ) ;
#328 = PLANE ( 'NONE',  #98 ) ;
#329 = ORIENTED_EDGE ( 'NONE', *, *, #208, .F. ) ;
#330 = CARTESIAN_POINT ( 'NONE',  ( -7.000000000000020428, 0.000000000000000000, 2.500000000000000000 ) ) ;
#331 = ORIENTED_EDGE ( 'NONE', *, *, #763, .F. ) ;
#332 = EDGE_CURVE ( 'NONE', #762, #254, #334, .T. ) ;
#333 = CARTESIAN_POINT ( 'NONE',  ( 9.399999999999989697, -45.90000000000000568, 0.000000000000000000 ) ) ;
#334 = LINE ( 'NONE', #402, #86 ) ;
#335 = ORIENTED_EDGE ( 'NONE', *, *, #553, .T. ) ;
#336 = EDGE_CURVE ( 'NONE', #92, #726, #91, .T. ) ;
#337 = CARTESIAN_POINT ( 'NONE',  ( -7.000000000000020428, 1.100000000000000755, -2.500000000000000000 ) ) ;
#338 = LINE ( 'NONE', #715, #407 ) ;
#339 = AXIS2_PLACEMENT_3D ( 'NONE', #725, #490, #355 ) ;
#340 = ORIENTED_EDGE ( 'NONE', *, *, #290, .F. ) ;
#341 = VECTOR ( 'NONE', #64, 1000.000000000000000 ) ;
#342 = EDGE_CURVE ( 'NONE', #366, #39, #338, .T. ) ;
#343 = LINE ( 'NONE', #596, #314 ) ;
#344 = ORIENTED_EDGE ( 'NONE', *, *, #68, .F. ) ;
#345 = DIRECTION ( 'NONE',  ( -1.000000000000000000, -0.000000000000000000, -0.000000000000000000 ) ) ;
#346 = ORIENTED_EDGE ( 'NONE', *, *, #536, .F. ) ;
#347 = CARTESIAN_POINT ( 'NONE',  ( 9.399999999999989697, -45.90000000000000568, 0.000000000000000000 ) ) ;
#348 = EDGE_CURVE ( 'NONE', #693, #462, #721, .T. ) ;
#349 = ORIENTED_EDGE ( 'NONE', *, *, #380, .T. ) ;
#350 = VECTOR ( 'NONE', #465, 1000.000000000000000 ) ;
#351 = EDGE_CURVE ( 'NONE', #648, #39, #343, .T. ) ;
#352 = ORIENTED_EDGE ( 'NONE', *, *, #609, .F. ) ;
#353 = CIRCLE ( 'NONE', #6, 1.600000000000002531 ) ;
#354 = CARTESIAN_POINT ( 'NONE',  ( -15.00000000000001954, -4.100000000000001421, 2.500000000000000000 ) ) ;
#355 = DIRECTION ( 'NONE',  ( 0.000000000000000000, 0.000000000000000000, 1.000000000000000000 ) ) ;
#356 = DIRECTION ( 'NONE',  ( -1.000000000000000000, 0.000000000000000000, 0.000000000000000000 ) ) ;
#357 = ORIENTED_EDGE ( 'NONE', *, *, #713, .F. ) ;
#358 = DIRECTION ( 'NONE',  ( -1.000000000000000000, 0.000000000000000000, 0.000000000000000000 ) ) ;
#359 = FACE_OUTER_BOUND ( 'NONE', #732, .T. ) ;
#360 = CARTESIAN_POINT ( 'NONE',  ( -15.00000000000001954, -4.100000000000001421, 2.500000000000000000 ) ) ;
#361 = ORIENTED_EDGE ( 'NONE', *, *, #479, .T. ) ;
#362 = CARTESIAN_POINT ( 'NONE',  ( -15.00000000000001954, -4.100000000000001421, -2.500000000000000000 ) ) ;
#363 = EDGE_CURVE ( 'NONE', #582, #637, #409, .T. ) ;
#364 = CARTESIAN_POINT ( 'NONE',  ( -11.00000000000000000, 0.000000000000000000, -2.500000000000000444 ) ) ;
#365 = FACE_OUTER_BOUND ( 'NONE', #444, .T. ) ;
#366 = VERTEX_POINT ( 'NONE', #777 ) ;
#367 = DIRECTION ( 'NONE',  ( -1.445602896647339410E-16, 1.000000000000000000, 0.000000000000000000 ) ) ;
#368 = AXIS2_PLACEMENT_3D ( 'NONE', #468, #160, #104 ) ;
#369 = CIRCLE ( 'NONE', #298, 1.600000000000002531 ) ;
#370 = DIRECTION ( 'NONE',  ( 1.000000000000000000, -1.011922027653137513E-16, 0.000000000000000000 ) ) ;
#371 = CARTESIAN_POINT ( 'NONE',  ( 14.99999999999997868, -1.100000000000003419, 2.500000000000000000 ) ) ;
#372 = ORIENTED_EDGE ( 'NONE', *, *, #475, .F. ) ;
#373 = LINE ( 'NONE', #191, #248 ) ;
#374 = DIRECTION ( 'NONE',  ( -1.156482317317871478E-16, 1.000000000000000000, 0.000000000000000000 ) ) ;
#375 = DIRECTION ( 'NONE',  ( -1.000000000000000000, 1.011922027653137513E-16, 0.000000000000000000 ) ) ;
#376 = VERTEX_POINT ( 'NONE', #221 ) ;
#377 = CARTESIAN_POINT ( 'NONE',  ( 10.99999999999999822, -4.099999999999999645, 0.000000000000000000 ) ) ;
#378 = EDGE_CURVE ( 'NONE', #213, #366, #471, .T. ) ;
#379 = VERTEX_POINT ( 'NONE', #47 ) ;
#380 = EDGE_CURVE ( 'NONE', #239, #379, #598, .T. ) ;
#381 = VECTOR ( 'NONE', #95, 1000.000000000000000 ) ;
#382 = DIRECTION ( 'NONE',  ( -0.000000000000000000, -0.000000000000000000, 1.000000000000000000 ) ) ;
#383 = AXIS2_PLACEMENT_3D ( 'NONE', #313, #21, #13 ) ;
#384 = LINE ( 'NONE', #149, #45 ) ;
#385 = ORIENTED_EDGE ( 'NONE', *, *, #647, .F. ) ;
#386 = CARTESIAN_POINT ( 'NONE',  ( 6.499999999999999112, 0.000000000000000000, -2.500000000000000000 ) ) ;
#387 = CARTESIAN_POINT ( 'NONE',  ( 0.000000000000000000, 0.000000000000000000, -2.500000000000000000 ) ) ;
#388 = ORIENTED_EDGE ( 'NONE', *, *, #105, .T. ) ;
#389 = ADVANCED_FACE ( 'NONE', ( #40 ), #498, .T. ) ;
#390 = LINE ( 'NONE', #108, #448 ) ;
#391 = ORIENTED_EDGE ( 'NONE', *, *, #35, .F. ) ;
#392 = AXIS2_PLACEMENT_3D ( 'NONE', #560, #127, #612 ) ;
#393 = VECTOR ( 'NONE', #228, 1000.000000000000000 ) ;
#394 = SURFACE_SIDE_STYLE ('',( #761 ) ) ;
#395 = ORIENTED_EDGE ( 'NONE', *, *, #348, .T. ) ;
#396 = PRODUCT ( '\X2\5939\X0\', '\X2\5939\X0\', '', ( #139 ) ) ;
#397 = LINE ( 'NONE', #179, #670 ) ;
#398 = FACE_OUTER_BOUND ( 'NONE', #184, .T. ) ;
#399 = ORIENTED_EDGE ( 'NONE', *, *, #165, .F. ) ;
#400 = CARTESIAN_POINT ( 'NONE',  ( 9.399999999999996803, 1.100000000000003642, 0.000000000000000000 ) ) ;
#401 = VECTOR ( 'NONE', #689, 1000.000000000000000 ) ;
#402 = CARTESIAN_POINT ( 'NONE',  ( 5.926971876254089262E-16, -4.099999999999998757, -2.500000000000000000 ) ) ;
#403 = EDGE_LOOP ( 'NONE', ( #385, #288 ) ) ;
#404 = PRODUCT_DEFINITION ( 'æœ', '', #803, #585 ) ;
#405 = VECTOR ( 'NONE', #293, 1000.000000000000000 ) ;
#406 = FACE_OUTER_BOUND ( 'NONE', #776, .T. ) ;
#407 = VECTOR ( 'NONE', #162, 1000.000000000000000 ) ;
#408 = EDGE_LOOP ( 'NONE', ( #660, #469 ) ) ;
#409 = LINE ( 'NONE', #347, #141 ) ;
#410 = VERTEX_POINT ( 'NONE', #626 ) ;
#411 = ORIENTED_EDGE ( 'NONE', *, *, #348, .F. ) ;
#412 = EDGE_CURVE ( 'NONE', #741, #496, #483, .T. ) ;
#413 = CARTESIAN_POINT ( 'NONE',  ( 6.499999999999999112, -1.100000000000002309, 2.500000000000000000 ) ) ;
#414 = ADVANCED_FACE ( 'NONE', ( #431 ), #744, .F. ) ;
#415 = ORIENTED_EDGE ( 'NONE', *, *, #9, .T. ) ;
#416 = LINE ( 'NONE', #677, #299 ) ;
#417 = DIRECTION ( 'NONE',  ( 5.782411586589369472E-16, 1.000000000000000000, 0.000000000000000000 ) ) ;
#418 = ORIENTED_EDGE ( 'NONE', *, *, #53, .T. ) ;
#419 = VECTOR ( 'NONE', #712, 1000.000000000000000 ) ;
#420 = ORIENTED_EDGE ( 'NONE', *, *, #795, .F. ) ;
#421 = LINE ( 'NONE', #25, #717 ) ;
#422 = CARTESIAN_POINT ( 'NONE',  ( 12.59999999999999432, -45.90000000000000568, 1.959434878635767449E-16 ) ) ;
#423 = LINE ( 'NONE', #249, #259 ) ;
#424 = ADVANCED_FACE ( 'NONE', ( #686, #187 ), #800, .T. ) ;
#425 = VERTEX_POINT ( 'NONE', #63 ) ;
#426 = LINE ( 'NONE', #289, #658 ) ;
#427 = FACE_BOUND ( 'NONE', #244, .T. ) ;
#428 = CARTESIAN_POINT ( 'NONE',  ( 12.60000000000000142, 1.100000000000003864, 1.959434878635766463E-16 ) ) ;
#429 = ORIENTED_EDGE ( 'NONE', *, *, #177, .F. ) ;
#430 = CARTESIAN_POINT ( 'NONE',  ( -11.00000000000000000, 0.000000000000000000, 2.500000000000000000 ) ) ;
#431 = FACE_OUTER_BOUND ( 'NONE', #172, .T. ) ;
#432 = LINE ( 'NONE', #495, #236 ) ;
#433 = ORIENTED_EDGE ( 'NONE', *, *, #9, .F. ) ;
#434 = DIRECTION ( 'NONE',  ( 0.000000000000000000, -0.000000000000000000, -1.000000000000000000 ) ) ;
#435 = VECTOR ( 'NONE', #166, 1000.000000000000000 ) ;
#436 = FACE_OUTER_BOUND ( 'NONE', #756, .T. ) ;
#437 = CARTESIAN_POINT ( 'NONE',  ( 11.00000000000000000, 4.099999999999996980, 0.000000000000000000 ) ) ;
#438 = ORIENTED_EDGE ( 'NONE', *, *, #529, .F. ) ;
#439 = CARTESIAN_POINT ( 'NONE',  ( 5.926971876254089262E-16, 4.099999999999998757, 2.500000000000000000 ) ) ;
#440 = CARTESIAN_POINT ( 'NONE',  ( -11.00000000000000000, 0.000000000000000000, -11.50000000000000000 ) ) ;
#441 = ADVANCED_FACE ( 'NONE', ( #111 ), #611, .F. ) ;
#442 = CARTESIAN_POINT ( 'NONE',  ( 6.499999999999999112, -1.100000000000002309, -2.500000000000000000 ) ) ;
#443 = ADVANCED_FACE ( 'NONE', ( #427, #436 ), #130, .F. ) ;
#444 = EDGE_LOOP ( 'NONE', ( #82, #603, #420, #321 ) ) ;
#445 = DIRECTION ( 'NONE',  ( 1.000000000000000000, 0.000000000000000000, 0.000000000000000000 ) ) ;
#446 = VERTEX_POINT ( 'NONE', #669 ) ;
#447 = DIRECTION ( 'NONE',  ( -0.000000000000000000, -0.000000000000000000, -1.000000000000000000 ) ) ;
#448 = VECTOR ( 'NONE', #119, 1000.000000000000000 ) ;
#449 = AXIS2_PLACEMENT_3D ( 'NONE', #14, #698, #144 ) ;
#450 = LINE ( 'NONE', #518, #325 ) ;
#451 = ORIENTED_EDGE ( 'NONE', *, *, #243, .T. ) ;
#452 = EDGE_CURVE ( 'NONE', #118, #758, #125, .T. ) ;
#453 = LINE ( 'NONE', #255, #235 ) ;
#454 = FACE_OUTER_BOUND ( 'NONE', #534, .T. ) ;
#455 = ORIENTED_EDGE ( 'NONE', *, *, #219, .F. ) ;
#456 = DIRECTION ( 'NONE',  ( -0.000000000000000000, 0.000000000000000000, 1.000000000000000000 ) ) ;
#457 = ORIENTED_EDGE ( 'NONE', *, *, #208, .T. ) ;
#458 = DIRECTION ( 'NONE',  ( -1.000000000000000000, 0.000000000000000000, 0.000000000000000000 ) ) ;
#459 = VECTOR ( 'NONE', #137, 1000.000000000000000 ) ;
#460 = AXIS2_PLACEMENT_3D ( 'NONE', #749, #753, #434 ) ;
#461 = CARTESIAN_POINT ( 'NONE',  ( 1.499999999999999112, 1.100000000000002087, -2.500000000000000000 ) ) ;
#462 = VERTEX_POINT ( 'NONE', #734 ) ;
#463 = CARTESIAN_POINT ( 'NONE',  ( -11.00000000000000000, 0.000000000000000000, 2.500000000000000000 ) ) ;
#464 = EDGE_CURVE ( 'NONE', #648, #275, #292, .T. ) ;
#465 = DIRECTION ( 'NONE',  ( -0.000000000000000000, -1.000000000000000000, -0.000000000000000000 ) ) ;
#466 = ADVANCED_FACE ( 'NONE', ( #552 ), #180, .F. ) ;
#467 = ORIENTED_EDGE ( 'NONE', *, *, #724, .F. ) ;
#468 = CARTESIAN_POINT ( 'NONE',  ( -15.00000000000002132, 8.673617379884044938E-15, 2.500000000000000000 ) ) ;
#469 = ORIENTED_EDGE ( 'NONE', *, *, #783, .T. ) ;
#470 = CIRCLE ( 'NONE', #579, 1.600000000000002531 ) ;
#471 = LINE ( 'NONE', #601, #284 ) ;
#472 = VECTOR ( 'NONE', #458, 1000.000000000000000 ) ;
#473 = ORIENTED_EDGE ( 'NONE', *, *, #412, .T. ) ;
#474 = ORIENTED_EDGE ( 'NONE', *, *, #696, .T. ) ;
#475 = EDGE_CURVE ( 'NONE', #576, #376, #33, .T. ) ;
#476 = DIRECTION ( 'NONE',  ( 1.000000000000000000, 1.445602896647339410E-16, 0.000000000000000000 ) ) ;
#477 = ORIENTED_EDGE ( 'NONE', *, *, #155, .T. ) ;
#478 = CARTESIAN_POINT ( 'NONE',  ( 11.00000000000000000, -1.100000000000003642, 0.000000000000000000 ) ) ;
#479 = EDGE_CURVE ( 'NONE', #122, #702, #562, .T. ) ;
#480 = CARTESIAN_POINT ( 'NONE',  ( 10.99999999999999289, -45.90000000000000568, 0.000000000000000000 ) ) ;
#481 = VERTEX_POINT ( 'NONE', #115 ) ;
#482 = LINE ( 'NONE', #588, #214 ) ;
#483 = LINE ( 'NONE', #566, #393 ) ;
#484 = ADVANCED_FACE ( 'NONE', ( #359 ), #54, .F. ) ;
#485 = STYLED_ITEM ( 'NONE', ( #572 ), #202 ) ;
#486 = CARTESIAN_POINT ( 'NONE',  ( 6.499999999999999112, -1.400000000000000133, -11.50000000000000000 ) ) ;
#487 = AXIS2_PLACEMENT_3D ( 'NONE', #480, #682, #789 ) ;
#488 = ORIENTED_EDGE ( 'NONE', *, *, #192, .T. ) ;
#489 = CARTESIAN_POINT ( 'NONE',  ( 1.499999999999999112, -1.400000000000000133, -2.500000000000000000 ) ) ;
#490 = DIRECTION ( 'NONE',  ( -1.000000000000000000, 0.000000000000000000, 0.000000000000000000 ) ) ;
#491 = DIRECTION ( 'NONE',  ( -0.000000000000000000, -1.000000000000000000, -0.000000000000000000 ) ) ;
#492 = ADVANCED_FACE ( 'NONE', ( #577, #760 ), #16, .T. ) ;
#493 = ORIENTED_EDGE ( 'NONE', *, *, #332, .F. ) ;
#494 = CARTESIAN_POINT ( 'NONE',  ( 10.99999999999999822, -4.099999999999999645, 0.000000000000000000 ) ) ;
#495 = CARTESIAN_POINT ( 'NONE',  ( 6.499999999999999112, 1.100000000000002309, 2.500000000000000000 ) ) ;
#496 = VERTEX_POINT ( 'NONE', #700 ) ;
#497 = DIRECTION ( 'NONE',  ( 1.000000000000000000, 1.156482317317871478E-16, 0.000000000000000000 ) ) ;
#498 = PLANE ( 'NONE',  #779 ) ;
#499 = CARTESIAN_POINT ( 'NONE',  ( 10.99999999999999289, -45.90000000000000568, 0.000000000000000000 ) ) ;
#500 = ORIENTED_EDGE ( 'NONE', *, *, #622, .F. ) ;
#501 = CARTESIAN_POINT ( 'NONE',  ( 12.59999999999999964, -4.099999999999999645, 1.959434878635766463E-16 ) ) ;
#502 = AXIS2_PLACEMENT_3D ( 'NONE', #499, #746, #189 ) ;
#503 = CIRCLE ( 'NONE', #634, 1.650000000000000355 ) ;
#504 = ADVANCED_FACE ( 'NONE', ( #72 ), #640, .T. ) ;
#505 = PRODUCT_RELATED_PRODUCT_CATEGORY ( 'part', '', ( #396 ) ) ;
#506 = DIRECTION ( 'NONE',  ( 0.000000000000000000, 1.000000000000000000, 0.000000000000000000 ) ) ;
#507 = DIRECTION ( 'NONE',  ( -0.000000000000000000, -0.000000000000000000, -1.000000000000000000 ) ) ;
#508 = ORIENTED_EDGE ( 'NONE', *, *, #475, .T. ) ;
#509 = DIRECTION ( 'NONE',  ( -1.000000000000000000, 0.000000000000000000, 0.000000000000000000 ) ) ;
#510 = CARTESIAN_POINT ( 'NONE',  ( 11.00000000000000000, 1.100000000000003642, 0.000000000000000000 ) ) ;
#511 = ORIENTED_EDGE ( 'NONE', *, *, #290, .T. ) ;
#512 = APPLICATION_PROTOCOL_DEFINITION ( 'draft international standard', 'automotive_design', 1998, #599 ) ;
#513 = DIRECTION ( 'NONE',  ( -0.000000000000000000, -0.000000000000000000, 1.000000000000000000 ) ) ;
#514 = EDGE_CURVE ( 'NONE', #246, #239, #521, .T. ) ;
#515 =( LENGTH_UNIT ( ) NAMED_UNIT ( * ) SI_UNIT ( .MILLI., .METRE. ) );
#516 = ORIENTED_EDGE ( 'NONE', *, *, #301, .F. ) ;
#517 = VECTOR ( 'NONE', #11, 1000.000000000000000 ) ;
#518 = CARTESIAN_POINT ( 'NONE',  ( -1.113114230418453027E-16, -1.100000000000001865, -2.500000000000000000 ) ) ;
#519 = ORIENTED_EDGE ( 'NONE', *, *, #766, .T. ) ;
#520 = EDGE_CURVE ( 'NONE', #446, #118, #143, .T. ) ;
#521 = LINE ( 'NONE', #3, #59 ) ;
#522 = CARTESIAN_POINT ( 'NONE',  ( 14.99999999999997691, -4.099999999999996980, -2.500000000000000000 ) ) ;
#523 = ORIENTED_EDGE ( 'NONE', *, *, #165, .T. ) ;
#524 = DIRECTION ( 'NONE',  ( 1.011922027653137513E-16, 1.000000000000000000, -0.000000000000000000 ) ) ;
#525 = DIRECTION ( 'NONE',  ( 1.000000000000000000, 1.156482317317871478E-16, 0.000000000000000000 ) ) ;
#526 = ORIENTED_EDGE ( 'NONE', *, *, #219, .T. ) ;
#527 = ADVANCED_FACE ( 'NONE', ( #264 ), #750, .F. ) ;
#528 = CARTESIAN_POINT ( 'NONE',  ( 11.00000000000000000, 1.100000000000003642, 0.000000000000000000 ) ) ;
#529 = EDGE_CURVE ( 'NONE', #661, #303, #571, .T. ) ;
#530 = VECTOR ( 'NONE', #94, 1000.000000000000000 ) ;
#531 = PLANE ( 'NONE',  #312 ) ;
#532 = ORIENTED_EDGE ( 'NONE', *, *, #783, .F. ) ;
#533 = LINE ( 'NONE', #156, #73 ) ;
#534 = EDGE_LOOP ( 'NONE', ( #418, #311, #100, #556 ) ) ;
#535 = DIRECTION ( 'NONE',  ( 1.445602896647339410E-16, 1.000000000000000000, -0.000000000000000000 ) ) ;
#536 = EDGE_CURVE ( 'NONE', #481, #379, #453, .T. ) ;
#537 = VERTEX_POINT ( 'NONE', #252 ) ;
#538 = VECTOR ( 'NONE', #525, 1000.000000000000000 ) ;
#539 = DIRECTION ( 'NONE',  ( -0.000000000000000000, 1.000000000000000000, 0.000000000000000000 ) ) ;
#540 = VECTOR ( 'NONE', #345, 1000.000000000000000 ) ;
#541 = ORIENTED_EDGE ( 'NONE', *, *, #301, .T. ) ;
#542 = EDGE_LOOP ( 'NONE', ( #455, #787, #541, #352 ) ) ;
#543 = CARTESIAN_POINT ( 'NONE',  ( 1.499999999999999112, 0.000000000000000000, -2.500000000000000000 ) ) ;
#544 = EDGE_CURVE ( 'NONE', #582, #122, #695, .T. ) ;
#545 = LINE ( 'NONE', #709, #419 ) ;
#546 = VERTEX_POINT ( 'NONE', #83 ) ;
#547 = ORIENTED_EDGE ( 'NONE', *, *, #529, .T. ) ;
#548 = CARTESIAN_POINT ( 'NONE',  ( 6.499999999999999112, 1.100000000000002087, 2.500000000000000000 ) ) ;
#549 = DIRECTION ( 'NONE',  ( 1.000000000000000000, 1.156482317317871478E-16, 0.000000000000000000 ) ) ;
#550 = LINE ( 'NONE', #310, #32 ) ;
#551 = DIRECTION ( 'NONE',  ( 0.000000000000000000, 1.000000000000000000, 0.000000000000000000 ) ) ;
#552 = FACE_OUTER_BOUND ( 'NONE', #103, .T. ) ;
#553 = EDGE_CURVE ( 'NONE', #586, #726, #390, .T. ) ;
#554 = LINE ( 'NONE', #687, #341 ) ;
#555 = VECTOR ( 'NONE', #170, 1000.000000000000000 ) ;
#556 = ORIENTED_EDGE ( 'NONE', *, *, #177, .T. ) ;
#557 = SHAPE_DEFINITION_REPRESENTATION ( #154, #319 ) ;
#558 = VECTOR ( 'NONE', #507, 1000.000000000000000 ) ;
#559 = CARTESIAN_POINT ( 'NONE',  ( 10.99999999999999289, -45.90000000000000568, 0.000000000000000000 ) ) ;
#560 = CARTESIAN_POINT ( 'NONE',  ( -1.272130549049660426E-16, 1.100000000000001643, 2.500000000000000000 ) ) ;
#561 = EDGE_LOOP ( 'NONE', ( #798, #258, #791, #710 ) ) ;
#562 = LINE ( 'NONE', #422, #730 ) ;
#563 = CYLINDRICAL_SURFACE ( 'NONE', #502, 1.600000000000002531 ) ;
#564 = EDGE_LOOP ( 'NONE', ( #372, #511, #194, #666 ) ) ;
#565 = DIRECTION ( 'NONE',  ( 5.782411586589354681E-16, 1.000000000000000000, 0.000000000000000000 ) ) ;
#566 = CARTESIAN_POINT ( 'NONE',  ( 12.59999999999999432, -45.90000000000000568, 1.959434878635767449E-16 ) ) ;
#567 = DIRECTION ( 'NONE',  ( 1.011922027653137513E-16, 1.000000000000000000, -0.000000000000000000 ) ) ;
#568 = ORIENTED_EDGE ( 'NONE', *, *, #587, .T. ) ;
#569 = AXIS2_PLACEMENT_3D ( 'NONE', #654, #593, #650 ) ;
#570 = AXIS2_PLACEMENT_3D ( 'NONE', #364, #615, #738 ) ;
#571 = LINE ( 'NONE', #318, #517 ) ;
#572 = PRESENTATION_STYLE_ASSIGNMENT (( #204 ) ) ;
#573 = ORIENTED_EDGE ( 'NONE', *, *, #766, .F. ) ;
#574 = EDGE_CURVE ( 'NONE', #586, #142, #482, .T. ) ;
#575 = FACE_OUTER_BOUND ( 'NONE', #699, .T. ) ;
#576 = VERTEX_POINT ( 'NONE', #583 ) ;
#577 = FACE_OUTER_BOUND ( 'NONE', #688, .T. ) ;
#578 = ORIENTED_EDGE ( 'NONE', *, *, #703, .T. ) ;
#579 = AXIS2_PLACEMENT_3D ( 'NONE', #232, #242, #51 ) ;
#580 = VECTOR ( 'NONE', #549, 1000.000000000000000 ) ;
#581 = DIRECTION ( 'NONE',  ( 1.011922027653137513E-16, 1.000000000000000000, -0.000000000000000000 ) ) ;
#582 = VERTEX_POINT ( 'NONE', #400 ) ;
#583 = CARTESIAN_POINT ( 'NONE',  ( -12.65000000000000036, 2.020667218593133987E-16, -2.500000000000000444 ) ) ;
#584 =( NAMED_UNIT ( * ) SI_UNIT ( $, .STERADIAN. ) SOLID_ANGLE_UNIT ( ) );
#585 = PRODUCT_DEFINITION_CONTEXT ( 'detailed design', #186, 'design' ) ;
#586 = VERTEX_POINT ( 'NONE', #354 ) ;
#587 = EDGE_CURVE ( 'NONE', #307, #496, #326, .T. ) ;
#588 = CARTESIAN_POINT ( 'NONE',  ( -15.00000000000002132, 8.673617379884044938E-15, 2.500000000000000000 ) ) ;
#589 = CARTESIAN_POINT ( 'NONE',  ( 14.99999999999997868, -8.673617379884041783E-15, 2.500000000000000000 ) ) ;
#590 = ORIENTED_EDGE ( 'NONE', *, *, #656, .F. ) ;
#591 = MECHANICAL_DESIGN_GEOMETRIC_PRESENTATION_REPRESENTATION (  '', ( #485 ), #797 ) ;
#592 = LINE ( 'NONE', #543, #126 ) ;
#593 = DIRECTION ( 'NONE',  ( -1.445602896647339410E-16, 1.000000000000000000, 0.000000000000000000 ) ) ;
#594 = ORIENTED_EDGE ( 'NONE', *, *, #656, .T. ) ;
#595 = EDGE_CURVE ( 'NONE', #446, #604, #723, .T. ) ;
#596 = CARTESIAN_POINT ( 'NONE',  ( -7.000000000000020428, 0.000000000000000000, -2.500000000000000000 ) ) ;
#597 = ORIENTED_EDGE ( 'NONE', *, *, #243, .F. ) ;
#598 = LINE ( 'NONE', #102, #540 ) ;
#599 = APPLICATION_CONTEXT ( 'automotive_design' ) ;
#600 = ORIENTED_EDGE ( 'NONE', *, *, #351, .F. ) ;
#601 = CARTESIAN_POINT ( 'NONE',  ( -7.000000000000020428, 0.000000000000000000, 2.500000000000000000 ) ) ;
#602 = VECTOR ( 'NONE', #447, 1000.000000000000000 ) ;
#603 = ORIENTED_EDGE ( 'NONE', *, *, #609, .T. ) ;
#604 = VERTEX_POINT ( 'NONE', #159 ) ;
#605 = LINE ( 'NONE', #728, #555 ) ;
#606 = CARTESIAN_POINT ( 'NONE',  ( -1.272130549049660426E-16, 1.100000000000001643, 2.500000000000000000 ) ) ;
#607 = CARTESIAN_POINT ( 'NONE',  ( 1.499999999999999112, 1.100000000000002087, 2.500000000000000000 ) ) ;
#608 = LINE ( 'NONE', #333, #759 ) ;
#609 = EDGE_CURVE ( 'NONE', #275, #138, #605, .T. ) ;
#610 = EDGE_CURVE ( 'NONE', #366, #462, #52, .T. ) ;
#611 = PLANE ( 'NONE',  #339 ) ;
#612 = DIRECTION ( 'NONE',  ( -1.000000000000000000, -1.156482317317871478E-16, 0.000000000000000000 ) ) ;
#613 = ORIENTED_EDGE ( 'NONE', *, *, #24, .T. ) ;
#614 = LINE ( 'NONE', #439, #401 ) ;
#615 = DIRECTION ( 'NONE',  ( -0.000000000000000000, 0.000000000000000000, 1.000000000000000000 ) ) ;
#616 = AXIS2_PLACEMENT_3D ( 'NONE', #486, #67, #132 ) ;
#617 = CARTESIAN_POINT ( 'NONE',  ( 6.499999999999999112, -1.100000000000002531, 2.500000000000000000 ) ) ;
#618 = CIRCLE ( 'NONE', #747, 1.650000000000000355 ) ;
#619 = ORIENTED_EDGE ( 'NONE', *, *, #35, .T. ) ;
#620 = LINE ( 'NONE', #198, #602 ) ;
#621 = DIRECTION ( 'NONE',  ( -1.000000000000000000, 0.000000000000000000, 0.000000000000000000 ) ) ;
#622 = EDGE_CURVE ( 'NONE', #213, #648, #426, .T. ) ;
#623 = CARTESIAN_POINT ( 'NONE',  ( 14.99999999999997691, -4.099999999999996980, 2.500000000000000000 ) ) ;
#624 = ORIENTED_EDGE ( 'NONE', *, *, #68, .T. ) ;
#625 = FACE_OUTER_BOUND ( 'NONE', #542, .T. ) ;
#626 = CARTESIAN_POINT ( 'NONE',  ( 14.99999999999997691, 4.099999999999996980, 2.500000000000000000 ) ) ;
#627 = DIRECTION ( 'NONE',  ( 1.000000000000000000, 0.000000000000000000, 0.000000000000000000 ) ) ;
#628 = EDGE_CURVE ( 'NONE', #203, #246, #416, .T. ) ;
#629 = ORIENTED_EDGE ( 'NONE', *, *, #628, .F. ) ;
#630 = DIRECTION ( 'NONE',  ( 0.000000000000000000, 0.000000000000000000, 1.000000000000000000 ) ) ;
#631 = DIRECTION ( 'NONE',  ( -1.445602896647339410E-16, 1.000000000000000000, 0.000000000000000000 ) ) ;
#632 = ORIENTED_EDGE ( 'NONE', *, *, #41, .F. ) ;
#633 = CARTESIAN_POINT ( 'NONE',  ( 0.000000000000000000, 0.000000000000000000, 0.000000000000000000 ) ) ;
#634 = AXIS2_PLACEMENT_3D ( 'NONE', #430, #630, #445 ) ;
#635 = DIRECTION ( 'NONE',  ( -0.000000000000000000, -0.000000000000000000, 1.000000000000000000 ) ) ;
#636 = CARTESIAN_POINT ( 'NONE',  ( -1.272130549049660426E-16, 1.100000000000001643, -2.500000000000000000 ) ) ;
#637 = VERTEX_POINT ( 'NONE', #667 ) ;
#638 = DIRECTION ( 'NONE',  ( -0.000000000000000000, 0.000000000000000000, 1.000000000000000000 ) ) ;
#639 = ORIENTED_EDGE ( 'NONE', *, *, #380, .F. ) ;
#640 = PLANE ( 'NONE',  #34 ) ;
#641 = CARTESIAN_POINT ( 'NONE',  ( -1.272130549049660426E-16, 1.100000000000001643, 2.500000000000000000 ) ) ;
#642 = ORIENTED_EDGE ( 'NONE', *, *, #514, .F. ) ;
#643 = AXIS2_PLACEMENT_3D ( 'NONE', #606, #374, #171 ) ;
#644 = CLOSED_SHELL ( 'NONE', ( #210, #157, #527, #443, #424, #101, #441, #276, #327, #317, #389, #71, #504, #492, #231, #484, #291, #754, #10, #784, #224, #671, #414, #466 ) ) ;
#645 = EDGE_CURVE ( 'NONE', #278, #307, #608, .T. ) ;
#646 = FACE_OUTER_BOUND ( 'NONE', #43, .T. ) ;
#647 = EDGE_CURVE ( 'NONE', #537, #56, #618, .T. ) ;
#648 = VERTEX_POINT ( 'NONE', #337 ) ;
#649 = DIRECTION ( 'NONE',  ( -1.000000000000000000, 1.355252715606878324E-16, 0.000000000000000000 ) ) ;
#650 = DIRECTION ( 'NONE',  ( -1.000000000000000000, -1.445602896647339410E-16, 0.000000000000000000 ) ) ;
#651 = UNCERTAINTY_MEASURE_WITH_UNIT (LENGTH_MEASURE( 1.000000000000000082E-05 ), #135, 'distance_accuracy_value', 'NONE');
#652 = VERTEX_POINT ( 'NONE', #548 ) ;
#653 = DIRECTION ( 'NONE',  ( -0.000000000000000000, -0.000000000000000000, -1.000000000000000000 ) ) ;
#654 = CARTESIAN_POINT ( 'NONE',  ( 5.926971876254089262E-16, -4.099999999999998757, 2.500000000000000000 ) ) ;
#655 = ORIENTED_EDGE ( 'NONE', *, *, #80, .T. ) ;
#656 = EDGE_CURVE ( 'NONE', #652, #239, #421, .T. ) ;
#657 = VECTOR ( 'NONE', #256, 1000.000000000000000 ) ;
#658 = VECTOR ( 'NONE', #653, 1000.000000000000000 ) ;
#659 = DIRECTION ( 'NONE',  ( -1.000000000000000000, 1.445602896647339410E-16, 0.000000000000000000 ) ) ;
#660 = ORIENTED_EDGE ( 'NONE', *, *, #268, .T. ) ;
#661 = VERTEX_POINT ( 'NONE', #489 ) ;
#662 = DIRECTION ( 'NONE',  ( 0.000000000000000000, -1.000000000000000000, 0.000000000000000000 ) ) ;
#663 = ORIENTED_EDGE ( 'NONE', *, *, #332, .T. ) ;
#664 = PLANE ( 'NONE',  #569 ) ;
#665 = VERTEX_POINT ( 'NONE', #114 ) ;
#666 = ORIENTED_EDGE ( 'NONE', *, *, #131, .F. ) ;
#667 = CARTESIAN_POINT ( 'NONE',  ( 9.399999999999996803, 4.099999999999996980, 0.000000000000000000 ) ) ;
#668 = AXIS2_PLACEMENT_3D ( 'NONE', #216, #29, #659 ) ;
#669 = CARTESIAN_POINT ( 'NONE',  ( 6.499999999999999112, -1.400000000000000133, -2.500000000000000444 ) ) ;
#670 = VECTOR ( 'NONE', #285, 1000.000000000000000 ) ;
#671 = ADVANCED_FACE ( 'NONE', ( #788 ), #230, .F. ) ;
#672 = ORIENTED_EDGE ( 'NONE', *, *, #681, .F. ) ;
#673 = DIRECTION ( 'NONE',  ( 1.445602896647339410E-16, 1.000000000000000000, -0.000000000000000000 ) ) ;
#674 = DIRECTION ( 'NONE',  ( 1.445602896647339410E-16, 1.000000000000000000, -0.000000000000000000 ) ) ;
#675 = LINE ( 'NONE', #360, #558 ) ;
#676 = ORIENTED_EDGE ( 'NONE', *, *, #378, .T. ) ;
#677 = CARTESIAN_POINT ( 'NONE',  ( 6.499999999999999112, 0.000000000000000000, -2.500000000000000000 ) ) ;
#678 = DIRECTION ( 'NONE',  ( -0.000000000000000000, -0.000000000000000000, -1.000000000000000000 ) ) ;
#679 = EDGE_LOOP ( 'NONE', ( #547, #523, #250, #323 ) ) ;
#680 = LINE ( 'NONE', #240, #152 ) ;
#681 = EDGE_CURVE ( 'NONE', #122, #582, #46, .T. ) ;
#682 = DIRECTION ( 'NONE',  ( 1.445602896647339410E-16, 1.000000000000000000, -0.000000000000000000 ) ) ;
#683 = LINE ( 'NONE', #617, #745 ) ;
#684 = AXIS2_PLACEMENT_3D ( 'NONE', #559, #175, #621 ) ;
#685 = ORIENTED_EDGE ( 'NONE', *, *, #133, .F. ) ;
#686 = FACE_BOUND ( 'NONE', #145, .T. ) ;
#687 = CARTESIAN_POINT ( 'NONE',  ( -9.349999999999999645, 0.000000000000000000, -11.50000000000000000 ) ) ;
#688 = EDGE_LOOP ( 'NONE', ( #429, #399, #344, #79, #282, #207, #516, #639, #590, #488, #23, #48, #781, #335, #158, #748 ) ) ;
#689 = DIRECTION ( 'NONE',  ( 1.000000000000000000, -1.445602896647339410E-16, 0.000000000000000000 ) ) ;
#690 = CARTESIAN_POINT ( 'NONE',  ( -1.113114230418453027E-16, -1.100000000000001865, 2.500000000000000000 ) ) ;
#691 = ORIENTED_EDGE ( 'NONE', *, *, #336, .T. ) ;
#692 = DIRECTION ( 'NONE',  ( 1.000000000000000000, 0.000000000000000000, -0.000000000000000000 ) ) ;
#693 = VERTEX_POINT ( 'NONE', #733 ) ;
#694 = PLANE ( 'NONE',  #707 ) ;
#695 = CIRCLE ( 'NONE', #164, 1.600000000000002531 ) ;
#696 = EDGE_CURVE ( 'NONE', #758, #254, #397, .T. ) ;
#697 = VECTOR ( 'NONE', #238, 1000.000000000000000 ) ;
#698 = DIRECTION ( 'NONE',  ( 1.000000000000000000, -0.000000000000000000, 0.000000000000000000 ) ) ;
#699 = EDGE_LOOP ( 'NONE', ( #672, #361, #477, #752 ) ) ;
#700 = CARTESIAN_POINT ( 'NONE',  ( 12.60000000000000142, -1.100000000000003864, 1.959434878635768681E-16 ) ) ;
#701 = DIRECTION ( 'NONE',  ( 1.000000000000000000, 0.000000000000000000, 0.000000000000000000 ) ) ;
#702 = VERTEX_POINT ( 'NONE', #153 ) ;
#703 = EDGE_CURVE ( 'NONE', #246, #481, #767, .T. ) ;
#704 = DIRECTION ( 'NONE',  ( -1.000000000000000000, 0.000000000000000000, 0.000000000000000000 ) ) ;
#705 = ORIENTED_EDGE ( 'NONE', *, *, #553, .F. ) ;
#706 = AXIS2_PLACEMENT_3D ( 'NONE', #206, #456, #26 ) ;
#707 = AXIS2_PLACEMENT_3D ( 'NONE', #742, #123, #8 ) ;
#708 = LINE ( 'NONE', #772, #110 ) ;
#709 = CARTESIAN_POINT ( 'NONE',  ( 14.99999999999997691, 4.099999999999996980, 2.500000000000000000 ) ) ;
#710 = ORIENTED_EDGE ( 'NONE', *, *, #452, .F. ) ;
#711 = DIRECTION ( 'NONE',  ( 0.000000000000000000, 1.000000000000000000, 0.000000000000000000 ) ) ;
#712 = DIRECTION ( 'NONE',  ( -0.000000000000000000, -0.000000000000000000, -1.000000000000000000 ) ) ;
#713 = EDGE_CURVE ( 'NONE', #142, #786, #708, .T. ) ;
#714 = CARTESIAN_POINT ( 'NONE',  ( 14.99999999999997691, 0.000000000000000000, -2.500000000000000000 ) ) ;
#715 = CARTESIAN_POINT ( 'NONE',  ( -7.000000000000020428, -1.100000000000001199, 2.500000000000000000 ) ) ;
#716 = ORIENTED_EDGE ( 'NONE', *, *, #306, .F. ) ;
#717 = VECTOR ( 'NONE', #711, 1000.000000000000000 ) ;
#718 = CARTESIAN_POINT ( 'NONE',  ( 1.499999999999999112, 1.399999999999999689, -11.50000000000000000 ) ) ;
#719 = ORIENTED_EDGE ( 'NONE', *, *, #464, .F. ) ;
#720 = ORIENTED_EDGE ( 'NONE', *, *, #696, .F. ) ;
#721 = LINE ( 'NONE', #99, #435 ) ;
#722 = ORIENTED_EDGE ( 'NONE', *, *, #196, .F. ) ;
#723 = LINE ( 'NONE', #273, #530 ) ;
#724 = EDGE_CURVE ( 'NONE', #693, #661, #592, .T. ) ;
#725 = CARTESIAN_POINT ( 'NONE',  ( 14.99999999999997691, 0.000000000000000000, 2.500000000000000000 ) ) ;
#726 = VERTEX_POINT ( 'NONE', #227 ) ;
#727 = ORIENTED_EDGE ( 'NONE', *, *, #514, .T. ) ;
#728 = CARTESIAN_POINT ( 'NONE',  ( 1.499999999999999112, 1.100000000000001865, 2.500000000000000000 ) ) ;
#729 = CARTESIAN_POINT ( 'NONE',  ( -1.272130549049660426E-16, 1.100000000000001643, -2.500000000000000000 ) ) ;
#730 = VECTOR ( 'NONE', #674, 1000.000000000000000 ) ;
#731 = CARTESIAN_POINT ( 'NONE',  ( -1.113114230418453027E-16, -1.100000000000001865, 2.500000000000000000 ) ) ;
#732 = EDGE_LOOP ( 'NONE', ( #340, #69, #61, #15 ) ) ;
#733 = CARTESIAN_POINT ( 'NONE',  ( 1.499999999999999112, -1.100000000000002309, -2.500000000000000000 ) ) ;
#734 = CARTESIAN_POINT ( 'NONE',  ( 1.499999999999999112, -1.100000000000002309, 2.500000000000000000 ) ) ;
#735 = CARTESIAN_POINT ( 'NONE',  ( -12.65000000000000036, 2.020667218593133987E-16, 2.500000000000000000 ) ) ;
#736 = EDGE_CURVE ( 'NONE', #56, #537, #503, .T. ) ;
#737 = ORIENTED_EDGE ( 'NONE', *, *, #628, .T. ) ;
#738 = DIRECTION ( 'NONE',  ( 1.000000000000000000, 0.000000000000000000, 0.000000000000000000 ) ) ;
#739 =( GEOMETRIC_REPRESENTATION_CONTEXT ( 3 ) GLOBAL_UNCERTAINTY_ASSIGNED_CONTEXT ( ( #651 ) ) GLOBAL_UNIT_ASSIGNED_CONTEXT ( ( #135, #70, #195 ) ) REPRESENTATION_CONTEXT ( 'NONE', 'WORKASPACE' ) );
#740 = LINE ( 'NONE', #623, #124 ) ;
#741 = VERTEX_POINT ( 'NONE', #501 ) ;
#742 = CARTESIAN_POINT ( 'NONE',  ( 1.499999999999999112, -1.400000000000000133, -11.50000000000000000 ) ) ;
#743 = EDGE_CURVE ( 'NONE', #425, #410, #680, .T. ) ;
#744 = CYLINDRICAL_SURFACE ( 'NONE', #487, 1.600000000000002531 ) ;
#745 = VECTOR ( 'NONE', #193, 1000.000000000000000 ) ;
#746 = DIRECTION ( 'NONE',  ( 1.445602896647339410E-16, 1.000000000000000000, -0.000000000000000000 ) ) ;
#747 = AXIS2_PLACEMENT_3D ( 'NONE', #463, #28, #49 ) ;
#748 = ORIENTED_EDGE ( 'NONE', *, *, #267, .F. ) ;
#749 = CARTESIAN_POINT ( 'NONE',  ( 1.499999999999999112, -1.400000000000000133, -11.50000000000000000 ) ) ;
#750 = CYLINDRICAL_SURFACE ( 'NONE', #75, 1.650000000000000355 ) ;
#751 = CARTESIAN_POINT ( 'NONE',  ( 14.99999999999997868, -1.100000000000003419, 2.500000000000000000 ) ) ;
#752 = ORIENTED_EDGE ( 'NONE', *, *, #363, .F. ) ;
#753 = DIRECTION ( 'NONE',  ( 0.000000000000000000, -1.000000000000000000, 0.000000000000000000 ) ) ;
#754 = ADVANCED_FACE ( 'NONE', ( #625 ), #694, .F. ) ;
#755 = DIRECTION ( 'NONE',  ( 1.445602896647339410E-16, 1.000000000000000000, -0.000000000000000000 ) ) ;
#756 = EDGE_LOOP ( 'NONE', ( #37, #619, #457, #331 ) ) ;
#757 = CARTESIAN_POINT ( 'NONE',  ( 10.99999999999999289, -45.90000000000000568, 0.000000000000000000 ) ) ;
#758 = VERTEX_POINT ( 'NONE', #251 ) ;
#759 = VECTOR ( 'NONE', #673, 1000.000000000000000 ) ;
#760 = FACE_BOUND ( 'NONE', #403, .T. ) ;
#761 = SURFACE_STYLE_FILL_AREA ( #17 ) ;
#762 = VERTEX_POINT ( 'NONE', #362 ) ;
#763 = EDGE_CURVE ( 'NONE', #425, #546, #620, .T. ) ;
#764 = CARTESIAN_POINT ( 'NONE',  ( 6.499999999999999112, 1.100000000000002087, -2.500000000000000000 ) ) ;
#765 = EDGE_LOOP ( 'NONE', ( #594, #642, #629, #391 ) ) ;
#766 = EDGE_CURVE ( 'NONE', #762, #786, #373, .T. ) ;
#767 = LINE ( 'NONE', #209, #472 ) ;
#768 = DIRECTION ( 'NONE',  ( 0.000000000000000000, -1.000000000000000000, 0.000000000000000000 ) ) ;
#769 = ORIENTED_EDGE ( 'NONE', *, *, #544, .T. ) ;
#770 = CIRCLE ( 'NONE', #706, 1.650000000000000355 ) ;
#771 = AXIS2_PLACEMENT_3D ( 'NONE', #304, #237, #241 ) ;
#772 = CARTESIAN_POINT ( 'NONE',  ( -15.00000000000001954, 4.100000000000001421, 2.500000000000000000 ) ) ;
#773 = CARTESIAN_POINT ( 'NONE',  ( 1.499999999999999112, -1.400000000000000133, 2.500000000000000000 ) ) ;
#774 = ORIENTED_EDGE ( 'NONE', *, *, #681, .T. ) ;
#775 = LINE ( 'NONE', #281, #350 ) ;
#776 = EDGE_LOOP ( 'NONE', ( #727, #349, #346, #7 ) ) ;
#777 = CARTESIAN_POINT ( 'NONE',  ( -7.000000000000020428, -1.100000000000001199, 2.500000000000000000 ) ) ;
#778 = ORIENTED_EDGE ( 'NONE', *, *, #452, .T. ) ;
#779 = AXIS2_PLACEMENT_3D ( 'NONE', #309, #120, #417 ) ;
#780 = FACE_OUTER_BOUND ( 'NONE', #107, .T. ) ;
#781 = ORIENTED_EDGE ( 'NONE', *, *, #574, .F. ) ;
#782 = DIRECTION ( 'NONE',  ( 0.000000000000000000, -1.000000000000000000, 0.000000000000000000 ) ) ;
#783 = EDGE_CURVE ( 'NONE', #741, #278, #353, .T. ) ;
#784 = ADVANCED_FACE ( 'NONE', ( #805 ), #57, .F. ) ;
#785 = FACE_BOUND ( 'NONE', #408, .T. ) ;
#786 = VERTEX_POINT ( 'NONE', #66 ) ;
#787 = ORIENTED_EDGE ( 'NONE', *, *, #536, .T. ) ;
#788 = FACE_OUTER_BOUND ( 'NONE', #42, .T. ) ;
#789 = DIRECTION ( 'NONE',  ( -1.000000000000000000, 0.000000000000000000, 0.000000000000000000 ) ) ;
#790 = CARTESIAN_POINT ( 'NONE',  ( 6.499999999999999112, -1.400000000000000133, 2.500000000000000000 ) ) ;
#791 = ORIENTED_EDGE ( 'NONE', *, *, #41, .T. ) ;
#792 = DIRECTION ( 'NONE',  ( 0.000000000000000000, 0.000000000000000000, 1.000000000000000000 ) ) ;
#793 = DIRECTION ( 'NONE',  ( -0.000000000000000000, -0.000000000000000000, 1.000000000000000000 ) ) ;
#794 = VECTOR ( 'NONE', #370, 1000.000000000000000 ) ;
#795 = EDGE_CURVE ( 'NONE', #213, #138, #308, .T. ) ;
#796 = CARTESIAN_POINT ( 'NONE',  ( -7.000000000000020428, -1.100000000000001199, -2.500000000000000000 ) ) ;
#797 =( GEOMETRIC_REPRESENTATION_CONTEXT ( 3 ) GLOBAL_UNCERTAINTY_ASSIGNED_CONTEXT ( ( #30 ) ) GLOBAL_UNIT_ASSIGNED_CONTEXT ( ( #515, #315, #584 ) ) REPRESENTATION_CONTEXT ( 'NONE', 'WORKASPACE' ) );
#798 = ORIENTED_EDGE ( 'NONE', *, *, #53, .F. ) ;
#799 = DIRECTION ( 'NONE',  ( 0.000000000000000000, 0.000000000000000000, 1.000000000000000000 ) ) ;
#800 = PLANE ( 'NONE',  #771 ) ;
#801 = CARTESIAN_POINT ( 'NONE',  ( -15.00000000000001954, 4.100000000000001421, 2.500000000000000000 ) ) ;
#802 = EDGE_CURVE ( 'NONE', #142, #410, #614, .T. ) ;
#803 = PRODUCT_DEFINITION_FORMATION_WITH_SPECIFIED_SOURCE ( 'ä»', '', #396, .NOT_KNOWN. ) ;
#804 = ORIENTED_EDGE ( 'NONE', *, *, #342, .F. ) ;
#805 = FACE_OUTER_BOUND ( 'NONE', #679, .T. ) ;
ENDSEC;
END-ISO-10303-21;
