ISO-10303-21;
HEADER;
FILE_DESCRIPTION (( 'STEP AP214' ),
    '1' );
FILE_NAME ('³¬Éù²¨Ö§¼Ü.STEP',
    '2026-05-11T08:12:12',
    ( '' ),
    ( '' ),
    'SwSTEP 2.0',
    'SolidWorks 2025',
    '' );
FILE_SCHEMA (( 'AUTOMOTIVE_DESIGN' ));
ENDSEC;

DATA;
#1 = CARTESIAN_POINT ( 'NONE',  ( 15.81538461538461249, -15.64615384615385096, 3.000000000000000000 ) ) ;
#2 = ORIENTED_EDGE ( 'NONE', *, *, #470, .T. ) ;
#3 = LINE ( 'NONE', #817, #50 ) ;
#4 = DIRECTION ( 'NONE',  ( -1.000000000000000000, -1.982541115402065110E-16, 0.000000000000000000 ) ) ;
#5 = VERTEX_POINT ( 'NONE', #397 ) ;
#6 = EDGE_CURVE ( 'NONE', #523, #116, #403, .T. ) ;
#7 = DIRECTION ( 'NONE',  ( 1.000000000000000000, 0.000000000000000000, 0.000000000000000000 ) ) ;
#8 = ORIENTED_EDGE ( 'NONE', *, *, #481, .F. ) ;
#9 = DIRECTION ( 'NONE',  ( 4.956352788505162775E-17, -1.000000000000000000, 0.000000000000000000 ) ) ;
#10 = DIRECTION ( 'NONE',  ( 1.000000000000000000, -0.000000000000000000, 0.000000000000000000 ) ) ;
#11 = AXIS2_PLACEMENT_3D ( 'NONE', #120, #217, #484 ) ;
#12 = ORIENTED_EDGE ( 'NONE', *, *, #1066, .F. ) ;
#13 = CARTESIAN_POINT ( 'NONE',  ( 15.81538461538461249, -30.64615384615385096, 9.000000000000001776 ) ) ;
#14 = ORIENTED_EDGE ( 'NONE', *, *, #1152, .T. ) ;
#15 = LINE ( 'NONE', #350, #862 ) ;
#16 = AXIS2_PLACEMENT_3D ( 'NONE', #1096, #389, #940 ) ;
#17 = EDGE_LOOP ( 'NONE', ( #530, #890, #1040, #735 ) ) ;
#18 = ORIENTED_EDGE ( 'NONE', *, *, #1136, .F. ) ;
#19 = CYLINDRICAL_SURFACE ( 'NONE', #187, 0.7500000000000024425 ) ;
#20 = EDGE_CURVE ( 'NONE', #885, #830, #1042, .T. ) ;
#21 = ORIENTED_EDGE ( 'NONE', *, *, #255, .T. ) ;
#22 = CARTESIAN_POINT ( 'NONE',  ( 29.81538461538461249, -14.64615384615385096, 12.00000000000000000 ) ) ;
#23 = EDGE_LOOP ( 'NONE', ( #335, #326, #48, #275 ) ) ;
#24 = CARTESIAN_POINT ( 'NONE',  ( 0.8153846153846129319, -3.646153846153845191, 0.000000000000000000 ) ) ;
#25 = CARTESIAN_POINT ( 'NONE',  ( 29.81538461538461249, -14.64615384615385096, 12.00000000000000000 ) ) ;
#26 = DIRECTION ( 'NONE',  ( 0.000000000000000000, -0.000000000000000000, -1.000000000000000000 ) ) ;
#27 = EDGE_CURVE ( 'NONE', #183, #332, #1009, .T. ) ;
#28 = VECTOR ( 'NONE', #803, 1000.000000000000000 ) ;
#29 = ORIENTED_EDGE ( 'NONE', *, *, #899, .T. ) ;
#30 = DIRECTION ( 'NONE',  ( 0.000000000000000000, 0.000000000000000000, 1.000000000000000000 ) ) ;
#31 = DIRECTION ( 'NONE',  ( -0.000000000000000000, -1.000000000000000000, -0.000000000000000000 ) ) ;
#32 = DIRECTION ( 'NONE',  ( -0.000000000000000000, -0.000000000000000000, -1.000000000000000000 ) ) ;
#33 = VECTOR ( 'NONE', #524, 1000.000000000000000 ) ;
#34 = VECTOR ( 'NONE', #469, 1000.000000000000000 ) ;
#35 = DIRECTION ( 'NONE',  ( -0.000000000000000000, -0.000000000000000000, 1.000000000000000000 ) ) ;
#36 = SURFACE_STYLE_USAGE ( .BOTH. , #1112 ) ;
#37 = DIRECTION ( 'NONE',  ( -1.000000000000000000, -0.000000000000000000, -0.000000000000000000 ) ) ;
#38 = EDGE_LOOP ( 'NONE', ( #795, #190 ) ) ;
#39 = SURFACE_STYLE_FILL_AREA ( #644 ) ;
#40 = EDGE_CURVE ( 'NONE', #885, #625, #126, .T. ) ;
#41 = DIRECTION ( 'NONE',  ( 0.000000000000000000, 0.000000000000000000, 1.000000000000000000 ) ) ;
#42 = DIRECTION ( 'NONE',  ( -1.000000000000000000, 0.000000000000000000, 0.000000000000000000 ) ) ;
#43 = AXIS2_PLACEMENT_3D ( 'NONE', #1002, #296, #645 ) ;
#44 = CARTESIAN_POINT ( 'NONE',  ( 15.81538461538461249, -30.64615384615385096, 3.000000000000000000 ) ) ;
#45 = ORIENTED_EDGE ( 'NONE', *, *, #221, .T. ) ;
#46 = FACE_OUTER_BOUND ( 'NONE', #17, .T. ) ;
#47 = LINE ( 'NONE', #1032, #347 ) ;
#48 = ORIENTED_EDGE ( 'NONE', *, *, #587, .T. ) ;
#49 = VECTOR ( 'NONE', #963, 1000.000000000000000 ) ;
#50 = VECTOR ( 'NONE', #9, 1000.000000000000000 ) ;
#51 = CARTESIAN_POINT ( 'NONE',  ( 20.81538461538461604, -30.64615384615385096, 0.000000000000000000 ) ) ;
#52 = CARTESIAN_POINT ( 'NONE',  ( -18.18461538461538751, -38.64615384615385096, 9.000000000000001776 ) ) ;
#53 = EDGE_CURVE ( 'NONE', #183, #908, #47, .T. ) ;
#54 = APPLICATION_CONTEXT ( 'automotive_design' ) ;
#55 = DIRECTION ( 'NONE',  ( 1.000000000000000000, 0.000000000000000000, 0.000000000000000000 ) ) ;
#56 = EDGE_CURVE ( 'NONE', #1135, #151, #915, .T. ) ;
#57 = EDGE_LOOP ( 'NONE', ( #849, #911, #443, #883, #801, #773, #1024, #949, #165, #1154, #154, #1075, #618, #867 ) ) ;
#58 = LINE ( 'NONE', #858, #957 ) ;
#59 = ADVANCED_FACE ( 'NONE', ( #764 ), #218, .F. ) ;
#60 = CYLINDRICAL_SURFACE ( 'NONE', #330, 1.650000000000001021 ) ;
#61 = DIRECTION ( 'NONE',  ( -1.000000000000000000, -0.000000000000000000, -0.000000000000000000 ) ) ;
#62 = EDGE_CURVE ( 'NONE', #1068, #908, #1062, .T. ) ;
#63 = ORIENTED_EDGE ( 'NONE', *, *, #579, .F. ) ;
#64 = CARTESIAN_POINT ( 'NONE',  ( -4.184615384615388400, -10.64615384615385096, 3.000000000000000000 ) ) ;
#65 = VECTOR ( 'NONE', #1129, 1000.000000000000000 ) ;
#66 = LINE ( 'NONE', #590, #1138 ) ;
#67 = DIRECTION ( 'NONE',  ( -0.000000000000000000, 1.000000000000000000, -0.000000000000000000 ) ) ;
#68 = VERTEX_POINT ( 'NONE', #1105 ) ;
#69 = AXIS2_PLACEMENT_3D ( 'NONE', #450, #999, #884 ) ;
#70 = CARTESIAN_POINT ( 'NONE',  ( -4.184615384615388400, -10.64615384615385096, 0.000000000000000000 ) ) ;
#71 = EDGE_CURVE ( 'NONE', #1003, #814, #835, .T. ) ;
#72 = DIRECTION ( 'NONE',  ( 1.000000000000000000, 0.000000000000000000, 0.000000000000000000 ) ) ;
#73 = VECTOR ( 'NONE', #738, 1000.000000000000000 ) ;
#74 = DIRECTION ( 'NONE',  ( 0.000000000000000000, 0.000000000000000000, 1.000000000000000000 ) ) ;
#75 = ORIENTED_EDGE ( 'NONE', *, *, #178, .T. ) ;
#76 = CARTESIAN_POINT ( 'NONE',  ( -9.184615384615385736, -30.64615384615385096, 3.000000000000000000 ) ) ;
#77 = ORIENTED_EDGE ( 'NONE', *, *, #969, .T. ) ;
#78 = FACE_BOUND ( 'NONE', #712, .T. ) ;
#79 = ADVANCED_FACE ( 'NONE', ( #229 ), #303, .F. ) ;
#80 = ORIENTED_EDGE ( 'NONE', *, *, #409, .F. ) ;
#81 = DIRECTION ( 'NONE',  ( -1.000000000000000000, 0.000000000000000000, 0.000000000000000000 ) ) ;
#82 = ORIENTED_EDGE ( 'NONE', *, *, #839, .T. ) ;
#83 = CYLINDRICAL_SURFACE ( 'NONE', #997, 0.7500000000000024425 ) ;
#84 = CARTESIAN_POINT ( 'NONE',  ( -18.18461538461539106, -14.64615384615385096, 12.00000000000000000 ) ) ;
#85 = ADVANCED_BREP_SHAPE_REPRESENTATION ( '\X2\8d8558f06ce2652f67b6\X0\', ( #726, #474 ), #271 ) ;
#86 = VERTEX_POINT ( 'NONE', #1114 ) ;
#87 = CARTESIAN_POINT ( 'NONE',  ( -4.184615384615388400, -30.64615384615385096, 9.000000000000001776 ) ) ;
#88 = VERTEX_POINT ( 'NONE', #564 ) ;
#89 = DIRECTION ( 'NONE',  ( 1.000000000000000000, 0.000000000000000000, 0.000000000000000000 ) ) ;
#90 = AXIS2_PLACEMENT_3D ( 'NONE', #371, #281, #7 ) ;
#91 = AXIS2_PLACEMENT_3D ( 'NONE', #338, #601, #971 ) ;
#92 = FACE_OUTER_BOUND ( 'NONE', #294, .T. ) ;
#93 = EDGE_LOOP ( 'NONE', ( #432, #1008, #63, #201, #934, #45 ) ) ;
#94 = ADVANCED_FACE ( 'NONE', ( #663 ), #134, .F. ) ;
#95 = DIRECTION ( 'NONE',  ( -1.000000000000000000, 0.000000000000000000, 0.000000000000000000 ) ) ;
#96 = ORIENTED_EDGE ( 'NONE', *, *, #1066, .T. ) ;
#97 = CARTESIAN_POINT ( 'NONE',  ( 0.8153846153846129319, -3.646153846153845191, 0.000000000000000000 ) ) ;
#98 = CARTESIAN_POINT ( 'NONE',  ( 15.81538461538461249, -15.64615384615385096, 9.000000000000001776 ) ) ;
#99 = ORIENTED_EDGE ( 'NONE', *, *, #321, .T. ) ;
#100 = DIRECTION ( 'NONE',  ( -1.000000000000000000, -0.000000000000000000, -0.000000000000000000 ) ) ;
#101 = ORIENTED_EDGE ( 'NONE', *, *, #255, .F. ) ;
#102 = CARTESIAN_POINT ( 'NONE',  ( 20.81538461538461604, -30.64615384615385096, 3.000000000000000000 ) ) ;
#103 = VECTOR ( 'NONE', #1022, 1000.000000000000000 ) ;
#104 = AXIS2_PLACEMENT_3D ( 'NONE', #946, #41, #563 ) ;
#105 = EDGE_LOOP ( 'NONE', ( #236, #2, #548, #340 ) ) ;
#106 =( NAMED_UNIT ( * ) SI_UNIT ( $, .STERADIAN. ) SOLID_ANGLE_UNIT ( ) );
#107 = ORIENTED_EDGE ( 'NONE', *, *, #718, .F. ) ;
#108 = CARTESIAN_POINT ( 'NONE',  ( -4.184615384615388400, -30.64615384615385096, 9.000000000000001776 ) ) ;
#109 = EDGE_CURVE ( 'NONE', #1148, #1095, #480, .T. ) ;
#110 = CIRCLE ( 'NONE', #880, 0.7500000000000006661 ) ;
#111 = ORIENTED_EDGE ( 'NONE', *, *, #1033, .T. ) ;
#112 = EDGE_LOOP ( 'NONE', ( #822, #1065, #14, #498 ) ) ;
#113 = CARTESIAN_POINT ( 'NONE',  ( 12.46538461538461462, -3.646153846153845191, 0.000000000000000000 ) ) ;
#114 = EDGE_CURVE ( 'NONE', #786, #532, #313, .T. ) ;
#115 = LINE ( 'NONE', #1118, #1045 ) ;
#116 = VERTEX_POINT ( 'NONE', #881 ) ;
#117 = CARTESIAN_POINT ( 'NONE',  ( -18.18461538461539106, -14.64615384615385096, 9.000000000000001776 ) ) ;
#118 = ORIENTED_EDGE ( 'NONE', *, *, #647, .F. ) ;
#119 = DIRECTION ( 'NONE',  ( -0.000000000000000000, -0.000000000000000000, 1.000000000000000000 ) ) ;
#120 = CARTESIAN_POINT ( 'NONE',  ( -4.184615384615388400, -0.6461538461538461897, 0.000000000000000000 ) ) ;
#121 = DIRECTION ( 'NONE',  ( 0.000000000000000000, -1.000000000000000000, 0.000000000000000000 ) ) ;
#122 = VECTOR ( 'NONE', #667, 1000.000000000000000 ) ;
#123 = CARTESIAN_POINT ( 'NONE',  ( -9.184615384615387512, 4.353846153846153477, 0.000000000000000000 ) ) ;
#124 = DIRECTION ( 'NONE',  ( 1.000000000000000000, 0.000000000000000000, 0.000000000000000000 ) ) ;
#125 = DIRECTION ( 'NONE',  ( 0.000000000000000000, 0.000000000000000000, 1.000000000000000000 ) ) ;
#126 = LINE ( 'NONE', #387, #136 ) ;
#127 = COLOUR_RGB ( '',0.7921568627450980005, 0.8196078431372548767, 0.9333333333333333481 ) ;
#128 = CYLINDRICAL_SURFACE ( 'NONE', #739, 0.7500000000000006661 ) ;
#129 = LINE ( 'NONE', #751, #34 ) ;
#130 = CARTESIAN_POINT ( 'NONE',  ( 20.81538461538460894, -0.6461538461538466338, 3.000000000000000000 ) ) ;
#131 = ORIENTED_EDGE ( 'NONE', *, *, #388, .F. ) ;
#132 = DIRECTION ( 'NONE',  ( 0.000000000000000000, 0.000000000000000000, 1.000000000000000000 ) ) ;
#133 = LINE ( 'NONE', #558, #763 ) ;
#134 = PLANE ( 'NONE',  #156 ) ;
#135 = VERTEX_POINT ( 'NONE', #780 ) ;
#136 = VECTOR ( 'NONE', #954, 1000.000000000000000 ) ;
#137 = CARTESIAN_POINT ( 'NONE',  ( 27.41538461538460680, -17.24615384615383817, 9.000000000000001776 ) ) ;
#138 = EDGE_CURVE ( 'NONE', #204, #625, #426, .T. ) ;
#139 = FACE_OUTER_BOUND ( 'NONE', #378, .T. ) ;
#140 = CARTESIAN_POINT ( 'NONE',  ( -18.18461538461539106, -14.64615384615385096, 12.00000000000000000 ) ) ;
#141 = ORIENTED_EDGE ( 'NONE', *, *, #770, .T. ) ;
#142 = AXIS2_PLACEMENT_3D ( 'NONE', #331, #1050, #778 ) ;
#143 = EDGE_CURVE ( 'NONE', #329, #377, #903, .T. ) ;
#144 = VECTOR ( 'NONE', #906, 1000.000000000000000 ) ;
#145 = CARTESIAN_POINT ( 'NONE',  ( -15.78461538461538360, -17.24615384615384528, 9.000000000000001776 ) ) ;
#146 = PLANE ( 'NONE',  #1030 ) ;
#147 = ADVANCED_FACE ( 'NONE', ( #344 ), #1141, .T. ) ;
#148 = PLANE ( 'NONE',  #873 ) ;
#149 = ORIENTED_EDGE ( 'NONE', *, *, #143, .T. ) ;
#150 = CARTESIAN_POINT ( 'NONE',  ( 9.165384615384613909, -3.646153846153845191, 0.000000000000000000 ) ) ;
#151 = VERTEX_POINT ( 'NONE', #791 ) ;
#152 = DIRECTION ( 'NONE',  ( 1.445602896647339163E-16, -1.000000000000000000, 0.000000000000000000 ) ) ;
#153 = PRODUCT_DEFINITION_FORMATION_WITH_SPECIFIED_SOURCE ( 'ä»', '', #550, .NOT_KNOWN. ) ;
#154 = ORIENTED_EDGE ( 'NONE', *, *, #53, .T. ) ;
#155 = CARTESIAN_POINT ( 'NONE',  ( 12.46538461538461462, -3.646153846153845191, 3.000000000000000000 ) ) ;
#156 = AXIS2_PLACEMENT_3D ( 'NONE', #495, #121, #26 ) ;
#157 = AXIS2_PLACEMENT_3D ( 'NONE', #1159, #706, #973 ) ;
#158 = ORIENTED_EDGE ( 'NONE', *, *, #876, .F. ) ;
#159 = CARTESIAN_POINT ( 'NONE',  ( 20.81538461538460894, -0.6461538461538466338, 0.000000000000000000 ) ) ;
#160 = FACE_BOUND ( 'NONE', #1099, .T. ) ;
#161 = EDGE_LOOP ( 'NONE', ( #832, #464 ) ) ;
#162 = EDGE_CURVE ( 'NONE', #535, #1095, #516, .T. ) ;
#163 = VECTOR ( 'NONE', #565, 1000.000000000000000 ) ;
#164 = DIRECTION ( 'NONE',  ( -0.000000000000000000, 0.000000000000000000, 1.000000000000000000 ) ) ;
#165 = ORIENTED_EDGE ( 'NONE', *, *, #442, .T. ) ;
#166 = LINE ( 'NONE', #672, #593 ) ;
#167 = FACE_BOUND ( 'NONE', #750, .T. ) ;
#168 = ORIENTED_EDGE ( 'NONE', *, *, #1028, .T. ) ;
#169 = PRODUCT_DEFINITION_CONTEXT ( 'detailed design', #1064, 'design' ) ;
#170 = CARTESIAN_POINT ( 'NONE',  ( -4.184615384615388400, -30.64615384615385096, 3.000000000000000000 ) ) ;
#171 = ORIENTED_EDGE ( 'NONE', *, *, #250, .T. ) ;
#172 = CARTESIAN_POINT ( 'NONE',  ( -7.184615384615388400, -30.64615384615385096, 9.000000000000001776 ) ) ;
#173 = FACE_OUTER_BOUND ( 'NONE', #454, .T. ) ;
#174 = EDGE_CURVE ( 'NONE', #786, #1097, #797, .T. ) ;
#175 = VECTOR ( 'NONE', #382, 1000.000000000000000 ) ;
#176 = ORIENTED_EDGE ( 'NONE', *, *, #405, .T. ) ;
#177 = CARTESIAN_POINT ( 'NONE',  ( 26.66538461538461036, -36.04615384615384244, 7.000000000000000000 ) ) ;
#178 = EDGE_CURVE ( 'NONE', #196, #468, #917, .T. ) ;
#179 = ORIENTED_EDGE ( 'NONE', *, *, #716, .T. ) ;
#180 = DIRECTION ( 'NONE',  ( -0.000000000000000000, -0.000000000000000000, 1.000000000000000000 ) ) ;
#181 = VECTOR ( 'NONE', #31, 1000.000000000000000 ) ;
#182 = EDGE_CURVE ( 'NONE', #996, #814, #869, .T. ) ;
#183 = VERTEX_POINT ( 'NONE', #775 ) ;
#184 = LINE ( 'NONE', #170, #826 ) ;
#185 = ORIENTED_EDGE ( 'NONE', *, *, #718, .T. ) ;
#186 = CARTESIAN_POINT ( 'NONE',  ( 15.81538461538461249, -15.64615384615385096, 3.000000000000000000 ) ) ;
#187 = AXIS2_PLACEMENT_3D ( 'NONE', #931, #119, #477 ) ;
#188 = VECTOR ( 'NONE', #1069, 1000.000000000000000 ) ;
#189 = CARTESIAN_POINT ( 'NONE',  ( 18.81538461538460894, -30.64615384615385096, 3.000000000000000000 ) ) ;
#190 = ORIENTED_EDGE ( 'NONE', *, *, #272, .T. ) ;
#191 = CYLINDRICAL_SURFACE ( 'NONE', #1106, 1.650000000000000355 ) ;
#192 = ORIENTED_EDGE ( 'NONE', *, *, #852, .T. ) ;
#193 = DIRECTION ( 'NONE',  ( -0.000000000000000000, 0.000000000000000000, 1.000000000000000000 ) ) ;
#194 = EDGE_LOOP ( 'NONE', ( #1077, #715, #111, #457 ) ) ;
#195 = ADVANCED_FACE ( 'NONE', ( #160, #608, #980, #167, #420, #522, #264 ), #615, .F. ) ;
#196 = VERTEX_POINT ( 'NONE', #1047 ) ;
#197 = LINE ( 'NONE', #994, #144 ) ;
#198 = ADVANCED_FACE ( 'NONE', ( #240 ), #148, .F. ) ;
#199 = VECTOR ( 'NONE', #491, 1000.000000000000000 ) ;
#200 = AXIS2_PLACEMENT_3D ( 'NONE', #490, #125, #843 ) ;
#201 = ORIENTED_EDGE ( 'NONE', *, *, #325, .T. ) ;
#202 = DIRECTION ( 'NONE',  ( 1.000000000000000000, 0.000000000000000000, 0.000000000000000000 ) ) ;
#203 = ADVANCED_FACE ( 'NONE', ( #729 ), #1094, .F. ) ;
#204 = VERTEX_POINT ( 'NONE', #907 ) ;
#205 = FILL_AREA_STYLE_COLOUR ( '', #127 ) ;
#206 = AXIS2_PLACEMENT_3D ( 'NONE', #232, #414, #956 ) ;
#207 = DIRECTION ( 'NONE',  ( 1.000000000000000000, 0.000000000000000000, 0.000000000000000000 ) ) ;
#208 = VERTEX_POINT ( 'NONE', #189 ) ;
#209 = DIRECTION ( 'NONE',  ( -0.000000000000000000, 0.000000000000000000, 1.000000000000000000 ) ) ;
#210 = ORIENTED_EDGE ( 'NONE', *, *, #562, .F. ) ;
#211 = LINE ( 'NONE', #650, #808 ) ;
#212 = FACE_OUTER_BOUND ( 'NONE', #112, .T. ) ;
#213 = DIRECTION ( 'NONE',  ( -0.000000000000000000, -0.000000000000000000, -1.000000000000000000 ) ) ;
#214 = FACE_BOUND ( 'NONE', #38, .T. ) ;
#215 = DIRECTION ( 'NONE',  ( -1.000000000000000000, -0.000000000000000000, -0.000000000000000000 ) ) ;
#216 = EDGE_CURVE ( 'NONE', #1125, #918, #290, .T. ) ;
#217 = DIRECTION ( 'NONE',  ( 0.000000000000000000, -0.000000000000000000, -1.000000000000000000 ) ) ;
#218 = PLANE ( 'NONE',  #853 ) ;
#219 = VECTOR ( 'NONE', #505, 1000.000000000000000 ) ;
#220 = DIRECTION ( 'NONE',  ( 1.000000000000000000, 0.000000000000000000, 0.000000000000000000 ) ) ;
#221 = EDGE_CURVE ( 'NONE', #996, #204, #380, .T. ) ;
#222 = CARTESIAN_POINT ( 'NONE',  ( -18.18461538461539106, -14.64615384615385096, 9.000000000000001776 ) ) ;
#223 = CARTESIAN_POINT ( 'NONE',  ( -9.184615384615387512, 4.353846153846153477, 3.000000000000000000 ) ) ;
#224 = VECTOR ( 'NONE', #820, 1000.000000000000000 ) ;
#225 = ORIENTED_EDGE ( 'NONE', *, *, #519, .T. ) ;
#226 = AXIS2_PLACEMENT_3D ( 'NONE', #945, #295, #399 ) ;
#227 = PLANE ( 'NONE',  #1166 ) ;
#228 = CARTESIAN_POINT ( 'NONE',  ( -15.03461538461538005, -17.24615384615384528, 12.00000000000000000 ) ) ;
#229 = FACE_OUTER_BOUND ( 'NONE', #727, .T. ) ;
#230 = ORIENTED_EDGE ( 'NONE', *, *, #27, .T. ) ;
#231 = EDGE_CURVE ( 'NONE', #377, #329, #744, .T. ) ;
#232 = CARTESIAN_POINT ( 'NONE',  ( 27.41538461538461391, -36.04615384615384244, 12.00000000000000000 ) ) ;
#233 = ORIENTED_EDGE ( 'NONE', *, *, #285, .F. ) ;
#234 = LINE ( 'NONE', #779, #936 ) ;
#235 = ORIENTED_EDGE ( 'NONE', *, *, #759, .T. ) ;
#236 = ORIENTED_EDGE ( 'NONE', *, *, #53, .F. ) ;
#237 = DIRECTION ( 'NONE',  ( -0.000000000000000000, -0.000000000000000000, -1.000000000000000000 ) ) ;
#238 = ADVANCED_FACE ( 'NONE', ( #173 ), #529, .F. ) ;
#239 = LINE ( 'NONE', #868, #219 ) ;
#240 = FACE_OUTER_BOUND ( 'NONE', #514, .T. ) ;
#241 = ORIENTED_EDGE ( 'NONE', *, *, #71, .T. ) ;
#242 = VECTOR ( 'NONE', #124, 1000.000000000000000 ) ;
#243 = AXIS2_PLACEMENT_3D ( 'NONE', #1164, #193, #1001 ) ;
#244 = DIRECTION ( 'NONE',  ( -1.000000000000000000, 0.000000000000000000, 0.000000000000000000 ) ) ;
#245 = LINE ( 'NONE', #691, #623 ) ;
#246 = DIRECTION ( 'NONE',  ( 1.000000000000000000, 0.000000000000000000, 0.000000000000000000 ) ) ;
#247 = ORIENTED_EDGE ( 'NONE', *, *, #682, .T. ) ;
#248 = LINE ( 'NONE', #44, #922 ) ;
#249 = DIRECTION ( 'NONE',  ( -0.000000000000000000, -0.000000000000000000, -1.000000000000000000 ) ) ;
#250 = EDGE_CURVE ( 'NONE', #1148, #575, #627, .T. ) ;
#251 = ORIENTED_EDGE ( 'NONE', *, *, #734, .F. ) ;
#252 = CARTESIAN_POINT ( 'NONE',  ( -4.184615384615388400, -15.64615384615385096, 3.000000000000000000 ) ) ;
#253 = AXIS2_PLACEMENT_3D ( 'NONE', #747, #213, #947 ) ;
#254 = CIRCLE ( 'NONE', #200, 0.7500000000000024425 ) ;
#255 = EDGE_CURVE ( 'NONE', #151, #878, #995, .T. ) ;
#256 = ORIENTED_EDGE ( 'NONE', *, *, #40, .T. ) ;
#257 = CARTESIAN_POINT ( 'NONE',  ( 27.41538461538461391, -36.04615384615384244, 9.000000000000001776 ) ) ;
#258 = ORIENTED_EDGE ( 'NONE', *, *, #682, .F. ) ;
#259 = VECTOR ( 'NONE', #736, 1000.000000000000000 ) ;
#260 = CARTESIAN_POINT ( 'NONE',  ( 28.16538461538460680, -17.24615384615383817, 9.000000000000001776 ) ) ;
#261 = CIRCLE ( 'NONE', #502, 1.650000000000001243 ) ;
#262 = ORIENTED_EDGE ( 'NONE', *, *, #1073, .F. ) ;
#263 = CARTESIAN_POINT ( 'NONE',  ( 15.81538461538461249, -15.64615384615385096, 9.000000000000001776 ) ) ;
#264 = FACE_BOUND ( 'NONE', #1142, .T. ) ;
#265 = ORIENTED_EDGE ( 'NONE', *, *, #62, .T. ) ;
#266 = ADVANCED_FACE ( 'NONE', ( #92 ), #448, .F. ) ;
#267 = CARTESIAN_POINT ( 'NONE',  ( 26.66538461538460325, -17.24615384615383817, 7.000000000000000000 ) ) ;
#268 = ADVANCED_FACE ( 'NONE', ( #1081 ), #279, .F. ) ;
#269 = EDGE_LOOP ( 'NONE', ( #542, #230, #743, #888 ) ) ;
#270 = LINE ( 'NONE', #108, #188 ) ;
#271 =( GEOMETRIC_REPRESENTATION_CONTEXT ( 3 ) GLOBAL_UNCERTAINTY_ASSIGNED_CONTEXT ( ( #998 ) ) GLOBAL_UNIT_ASSIGNED_CONTEXT ( ( #395, #1115, #106 ) ) REPRESENTATION_CONTEXT ( 'NONE', 'WORKASPACE' ) );
#272 = EDGE_CURVE ( 'NONE', #732, #878, #552, .T. ) ;
#273 = VERTEX_POINT ( 'NONE', #385 ) ;
#274 = DIRECTION ( 'NONE',  ( 0.000000000000000000, 1.000000000000000000, 0.000000000000000000 ) ) ;
#275 = ORIENTED_EDGE ( 'NONE', *, *, #887, .T. ) ;
#276 = DIRECTION ( 'NONE',  ( -0.000000000000000000, -0.000000000000000000, 1.000000000000000000 ) ) ;
#277 = ADVANCED_FACE ( 'NONE', ( #393 ), #942, .F. ) ;
#278 = AXIS2_PLACEMENT_3D ( 'NONE', #223, #938, #301 ) ;
#279 = PLANE ( 'NONE',  #679 ) ;
#280 = ORIENTED_EDGE ( 'NONE', *, *, #1020, .T. ) ;
#281 = DIRECTION ( 'NONE',  ( 0.000000000000000000, 0.000000000000000000, 1.000000000000000000 ) ) ;
#282 = ORIENTED_EDGE ( 'NONE', *, *, #556, .F. ) ;
#283 = LINE ( 'NONE', #526, #1054 ) ;
#284 = PRESENTATION_LAYER_ASSIGNMENT (  '', '', ( #785 ) ) ;
#285 = EDGE_CURVE ( 'NONE', #897, #1097, #1063, .T. ) ;
#286 = EDGE_LOOP ( 'NONE', ( #466, #381 ) ) ;
#287 = DIRECTION ( 'NONE',  ( -0.000000000000000000, -0.000000000000000000, -1.000000000000000000 ) ) ;
#288 = VERTEX_POINT ( 'NONE', #652 ) ;
#289 = PLANE ( 'NONE',  #557 ) ;
#290 = LINE ( 'NONE', #534, #348 ) ;
#291 = ORIENTED_EDGE ( 'NONE', *, *, #892, .F. ) ;
#292 = ADVANCED_FACE ( 'NONE', ( #46 ), #323, .F. ) ;
#293 = DIRECTION ( 'NONE',  ( 0.000000000000000000, 0.000000000000000000, 1.000000000000000000 ) ) ;
#294 = EDGE_LOOP ( 'NONE', ( #503, #1133, #247, #365 ) ) ;
#295 = DIRECTION ( 'NONE',  ( -0.000000000000000000, 1.000000000000000000, 0.000000000000000000 ) ) ;
#296 = DIRECTION ( 'NONE',  ( 0.000000000000000000, 0.000000000000000000, 1.000000000000000000 ) ) ;
#297 = EDGE_LOOP ( 'NONE', ( #1092, #1043, #318, #860 ) ) ;
#298 = FACE_OUTER_BOUND ( 'NONE', #596, .T. ) ;
#299 = ORIENTED_EDGE ( 'NONE', *, *, #319, .T. ) ;
#300 = CARTESIAN_POINT ( 'NONE',  ( 18.81538461538461249, -30.64615384615385096, 9.000000000000001776 ) ) ;
#301 = DIRECTION ( 'NONE',  ( -4.956352788505162775E-17, 1.000000000000000000, 0.000000000000000000 ) ) ;
#302 = CIRCLE ( 'NONE', #960, 0.7500000000000006661 ) ;
#303 = PLANE ( 'NONE',  #799 ) ;
#304 = LINE ( 'NONE', #841, #675 ) ;
#305 = EDGE_LOOP ( 'NONE', ( #1119, #496 ) ) ;
#306 = PRESENTATION_STYLE_ASSIGNMENT (( #36 ) ) ;
#307 = EDGE_CURVE ( 'NONE', #370, #830, #133, .T. ) ;
#308 = LINE ( 'NONE', #401, #369 ) ;
#309 = CARTESIAN_POINT ( 'NONE',  ( 15.81538461538460894, -0.6461538461538461897, 0.000000000000000000 ) ) ;
#310 = CARTESIAN_POINT ( 'NONE',  ( 15.81538461538461249, -15.64615384615385096, 9.000000000000001776 ) ) ;
#311 = CARTESIAN_POINT ( 'NONE',  ( -7.184615384615388400, -30.64615384615385096, 9.000000000000001776 ) ) ;
#312 = CARTESIAN_POINT ( 'NONE',  ( -7.184615384615388400, -30.64615384615385096, 3.000000000000000000 ) ) ;
#313 = CIRCLE ( 'NONE', #972, 5.000000000000000888 ) ;
#314 = FACE_OUTER_BOUND ( 'NONE', #451, .T. ) ;
#315 =( LENGTH_UNIT ( ) NAMED_UNIT ( * ) SI_UNIT ( .MILLI., .METRE. ) );
#316 = CARTESIAN_POINT ( 'NONE',  ( 18.81538461538461249, -30.64615384615385096, 3.000000000000000000 ) ) ;
#317 = AXIS2_PLACEMENT_3D ( 'NONE', #1091, #274, #815 ) ;
#318 = ORIENTED_EDGE ( 'NONE', *, *, #20, .F. ) ;
#319 = EDGE_CURVE ( 'NONE', #939, #208, #1012, .T. ) ;
#320 = CARTESIAN_POINT ( 'NONE',  ( 29.81538461538461249, -38.64615384615385096, 12.00000000000000000 ) ) ;
#321 = EDGE_CURVE ( 'NONE', #830, #1006, #927, .T. ) ;
#322 = VERTEX_POINT ( 'NONE', #834 ) ;
#323 = CYLINDRICAL_SURFACE ( 'NONE', #1083, 0.7500000000000024425 ) ;
#324 = DIRECTION ( 'NONE',  ( 0.000000000000000000, 0.000000000000000000, 1.000000000000000000 ) ) ;
#325 = EDGE_CURVE ( 'NONE', #594, #814, #308, .T. ) ;
#326 = ORIENTED_EDGE ( 'NONE', *, *, #804, .F. ) ;
#327 = FACE_OUTER_BOUND ( 'NONE', #194, .T. ) ;
#328 = LINE ( 'NONE', #678, #376 ) ;
#329 = VERTEX_POINT ( 'NONE', #408 ) ;
#330 = AXIS2_PLACEMENT_3D ( 'NONE', #431, #1061, #697 ) ;
#331 = CARTESIAN_POINT ( 'NONE',  ( 27.41538461538461391, -36.04615384615384244, 9.000000000000001776 ) ) ;
#332 = VERTEX_POINT ( 'NONE', #130 ) ;
#333 = DIRECTION ( 'NONE',  ( 1.000000000000000000, 0.000000000000000000, 0.000000000000000000 ) ) ;
#334 = CARTESIAN_POINT ( 'NONE',  ( -18.18461538461539106, -14.64615384615385096, 12.00000000000000000 ) ) ;
#335 = ORIENTED_EDGE ( 'NONE', *, *, #1052, .F. ) ;
#336 = CIRCLE ( 'NONE', #631, 1.650000000000001243 ) ;
#337 = CARTESIAN_POINT ( 'NONE',  ( -7.184615384615388400, -30.64615384615385096, 3.000000000000000000 ) ) ;
#338 = CARTESIAN_POINT ( 'NONE',  ( -15.78461538461538360, -17.24615384615384528, 9.000000000000001776 ) ) ;
#339 = DIRECTION ( 'NONE',  ( 1.000000000000000000, 0.000000000000000000, 0.000000000000000000 ) ) ;
#340 = ORIENTED_EDGE ( 'NONE', *, *, #589, .F. ) ;
#341 = DIRECTION ( 'NONE',  ( 0.000000000000000000, 1.000000000000000000, 0.000000000000000000 ) ) ;
#342 = VERTEX_POINT ( 'NONE', #1021 ) ;
#343 = LINE ( 'NONE', #1140, #423 ) ;
#344 = FACE_OUTER_BOUND ( 'NONE', #583, .T. ) ;
#345 = ORIENTED_EDGE ( 'NONE', *, *, #1152, .F. ) ;
#346 = PLANE ( 'NONE',  #317 ) ;
#347 = VECTOR ( 'NONE', #856, 1000.000000000000000 ) ;
#348 = VECTOR ( 'NONE', #920, 1000.000000000000000 ) ;
#349 = ORIENTED_EDGE ( 'NONE', *, *, #630, .T. ) ;
#350 = CARTESIAN_POINT ( 'NONE',  ( 28.16538461538461391, -36.04615384615384244, 7.000000000000000000 ) ) ;
#351 = ORIENTED_EDGE ( 'NONE', *, *, #40, .F. ) ;
#352 = EDGE_CURVE ( 'NONE', #273, #594, #657, .T. ) ;
#353 = CIRCLE ( 'NONE', #1126, 0.7500000000000006661 ) ;
#354 = CARTESIAN_POINT ( 'NONE',  ( 27.41538461538461391, -36.04615384615384244, 12.00000000000000000 ) ) ;
#355 = VECTOR ( 'NONE', #633, 1000.000000000000000 ) ;
#356 = EDGE_LOOP ( 'NONE', ( #291, #704, #21, #1157 ) ) ;
#357 = CARTESIAN_POINT ( 'NONE',  ( 27.41538461538460680, -17.24615384615383817, 7.000000000000000000 ) ) ;
#358 = ADVANCED_FACE ( 'NONE', ( #212 ), #567, .F. ) ;
#359 = CARTESIAN_POINT ( 'NONE',  ( 15.81538461538461249, -30.64615384615385096, -3.000000000000000000 ) ) ;
#360 = ORIENTED_EDGE ( 'NONE', *, *, #804, .T. ) ;
#361 = EDGE_CURVE ( 'NONE', #116, #523, #254, .T. ) ;
#362 = DIRECTION ( 'NONE',  ( 1.000000000000000000, 0.000000000000000000, 0.000000000000000000 ) ) ;
#363 = ORIENTED_EDGE ( 'NONE', *, *, #1020, .F. ) ;
#364 = CARTESIAN_POINT ( 'NONE',  ( -4.184615384615388400, 4.353846153846152589, -3.000000000000000000 ) ) ;
#365 = ORIENTED_EDGE ( 'NONE', *, *, #1038, .T. ) ;
#366 = CARTESIAN_POINT ( 'NONE',  ( 18.81538461538461249, -30.64615384615385096, 9.000000000000001776 ) ) ;
#367 = EDGE_LOOP ( 'NONE', ( #928, #628, #921, #101 ) ) ;
#368 = DIRECTION ( 'NONE',  ( 0.000000000000000000, 1.000000000000000000, 0.000000000000000000 ) ) ;
#369 = VECTOR ( 'NONE', #1026, 1000.000000000000000 ) ;
#370 = VERTEX_POINT ( 'NONE', #396 ) ;
#371 = CARTESIAN_POINT ( 'NONE',  ( 0.8153846153846129319, -3.646153846153845191, 3.000000000000000000 ) ) ;
#372 = VECTOR ( 'NONE', #866, 1000.000000000000000 ) ;
#373 = ORIENTED_EDGE ( 'NONE', *, *, #847, .T. ) ;
#374 = DIRECTION ( 'NONE',  ( -0.000000000000000000, -0.000000000000000000, -1.000000000000000000 ) ) ;
#375 = EDGE_CURVE ( 'NONE', #508, #610, #757, .T. ) ;
#376 = VECTOR ( 'NONE', #784, 1000.000000000000000 ) ;
#377 = VERTEX_POINT ( 'NONE', #228 ) ;
#378 = EDGE_LOOP ( 'NONE', ( #262, #806, #544, #777 ) ) ;
#379 = CARTESIAN_POINT ( 'NONE',  ( 27.41538461538460680, -17.24615384615383817, 12.00000000000000000 ) ) ;
#380 = LINE ( 'NONE', #639, #894 ) ;
#381 = ORIENTED_EDGE ( 'NONE', *, *, #6, .F. ) ;
#382 = DIRECTION ( 'NONE',  ( -0.000000000000000000, -0.000000000000000000, -1.000000000000000000 ) ) ;
#383 = ORIENTED_EDGE ( 'NONE', *, *, #1160, .T. ) ;
#384 = FACE_OUTER_BOUND ( 'NONE', #297, .T. ) ;
#385 = CARTESIAN_POINT ( 'NONE',  ( -7.184615384615388400, -15.64615384615385096, 9.000000000000001776 ) ) ;
#386 = VECTOR ( 'NONE', #768, 1000.000000000000000 ) ;
#387 = CARTESIAN_POINT ( 'NONE',  ( -4.184615384615388400, 0.000000000000000000, 0.000000000000000000 ) ) ;
#388 = EDGE_CURVE ( 'NONE', #508, #473, #115, .T. ) ;
#389 = DIRECTION ( 'NONE',  ( -1.000000000000000000, 0.000000000000000000, 0.000000000000000000 ) ) ;
#390 = ORIENTED_EDGE ( 'NONE', *, *, #375, .F. ) ;
#391 = CARTESIAN_POINT ( 'NONE',  ( 15.81538461538460894, 4.353846153846153477, 0.000000000000000000 ) ) ;
#392 = VECTOR ( 'NONE', #622, 1000.000000000000000 ) ;
#393 = FACE_OUTER_BOUND ( 'NONE', #476, .T. ) ;
#394 = DIRECTION ( 'NONE',  ( 0.000000000000000000, -1.000000000000000000, 0.000000000000000000 ) ) ;
#395 =( LENGTH_UNIT ( ) NAMED_UNIT ( * ) SI_UNIT ( .MILLI., .METRE. ) );
#396 = CARTESIAN_POINT ( 'NONE',  ( 15.81538461538461249, -10.64615384615385096, 3.000000000000000000 ) ) ;
#397 = CARTESIAN_POINT ( 'NONE',  ( -16.53461538461538538, -17.24615384615384528, 9.000000000000001776 ) ) ;
#398 = FACE_OUTER_BOUND ( 'NONE', #696, .T. ) ;
#399 = DIRECTION ( 'NONE',  ( 0.000000000000000000, -0.000000000000000000, 1.000000000000000000 ) ) ;
#400 = ADVANCED_FACE ( 'NONE', ( #1031 ), #762, .F. ) ;
#401 = CARTESIAN_POINT ( 'NONE',  ( -7.184615384615388400, -30.64615384615385096, 9.000000000000001776 ) ) ;
#402 = EDGE_LOOP ( 'NONE', ( #1018, #925, #680, #171 ) ) ;
#403 = CIRCLE ( 'NONE', #459, 0.7500000000000024425 ) ;
#404 = VECTOR ( 'NONE', #714, 1000.000000000000000 ) ;
#405 = EDGE_CURVE ( 'NONE', #208, #135, #1123, .T. ) ;
#406 = CARTESIAN_POINT ( 'NONE',  ( -4.184615384615388400, -15.64615384615385096, 9.000000000000001776 ) ) ;
#407 = ORIENTED_EDGE ( 'NONE', *, *, #488, .T. ) ;
#408 = CARTESIAN_POINT ( 'NONE',  ( -16.53461538461538538, -17.24615384615384528, 12.00000000000000000 ) ) ;
#409 = EDGE_CURVE ( 'NONE', #575, #508, #746, .T. ) ;
#410 = CIRCLE ( 'NONE', #69, 1.650000000000000355 ) ;
#411 = CARTESIAN_POINT ( 'NONE',  ( -4.184615384615388400, -15.64615384615385096, 9.000000000000001776 ) ) ;
#412 = VECTOR ( 'NONE', #368, 1000.000000000000000 ) ;
#413 = ORIENTED_EDGE ( 'NONE', *, *, #839, .F. ) ;
#414 = DIRECTION ( 'NONE',  ( 0.000000000000000000, 0.000000000000000000, 1.000000000000000000 ) ) ;
#415 = CARTESIAN_POINT ( 'NONE',  ( 2.465384615384614175, -3.646153846153845191, 3.000000000000000000 ) ) ;
#416 = DIRECTION ( 'NONE',  ( 1.000000000000000000, 0.000000000000000000, 0.000000000000000000 ) ) ;
#417 = EDGE_LOOP ( 'NONE', ( #176, #118, #413, #299 ) ) ;
#418 = LINE ( 'NONE', #252, #372 ) ;
#419 = FACE_OUTER_BOUND ( 'NONE', #428, .T. ) ;
#420 = FACE_OUTER_BOUND ( 'NONE', #1011, .T. ) ;
#421 = ADVANCED_FACE ( 'NONE', ( #1158, #78, #499, #1151, #886 ), #146, .T. ) ;
#422 = ORIENTED_EDGE ( 'NONE', *, *, #790, .F. ) ;
#423 = VECTOR ( 'NONE', #333, 1000.000000000000000 ) ;
#424 = DIRECTION ( 'NONE',  ( 1.000000000000000000, 0.000000000000000000, 0.000000000000000000 ) ) ;
#425 = DIRECTION ( 'NONE',  ( -0.000000000000000000, -0.000000000000000000, -1.000000000000000000 ) ) ;
#426 = LINE ( 'NONE', #592, #1109 ) ;
#427 = ADVANCED_FACE ( 'NONE', ( #419 ), #60, .F. ) ;
#428 = EDGE_LOOP ( 'NONE', ( #788, #225, #251, #649 ) ) ;
#429 = VECTOR ( 'NONE', #249, 1000.000000000000000 ) ;
#430 = CARTESIAN_POINT ( 'NONE',  ( 15.81538461538460894, -0.6461538461538461897, -3.000000000000000000 ) ) ;
#431 = CARTESIAN_POINT ( 'NONE',  ( 0.8153846153846129319, -3.646153846153845191, 3.000000000000000000 ) ) ;
#432 = ORIENTED_EDGE ( 'NONE', *, *, #138, .T. ) ;
#433 = CARTESIAN_POINT ( 'NONE',  ( 15.81538461538461249, -15.64615384615385096, 9.000000000000001776 ) ) ;
#434 = ORIENTED_EDGE ( 'NONE', *, *, #114, .T. ) ;
#435 = DIRECTION ( 'NONE',  ( -0.000000000000000000, 0.000000000000000000, 1.000000000000000000 ) ) ;
#436 = ADVANCED_FACE ( 'NONE', ( #139 ), #964, .F. ) ;
#437 = VERTEX_POINT ( 'NONE', #684 ) ;
#438 = CARTESIAN_POINT ( 'NONE',  ( -9.184615384615387512, -0.6461538461538466338, 3.000000000000000000 ) ) ;
#439 = ORIENTED_EDGE ( 'NONE', *, *, #793, .T. ) ;
#440 = LINE ( 'NONE', #985, #412 ) ;
#441 = CARTESIAN_POINT ( 'NONE',  ( 9.165384615384613909, -3.646153846153845191, 3.000000000000000000 ) ) ;
#442 = EDGE_CURVE ( 'NONE', #981, #332, #66, .T. ) ;
#443 = ORIENTED_EDGE ( 'NONE', *, *, #321, .F. ) ;
#444 = CIRCLE ( 'NONE', #90, 1.650000000000001243 ) ;
#445 = LINE ( 'NONE', #1, #749 ) ;
#446 = ORIENTED_EDGE ( 'NONE', *, *, #829, .F. ) ;
#447 = CARTESIAN_POINT ( 'NONE',  ( 2.465384615384614175, -3.646153846153845191, 3.000000000000000000 ) ) ;
#448 = PLANE ( 'NONE',  #1122 ) ;
#449 = ORIENTED_EDGE ( 'NONE', *, *, #231, .F. ) ;
#450 = CARTESIAN_POINT ( 'NONE',  ( 10.81538461538461426, -3.646153846153845191, 3.000000000000000000 ) ) ;
#451 = EDGE_LOOP ( 'NONE', ( #874, #434, #1128, #560, #857, #235, #256, #723, #345, #1059 ) ) ;
#452 = FACE_OUTER_BOUND ( 'NONE', #836, .T. ) ;
#453 = DIRECTION ( 'NONE',  ( 0.000000000000000000, -1.000000000000000000, 0.000000000000000000 ) ) ;
#454 = EDGE_LOOP ( 'NONE', ( #446, #1090, #168, #818, #1139, #690 ) ) ;
#455 = CARTESIAN_POINT ( 'NONE',  ( 20.81538461538460894, 4.353846153846153477, 0.000000000000000000 ) ) ;
#456 = EDGE_CURVE ( 'NONE', #532, #332, #245, .T. ) ;
#457 = ORIENTED_EDGE ( 'NONE', *, *, #641, .F. ) ;
#458 = DIRECTION ( 'NONE',  ( 1.000000000000000000, 0.000000000000000000, 0.000000000000000000 ) ) ;
#459 = AXIS2_PLACEMENT_3D ( 'NONE', #668, #769, #1130 ) ;
#460 = AXIS2_PLACEMENT_3D ( 'NONE', #501, #864, #55 ) ;
#461 = DIRECTION ( 'NONE',  ( -1.000000000000000000, 0.000000000000000000, 0.000000000000000000 ) ) ;
#462 = ORIENTED_EDGE ( 'NONE', *, *, #699, .T. ) ;
#463 = AXIS2_PLACEMENT_3D ( 'NONE', #430, #689, #513 ) ;
#464 = ORIENTED_EDGE ( 'NONE', *, *, #56, .F. ) ;
#465 = CARTESIAN_POINT ( 'NONE',  ( -15.78461538461538360, -36.04615384615384244, 7.000000000000000000 ) ) ;
#466 = ORIENTED_EDGE ( 'NONE', *, *, #361, .F. ) ;
#467 = LINE ( 'NONE', #570, #163 ) ;
#468 = VERTEX_POINT ( 'NONE', #1058 ) ;
#469 = DIRECTION ( 'NONE',  ( 1.000000000000000000, 0.000000000000000000, 0.000000000000000000 ) ) ;
#470 = EDGE_CURVE ( 'NONE', #183, #786, #239, .T. ) ;
#471 = DIRECTION ( 'NONE',  ( 1.000000000000000000, 0.000000000000000000, 0.000000000000000000 ) ) ;
#472 = EDGE_CURVE ( 'NONE', #958, #288, #234, .T. ) ;
#473 = VERTEX_POINT ( 'NONE', #52 ) ;
#474 = AXIS2_PLACEMENT_3D ( 'NONE', #1016, #293, #202 ) ;
#475 = FACE_BOUND ( 'NONE', #977, .T. ) ;
#476 = EDGE_LOOP ( 'NONE', ( #688, #280, #407, #719 ) ) ;
#477 = DIRECTION ( 'NONE',  ( 1.000000000000000000, 0.000000000000000000, 0.000000000000000000 ) ) ;
#478 = DIRECTION ( 'NONE',  ( -0.000000000000000000, -0.000000000000000000, 1.000000000000000000 ) ) ;
#479 = AXIS2_PLACEMENT_3D ( 'NONE', #1053, #959, #72 ) ;
#480 = LINE ( 'NONE', #840, #819 ) ;
#481 = EDGE_CURVE ( 'NONE', #342, #939, #343, .T. ) ;
#482 = CARTESIAN_POINT ( 'NONE',  ( -4.184615384615388400, 4.353846153846153477, 0.000000000000000000 ) ) ;
#483 = LINE ( 'NONE', #320, #1014 ) ;
#484 = DIRECTION ( 'NONE',  ( 1.000000000000000000, 0.000000000000000000, 0.000000000000000000 ) ) ;
#485 = VECTOR ( 'NONE', #215, 1000.000000000000000 ) ;
#486 = DIRECTION ( 'NONE',  ( 0.000000000000000000, -1.000000000000000000, 0.000000000000000000 ) ) ;
#487 = DIRECTION ( 'NONE',  ( 1.000000000000000000, 0.000000000000000000, 0.000000000000000000 ) ) ;
#488 = EDGE_CURVE ( 'NONE', #68, #782, #568, .T. ) ;
#489 = CARTESIAN_POINT ( 'NONE',  ( -15.03461538461538005, -17.24615384615384528, 7.000000000000000000 ) ) ;
#490 = CARTESIAN_POINT ( 'NONE',  ( -15.78461538461538360, -36.04615384615384244, 12.00000000000000000 ) ) ;
#491 = DIRECTION ( 'NONE',  ( -0.000000000000000000, -1.000000000000000000, -0.000000000000000000 ) ) ;
#492 = FACE_OUTER_BOUND ( 'NONE', #1111, .T. ) ;
#493 = EDGE_CURVE ( 'NONE', #975, #914, #725, .T. ) ;
#494 = CARTESIAN_POINT ( 'NONE',  ( -15.78461538461538360, -17.24615384615384528, 7.000000000000000000 ) ) ;
#495 = CARTESIAN_POINT ( 'NONE',  ( -9.184615384615387512, 4.353846153846153477, 3.000000000000000000 ) ) ;
#496 = ORIENTED_EDGE ( 'NONE', *, *, #488, .F. ) ;
#497 = DIRECTION ( 'NONE',  ( 1.000000000000000000, 0.000000000000000000, 0.000000000000000000 ) ) ;
#498 = ORIENTED_EDGE ( 'NONE', *, *, #221, .F. ) ;
#499 = FACE_BOUND ( 'NONE', #286, .T. ) ;
#500 = VECTOR ( 'NONE', #244, 1000.000000000000000 ) ;
#501 = CARTESIAN_POINT ( 'NONE',  ( 0.000000000000000000, 0.000000000000000000, 9.000000000000001776 ) ) ;
#502 = AXIS2_PLACEMENT_3D ( 'NONE', #577, #761, #745 ) ;
#503 = ORIENTED_EDGE ( 'NONE', *, *, #456, .T. ) ;
#504 = FACE_OUTER_BOUND ( 'NONE', #57, .T. ) ;
#505 = DIRECTION ( 'NONE',  ( 0.000000000000000000, 0.000000000000000000, -1.000000000000000000 ) ) ;
#506 = DIRECTION ( 'NONE',  ( -0.000000000000000000, -0.000000000000000000, 1.000000000000000000 ) ) ;
#507 = EDGE_CURVE ( 'NONE', #437, #370, #166, .T. ) ;
#508 = VERTEX_POINT ( 'NONE', #872 ) ;
#509 = DIRECTION ( 'NONE',  ( -0.000000000000000000, 0.000000000000000000, 1.000000000000000000 ) ) ;
#510 = DIRECTION ( 'NONE',  ( -1.000000000000000000, 0.000000000000000000, 0.000000000000000000 ) ) ;
#511 = ORIENTED_EDGE ( 'NONE', *, *, #1028, .F. ) ;
#512 = AXIS2_PLACEMENT_3D ( 'NONE', #932, #753, #471 ) ;
#513 = DIRECTION ( 'NONE',  ( 1.000000000000000000, 0.000000000000000000, 0.000000000000000000 ) ) ;
#514 = EDGE_LOOP ( 'NONE', ( #708, #131, #80, #373 ) ) ;
#515 = CARTESIAN_POINT ( 'NONE',  ( 29.81538461538461249, -38.64615384615385096, 9.000000000000001776 ) ) ;
#516 = LINE ( 'NONE', #693, #710 ) ;
#517 = ORIENTED_EDGE ( 'NONE', *, *, #319, .F. ) ;
#518 = FACE_OUTER_BOUND ( 'NONE', #93, .T. ) ;
#519 = EDGE_CURVE ( 'NONE', #674, #798, #953, .T. ) ;
#520 = ORIENTED_EDGE ( 'NONE', *, *, #793, .F. ) ;
#521 = DIRECTION ( 'NONE',  ( -1.982541115402065110E-16, 1.000000000000000000, -0.000000000000000000 ) ) ;
#522 = FACE_BOUND ( 'NONE', #825, .T. ) ;
#523 = VERTEX_POINT ( 'NONE', #1134 ) ;
#524 = DIRECTION ( 'NONE',  ( -0.000000000000000000, -0.000000000000000000, -1.000000000000000000 ) ) ;
#525 = ORIENTED_EDGE ( 'NONE', *, *, #944, .F. ) ;
#526 = CARTESIAN_POINT ( 'NONE',  ( 18.81538461538461249, -15.64615384615385096, 9.000000000000001776 ) ) ;
#527 = EDGE_CURVE ( 'NONE', #1095, #700, #328, .T. ) ;
#528 = VECTOR ( 'NONE', #1101, 1000.000000000000000 ) ;
#529 = PLANE ( 'NONE',  #781 ) ;
#530 = ORIENTED_EDGE ( 'NONE', *, *, #1160, .F. ) ;
#531 = CARTESIAN_POINT ( 'NONE',  ( -15.78461538461538360, -36.04615384615384244, 9.000000000000001776 ) ) ;
#532 = VERTEX_POINT ( 'NONE', #159 ) ;
#533 = DIRECTION ( 'NONE',  ( 1.000000000000000000, 0.000000000000000000, 0.000000000000000000 ) ) ;
#534 = CARTESIAN_POINT ( 'NONE',  ( -9.184615384615385736, -30.64615384615385096, 0.000000000000000000 ) ) ;
#535 = VERTEX_POINT ( 'NONE', #515 ) ;
#536 = CIRCLE ( 'NONE', #206, 0.7500000000000006661 ) ;
#537 = CARTESIAN_POINT ( 'NONE',  ( -7.184615384615388400, -15.64615384615385096, 3.000000000000000000 ) ) ;
#538 = AXIS2_PLACEMENT_3D ( 'NONE', #172, #1093, #811 ) ;
#539 = AXIS2_PLACEMENT_3D ( 'NONE', #598, #74, #339 ) ;
#540 = ORIENTED_EDGE ( 'NONE', *, *, #493, .T. ) ;
#541 = DIRECTION ( 'NONE',  ( -0.000000000000000000, -0.000000000000000000, 1.000000000000000000 ) ) ;
#542 = ORIENTED_EDGE ( 'NONE', *, *, #470, .F. ) ;
#543 = LINE ( 'NONE', #433, #1051 ) ;
#544 = ORIENTED_EDGE ( 'NONE', *, *, #6, .T. ) ;
#545 = CARTESIAN_POINT ( 'NONE',  ( 26.66538461538460325, -17.24615384615383817, 9.000000000000001776 ) ) ;
#546 = ORIENTED_EDGE ( 'NONE', *, *, #589, .T. ) ;
#547 = CARTESIAN_POINT ( 'NONE',  ( 27.41538461538461391, -36.04615384615384244, 7.000000000000000000 ) ) ;
#548 = ORIENTED_EDGE ( 'NONE', *, *, #174, .T. ) ;
#549 = DIRECTION ( 'NONE',  ( 0.000000000000000000, -0.000000000000000000, 1.000000000000000000 ) ) ;
#550 = PRODUCT ( '\X2\8d8558f06ce2652f67b6\X0\', '\X2\8d8558f06ce2652f67b6\X0\', '', ( #554 ) ) ;
#551 = AXIS2_PLACEMENT_3D ( 'NONE', #1027, #569, #42 ) ;
#552 = CIRCLE ( 'NONE', #104, 1.650000000000000355 ) ;
#553 = ORIENTED_EDGE ( 'NONE', *, *, #20, .T. ) ;
#554 = PRODUCT_CONTEXT ( 'NONE', #54, 'mechanical' ) ;
#555 = ORIENTED_EDGE ( 'NONE', *, *, #587, .F. ) ;
#556 = EDGE_CURVE ( 'NONE', #288, #1006, #1046, .T. ) ;
#557 = AXIS2_PLACEMENT_3D ( 'NONE', #638, #1007, #549 ) ;
#558 = CARTESIAN_POINT ( 'NONE',  ( -4.184615384615388400, -10.64615384615385096, 3.000000000000000000 ) ) ;
#559 = ORIENTED_EDGE ( 'NONE', *, *, #807, .T. ) ;
#560 = ORIENTED_EDGE ( 'NONE', *, *, #216, .F. ) ;
#561 = DIRECTION ( 'NONE',  ( -1.000000000000000000, 0.000000000000000000, 0.000000000000000000 ) ) ;
#562 = EDGE_CURVE ( 'NONE', #5, #967, #1145, .T. ) ;
#563 = DIRECTION ( 'NONE',  ( 1.000000000000000000, 0.000000000000000000, 0.000000000000000000 ) ) ;
#564 = CARTESIAN_POINT ( 'NONE',  ( 26.66538461538461036, -36.04615384615384244, 12.00000000000000000 ) ) ;
#565 = DIRECTION ( 'NONE',  ( -0.000000000000000000, 1.000000000000000000, -0.000000000000000000 ) ) ;
#566 = LINE ( 'NONE', #937, #242 ) ;
#567 = PLANE ( 'NONE',  #278 ) ;
#568 = CIRCLE ( 'NONE', #661, 0.7500000000000006661 ) ;
#569 = DIRECTION ( 'NONE',  ( -0.000000000000000000, -0.000000000000000000, -1.000000000000000000 ) ) ;
#570 = CARTESIAN_POINT ( 'NONE',  ( 29.81538461538461249, -14.64615384615385096, 12.00000000000000000 ) ) ;
#571 = CARTESIAN_POINT ( 'NONE',  ( -9.184615384615387512, -0.6461538461538466338, -3.000000000000000000 ) ) ;
#572 = CIRCLE ( 'NONE', #1034, 0.7500000000000024425 ) ;
#573 = DIRECTION ( 'NONE',  ( 0.000000000000000000, -0.000000000000000000, -1.000000000000000000 ) ) ;
#574 = AXIS2_PLACEMENT_3D ( 'NONE', #1087, #619, #89 ) ;
#575 = VERTEX_POINT ( 'NONE', #879 ) ;
#576 = EDGE_CURVE ( 'NONE', #646, #989, #752, .T. ) ;
#577 = CARTESIAN_POINT ( 'NONE',  ( 0.8153846153846129319, -3.646153846153845191, 3.000000000000000000 ) ) ;
#578 = CARTESIAN_POINT ( 'NONE',  ( -18.18461538461538751, -38.64615384615385096, 12.00000000000000000 ) ) ;
#579 = EDGE_CURVE ( 'NONE', #594, #958, #270, .T. ) ;
#580 = DIRECTION ( 'NONE',  ( 0.000000000000000000, -0.000000000000000000, -1.000000000000000000 ) ) ;
#581 = VERTEX_POINT ( 'NONE', #263 ) ;
#582 = LINE ( 'NONE', #155, #1165 ) ;
#583 = EDGE_LOOP ( 'NONE', ( #179, #265, #546, #233 ) ) ;
#584 = DIRECTION ( 'NONE',  ( -0.000000000000000000, -0.000000000000000000, 1.000000000000000000 ) ) ;
#585 = CARTESIAN_POINT ( 'NONE',  ( -4.184615384615388400, -10.64615384615385096, -3.000000000000000000 ) ) ;
#586 = ORIENTED_EDGE ( 'NONE', *, *, #807, .F. ) ;
#587 = EDGE_CURVE ( 'NONE', #914, #86, #15, .T. ) ;
#588 = PLANE ( 'NONE',  #979 ) ;
#589 = EDGE_CURVE ( 'NONE', #908, #1097, #713, .T. ) ;
#590 = CARTESIAN_POINT ( 'NONE',  ( 20.81538461538460894, 4.353846153846153477, 3.000000000000000000 ) ) ;
#591 = AXIS2_PLACEMENT_3D ( 'NONE', #145, #509, #669 ) ;
#592 = CARTESIAN_POINT ( 'NONE',  ( -9.184615384615385736, -30.64615384615385096, 0.000000000000000000 ) ) ;
#593 = VECTOR ( 'NONE', #584, 1000.000000000000000 ) ;
#594 = VERTEX_POINT ( 'NONE', #705 ) ;
#595 = LINE ( 'NONE', #606, #766 ) ;
#596 = EDGE_LOOP ( 'NONE', ( #673, #613, #96, #555 ) ) ;
#597 = CARTESIAN_POINT ( 'NONE',  ( 27.41538461538460680, -17.24615384615383817, 12.00000000000000000 ) ) ;
#598 = CARTESIAN_POINT ( 'NONE',  ( -15.78461538461538360, -17.24615384615384528, 12.00000000000000000 ) ) ;
#599 = ORIENTED_EDGE ( 'NONE', *, *, #741, .F. ) ;
#600 = FACE_BOUND ( 'NONE', #161, .T. ) ;
#601 = DIRECTION ( 'NONE',  ( -0.000000000000000000, 0.000000000000000000, 1.000000000000000000 ) ) ;
#602 = CARTESIAN_POINT ( 'NONE',  ( -9.184615384615387512, 4.353846153846153477, 0.000000000000000000 ) ) ;
#603 = ORIENTED_EDGE ( 'NONE', *, *, #250, .F. ) ;
#604 = EDGE_CURVE ( 'NONE', #878, #732, #709, .T. ) ;
#605 = AXIS2_PLACEMENT_3D ( 'NONE', #620, #913, #461 ) ;
#606 = CARTESIAN_POINT ( 'NONE',  ( 15.81538461538461249, -30.64615384615385096, 3.000000000000000000 ) ) ;
#607 = DIRECTION ( 'NONE',  ( 1.000000000000000000, 0.000000000000000000, 0.000000000000000000 ) ) ;
#608 = FACE_BOUND ( 'NONE', #870, .T. ) ;
#609 = VECTOR ( 'NONE', #889, 1000.000000000000000 ) ;
#610 = VERTEX_POINT ( 'NONE', #919 ) ;
#611 = ADVANCED_FACE ( 'NONE', ( #614 ), #83, .F. ) ;
#612 = CARTESIAN_POINT ( 'NONE',  ( 20.81538461538461604, -30.64615384615385096, 3.000000000000000000 ) ) ;
#613 = ORIENTED_EDGE ( 'NONE', *, *, #1052, .T. ) ;
#614 = FACE_OUTER_BOUND ( 'NONE', #991, .T. ) ;
#615 = PLANE ( 'NONE',  #460 ) ;
#616 = EDGE_LOOP ( 'NONE', ( #363, #987, #349, #141 ) ) ;
#617 = LINE ( 'NONE', #13, #392 ) ;
#618 = ORIENTED_EDGE ( 'NONE', *, *, #676, .T. ) ;
#619 = DIRECTION ( 'NONE',  ( 0.000000000000000000, 0.000000000000000000, 1.000000000000000000 ) ) ;
#620 = CARTESIAN_POINT ( 'NONE',  ( 10.81538461538461426, -3.646153846153845191, 3.000000000000000000 ) ) ;
#621 = ORIENTED_EDGE ( 'NONE', *, *, #472, .F. ) ;
#622 = DIRECTION ( 'NONE',  ( -0.000000000000000000, -1.000000000000000000, -0.000000000000000000 ) ) ;
#623 = VECTOR ( 'NONE', #789, 1000.000000000000000 ) ;
#624 = ADVANCED_FACE ( 'NONE', ( #1080 ), #728, .F. ) ;
#625 = VERTEX_POINT ( 'NONE', #1076 ) ;
#626 = LINE ( 'NONE', #990, #902 ) ;
#627 = LINE ( 'NONE', #84, #28 ) ;
#628 = ORIENTED_EDGE ( 'NONE', *, *, #892, .T. ) ;
#629 = DIRECTION ( 'NONE',  ( -0.000000000000000000, -0.000000000000000000, 1.000000000000000000 ) ) ;
#630 = EDGE_CURVE ( 'NONE', #989, #782, #197, .T. ) ;
#631 = AXIS2_PLACEMENT_3D ( 'NONE', #97, #802, #891 ) ;
#632 = VERTEX_POINT ( 'NONE', #186 ) ;
#633 = DIRECTION ( 'NONE',  ( 0.000000000000000000, 0.000000000000000000, -1.000000000000000000 ) ) ;
#634 = ORIENTED_EDGE ( 'NONE', *, *, #847, .F. ) ;
#635 = EDGE_CURVE ( 'NONE', #196, #116, #626, .T. ) ;
#636 = DIRECTION ( 'NONE',  ( 0.000000000000000000, -0.000000000000000000, 1.000000000000000000 ) ) ;
#637 = ORIENTED_EDGE ( 'NONE', *, *, #699, .F. ) ;
#638 = CARTESIAN_POINT ( 'NONE',  ( -9.184615384615385736, -30.64615384615385096, 3.000000000000000000 ) ) ;
#639 = CARTESIAN_POINT ( 'NONE',  ( -9.184615384615385736, -30.64615384615385096, 3.000000000000000000 ) ) ;
#640 = ORIENTED_EDGE ( 'NONE', *, *, #325, .F. ) ;
#641 = EDGE_CURVE ( 'NONE', #798, #322, #336, .T. ) ;
#642 = DIRECTION ( 'NONE',  ( 1.000000000000000000, 0.000000000000000000, 0.000000000000000000 ) ) ;
#643 = ORIENTED_EDGE ( 'NONE', *, *, #143, .F. ) ;
#644 = FILL_AREA_STYLE ('',( #205 ) ) ;
#645 = DIRECTION ( 'NONE',  ( 1.000000000000000000, 0.000000000000000000, 0.000000000000000000 ) ) ;
#646 = VERTEX_POINT ( 'NONE', #545 ) ;
#647 = EDGE_CURVE ( 'NONE', #952, #135, #283, .T. ) ;
#648 = AXIS2_PLACEMENT_3D ( 'NONE', #1044, #237, #731 ) ;
#649 = ORIENTED_EDGE ( 'NONE', *, *, #1033, .F. ) ;
#650 = CARTESIAN_POINT ( 'NONE',  ( -0.000000000000000000, -10.64615384615385096, 0.000000000000000000 ) ) ;
#651 =( GEOMETRIC_REPRESENTATION_CONTEXT ( 3 ) GLOBAL_UNCERTAINTY_ASSIGNED_CONTEXT ( ( #875 ) ) GLOBAL_UNIT_ASSIGNED_CONTEXT ( ( #315, #833, #756 ) ) REPRESENTATION_CONTEXT ( 'NONE', 'WORKASPACE' ) );
#652 = CARTESIAN_POINT ( 'NONE',  ( -4.184615384615388400, -15.64615384615385096, 9.000000000000001776 ) ) ;
#653 = ORIENTED_EDGE ( 'NONE', *, *, #1004, .F. ) ;
#654 = CARTESIAN_POINT ( 'NONE',  ( 29.81538461538461249, -14.64615384615385096, 9.000000000000001776 ) ) ;
#655 = ORIENTED_EDGE ( 'NONE', *, *, #734, .T. ) ;
#656 = DIRECTION ( 'NONE',  ( -1.000000000000000000, 0.000000000000000000, 0.000000000000000000 ) ) ;
#657 = LINE ( 'NONE', #311, #386 ) ;
#658 = DIRECTION ( 'NONE',  ( 0.000000000000000000, -0.000000000000000000, -1.000000000000000000 ) ) ;
#659 = CARTESIAN_POINT ( 'NONE',  ( 12.46538461538461462, -3.646153846153845191, 3.000000000000000000 ) ) ;
#660 = DIRECTION ( 'NONE',  ( -0.000000000000000000, -0.000000000000000000, -1.000000000000000000 ) ) ;
#661 = AXIS2_PLACEMENT_3D ( 'NONE', #597, #1041, #510 ) ;
#662 = EDGE_CURVE ( 'NONE', #1125, #437, #440, .T. ) ;
#663 = FACE_OUTER_BOUND ( 'NONE', #105, .T. ) ;
#664 = DIRECTION ( 'NONE',  ( -0.000000000000000000, -0.000000000000000000, 1.000000000000000000 ) ) ;
#665 = FACE_OUTER_BOUND ( 'NONE', #417, .T. ) ;
#666 = AXIS2_PLACEMENT_3D ( 'NONE', #547, #845, #487 ) ;
#667 = DIRECTION ( 'NONE',  ( 0.000000000000000000, 1.000000000000000000, 0.000000000000000000 ) ) ;
#668 = CARTESIAN_POINT ( 'NONE',  ( -15.78461538461538360, -36.04615384615384244, 12.00000000000000000 ) ) ;
#669 = DIRECTION ( 'NONE',  ( 1.000000000000000000, 0.000000000000000000, 0.000000000000000000 ) ) ;
#670 = ADVANCED_FACE ( 'NONE', ( #452 ), #898, .F. ) ;
#671 = ORIENTED_EDGE ( 'NONE', *, *, #1073, .T. ) ;
#672 = CARTESIAN_POINT ( 'NONE',  ( 15.81538461538461249, -10.64615384615385096, -3.000000000000000000 ) ) ;
#673 = ORIENTED_EDGE ( 'NONE', *, *, #493, .F. ) ;
#674 = VERTEX_POINT ( 'NONE', #447 ) ;
#675 = VECTOR ( 'NONE', #35, 1000.000000000000000 ) ;
#676 = EDGE_CURVE ( 'NONE', #1068, #996, #3, .T. ) ;
#677 = CYLINDRICAL_SURFACE ( 'NONE', #648, 1.650000000000001021 ) ;
#678 = CARTESIAN_POINT ( 'NONE',  ( -18.18461538461539106, -14.64615384615385096, 9.000000000000001776 ) ) ;
#679 = AXIS2_PLACEMENT_3D ( 'NONE', #98, #453, #573 ) ;
#680 = ORIENTED_EDGE ( 'NONE', *, *, #1100, .T. ) ;
#681 = CARTESIAN_POINT ( 'NONE',  ( -0.8346153846153882006, -3.646153846153845191, 3.000000000000000000 ) ) ;
#682 = EDGE_CURVE ( 'NONE', #981, #918, #912, .T. ) ;
#683 = ORIENTED_EDGE ( 'NONE', *, *, #556, .T. ) ;
#684 = CARTESIAN_POINT ( 'NONE',  ( 15.81538461538461249, -10.64615384615385096, 0.000000000000000000 ) ) ;
#685 = AXIS2_PLACEMENT_3D ( 'NONE', #76, #1155, #703 ) ;
#686 = ADVANCED_FACE ( 'NONE', ( #733 ), #289, .F. ) ;
#687 = DIRECTION ( 'NONE',  ( 1.000000000000000000, 1.445602896647339163E-16, -0.000000000000000000 ) ) ;
#688 = ORIENTED_EDGE ( 'NONE', *, *, #576, .F. ) ;
#689 = DIRECTION ( 'NONE',  ( -0.000000000000000000, -0.000000000000000000, 1.000000000000000000 ) ) ;
#690 = ORIENTED_EDGE ( 'NONE', *, *, #662, .F. ) ;
#691 = CARTESIAN_POINT ( 'NONE',  ( 20.81538461538460894, -0.6461538461538466338, -3.000000000000000000 ) ) ;
#692 = EDGE_CURVE ( 'NONE', #967, #377, #828, .T. ) ;
#693 = CARTESIAN_POINT ( 'NONE',  ( 29.81538461538461249, -14.64615384615385096, 9.000000000000001776 ) ) ;
#694 = EDGE_LOOP ( 'NONE', ( #1161, #634, #603, #767 ) ) ;
#695 = LINE ( 'NONE', #877, #805 ) ;
#696 = EDGE_LOOP ( 'NONE', ( #553, #99, #282, #621, #525, #351 ) ) ;
#697 = DIRECTION ( 'NONE',  ( -1.000000000000000000, 0.000000000000000000, 0.000000000000000000 ) ) ;
#698 = DIRECTION ( 'NONE',  ( 1.000000000000000000, 0.000000000000000000, 0.000000000000000000 ) ) ;
#699 = EDGE_CURVE ( 'NONE', #473, #535, #129, .T. ) ;
#700 = VERTEX_POINT ( 'NONE', #222 ) ;
#701 = AXIS2_PLACEMENT_3D ( 'NONE', #1037, #324, #754 ) ;
#702 = AXIS2_PLACEMENT_3D ( 'NONE', #25, #1036, #848 ) ;
#703 = DIRECTION ( 'NONE',  ( 0.000000000000000000, -0.000000000000000000, 1.000000000000000000 ) ) ;
#704 = ORIENTED_EDGE ( 'NONE', *, *, #56, .T. ) ;
#705 = CARTESIAN_POINT ( 'NONE',  ( -7.184615384615388400, -30.64615384615385096, 9.000000000000001776 ) ) ;
#706 = DIRECTION ( 'NONE',  ( -0.000000000000000000, 0.000000000000000000, 1.000000000000000000 ) ) ;
#707 = CIRCLE ( 'NONE', #591, 0.7500000000000024425 ) ;
#708 = ORIENTED_EDGE ( 'NONE', *, *, #1117, .T. ) ;
#709 = CIRCLE ( 'NONE', #574, 1.650000000000000355 ) ;
#710 = VECTOR ( 'NONE', #67, 1000.000000000000000 ) ;
#711 = DIRECTION ( 'NONE',  ( -0.000000000000000000, -0.000000000000000000, -1.000000000000000000 ) ) ;
#712 = EDGE_LOOP ( 'NONE', ( #1150, #12 ) ) ;
#713 = LINE ( 'NONE', #364, #355 ) ;
#714 = DIRECTION ( 'NONE',  ( -0.000000000000000000, -0.000000000000000000, -1.000000000000000000 ) ) ;
#715 = ORIENTED_EDGE ( 'NONE', *, *, #1004, .T. ) ;
#716 = EDGE_CURVE ( 'NONE', #897, #1068, #1116, .T. ) ;
#717 = PLANE ( 'NONE',  #685 ) ;
#718 = EDGE_CURVE ( 'NONE', #952, #581, #926, .T. ) ;
#719 = ORIENTED_EDGE ( 'NONE', *, *, #630, .F. ) ;
#720 = DIRECTION ( 'NONE',  ( -0.000000000000000000, -0.000000000000000000, -1.000000000000000000 ) ) ;
#721 = DIRECTION ( 'NONE',  ( 1.982541115402065110E-16, -1.000000000000000000, 0.000000000000000000 ) ) ;
#722 = ADVANCED_FACE ( 'NONE', ( #384 ), #1025, .F. ) ;
#723 = ORIENTED_EDGE ( 'NONE', *, *, #138, .F. ) ;
#724 = FACE_OUTER_BOUND ( 'NONE', #905, .T. ) ;
#725 = CIRCLE ( 'NONE', #1107, 0.7500000000000006661 ) ;
#726 = MANIFOLD_SOLID_BREP ( '\X2\52079664\X0\-\X2\62c94f38\X0\2', #1121 ) ;
#727 = EDGE_LOOP ( 'NONE', ( #901, #18, #586, #683 ) ) ;
#728 = CYLINDRICAL_SURFACE ( 'NONE', #842, 0.7500000000000006661 ) ;
#729 = FACE_OUTER_BOUND ( 'NONE', #356, .T. ) ;
#730 = EDGE_LOOP ( 'NONE', ( #75, #671 ) ) ;
#731 = DIRECTION ( 'NONE',  ( -1.000000000000000000, 0.000000000000000000, 0.000000000000000000 ) ) ;
#732 = VERTEX_POINT ( 'NONE', #113 ) ;
#733 = FACE_OUTER_BOUND ( 'NONE', #1079, .T. ) ;
#734 = EDGE_CURVE ( 'NONE', #322, #798, #882, .T. ) ;
#735 = ORIENTED_EDGE ( 'NONE', *, *, #231, .T. ) ;
#736 = DIRECTION ( 'NONE',  ( 1.445602896647339163E-16, -1.000000000000000000, 0.000000000000000000 ) ) ;
#737 = ORIENTED_EDGE ( 'NONE', *, *, #579, .T. ) ;
#738 = DIRECTION ( 'NONE',  ( -0.000000000000000000, -0.000000000000000000, 1.000000000000000000 ) ) ;
#739 = AXIS2_PLACEMENT_3D ( 'NONE', #1029, #664, #220 ) ;
#740 = ORIENTED_EDGE ( 'NONE', *, *, #1017, .T. ) ;
#741 = EDGE_CURVE ( 'NONE', #844, #674, #261, .T. ) ;
#742 = LINE ( 'NONE', #123, #528 ) ;
#743 = ORIENTED_EDGE ( 'NONE', *, *, #456, .F. ) ;
#744 = CIRCLE ( 'NONE', #43, 0.7500000000000024425 ) ;
#745 = DIRECTION ( 'NONE',  ( 1.000000000000000000, 0.000000000000000000, 0.000000000000000000 ) ) ;
#746 = LINE ( 'NONE', #1104, #855 ) ;
#747 = CARTESIAN_POINT ( 'NONE',  ( 15.81538461538460894, -0.6461538461538461897, 3.000000000000000000 ) ) ;
#748 = CARTESIAN_POINT ( 'NONE',  ( 0.000000000000000000, 0.000000000000000000, 0.000000000000000000 ) ) ;
#749 = VECTOR ( 'NONE', #100, 1000.000000000000000 ) ;
#750 = EDGE_LOOP ( 'NONE', ( #192, #1086 ) ) ;
#751 = CARTESIAN_POINT ( 'NONE',  ( -18.18461538461538751, -38.64615384615385096, 9.000000000000001776 ) ) ;
#752 = CIRCLE ( 'NONE', #243, 0.7500000000000006661 ) ;
#753 = DIRECTION ( 'NONE',  ( -0.000000000000000000, -0.000000000000000000, 1.000000000000000000 ) ) ;
#754 = DIRECTION ( 'NONE',  ( 1.000000000000000000, 0.000000000000000000, 0.000000000000000000 ) ) ;
#755 = ADVANCED_FACE ( 'NONE', ( #665 ), #227, .F. ) ;
#756 =( NAMED_UNIT ( * ) SI_UNIT ( $, .STERADIAN. ) SOLID_ANGLE_UNIT ( ) );
#757 = LINE ( 'NONE', #578, #65 ) ;
#758 = DIRECTION ( 'NONE',  ( 0.000000000000000000, -0.000000000000000000, -1.000000000000000000 ) ) ;
#759 = EDGE_CURVE ( 'NONE', #437, #885, #211, .T. ) ;
#760 = CYLINDRICAL_SURFACE ( 'NONE', #666, 0.7500000000000006661 ) ;
#761 = DIRECTION ( 'NONE',  ( 0.000000000000000000, 0.000000000000000000, 1.000000000000000000 ) ) ;
#762 = PLANE ( 'NONE',  #702 ) ;
#763 = VECTOR ( 'NONE', #37, 1000.000000000000000 ) ;
#764 = FACE_OUTER_BOUND ( 'NONE', #694, .T. ) ;
#765 = FACE_OUTER_BOUND ( 'NONE', #269, .T. ) ;
#766 = VECTOR ( 'NONE', #341, 1000.000000000000000 ) ;
#767 = ORIENTED_EDGE ( 'NONE', *, *, #109, .T. ) ;
#768 = DIRECTION ( 'NONE',  ( -0.000000000000000000, -1.000000000000000000, -0.000000000000000000 ) ) ;
#769 = DIRECTION ( 'NONE',  ( 0.000000000000000000, 0.000000000000000000, 1.000000000000000000 ) ) ;
#770 = EDGE_CURVE ( 'NONE', #782, #68, #302, .T. ) ;
#771 = EDGE_LOOP ( 'NONE', ( #865, #943, #955, #439 ) ) ;
#772 = CARTESIAN_POINT ( 'NONE',  ( -4.184615384615388400, 4.353846153846153477, 3.000000000000000000 ) ) ;
#773 = ORIENTED_EDGE ( 'NONE', *, *, #1017, .F. ) ;
#774 = DIRECTION ( 'NONE',  ( 0.000000000000000000, 1.000000000000000000, 0.000000000000000000 ) ) ;
#775 = CARTESIAN_POINT ( 'NONE',  ( 15.81538461538460894, 4.353846153846154365, 3.000000000000000000 ) ) ;
#776 = ADVANCED_FACE ( 'NONE', ( #492 ), #19, .F. ) ;
#777 = ORIENTED_EDGE ( 'NONE', *, *, #635, .F. ) ;
#778 = DIRECTION ( 'NONE',  ( 1.000000000000000000, 0.000000000000000000, 0.000000000000000000 ) ) ;
#779 = CARTESIAN_POINT ( 'NONE',  ( -4.184615384615388400, -30.64615384615385096, 9.000000000000001776 ) ) ;
#780 = CARTESIAN_POINT ( 'NONE',  ( 18.81538461538461249, -15.64615384615385096, 3.000000000000000000 ) ) ;
#781 = AXIS2_PLACEMENT_3D ( 'NONE', #359, #10, #893 ) ;
#782 = VERTEX_POINT ( 'NONE', #837 ) ;
#783 = FACE_BOUND ( 'NONE', #1102, .T. ) ;
#784 = DIRECTION ( 'NONE',  ( -1.000000000000000000, -0.000000000000000000, -0.000000000000000000 ) ) ;
#785 = STYLED_ITEM ( 'NONE', ( #306 ), #726 ) ;
#786 = VERTEX_POINT ( 'NONE', #391 ) ;
#787 = DIRECTION ( 'NONE',  ( 0.000000000000000000, 1.000000000000000000, 0.000000000000000000 ) ) ;
#788 = ORIENTED_EDGE ( 'NONE', *, *, #741, .T. ) ;
#789 = DIRECTION ( 'NONE',  ( -0.000000000000000000, -0.000000000000000000, 1.000000000000000000 ) ) ;
#790 = EDGE_CURVE ( 'NONE', #208, #981, #566, .T. ) ;
#791 = CARTESIAN_POINT ( 'NONE',  ( 9.165384615384613909, -3.646153846153845191, 3.000000000000000000 ) ) ;
#792 = ORIENTED_EDGE ( 'NONE', *, *, #1117, .F. ) ;
#793 = EDGE_CURVE ( 'NONE', #610, #535, #483, .T. ) ;
#794 = LINE ( 'NONE', #455, #224 ) ;
#795 = ORIENTED_EDGE ( 'NONE', *, *, #604, .T. ) ;
#796 = DIRECTION ( 'NONE',  ( -0.000000000000000000, 0.000000000000000000, 1.000000000000000000 ) ) ;
#797 = LINE ( 'NONE', #602, #1147 ) ;
#798 = VERTEX_POINT ( 'NONE', #1060 ) ;
#799 = AXIS2_PLACEMENT_3D ( 'NONE', #411, #486, #758 ) ;
#800 = CARTESIAN_POINT ( 'NONE',  ( 10.81538461538461426, -3.646153846153845191, 3.000000000000000000 ) ) ;
#801 = ORIENTED_EDGE ( 'NONE', *, *, #863, .F. ) ;
#802 = DIRECTION ( 'NONE',  ( 0.000000000000000000, 0.000000000000000000, 1.000000000000000000 ) ) ;
#803 = DIRECTION ( 'NONE',  ( -1.000000000000000000, -0.000000000000000000, -0.000000000000000000 ) ) ;
#804 = EDGE_CURVE ( 'NONE', #914, #975, #859, .T. ) ;
#805 = VECTOR ( 'NONE', #1039, 1000.000000000000000 ) ;
#806 = ORIENTED_EDGE ( 'NONE', *, *, #876, .T. ) ;
#807 = EDGE_CURVE ( 'NONE', #288, #273, #1149, .T. ) ;
#808 = VECTOR ( 'NONE', #561, 1000.000000000000000 ) ;
#809 = CARTESIAN_POINT ( 'NONE',  ( 26.66538461538461036, -36.04615384615384244, 9.000000000000001776 ) ) ;
#810 = ORIENTED_EDGE ( 'NONE', *, *, #635, .T. ) ;
#811 = DIRECTION ( 'NONE',  ( 0.000000000000000000, 0.000000000000000000, -1.000000000000000000 ) ) ;
#812 = EDGE_CURVE ( 'NONE', #1006, #1003, #418, .T. ) ;
#813 = CARTESIAN_POINT ( 'NONE',  ( 20.81538461538460894, 4.353846153846153477, 3.000000000000000000 ) ) ;
#814 = VERTEX_POINT ( 'NONE', #337 ) ;
#815 = DIRECTION ( 'NONE',  ( 0.000000000000000000, -0.000000000000000000, 1.000000000000000000 ) ) ;
#816 = ORIENTED_EDGE ( 'NONE', *, *, #352, .T. ) ;
#817 = CARTESIAN_POINT ( 'NONE',  ( -9.184615384615387512, 4.353846153846153477, 3.000000000000000000 ) ) ;
#818 = ORIENTED_EDGE ( 'NONE', *, *, #863, .T. ) ;
#819 = VECTOR ( 'NONE', #32, 1000.000000000000000 ) ;
#820 = DIRECTION ( 'NONE',  ( -1.982541115402065110E-16, 1.000000000000000000, -0.000000000000000000 ) ) ;
#821 = VECTOR ( 'NONE', #838, 1000.000000000000000 ) ;
#822 = ORIENTED_EDGE ( 'NONE', *, *, #676, .F. ) ;
#823 = DIRECTION ( 'NONE',  ( -0.000000000000000000, -0.000000000000000000, 1.000000000000000000 ) ) ;
#824 = ADVANCED_FACE ( 'NONE', ( #765 ), #1057, .T. ) ;
#825 = EDGE_LOOP ( 'NONE', ( #737, #1084, #559, #816 ) ) ;
#826 = VECTOR ( 'NONE', #636, 1000.000000000000000 ) ;
#827 = ORIENTED_EDGE ( 'NONE', *, *, #162, .F. ) ;
#828 = LINE ( 'NONE', #489, #1015 ) ;
#829 = EDGE_CURVE ( 'NONE', #342, #1125, #248, .T. ) ;
#830 = VERTEX_POINT ( 'NONE', #64 ) ;
#831 = CARTESIAN_POINT ( 'NONE',  ( 15.81538461538461249, -30.64615384615385096, 0.000000000000000000 ) ) ;
#832 = ORIENTED_EDGE ( 'NONE', *, *, #965, .F. ) ;
#833 =( NAMED_UNIT ( * ) PLANE_ANGLE_UNIT ( ) SI_UNIT ( $, .RADIAN. ) );
#834 = CARTESIAN_POINT ( 'NONE',  ( -0.8346153846153882006, -3.646153846153845191, 0.000000000000000000 ) ) ;
#835 = LINE ( 'NONE', #312, #199 ) ;
#836 = EDGE_LOOP ( 'NONE', ( #241, #640, #1048, #1056 ) ) ;
#837 = CARTESIAN_POINT ( 'NONE',  ( 28.16538461538460680, -17.24615384615383817, 12.00000000000000000 ) ) ;
#838 = DIRECTION ( 'NONE',  ( -0.000000000000000000, -0.000000000000000000, -1.000000000000000000 ) ) ;
#839 = EDGE_CURVE ( 'NONE', #939, #952, #58, .T. ) ;
#840 = CARTESIAN_POINT ( 'NONE',  ( 29.81538461538461249, -14.64615384615385096, 12.00000000000000000 ) ) ;
#841 = CARTESIAN_POINT ( 'NONE',  ( -16.53461538461538538, -17.24615384615384528, 7.000000000000000000 ) ) ;
#842 = AXIS2_PLACEMENT_3D ( 'NONE', #357, #276, #533 ) ;
#843 = DIRECTION ( 'NONE',  ( 1.000000000000000000, 0.000000000000000000, 0.000000000000000000 ) ) ;
#844 = VERTEX_POINT ( 'NONE', #681 ) ;
#845 = DIRECTION ( 'NONE',  ( -0.000000000000000000, -0.000000000000000000, 1.000000000000000000 ) ) ;
#846 = DIRECTION ( 'NONE',  ( 0.000000000000000000, 0.000000000000000000, 1.000000000000000000 ) ) ;
#847 = EDGE_CURVE ( 'NONE', #575, #700, #968, .T. ) ;
#848 = DIRECTION ( 'NONE',  ( 0.000000000000000000, 0.000000000000000000, 1.000000000000000000 ) ) ;
#849 = ORIENTED_EDGE ( 'NONE', *, *, #71, .F. ) ;
#850 = CARTESIAN_POINT ( 'NONE',  ( 28.16538461538461391, -36.04615384615384244, 9.000000000000001776 ) ) ;
#851 = ORIENTED_EDGE ( 'NONE', *, *, #481, .T. ) ;
#852 = EDGE_CURVE ( 'NONE', #967, #5, #707, .T. ) ;
#853 = AXIS2_PLACEMENT_3D ( 'NONE', #140, #394, #580 ) ;
#854 = CARTESIAN_POINT ( 'NONE',  ( 18.81538461538461249, -30.64615384615385096, 9.000000000000001776 ) ) ;
#855 = VECTOR ( 'NONE', #152, 1000.000000000000000 ) ;
#856 = DIRECTION ( 'NONE',  ( -1.000000000000000000, -0.000000000000000000, -0.000000000000000000 ) ) ;
#857 = ORIENTED_EDGE ( 'NONE', *, *, #662, .T. ) ;
#858 = CARTESIAN_POINT ( 'NONE',  ( 18.81538461538461249, -30.64615384615385096, 9.000000000000001776 ) ) ;
#859 = CIRCLE ( 'NONE', #142, 0.7500000000000006661 ) ;
#860 = ORIENTED_EDGE ( 'NONE', *, *, #759, .F. ) ;
#861 = CARTESIAN_POINT ( 'NONE',  ( 0.000000000000000000, 0.000000000000000000, 12.00000000000000000 ) ) ;
#862 = VECTOR ( 'NONE', #823, 1000.000000000000000 ) ;
#863 = EDGE_CURVE ( 'NONE', #632, #370, #595, .T. ) ;
#864 = DIRECTION ( 'NONE',  ( -0.000000000000000000, 0.000000000000000000, 1.000000000000000000 ) ) ;
#865 = ORIENTED_EDGE ( 'NONE', *, *, #162, .T. ) ;
#866 = DIRECTION ( 'NONE',  ( -1.000000000000000000, 0.000000000000000000, 0.000000000000000000 ) ) ;
#867 = ORIENTED_EDGE ( 'NONE', *, *, #182, .T. ) ;
#868 = CARTESIAN_POINT ( 'NONE',  ( 15.81538461538460894, 4.353846153846154365, -3.000000000000000000 ) ) ;
#869 = LINE ( 'NONE', #1153, #974 ) ;
#870 = EDGE_LOOP ( 'NONE', ( #360, #540 ) ) ;
#871 = DIRECTION ( 'NONE',  ( -0.000000000000000000, -0.000000000000000000, -1.000000000000000000 ) ) ;
#872 = CARTESIAN_POINT ( 'NONE',  ( -18.18461538461538751, -38.64615384615385096, 12.00000000000000000 ) ) ;
#873 = AXIS2_PLACEMENT_3D ( 'NONE', #334, #687, #1055 ) ;
#874 = ORIENTED_EDGE ( 'NONE', *, *, #174, .F. ) ;
#875 = UNCERTAINTY_MEASURE_WITH_UNIT (LENGTH_MEASURE( 1.000000000000000082E-05 ), #315, 'distance_accuracy_value', 'NONE');
#876 = EDGE_CURVE ( 'NONE', #468, #523, #695, .T. ) ;
#877 = CARTESIAN_POINT ( 'NONE',  ( -16.53461538461538538, -36.04615384615384244, 7.000000000000000000 ) ) ;
#878 = VERTEX_POINT ( 'NONE', #150 ) ;
#879 = CARTESIAN_POINT ( 'NONE',  ( -18.18461538461539106, -14.64615384615385096, 12.00000000000000000 ) ) ;
#880 = AXIS2_PLACEMENT_3D ( 'NONE', #354, #1074, #81 ) ;
#881 = CARTESIAN_POINT ( 'NONE',  ( -15.03461538461538005, -36.04615384615384244, 12.00000000000000000 ) ) ;
#882 = CIRCLE ( 'NONE', #1035, 1.650000000000001243 ) ;
#883 = ORIENTED_EDGE ( 'NONE', *, *, #307, .F. ) ;
#884 = DIRECTION ( 'NONE',  ( 1.000000000000000000, 0.000000000000000000, 0.000000000000000000 ) ) ;
#885 = VERTEX_POINT ( 'NONE', #70 ) ;
#886 = FACE_OUTER_BOUND ( 'NONE', #402, .T. ) ;
#887 = EDGE_CURVE ( 'NONE', #86, #88, #536, .T. ) ;
#888 = ORIENTED_EDGE ( 'NONE', *, *, #114, .F. ) ;
#889 = DIRECTION ( 'NONE',  ( -0.000000000000000000, -0.000000000000000000, 1.000000000000000000 ) ) ;
#890 = ORIENTED_EDGE ( 'NONE', *, *, #852, .F. ) ;
#891 = DIRECTION ( 'NONE',  ( 1.000000000000000000, 0.000000000000000000, 0.000000000000000000 ) ) ;
#892 = EDGE_CURVE ( 'NONE', #1135, #732, #582, .T. ) ;
#893 = DIRECTION ( 'NONE',  ( 0.000000000000000000, 0.000000000000000000, -1.000000000000000000 ) ) ;
#894 = VECTOR ( 'NONE', #1089, 1000.000000000000000 ) ;
#895 = ORIENTED_EDGE ( 'NONE', *, *, #647, .T. ) ;
#896 = DIRECTION ( 'NONE',  ( -0.000000000000000000, 0.000000000000000000, 1.000000000000000000 ) ) ;
#897 = VERTEX_POINT ( 'NONE', #1132 ) ;
#898 = PLANE ( 'NONE',  #538 ) ;
#899 = EDGE_CURVE ( 'NONE', #989, #646, #353, .T. ) ;
#900 = VECTOR ( 'NONE', #629, 1000.000000000000000 ) ;
#901 = ORIENTED_EDGE ( 'NONE', *, *, #812, .T. ) ;
#902 = VECTOR ( 'NONE', #180, 1000.000000000000000 ) ;
#903 = CIRCLE ( 'NONE', #539, 0.7500000000000024425 ) ;
#904 = FACE_OUTER_BOUND ( 'NONE', #367, .T. ) ;
#905 = EDGE_LOOP ( 'NONE', ( #462, #520, #390, #930 ) ) ;
#906 = DIRECTION ( 'NONE',  ( -0.000000000000000000, -0.000000000000000000, 1.000000000000000000 ) ) ;
#907 = CARTESIAN_POINT ( 'NONE',  ( -9.184615384615385736, -30.64615384615385096, 0.000000000000000000 ) ) ;
#908 = VERTEX_POINT ( 'NONE', #772 ) ;
#909 = ADVANCED_FACE ( 'NONE', ( #504, #783, #600 ), #588, .T. ) ;
#910 = CARTESIAN_POINT ( 'NONE',  ( -0.8346153846153882006, -3.646153846153845191, 3.000000000000000000 ) ) ;
#911 = ORIENTED_EDGE ( 'NONE', *, *, #812, .F. ) ;
#912 = LINE ( 'NONE', #102, #1071 ) ;
#913 = DIRECTION ( 'NONE',  ( -0.000000000000000000, -0.000000000000000000, -1.000000000000000000 ) ) ;
#914 = VERTEX_POINT ( 'NONE', #850 ) ;
#915 = CIRCLE ( 'NONE', #701, 1.650000000000000355 ) ;
#916 = LINE ( 'NONE', #1023, #175 ) ;
#917 = CIRCLE ( 'NONE', #157, 0.7500000000000024425 ) ;
#918 = VERTEX_POINT ( 'NONE', #51 ) ;
#919 = CARTESIAN_POINT ( 'NONE',  ( 29.81538461538461249, -38.64615384615385096, 12.00000000000000000 ) ) ;
#920 = DIRECTION ( 'NONE',  ( 1.000000000000000000, 0.000000000000000000, 0.000000000000000000 ) ) ;
#921 = ORIENTED_EDGE ( 'NONE', *, *, #604, .F. ) ;
#922 = VECTOR ( 'NONE', #1127, 1000.000000000000000 ) ;
#923 = VECTOR ( 'NONE', #425, 1000.000000000000000 ) ;
#924 = APPLICATION_PROTOCOL_DEFINITION ( 'draft international standard', 'automotive_design', 1998, #1064 ) ;
#925 = ORIENTED_EDGE ( 'NONE', *, *, #375, .T. ) ;
#926 = LINE ( 'NONE', #310, #485 ) ;
#927 = LINE ( 'NONE', #1113, #181 ) ;
#928 = ORIENTED_EDGE ( 'NONE', *, *, #965, .T. ) ;
#929 = SHAPE_DEFINITION_REPRESENTATION ( #1082, #85 ) ;
#930 = ORIENTED_EDGE ( 'NONE', *, *, #388, .T. ) ;
#931 = CARTESIAN_POINT ( 'NONE',  ( -15.78461538461538360, -17.24615384615384528, 7.000000000000000000 ) ) ;
#932 = CARTESIAN_POINT ( 'NONE',  ( 27.41538461538460680, -17.24615384615383817, 7.000000000000000000 ) ) ;
#933 = ADVANCED_FACE ( 'NONE', ( #327 ), #677, .F. ) ;
#934 = ORIENTED_EDGE ( 'NONE', *, *, #182, .F. ) ;
#935 = LINE ( 'NONE', #117, #259 ) ;
#936 = VECTOR ( 'NONE', #774, 1000.000000000000000 ) ;
#937 = CARTESIAN_POINT ( 'NONE',  ( -9.184615384615385736, -30.64615384615385096, 3.000000000000000000 ) ) ;
#938 = DIRECTION ( 'NONE',  ( 1.000000000000000000, 4.956352788505162775E-17, -0.000000000000000000 ) ) ;
#939 = VERTEX_POINT ( 'NONE', #366 ) ;
#940 = DIRECTION ( 'NONE',  ( 0.000000000000000000, 0.000000000000000000, 1.000000000000000000 ) ) ;
#941 = MECHANICAL_DESIGN_GEOMETRIC_PRESENTATION_REPRESENTATION (  '', ( #785 ), #651 ) ;
#942 = CYLINDRICAL_SURFACE ( 'NONE', #512, 0.7500000000000006661 ) ;
#943 = ORIENTED_EDGE ( 'NONE', *, *, #109, .F. ) ;
#944 = EDGE_CURVE ( 'NONE', #625, #958, #184, .T. ) ;
#945 = CARTESIAN_POINT ( 'NONE',  ( -4.184615384615388400, -10.64615384615385096, -3.000000000000000000 ) ) ;
#946 = CARTESIAN_POINT ( 'NONE',  ( 10.81538461538461426, -3.646153846153845191, 0.000000000000000000 ) ) ;
#947 = DIRECTION ( 'NONE',  ( 1.000000000000000000, 0.000000000000000000, 0.000000000000000000 ) ) ;
#948 = PRODUCT_DEFINITION ( 'æœ', '', #153, #169 ) ;
#949 = ORIENTED_EDGE ( 'NONE', *, *, #790, .T. ) ;
#950 = DIRECTION ( 'NONE',  ( -0.000000000000000000, 0.000000000000000000, 1.000000000000000000 ) ) ;
#951 = ADVANCED_FACE ( 'NONE', ( #724 ), #346, .F. ) ;
#952 = VERTEX_POINT ( 'NONE', #992 ) ;
#953 = LINE ( 'NONE', #415, #923 ) ;
#954 = DIRECTION ( 'NONE',  ( 0.000000000000000000, -1.000000000000000000, 0.000000000000000000 ) ) ;
#955 = ORIENTED_EDGE ( 'NONE', *, *, #1100, .F. ) ;
#956 = DIRECTION ( 'NONE',  ( -1.000000000000000000, 0.000000000000000000, 0.000000000000000000 ) ) ;
#957 = VECTOR ( 'NONE', #787, 1000.000000000000000 ) ;
#958 = VERTEX_POINT ( 'NONE', #87 ) ;
#959 = DIRECTION ( 'NONE',  ( -0.000000000000000000, -0.000000000000000000, 1.000000000000000000 ) ) ;
#960 = AXIS2_PLACEMENT_3D ( 'NONE', #379, #30, #1019 ) ;
#961 = CARTESIAN_POINT ( 'NONE',  ( -4.184615384615388400, -0.6461538461538461897, -3.000000000000000000 ) ) ;
#962 = ORIENTED_EDGE ( 'NONE', *, *, #829, .T. ) ;
#963 = DIRECTION ( 'NONE',  ( -0.000000000000000000, -0.000000000000000000, -1.000000000000000000 ) ) ;
#964 = CYLINDRICAL_SURFACE ( 'NONE', #479, 0.7500000000000024425 ) ;
#965 = EDGE_CURVE ( 'NONE', #151, #1135, #410, .T. ) ;
#966 = DIRECTION ( 'NONE',  ( 1.000000000000000000, 0.000000000000000000, 0.000000000000000000 ) ) ;
#967 = VERTEX_POINT ( 'NONE', #1085 ) ;
#968 = LINE ( 'NONE', #1137, #49 ) ;
#969 = EDGE_CURVE ( 'NONE', #581, #342, #617, .T. ) ;
#970 = ORIENTED_EDGE ( 'NONE', *, *, #216, .T. ) ;
#971 = DIRECTION ( 'NONE',  ( 1.000000000000000000, 0.000000000000000000, 0.000000000000000000 ) ) ;
#972 = AXIS2_PLACEMENT_3D ( 'NONE', #309, #658, #416 ) ;
#973 = DIRECTION ( 'NONE',  ( 1.000000000000000000, 0.000000000000000000, 0.000000000000000000 ) ) ;
#974 = VECTOR ( 'NONE', #966, 1000.000000000000000 ) ;
#975 = VERTEX_POINT ( 'NONE', #809 ) ;
#976 = CARTESIAN_POINT ( 'NONE',  ( 0.000000000000000000, 0.000000000000000000, 3.000000000000000000 ) ) ;
#977 = EDGE_LOOP ( 'NONE', ( #655, #1013 ) ) ;
#978 = DIRECTION ( 'NONE',  ( 1.000000000000000000, 0.000000000000000000, 0.000000000000000000 ) ) ;
#979 = AXIS2_PLACEMENT_3D ( 'NONE', #976, #164, #497 ) ;
#980 = FACE_BOUND ( 'NONE', #730, .T. ) ;
#981 = VERTEX_POINT ( 'NONE', #612 ) ;
#982 = CARTESIAN_POINT ( 'NONE',  ( -4.184615384615388400, -15.64615384615385096, 3.000000000000000000 ) ) ;
#983 = ADVANCED_FACE ( 'NONE', ( #904 ), #191, .F. ) ;
#984 = ORIENTED_EDGE ( 'NONE', *, *, #692, .F. ) ;
#985 = CARTESIAN_POINT ( 'NONE',  ( 15.81538461538461249, 0.000000000000000000, 0.000000000000000000 ) ) ;
#986 = PRODUCT_RELATED_PRODUCT_CATEGORY ( 'part', '', ( #550 ) ) ;
#987 = ORIENTED_EDGE ( 'NONE', *, *, #899, .F. ) ;
#988 = LINE ( 'NONE', #910, #33 ) ;
#989 = VERTEX_POINT ( 'NONE', #260 ) ;
#990 = CARTESIAN_POINT ( 'NONE',  ( -15.03461538461538005, -36.04615384615384244, 7.000000000000000000 ) ) ;
#991 = EDGE_LOOP ( 'NONE', ( #158, #993, #810, #1131 ) ) ;
#992 = CARTESIAN_POINT ( 'NONE',  ( 18.81538461538461249, -15.64615384615385096, 9.000000000000001776 ) ) ;
#993 = ORIENTED_EDGE ( 'NONE', *, *, #178, .F. ) ;
#994 = CARTESIAN_POINT ( 'NONE',  ( 28.16538461538460680, -17.24615384615383817, 7.000000000000000000 ) ) ;
#995 = LINE ( 'NONE', #441, #404 ) ;
#996 = VERTEX_POINT ( 'NONE', #1005 ) ;
#997 = AXIS2_PLACEMENT_3D ( 'NONE', #465, #541, #458 ) ;
#998 = UNCERTAINTY_MEASURE_WITH_UNIT (LENGTH_MEASURE( 1.000000000000000082E-05 ), #395, 'distance_accuracy_value', 'NONE');
#999 = DIRECTION ( 'NONE',  ( 0.000000000000000000, 0.000000000000000000, 1.000000000000000000 ) ) ;
#1000 = EDGE_LOOP ( 'NONE', ( #740, #511, #107, #895 ) ) ;
#1001 = DIRECTION ( 'NONE',  ( 1.000000000000000000, 0.000000000000000000, 0.000000000000000000 ) ) ;
#1002 = CARTESIAN_POINT ( 'NONE',  ( -15.78461538461538360, -17.24615384615384528, 12.00000000000000000 ) ) ;
#1003 = VERTEX_POINT ( 'NONE', #537 ) ;
#1004 = EDGE_CURVE ( 'NONE', #674, #844, #444, .T. ) ;
#1005 = CARTESIAN_POINT ( 'NONE',  ( -9.184615384615385736, -30.64615384615385096, 3.000000000000000000 ) ) ;
#1006 = VERTEX_POINT ( 'NONE', #982 ) ;
#1007 = DIRECTION ( 'NONE',  ( 0.000000000000000000, 1.000000000000000000, 0.000000000000000000 ) ) ;
#1008 = ORIENTED_EDGE ( 'NONE', *, *, #944, .T. ) ;
#1009 = CIRCLE ( 'NONE', #253, 5.000000000000000888 ) ;
#1010 = APPLICATION_PROTOCOL_DEFINITION ( 'draft international standard', 'automotive_design', 1998, #54 ) ;
#1011 = EDGE_LOOP ( 'NONE', ( #792, #1167, #827, #637 ) ) ;
#1012 = LINE ( 'NONE', #854, #821 ) ;
#1013 = ORIENTED_EDGE ( 'NONE', *, *, #641, .T. ) ;
#1014 = VECTOR ( 'NONE', #1143, 1000.000000000000000 ) ;
#1015 = VECTOR ( 'NONE', #1098, 1000.000000000000000 ) ;
#1016 = CARTESIAN_POINT ( 'NONE',  ( 0.000000000000000000, 0.000000000000000000, 0.000000000000000000 ) ) ;
#1017 = EDGE_CURVE ( 'NONE', #135, #632, #445, .T. ) ;
#1018 = ORIENTED_EDGE ( 'NONE', *, *, #409, .T. ) ;
#1019 = DIRECTION ( 'NONE',  ( -1.000000000000000000, 0.000000000000000000, 0.000000000000000000 ) ) ;
#1020 = EDGE_CURVE ( 'NONE', #646, #68, #1067, .T. ) ;
#1021 = CARTESIAN_POINT ( 'NONE',  ( 15.81538461538461249, -30.64615384615385096, 9.000000000000001776 ) ) ;
#1022 = DIRECTION ( 'NONE',  ( -0.000000000000000000, -0.000000000000000000, 1.000000000000000000 ) ) ;
#1023 = CARTESIAN_POINT ( 'NONE',  ( -7.184615384615388400, -15.64615384615385096, 9.000000000000001776 ) ) ;
#1024 = ORIENTED_EDGE ( 'NONE', *, *, #405, .F. ) ;
#1025 = PLANE ( 'NONE',  #226 ) ;
#1026 = DIRECTION ( 'NONE',  ( -0.000000000000000000, -0.000000000000000000, -1.000000000000000000 ) ) ;
#1027 = CARTESIAN_POINT ( 'NONE',  ( -4.184615384615388400, -0.6461538461538461897, 3.000000000000000000 ) ) ;
#1028 = EDGE_CURVE ( 'NONE', #581, #632, #543, .T. ) ;
#1029 = CARTESIAN_POINT ( 'NONE',  ( 27.41538461538461391, -36.04615384615384244, 7.000000000000000000 ) ) ;
#1030 = AXIS2_PLACEMENT_3D ( 'NONE', #861, #435, #607 ) ;
#1031 = FACE_OUTER_BOUND ( 'NONE', #771, .T. ) ;
#1032 = CARTESIAN_POINT ( 'NONE',  ( -9.184615384615387512, 4.353846153846153477, 3.000000000000000000 ) ) ;
#1033 = EDGE_CURVE ( 'NONE', #844, #322, #988, .T. ) ;
#1034 = AXIS2_PLACEMENT_3D ( 'NONE', #531, #896, #362 ) ;
#1035 = AXIS2_PLACEMENT_3D ( 'NONE', #24, #846, #1103 ) ;
#1036 = DIRECTION ( 'NONE',  ( -1.000000000000000000, 0.000000000000000000, 0.000000000000000000 ) ) ;
#1037 = CARTESIAN_POINT ( 'NONE',  ( 10.81538461538461426, -3.646153846153845191, 3.000000000000000000 ) ) ;
#1038 = EDGE_CURVE ( 'NONE', #918, #532, #794, .T. ) ;
#1039 = DIRECTION ( 'NONE',  ( -0.000000000000000000, -0.000000000000000000, 1.000000000000000000 ) ) ;
#1040 = ORIENTED_EDGE ( 'NONE', *, *, #692, .T. ) ;
#1041 = DIRECTION ( 'NONE',  ( 0.000000000000000000, 0.000000000000000000, 1.000000000000000000 ) ) ;
#1042 = LINE ( 'NONE', #585, #103 ) ;
#1043 = ORIENTED_EDGE ( 'NONE', *, *, #307, .T. ) ;
#1044 = CARTESIAN_POINT ( 'NONE',  ( 0.8153846153846129319, -3.646153846153845191, 3.000000000000000000 ) ) ;
#1045 = VECTOR ( 'NONE', #660, 1000.000000000000000 ) ;
#1046 = LINE ( 'NONE', #1144, #429 ) ;
#1047 = CARTESIAN_POINT ( 'NONE',  ( -15.03461538461538005, -36.04615384615384244, 9.000000000000001776 ) ) ;
#1048 = ORIENTED_EDGE ( 'NONE', *, *, #352, .F. ) ;
#1049 = ADVANCED_FACE ( 'NONE', ( #518 ), #717, .F. ) ;
#1050 = DIRECTION ( 'NONE',  ( -0.000000000000000000, 0.000000000000000000, 1.000000000000000000 ) ) ;
#1051 = VECTOR ( 'NONE', #287, 1000.000000000000000 ) ;
#1052 = EDGE_CURVE ( 'NONE', #975, #88, #1162, .T. ) ;
#1053 = CARTESIAN_POINT ( 'NONE',  ( -15.78461538461538360, -36.04615384615384244, 7.000000000000000000 ) ) ;
#1054 = VECTOR ( 'NONE', #720, 1000.000000000000000 ) ;
#1055 = DIRECTION ( 'NONE',  ( -1.445602896647339163E-16, 1.000000000000000000, 0.000000000000000000 ) ) ;
#1056 = ORIENTED_EDGE ( 'NONE', *, *, #1136, .T. ) ;
#1057 = CYLINDRICAL_SURFACE ( 'NONE', #463, 5.000000000000000888 ) ;
#1058 = CARTESIAN_POINT ( 'NONE',  ( -16.53461538461538538, -36.04615384615384244, 9.000000000000001776 ) ) ;
#1059 = ORIENTED_EDGE ( 'NONE', *, *, #285, .T. ) ;
#1060 = CARTESIAN_POINT ( 'NONE',  ( 2.465384615384614175, -3.646153846153845191, 0.000000000000000000 ) ) ;
#1061 = DIRECTION ( 'NONE',  ( -0.000000000000000000, -0.000000000000000000, -1.000000000000000000 ) ) ;
#1062 = CIRCLE ( 'NONE', #551, 5.000000000000000000 ) ;
#1063 = CIRCLE ( 'NONE', #11, 4.999999999999999112 ) ;
#1064 = APPLICATION_CONTEXT ( 'automotive_design' ) ;
#1065 = ORIENTED_EDGE ( 'NONE', *, *, #716, .F. ) ;
#1066 = EDGE_CURVE ( 'NONE', #88, #86, #110, .T. ) ;
#1067 = LINE ( 'NONE', #267, #900 ) ;
#1068 = VERTEX_POINT ( 'NONE', #438 ) ;
#1069 = DIRECTION ( 'NONE',  ( 1.000000000000000000, -0.000000000000000000, -0.000000000000000000 ) ) ;
#1070 = AXIS2_PLACEMENT_3D ( 'NONE', #748, #209, #642 ) ;
#1071 = VECTOR ( 'NONE', #374, 1000.000000000000000 ) ;
#1072 = ORIENTED_EDGE ( 'NONE', *, *, #576, .T. ) ;
#1073 = EDGE_CURVE ( 'NONE', #468, #196, #572, .T. ) ;
#1074 = DIRECTION ( 'NONE',  ( 0.000000000000000000, 0.000000000000000000, 1.000000000000000000 ) ) ;
#1075 = ORIENTED_EDGE ( 'NONE', *, *, #62, .F. ) ;
#1076 = CARTESIAN_POINT ( 'NONE',  ( -4.184615384615388400, -30.64615384615385096, 0.000000000000000000 ) ) ;
#1077 = ORIENTED_EDGE ( 'NONE', *, *, #519, .F. ) ;
#1078 = FACE_OUTER_BOUND ( 'NONE', #23, .T. ) ;
#1079 = EDGE_LOOP ( 'NONE', ( #422, #517, #8, #962, #970, #258 ) ) ;
#1080 = FACE_OUTER_BOUND ( 'NONE', #616, .T. ) ;
#1081 = FACE_OUTER_BOUND ( 'NONE', #1000, .T. ) ;
#1082 = PRODUCT_DEFINITION_SHAPE ( 'NONE', 'NONE',  #948 ) ;
#1083 = AXIS2_PLACEMENT_3D ( 'NONE', #494, #478, #207 ) ;
#1084 = ORIENTED_EDGE ( 'NONE', *, *, #472, .T. ) ;
#1085 = CARTESIAN_POINT ( 'NONE',  ( -15.03461538461538005, -17.24615384615384528, 9.000000000000001776 ) ) ;
#1086 = ORIENTED_EDGE ( 'NONE', *, *, #562, .T. ) ;
#1087 = CARTESIAN_POINT ( 'NONE',  ( 10.81538461538461426, -3.646153846153845191, 0.000000000000000000 ) ) ;
#1088 = ADVANCED_FACE ( 'NONE', ( #1078 ), #760, .F. ) ;
#1089 = DIRECTION ( 'NONE',  ( -0.000000000000000000, -0.000000000000000000, -1.000000000000000000 ) ) ;
#1090 = ORIENTED_EDGE ( 'NONE', *, *, #969, .F. ) ;
#1091 = CARTESIAN_POINT ( 'NONE',  ( -18.18461538461538751, -38.64615384615385096, 12.00000000000000000 ) ) ;
#1092 = ORIENTED_EDGE ( 'NONE', *, *, #507, .T. ) ;
#1093 = DIRECTION ( 'NONE',  ( 1.000000000000000000, 0.000000000000000000, 0.000000000000000000 ) ) ;
#1094 = CYLINDRICAL_SURFACE ( 'NONE', #605, 1.650000000000000355 ) ;
#1095 = VERTEX_POINT ( 'NONE', #654 ) ;
#1096 = CARTESIAN_POINT ( 'NONE',  ( -4.184615384615388400, -30.64615384615385096, -3.000000000000000000 ) ) ;
#1097 = VERTEX_POINT ( 'NONE', #482 ) ;
#1098 = DIRECTION ( 'NONE',  ( -0.000000000000000000, -0.000000000000000000, 1.000000000000000000 ) ) ;
#1099 = EDGE_LOOP ( 'NONE', ( #29, #1072 ) ) ;
#1100 = EDGE_CURVE ( 'NONE', #610, #1148, #467, .T. ) ;
#1101 = DIRECTION ( 'NONE',  ( 4.956352788505162775E-17, -1.000000000000000000, 0.000000000000000000 ) ) ;
#1102 = EDGE_LOOP ( 'NONE', ( #599, #653 ) ) ;
#1103 = DIRECTION ( 'NONE',  ( 1.000000000000000000, 0.000000000000000000, 0.000000000000000000 ) ) ;
#1104 = CARTESIAN_POINT ( 'NONE',  ( -18.18461538461539106, -14.64615384615385096, 12.00000000000000000 ) ) ;
#1105 = CARTESIAN_POINT ( 'NONE',  ( 26.66538461538460325, -17.24615384615383817, 12.00000000000000000 ) ) ;
#1106 = AXIS2_PLACEMENT_3D ( 'NONE', #800, #711, #95 ) ;
#1107 = AXIS2_PLACEMENT_3D ( 'NONE', #257, #796, #978 ) ;
#1108 = PLANE ( 'NONE',  #1070 ) ;
#1109 = VECTOR ( 'NONE', #246, 1000.000000000000000 ) ;
#1110 = ADVANCED_FACE ( 'NONE', ( #398 ), #1120, .F. ) ;
#1111 = EDGE_LOOP ( 'NONE', ( #210, #383, #149, #984 ) ) ;
#1112 = SURFACE_SIDE_STYLE ('',( #39 ) ) ;
#1113 = CARTESIAN_POINT ( 'NONE',  ( -4.184615384615388400, -30.64615384615385096, 3.000000000000000000 ) ) ;
#1114 = CARTESIAN_POINT ( 'NONE',  ( 28.16538461538461391, -36.04615384615384244, 12.00000000000000000 ) ) ;
#1115 =( NAMED_UNIT ( * ) PLANE_ANGLE_UNIT ( ) SI_UNIT ( $, .RADIAN. ) );
#1116 = LINE ( 'NONE', #571, #73 ) ;
#1117 = EDGE_CURVE ( 'NONE', #700, #473, #935, .T. ) ;
#1118 = CARTESIAN_POINT ( 'NONE',  ( -18.18461538461538751, -38.64615384615385096, 12.00000000000000000 ) ) ;
#1119 = ORIENTED_EDGE ( 'NONE', *, *, #770, .F. ) ;
#1120 = PLANE ( 'NONE',  #16 ) ;
#1121 = CLOSED_SHELL ( 'NONE', ( #277, #1156, #436, #776, #983, #427, #1049, #266, #94, #909, #1124, #358, #686, #933, #203, #147, #824, #722, #1110, #238, #755, #268, #79, #670, #195, #198, #951, #400, #59, #421, #292, #611, #1088, #624 ) ) ;
#1122 = AXIS2_PLACEMENT_3D ( 'NONE', #813, #4, #721 ) ;
#1123 = LINE ( 'NONE', #316, #122 ) ;
#1124 = ADVANCED_FACE ( 'NONE', ( #314, #475, #214 ), #1108, .F. ) ;
#1125 = VERTEX_POINT ( 'NONE', #831 ) ;
#1126 = AXIS2_PLACEMENT_3D ( 'NONE', #137, #950, #424 ) ;
#1127 = DIRECTION ( 'NONE',  ( 0.000000000000000000, 0.000000000000000000, -1.000000000000000000 ) ) ;
#1128 = ORIENTED_EDGE ( 'NONE', *, *, #1038, .F. ) ;
#1129 = DIRECTION ( 'NONE',  ( 1.000000000000000000, 0.000000000000000000, 0.000000000000000000 ) ) ;
#1130 = DIRECTION ( 'NONE',  ( 1.000000000000000000, 0.000000000000000000, 0.000000000000000000 ) ) ;
#1131 = ORIENTED_EDGE ( 'NONE', *, *, #361, .T. ) ;
#1132 = CARTESIAN_POINT ( 'NONE',  ( -9.184615384615387512, -0.6461538461538466338, 0.000000000000000000 ) ) ;
#1133 = ORIENTED_EDGE ( 'NONE', *, *, #442, .F. ) ;
#1134 = CARTESIAN_POINT ( 'NONE',  ( -16.53461538461538538, -36.04615384615384244, 12.00000000000000000 ) ) ;
#1135 = VERTEX_POINT ( 'NONE', #659 ) ;
#1136 = EDGE_CURVE ( 'NONE', #273, #1003, #916, .T. ) ;
#1137 = CARTESIAN_POINT ( 'NONE',  ( -18.18461538461539106, -14.64615384615385096, 12.00000000000000000 ) ) ;
#1138 = VECTOR ( 'NONE', #521, 1000.000000000000000 ) ;
#1139 = ORIENTED_EDGE ( 'NONE', *, *, #507, .F. ) ;
#1140 = CARTESIAN_POINT ( 'NONE',  ( 15.81538461538461249, -30.64615384615385096, 9.000000000000001776 ) ) ;
#1141 = CYLINDRICAL_SURFACE ( 'NONE', #1146, 4.999999999999999112 ) ;
#1142 = EDGE_LOOP ( 'NONE', ( #185, #77, #851, #82 ) ) ;
#1143 = DIRECTION ( 'NONE',  ( -0.000000000000000000, -0.000000000000000000, -1.000000000000000000 ) ) ;
#1144 = CARTESIAN_POINT ( 'NONE',  ( -4.184615384615388400, -15.64615384615385096, 9.000000000000001776 ) ) ;
#1145 = CIRCLE ( 'NONE', #91, 0.7500000000000024425 ) ;
#1146 = AXIS2_PLACEMENT_3D ( 'NONE', #961, #506, #698 ) ;
#1147 = VECTOR ( 'NONE', #61, 1000.000000000000000 ) ;
#1148 = VERTEX_POINT ( 'NONE', #22 ) ;
#1149 = LINE ( 'NONE', #406, #500 ) ;
#1150 = ORIENTED_EDGE ( 'NONE', *, *, #887, .F. ) ;
#1151 = FACE_BOUND ( 'NONE', #1163, .T. ) ;
#1152 = EDGE_CURVE ( 'NONE', #897, #204, #742, .T. ) ;
#1153 = CARTESIAN_POINT ( 'NONE',  ( -9.184615384615385736, -30.64615384615385096, 3.000000000000000000 ) ) ;
#1154 = ORIENTED_EDGE ( 'NONE', *, *, #27, .F. ) ;
#1155 = DIRECTION ( 'NONE',  ( 0.000000000000000000, 1.000000000000000000, 0.000000000000000000 ) ) ;
#1156 = ADVANCED_FACE ( 'NONE', ( #298 ), #128, .F. ) ;
#1157 = ORIENTED_EDGE ( 'NONE', *, *, #272, .F. ) ;
#1158 = FACE_BOUND ( 'NONE', #305, .T. ) ;
#1159 = CARTESIAN_POINT ( 'NONE',  ( -15.78461538461538360, -36.04615384615384244, 9.000000000000001776 ) ) ;
#1160 = EDGE_CURVE ( 'NONE', #5, #329, #304, .T. ) ;
#1161 = ORIENTED_EDGE ( 'NONE', *, *, #527, .T. ) ;
#1162 = LINE ( 'NONE', #177, #609 ) ;
#1163 = EDGE_LOOP ( 'NONE', ( #449, #643 ) ) ;
#1164 = CARTESIAN_POINT ( 'NONE',  ( 27.41538461538460680, -17.24615384615383817, 9.000000000000001776 ) ) ;
#1165 = VECTOR ( 'NONE', #871, 1000.000000000000000 ) ;
#1166 = AXIS2_PLACEMENT_3D ( 'NONE', #300, #656, #132 ) ;
#1167 = ORIENTED_EDGE ( 'NONE', *, *, #527, .F. ) ;
ENDSEC;
END-ISO-10303-21;
