ISO-10303-21;
HEADER;
FILE_DESCRIPTION (( 'STEP AP214' ),
    '1' );
FILE_NAME ('11.STEP',
    '2026-05-02T08:40:18',
    ( '' ),
    ( '' ),
    'SwSTEP 2.0',
    'SolidWorks 2025',
    '' );
FILE_SCHEMA (( 'AUTOMOTIVE_DESIGN' ));
ENDSEC;

DATA;
#1 = STYLED_ITEM ( 'NONE', ( #245 ), #517 ) ;
#2 = ADVANCED_FACE ( 'NONE', ( #391 ), #535, .F. ) ;
#3 = PLANE ( 'NONE',  #290 ) ;
#4 = EDGE_LOOP ( 'NONE', ( #137, #327, #319, #175 ) ) ;
#5 = EDGE_CURVE ( 'NONE', #145, #167, #343, .T. ) ;
#6 = DIRECTION ( 'NONE',  ( -1.000000000000000000, 0.000000000000000000, 0.000000000000000000 ) ) ;
#7 = ORIENTED_EDGE ( 'NONE', *, *, #445, .T. ) ;
#8 = CARTESIAN_POINT ( 'NONE',  ( -5.899999999999998579, 1.959434878635765723E-16, 7.500000000000000000 ) ) ;
#9 = AXIS2_PLACEMENT_3D ( 'NONE', #117, #255, #300 ) ;
#10 = CARTESIAN_POINT ( 'NONE',  ( 7.500000000000000000, 0.000000000000000000, 7.500000000000000000 ) ) ;
#11 = CARTESIAN_POINT ( 'NONE',  ( -13.00000000000000178, -8.999999999999998224, 7.500000000000000000 ) ) ;
#12 = UNCERTAINTY_MEASURE_WITH_UNIT (LENGTH_MEASURE( 1.000000000000000082E-05 ), #349, 'distance_accuracy_value', 'NONE');
#13 = COLOUR_RGB ( '',0.7921568627450980005, 0.8196078431372548767, 0.9333333333333333481 ) ;
#14 = ORIENTED_EDGE ( 'NONE', *, *, #347, .F. ) ;
#15 = ORIENTED_EDGE ( 'NONE', *, *, #318, .T. ) ;
#16 = DIRECTION ( 'NONE',  ( -0.000000000000000000, -0.000000000000000000, -1.000000000000000000 ) ) ;
#17 = ADVANCED_FACE ( 'NONE', ( #443 ), #294, .F. ) ;
#18 = ORIENTED_EDGE ( 'NONE', *, *, #450, .F. ) ;
#19 = LINE ( 'NONE', #487, #465 ) ;
#20 = CARTESIAN_POINT ( 'NONE',  ( 16.99999999999999645, -5.999999999999996447, 3.999999999999999112 ) ) ;
#21 = VECTOR ( 'NONE', #332, 1000.000000000000000 ) ;
#22 = CARTESIAN_POINT ( 'NONE',  ( 16.99999999999999645, -5.999999999999996447, 3.999999999999999112 ) ) ;
#23 = LINE ( 'NONE', #414, #282 ) ;
#24 = CARTESIAN_POINT ( 'NONE',  ( -13.00000000000000178, 9.000000000000001776, 7.500000000000000000 ) ) ;
#25 = EDGE_CURVE ( 'NONE', #602, #211, #387, .T. ) ;
#26 = DIRECTION ( 'NONE',  ( 1.000000000000000000, 0.000000000000000000, 0.000000000000000000 ) ) ;
#27 = CARTESIAN_POINT ( 'NONE',  ( 13.00000000000000178, 9.000000000000001776, 3.999999999999999112 ) ) ;
#28 = ORIENTED_EDGE ( 'NONE', *, *, #394, .T. ) ;
#29 = CARTESIAN_POINT ( 'NONE',  ( -5.899999999999998579, 1.959434878635765723E-16, 3.999999999999999112 ) ) ;
#30 = CARTESIAN_POINT ( 'NONE',  ( -13.00000000000000178, -8.999999999999998224, -7.500000000000000000 ) ) ;
#31 = ORIENTED_EDGE ( 'NONE', *, *, #514, .T. ) ;
#32 = CIRCLE ( 'NONE', #473, 1.599999999999999867 ) ;
#33 = ADVANCED_BREP_SHAPE_REPRESENTATION ( '11', ( #517, #357 ), #335 ) ;
#34 = CYLINDRICAL_SURFACE ( 'NONE', #578, 1.600000000000001643 ) ;
#35 = ORIENTED_EDGE ( 'NONE', *, *, #5, .F. ) ;
#36 = DIRECTION ( 'NONE',  ( -1.000000000000000000, 0.000000000000000000, 0.000000000000000000 ) ) ;
#37 = FACE_OUTER_BOUND ( 'NONE', #123, .T. ) ;
#38 = VERTEX_POINT ( 'NONE', #151 ) ;
#39 = ADVANCED_FACE ( 'NONE', ( #341, #199, #395 ), #105, .T. ) ;
#40 = CARTESIAN_POINT ( 'NONE',  ( 13.00000000000000178, -8.999999999999998224, 7.500000000000000000 ) ) ;
#41 = ORIENTED_EDGE ( 'NONE', *, *, #576, .T. ) ;
#42 = VECTOR ( 'NONE', #218, 1000.000000000000000 ) ;
#43 = LINE ( 'NONE', #470, #108 ) ;
#44 = CIRCLE ( 'NONE', #355, 1.599999999999999867 ) ;
#45 = ORIENTED_EDGE ( 'NONE', *, *, #541, .F. ) ;
#46 = DIRECTION ( 'NONE',  ( -1.000000000000000000, 0.000000000000000000, 0.000000000000000000 ) ) ;
#47 = ORIENTED_EDGE ( 'NONE', *, *, #594, .T. ) ;
#48 = DIRECTION ( 'NONE',  ( -1.000000000000000000, 0.000000000000000000, -0.000000000000000000 ) ) ;
#49 = EDGE_LOOP ( 'NONE', ( #52, #429, #82, #257, #84, #595, #143, #565 ) ) ;
#50 = CYLINDRICAL_SURFACE ( 'NONE', #444, 1.600000000000000755 ) ;
#51 = VECTOR ( 'NONE', #77, 1000.000000000000000 ) ;
#52 = ORIENTED_EDGE ( 'NONE', *, *, #445, .F. ) ;
#53 = VECTOR ( 'NONE', #301, 1000.000000000000000 ) ;
#54 = DIRECTION ( 'NONE',  ( -0.000000000000000000, -0.000000000000000000, -1.000000000000000000 ) ) ;
#55 = EDGE_LOOP ( 'NONE', ( #507, #28, #98, #501 ) ) ;
#56 = ADVANCED_FACE ( 'NONE', ( #401 ), #157, .F. ) ;
#57 = DIRECTION ( 'NONE',  ( 0.000000000000000000, -1.000000000000000000, 0.000000000000000000 ) ) ;
#58 = ORIENTED_EDGE ( 'NONE', *, *, #191, .T. ) ;
#59 =( NAMED_UNIT ( * ) PLANE_ANGLE_UNIT ( ) SI_UNIT ( $, .RADIAN. ) );
#60 = LINE ( 'NONE', #20, #538 ) ;
#61 = AXIS2_PLACEMENT_3D ( 'NONE', #10, #197, #192 ) ;
#62 = DIRECTION ( 'NONE',  ( -1.000000000000000000, 0.000000000000000000, -0.000000000000000000 ) ) ;
#63 = ADVANCED_FACE ( 'NONE', ( #348 ), #542, .F. ) ;
#64 = ORIENTED_EDGE ( 'NONE', *, *, #525, .T. ) ;
#65 = EDGE_LOOP ( 'NONE', ( #64, #568 ) ) ;
#66 = CARTESIAN_POINT ( 'NONE',  ( 13.00000000000000178, -8.999999999999998224, 7.500000000000000000 ) ) ;
#67 = CARTESIAN_POINT ( 'NONE',  ( 7.500000000000000000, 0.000000000000000000, 7.500000000000000000 ) ) ;
#68 = EDGE_CURVE ( 'NONE', #265, #216, #613, .T. ) ;
#69 = DIRECTION ( 'NONE',  ( -1.000000000000000000, -0.000000000000000000, -0.000000000000000000 ) ) ;
#70 = PRODUCT_DEFINITION_FORMATION_WITH_SPECIFIED_SOURCE ( 'ไป', '', #396, .NOT_KNOWN. ) ;
#71 = CARTESIAN_POINT ( 'NONE',  ( 5.899999999999997691, 0.000000000000000000, -7.500000000000000000 ) ) ;
#72 = DIRECTION ( 'NONE',  ( -1.000000000000000000, 9.637352644315596475E-17, 0.000000000000000000 ) ) ;
#73 = VERTEX_POINT ( 'NONE', #455 ) ;
#74 = FACE_OUTER_BOUND ( 'NONE', #479, .T. ) ;
#75 = DIRECTION ( 'NONE',  ( 1.000000000000000000, 0.000000000000000000, 0.000000000000000000 ) ) ;
#76 = ORIENTED_EDGE ( 'NONE', *, *, #554, .F. ) ;
#77 = DIRECTION ( 'NONE',  ( -0.000000000000000000, -0.000000000000000000, -1.000000000000000000 ) ) ;
#78 = EDGE_LOOP ( 'NONE', ( #376, #7, #253, #492 ) ) ;
#79 = CIRCLE ( 'NONE', #367, 1.599999999999999867 ) ;
#80 = CARTESIAN_POINT ( 'NONE',  ( -13.00000000000000178, -8.999999999999998224, 7.500000000000000000 ) ) ;
#81 = ADVANCED_FACE ( 'NONE', ( #468, #169, #503 ), #220, .F. ) ;
#82 = ORIENTED_EDGE ( 'NONE', *, *, #333, .T. ) ;
#83 = FACE_BOUND ( 'NONE', #462, .T. ) ;
#84 = ORIENTED_EDGE ( 'NONE', *, *, #144, .F. ) ;
#85 = FACE_BOUND ( 'NONE', #165, .T. ) ;
#86 = VERTEX_POINT ( 'NONE', #361 ) ;
#87 = EDGE_CURVE ( 'NONE', #273, #446, #461, .T. ) ;
#88 = CIRCLE ( 'NONE', #235, 1.600000000000002531 ) ;
#89 = DIRECTION ( 'NONE',  ( 0.000000000000000000, -1.000000000000000000, 0.000000000000000000 ) ) ;
#90 = SHAPE_DEFINITION_REPRESENTATION ( #150, #33 ) ;
#91 = ORIENTED_EDGE ( 'NONE', *, *, #127, .F. ) ;
#92 = DIRECTION ( 'NONE',  ( 0.000000000000000000, 0.000000000000000000, -1.000000000000000000 ) ) ;
#93 = PRODUCT_CONTEXT ( 'NONE', #494, 'mechanical' ) ;
#94 = VERTEX_POINT ( 'NONE', #419 ) ;
#95 = DIRECTION ( 'NONE',  ( -0.000000000000000000, -0.000000000000000000, -1.000000000000000000 ) ) ;
#96 = EDGE_LOOP ( 'NONE', ( #58, #563, #553, #530 ) ) ;
#97 = CARTESIAN_POINT ( 'NONE',  ( -13.00000000000000178, -8.999999999999998224, 7.500000000000000000 ) ) ;
#98 = ORIENTED_EDGE ( 'NONE', *, *, #297, .F. ) ;
#99 = AXIS2_PLACEMENT_3D ( 'NONE', #405, #420, #560 ) ;
#100 = ADVANCED_FACE ( 'NONE', ( #74 ), #34, .F. ) ;
#101 = DIRECTION ( 'NONE',  ( 1.000000000000000000, 0.000000000000000000, 0.000000000000000000 ) ) ;
#102 = ORIENTED_EDGE ( 'NONE', *, *, #428, .T. ) ;
#103 = DIRECTION ( 'NONE',  ( -0.000000000000000000, -0.000000000000000000, -1.000000000000000000 ) ) ;
#104 = CARTESIAN_POINT ( 'NONE',  ( 13.00000000000000178, -8.999999999999998224, -4.000000000000000000 ) ) ;
#105 = PLANE ( 'NONE',  #259 ) ;
#106 = EDGE_CURVE ( 'NONE', #265, #523, #497, .T. ) ;
#107 = CLOSED_SHELL ( 'NONE', ( #152, #2, #63, #384, #570, #345, #100, #234, #39, #531, #398, #56, #222, #248, #17, #239, #325, #81 ) ) ;
#108 = VECTOR ( 'NONE', #227, 1000.000000000000000 ) ;
#109 = VERTEX_POINT ( 'NONE', #555 ) ;
#110 = SURFACE_STYLE_USAGE ( .BOTH. , #386 ) ;
#111 = CIRCLE ( 'NONE', #483, 1.600000000000002531 ) ;
#112 = CARTESIAN_POINT ( 'NONE',  ( -7.500000000000000000, 0.000000000000000000, 7.500000000000000000 ) ) ;
#113 = CARTESIAN_POINT ( 'NONE',  ( 7.500000000000000000, 0.000000000000000000, 3.999999999999999112 ) ) ;
#114 = ORIENTED_EDGE ( 'NONE', *, *, #403, .T. ) ;
#115 = EDGE_CURVE ( 'NONE', #94, #167, #32, .T. ) ;
#116 = CARTESIAN_POINT ( 'NONE',  ( 13.00000000000000355, 9.000000000000001776, 7.500000000000000000 ) ) ;
#117 = CARTESIAN_POINT ( 'NONE',  ( -7.500000000000000000, 0.000000000000000000, -4.000000000000000000 ) ) ;
#118 = ORIENTED_EDGE ( 'NONE', *, *, #303, .F. ) ;
#119 = CIRCLE ( 'NONE', #164, 1.600000000000001643 ) ;
#120 = CARTESIAN_POINT ( 'NONE',  ( -9.099999999999999645, 0.000000000000000000, 7.500000000000000000 ) ) ;
#121 = CIRCLE ( 'NONE', #193, 1.600000000000001643 ) ;
#122 = CARTESIAN_POINT ( 'NONE',  ( 7.500000000000000000, 0.000000000000000000, -7.500000000000000000 ) ) ;
#123 = EDGE_LOOP ( 'NONE', ( #184, #283, #334, #15, #91, #45, #31, #432 ) ) ;
#124 = DIRECTION ( 'NONE',  ( 1.000000000000000000, 0.000000000000000000, -0.000000000000000000 ) ) ;
#125 = LINE ( 'NONE', #30, #559 ) ;
#126 = ORIENTED_EDGE ( 'NONE', *, *, #457, .T. ) ;
#127 = EDGE_CURVE ( 'NONE', #587, #572, #597, .T. ) ;
#128 = CARTESIAN_POINT ( 'NONE',  ( -7.500000000000000000, 0.000000000000000000, -7.500000000000000000 ) ) ;
#129 = ORIENTED_EDGE ( 'NONE', *, *, #144, .T. ) ;
#130 = DIRECTION ( 'NONE',  ( 0.000000000000000000, -0.000000000000000000, 1.000000000000000000 ) ) ;
#131 = LINE ( 'NONE', #509, #454 ) ;
#132 = ORIENTED_EDGE ( 'NONE', *, *, #268, .F. ) ;
#133 = CARTESIAN_POINT ( 'NONE',  ( -13.00000000000000178, 9.000000000000001776, -7.500000000000000000 ) ) ;
#134 = ORIENTED_EDGE ( 'NONE', *, *, #191, .F. ) ;
#135 = EDGE_CURVE ( 'NONE', #591, #337, #258, .T. ) ;
#136 = CARTESIAN_POINT ( 'NONE',  ( -13.00000000000000178, 9.000000000000001776, 7.500000000000000000 ) ) ;
#137 = ORIENTED_EDGE ( 'NONE', *, *, #551, .T. ) ;
#138 = VECTOR ( 'NONE', #603, 1000.000000000000000 ) ;
#139 = VECTOR ( 'NONE', #250, 1000.000000000000000 ) ;
#140 = CARTESIAN_POINT ( 'NONE',  ( -9.099999999999999645, 0.000000000000000000, 7.500000000000000000 ) ) ;
#141 = EDGE_LOOP ( 'NONE', ( #126, #285 ) ) ;
#142 = DIRECTION ( 'NONE',  ( 0.000000000000000000, 0.000000000000000000, 1.000000000000000000 ) ) ;
#143 = ORIENTED_EDGE ( 'NONE', *, *, #297, .T. ) ;
#144 = EDGE_CURVE ( 'NONE', #513, #86, #310, .T. ) ;
#145 = VERTEX_POINT ( 'NONE', #359 ) ;
#146 = CARTESIAN_POINT ( 'NONE',  ( -13.00000000000000178, -8.999999999999998224, 7.500000000000000000 ) ) ;
#147 = AXIS2_PLACEMENT_3D ( 'NONE', #589, #365, #544 ) ;
#148 = ORIENTED_EDGE ( 'NONE', *, *, #215, .F. ) ;
#149 = VECTOR ( 'NONE', #496, 1000.000000000000000 ) ;
#150 = PRODUCT_DEFINITION_SHAPE ( 'NONE', 'NONE',  #431 ) ;
#151 = CARTESIAN_POINT ( 'NONE',  ( 9.100000000000001421, 1.959434878635766463E-16, 7.500000000000000000 ) ) ;
#152 = ADVANCED_FACE ( 'NONE', ( #508 ), #500, .F. ) ;
#153 = DIRECTION ( 'NONE',  ( -0.000000000000000000, -0.000000000000000000, -1.000000000000000000 ) ) ;
#154 = CARTESIAN_POINT ( 'NONE',  ( -5.899999999999999467, 1.959434878635765230E-16, 7.500000000000000000 ) ) ;
#155 = ORIENTED_EDGE ( 'NONE', *, *, #554, .T. ) ;
#156 = FILL_AREA_STYLE_COLOUR ( '', #13 ) ;
#157 = PLANE ( 'NONE',  #585 ) ;
#158 = CARTESIAN_POINT ( 'NONE',  ( -13.00000000000000178, -8.999999999999998224, -7.500000000000000000 ) ) ;
#159 = DIRECTION ( 'NONE',  ( 0.000000000000000000, 0.000000000000000000, -1.000000000000000000 ) ) ;
#160 = LINE ( 'NONE', #352, #53 ) ;
#161 = EDGE_LOOP ( 'NONE', ( #237, #114, #599, #471 ) ) ;
#162 = CARTESIAN_POINT ( 'NONE',  ( 7.500000000000000000, 0.000000000000000000, 3.999999999999999112 ) ) ;
#163 = DIRECTION ( 'NONE',  ( 0.000000000000000000, 0.000000000000000000, 1.000000000000000000 ) ) ;
#164 = AXIS2_PLACEMENT_3D ( 'NONE', #472, #142, #427 ) ;
#165 = EDGE_LOOP ( 'NONE', ( #611, #47 ) ) ;
#166 = DIRECTION ( 'NONE',  ( -0.000000000000000000, -0.000000000000000000, -1.000000000000000000 ) ) ;
#167 = VERTEX_POINT ( 'NONE', #249 ) ;
#168 = EDGE_CURVE ( 'NONE', #180, #38, #453, .T. ) ;
#169 = FACE_BOUND ( 'NONE', #141, .T. ) ;
#170 = CARTESIAN_POINT ( 'NONE',  ( -9.099999999999999645, 0.000000000000000000, 3.999999999999999112 ) ) ;
#171 = EDGE_LOOP ( 'NONE', ( #262, #410 ) ) ;
#172 = DIRECTION ( 'NONE',  ( -1.000000000000000000, 0.000000000000000000, 0.000000000000000000 ) ) ;
#173 = FACE_OUTER_BOUND ( 'NONE', #231, .T. ) ;
#174 = EDGE_CURVE ( 'NONE', #145, #484, #271, .T. ) ;
#175 = ORIENTED_EDGE ( 'NONE', *, *, #358, .F. ) ;
#176 = DIRECTION ( 'NONE',  ( -0.000000000000000000, -0.000000000000000000, -1.000000000000000000 ) ) ;
#177 = VERTEX_POINT ( 'NONE', #71 ) ;
#178 = CARTESIAN_POINT ( 'NONE',  ( 5.899999999999997691, 0.000000000000000000, 7.500000000000000000 ) ) ;
#179 = DIRECTION ( 'NONE',  ( 1.000000000000000000, 0.000000000000000000, 0.000000000000000000 ) ) ;
#180 = VERTEX_POINT ( 'NONE', #593 ) ;
#181 = CIRCLE ( 'NONE', #388, 1.600000000000001643 ) ;
#182 = CIRCLE ( 'NONE', #291, 1.600000000000001643 ) ;
#183 = LINE ( 'NONE', #521, #490 ) ;
#184 = ORIENTED_EDGE ( 'NONE', *, *, #373, .F. ) ;
#185 = CARTESIAN_POINT ( 'NONE',  ( -13.00000000000000178, -8.999999999999998224, 7.500000000000000000 ) ) ;
#186 = ORIENTED_EDGE ( 'NONE', *, *, #174, .F. ) ;
#187 = DIRECTION ( 'NONE',  ( -0.000000000000000000, -1.000000000000000000, -0.000000000000000000 ) ) ;
#188 = ORIENTED_EDGE ( 'NONE', *, *, #293, .F. ) ;
#189 = CARTESIAN_POINT ( 'NONE',  ( 9.100000000000001421, 1.959434878635766463E-16, -7.500000000000000000 ) ) ;
#190 = LINE ( 'NONE', #543, #21 ) ;
#191 = EDGE_CURVE ( 'NONE', #385, #363, #399, .T. ) ;
#192 = DIRECTION ( 'NONE',  ( -1.000000000000000000, 0.000000000000000000, 0.000000000000000000 ) ) ;
#193 = AXIS2_PLACEMENT_3D ( 'NONE', #201, #338, #194 ) ;
#194 = DIRECTION ( 'NONE',  ( -1.000000000000000000, 0.000000000000000000, 0.000000000000000000 ) ) ;
#195 = EDGE_LOOP ( 'NONE', ( #279, #102, #356, #434 ) ) ;
#196 = DIRECTION ( 'NONE',  ( 0.000000000000000000, 0.000000000000000000, 1.000000000000000000 ) ) ;
#197 = DIRECTION ( 'NONE',  ( -0.000000000000000000, -0.000000000000000000, -1.000000000000000000 ) ) ;
#198 = LINE ( 'NONE', #154, #586 ) ;
#199 = FACE_OUTER_BOUND ( 'NONE', #546, .T. ) ;
#200 = CIRCLE ( 'NONE', #281, 1.599999999999999867 ) ;
#201 = CARTESIAN_POINT ( 'NONE',  ( 7.500000000000000000, 0.000000000000000000, -4.000000000000000000 ) ) ;
#202 = VECTOR ( 'NONE', #306, 1000.000000000000000 ) ;
#203 = LINE ( 'NONE', #116, #579 ) ;
#204 = EDGE_CURVE ( 'NONE', #591, #446, #209, .T. ) ;
#205 = CARTESIAN_POINT ( 'NONE',  ( -13.00000000000000178, -5.999999999999996447, -4.000000000000000888 ) ) ;
#206 = PLANE ( 'NONE',  #435 ) ;
#207 = ORIENTED_EDGE ( 'NONE', *, *, #450, .T. ) ;
#208 = LINE ( 'NONE', #529, #226 ) ;
#209 = LINE ( 'NONE', #354, #377 ) ;
#210 = DIRECTION ( 'NONE',  ( 0.000000000000000000, -0.000000000000000000, -1.000000000000000000 ) ) ;
#211 = VERTEX_POINT ( 'NONE', #29 ) ;
#212 = DIRECTION ( 'NONE',  ( 0.000000000000000000, 0.000000000000000000, 1.000000000000000000 ) ) ;
#213 = PLANE ( 'NONE',  #378 ) ;
#214 = VECTOR ( 'NONE', #566, 1000.000000000000000 ) ;
#215 = EDGE_CURVE ( 'NONE', #177, #523, #181, .T. ) ;
#216 = VERTEX_POINT ( 'NONE', #606 ) ;
#217 = AXIS2_PLACEMENT_3D ( 'NONE', #524, #54, #6 ) ;
#218 = DIRECTION ( 'NONE',  ( 0.000000000000000000, 0.000000000000000000, 1.000000000000000000 ) ) ;
#219 = CARTESIAN_POINT ( 'NONE',  ( 16.99999999999999645, 9.000000000000001776, -4.000000000000000888 ) ) ;
#220 = PLANE ( 'NONE',  #280 ) ;
#221 = VERTEX_POINT ( 'NONE', #40 ) ;
#222 = ADVANCED_FACE ( 'NONE', ( #326 ), #3, .F. ) ;
#223 = PLANE ( 'NONE',  #261 ) ;
#224 = EDGE_LOOP ( 'NONE', ( #469, #207, #270, #35 ) ) ;
#225 = AXIS2_PLACEMENT_3D ( 'NONE', #112, #153, #533 ) ;
#226 = VECTOR ( 'NONE', #407, 1000.000000000000000 ) ;
#227 = DIRECTION ( 'NONE',  ( -0.000000000000000000, -0.000000000000000000, -1.000000000000000000 ) ) ;
#228 = ORIENTED_EDGE ( 'NONE', *, *, #514, .F. ) ;
#229 = DIRECTION ( 'NONE',  ( 0.000000000000000000, 0.000000000000000000, 1.000000000000000000 ) ) ;
#230 = CARTESIAN_POINT ( 'NONE',  ( 0.000000000000000000, 0.000000000000000000, 0.000000000000000000 ) ) ;
#231 = EDGE_LOOP ( 'NONE', ( #486, #474, #331, #561 ) ) ;
#232 = CARTESIAN_POINT ( 'NONE',  ( 13.00000000000000178, -5.999999999999996447, 3.999999999999999112 ) ) ;
#233 = ORIENTED_EDGE ( 'NONE', *, *, #441, .T. ) ;
#234 = ADVANCED_FACE ( 'NONE', ( #173, #369, #83 ), #223, .F. ) ;
#235 = AXIS2_PLACEMENT_3D ( 'NONE', #113, #247, #493 ) ;
#236 = DIRECTION ( 'NONE',  ( -1.000000000000000000, 0.000000000000000000, 0.000000000000000000 ) ) ;
#237 = ORIENTED_EDGE ( 'NONE', *, *, #168, .T. ) ;
#238 = ORIENTED_EDGE ( 'NONE', *, *, #275, .T. ) ;
#239 = ADVANCED_FACE ( 'NONE', ( #480 ), #329, .F. ) ;
#240 = CARTESIAN_POINT ( 'NONE',  ( -13.00000000000000178, -5.999999999999996447, 3.999999999999999112 ) ) ;
#241 = DIRECTION ( 'NONE',  ( -0.000000000000000000, -0.000000000000000000, -1.000000000000000000 ) ) ;
#242 =( NAMED_UNIT ( * ) SI_UNIT ( $, .STERADIAN. ) SOLID_ANGLE_UNIT ( ) );
#243 = DIRECTION ( 'NONE',  ( 1.000000000000000000, 0.000000000000000000, 0.000000000000000000 ) ) ;
#244 = CARTESIAN_POINT ( 'NONE',  ( -9.099999999999999645, 0.000000000000000000, 7.500000000000000000 ) ) ;
#245 = PRESENTATION_STYLE_ASSIGNMENT (( #110 ) ) ;
#246 = ORIENTED_EDGE ( 'NONE', *, *, #505, .T. ) ;
#247 = DIRECTION ( 'NONE',  ( 0.000000000000000000, 0.000000000000000000, 1.000000000000000000 ) ) ;
#248 = ADVANCED_FACE ( 'NONE', ( #511 ), #50, .F. ) ;
#249 = CARTESIAN_POINT ( 'NONE',  ( -9.099999999999999645, 0.000000000000000000, -7.500000000000000000 ) ) ;
#250 = DIRECTION ( 'NONE',  ( -9.637352644315597708E-17, -1.000000000000000000, 0.000000000000000000 ) ) ;
#251 = CARTESIAN_POINT ( 'NONE',  ( -7.500000000000000000, 0.000000000000000000, 7.500000000000000000 ) ) ;
#252 = CARTESIAN_POINT ( 'NONE',  ( 13.00000000000000178, -5.999999999999996447, -4.000000000000000888 ) ) ;
#253 = ORIENTED_EDGE ( 'NONE', *, *, #364, .F. ) ;
#254 = CARTESIAN_POINT ( 'NONE',  ( 7.500000000000000000, 0.000000000000000000, 7.500000000000000000 ) ) ;
#255 = DIRECTION ( 'NONE',  ( 0.000000000000000000, 0.000000000000000000, -1.000000000000000000 ) ) ;
#256 = DIRECTION ( 'NONE',  ( -9.637352644315596475E-17, -1.000000000000000000, 0.000000000000000000 ) ) ;
#257 = ORIENTED_EDGE ( 'NONE', *, *, #347, .T. ) ;
#258 = LINE ( 'NONE', #464, #42 ) ;
#259 = AXIS2_PLACEMENT_3D ( 'NONE', #288, #488, #62 ) ;
#260 = LINE ( 'NONE', #219, #202 ) ;
#261 = AXIS2_PLACEMENT_3D ( 'NONE', #316, #92, #614 ) ;
#262 = ORIENTED_EDGE ( 'NONE', *, *, #215, .T. ) ;
#263 = VECTOR ( 'NONE', #289, 1000.000000000000000 ) ;
#264 = DIRECTION ( 'NONE',  ( -0.000000000000000000, -0.000000000000000000, -1.000000000000000000 ) ) ;
#265 = VERTEX_POINT ( 'NONE', #381 ) ;
#266 = DIRECTION ( 'NONE',  ( 0.000000000000000000, -0.000000000000000000, -1.000000000000000000 ) ) ;
#267 = ORIENTED_EDGE ( 'NONE', *, *, #394, .F. ) ;
#268 = EDGE_CURVE ( 'NONE', #363, #211, #183, .T. ) ;
#269 = DIRECTION ( 'NONE',  ( -0.000000000000000000, -0.000000000000000000, -1.000000000000000000 ) ) ;
#270 = ORIENTED_EDGE ( 'NONE', *, *, #422, .F. ) ;
#271 = CIRCLE ( 'NONE', #9, 1.600000000000000755 ) ;
#272 = LINE ( 'NONE', #136, #400 ) ;
#273 = VERTEX_POINT ( 'NONE', #562 ) ;
#274 = FACE_BOUND ( 'NONE', #65, .T. ) ;
#275 = EDGE_CURVE ( 'NONE', #385, #602, #608, .T. ) ;
#276 = ORIENTED_EDGE ( 'NONE', *, *, #318, .F. ) ;
#277 = APPLICATION_CONTEXT ( 'automotive_design' ) ;
#278 = DIRECTION ( 'NONE',  ( 0.000000000000000000, 1.000000000000000000, 0.000000000000000000 ) ) ;
#279 = ORIENTED_EDGE ( 'NONE', *, *, #403, .F. ) ;
#280 = AXIS2_PLACEMENT_3D ( 'NONE', #22, #163, #124 ) ;
#281 = AXIS2_PLACEMENT_3D ( 'NONE', #476, #229, #430 ) ;
#282 = VECTOR ( 'NONE', #601, 1000.000000000000000 ) ;
#283 = ORIENTED_EDGE ( 'NONE', *, *, #358, .T. ) ;
#284 = FACE_OUTER_BOUND ( 'NONE', #55, .T. ) ;
#285 = ORIENTED_EDGE ( 'NONE', *, *, #438, .T. ) ;
#286 = DIRECTION ( 'NONE',  ( -0.000000000000000000, -0.000000000000000000, -1.000000000000000000 ) ) ;
#287 = LINE ( 'NONE', #146, #302 ) ;
#288 = CARTESIAN_POINT ( 'NONE',  ( 0.000000000000000000, 0.000000000000000000, -7.500000000000000000 ) ) ;
#289 = DIRECTION ( 'NONE',  ( -1.000000000000000000, -0.000000000000000000, -0.000000000000000000 ) ) ;
#290 = AXIS2_PLACEMENT_3D ( 'NONE', #185, #278, #130 ) ;
#291 = AXIS2_PLACEMENT_3D ( 'NONE', #254, #304, #502 ) ;
#292 = EDGE_LOOP ( 'NONE', ( #516, #609, #607, #246 ) ) ;
#293 = EDGE_CURVE ( 'NONE', #523, #177, #119, .T. ) ;
#294 = CYLINDRICAL_SURFACE ( 'NONE', #61, 1.600000000000001643 ) ;
#295 = DIRECTION ( 'NONE',  ( 0.000000000000000000, 0.000000000000000000, 1.000000000000000000 ) ) ;
#296 = CARTESIAN_POINT ( 'NONE',  ( 7.500000000000000000, 0.000000000000000000, 7.500000000000000000 ) ) ;
#297 = EDGE_CURVE ( 'NONE', #615, #109, #43, .T. ) ;
#298 = VECTOR ( 'NONE', #241, 1000.000000000000000 ) ;
#299 = AXIS2_PLACEMENT_3D ( 'NONE', #67, #264, #172 ) ;
#300 = DIRECTION ( 'NONE',  ( -1.000000000000000000, 0.000000000000000000, 0.000000000000000000 ) ) ;
#301 = DIRECTION ( 'NONE',  ( 9.637352644315595243E-17, 1.000000000000000000, 0.000000000000000000 ) ) ;
#302 = VECTOR ( 'NONE', #460, 1000.000000000000000 ) ;
#303 = EDGE_CURVE ( 'NONE', #216, #177, #518, .T. ) ;
#304 = DIRECTION ( 'NONE',  ( 0.000000000000000000, 0.000000000000000000, 1.000000000000000000 ) ) ;
#305 = CARTESIAN_POINT ( 'NONE',  ( 13.00000000000000355, 9.000000000000001776, 7.500000000000000000 ) ) ;
#306 = DIRECTION ( 'NONE',  ( -1.000000000000000000, -0.000000000000000000, -0.000000000000000000 ) ) ;
#307 = ORIENTED_EDGE ( 'NONE', *, *, #441, .F. ) ;
#308 = DIRECTION ( 'NONE',  ( -0.000000000000000000, -0.000000000000000000, -1.000000000000000000 ) ) ;
#309 = ORIENTED_EDGE ( 'NONE', *, *, #106, .T. ) ;
#310 = LINE ( 'NONE', #80, #547 ) ;
#311 = AXIS2_PLACEMENT_3D ( 'NONE', #296, #308, #36 ) ;
#312 =( NAMED_UNIT ( * ) PLANE_ANGLE_UNIT ( ) SI_UNIT ( $, .RADIAN. ) );
#313 = VECTOR ( 'NONE', #552, 1000.000000000000000 ) ;
#314 = VERTEX_POINT ( 'NONE', #374 ) ;
#315 = VECTOR ( 'NONE', #286, 1000.000000000000000 ) ;
#316 = CARTESIAN_POINT ( 'NONE',  ( 0.000000000000000000, 0.000000000000000000, 7.500000000000000000 ) ) ;
#317 = APPLICATION_PROTOCOL_DEFINITION ( 'draft international standard', 'automotive_design', 1998, #494 ) ;
#318 = EDGE_CURVE ( 'NONE', #337, #572, #436, .T. ) ;
#319 = ORIENTED_EDGE ( 'NONE', *, *, #204, .F. ) ;
#320 = CARTESIAN_POINT ( 'NONE',  ( -7.500000000000000000, 0.000000000000000000, 7.500000000000000000 ) ) ;
#321 = VERTEX_POINT ( 'NONE', #133 ) ;
#322 = DIRECTION ( 'NONE',  ( -0.000000000000000000, -0.000000000000000000, -1.000000000000000000 ) ) ;
#323 = EDGE_LOOP ( 'NONE', ( #382, #41, #267, #276 ) ) ;
#324 = AXIS2_PLACEMENT_3D ( 'NONE', #340, #350, #532 ) ;
#325 = ADVANCED_FACE ( 'NONE', ( #85, #274, #371 ), #478, .F. ) ;
#326 = FACE_OUTER_BOUND ( 'NONE', #520, .T. ) ;
#327 = ORIENTED_EDGE ( 'NONE', *, *, #87, .T. ) ;
#328 = PRODUCT_RELATED_PRODUCT_CATEGORY ( 'part', '', ( #396 ) ) ;
#329 = PLANE ( 'NONE',  #353 ) ;
#330 = APPLICATION_PROTOCOL_DEFINITION ( 'draft international standard', 'automotive_design', 1998, #277 ) ;
#331 = ORIENTED_EDGE ( 'NONE', *, *, #368, .T. ) ;
#332 = DIRECTION ( 'NONE',  ( -1.000000000000000000, -0.000000000000000000, -0.000000000000000000 ) ) ;
#333 = EDGE_CURVE ( 'NONE', #273, #321, #272, .T. ) ;
#334 = ORIENTED_EDGE ( 'NONE', *, *, #135, .T. ) ;
#335 =( GEOMETRIC_REPRESENTATION_CONTEXT ( 3 ) GLOBAL_UNCERTAINTY_ASSIGNED_CONTEXT ( ( #424 ) ) GLOBAL_UNIT_ASSIGNED_CONTEXT ( ( #598, #312, #604 ) ) REPRESENTATION_CONTEXT ( 'NONE', 'WORKASPACE' ) );
#336 = DIRECTION ( 'NONE',  ( 0.000000000000000000, -0.000000000000000000, -1.000000000000000000 ) ) ;
#337 = VERTEX_POINT ( 'NONE', #232 ) ;
#338 = DIRECTION ( 'NONE',  ( 0.000000000000000000, 0.000000000000000000, -1.000000000000000000 ) ) ;
#339 = EDGE_CURVE ( 'NONE', #363, #385, #200, .T. ) ;
#340 = CARTESIAN_POINT ( 'NONE',  ( -7.500000000000000000, 0.000000000000000000, 7.500000000000000000 ) ) ;
#341 = FACE_BOUND ( 'NONE', #495, .T. ) ;
#342 = DIRECTION ( 'NONE',  ( 0.000000000000000000, 0.000000000000000000, 1.000000000000000000 ) ) ;
#343 = LINE ( 'NONE', #244, #298 ) ;
#344 = CARTESIAN_POINT ( 'NONE',  ( -5.899999999999998579, 1.959434878635765723E-16, -4.000000000000000000 ) ) ;
#345 = ADVANCED_FACE ( 'NONE', ( #610 ), #433, .F. ) ;
#346 = DIRECTION ( 'NONE',  ( 1.000000000000000000, 0.000000000000000000, 0.000000000000000000 ) ) ;
#347 = EDGE_CURVE ( 'NONE', #321, #86, #383, .T. ) ;
#348 = FACE_OUTER_BOUND ( 'NONE', #372, .T. ) ;
#349 =( LENGTH_UNIT ( ) NAMED_UNIT ( * ) SI_UNIT ( .MILLI., .METRE. ) );
#350 = DIRECTION ( 'NONE',  ( -0.000000000000000000, -0.000000000000000000, -1.000000000000000000 ) ) ;
#351 = DIRECTION ( 'NONE',  ( -0.000000000000000000, -0.000000000000000000, -1.000000000000000000 ) ) ;
#352 = CARTESIAN_POINT ( 'NONE',  ( 13.00000000000000178, -8.999999999999998224, 7.500000000000000000 ) ) ;
#353 = AXIS2_PLACEMENT_3D ( 'NONE', #515, #89, #266 ) ;
#354 = CARTESIAN_POINT ( 'NONE',  ( 16.99999999999999645, -5.999999999999996447, -4.000000000000000888 ) ) ;
#355 = AXIS2_PLACEMENT_3D ( 'NONE', #582, #295, #536 ) ;
#356 = ORIENTED_EDGE ( 'NONE', *, *, #466, .T. ) ;
#357 = AXIS2_PLACEMENT_3D ( 'NONE', #230, #522, #179 ) ;
#358 = EDGE_CURVE ( 'NONE', #380, #591, #575, .T. ) ;
#359 = CARTESIAN_POINT ( 'NONE',  ( -9.099999999999999645, 0.000000000000000000, -4.000000000000000000 ) ) ;
#360 = ORIENTED_EDGE ( 'NONE', *, *, #106, .F. ) ;
#361 = CARTESIAN_POINT ( 'NONE',  ( -13.00000000000000178, -8.999999999999998224, -7.500000000000000000 ) ) ;
#362 = CARTESIAN_POINT ( 'NONE',  ( 13.00000000000000355, 9.000000000000001776, 7.500000000000000000 ) ) ;
#363 = VERTEX_POINT ( 'NONE', #8 ) ;
#364 = EDGE_CURVE ( 'NONE', #337, #437, #60, .T. ) ;
#365 = DIRECTION ( 'NONE',  ( 0.000000000000000000, 0.000000000000000000, 1.000000000000000000 ) ) ;
#366 = EDGE_LOOP ( 'NONE', ( #134, #605 ) ) ;
#367 = AXIS2_PLACEMENT_3D ( 'NONE', #592, #527, #442 ) ;
#368 = EDGE_CURVE ( 'NONE', #615, #513, #287, .T. ) ;
#369 = FACE_BOUND ( 'NONE', #366, .T. ) ;
#370 = ORIENTED_EDGE ( 'NONE', *, *, #612, .F. ) ;
#371 = FACE_OUTER_BOUND ( 'NONE', #4, .T. ) ;
#372 = EDGE_LOOP ( 'NONE', ( #581, #309, #148, #118 ) ) ;
#373 = EDGE_CURVE ( 'NONE', #380, #574, #203, .T. ) ;
#374 = CARTESIAN_POINT ( 'NONE',  ( 13.00000000000000178, -8.999999999999998224, -7.500000000000000000 ) ) ;
#375 = AXIS2_PLACEMENT_3D ( 'NONE', #580, #451, #346 ) ;
#376 = ORIENTED_EDGE ( 'NONE', *, *, #204, .T. ) ;
#377 = VECTOR ( 'NONE', #550, 1000.000000000000000 ) ;
#378 = AXIS2_PLACEMENT_3D ( 'NONE', #456, #416, #210 ) ;
#379 = CARTESIAN_POINT ( 'NONE',  ( 16.99999999999999645, -5.999999999999996447, -4.000000000000000888 ) ) ;
#380 = VERTEX_POINT ( 'NONE', #548 ) ;
#381 = CARTESIAN_POINT ( 'NONE',  ( 9.100000000000001421, 1.959434878635766463E-16, -4.000000000000000000 ) ) ;
#382 = ORIENTED_EDGE ( 'NONE', *, *, #364, .T. ) ;
#383 = LINE ( 'NONE', #158, #413 ) ;
#384 = ADVANCED_FACE ( 'NONE', ( #439 ), #390, .F. ) ;
#385 = VERTEX_POINT ( 'NONE', #120 ) ;
#386 = SURFACE_SIDE_STYLE ('',( #588 ) ) ;
#387 = CIRCLE ( 'NONE', #375, 1.599999999999999867 ) ;
#388 = AXIS2_PLACEMENT_3D ( 'NONE', #122, #212, #236 ) ;
#389 = PRESENTATION_LAYER_ASSIGNMENT (  '', '', ( #1 ) ) ;
#390 = CYLINDRICAL_SURFACE ( 'NONE', #324, 1.600000000000000755 ) ;
#391 = FACE_OUTER_BOUND ( 'NONE', #96, .T. ) ;
#392 = CARTESIAN_POINT ( 'NONE',  ( 9.100000000000001421, 1.959434878635766463E-16, 3.999999999999999112 ) ) ;
#393 = ORIENTED_EDGE ( 'NONE', *, *, #422, .T. ) ;
#394 = EDGE_CURVE ( 'NONE', #572, #109, #190, .T. ) ;
#395 = FACE_BOUND ( 'NONE', #171, .T. ) ;
#396 = PRODUCT ( '11', '11', '', ( #93 ) ) ;
#397 = CARTESIAN_POINT ( 'NONE',  ( -13.00000000000000178, 9.000000000000001776, -7.500000000000000000 ) ) ;
#398 = ADVANCED_FACE ( 'NONE', ( #284 ), #499, .F. ) ;
#399 = CIRCLE ( 'NONE', #411, 1.599999999999999867 ) ;
#400 = VECTOR ( 'NONE', #322, 1000.000000000000000 ) ;
#401 = FACE_OUTER_BOUND ( 'NONE', #49, .T. ) ;
#402 = FILL_AREA_STYLE ('',( #156 ) ) ;
#403 = EDGE_CURVE ( 'NONE', #38, #526, #208, .T. ) ;
#404 = CARTESIAN_POINT ( 'NONE',  ( 7.500000000000000000, 0.000000000000000000, 7.500000000000000000 ) ) ;
#405 = CARTESIAN_POINT ( 'NONE',  ( -7.500000000000000000, 0.000000000000000000, -4.000000000000000000 ) ) ;
#406 = ORIENTED_EDGE ( 'NONE', *, *, #168, .F. ) ;
#407 = DIRECTION ( 'NONE',  ( -0.000000000000000000, -0.000000000000000000, -1.000000000000000000 ) ) ;
#408 = DIRECTION ( 'NONE',  ( 0.000000000000000000, 0.000000000000000000, 1.000000000000000000 ) ) ;
#409 = PRODUCT_DEFINITION_CONTEXT ( 'detailed design', #277, 'design' ) ;
#410 = ORIENTED_EDGE ( 'NONE', *, *, #293, .T. ) ;
#411 = AXIS2_PLACEMENT_3D ( 'NONE', #251, #458, #26 ) ;
#412 = DIRECTION ( 'NONE',  ( -1.000000000000000000, 0.000000000000000000, 0.000000000000000000 ) ) ;
#413 = VECTOR ( 'NONE', #187, 1000.000000000000000 ) ;
#414 = CARTESIAN_POINT ( 'NONE',  ( -13.00000000000000178, -5.999999999999996447, 3.999999999999999112 ) ) ;
#415 = CARTESIAN_POINT ( 'NONE',  ( 7.500000000000000000, 0.000000000000000000, -4.000000000000000000 ) ) ;
#416 = DIRECTION ( 'NONE',  ( 0.000000000000000000, -1.000000000000000000, 0.000000000000000000 ) ) ;
#417 = ORIENTED_EDGE ( 'NONE', *, *, #505, .F. ) ;
#418 = EDGE_CURVE ( 'NONE', #513, #221, #573, .T. ) ;
#419 = CARTESIAN_POINT ( 'NONE',  ( -5.899999999999998579, 1.959434878635765723E-16, -7.500000000000000000 ) ) ;
#420 = DIRECTION ( 'NONE',  ( 0.000000000000000000, 0.000000000000000000, -1.000000000000000000 ) ) ;
#421 = ORIENTED_EDGE ( 'NONE', *, *, #115, .T. ) ;
#422 = EDGE_CURVE ( 'NONE', #167, #94, #79, .T. ) ;
#423 = DIRECTION ( 'NONE',  ( 9.637352644315597708E-17, 1.000000000000000000, -0.000000000000000000 ) ) ;
#424 = UNCERTAINTY_MEASURE_WITH_UNIT (LENGTH_MEASURE( 1.000000000000000082E-05 ), #598, 'distance_accuracy_value', 'NONE');
#425 = ORIENTED_EDGE ( 'NONE', *, *, #428, .F. ) ;
#426 = CIRCLE ( 'NONE', #99, 1.600000000000000755 ) ;
#427 = DIRECTION ( 'NONE',  ( -1.000000000000000000, 0.000000000000000000, 0.000000000000000000 ) ) ;
#428 = EDGE_CURVE ( 'NONE', #38, #180, #182, .T. ) ;
#429 = ORIENTED_EDGE ( 'NONE', *, *, #87, .F. ) ;
#430 = DIRECTION ( 'NONE',  ( 1.000000000000000000, 0.000000000000000000, 0.000000000000000000 ) ) ;
#431 = PRODUCT_DEFINITION ( 'ๆ', '', #70, #409 ) ;
#432 = ORIENTED_EDGE ( 'NONE', *, *, #612, .T. ) ;
#433 = CYLINDRICAL_SURFACE ( 'NONE', #217, 1.600000000000000755 ) ;
#434 = ORIENTED_EDGE ( 'NONE', *, *, #438, .F. ) ;
#435 = AXIS2_PLACEMENT_3D ( 'NONE', #512, #72, #256 ) ;
#436 = LINE ( 'NONE', #571, #463 ) ;
#437 = VERTEX_POINT ( 'NONE', #240 ) ;
#438 = EDGE_CURVE ( 'NONE', #526, #73, #111, .T. ) ;
#439 = FACE_OUTER_BOUND ( 'NONE', #224, .T. ) ;
#440 = ORIENTED_EDGE ( 'NONE', *, *, #303, .T. ) ;
#441 = EDGE_CURVE ( 'NONE', #211, #602, #44, .T. ) ;
#442 = DIRECTION ( 'NONE',  ( 1.000000000000000000, 0.000000000000000000, 0.000000000000000000 ) ) ;
#443 = FACE_OUTER_BOUND ( 'NONE', #195, .T. ) ;
#444 = AXIS2_PLACEMENT_3D ( 'NONE', #320, #269, #46 ) ;
#445 = EDGE_CURVE ( 'NONE', #446, #437, #449, .T. ) ;
#446 = VERTEX_POINT ( 'NONE', #447 ) ;
#447 = CARTESIAN_POINT ( 'NONE',  ( -13.00000000000000178, -5.999999999999996447, -4.000000000000000888 ) ) ;
#448 = ORIENTED_EDGE ( 'NONE', *, *, #115, .F. ) ;
#449 = LINE ( 'NONE', #452, #491 ) ;
#450 = EDGE_CURVE ( 'NONE', #484, #94, #198, .T. ) ;
#451 = DIRECTION ( 'NONE',  ( 0.000000000000000000, 0.000000000000000000, 1.000000000000000000 ) ) ;
#452 = CARTESIAN_POINT ( 'NONE',  ( -13.00000000000000178, -5.999999999999996447, -4.000000000000000888 ) ) ;
#453 = CIRCLE ( 'NONE', #147, 1.600000000000001643 ) ;
#454 = VECTOR ( 'NONE', #590, 1000.000000000000000 ) ;
#455 = CARTESIAN_POINT ( 'NONE',  ( 5.899999999999997691, 0.000000000000000000, 3.999999999999999112 ) ) ;
#456 = CARTESIAN_POINT ( 'NONE',  ( -13.00000000000000178, 9.000000000000001776, 7.500000000000000000 ) ) ;
#457 = EDGE_CURVE ( 'NONE', #73, #526, #88, .T. ) ;
#458 = DIRECTION ( 'NONE',  ( 0.000000000000000000, 0.000000000000000000, 1.000000000000000000 ) ) ;
#459 = FACE_OUTER_BOUND ( 'NONE', #292, .T. ) ;
#460 = DIRECTION ( 'NONE',  ( -0.000000000000000000, -1.000000000000000000, -0.000000000000000000 ) ) ;
#461 = LINE ( 'NONE', #205, #313 ) ;
#462 = EDGE_LOOP ( 'NONE', ( #406, #425 ) ) ;
#463 = VECTOR ( 'NONE', #423, 1000.000000000000000 ) ;
#464 = CARTESIAN_POINT ( 'NONE',  ( 13.00000000000000178, -5.999999999999996447, 7.500000000000000000 ) ) ;
#465 = VECTOR ( 'NONE', #16, 1000.000000000000000 ) ;
#466 = EDGE_CURVE ( 'NONE', #180, #73, #19, .T. ) ;
#467 = ORIENTED_EDGE ( 'NONE', *, *, #5, .T. ) ;
#468 = FACE_BOUND ( 'NONE', #557, .T. ) ;
#469 = ORIENTED_EDGE ( 'NONE', *, *, #594, .F. ) ;
#470 = CARTESIAN_POINT ( 'NONE',  ( -13.00000000000000178, 9.000000000000001776, 7.500000000000000000 ) ) ;
#471 = ORIENTED_EDGE ( 'NONE', *, *, #466, .F. ) ;
#472 = CARTESIAN_POINT ( 'NONE',  ( 7.500000000000000000, 0.000000000000000000, -7.500000000000000000 ) ) ;
#473 = AXIS2_PLACEMENT_3D ( 'NONE', #128, #408, #506 ) ;
#474 = ORIENTED_EDGE ( 'NONE', *, *, #482, .T. ) ;
#475 = MECHANICAL_DESIGN_GEOMETRIC_PRESENTATION_REPRESENTATION (  '', ( #1 ), #596 ) ;
#476 = CARTESIAN_POINT ( 'NONE',  ( -7.500000000000000000, 0.000000000000000000, 7.500000000000000000 ) ) ;
#477 = ORIENTED_EDGE ( 'NONE', *, *, #339, .T. ) ;
#478 = PLANE ( 'NONE',  #537 ) ;
#479 = EDGE_LOOP ( 'NONE', ( #360, #510, #440, #188 ) ) ;
#480 = FACE_OUTER_BOUND ( 'NONE', #78, .T. ) ;
#481 = ORIENTED_EDGE ( 'NONE', *, *, #25, .T. ) ;
#482 = EDGE_CURVE ( 'NONE', #587, #615, #534, .T. ) ;
#483 = AXIS2_PLACEMENT_3D ( 'NONE', #162, #196, #540 ) ;
#484 = VERTEX_POINT ( 'NONE', #344 ) ;
#485 = DIRECTION ( 'NONE',  ( -0.000000000000000000, -0.000000000000000000, -1.000000000000000000 ) ) ;
#486 = ORIENTED_EDGE ( 'NONE', *, *, #541, .T. ) ;
#487 = CARTESIAN_POINT ( 'NONE',  ( 5.899999999999997691, 0.000000000000000000, 7.500000000000000000 ) ) ;
#488 = DIRECTION ( 'NONE',  ( 0.000000000000000000, 0.000000000000000000, -1.000000000000000000 ) ) ;
#489 = LINE ( 'NONE', #397, #149 ) ;
#490 = VECTOR ( 'NONE', #95, 1000.000000000000000 ) ;
#491 = VECTOR ( 'NONE', #342, 1000.000000000000000 ) ;
#492 = ORIENTED_EDGE ( 'NONE', *, *, #135, .F. ) ;
#493 = DIRECTION ( 'NONE',  ( 1.000000000000000000, 0.000000000000000000, 0.000000000000000000 ) ) ;
#494 = APPLICATION_CONTEXT ( 'automotive_design' ) ;
#495 = EDGE_LOOP ( 'NONE', ( #393, #421 ) ) ;
#496 = DIRECTION ( 'NONE',  ( -1.000000000000000000, -0.000000000000000000, -0.000000000000000000 ) ) ;
#497 = LINE ( 'NONE', #558, #138 ) ;
#498 = CARTESIAN_POINT ( 'NONE',  ( -13.00000000000000178, 9.000000000000001776, 7.500000000000000000 ) ) ;
#499 = PLANE ( 'NONE',  #549 ) ;
#500 = CYLINDRICAL_SURFACE ( 'NONE', #299, 1.600000000000001643 ) ;
#501 = ORIENTED_EDGE ( 'NONE', *, *, #482, .F. ) ;
#502 = DIRECTION ( 'NONE',  ( -1.000000000000000000, 0.000000000000000000, 0.000000000000000000 ) ) ;
#503 = FACE_OUTER_BOUND ( 'NONE', #323, .T. ) ;
#504 = EDGE_LOOP ( 'NONE', ( #132, #477, #238, #307 ) ) ;
#505 = EDGE_CURVE ( 'NONE', #574, #321, #489, .T. ) ;
#506 = DIRECTION ( 'NONE',  ( 1.000000000000000000, 0.000000000000000000, 0.000000000000000000 ) ) ;
#507 = ORIENTED_EDGE ( 'NONE', *, *, #127, .T. ) ;
#508 = FACE_OUTER_BOUND ( 'NONE', #161, .T. ) ;
#509 = CARTESIAN_POINT ( 'NONE',  ( 13.00000000000000178, -8.999999999999998224, -7.500000000000000000 ) ) ;
#510 = ORIENTED_EDGE ( 'NONE', *, *, #525, .F. ) ;
#511 = FACE_OUTER_BOUND ( 'NONE', #504, .T. ) ;
#512 = CARTESIAN_POINT ( 'NONE',  ( 13.00000000000000178, -8.999999999999998224, 7.500000000000000000 ) ) ;
#513 = VERTEX_POINT ( 'NONE', #11 ) ;
#514 = EDGE_CURVE ( 'NONE', #221, #314, #584, .T. ) ;
#515 = CARTESIAN_POINT ( 'NONE',  ( 16.99999999999999645, -5.999999999999996447, -4.000000000000000888 ) ) ;
#516 = ORIENTED_EDGE ( 'NONE', *, *, #333, .F. ) ;
#517 = MANIFOLD_SOLID_BREP ( '\X2\52079664\X0\-\X2\62c94f38\X0\2', #107 ) ;
#518 = LINE ( 'NONE', #178, #567 ) ;
#519 = AXIS2_PLACEMENT_3D ( 'NONE', #415, #159, #412 ) ;
#520 = EDGE_LOOP ( 'NONE', ( #155, #228, #528, #129 ) ) ;
#521 = CARTESIAN_POINT ( 'NONE',  ( -5.899999999999999467, 1.959434878635765230E-16, 7.500000000000000000 ) ) ;
#522 = DIRECTION ( 'NONE',  ( 0.000000000000000000, 0.000000000000000000, 1.000000000000000000 ) ) ;
#523 = VERTEX_POINT ( 'NONE', #189 ) ;
#524 = CARTESIAN_POINT ( 'NONE',  ( -7.500000000000000000, 0.000000000000000000, 7.500000000000000000 ) ) ;
#525 = EDGE_CURVE ( 'NONE', #216, #265, #121, .T. ) ;
#526 = VERTEX_POINT ( 'NONE', #392 ) ;
#527 = DIRECTION ( 'NONE',  ( 0.000000000000000000, 0.000000000000000000, 1.000000000000000000 ) ) ;
#528 = ORIENTED_EDGE ( 'NONE', *, *, #418, .F. ) ;
#529 = CARTESIAN_POINT ( 'NONE',  ( 9.100000000000001421, 1.959434878635767449E-16, 7.500000000000000000 ) ) ;
#530 = ORIENTED_EDGE ( 'NONE', *, *, #275, .F. ) ;
#531 = ADVANCED_FACE ( 'NONE', ( #37 ), #206, .F. ) ;
#532 = DIRECTION ( 'NONE',  ( -1.000000000000000000, 0.000000000000000000, 0.000000000000000000 ) ) ;
#533 = DIRECTION ( 'NONE',  ( -1.000000000000000000, 0.000000000000000000, 0.000000000000000000 ) ) ;
#534 = LINE ( 'NONE', #498, #263 ) ;
#535 = CYLINDRICAL_SURFACE ( 'NONE', #225, 1.600000000000000755 ) ;
#536 = DIRECTION ( 'NONE',  ( 1.000000000000000000, 0.000000000000000000, 0.000000000000000000 ) ) ;
#537 = AXIS2_PLACEMENT_3D ( 'NONE', #379, #564, #48 ) ;
#538 = VECTOR ( 'NONE', #69, 1000.000000000000000 ) ;
#539 = DIRECTION ( 'NONE',  ( 0.000000000000000000, 0.000000000000000000, -1.000000000000000000 ) ) ;
#540 = DIRECTION ( 'NONE',  ( 1.000000000000000000, 0.000000000000000000, 0.000000000000000000 ) ) ;
#541 = EDGE_CURVE ( 'NONE', #221, #587, #160, .T. ) ;
#542 = CYLINDRICAL_SURFACE ( 'NONE', #311, 1.600000000000001643 ) ;
#543 = CARTESIAN_POINT ( 'NONE',  ( 16.99999999999999645, 9.000000000000001776, 3.999999999999999112 ) ) ;
#544 = DIRECTION ( 'NONE',  ( -1.000000000000000000, 0.000000000000000000, 0.000000000000000000 ) ) ;
#545 = CARTESIAN_POINT ( 'NONE',  ( 13.00000000000000355, 9.000000000000001776, -7.500000000000000000 ) ) ;
#546 = EDGE_LOOP ( 'NONE', ( #370, #76, #14, #417 ) ) ;
#547 = VECTOR ( 'NONE', #166, 1000.000000000000000 ) ;
#548 = CARTESIAN_POINT ( 'NONE',  ( 13.00000000000000178, 9.000000000000001776, -4.000000000000000888 ) ) ;
#549 = AXIS2_PLACEMENT_3D ( 'NONE', #24, #57, #336 ) ;
#550 = DIRECTION ( 'NONE',  ( -1.000000000000000000, -0.000000000000000000, -0.000000000000000000 ) ) ;
#551 = EDGE_CURVE ( 'NONE', #380, #273, #260, .T. ) ;
#552 = DIRECTION ( 'NONE',  ( -0.000000000000000000, -1.000000000000000000, -0.000000000000000000 ) ) ;
#553 = ORIENTED_EDGE ( 'NONE', *, *, #25, .F. ) ;
#554 = EDGE_CURVE ( 'NONE', #86, #314, #125, .T. ) ;
#555 = CARTESIAN_POINT ( 'NONE',  ( -13.00000000000000178, 9.000000000000001776, 3.999999999999999112 ) ) ;
#556 = CARTESIAN_POINT ( 'NONE',  ( -13.00000000000000178, 9.000000000000001776, 7.500000000000000000 ) ) ;
#557 = EDGE_LOOP ( 'NONE', ( #481, #233 ) ) ;
#558 = CARTESIAN_POINT ( 'NONE',  ( 9.100000000000001421, 1.959434878635767449E-16, 7.500000000000000000 ) ) ;
#559 = VECTOR ( 'NONE', #75, 1000.000000000000000 ) ;
#560 = DIRECTION ( 'NONE',  ( -1.000000000000000000, 0.000000000000000000, 0.000000000000000000 ) ) ;
#561 = ORIENTED_EDGE ( 'NONE', *, *, #418, .T. ) ;
#562 = CARTESIAN_POINT ( 'NONE',  ( -13.00000000000000178, 9.000000000000001776, -4.000000000000000888 ) ) ;
#563 = ORIENTED_EDGE ( 'NONE', *, *, #268, .T. ) ;
#564 = DIRECTION ( 'NONE',  ( 0.000000000000000000, 0.000000000000000000, -1.000000000000000000 ) ) ;
#565 = ORIENTED_EDGE ( 'NONE', *, *, #576, .F. ) ;
#566 = DIRECTION ( 'NONE',  ( -0.000000000000000000, -0.000000000000000000, -1.000000000000000000 ) ) ;
#567 = VECTOR ( 'NONE', #176, 1000.000000000000000 ) ;
#568 = ORIENTED_EDGE ( 'NONE', *, *, #68, .T. ) ;
#569 = VECTOR ( 'NONE', #101, 1000.000000000000000 ) ;
#570 = ADVANCED_FACE ( 'NONE', ( #459 ), #213, .F. ) ;
#571 = CARTESIAN_POINT ( 'NONE',  ( 13.00000000000000178, -8.999999999999998224, 3.999999999999999112 ) ) ;
#572 = VERTEX_POINT ( 'NONE', #27 ) ;
#573 = LINE ( 'NONE', #97, #569 ) ;
#574 = VERTEX_POINT ( 'NONE', #545 ) ;
#575 = LINE ( 'NONE', #104, #139 ) ;
#576 = EDGE_CURVE ( 'NONE', #437, #109, #23, .T. ) ;
#577 = EDGE_LOOP ( 'NONE', ( #18, #186, #467, #448 ) ) ;
#578 = AXIS2_PLACEMENT_3D ( 'NONE', #404, #351, #600 ) ;
#579 = VECTOR ( 'NONE', #485, 1000.000000000000000 ) ;
#580 = CARTESIAN_POINT ( 'NONE',  ( -7.500000000000000000, 0.000000000000000000, 3.999999999999999112 ) ) ;
#581 = ORIENTED_EDGE ( 'NONE', *, *, #68, .F. ) ;
#582 = CARTESIAN_POINT ( 'NONE',  ( -7.500000000000000000, 0.000000000000000000, 3.999999999999999112 ) ) ;
#583 = CARTESIAN_POINT ( 'NONE',  ( -13.00000000000000178, -8.999999999999998224, 7.500000000000000000 ) ) ;
#584 = LINE ( 'NONE', #66, #315 ) ;
#585 = AXIS2_PLACEMENT_3D ( 'NONE', #583, #243, #539 ) ;
#586 = VECTOR ( 'NONE', #103, 1000.000000000000000 ) ;
#587 = VERTEX_POINT ( 'NONE', #362 ) ;
#588 = SURFACE_STYLE_FILL_AREA ( #402 ) ;
#589 = CARTESIAN_POINT ( 'NONE',  ( 7.500000000000000000, 0.000000000000000000, 7.500000000000000000 ) ) ;
#590 = DIRECTION ( 'NONE',  ( 9.637352644315595243E-17, 1.000000000000000000, 0.000000000000000000 ) ) ;
#591 = VERTEX_POINT ( 'NONE', #252 ) ;
#592 = CARTESIAN_POINT ( 'NONE',  ( -7.500000000000000000, 0.000000000000000000, -7.500000000000000000 ) ) ;
#593 = CARTESIAN_POINT ( 'NONE',  ( 5.899999999999997691, 0.000000000000000000, 7.500000000000000000 ) ) ;
#594 = EDGE_CURVE ( 'NONE', #484, #145, #426, .T. ) ;
#595 = ORIENTED_EDGE ( 'NONE', *, *, #368, .F. ) ;
#596 =( GEOMETRIC_REPRESENTATION_CONTEXT ( 3 ) GLOBAL_UNCERTAINTY_ASSIGNED_CONTEXT ( ( #12 ) ) GLOBAL_UNIT_ASSIGNED_CONTEXT ( ( #349, #59, #242 ) ) REPRESENTATION_CONTEXT ( 'NONE', 'WORKASPACE' ) );
#597 = LINE ( 'NONE', #305, #51 ) ;
#598 =( LENGTH_UNIT ( ) NAMED_UNIT ( * ) SI_UNIT ( .MILLI., .METRE. ) );
#599 = ORIENTED_EDGE ( 'NONE', *, *, #457, .F. ) ;
#600 = DIRECTION ( 'NONE',  ( -1.000000000000000000, 0.000000000000000000, 0.000000000000000000 ) ) ;
#601 = DIRECTION ( 'NONE',  ( 0.000000000000000000, 1.000000000000000000, 0.000000000000000000 ) ) ;
#602 = VERTEX_POINT ( 'NONE', #170 ) ;
#603 = DIRECTION ( 'NONE',  ( -0.000000000000000000, -0.000000000000000000, -1.000000000000000000 ) ) ;
#604 =( NAMED_UNIT ( * ) SI_UNIT ( $, .STERADIAN. ) SOLID_ANGLE_UNIT ( ) );
#605 = ORIENTED_EDGE ( 'NONE', *, *, #339, .F. ) ;
#606 = CARTESIAN_POINT ( 'NONE',  ( 5.899999999999997691, 0.000000000000000000, -4.000000000000000000 ) ) ;
#607 = ORIENTED_EDGE ( 'NONE', *, *, #373, .T. ) ;
#608 = LINE ( 'NONE', #140, #214 ) ;
#609 = ORIENTED_EDGE ( 'NONE', *, *, #551, .F. ) ;
#610 = FACE_OUTER_BOUND ( 'NONE', #577, .T. ) ;
#611 = ORIENTED_EDGE ( 'NONE', *, *, #174, .T. ) ;
#612 = EDGE_CURVE ( 'NONE', #314, #574, #131, .T. ) ;
#613 = CIRCLE ( 'NONE', #519, 1.600000000000001643 ) ;
#614 = DIRECTION ( 'NONE',  ( -1.000000000000000000, 0.000000000000000000, -0.000000000000000000 ) ) ;
#615 = VERTEX_POINT ( 'NONE', #556 ) ;
ENDSEC;
END-ISO-10303-21;
