ISO-10303-21;
HEADER;
FILE_DESCRIPTION (( 'STEP AP214' ),
    '1' );
FILE_NAME ('22.STEP',
    '2026-05-01T12:09:33',
    ( '' ),
    ( '' ),
    'SwSTEP 2.0',
    'SolidWorks 2025',
    '' );
FILE_SCHEMA (( 'AUTOMOTIVE_DESIGN' ));
ENDSEC;

DATA;
#1 = ORIENTED_EDGE ( 'NONE', *, *, #784, .F. ) ;
#2 = DIRECTION ( 'NONE',  ( -1.000000000000000000, 0.000000000000000000, -0.000000000000000000 ) ) ;
#3 = CARTESIAN_POINT ( 'NONE',  ( 0.000000000000000000, -10.00000000000000000, -10.50000000000000000 ) ) ;
#4 = DIRECTION ( 'NONE',  ( 0.000000000000000000, 0.000000000000000000, -1.000000000000000000 ) ) ;
#5 = ORIENTED_EDGE ( 'NONE', *, *, #542, .F. ) ;
#6 = EDGE_CURVE ( 'NONE', #273, #426, #871, .T. ) ;
#7 = DIRECTION ( 'NONE',  ( 0.000000000000000000, 0.000000000000000000, -1.000000000000000000 ) ) ;
#8 = LINE ( 'NONE', #782, #205 ) ;
#9 = CARTESIAN_POINT ( 'NONE',  ( 0.000000000000000000, 2.000000000000000000, 3.000000000000000000 ) ) ;
#10 = ORIENTED_EDGE ( 'NONE', *, *, #550, .F. ) ;
#11 = ORIENTED_EDGE ( 'NONE', *, *, #719, .F. ) ;
#12 = AXIS2_PLACEMENT_3D ( 'NONE', #206, #566, #960 ) ;
#13 = LINE ( 'NONE', #749, #202 ) ;
#14 = ADVANCED_FACE ( 'NONE', ( #470 ), #1249, .F. ) ;
#15 = DIRECTION ( 'NONE',  ( 1.000000000000000000, -0.000000000000000000, 0.000000000000000000 ) ) ;
#16 = DIRECTION ( 'NONE',  ( 0.000000000000000000, 0.000000000000000000, 1.000000000000000000 ) ) ;
#17 = VECTOR ( 'NONE', #476, 1000.000000000000000 ) ;
#18 = VERTEX_POINT ( 'NONE', #772 ) ;
#19 = VECTOR ( 'NONE', #188, 1000.000000000000000 ) ;
#20 = AXIS2_PLACEMENT_3D ( 'NONE', #3, #300, #1169 ) ;
#21 = VERTEX_POINT ( 'NONE', #760 ) ;
#22 = ADVANCED_FACE ( 'NONE', ( #388 ), #478, .F. ) ;
#23 = DIRECTION ( 'NONE',  ( 0.000000000000000000, 0.000000000000000000, 1.000000000000000000 ) ) ;
#24 = CARTESIAN_POINT ( 'NONE',  ( 10.50000000000076206, 0.000000000000000000, -1.150000000001304645 ) ) ;
#25 = CARTESIAN_POINT ( 'NONE',  ( 3.000000000000000444, 2.000000000000000000, 10.99999999999996447 ) ) ;
#26 = EDGE_LOOP ( 'NONE', ( #343, #251, #10, #1100 ) ) ;
#27 = CARTESIAN_POINT ( 'NONE',  ( 0.000000000000000000, 0.000000000000000000, -1.500000000000000222 ) ) ;
#28 = CARTESIAN_POINT ( 'NONE',  ( -2.999999999999999556, 0.000000000000000000, -0.000000000000000000 ) ) ;
#29 = ORIENTED_EDGE ( 'NONE', *, *, #455, .F. ) ;
#30 = PLANE ( 'NONE',  #261 ) ;
#31 = DIRECTION ( 'NONE',  ( 0.000000000000000000, 0.000000000000000000, 1.000000000000000000 ) ) ;
#32 = EDGE_CURVE ( 'NONE', #781, #1216, #37, .T. ) ;
#33 = FACE_BOUND ( 'NONE', #488, .T. ) ;
#34 = VERTEX_POINT ( 'NONE', #577 ) ;
#35 = DIRECTION ( 'NONE',  ( 0.000000000000000000, 1.000000000000000000, 0.000000000000000000 ) ) ;
#36 = CARTESIAN_POINT ( 'NONE',  ( 0.000000000000000000, 0.000000000000000000, 0.000000000000000000 ) ) ;
#37 = CIRCLE ( 'NONE', #12, 1.150000000001569989 ) ;
#38 = EDGE_LOOP ( 'NONE', ( #945, #838, #86, #588 ) ) ;
#39 = DIRECTION ( 'NONE',  ( 0.000000000000000000, 0.000000000000000000, 1.000000000000000000 ) ) ;
#40 = CARTESIAN_POINT ( 'NONE',  ( 11.00000000000005684, 0.000000000000000000, 3.000000000000000000 ) ) ;
#41 = DIRECTION ( 'NONE',  ( 0.000000000000000000, 0.000000000000000000, 1.000000000000000000 ) ) ;
#42 = AXIS2_PLACEMENT_3D ( 'NONE', #443, #743, #825 ) ;
#43 = EDGE_CURVE ( 'NONE', #704, #175, #968, .T. ) ;
#44 = CIRCLE ( 'NONE', #737, 1.150000000001055733 ) ;
#45 = ORIENTED_EDGE ( 'NONE', *, *, #337, .T. ) ;
#46 = CIRCLE ( 'NONE', #184, 1.150000000000562350 ) ;
#47 = ORIENTED_EDGE ( 'NONE', *, *, #621, .T. ) ;
#48 = FACE_OUTER_BOUND ( 'NONE', #676, .T. ) ;
#49 = DIRECTION ( 'NONE',  ( 0.7071067811865515695, -0.000000000000000000, -0.7071067811865435759 ) ) ;
#50 = ORIENTED_EDGE ( 'NONE', *, *, #1232, .F. ) ;
#51 = DIRECTION ( 'NONE',  ( 0.000000000000000000, 1.000000000000000000, -0.000000000000000000 ) ) ;
#52 = CARTESIAN_POINT ( 'NONE',  ( -10.49999999999923794, -10.00000000000000000, 7.615069215140461221E-13 ) ) ;
#53 = ORIENTED_EDGE ( 'NONE', *, *, #958, .F. ) ;
#54 = LINE ( 'NONE', #822, #1108 ) ;
#55 = DIRECTION ( 'NONE',  ( 0.000000000000000000, 0.000000000000000000, -1.000000000000000000 ) ) ;
#56 = EDGE_CURVE ( 'NONE', #173, #1052, #305, .T. ) ;
#57 = DIRECTION ( 'NONE',  ( 1.000000000000000000, 0.000000000000000000, 0.000000000000000000 ) ) ;
#58 = VERTEX_POINT ( 'NONE', #335 ) ;
#59 = CARTESIAN_POINT ( 'NONE',  ( 3.000000000000000444, 2.000000000000000000, 10.99999999999996447 ) ) ;
#60 = DIRECTION ( 'NONE',  ( -0.000000000000000000, -1.000000000000000000, -0.000000000000000000 ) ) ;
#61 = ORIENTED_EDGE ( 'NONE', *, *, #226, .T. ) ;
#62 = VECTOR ( 'NONE', #60, 1000.000000000000000 ) ;
#63 = FACE_OUTER_BOUND ( 'NONE', #499, .T. ) ;
#64 = VECTOR ( 'NONE', #1165, 1000.000000000000000 ) ;
#65 = VERTEX_POINT ( 'NONE', #1007 ) ;
#66 = AXIS2_PLACEMENT_3D ( 'NONE', #1150, #281, #640 ) ;
#67 = ADVANCED_FACE ( 'NONE', ( #498 ), #510, .F. ) ;
#68 = CARTESIAN_POINT ( 'NONE',  ( 1.526461223767692376E-12, 0.000000000000000000, 15.34999999999843112 ) ) ;
#69 = DIRECTION ( 'NONE',  ( 0.000000000000000000, 1.000000000000000000, 0.000000000000000000 ) ) ;
#70 = ORIENTED_EDGE ( 'NONE', *, *, #1139, .T. ) ;
#71 = ORIENTED_EDGE ( 'NONE', *, *, #390, .F. ) ;
#72 = DIRECTION ( 'NONE',  ( 0.000000000000000000, 0.000000000000000000, -1.000000000000000000 ) ) ;
#73 = CARTESIAN_POINT ( 'NONE',  ( 0.000000000000000000, 2.000000000000000000, 25.00000000000000000 ) ) ;
#74 = ADVANCED_FACE ( 'NONE', ( #1099 ), #806, .F. ) ;
#75 = VERTEX_POINT ( 'NONE', #789 ) ;
#76 = LINE ( 'NONE', #1244, #361 ) ;
#77 = CARTESIAN_POINT ( 'NONE',  ( 0.000000000000000000, 2.000000000000000000, -3.000000000000000000 ) ) ;
#78 = ORIENTED_EDGE ( 'NONE', *, *, #844, .T. ) ;
#79 = EDGE_CURVE ( 'NONE', #152, #827, #1105, .T. ) ;
#80 = AXIS2_PLACEMENT_3D ( 'NONE', #747, #1061, #1170 ) ;
#81 = ORIENTED_EDGE ( 'NONE', *, *, #719, .T. ) ;
#82 = APPLICATION_CONTEXT ( 'automotive_design' ) ;
#83 = CIRCLE ( 'NONE', #817, 1.150000000001116129 ) ;
#84 = PLANE ( 'NONE',  #613 ) ;
#85 = CARTESIAN_POINT ( 'NONE',  ( 3.000000000000000444, 2.000000000000000000, 0.000000000000000000 ) ) ;
#86 = ORIENTED_EDGE ( 'NONE', *, *, #769, .T. ) ;
#87 = CARTESIAN_POINT ( 'NONE',  ( 16.50000000000076383, 0.000000000000000000, -7.631601946928950844E-13 ) ) ;
#88 = DIRECTION ( 'NONE',  ( -0.000000000000000000, 1.000000000000000000, -0.000000000000000000 ) ) ;
#89 = EDGE_LOOP ( 'NONE', ( #53, #1129, #602, #1 ) ) ;
#90 = ORIENTED_EDGE ( 'NONE', *, *, #1037, .F. ) ;
#91 = DIRECTION ( 'NONE',  ( 0.000000000000000000, 0.000000000000000000, 1.000000000000000000 ) ) ;
#92 = ADVANCED_FACE ( 'NONE', ( #406 ), #310, .F. ) ;
#93 = DIRECTION ( 'NONE',  ( 0.000000000000000000, 1.000000000000000000, 0.000000000000000000 ) ) ;
#94 = CARTESIAN_POINT ( 'NONE',  ( -10.49999999999923794, -10.00000000000000000, -1.150000000000294342 ) ) ;
#95 = ORIENTED_EDGE ( 'NONE', *, *, #352, .T. ) ;
#96 = EDGE_LOOP ( 'NONE', ( #595, #804 ) ) ;
#97 = PLANE ( 'NONE',  #244 ) ;
#98 = VECTOR ( 'NONE', #565, 1000.000000000000000 ) ;
#99 = LINE ( 'NONE', #770, #125 ) ;
#100 = CIRCLE ( 'NONE', #398, 1.150000000001055733 ) ;
#101 = ADVANCED_FACE ( 'NONE', ( #999 ), #703, .T. ) ;
#102 = CARTESIAN_POINT ( 'NONE',  ( 7.000000000000044409, 0.000000000000000000, -6.999999999999965361 ) ) ;
#103 = VERTEX_POINT ( 'NONE', #329 ) ;
#104 = EDGE_LOOP ( 'NONE', ( #257, #948, #745, #987 ) ) ;
#105 = DIRECTION ( 'NONE',  ( 0.000000000000000000, 0.000000000000000000, -1.000000000000000000 ) ) ;
#106 = CARTESIAN_POINT ( 'NONE',  ( 0.000000000000000000, 0.000000000000000000, -10.50000000000000000 ) ) ;
#107 = PLANE ( 'NONE',  #653 ) ;
#108 = ORIENTED_EDGE ( 'NONE', *, *, #430, .T. ) ;
#109 = EDGE_CURVE ( 'NONE', #316, #744, #375, .T. ) ;
#110 = ORIENTED_EDGE ( 'NONE', *, *, #575, .F. ) ;
#111 = CARTESIAN_POINT ( 'NONE',  ( -2.999999999999999556, 2.000000000000000000, 25.00000000000000000 ) ) ;
#112 = CARTESIAN_POINT ( 'NONE',  ( -24.99999999999999645, 2.000000000000000000, -3.000000000000000000 ) ) ;
#113 = CARTESIAN_POINT ( 'NONE',  ( 0.000000000000000000, 0.000000000000000000, 0.000000000000000000 ) ) ;
#114 = VERTEX_POINT ( 'NONE', #521 ) ;
#115 = ORIENTED_EDGE ( 'NONE', *, *, #284, .T. ) ;
#116 = ORIENTED_EDGE ( 'NONE', *, *, #769, .F. ) ;
#117 = EDGE_CURVE ( 'NONE', #580, #440, #698, .T. ) ;
#118 = DIRECTION ( 'NONE',  ( 0.000000000000000000, 1.000000000000000000, -0.000000000000000000 ) ) ;
#119 = LINE ( 'NONE', #776, #180 ) ;
#120 = FACE_OUTER_BOUND ( 'NONE', #1231, .T. ) ;
#121 = DIRECTION ( 'NONE',  ( 0.000000000000000000, 0.000000000000000000, 1.000000000000000000 ) ) ;
#122 = AXIS2_PLACEMENT_3D ( 'NONE', #1219, #812, #641 ) ;
#123 = AXIS2_PLACEMENT_3D ( 'NONE', #133, #35, #414 ) ;
#124 = CARTESIAN_POINT ( 'NONE',  ( 0.000000000000000000, 2.000000000000000000, -16.50000000000000000 ) ) ;
#125 = VECTOR ( 'NONE', #15, 1000.000000000000000 ) ;
#126 = ORIENTED_EDGE ( 'NONE', *, *, #761, .F. ) ;
#127 = DIRECTION ( 'NONE',  ( -0.000000000000000000, 1.000000000000000000, -0.000000000000000000 ) ) ;
#128 = CARTESIAN_POINT ( 'NONE',  ( 1.525726435688204015E-12, 2.000000000000000000, 9.349999999998470201 ) ) ;
#129 = FACE_BOUND ( 'NONE', #163, .T. ) ;
#130 = CARTESIAN_POINT ( 'NONE',  ( -16.49999999999923972, -10.00000000000000000, 7.611395274743019419E-13 ) ) ;
#131 = FACE_BOUND ( 'NONE', #685, .T. ) ;
#132 = ORIENTED_EDGE ( 'NONE', *, *, #868, .F. ) ;
#133 = CARTESIAN_POINT ( 'NONE',  ( 10.50000000000076206, 2.000000000000000000, -7.627928006531509042E-13 ) ) ;
#134 = EDGE_LOOP ( 'NONE', ( #1115, #1058, #1211, #874 ) ) ;
#135 = LINE ( 'NONE', #318, #900 ) ;
#136 = EDGE_CURVE ( 'NONE', #697, #801, #852, .T. ) ;
#137 = DIRECTION ( 'NONE',  ( -1.000000000000000000, 0.000000000000000000, 0.000000000000000000 ) ) ;
#138 = FACE_BOUND ( 'NONE', #858, .T. ) ;
#139 = ORIENTED_EDGE ( 'NONE', *, *, #449, .T. ) ;
#140 = DIRECTION ( 'NONE',  ( -0.000000000000000000, 1.000000000000000000, -0.000000000000000000 ) ) ;
#141 = EDGE_LOOP ( 'NONE', ( #638, #1191 ) ) ;
#142 = FACE_OUTER_BOUND ( 'NONE', #296, .T. ) ;
#143 = DIRECTION ( 'NONE',  ( -0.7071067811865515695, -0.000000000000000000, 0.7071067811865435759 ) ) ;
#144 = DIRECTION ( 'NONE',  ( 0.000000000000000000, 0.000000000000000000, 1.000000000000000000 ) ) ;
#145 = VECTOR ( 'NONE', #1213, 1000.000000000000000 ) ;
#146 = EDGE_LOOP ( 'NONE', ( #389, #706, #762, #29 ) ) ;
#147 = DIRECTION ( 'NONE',  ( 0.000000000000000000, 1.000000000000000000, 0.000000000000000000 ) ) ;
#148 = DIRECTION ( 'NONE',  ( 0.000000000000000000, 0.000000000000000000, 1.000000000000000000 ) ) ;
#149 = ORIENTED_EDGE ( 'NONE', *, *, #597, .T. ) ;
#150 = ADVANCED_FACE ( 'NONE', ( #709 ), #586, .F. ) ;
#151 = DIRECTION ( 'NONE',  ( 0.000000000000000000, 0.000000000000000000, 1.000000000000000000 ) ) ;
#152 = VERTEX_POINT ( 'NONE', #979 ) ;
#153 = LINE ( 'NONE', #524, #679 ) ;
#154 = CARTESIAN_POINT ( 'NONE',  ( 1.525585601306301808E-12, 2.000000000000000000, 10.50000000000000000 ) ) ;
#155 = EDGE_LOOP ( 'NONE', ( #212, #832, #317, #489 ) ) ;
#156 = EDGE_CURVE ( 'NONE', #218, #533, #1020, .T. ) ;
#157 = ORIENTED_EDGE ( 'NONE', *, *, #844, .F. ) ;
#158 = FACE_OUTER_BOUND ( 'NONE', #155, .T. ) ;
#159 = ORIENTED_EDGE ( 'NONE', *, *, #384, .F. ) ;
#160 = VECTOR ( 'NONE', #515, 1000.000000000000000 ) ;
#161 = DIRECTION ( 'NONE',  ( 0.000000000000000000, 0.000000000000000000, 1.000000000000000000 ) ) ;
#162 = AXIS2_PLACEMENT_3D ( 'NONE', #230, #137, #992 ) ;
#163 = EDGE_LOOP ( 'NONE', ( #1057, #517 ) ) ;
#164 = EDGE_CURVE ( 'NONE', #423, #1052, #601, .T. ) ;
#165 = LINE ( 'NONE', #1234, #322 ) ;
#166 = CARTESIAN_POINT ( 'NONE',  ( 16.50000000000076383, 2.000000000000000000, -1.150000000001325295 ) ) ;
#167 = EDGE_LOOP ( 'NONE', ( #139, #306 ) ) ;
#168 = DIRECTION ( 'NONE',  ( 0.000000000000000000, 0.000000000000000000, 1.000000000000000000 ) ) ;
#169 = ORIENTED_EDGE ( 'NONE', *, *, #1225, .T. ) ;
#170 = DIRECTION ( 'NONE',  ( 0.000000000000000000, 0.000000000000000000, 1.000000000000000000 ) ) ;
#171 = EDGE_CURVE ( 'NONE', #175, #152, #691, .T. ) ;
#172 = PLANE ( 'NONE',  #529 ) ;
#173 = VERTEX_POINT ( 'NONE', #986 ) ;
#174 = CARTESIAN_POINT ( 'NONE',  ( 0.000000000000000000, -10.00000000000000000, -16.50000000000000000 ) ) ;
#175 = VERTEX_POINT ( 'NONE', #25 ) ;
#176 = FACE_OUTER_BOUND ( 'NONE', #260, .T. ) ;
#177 = CARTESIAN_POINT ( 'NONE',  ( -10.99999999999996447, 2.000000000000000000, 3.000000000000000000 ) ) ;
#178 = AXIS2_PLACEMENT_3D ( 'NONE', #895, #1197, #594 ) ;
#179 = ORIENTED_EDGE ( 'NONE', *, *, #324, .F. ) ;
#180 = VECTOR ( 'NONE', #1242, 1000.000000000000000 ) ;
#181 = AXIS2_PLACEMENT_3D ( 'NONE', #1096, #892, #39 ) ;
#182 = PRESENTATION_LAYER_ASSIGNMENT (  '', '', ( #342 ) ) ;
#183 = CARTESIAN_POINT ( 'NONE',  ( 25.00000000000000000, 2.000000000000000000, 0.000000000000000000 ) ) ;
#184 = AXIS2_PLACEMENT_3D ( 'NONE', #87, #355, #462 ) ;
#185 = CARTESIAN_POINT ( 'NONE',  ( 10.99999999999996625, 2.000000000000000000, -3.000000000000000000 ) ) ;
#186 = CARTESIAN_POINT ( 'NONE',  ( 0.000000000000000000, 2.000000000000000000, 25.00000000000000000 ) ) ;
#187 = ADVANCED_FACE ( 'NONE', ( #1179, #1077, #131, #695, #1083, #504, #33, #138, #1202, #1141 ), #820, .T. ) ;
#188 = DIRECTION ( 'NONE',  ( -0.7071067811865435759, 0.000000000000000000, -0.7071067811865515695 ) ) ;
#189 = CARTESIAN_POINT ( 'NONE',  ( 10.50000000000076206, -10.00000000000000000, -7.627928006531509042E-13 ) ) ;
#190 = CARTESIAN_POINT ( 'NONE',  ( -2.999999999999999556, 0.000000000000000000, -10.99999999999996447 ) ) ;
#191 = DIRECTION ( 'NONE',  ( 0.000000000000000000, 0.000000000000000000, 1.000000000000000000 ) ) ;
#192 = EDGE_CURVE ( 'NONE', #560, #465, #925, .T. ) ;
#193 = DIRECTION ( 'NONE',  ( 1.000000000000000000, -0.000000000000000000, 0.000000000000000000 ) ) ;
#194 = CARTESIAN_POINT ( 'NONE',  ( 0.000000000000000000, 0.000000000000000000, 0.000000000000000000 ) ) ;
#195 = CARTESIAN_POINT ( 'NONE',  ( 16.50000000000076383, 0.000000000000000000, -1.150000000001325295 ) ) ;
#196 = ORIENTED_EDGE ( 'NONE', *, *, #509, .T. ) ;
#197 = ORIENTED_EDGE ( 'NONE', *, *, #32, .T. ) ;
#198 = CARTESIAN_POINT ( 'NONE',  ( 10.50000000000076206, 0.000000000000000000, 1.149999999999778977 ) ) ;
#199 = VECTOR ( 'NONE', #373, 1000.000000000000000 ) ;
#200 = PLANE ( 'NONE',  #1212 ) ;
#201 = ORIENTED_EDGE ( 'NONE', *, *, #411, .T. ) ;
#202 = VECTOR ( 'NONE', #1148, 1000.000000000000000 ) ;
#203 = DIRECTION ( 'NONE',  ( -1.000000000000000000, 0.000000000000000000, -0.000000000000000000 ) ) ;
#204 = EDGE_CURVE ( 'NONE', #34, #1188, #1036, .T. ) ;
#205 = VECTOR ( 'NONE', #673, 1000.000000000000000 ) ;
#206 = CARTESIAN_POINT ( 'NONE',  ( 1.526320389385790169E-12, 0.000000000000000000, 16.50000000000000000 ) ) ;
#207 = VERTEX_POINT ( 'NONE', #931 ) ;
#208 = DIRECTION ( 'NONE',  ( 0.000000000000000000, 1.000000000000000000, 0.000000000000000000 ) ) ;
#209 = LINE ( 'NONE', #287, #982 ) ;
#210 = CYLINDRICAL_SURFACE ( 'NONE', #80, 1.150000000001055733 ) ;
#211 = EDGE_CURVE ( 'NONE', #75, #697, #541, .T. ) ;
#212 = ORIENTED_EDGE ( 'NONE', *, *, #727, .F. ) ;
#213 = ORIENTED_EDGE ( 'NONE', *, *, #563, .T. ) ;
#214 = CARTESIAN_POINT ( 'NONE',  ( 1.525585601306301808E-12, 0.000000000000000000, 10.50000000000000000 ) ) ;
#215 = DIRECTION ( 'NONE',  ( 0.000000000000000000, 1.000000000000000000, -0.000000000000000000 ) ) ;
#216 = FACE_BOUND ( 'NONE', #167, .T. ) ;
#217 = DIRECTION ( 'NONE',  ( 0.000000000000000000, 0.000000000000000000, 1.000000000000000000 ) ) ;
#218 = VERTEX_POINT ( 'NONE', #918 ) ;
#219 = EDGE_CURVE ( 'NONE', #801, #697, #834, .T. ) ;
#220 = CYLINDRICAL_SURFACE ( 'NONE', #379, 1.150000000000562350 ) ;
#221 = CYLINDRICAL_SURFACE ( 'NONE', #959, 1.150000000001116129 ) ;
#222 = CIRCLE ( 'NONE', #319, 1.150000000001569989 ) ;
#223 = VECTOR ( 'NONE', #811, 1000.000000000000000 ) ;
#224 = DIRECTION ( 'NONE',  ( 0.000000000000000000, 0.000000000000000000, -1.000000000000000000 ) ) ;
#225 = VERTEX_POINT ( 'NONE', #363 ) ;
#226 = EDGE_CURVE ( 'NONE', #744, #316, #875, .T. ) ;
#227 = DIRECTION ( 'NONE',  ( -0.000000000000000000, -1.000000000000000000, -0.000000000000000000 ) ) ;
#228 = VERTEX_POINT ( 'NONE', #525 ) ;
#229 = CARTESIAN_POINT ( 'NONE',  ( 0.000000000000000000, 2.000000000000000000, -16.50000000000000000 ) ) ;
#230 = CARTESIAN_POINT ( 'NONE',  ( 25.00000000000000000, 2.000000000000000000, 0.000000000000000000 ) ) ;
#231 = CARTESIAN_POINT ( 'NONE',  ( 0.000000000000000000, 2.000000000000000000, -10.50000000000000000 ) ) ;
#232 = ORIENTED_EDGE ( 'NONE', *, *, #211, .F. ) ;
#233 = EDGE_CURVE ( 'NONE', #574, #336, #726, .T. ) ;
#234 = ORIENTED_EDGE ( 'NONE', *, *, #1178, .F. ) ;
#235 = CARTESIAN_POINT ( 'NONE',  ( -16.49999999999923972, 0.000000000000000000, 7.611395274743019419E-13 ) ) ;
#236 = PLANE ( 'NONE',  #1132 ) ;
#237 = DIRECTION ( 'NONE',  ( -0.000000000000000000, 1.000000000000000000, -0.000000000000000000 ) ) ;
#238 = ORIENTED_EDGE ( 'NONE', *, *, #164, .T. ) ;
#239 = VERTEX_POINT ( 'NONE', #166 ) ;
#240 = PLANE ( 'NONE',  #162 ) ;
#241 = ADVANCED_FACE ( 'NONE', ( #448 ), #267, .F. ) ;
#242 = DIRECTION ( 'NONE',  ( 0.000000000000000000, 1.000000000000000000, -0.000000000000000000 ) ) ;
#243 = CIRCLE ( 'NONE', #1208, 1.500000000000000222 ) ;
#244 = AXIS2_PLACEMENT_3D ( 'NONE', #474, #859, #2 ) ;
#245 = VERTEX_POINT ( 'NONE', #256 ) ;
#246 = DIRECTION ( 'NONE',  ( -0.000000000000000000, -1.000000000000000000, -0.000000000000000000 ) ) ;
#247 = EDGE_LOOP ( 'NONE', ( #434, #877, #511, #70 ) ) ;
#248 = CARTESIAN_POINT ( 'NONE',  ( 10.50000000000076206, 0.000000000000000000, -7.627928006531509042E-13 ) ) ;
#249 = DIRECTION ( 'NONE',  ( -0.000000000000000000, -1.000000000000000000, -0.000000000000000000 ) ) ;
#250 = EDGE_CURVE ( 'NONE', #560, #704, #1051, .T. ) ;
#251 = ORIENTED_EDGE ( 'NONE', *, *, #628, .F. ) ;
#252 = DIRECTION ( 'NONE',  ( 0.000000000000000000, -1.000000000000000000, 0.000000000000000000 ) ) ;
#253 = DIRECTION ( 'NONE',  ( 0.000000000000000000, 0.000000000000000000, 1.000000000000000000 ) ) ;
#254 = EDGE_LOOP ( 'NONE', ( #711, #132, #1070, #1138 ) ) ;
#255 = LINE ( 'NONE', #347, #836 ) ;
#256 = CARTESIAN_POINT ( 'NONE',  ( 10.50000000000076206, 2.000000000000000000, -1.150000000001304645 ) ) ;
#257 = ORIENTED_EDGE ( 'NONE', *, *, #597, .F. ) ;
#258 = DIRECTION ( 'NONE',  ( 0.000000000000000000, 0.000000000000000000, -1.000000000000000000 ) ) ;
#259 = PLANE ( 'NONE',  #471 ) ;
#260 = EDGE_LOOP ( 'NONE', ( #728, #669, #678, #435 ) ) ;
#261 = AXIS2_PLACEMENT_3D ( 'NONE', #113, #978, #121 ) ;
#262 = LINE ( 'NONE', #445, #439 ) ;
#263 = ORIENTED_EDGE ( 'NONE', *, *, #896, .F. ) ;
#264 = ADVANCED_FACE ( 'NONE', ( #625 ), #433, .T. ) ;
#265 = EDGE_LOOP ( 'NONE', ( #748, #472, #787, #816, #1015, #623, #1073, #862, #830, #636, #311, #323, #953, #710, #658, #157 ) ) ;
#266 = FACE_OUTER_BOUND ( 'NONE', #774, .T. ) ;
#267 = CYLINDRICAL_SURFACE ( 'NONE', #568, 1.150000000001530021 ) ;
#268 = ORIENTED_EDGE ( 'NONE', *, *, #683, .T. ) ;
#269 = ORIENTED_EDGE ( 'NONE', *, *, #887, .T. ) ;
#270 = CARTESIAN_POINT ( 'NONE',  ( 0.000000000000000000, 2.000000000000000000, 3.000000000000000000 ) ) ;
#271 = CARTESIAN_POINT ( 'NONE',  ( 25.00000000000000000, 2.000000000000000000, 3.000000000000000000 ) ) ;
#272 = EDGE_CURVE ( 'NONE', #21, #207, #350, .T. ) ;
#273 = VERTEX_POINT ( 'NONE', #1123 ) ;
#274 = DIRECTION ( 'NONE',  ( 0.000000000000000000, 1.000000000000000000, 0.000000000000000000 ) ) ;
#275 = DIRECTION ( 'NONE',  ( 0.000000000000000000, 1.000000000000000000, 0.000000000000000000 ) ) ;
#276 = ADVANCED_FACE ( 'NONE', ( #1011 ), #1017, .F. ) ;
#277 = ORIENTED_EDGE ( 'NONE', *, *, #734, .F. ) ;
#278 = VECTOR ( 'NONE', #249, 1000.000000000000000 ) ;
#279 = LINE ( 'NONE', #657, #19 ) ;
#280 = VECTOR ( 'NONE', #839, 1000.000000000000000 ) ;
#281 = DIRECTION ( 'NONE',  ( 0.000000000000000000, 1.000000000000000000, -0.000000000000000000 ) ) ;
#282 = DIRECTION ( 'NONE',  ( -0.7071067811865514585, 0.000000000000000000, 0.7071067811865435759 ) ) ;
#283 = EDGE_LOOP ( 'NONE', ( #50, #126 ) ) ;
#284 = EDGE_CURVE ( 'NONE', #1188, #1155, #1084, .T. ) ;
#285 = VERTEX_POINT ( 'NONE', #736 ) ;
#286 = DIRECTION ( 'NONE',  ( 0.000000000000000000, 1.000000000000000000, -0.000000000000000000 ) ) ;
#287 = CARTESIAN_POINT ( 'NONE',  ( -24.99999999999999645, 2.000000000000000000, 3.000000000000000000 ) ) ;
#288 = DIRECTION ( 'NONE',  ( 0.000000000000000000, 0.000000000000000000, -1.000000000000000000 ) ) ;
#289 = ORIENTED_EDGE ( 'NONE', *, *, #988, .T. ) ;
#290 = VERTEX_POINT ( 'NONE', #177 ) ;
#291 = DIRECTION ( 'NONE',  ( 0.000000000000000000, 0.000000000000000000, 1.000000000000000000 ) ) ;
#292 = ADVANCED_FACE ( 'NONE', ( #158 ), #259, .F. ) ;
#293 = DIRECTION ( 'NONE',  ( -0.7071067811865435759, 0.000000000000000000, -0.7071067811865514585 ) ) ;
#294 = PLANE ( 'NONE',  #920 ) ;
#295 = VERTEX_POINT ( 'NONE', #1135 ) ;
#296 = EDGE_LOOP ( 'NONE', ( #1236, #351, #95, #1207, #932, #512, #1180, #821, #149, #5, #1227, #1033, #1012, #263, #714, #201 ) ) ;
#297 = CARTESIAN_POINT ( 'NONE',  ( -2.999999999999999556, 2.000000000000000000, 0.000000000000000000 ) ) ;
#298 = VECTOR ( 'NONE', #468, 1000.000000000000000 ) ;
#299 = ADVANCED_FACE ( 'NONE', ( #1032 ), #172, .T. ) ;
#300 = DIRECTION ( 'NONE',  ( -0.000000000000000000, 1.000000000000000000, -0.000000000000000000 ) ) ;
#301 = VERTEX_POINT ( 'NONE', #195 ) ;
#302 = CIRCLE ( 'NONE', #1002, 1.150000000001530021 ) ;
#303 = CARTESIAN_POINT ( 'NONE',  ( 0.000000000000000000, -10.00000000000000000, -9.350000000000001421 ) ) ;
#304 = VECTOR ( 'NONE', #984, 1000.000000000000000 ) ;
#305 = LINE ( 'NONE', #684, #696 ) ;
#306 = ORIENTED_EDGE ( 'NONE', *, *, #1037, .T. ) ;
#307 = DIRECTION ( 'NONE',  ( 0.000000000000000000, 0.000000000000000000, 1.000000000000000000 ) ) ;
#308 = DIRECTION ( 'NONE',  ( 0.000000000000000000, 0.000000000000000000, 1.000000000000000000 ) ) ;
#309 = DIRECTION ( 'NONE',  ( 0.000000000000000000, 0.000000000000000000, 1.000000000000000000 ) ) ;
#310 = CYLINDRICAL_SURFACE ( 'NONE', #1128, 1.150000000001530021 ) ;
#311 = ORIENTED_EDGE ( 'NONE', *, *, #727, .T. ) ;
#312 = DIRECTION ( 'NONE',  ( 0.000000000000000000, 1.000000000000000000, -0.000000000000000000 ) ) ;
#313 = LINE ( 'NONE', #694, #358 ) ;
#314 = CARTESIAN_POINT ( 'NONE',  ( 3.000000000000000444, 2.000000000000000000, -25.00000000000000000 ) ) ;
#315 = ADVANCED_FACE ( 'NONE', ( #1043 ), #210, .F. ) ;
#316 = VERTEX_POINT ( 'NONE', #1050 ) ;
#317 = ORIENTED_EDGE ( 'NONE', *, *, #56, .T. ) ;
#318 = CARTESIAN_POINT ( 'NONE',  ( -2.999999999999999556, 2.000000000000000000, 0.000000000000000000 ) ) ;
#319 = AXIS2_PLACEMENT_3D ( 'NONE', #1164, #275, #652 ) ;
#320 = AXIS2_PLACEMENT_3D ( 'NONE', #805, #51, #338 ) ;
#321 = CARTESIAN_POINT ( 'NONE',  ( 11.00000000000005684, 0.000000000000000000, 3.000000000000000000 ) ) ;
#322 = VECTOR ( 'NONE', #447, 1000.000000000000000 ) ;
#323 = ORIENTED_EDGE ( 'NONE', *, *, #983, .F. ) ;
#324 = EDGE_CURVE ( 'NONE', #354, #245, #773, .T. ) ;
#325 = CARTESIAN_POINT ( 'NONE',  ( 0.000000000000000000, 2.000000000000000000, 0.000000000000000000 ) ) ;
#326 = ORIENTED_EDGE ( 'NONE', *, *, #1192, .T. ) ;
#327 = FACE_BOUND ( 'NONE', #1194, .T. ) ;
#328 = LINE ( 'NONE', #708, #794 ) ;
#329 = CARTESIAN_POINT ( 'NONE',  ( -24.99999999999999645, 0.000000000000000000, -3.000000000000000000 ) ) ;
#330 = ORIENTED_EDGE ( 'NONE', *, *, #1178, .T. ) ;
#331 = LINE ( 'NONE', #1089, #634 ) ;
#332 = EDGE_CURVE ( 'NONE', #450, #801, #666, .T. ) ;
#333 = ORIENTED_EDGE ( 'NONE', *, *, #914, .F. ) ;
#334 = CARTESIAN_POINT ( 'NONE',  ( -10.49999999999923794, 2.000000000000000000, 1.150000000001817346 ) ) ;
#335 = CARTESIAN_POINT ( 'NONE',  ( -2.999999999999999556, 2.000000000000000000, -10.99999999999996447 ) ) ;
#336 = VERTEX_POINT ( 'NONE', #861 ) ;
#337 = EDGE_CURVE ( 'NONE', #1112, #848, #576, .T. ) ;
#338 = DIRECTION ( 'NONE',  ( 0.000000000000000000, 0.000000000000000000, 1.000000000000000000 ) ) ;
#339 = AXIS2_PLACEMENT_3D ( 'NONE', #864, #286, #307 ) ;
#340 = DIRECTION ( 'NONE',  ( 0.000000000000000000, 0.000000000000000000, 1.000000000000000000 ) ) ;
#341 = VECTOR ( 'NONE', #246, 1000.000000000000000 ) ;
#342 = STYLED_ITEM ( 'NONE', ( #854 ), #687 ) ;
#343 = ORIENTED_EDGE ( 'NONE', *, *, #998, .F. ) ;
#344 = AXIS2_PLACEMENT_3D ( 'NONE', #1140, #1238, #546 ) ;
#345 = LINE ( 'NONE', #1003, #341 ) ;
#346 = VERTEX_POINT ( 'NONE', #190 ) ;
#347 = CARTESIAN_POINT ( 'NONE',  ( 10.50000000000076206, -10.00000000000000000, -1.150000000001304645 ) ) ;
#348 = DIRECTION ( 'NONE',  ( 0.000000000000000000, 0.000000000000000000, 1.000000000000000000 ) ) ;
#349 = EDGE_LOOP ( 'NONE', ( #365, #1067, #933, #1217 ) ) ;
#350 = LINE ( 'NONE', #271, #62 ) ;
#351 = ORIENTED_EDGE ( 'NONE', *, *, #575, .T. ) ;
#352 = EDGE_CURVE ( 'NONE', #103, #1034, #966, .T. ) ;
#353 = CARTESIAN_POINT ( 'NONE',  ( -16.49999999999923972, 2.000000000000000000, 1.150000000001877076 ) ) ;
#354 = VERTEX_POINT ( 'NONE', #759 ) ;
#355 = DIRECTION ( 'NONE',  ( 0.000000000000000000, 1.000000000000000000, -0.000000000000000000 ) ) ;
#356 = DIRECTION ( 'NONE',  ( 0.000000000000000000, 0.000000000000000000, 1.000000000000000000 ) ) ;
#357 = ORIENTED_EDGE ( 'NONE', *, *, #272, .T. ) ;
#358 = VECTOR ( 'NONE', #502, 1000.000000000000000 ) ;
#359 = CIRCLE ( 'NONE', #1065, 1.150000000000541922 ) ;
#360 = ADVANCED_FACE ( 'NONE', ( #1158 ), #1056, .F. ) ;
#361 = VECTOR ( 'NONE', #934, 1000.000000000000000 ) ;
#362 = CARTESIAN_POINT ( 'NONE',  ( 0.000000000000000000, 2.000000000000000000, -25.00000000000000000 ) ) ;
#363 = CARTESIAN_POINT ( 'NONE',  ( 3.000000000000000444, 0.000000000000000000, 10.99999999999996447 ) ) ;
#364 = ORIENTED_EDGE ( 'NONE', *, *, #405, .T. ) ;
#365 = ORIENTED_EDGE ( 'NONE', *, *, #896, .T. ) ;
#366 = ADVANCED_FACE ( 'NONE', ( #459 ), #107, .F. ) ;
#367 = CYLINDRICAL_SURFACE ( 'NONE', #344, 1.150000000000541922 ) ;
#368 = DIRECTION ( 'NONE',  ( 0.000000000000000000, 1.000000000000000000, 0.000000000000000000 ) ) ;
#369 = ORIENTED_EDGE ( 'NONE', *, *, #226, .F. ) ;
#370 = PLANE ( 'NONE',  #420 ) ;
#371 = CYLINDRICAL_SURFACE ( 'NONE', #494, 1.500000000000000222 ) ;
#372 = EDGE_CURVE ( 'NONE', #620, #290, #682, .T. ) ;
#373 = DIRECTION ( 'NONE',  ( 1.000000000000000000, -0.000000000000000000, 0.000000000000000000 ) ) ;
#374 = ORIENTED_EDGE ( 'NONE', *, *, #1022, .F. ) ;
#375 = CIRCLE ( 'NONE', #1082, 1.149999999999999911 ) ;
#376 = AXIS2_PLACEMENT_3D ( 'NONE', #1206, #537, #340 ) ;
#377 = CIRCLE ( 'NONE', #1042, 1.150000000000562350 ) ;
#378 = CARTESIAN_POINT ( 'NONE',  ( -2.999999999999999556, 2.000000000000000000, 11.00000000000005507 ) ) ;
#379 = AXIS2_PLACEMENT_3D ( 'NONE', #1075, #884, #764 ) ;
#380 = LINE ( 'NONE', #362, #280 ) ;
#381 = LINE ( 'NONE', #102, #17 ) ;
#382 = CYLINDRICAL_SURFACE ( 'NONE', #1023, 1.149999999999999911 ) ;
#383 = DIRECTION ( 'NONE',  ( -0.000000000000000000, 1.000000000000000000, -0.000000000000000000 ) ) ;
#384 = EDGE_CURVE ( 'NONE', #841, #239, #1243, .T. ) ;
#385 = FACE_OUTER_BOUND ( 'NONE', #927, .T. ) ;
#386 = CARTESIAN_POINT ( 'NONE',  ( 16.50000000000076383, -10.00000000000000000, 1.149999999999799183 ) ) ;
#387 = DIRECTION ( 'NONE',  ( 0.000000000000000000, 1.000000000000000000, 0.000000000000000000 ) ) ;
#388 = FACE_OUTER_BOUND ( 'NONE', #349, .T. ) ;
#389 = ORIENTED_EDGE ( 'NONE', *, *, #1030, .F. ) ;
#390 = EDGE_CURVE ( 'NONE', #426, #273, #222, .T. ) ;
#391 = DIRECTION ( 'NONE',  ( 0.000000000000000000, 1.000000000000000000, 0.000000000000000000 ) ) ;
#392 = CARTESIAN_POINT ( 'NONE',  ( 0.000000000000000000, 0.000000000000000000, -10.50000000000000000 ) ) ;
#393 = DIRECTION ( 'NONE',  ( -1.000000000000000000, 0.000000000000000000, -0.000000000000000000 ) ) ;
#394 = DIRECTION ( 'NONE',  ( 0.000000000000000000, 0.000000000000000000, 1.000000000000000000 ) ) ;
#395 = PRODUCT_DEFINITION ( 'ๆ', '', #572, #899 ) ;
#396 = VECTOR ( 'NONE', #886, 1000.000000000000000 ) ;
#397 = CARTESIAN_POINT ( 'NONE',  ( 16.50000000000076383, 0.000000000000000000, 1.149999999999799183 ) ) ;
#398 = AXIS2_PLACEMENT_3D ( 'NONE', #1237, #391, #91 ) ;
#399 = FACE_OUTER_BOUND ( 'NONE', #715, .T. ) ;
#400 = VECTOR ( 'NONE', #564, 1000.000000000000000 ) ;
#401 = EDGE_LOOP ( 'NONE', ( #1131, #196, #810, #1000 ) ) ;
#402 = DIRECTION ( 'NONE',  ( 0.000000000000000000, 0.000000000000000000, 1.000000000000000000 ) ) ;
#403 = VERTEX_POINT ( 'NONE', #185 ) ;
#404 = DIRECTION ( 'NONE',  ( 0.000000000000000000, 0.000000000000000000, 1.000000000000000000 ) ) ;
#405 = EDGE_CURVE ( 'NONE', #431, #1038, #554, .T. ) ;
#406 = FACE_OUTER_BOUND ( 'NONE', #401, .T. ) ;
#407 = ORIENTED_EDGE ( 'NONE', *, *, #136, .T. ) ;
#408 = LINE ( 'NONE', #915, #942 ) ;
#409 = ORIENTED_EDGE ( 'NONE', *, *, #1161, .F. ) ;
#410 = FACE_BOUND ( 'NONE', #981, .T. ) ;
#411 = EDGE_CURVE ( 'NONE', #285, #620, #851, .T. ) ;
#412 = DIRECTION ( 'NONE',  ( 0.000000000000000000, 0.000000000000000000, -1.000000000000000000 ) ) ;
#413 = ORIENTED_EDGE ( 'NONE', *, *, #944, .F. ) ;
#414 = DIRECTION ( 'NONE',  ( 0.000000000000000000, 0.000000000000000000, 1.000000000000000000 ) ) ;
#415 = DIRECTION ( 'NONE',  ( 0.000000000000000000, 0.000000000000000000, 1.000000000000000000 ) ) ;
#416 = ORIENTED_EDGE ( 'NONE', *, *, #1225, .F. ) ;
#417 = FACE_BOUND ( 'NONE', #629, .T. ) ;
#418 = CIRCLE ( 'NONE', #980, 1.150000000001055733 ) ;
#419 = LINE ( 'NONE', #59, #961 ) ;
#420 = AXIS2_PLACEMENT_3D ( 'NONE', #378, #954, #757 ) ;
#421 = DIRECTION ( 'NONE',  ( 0.000000000000000000, -1.000000000000000000, 0.000000000000000000 ) ) ;
#422 =( GEOMETRIC_REPRESENTATION_CONTEXT ( 3 ) GLOBAL_UNCERTAINTY_ASSIGNED_CONTEXT ( ( #974 ) ) GLOBAL_UNIT_ASSIGNED_CONTEXT ( ( #1114, #902, #1094 ) ) REPRESENTATION_CONTEXT ( 'NONE', 'WORKASPACE' ) );
#423 = VERTEX_POINT ( 'NONE', #1239 ) ;
#424 = ADVANCED_FACE ( 'NONE', ( #751 ), #294, .F. ) ;
#425 = CARTESIAN_POINT ( 'NONE',  ( 25.00000000000000000, 2.000000000000000000, -3.000000000000000000 ) ) ;
#426 = VERTEX_POINT ( 'NONE', #559 ) ;
#427 = FACE_OUTER_BOUND ( 'NONE', #1074, .T. ) ;
#428 = CARTESIAN_POINT ( 'NONE',  ( 0.000000000000000000, 0.000000000000000000, -16.50000000000000000 ) ) ;
#429 = EDGE_LOOP ( 'NONE', ( #169, #197 ) ) ;
#430 = EDGE_CURVE ( 'NONE', #316, #218, #957, .T. ) ;
#431 = VERTEX_POINT ( 'NONE', #1246 ) ;
#432 = LINE ( 'NONE', #717, #901 ) ;
#433 = PLANE ( 'NONE',  #122 ) ;
#434 = ORIENTED_EDGE ( 'NONE', *, *, #790, .T. ) ;
#435 = ORIENTED_EDGE ( 'NONE', *, *, #192, .F. ) ;
#436 = EDGE_CURVE ( 'NONE', #173, #538, #381, .T. ) ;
#437 = CARTESIAN_POINT ( 'NONE',  ( -24.99999999999999645, 2.000000000000000000, 0.000000000000000000 ) ) ;
#438 = DIRECTION ( 'NONE',  ( 0.000000000000000000, 1.000000000000000000, -0.000000000000000000 ) ) ;
#439 = VECTOR ( 'NONE', #252, 1000.000000000000000 ) ;
#440 = VERTEX_POINT ( 'NONE', #24 ) ;
#441 = PLANE ( 'NONE',  #700 ) ;
#442 = ADVANCED_FACE ( 'NONE', ( #399 ), #221, .F. ) ;
#443 = CARTESIAN_POINT ( 'NONE',  ( 0.000000000000000000, 0.000000000000000000, -16.50000000000000000 ) ) ;
#444 = ORIENTED_EDGE ( 'NONE', *, *, #1161, .T. ) ;
#445 = CARTESIAN_POINT ( 'NONE',  ( -11.00000000000005507, 0.000000000000000000, -3.000000000000000000 ) ) ;
#446 = ORIENTED_EDGE ( 'NONE', *, *, #491, .F. ) ;
#447 = DIRECTION ( 'NONE',  ( 1.000000000000000000, -0.000000000000000000, 0.000000000000000000 ) ) ;
#448 = FACE_OUTER_BOUND ( 'NONE', #907, .T. ) ;
#449 = EDGE_CURVE ( 'NONE', #1224, #301, #793, .T. ) ;
#450 = VERTEX_POINT ( 'NONE', #872 ) ;
#451 = LINE ( 'NONE', #270, #1109 ) ;
#452 = CARTESIAN_POINT ( 'NONE',  ( -2.999999999999999556, 2.000000000000000000, 25.00000000000000000 ) ) ;
#453 = ORIENTED_EDGE ( 'NONE', *, *, #219, .F. ) ;
#454 = VECTOR ( 'NONE', #969, 1000.000000000000000 ) ;
#455 = EDGE_CURVE ( 'NONE', #18, #733, #243, .T. ) ;
#456 = CIRCLE ( 'NONE', #552, 1.149999999999999911 ) ;
#457 = VERTEX_POINT ( 'NONE', #985 ) ;
#458 = CARTESIAN_POINT ( 'NONE',  ( -2.999999999999999556, 2.000000000000000000, 0.000000000000000000 ) ) ;
#459 = FACE_OUTER_BOUND ( 'NONE', #247, .T. ) ;
#460 = ORIENTED_EDGE ( 'NONE', *, *, #204, .T. ) ;
#461 = ADVANCED_FACE ( 'NONE', ( #1183, #216, #689, #593, #1076, #327, #129, #417, #142, #410 ), #30, .F. ) ;
#462 = DIRECTION ( 'NONE',  ( 0.000000000000000000, 0.000000000000000000, 1.000000000000000000 ) ) ;
#463 = CARTESIAN_POINT ( 'NONE',  ( -7.000000000000044409, 0.000000000000000000, 6.999999999999965361 ) ) ;
#464 = ORIENTED_EDGE ( 'NONE', *, *, #156, .T. ) ;
#465 = VERTEX_POINT ( 'NONE', #495 ) ;
#466 = CARTESIAN_POINT ( 'NONE',  ( -10.99999999999996447, 0.000000000000000000, 3.000000000000000000 ) ) ;
#467 = DIRECTION ( 'NONE',  ( 0.000000000000000000, 0.000000000000000000, 1.000000000000000000 ) ) ;
#468 = DIRECTION ( 'NONE',  ( -0.000000000000000000, 1.000000000000000000, -0.000000000000000000 ) ) ;
#469 = SURFACE_STYLE_FILL_AREA ( #644 ) ;
#470 = FACE_OUTER_BOUND ( 'NONE', #1029, .T. ) ;
#471 = AXIS2_PLACEMENT_3D ( 'NONE', #633, #1026, #935 ) ;
#472 = ORIENTED_EDGE ( 'NONE', *, *, #958, .T. ) ;
#473 = VECTOR ( 'NONE', #893, 1000.000000000000000 ) ;
#474 = CARTESIAN_POINT ( 'NONE',  ( 0.000000000000000000, 2.000000000000000000, -3.000000000000000000 ) ) ;
#475 = LINE ( 'NONE', #870, #904 ) ;
#476 = DIRECTION ( 'NONE',  ( 0.7071067811865435759, 0.000000000000000000, 0.7071067811865515695 ) ) ;
#477 = EDGE_CURVE ( 'NONE', #1038, #823, #418, .T. ) ;
#478 = PLANE ( 'NONE',  #977 ) ;
#479 = EDGE_LOOP ( 'NONE', ( #796, #108, #464, #11 ) ) ;
#480 = LINE ( 'NONE', #1053, #922 ) ;
#481 = LINE ( 'NONE', #1157, #837 ) ;
#482 = DIRECTION ( 'NONE',  ( 0.000000000000000000, 0.000000000000000000, 1.000000000000000000 ) ) ;
#483 = CARTESIAN_POINT ( 'NONE',  ( 3.000000000000000444, 2.000000000000000000, 0.000000000000000000 ) ) ;
#484 = ORIENTED_EDGE ( 'NONE', *, *, #863, .T. ) ;
#485 = CARTESIAN_POINT ( 'NONE',  ( -2.999999999999999556, 2.000000000000000000, -25.00000000000000000 ) ) ;
#486 = CARTESIAN_POINT ( 'NONE',  ( 1.526320389385790169E-12, 0.000000000000000000, 17.65000000000157243 ) ) ;
#487 = LINE ( 'NONE', #975, #454 ) ;
#488 = EDGE_LOOP ( 'NONE', ( #446, #1121 ) ) ;
#489 = ORIENTED_EDGE ( 'NONE', *, *, #164, .F. ) ;
#490 = CIRCLE ( 'NONE', #775, 1.150000000001530021 ) ;
#491 = EDGE_CURVE ( 'NONE', #667, #65, #940, .T. ) ;
#492 = VECTOR ( 'NONE', #105, 1000.000000000000000 ) ;
#493 = FACE_OUTER_BOUND ( 'NONE', #26, .T. ) ;
#494 = AXIS2_PLACEMENT_3D ( 'NONE', #828, #742, #72 ) ;
#495 = CARTESIAN_POINT ( 'NONE',  ( -2.999999999999999556, 0.000000000000000000, 25.00000000000000000 ) ) ;
#496 = VECTOR ( 'NONE', #258, 1000.000000000000000 ) ;
#497 = CARTESIAN_POINT ( 'NONE',  ( -10.49999999999923794, -10.00000000000000000, 1.150000000001817346 ) ) ;
#498 = FACE_OUTER_BOUND ( 'NONE', #873, .T. ) ;
#499 = EDGE_LOOP ( 'NONE', ( #232, #847, #1027, #1039 ) ) ;
#500 = EDGE_CURVE ( 'NONE', #560, #114, #135, .T. ) ;
#501 = DIRECTION ( 'NONE',  ( 0.000000000000000000, 0.000000000000000000, 1.000000000000000000 ) ) ;
#502 = DIRECTION ( 'NONE',  ( -0.000000000000000000, 1.000000000000000000, -0.000000000000000000 ) ) ;
#503 = LINE ( 'NONE', #497, #64 ) ;
#504 = FACE_BOUND ( 'NONE', #141, .T. ) ;
#505 = ORIENTED_EDGE ( 'NONE', *, *, #272, .F. ) ;
#506 = ORIENTED_EDGE ( 'NONE', *, *, #1184, .T. ) ;
#507 = CARTESIAN_POINT ( 'NONE',  ( 0.000000000000000000, 0.000000000000000000, 0.000000000000000000 ) ) ;
#508 = LINE ( 'NONE', #600, #473 ) ;
#509 = EDGE_CURVE ( 'NONE', #228, #1155, #313, .T. ) ;
#510 = PLANE ( 'NONE',  #587 ) ;
#511 = ORIENTED_EDGE ( 'NONE', *, *, #43, .F. ) ;
#512 = ORIENTED_EDGE ( 'NONE', *, *, #1022, .T. ) ;
#513 = AXIS2_PLACEMENT_3D ( 'NONE', #229, #599, #991 ) ;
#514 = DIRECTION ( 'NONE',  ( 0.000000000000000000, 1.000000000000000000, -0.000000000000000000 ) ) ;
#515 = DIRECTION ( 'NONE',  ( -0.000000000000000000, -1.000000000000000000, -0.000000000000000000 ) ) ;
#516 = EDGE_CURVE ( 'NONE', #457, #290, #702, .T. ) ;
#517 = ORIENTED_EDGE ( 'NONE', *, *, #535, .T. ) ;
#518 = UNCERTAINTY_MEASURE_WITH_UNIT (LENGTH_MEASURE( 1.000000000000000082E-05 ), #544, 'distance_accuracy_value', 'NONE');
#519 = ORIENTED_EDGE ( 'NONE', *, *, #449, .F. ) ;
#520 = CARTESIAN_POINT ( 'NONE',  ( -10.49999999999923794, 0.000000000000000000, 7.615069215140461221E-13 ) ) ;
#521 = CARTESIAN_POINT ( 'NONE',  ( -2.999999999999999556, 2.000000000000000000, 11.00000000000005507 ) ) ;
#522 = EDGE_LOOP ( 'NONE', ( #1198, #268, #555, #234 ) ) ;
#523 = ORIENTED_EDGE ( 'NONE', *, *, #535, .F. ) ;
#524 = CARTESIAN_POINT ( 'NONE',  ( 0.000000000000000000, 0.000000000000000000, 25.00000000000000000 ) ) ;
#525 = CARTESIAN_POINT ( 'NONE',  ( 1.525726435688204015E-12, 0.000000000000000000, 9.349999999998470201 ) ) ;
#526 = VERTEX_POINT ( 'NONE', #1090 ) ;
#527 = EDGE_CURVE ( 'NONE', #533, #218, #1063, .T. ) ;
#528 = CARTESIAN_POINT ( 'NONE',  ( 3.000000000000000444, 0.000000000000000000, 0.000000000000000000 ) ) ;
#529 = AXIS2_PLACEMENT_3D ( 'NONE', #77, #4, #203 ) ;
#530 = CARTESIAN_POINT ( 'NONE',  ( 0.000000000000000000, 2.000000000000000000, 0.000000000000000000 ) ) ;
#531 = AXIS2_PLACEMENT_3D ( 'NONE', #130, #888, #31 ) ;
#532 = AXIS2_PLACEMENT_3D ( 'NONE', #921, #140, #415 ) ;
#533 = VERTEX_POINT ( 'NONE', #1195 ) ;
#534 = CARTESIAN_POINT ( 'NONE',  ( 1.408343819019456028E-16, 2.000000000000000000, -11.65000000000000036 ) ) ;
#535 = EDGE_CURVE ( 'NONE', #741, #1009, #1226, .T. ) ;
#536 = LINE ( 'NONE', #946, #857 ) ;
#537 = DIRECTION ( 'NONE',  ( -0.000000000000000000, 1.000000000000000000, -0.000000000000000000 ) ) ;
#538 = VERTEX_POINT ( 'NONE', #971 ) ;
#539 = DIRECTION ( 'NONE',  ( -0.000000000000000000, 1.000000000000000000, -0.000000000000000000 ) ) ;
#540 = CARTESIAN_POINT ( 'NONE',  ( -11.00000000000005507, 2.000000000000000000, -3.000000000000000000 ) ) ;
#541 = LINE ( 'NONE', #720, #549 ) ;
#542 = EDGE_CURVE ( 'NONE', #207, #626, #487, .T. ) ;
#543 = ORIENTED_EDGE ( 'NONE', *, *, #908, .F. ) ;
#544 =( LENGTH_UNIT ( ) NAMED_UNIT ( * ) SI_UNIT ( .MILLI., .METRE. ) );
#545 = ORIENTED_EDGE ( 'NONE', *, *, #233, .T. ) ;
#546 = DIRECTION ( 'NONE',  ( 0.000000000000000000, 0.000000000000000000, 1.000000000000000000 ) ) ;
#547 = DIRECTION ( 'NONE',  ( -0.000000000000000000, 1.000000000000000000, -0.000000000000000000 ) ) ;
#548 = ORIENTED_EDGE ( 'NONE', *, *, #894, .T. ) ;
#549 = VECTOR ( 'NONE', #1230, 1000.000000000000000 ) ;
#550 = EDGE_CURVE ( 'NONE', #1034, #346, #119, .T. ) ;
#551 = AXIS2_PLACEMENT_3D ( 'NONE', #1068, #1162, #291 ) ;
#552 = AXIS2_PLACEMENT_3D ( 'NONE', #392, #578, #402 ) ;
#553 = LINE ( 'NONE', #849, #1045 ) ;
#554 = LINE ( 'NONE', #94, #1001 ) ;
#555 = ORIENTED_EDGE ( 'NONE', *, *, #6, .T. ) ;
#556 = CARTESIAN_POINT ( 'NONE',  ( 3.000000000000000444, 0.000000000000000000, 25.00000000000000000 ) ) ;
#557 = EDGE_CURVE ( 'NONE', #228, #34, #677, .T. ) ;
#558 = DIRECTION ( 'NONE',  ( -0.000000000000000000, 1.000000000000000000, -0.000000000000000000 ) ) ;
#559 = CARTESIAN_POINT ( 'NONE',  ( 1.526320389385790169E-12, 2.000000000000000000, 17.65000000000157243 ) ) ;
#560 = VERTEX_POINT ( 'NONE', #111 ) ;
#561 = PRODUCT ( '22', '22', '', ( #803 ) ) ;
#562 = FACE_OUTER_BOUND ( 'NONE', #722, .T. ) ;
#563 = EDGE_CURVE ( 'NONE', #34, #228, #490, .T. ) ;
#564 = DIRECTION ( 'NONE',  ( 0.000000000000000000, 0.000000000000000000, -1.000000000000000000 ) ) ;
#565 = DIRECTION ( 'NONE',  ( -0.7071067811865435759, 0.000000000000000000, -0.7071067811865515695 ) ) ;
#566 = DIRECTION ( 'NONE',  ( 0.000000000000000000, 1.000000000000000000, -0.000000000000000000 ) ) ;
#567 = AXIS2_PLACEMENT_3D ( 'NONE', #231, #612, #882 ) ;
#568 = AXIS2_PLACEMENT_3D ( 'NONE', #731, #547, #1117 ) ;
#569 = ORIENTED_EDGE ( 'NONE', *, *, #1093, .T. ) ;
#570 = VECTOR ( 'NONE', #1196, 1000.000000000000000 ) ;
#571 = LINE ( 'NONE', #297, #1173 ) ;
#572 = PRODUCT_DEFINITION_FORMATION_WITH_SPECIFIED_SOURCE ( 'ไป', '', #561, .NOT_KNOWN. ) ;
#573 = FACE_OUTER_BOUND ( 'NONE', #995, .T. ) ;
#574 = VERTEX_POINT ( 'NONE', #485 ) ;
#575 = EDGE_CURVE ( 'NONE', #928, #103, #583, .T. ) ;
#576 = LINE ( 'NONE', #765, #199 ) ;
#577 = CARTESIAN_POINT ( 'NONE',  ( 1.525585601306301808E-12, 0.000000000000000000, 11.65000000000152980 ) ) ;
#578 = DIRECTION ( 'NONE',  ( 0.000000000000000000, 1.000000000000000000, -0.000000000000000000 ) ) ;
#579 = DIRECTION ( 'NONE',  ( 0.000000000000000000, 0.000000000000000000, 1.000000000000000000 ) ) ;
#580 = VERTEX_POINT ( 'NONE', #198 ) ;
#581 = EDGE_CURVE ( 'NONE', #823, #1038, #100, .T. ) ;
#582 = ORIENTED_EDGE ( 'NONE', *, *, #563, .F. ) ;
#583 = LINE ( 'NONE', #843, #492 ) ;
#584 = DIRECTION ( 'NONE',  ( 0.000000000000000000, 0.000000000000000000, 1.000000000000000000 ) ) ;
#585 = DIRECTION ( 'NONE',  ( 0.000000000000000000, 1.000000000000000000, -0.000000000000000000 ) ) ;
#586 = CYLINDRICAL_SURFACE ( 'NONE', #898, 1.150000000001055733 ) ;
#587 = AXIS2_PLACEMENT_3D ( 'NONE', #800, #224, #713 ) ;
#588 = ORIENTED_EDGE ( 'NONE', *, *, #581, .T. ) ;
#589 = ADVANCED_FACE ( 'NONE', ( #869 ), #370, .F. ) ;
#590 = AXIS2_PLACEMENT_3D ( 'NONE', #9, #288, #393 ) ;
#591 = CIRCLE ( 'NONE', #655, 1.500000000000000222 ) ;
#592 = CARTESIAN_POINT ( 'NONE',  ( 3.000000000000000444, 2.000000000000000000, 25.00000000000000000 ) ) ;
#593 = FACE_BOUND ( 'NONE', #1221, .T. ) ;
#594 = DIRECTION ( 'NONE',  ( 0.000000000000000000, 0.000000000000000000, -1.000000000000000000 ) ) ;
#595 = ORIENTED_EDGE ( 'NONE', *, *, #284, .F. ) ;
#596 = CARTESIAN_POINT ( 'NONE',  ( -16.49999999999923972, 0.000000000000000000, -1.150000000000354961 ) ) ;
#597 = EDGE_CURVE ( 'NONE', #538, #626, #13, .T. ) ;
#598 = ORIENTED_EDGE ( 'NONE', *, *, #436, .F. ) ;
#599 = DIRECTION ( 'NONE',  ( 0.000000000000000000, 1.000000000000000000, 0.000000000000000000 ) ) ;
#600 = CARTESIAN_POINT ( 'NONE',  ( -2.999999999999999556, 2.000000000000000000, 11.00000000000005507 ) ) ;
#601 = LINE ( 'NONE', #314, #160 ) ;
#602 = ORIENTED_EDGE ( 'NONE', *, *, #411, .F. ) ;
#603 = ORIENTED_EDGE ( 'NONE', *, *, #455, .T. ) ;
#604 = DIRECTION ( 'NONE',  ( 0.000000000000000000, 1.000000000000000000, -0.000000000000000000 ) ) ;
#605 = EDGE_CURVE ( 'NONE', #403, #526, #279, .T. ) ;
#606 = FACE_OUTER_BOUND ( 'NONE', #1147, .T. ) ;
#607 = DIRECTION ( 'NONE',  ( 0.000000000000000000, 1.000000000000000000, 0.000000000000000000 ) ) ;
#608 = EDGE_LOOP ( 'NONE', ( #890, #885, #842, #409 ) ) ;
#609 = VECTOR ( 'NONE', #1172, 1000.000000000000000 ) ;
#610 = AXIS2_PLACEMENT_3D ( 'NONE', #154, #1223, #356 ) ;
#611 = MECHANICAL_DESIGN_GEOMETRIC_PRESENTATION_REPRESENTATION (  '', ( #342 ), #1044 ) ;
#612 = DIRECTION ( 'NONE',  ( 0.000000000000000000, 1.000000000000000000, 0.000000000000000000 ) ) ;
#613 = AXIS2_PLACEMENT_3D ( 'NONE', #458, #1069, #501 ) ;
#614 = EDGE_LOOP ( 'NONE', ( #159, #1154 ) ) ;
#615 = LINE ( 'NONE', #1079, #1228 ) ;
#616 = SHAPE_DEFINITION_REPRESENTATION ( #1098, #643 ) ;
#617 = VERTEX_POINT ( 'NONE', #556 ) ;
#618 = DIRECTION ( 'NONE',  ( 0.000000000000000000, 1.000000000000000000, -0.000000000000000000 ) ) ;
#619 = DIRECTION ( 'NONE',  ( 1.000000000000000000, -0.000000000000000000, 0.000000000000000000 ) ) ;
#620 = VERTEX_POINT ( 'NONE', #466 ) ;
#621 = EDGE_CURVE ( 'NONE', #928, #620, #1168, .T. ) ;
#622 = SURFACE_SIDE_STYLE ('',( #469 ) ) ;
#623 = ORIENTED_EDGE ( 'NONE', *, *, #171, .T. ) ;
#624 = CARTESIAN_POINT ( 'NONE',  ( -24.99999999999999645, 0.000000000000000000, 3.000000000000000000 ) ) ;
#625 = FACE_OUTER_BOUND ( 'NONE', #1086, .T. ) ;
#626 = VERTEX_POINT ( 'NONE', #664 ) ;
#627 = CARTESIAN_POINT ( 'NONE',  ( 0.000000000000000000, -10.00000000000000000, -10.50000000000000000 ) ) ;
#628 = EDGE_CURVE ( 'NONE', #346, #58, #480, .T. ) ;
#629 = EDGE_LOOP ( 'NONE', ( #642, #326 ) ) ;
#630 = CLOSED_SHELL ( 'NONE', ( #92, #1127, #1054, #670, #276, #150, #442, #1087, #1014, #360, #1078, #22, #366, #67, #826, #299, #292, #818, #101, #639, #264, #74, #187, #461, #690, #777, #315, #1248, #14, #937, #647, #241, #809, #589, #424, #1102 ) ) ;
#631 = CARTESIAN_POINT ( 'NONE',  ( 16.50000000000076383, -10.00000000000000000, -1.150000000001325295 ) ) ;
#632 = VECTOR ( 'NONE', #771, 1000.000000000000000 ) ;
#633 = CARTESIAN_POINT ( 'NONE',  ( 3.000000000000000444, 2.000000000000000000, 0.000000000000000000 ) ) ;
#634 = VECTOR ( 'NONE', #55, 1000.000000000000000 ) ;
#635 = VECTOR ( 'NONE', #1229, 1000.000000000000000 ) ;
#636 = ORIENTED_EDGE ( 'NONE', *, *, #605, .T. ) ;
#637 = ORIENTED_EDGE ( 'NONE', *, *, #79, .F. ) ;
#638 = ORIENTED_EDGE ( 'NONE', *, *, #581, .F. ) ;
#639 = ADVANCED_FACE ( 'NONE', ( #562 ), #97, .T. ) ;
#640 = DIRECTION ( 'NONE',  ( 0.000000000000000000, 0.000000000000000000, 1.000000000000000000 ) ) ;
#641 = DIRECTION ( 'NONE',  ( 0.000000000000000000, 0.000000000000000000, 1.000000000000000000 ) ) ;
#642 = ORIENTED_EDGE ( 'NONE', *, *, #1214, .T. ) ;
#643 = ADVANCED_BREP_SHAPE_REPRESENTATION ( '22', ( #687, #1174 ), #422 ) ;
#644 = FILL_AREA_STYLE ('',( #1137 ) ) ;
#645 = VERTEX_POINT ( 'NONE', #964 ) ;
#646 = CARTESIAN_POINT ( 'NONE',  ( 0.000000000000000000, 0.000000000000000000, 3.000000000000000000 ) ) ;
#647 = ADVANCED_FACE ( 'NONE', ( #385 ), #763, .F. ) ;
#648 = CARTESIAN_POINT ( 'NONE',  ( -2.999999999999999556, 2.000000000000000000, -25.00000000000000000 ) ) ;
#649 = ORIENTED_EDGE ( 'NONE', *, *, #1047, .F. ) ;
#650 = ORIENTED_EDGE ( 'NONE', *, *, #557, .T. ) ;
#651 = LINE ( 'NONE', #1222, #1088 ) ;
#652 = DIRECTION ( 'NONE',  ( 0.000000000000000000, 0.000000000000000000, 1.000000000000000000 ) ) ;
#653 = AXIS2_PLACEMENT_3D ( 'NONE', #85, #840, #1235 ) ;
#654 = CARTESIAN_POINT ( 'NONE',  ( 1.526320389385790169E-12, 2.000000000000000000, 16.50000000000000000 ) ) ;
#655 = AXIS2_PLACEMENT_3D ( 'NONE', #325, #118, #766 ) ;
#656 = EDGE_CURVE ( 'NONE', #58, #574, #571, .T. ) ;
#657 = CARTESIAN_POINT ( 'NONE',  ( 3.000000000000000444, 2.000000000000000000, -11.00000000000005507 ) ) ;
#658 = ORIENTED_EDGE ( 'NONE', *, *, #337, .F. ) ;
#659 = CARTESIAN_POINT ( 'NONE',  ( 3.000000000000000444, 0.000000000000000000, -25.00000000000000000 ) ) ;
#660 = DIRECTION ( 'NONE',  ( 0.000000000000000000, -1.000000000000000000, 0.000000000000000000 ) ) ;
#661 = ORIENTED_EDGE ( 'NONE', *, *, #1119, .F. ) ;
#662 = EDGE_LOOP ( 'NONE', ( #543, #1095, #1028, #545 ) ) ;
#663 = EDGE_CURVE ( 'NONE', #65, #667, #83, .T. ) ;
#664 = CARTESIAN_POINT ( 'NONE',  ( 25.00000000000000000, 0.000000000000000000, -3.000000000000000000 ) ) ;
#665 = CARTESIAN_POINT ( 'NONE',  ( 1.525585601306301808E-12, 2.000000000000000000, 11.65000000000152980 ) ) ;
#666 = LINE ( 'NONE', #303, #815 ) ;
#667 = VERTEX_POINT ( 'NONE', #353 ) ;
#668 = APPLICATION_CONTEXT ( 'automotive_design' ) ;
#669 = ORIENTED_EDGE ( 'NONE', *, *, #784, .T. ) ;
#670 = ADVANCED_FACE ( 'NONE', ( #938 ), #382, .F. ) ;
#671 = DIRECTION ( 'NONE',  ( 0.000000000000000000, 1.000000000000000000, 0.000000000000000000 ) ) ;
#672 = EDGE_CURVE ( 'NONE', #848, #1034, #262, .T. ) ;
#673 = DIRECTION ( 'NONE',  ( -0.000000000000000000, 1.000000000000000000, -0.000000000000000000 ) ) ;
#674 = CARTESIAN_POINT ( 'NONE',  ( 0.000000000000000000, 0.000000000000000000, -3.000000000000000000 ) ) ;
#675 = FACE_OUTER_BOUND ( 'NONE', #254, .T. ) ;
#676 = EDGE_LOOP ( 'NONE', ( #374, #1233, #767, #238 ) ) ;
#677 = CIRCLE ( 'NONE', #339, 1.150000000001530021 ) ;
#678 = ORIENTED_EDGE ( 'NONE', *, *, #1145, .F. ) ;
#679 = VECTOR ( 'NONE', #917, 1000.000000000000000 ) ;
#680 = DIRECTION ( 'NONE',  ( -0.000000000000000000, -1.000000000000000000, -0.000000000000000000 ) ) ;
#681 = ORIENTED_EDGE ( 'NONE', *, *, #171, .F. ) ;
#682 = LINE ( 'NONE', #1146, #752 ) ;
#683 = EDGE_CURVE ( 'NONE', #781, #273, #54, .T. ) ;
#684 = CARTESIAN_POINT ( 'NONE',  ( 3.000000000000000444, 0.000000000000000000, 0.000000000000000000 ) ) ;
#685 = EDGE_LOOP ( 'NONE', ( #179, #916 ) ) ;
#686 = DIRECTION ( 'NONE',  ( 0.000000000000000000, 1.000000000000000000, -0.000000000000000000 ) ) ;
#687 = MANIFOLD_SOLID_BREP ( '\X2\501289d2\X0\1', #630 ) ;
#688 = CARTESIAN_POINT ( 'NONE',  ( 0.000000000000000000, 2.000000000000000000, 0.000000000000000000 ) ) ;
#689 = FACE_BOUND ( 'NONE', #919, .T. ) ;
#690 = ADVANCED_FACE ( 'NONE', ( #63 ), #1120, .F. ) ;
#691 = LINE ( 'NONE', #906, #1021 ) ;
#692 = ORIENTED_EDGE ( 'NONE', *, *, #117, .F. ) ;
#693 = CARTESIAN_POINT ( 'NONE',  ( -11.00000000000005507, 2.000000000000000000, -3.000000000000000000 ) ) ;
#694 = CARTESIAN_POINT ( 'NONE',  ( 1.525726435688204015E-12, -10.00000000000000000, 9.349999999998470201 ) ) ;
#695 = FACE_BOUND ( 'NONE', #1118, .T. ) ;
#696 = VECTOR ( 'NONE', #412, 1000.000000000000000 ) ;
#697 = VERTEX_POINT ( 'NONE', #534 ) ;
#698 = CIRCLE ( 'NONE', #792, 1.150000000000541922 ) ;
#699 = AXIS2_PLACEMENT_3D ( 'NONE', #941, #69, #348 ) ;
#700 = AXIS2_PLACEMENT_3D ( 'NONE', #1006, #824, #147 ) ;
#701 = ORIENTED_EDGE ( 'NONE', *, *, #1220, .F. ) ;
#702 = LINE ( 'NONE', #798, #396 ) ;
#703 = PLANE ( 'NONE',  #1124 ) ;
#704 = VERTEX_POINT ( 'NONE', #739 ) ;
#705 = EDGE_CURVE ( 'NONE', #1204, #733, #345, .T. ) ;
#706 = ORIENTED_EDGE ( 'NONE', *, *, #761, .T. ) ;
#707 = CARTESIAN_POINT ( 'NONE',  ( -16.49999999999923972, -10.00000000000000000, 7.611395274743019419E-13 ) ) ;
#708 = CARTESIAN_POINT ( 'NONE',  ( 6.999999999999965361, 0.000000000000000000, 7.000000000000044409 ) ) ;
#709 = FACE_OUTER_BOUND ( 'NONE', #1004, .T. ) ;
#710 = ORIENTED_EDGE ( 'NONE', *, *, #998, .T. ) ;
#711 = ORIENTED_EDGE ( 'NONE', *, *, #887, .F. ) ;
#712 = CARTESIAN_POINT ( 'NONE',  ( 16.50000000000076383, 2.000000000000000000, 1.149999999999799183 ) ) ;
#713 = DIRECTION ( 'NONE',  ( -1.000000000000000000, 0.000000000000000000, -0.000000000000000000 ) ) ;
#714 = ORIENTED_EDGE ( 'NONE', *, *, #1145, .T. ) ;
#715 = EDGE_LOOP ( 'NONE', ( #523, #269, #1018, #1166 ) ) ;
#716 = AXIS2_PLACEMENT_3D ( 'NONE', #779, #880, #309 ) ;
#717 = CARTESIAN_POINT ( 'NONE',  ( -16.49999999999923972, -10.00000000000000000, -1.150000000000354961 ) ) ;
#718 = COLOUR_RGB ( '',0.7921568627450980005, 0.8196078431372548767, 0.9333333333333333481 ) ;
#719 = EDGE_CURVE ( 'NONE', #744, #533, #615, .T. ) ;
#720 = CARTESIAN_POINT ( 'NONE',  ( 1.408343819019456028E-16, -10.00000000000000000, -11.65000000000000036 ) ) ;
#721 = AXIS2_PLACEMENT_3D ( 'NONE', #778, #1175, #308 ) ;
#722 = EDGE_LOOP ( 'NONE', ( #45, #1101, #1182, #277 ) ) ;
#723 = APPLICATION_PROTOCOL_DEFINITION ( 'draft international standard', 'automotive_design', 1998, #668 ) ;
#724 = VERTEX_POINT ( 'NONE', #425 ) ;
#725 = DIRECTION ( 'NONE',  ( 0.000000000000000000, 0.000000000000000000, -1.000000000000000000 ) ) ;
#726 = LINE ( 'NONE', #648, #278 ) ;
#727 = EDGE_CURVE ( 'NONE', #526, #423, #331, .T. ) ;
#728 = ORIENTED_EDGE ( 'NONE', *, *, #500, .T. ) ;
#729 =( NAMED_UNIT ( * ) PLANE_ANGLE_UNIT ( ) SI_UNIT ( $, .RADIAN. ) );
#730 = DIRECTION ( 'NONE',  ( -1.000000000000000000, 0.000000000000000000, -0.000000000000000000 ) ) ;
#731 = CARTESIAN_POINT ( 'NONE',  ( 1.525585601306301808E-12, -10.00000000000000000, 10.50000000000000000 ) ) ;
#732 = ORIENTED_EDGE ( 'NONE', *, *, #332, .F. ) ;
#733 = VERTEX_POINT ( 'NONE', #27 ) ;
#734 = EDGE_CURVE ( 'NONE', #1112, #103, #408, .T. ) ;
#735 = CARTESIAN_POINT ( 'NONE',  ( -11.00000000000005507, 0.000000000000000000, -3.000000000000000000 ) ) ;
#736 = CARTESIAN_POINT ( 'NONE',  ( -2.999999999999999556, 0.000000000000000000, 11.00000000000005507 ) ) ;
#737 = AXIS2_PLACEMENT_3D ( 'NONE', #520, #514, #905 ) ;
#738 = ORIENTED_EDGE ( 'NONE', *, *, #542, .T. ) ;
#739 = CARTESIAN_POINT ( 'NONE',  ( 3.000000000000000444, 2.000000000000000000, 25.00000000000000000 ) ) ;
#740 = EDGE_CURVE ( 'NONE', #239, #841, #377, .T. ) ;
#741 = VERTEX_POINT ( 'NONE', #596 ) ;
#742 = DIRECTION ( 'NONE',  ( -0.000000000000000000, -1.000000000000000000, -0.000000000000000000 ) ) ;
#743 = DIRECTION ( 'NONE',  ( 0.000000000000000000, 1.000000000000000000, -0.000000000000000000 ) ) ;
#744 = VERTEX_POINT ( 'NONE', #989 ) ;
#745 = ORIENTED_EDGE ( 'NONE', *, *, #1199, .T. ) ;
#746 = LINE ( 'NONE', #646, #1153 ) ;
#747 = CARTESIAN_POINT ( 'NONE',  ( -10.49999999999923794, -10.00000000000000000, 7.615069215140461221E-13 ) ) ;
#748 = ORIENTED_EDGE ( 'NONE', *, *, #516, .T. ) ;
#749 = CARTESIAN_POINT ( 'NONE',  ( 0.000000000000000000, 0.000000000000000000, -3.000000000000000000 ) ) ;
#750 = CARTESIAN_POINT ( 'NONE',  ( -16.49999999999923972, 0.000000000000000000, 1.150000000001877076 ) ) ;
#751 = FACE_OUTER_BOUND ( 'NONE', #1186, .T. ) ;
#752 = VECTOR ( 'NONE', #368, 1000.000000000000000 ) ;
#753 = EDGE_CURVE ( 'NONE', #245, #354, #1210, .T. ) ;
#754 = ORIENTED_EDGE ( 'NONE', *, *, #117, .T. ) ;
#755 = VECTOR ( 'NONE', #1041, 1000.000000000000000 ) ;
#756 = ORIENTED_EDGE ( 'NONE', *, *, #1008, .T. ) ;
#757 = DIRECTION ( 'NONE',  ( 0.000000000000000000, -1.000000000000000000, 0.000000000000000000 ) ) ;
#758 = DIRECTION ( 'NONE',  ( 0.000000000000000000, 0.000000000000000000, 1.000000000000000000 ) ) ;
#759 = CARTESIAN_POINT ( 'NONE',  ( 10.50000000000076206, 2.000000000000000000, 1.149999999999778977 ) ) ;
#760 = CARTESIAN_POINT ( 'NONE',  ( 25.00000000000000000, 2.000000000000000000, 3.000000000000000000 ) ) ;
#761 = EDGE_CURVE ( 'NONE', #645, #1204, #591, .T. ) ;
#762 = ORIENTED_EDGE ( 'NONE', *, *, #705, .T. ) ;
#763 = CYLINDRICAL_SURFACE ( 'NONE', #551, 1.150000000000562350 ) ;
#764 = DIRECTION ( 'NONE',  ( 0.000000000000000000, 0.000000000000000000, 1.000000000000000000 ) ) ;
#765 = CARTESIAN_POINT ( 'NONE',  ( 0.000000000000000000, 2.000000000000000000, -3.000000000000000000 ) ) ;
#766 = DIRECTION ( 'NONE',  ( 0.000000000000000000, 0.000000000000000000, 1.000000000000000000 ) ) ;
#767 = ORIENTED_EDGE ( 'NONE', *, *, #983, .T. ) ;
#768 = CARTESIAN_POINT ( 'NONE',  ( -16.49999999999923972, 2.000000000000000000, 7.611395274743019419E-13 ) ) ;
#769 = EDGE_CURVE ( 'NONE', #295, #823, #503, .T. ) ;
#770 = CARTESIAN_POINT ( 'NONE',  ( 0.000000000000000000, 2.000000000000000000, -3.000000000000000000 ) ) ;
#771 = DIRECTION ( 'NONE',  ( 1.000000000000000000, -0.000000000000000000, 0.000000000000000000 ) ) ;
#772 = CARTESIAN_POINT ( 'NONE',  ( 1.836970198721030181E-16, 0.000000000000000000, 1.500000000000000222 ) ) ;
#773 = CIRCLE ( 'NONE', #853, 1.150000000000541922 ) ;
#774 = EDGE_LOOP ( 'NONE', ( #333, #692, #444, #910 ) ) ;
#775 = AXIS2_PLACEMENT_3D ( 'NONE', #214, #686, #1048 ) ;
#776 = CARTESIAN_POINT ( 'NONE',  ( -6.999999999999965361, 0.000000000000000000, -7.000000000000044409 ) ) ;
#777 = ADVANCED_FACE ( 'NONE', ( #675 ), #881, .F. ) ;
#778 = CARTESIAN_POINT ( 'NONE',  ( 1.526320389385790169E-12, 0.000000000000000000, 16.50000000000000000 ) ) ;
#779 = CARTESIAN_POINT ( 'NONE',  ( 16.50000000000076383, 0.000000000000000000, -7.631601946928950844E-13 ) ) ;
#780 = CARTESIAN_POINT ( 'NONE',  ( 1.525585601306301808E-12, -10.00000000000000000, 10.50000000000000000 ) ) ;
#781 = VERTEX_POINT ( 'NONE', #68 ) ;
#782 = CARTESIAN_POINT ( 'NONE',  ( 1.526320389385790169E-12, -10.00000000000000000, 17.65000000000157243 ) ) ;
#783 = DIRECTION ( 'NONE',  ( 0.000000000000000000, 0.000000000000000000, -1.000000000000000000 ) ) ;
#784 = EDGE_CURVE ( 'NONE', #114, #285, #508, .T. ) ;
#785 = DIRECTION ( 'NONE',  ( 0.000000000000000000, 0.000000000000000000, 1.000000000000000000 ) ) ;
#786 = ORIENTED_EDGE ( 'NONE', *, *, #850, .F. ) ;
#787 = ORIENTED_EDGE ( 'NONE', *, *, #500, .F. ) ;
#788 = CARTESIAN_POINT ( 'NONE',  ( -10.49999999999923794, 2.000000000000000000, 7.615069215140461221E-13 ) ) ;
#789 = CARTESIAN_POINT ( 'NONE',  ( 1.408343819019456028E-16, 0.000000000000000000, -11.65000000000000036 ) ) ;
#790 = EDGE_CURVE ( 'NONE', #617, #225, #911, .T. ) ;
#791 = ORIENTED_EDGE ( 'NONE', *, *, #1184, .F. ) ;
#792 = AXIS2_PLACEMENT_3D ( 'NONE', #1185, #889, #785 ) ;
#793 = CIRCLE ( 'NONE', #716, 1.150000000000562350 ) ;
#794 = VECTOR ( 'NONE', #143, 1000.000000000000000 ) ;
#795 = APPLICATION_PROTOCOL_DEFINITION ( 'draft international standard', 'automotive_design', 1998, #82 ) ;
#796 = ORIENTED_EDGE ( 'NONE', *, *, #109, .F. ) ;
#797 = CIRCLE ( 'NONE', #1005, 1.149999999999999911 ) ;
#798 = CARTESIAN_POINT ( 'NONE',  ( 0.000000000000000000, 2.000000000000000000, 3.000000000000000000 ) ) ;
#799 = DIRECTION ( 'NONE',  ( 0.000000000000000000, 1.000000000000000000, 0.000000000000000000 ) ) ;
#800 = CARTESIAN_POINT ( 'NONE',  ( 0.000000000000000000, 2.000000000000000000, 3.000000000000000000 ) ) ;
#801 = VERTEX_POINT ( 'NONE', #923 ) ;
#802 = EDGE_CURVE ( 'NONE', #526, #173, #1097, .T. ) ;
#803 = PRODUCT_CONTEXT ( 'NONE', #82, 'mechanical' ) ;
#804 = ORIENTED_EDGE ( 'NONE', *, *, #930, .F. ) ;
#805 = CARTESIAN_POINT ( 'NONE',  ( -16.49999999999923972, 0.000000000000000000, 7.611395274743019419E-13 ) ) ;
#806 = CYLINDRICAL_SURFACE ( 'NONE', #178, 1.500000000000000222 ) ;
#807 = ORIENTED_EDGE ( 'NONE', *, *, #1059, .F. ) ;
#808 = CARTESIAN_POINT ( 'NONE',  ( 16.50000000000076383, 2.000000000000000000, -7.631601946928950844E-13 ) ) ;
#809 = ADVANCED_FACE ( 'NONE', ( #427 ), #441, .T. ) ;
#810 = ORIENTED_EDGE ( 'NONE', *, *, #930, .T. ) ;
#811 = DIRECTION ( 'NONE',  ( 0.000000000000000000, 0.000000000000000000, -1.000000000000000000 ) ) ;
#812 = DIRECTION ( 'NONE',  ( -1.000000000000000000, 0.000000000000000000, 0.000000000000000000 ) ) ;
#813 = AXIS2_PLACEMENT_3D ( 'NONE', #654, #855, #191 ) ;
#814 = ORIENTED_EDGE ( 'NONE', *, *, #79, .T. ) ;
#815 = VECTOR ( 'NONE', #88, 1000.000000000000000 ) ;
#816 = ORIENTED_EDGE ( 'NONE', *, *, #250, .T. ) ;
#817 = AXIS2_PLACEMENT_3D ( 'NONE', #768, #208, #151 ) ;
#818 = ADVANCED_FACE ( 'NONE', ( #48 ), #236, .T. ) ;
#819 = CARTESIAN_POINT ( 'NONE',  ( -2.999999999999999556, 0.000000000000000000, -0.000000000000000000 ) ) ;
#820 = PLANE ( 'NONE',  #1149 ) ;
#821 = ORIENTED_EDGE ( 'NONE', *, *, #436, .T. ) ;
#822 = CARTESIAN_POINT ( 'NONE',  ( 1.526461223767692376E-12, -10.00000000000000000, 15.34999999999843112 ) ) ;
#823 = VERTEX_POINT ( 'NONE', #334 ) ;
#824 = DIRECTION ( 'NONE',  ( 0.7071067811865435759, -0.000000000000000000, 0.7071067811865514585 ) ) ;
#825 = DIRECTION ( 'NONE',  ( 0.000000000000000000, 0.000000000000000000, 1.000000000000000000 ) ) ;
#826 = ADVANCED_FACE ( 'NONE', ( #606 ), #240, .F. ) ;
#827 = VERTEX_POINT ( 'NONE', #40 ) ;
#828 = CARTESIAN_POINT ( 'NONE',  ( 0.000000000000000000, 2.000000000000000000, 0.000000000000000000 ) ) ;
#829 = CARTESIAN_POINT ( 'NONE',  ( 1.525585601306301808E-12, -10.00000000000000000, 11.65000000000152980 ) ) ;
#830 = ORIENTED_EDGE ( 'NONE', *, *, #1199, .F. ) ;
#831 = EDGE_CURVE ( 'NONE', #225, #175, #419, .T. ) ;
#832 = ORIENTED_EDGE ( 'NONE', *, *, #802, .T. ) ;
#833 = LINE ( 'NONE', #631, #635 ) ;
#834 = CIRCLE ( 'NONE', #699, 1.149999999999999911 ) ;
#835 = DIRECTION ( 'NONE',  ( -0.000000000000000000, 1.000000000000000000, -0.000000000000000000 ) ) ;
#836 = VECTOR ( 'NONE', #1116, 1000.000000000000000 ) ;
#837 = VECTOR ( 'NONE', #956, 1000.000000000000000 ) ;
#838 = ORIENTED_EDGE ( 'NONE', *, *, #863, .F. ) ;
#839 = DIRECTION ( 'NONE',  ( 1.000000000000000000, -0.000000000000000000, 0.000000000000000000 ) ) ;
#840 = DIRECTION ( 'NONE',  ( -1.000000000000000000, 0.000000000000000000, 0.000000000000000000 ) ) ;
#841 = VERTEX_POINT ( 'NONE', #712 ) ;
#842 = ORIENTED_EDGE ( 'NONE', *, *, #753, .T. ) ;
#843 = CARTESIAN_POINT ( 'NONE',  ( -24.99999999999999645, 0.000000000000000000, -0.000000000000000000 ) ) ;
#844 = EDGE_CURVE ( 'NONE', #457, #1112, #1104, .T. ) ;
#845 = CARTESIAN_POINT ( 'NONE',  ( -10.49999999999923794, 2.000000000000000000, -1.150000000000294342 ) ) ;
#846 = DIRECTION ( 'NONE',  ( 0.000000000000000000, 1.000000000000000000, 0.000000000000000000 ) ) ;
#847 = ORIENTED_EDGE ( 'NONE', *, *, #1214, .F. ) ;
#848 = VERTEX_POINT ( 'NONE', #997 ) ;
#849 = CARTESIAN_POINT ( 'NONE',  ( 10.99999999999996625, 2.000000000000000000, -3.000000000000000000 ) ) ;
#850 = EDGE_CURVE ( 'NONE', #827, #225, #328, .T. ) ;
#851 = LINE ( 'NONE', #463, #98 ) ;
#852 = CIRCLE ( 'NONE', #567, 1.149999999999999911 ) ;
#853 = AXIS2_PLACEMENT_3D ( 'NONE', #866, #387, #579 ) ;
#854 = PRESENTATION_STYLE_ASSIGNMENT (( #1013 ) ) ;
#855 = DIRECTION ( 'NONE',  ( 0.000000000000000000, 1.000000000000000000, 0.000000000000000000 ) ) ;
#856 = CIRCLE ( 'NONE', #320, 1.150000000001116129 ) ;
#857 = VECTOR ( 'NONE', #1122, 1000.000000000000000 ) ;
#858 = EDGE_LOOP ( 'NONE', ( #453, #1113 ) ) ;
#859 = DIRECTION ( 'NONE',  ( 0.000000000000000000, 0.000000000000000000, -1.000000000000000000 ) ) ;
#860 = DIRECTION ( 'NONE',  ( -0.000000000000000000, -1.000000000000000000, -0.000000000000000000 ) ) ;
#861 = CARTESIAN_POINT ( 'NONE',  ( -2.999999999999999556, 0.000000000000000000, -25.00000000000000000 ) ) ;
#862 = ORIENTED_EDGE ( 'NONE', *, *, #967, .T. ) ;
#863 = EDGE_CURVE ( 'NONE', #295, #431, #44, .T. ) ;
#864 = CARTESIAN_POINT ( 'NONE',  ( 1.525585601306301808E-12, 0.000000000000000000, 10.50000000000000000 ) ) ;
#865 = CARTESIAN_POINT ( 'NONE',  ( 0.000000000000000000, 2.000000000000000000, -1.500000000000000222 ) ) ;
#866 = CARTESIAN_POINT ( 'NONE',  ( 10.50000000000076206, 2.000000000000000000, -7.627928006531509042E-13 ) ) ;
#867 = ORIENTED_EDGE ( 'NONE', *, *, #109, .T. ) ;
#868 = EDGE_CURVE ( 'NONE', #1009, #741, #856, .T. ) ;
#869 = FACE_OUTER_BOUND ( 'NONE', #89, .T. ) ;
#870 = CARTESIAN_POINT ( 'NONE',  ( 25.00000000000000000, 2.000000000000000000, -3.000000000000000000 ) ) ;
#871 = CIRCLE ( 'NONE', #813, 1.150000000001569989 ) ;
#872 = CARTESIAN_POINT ( 'NONE',  ( 0.000000000000000000, 0.000000000000000000, -9.350000000000001421 ) ) ;
#873 = EDGE_LOOP ( 'NONE', ( #807, #814, #289, #505 ) ) ;
#874 = ORIENTED_EDGE ( 'NONE', *, *, #705, .F. ) ;
#875 = CIRCLE ( 'NONE', #42, 1.149999999999999911 ) ;
#876 = AXIS2_PLACEMENT_3D ( 'NONE', #1072, #846, #482 ) ;
#877 = ORIENTED_EDGE ( 'NONE', *, *, #831, .T. ) ;
#878 = CIRCLE ( 'NONE', #721, 1.150000000001569989 ) ;
#879 = DIRECTION ( 'NONE',  ( 0.000000000000000000, 1.000000000000000000, 0.000000000000000000 ) ) ;
#880 = DIRECTION ( 'NONE',  ( 0.000000000000000000, 1.000000000000000000, -0.000000000000000000 ) ) ;
#881 = CYLINDRICAL_SURFACE ( 'NONE', #531, 1.150000000001116129 ) ;
#882 = DIRECTION ( 'NONE',  ( 0.000000000000000000, 0.000000000000000000, 1.000000000000000000 ) ) ;
#883 = ORIENTED_EDGE ( 'NONE', *, *, #527, .F. ) ;
#884 = DIRECTION ( 'NONE',  ( -0.000000000000000000, 1.000000000000000000, -0.000000000000000000 ) ) ;
#885 = ORIENTED_EDGE ( 'NONE', *, *, #914, .T. ) ;
#886 = DIRECTION ( 'NONE',  ( 1.000000000000000000, -0.000000000000000000, 0.000000000000000000 ) ) ;
#887 = EDGE_CURVE ( 'NONE', #741, #65, #432, .T. ) ;
#888 = DIRECTION ( 'NONE',  ( -0.000000000000000000, 1.000000000000000000, -0.000000000000000000 ) ) ;
#889 = DIRECTION ( 'NONE',  ( 0.000000000000000000, 1.000000000000000000, -0.000000000000000000 ) ) ;
#890 = ORIENTED_EDGE ( 'NONE', *, *, #894, .F. ) ;
#891 = EDGE_LOOP ( 'NONE', ( #47, #1142, #1106, #506 ) ) ;
#892 = DIRECTION ( 'NONE',  ( 0.000000000000000000, 1.000000000000000000, 0.000000000000000000 ) ) ;
#893 = DIRECTION ( 'NONE',  ( 0.000000000000000000, -1.000000000000000000, 0.000000000000000000 ) ) ;
#894 = EDGE_CURVE ( 'NONE', #440, #580, #359, .T. ) ;
#895 = CARTESIAN_POINT ( 'NONE',  ( 0.000000000000000000, 2.000000000000000000, 0.000000000000000000 ) ) ;
#896 = EDGE_CURVE ( 'NONE', #465, #617, #153, .T. ) ;
#897 = ORIENTED_EDGE ( 'NONE', *, *, #477, .T. ) ;
#898 = AXIS2_PLACEMENT_3D ( 'NONE', #52, #237, #1091 ) ;
#899 = PRODUCT_DEFINITION_CONTEXT ( 'detailed design', #668, 'design' ) ;
#900 = VECTOR ( 'NONE', #783, 1000.000000000000000 ) ;
#901 = VECTOR ( 'NONE', #1110, 1000.000000000000000 ) ;
#902 =( NAMED_UNIT ( * ) PLANE_ANGLE_UNIT ( ) SI_UNIT ( $, .RADIAN. ) );
#903 = EDGE_LOOP ( 'NONE', ( #213, #650 ) ) ;
#904 = VECTOR ( 'NONE', #860, 1000.000000000000000 ) ;
#905 = DIRECTION ( 'NONE',  ( 0.000000000000000000, 0.000000000000000000, 1.000000000000000000 ) ) ;
#906 = CARTESIAN_POINT ( 'NONE',  ( 11.00000000000005684, 2.000000000000000000, 3.000000000000000000 ) ) ;
#907 = EDGE_LOOP ( 'NONE', ( #1064, #582, #460, #115 ) ) ;
#908 = EDGE_CURVE ( 'NONE', #346, #336, #1016, .T. ) ;
#909 = DIRECTION ( 'NONE',  ( 0.000000000000000000, 1.000000000000000000, 0.000000000000000000 ) ) ;
#910 = ORIENTED_EDGE ( 'NONE', *, *, #324, .T. ) ;
#911 = LINE ( 'NONE', #528, #223 ) ;
#912 = DIRECTION ( 'NONE',  ( -1.000000000000000000, 0.000000000000000000, 0.000000000000000000 ) ) ;
#913 = ORIENTED_EDGE ( 'NONE', *, *, #734, .T. ) ;
#914 = EDGE_CURVE ( 'NONE', #440, #245, #255, .T. ) ;
#915 = CARTESIAN_POINT ( 'NONE',  ( -24.99999999999999645, 2.000000000000000000, -3.000000000000000000 ) ) ;
#916 = ORIENTED_EDGE ( 'NONE', *, *, #753, .F. ) ;
#917 = DIRECTION ( 'NONE',  ( 1.000000000000000000, -0.000000000000000000, 0.000000000000000000 ) ) ;
#918 = CARTESIAN_POINT ( 'NONE',  ( 1.408343819019455042E-16, 2.000000000000000000, -17.65000000000000213 ) ) ;
#919 = EDGE_LOOP ( 'NONE', ( #754, #548 ) ) ;
#920 = AXIS2_PLACEMENT_3D ( 'NONE', #1152, #282, #660 ) ;
#921 = CARTESIAN_POINT ( 'NONE',  ( 1.526320389385790169E-12, -10.00000000000000000, 16.50000000000000000 ) ) ;
#922 = VECTOR ( 'NONE', #671, 1000.000000000000000 ) ;
#923 = CARTESIAN_POINT ( 'NONE',  ( 0.000000000000000000, 2.000000000000000000, -9.350000000000001421 ) ) ;
#924 = CIRCLE ( 'NONE', #66, 1.150000000001055733 ) ;
#925 = LINE ( 'NONE', #452, #1130 ) ;
#926 = ORIENTED_EDGE ( 'NONE', *, *, #605, .F. ) ;
#927 = EDGE_LOOP ( 'NONE', ( #949, #519, #1176, #963 ) ) ;
#928 = VERTEX_POINT ( 'NONE', #624 ) ;
#929 = LINE ( 'NONE', #540, #755 ) ;
#930 = EDGE_CURVE ( 'NONE', #1155, #1188, #302, .T. ) ;
#931 = CARTESIAN_POINT ( 'NONE',  ( 25.00000000000000000, 0.000000000000000000, 3.000000000000000000 ) ) ;
#932 = ORIENTED_EDGE ( 'NONE', *, *, #908, .T. ) ;
#933 = ORIENTED_EDGE ( 'NONE', *, *, #250, .F. ) ;
#934 = DIRECTION ( 'NONE',  ( 0.7071067811865435759, 0.000000000000000000, 0.7071067811865515695 ) ) ;
#935 = DIRECTION ( 'NONE',  ( 0.000000000000000000, 0.000000000000000000, 1.000000000000000000 ) ) ;
#936 = ORIENTED_EDGE ( 'NONE', *, *, #831, .F. ) ;
#937 = ADVANCED_FACE ( 'NONE', ( #266 ), #367, .F. ) ;
#938 = FACE_OUTER_BOUND ( 'NONE', #479, .T. ) ;
#939 = DIRECTION ( 'NONE',  ( -0.000000000000000000, -1.000000000000000000, -0.000000000000000000 ) ) ;
#940 = CIRCLE ( 'NONE', #181, 1.150000000001116129 ) ;
#941 = CARTESIAN_POINT ( 'NONE',  ( 0.000000000000000000, 2.000000000000000000, -10.50000000000000000 ) ) ;
#942 = VECTOR ( 'NONE', #227, 1000.000000000000000 ) ;
#943 = ORIENTED_EDGE ( 'NONE', *, *, #1192, .F. ) ;
#944 = EDGE_CURVE ( 'NONE', #538, #403, #553, .T. ) ;
#945 = ORIENTED_EDGE ( 'NONE', *, *, #405, .F. ) ;
#946 = CARTESIAN_POINT ( 'NONE',  ( -16.49999999999923972, -10.00000000000000000, 1.150000000001877076 ) ) ;
#947 = DIRECTION ( 'NONE',  ( -0.000000000000000000, 1.000000000000000000, -0.000000000000000000 ) ) ;
#948 = ORIENTED_EDGE ( 'NONE', *, *, #944, .T. ) ;
#949 = ORIENTED_EDGE ( 'NONE', *, *, #1008, .F. ) ;
#950 = EDGE_CURVE ( 'NONE', #1009, #667, #536, .T. ) ;
#951 = CARTESIAN_POINT ( 'NONE',  ( 1.525585601306301808E-12, 2.000000000000000000, 10.50000000000000000 ) ) ;
#952 = CARTESIAN_POINT ( 'NONE',  ( 1.408343819019456521E-16, -10.00000000000000000, -17.65000000000000213 ) ) ;
#953 = ORIENTED_EDGE ( 'NONE', *, *, #656, .F. ) ;
#954 = DIRECTION ( 'NONE',  ( 0.7071067811865514585, 0.000000000000000000, -0.7071067811865435759 ) ) ;
#955 = VECTOR ( 'NONE', #421, 1000.000000000000000 ) ;
#956 = DIRECTION ( 'NONE',  ( -0.000000000000000000, 1.000000000000000000, -0.000000000000000000 ) ) ;
#957 = LINE ( 'NONE', #952, #298 ) ;
#958 = EDGE_CURVE ( 'NONE', #290, #114, #76, .T. ) ;
#959 = AXIS2_PLACEMENT_3D ( 'NONE', #707, #1081, #1177 ) ;
#960 = DIRECTION ( 'NONE',  ( 0.000000000000000000, 0.000000000000000000, 1.000000000000000000 ) ) ;
#961 = VECTOR ( 'NONE', #799, 1000.000000000000000 ) ;
#962 = AXIS2_PLACEMENT_3D ( 'NONE', #688, #215, #584 ) ;
#963 = ORIENTED_EDGE ( 'NONE', *, *, #384, .T. ) ;
#964 = CARTESIAN_POINT ( 'NONE',  ( 1.836970198721030181E-16, 2.000000000000000000, 1.500000000000000222 ) ) ;
#965 = DIRECTION ( 'NONE',  ( -0.000000000000000000, -1.000000000000000000, -0.000000000000000000 ) ) ;
#966 = LINE ( 'NONE', #674, #632 ) ;
#967 = EDGE_CURVE ( 'NONE', #21, #724, #1133, .T. ) ;
#968 = LINE ( 'NONE', #483, #609 ) ;
#969 = DIRECTION ( 'NONE',  ( 0.000000000000000000, 0.000000000000000000, -1.000000000000000000 ) ) ;
#970 = LINE ( 'NONE', #28, #400 ) ;
#971 = CARTESIAN_POINT ( 'NONE',  ( 10.99999999999996625, 0.000000000000000000, -3.000000000000000000 ) ) ;
#972 = EDGE_LOOP ( 'NONE', ( #71, #1160 ) ) ;
#973 = ORIENTED_EDGE ( 'NONE', *, *, #967, .F. ) ;
#974 = UNCERTAINTY_MEASURE_WITH_UNIT (LENGTH_MEASURE( 1.000000000000000082E-05 ), #1114, 'distance_accuracy_value', 'NONE');
#975 = CARTESIAN_POINT ( 'NONE',  ( 25.00000000000000000, 0.000000000000000000, 0.000000000000000000 ) ) ;
#976 = CYLINDRICAL_SURFACE ( 'NONE', #20, 1.149999999999999911 ) ;
#977 = AXIS2_PLACEMENT_3D ( 'NONE', #186, #1240, #1159 ) ;
#978 = DIRECTION ( 'NONE',  ( 0.000000000000000000, 1.000000000000000000, -0.000000000000000000 ) ) ;
#979 = CARTESIAN_POINT ( 'NONE',  ( 11.00000000000005684, 2.000000000000000000, 3.000000000000000000 ) ) ;
#980 = AXIS2_PLACEMENT_3D ( 'NONE', #788, #1189, #404 ) ;
#981 = EDGE_LOOP ( 'NONE', ( #569, #603 ) ) ;
#982 = VECTOR ( 'NONE', #965, 1000.000000000000000 ) ;
#983 = EDGE_CURVE ( 'NONE', #574, #423, #380, .T. ) ;
#984 = DIRECTION ( 'NONE',  ( -0.000000000000000000, 1.000000000000000000, -0.000000000000000000 ) ) ;
#985 = CARTESIAN_POINT ( 'NONE',  ( -24.99999999999999645, 2.000000000000000000, 3.000000000000000000 ) ) ;
#986 = CARTESIAN_POINT ( 'NONE',  ( 3.000000000000000444, 0.000000000000000000, -11.00000000000005507 ) ) ;
#987 = ORIENTED_EDGE ( 'NONE', *, *, #1220, .T. ) ;
#988 = EDGE_CURVE ( 'NONE', #827, #207, #746, .T. ) ;
#989 = CARTESIAN_POINT ( 'NONE',  ( 0.000000000000000000, 0.000000000000000000, -15.35000000000000142 ) ) ;
#990 = ORIENTED_EDGE ( 'NONE', *, *, #683, .F. ) ;
#991 = DIRECTION ( 'NONE',  ( 0.000000000000000000, 0.000000000000000000, 1.000000000000000000 ) ) ;
#992 = DIRECTION ( 'NONE',  ( 0.000000000000000000, 0.000000000000000000, 1.000000000000000000 ) ) ;
#993 = CARTESIAN_POINT ( 'NONE',  ( -2.999999999999999556, 2.000000000000000000, 0.000000000000000000 ) ) ;
#994 = ORIENTED_EDGE ( 'NONE', *, *, #527, .T. ) ;
#995 = EDGE_LOOP ( 'NONE', ( #90, #756, #1125, #661 ) ) ;
#996 = DIRECTION ( 'NONE',  ( 0.000000000000000000, 0.000000000000000000, 1.000000000000000000 ) ) ;
#997 = CARTESIAN_POINT ( 'NONE',  ( -11.00000000000005507, 2.000000000000000000, -3.000000000000000000 ) ) ;
#998 = EDGE_CURVE ( 'NONE', #58, #848, #929, .T. ) ;
#999 = FACE_OUTER_BOUND ( 'NONE', #662, .T. ) ;
#1000 = ORIENTED_EDGE ( 'NONE', *, *, #204, .F. ) ;
#1001 = VECTOR ( 'NONE', #947, 1000.000000000000000 ) ;
#1002 = AXIS2_PLACEMENT_3D ( 'NONE', #951, #93, #467 ) ;
#1003 = CARTESIAN_POINT ( 'NONE',  ( 0.000000000000000000, 2.000000000000000000, -1.500000000000000222 ) ) ;
#1004 = EDGE_LOOP ( 'NONE', ( #649, #364, #897, #116 ) ) ;
#1005 = AXIS2_PLACEMENT_3D ( 'NONE', #106, #1055, #23 ) ;
#1006 = CARTESIAN_POINT ( 'NONE',  ( 11.00000000000005684, 2.000000000000000000, 3.000000000000000000 ) ) ;
#1007 = CARTESIAN_POINT ( 'NONE',  ( -16.49999999999923972, 2.000000000000000000, -1.150000000000354961 ) ) ;
#1008 = EDGE_CURVE ( 'NONE', #301, #239, #833, .T. ) ;
#1009 = VERTEX_POINT ( 'NONE', #750 ) ;
#1010 = DIRECTION ( 'NONE',  ( 0.000000000000000000, 0.000000000000000000, 1.000000000000000000 ) ) ;
#1011 = FACE_OUTER_BOUND ( 'NONE', #522, .T. ) ;
#1012 = ORIENTED_EDGE ( 'NONE', *, *, #790, .F. ) ;
#1013 = SURFACE_STYLE_USAGE ( .BOTH. , #622 ) ;
#1014 = ADVANCED_FACE ( 'NONE', ( #1024 ), #371, .F. ) ;
#1015 = ORIENTED_EDGE ( 'NONE', *, *, #43, .T. ) ;
#1016 = LINE ( 'NONE', #819, #145 ) ;
#1017 = CYLINDRICAL_SURFACE ( 'NONE', #376, 1.150000000001569989 ) ;
#1018 = ORIENTED_EDGE ( 'NONE', *, *, #663, .T. ) ;
#1019 = DIRECTION ( 'NONE',  ( -0.000000000000000000, 1.000000000000000000, -0.000000000000000000 ) ) ;
#1020 = CIRCLE ( 'NONE', #1062, 1.149999999999999911 ) ;
#1021 = VECTOR ( 'NONE', #49, 1000.000000000000000 ) ;
#1022 = EDGE_CURVE ( 'NONE', #336, #1052, #165, .T. ) ;
#1023 = AXIS2_PLACEMENT_3D ( 'NONE', #174, #1126, #168 ) ;
#1024 = FACE_OUTER_BOUND ( 'NONE', #134, .T. ) ;
#1025 = AXIS2_PLACEMENT_3D ( 'NONE', #194, #312, #758 ) ;
#1026 = DIRECTION ( 'NONE',  ( -1.000000000000000000, 0.000000000000000000, 0.000000000000000000 ) ) ;
#1027 = ORIENTED_EDGE ( 'NONE', *, *, #332, .T. ) ;
#1028 = ORIENTED_EDGE ( 'NONE', *, *, #656, .T. ) ;
#1029 = EDGE_LOOP ( 'NONE', ( #1136, #369, #81, #994 ) ) ;
#1030 = EDGE_CURVE ( 'NONE', #645, #18, #651, .T. ) ;
#1031 = CYLINDRICAL_SURFACE ( 'NONE', #1193, 1.150000000000541922 ) ;
#1032 = FACE_OUTER_BOUND ( 'NONE', #104, .T. ) ;
#1033 = ORIENTED_EDGE ( 'NONE', *, *, #850, .T. ) ;
#1034 = VERTEX_POINT ( 'NONE', #735 ) ;
#1035 = DIRECTION ( 'NONE',  ( 1.000000000000000000, -0.000000000000000000, 0.000000000000000000 ) ) ;
#1036 = LINE ( 'NONE', #829, #1107 ) ;
#1037 = EDGE_CURVE ( 'NONE', #301, #1224, #46, .T. ) ;
#1038 = VERTEX_POINT ( 'NONE', #845 ) ;
#1039 = ORIENTED_EDGE ( 'NONE', *, *, #219, .T. ) ;
#1040 = AXIS2_PLACEMENT_3D ( 'NONE', #235, #604, #996 ) ;
#1041 = DIRECTION ( 'NONE',  ( -0.7071067811865515695, 0.000000000000000000, 0.7071067811865435759 ) ) ;
#1042 = AXIS2_PLACEMENT_3D ( 'NONE', #808, #909, #1187 ) ;
#1043 = FACE_OUTER_BOUND ( 'NONE', #38, .T. ) ;
#1044 =( GEOMETRIC_REPRESENTATION_CONTEXT ( 3 ) GLOBAL_UNCERTAINTY_ASSIGNED_CONTEXT ( ( #518 ) ) GLOBAL_UNIT_ASSIGNED_CONTEXT ( ( #544, #729, #1209 ) ) REPRESENTATION_CONTEXT ( 'NONE', 'WORKASPACE' ) );
#1045 = VECTOR ( 'NONE', #274, 1000.000000000000000 ) ;
#1046 = CARTESIAN_POINT ( 'NONE',  ( 0.000000000000000000, -10.00000000000000000, -16.50000000000000000 ) ) ;
#1047 = EDGE_CURVE ( 'NONE', #431, #295, #924, .T. ) ;
#1048 = DIRECTION ( 'NONE',  ( 0.000000000000000000, 0.000000000000000000, 1.000000000000000000 ) ) ;
#1049 = FACE_OUTER_BOUND ( 'NONE', #608, .T. ) ;
#1050 = CARTESIAN_POINT ( 'NONE',  ( 1.408343819019455042E-16, 0.000000000000000000, -17.65000000000000213 ) ) ;
#1051 = LINE ( 'NONE', #73, #1171 ) ;
#1052 = VERTEX_POINT ( 'NONE', #659 ) ;
#1053 = CARTESIAN_POINT ( 'NONE',  ( -2.999999999999999556, 2.000000000000000000, -10.99999999999996447 ) ) ;
#1054 = ADVANCED_FACE ( 'NONE', ( #1049 ), #1031, .F. ) ;
#1055 = DIRECTION ( 'NONE',  ( 0.000000000000000000, 1.000000000000000000, -0.000000000000000000 ) ) ;
#1056 = PLANE ( 'NONE',  #590 ) ;
#1057 = ORIENTED_EDGE ( 'NONE', *, *, #868, .T. ) ;
#1058 = ORIENTED_EDGE ( 'NONE', *, *, #1030, .T. ) ;
#1059 = EDGE_CURVE ( 'NONE', #152, #21, #451, .T. ) ;
#1060 = LINE ( 'NONE', #386, #304 ) ;
#1061 = DIRECTION ( 'NONE',  ( -0.000000000000000000, 1.000000000000000000, -0.000000000000000000 ) ) ;
#1062 = AXIS2_PLACEMENT_3D ( 'NONE', #124, #607, #144 ) ;
#1063 = CIRCLE ( 'NONE', #513, 1.149999999999999911 ) ;
#1064 = ORIENTED_EDGE ( 'NONE', *, *, #509, .F. ) ;
#1065 = AXIS2_PLACEMENT_3D ( 'NONE', #248, #618, #1010 ) ;
#1066 = CIRCLE ( 'NONE', #962, 1.500000000000000222 ) ;
#1067 = ORIENTED_EDGE ( 'NONE', *, *, #1139, .F. ) ;
#1068 = CARTESIAN_POINT ( 'NONE',  ( 16.50000000000076383, -10.00000000000000000, -7.631601946928950844E-13 ) ) ;
#1069 = DIRECTION ( 'NONE',  ( -1.000000000000000000, 0.000000000000000000, 0.000000000000000000 ) ) ;
#1070 = ORIENTED_EDGE ( 'NONE', *, *, #950, .T. ) ;
#1071 = PRODUCT_RELATED_PRODUCT_CATEGORY ( 'part', '', ( #561 ) ) ;
#1072 = CARTESIAN_POINT ( 'NONE',  ( 16.50000000000076383, 2.000000000000000000, -7.631601946928950844E-13 ) ) ;
#1073 = ORIENTED_EDGE ( 'NONE', *, *, #1059, .T. ) ;
#1074 = EDGE_LOOP ( 'NONE', ( #681, #936, #786, #637 ) ) ;
#1075 = CARTESIAN_POINT ( 'NONE',  ( 16.50000000000076383, -10.00000000000000000, -7.631601946928950844E-13 ) ) ;
#1076 = FACE_BOUND ( 'NONE', #429, .T. ) ;
#1077 = FACE_BOUND ( 'NONE', #614, .T. ) ;
#1078 = ADVANCED_FACE ( 'NONE', ( #176 ), #84, .T. ) ;
#1079 = CARTESIAN_POINT ( 'NONE',  ( 0.000000000000000000, -10.00000000000000000, -15.35000000000000142 ) ) ;
#1080 = FACE_OUTER_BOUND ( 'NONE', #1167, .T. ) ;
#1081 = DIRECTION ( 'NONE',  ( -0.000000000000000000, 1.000000000000000000, -0.000000000000000000 ) ) ;
#1082 = AXIS2_PLACEMENT_3D ( 'NONE', #428, #242, #148 ) ;
#1083 = FACE_BOUND ( 'NONE', #972, .T. ) ;
#1084 = CIRCLE ( 'NONE', #610, 1.150000000001530021 ) ;
#1085 = VECTOR ( 'NONE', #193, 1000.000000000000000 ) ;
#1086 = EDGE_LOOP ( 'NONE', ( #110, #791, #78, #913 ) ) ;
#1087 = ADVANCED_FACE ( 'NONE', ( #1080 ), #976, .F. ) ;
#1088 = VECTOR ( 'NONE', #939, 1000.000000000000000 ) ;
#1089 = CARTESIAN_POINT ( 'NONE',  ( 3.000000000000000444, 2.000000000000000000, 0.000000000000000000 ) ) ;
#1090 = CARTESIAN_POINT ( 'NONE',  ( 3.000000000000000444, 2.000000000000000000, -11.00000000000005507 ) ) ;
#1091 = DIRECTION ( 'NONE',  ( 0.000000000000000000, 0.000000000000000000, 1.000000000000000000 ) ) ;
#1092 = ORIENTED_EDGE ( 'NONE', *, *, #211, .T. ) ;
#1093 = EDGE_CURVE ( 'NONE', #733, #18, #1247, .T. ) ;
#1094 =( NAMED_UNIT ( * ) SI_UNIT ( $, .STERADIAN. ) SOLID_ANGLE_UNIT ( ) );
#1095 = ORIENTED_EDGE ( 'NONE', *, *, #628, .T. ) ;
#1096 = CARTESIAN_POINT ( 'NONE',  ( -16.49999999999923972, 2.000000000000000000, 7.611395274743019419E-13 ) ) ;
#1097 = LINE ( 'NONE', #1201, #1245 ) ;
#1098 = PRODUCT_DEFINITION_SHAPE ( 'NONE', 'NONE',  #395 ) ;
#1099 = FACE_OUTER_BOUND ( 'NONE', #146, .T. ) ;
#1100 = ORIENTED_EDGE ( 'NONE', *, *, #672, .F. ) ;
#1101 = ORIENTED_EDGE ( 'NONE', *, *, #672, .T. ) ;
#1102 = ADVANCED_FACE ( 'NONE', ( #493 ), #200, .T. ) ;
#1103 = AXIS2_PLACEMENT_3D ( 'NONE', #1046, #383, #394 ) ;
#1104 = LINE ( 'NONE', #437, #570 ) ;
#1105 = LINE ( 'NONE', #321, #955 ) ;
#1106 = ORIENTED_EDGE ( 'NONE', *, *, #516, .F. ) ;
#1107 = VECTOR ( 'NONE', #835, 1000.000000000000000 ) ;
#1108 = VECTOR ( 'NONE', #539, 1000.000000000000000 ) ;
#1109 = VECTOR ( 'NONE', #1035, 1000.000000000000000 ) ;
#1110 = DIRECTION ( 'NONE',  ( -0.000000000000000000, 1.000000000000000000, -0.000000000000000000 ) ) ;
#1111 = DIRECTION ( 'NONE',  ( 0.000000000000000000, 0.000000000000000000, 1.000000000000000000 ) ) ;
#1112 = VERTEX_POINT ( 'NONE', #112 ) ;
#1113 = ORIENTED_EDGE ( 'NONE', *, *, #136, .F. ) ;
#1114 =( LENGTH_UNIT ( ) NAMED_UNIT ( * ) SI_UNIT ( .MILLI., .METRE. ) );
#1115 = ORIENTED_EDGE ( 'NONE', *, *, #1232, .T. ) ;
#1116 = DIRECTION ( 'NONE',  ( -0.000000000000000000, 1.000000000000000000, -0.000000000000000000 ) ) ;
#1117 = DIRECTION ( 'NONE',  ( 0.000000000000000000, 0.000000000000000000, 1.000000000000000000 ) ) ;
#1118 = EDGE_LOOP ( 'NONE', ( #883, #1203 ) ) ;
#1119 = EDGE_CURVE ( 'NONE', #1224, #841, #1060, .T. ) ;
#1120 = CYLINDRICAL_SURFACE ( 'NONE', #1151, 1.149999999999999911 ) ;
#1121 = ORIENTED_EDGE ( 'NONE', *, *, #663, .F. ) ;
#1122 = DIRECTION ( 'NONE',  ( -0.000000000000000000, 1.000000000000000000, -0.000000000000000000 ) ) ;
#1123 = CARTESIAN_POINT ( 'NONE',  ( 1.526461223767692376E-12, 2.000000000000000000, 15.34999999999843112 ) ) ;
#1124 = AXIS2_PLACEMENT_3D ( 'NONE', #993, #912, #217 ) ;
#1125 = ORIENTED_EDGE ( 'NONE', *, *, #740, .T. ) ;
#1126 = DIRECTION ( 'NONE',  ( -0.000000000000000000, 1.000000000000000000, -0.000000000000000000 ) ) ;
#1127 = ADVANCED_FACE ( 'NONE', ( #573 ), #220, .F. ) ;
#1128 = AXIS2_PLACEMENT_3D ( 'NONE', #780, #1190, #41 ) ;
#1129 = ORIENTED_EDGE ( 'NONE', *, *, #372, .F. ) ;
#1130 = VECTOR ( 'NONE', #1215, 1000.000000000000000 ) ;
#1131 = ORIENTED_EDGE ( 'NONE', *, *, #557, .F. ) ;
#1132 = AXIS2_PLACEMENT_3D ( 'NONE', #1218, #725, #730 ) ;
#1133 = LINE ( 'NONE', #183, #496 ) ;
#1134 = VECTOR ( 'NONE', #680, 1000.000000000000000 ) ;
#1135 = CARTESIAN_POINT ( 'NONE',  ( -10.49999999999923794, 0.000000000000000000, 1.150000000001817346 ) ) ;
#1136 = ORIENTED_EDGE ( 'NONE', *, *, #430, .F. ) ;
#1137 = FILL_AREA_STYLE_COLOUR ( '', #718 ) ;
#1138 = ORIENTED_EDGE ( 'NONE', *, *, #491, .T. ) ;
#1139 = EDGE_CURVE ( 'NONE', #704, #617, #1163, .T. ) ;
#1140 = CARTESIAN_POINT ( 'NONE',  ( 10.50000000000076206, -10.00000000000000000, -7.627928006531509042E-13 ) ) ;
#1141 = FACE_BOUND ( 'NONE', #283, .T. ) ;
#1142 = ORIENTED_EDGE ( 'NONE', *, *, #372, .T. ) ;
#1143 = ORIENTED_EDGE ( 'NONE', *, *, #802, .F. ) ;
#1144 = DIRECTION ( 'NONE',  ( 1.000000000000000000, -0.000000000000000000, 0.000000000000000000 ) ) ;
#1145 = EDGE_CURVE ( 'NONE', #465, #285, #970, .T. ) ;
#1146 = CARTESIAN_POINT ( 'NONE',  ( -10.99999999999996447, 2.000000000000000000, 3.000000000000000000 ) ) ;
#1147 = EDGE_LOOP ( 'NONE', ( #738, #701, #973, #357 ) ) ;
#1148 = DIRECTION ( 'NONE',  ( 1.000000000000000000, -0.000000000000000000, 0.000000000000000000 ) ) ;
#1149 = AXIS2_PLACEMENT_3D ( 'NONE', #530, #438, #1111 ) ;
#1150 = CARTESIAN_POINT ( 'NONE',  ( -10.49999999999923794, 0.000000000000000000, 7.615069215140461221E-13 ) ) ;
#1151 = AXIS2_PLACEMENT_3D ( 'NONE', #627, #1019, #161 ) ;
#1152 = CARTESIAN_POINT ( 'NONE',  ( 3.000000000000000444, 2.000000000000000000, -11.00000000000005507 ) ) ;
#1153 = VECTOR ( 'NONE', #1144, 1000.000000000000000 ) ;
#1154 = ORIENTED_EDGE ( 'NONE', *, *, #740, .F. ) ;
#1155 = VERTEX_POINT ( 'NONE', #128 ) ;
#1156 = CARTESIAN_POINT ( 'NONE',  ( 0.000000000000000000, 0.000000000000000000, 3.000000000000000000 ) ) ;
#1157 = CARTESIAN_POINT ( 'NONE',  ( 10.50000000000076206, -10.00000000000000000, 1.149999999999778977 ) ) ;
#1158 = FACE_OUTER_BOUND ( 'NONE', #891, .T. ) ;
#1159 = DIRECTION ( 'NONE',  ( -1.000000000000000000, 0.000000000000000000, -0.000000000000000000 ) ) ;
#1160 = ORIENTED_EDGE ( 'NONE', *, *, #6, .F. ) ;
#1161 = EDGE_CURVE ( 'NONE', #580, #354, #481, .T. ) ;
#1162 = DIRECTION ( 'NONE',  ( -0.000000000000000000, 1.000000000000000000, -0.000000000000000000 ) ) ;
#1163 = LINE ( 'NONE', #592, #1134 ) ;
#1164 = CARTESIAN_POINT ( 'NONE',  ( 1.526320389385790169E-12, 2.000000000000000000, 16.50000000000000000 ) ) ;
#1165 = DIRECTION ( 'NONE',  ( -0.000000000000000000, 1.000000000000000000, -0.000000000000000000 ) ) ;
#1166 = ORIENTED_EDGE ( 'NONE', *, *, #950, .F. ) ;
#1167 = EDGE_LOOP ( 'NONE', ( #943, #1092, #407, #732 ) ) ;
#1168 = LINE ( 'NONE', #1156, #1085 ) ;
#1169 = DIRECTION ( 'NONE',  ( 0.000000000000000000, 0.000000000000000000, 1.000000000000000000 ) ) ;
#1170 = DIRECTION ( 'NONE',  ( 0.000000000000000000, 0.000000000000000000, 1.000000000000000000 ) ) ;
#1171 = VECTOR ( 'NONE', #619, 1000.000000000000000 ) ;
#1172 = DIRECTION ( 'NONE',  ( 0.000000000000000000, 0.000000000000000000, -1.000000000000000000 ) ) ;
#1173 = VECTOR ( 'NONE', #7, 1000.000000000000000 ) ;
#1174 = AXIS2_PLACEMENT_3D ( 'NONE', #36, #253, #57 ) ;
#1175 = DIRECTION ( 'NONE',  ( 0.000000000000000000, 1.000000000000000000, -0.000000000000000000 ) ) ;
#1176 = ORIENTED_EDGE ( 'NONE', *, *, #1119, .T. ) ;
#1177 = DIRECTION ( 'NONE',  ( 0.000000000000000000, 0.000000000000000000, 1.000000000000000000 ) ) ;
#1178 = EDGE_CURVE ( 'NONE', #1216, #426, #8, .T. ) ;
#1179 = FACE_BOUND ( 'NONE', #96, .T. ) ;
#1180 = ORIENTED_EDGE ( 'NONE', *, *, #56, .F. ) ;
#1181 = CYLINDRICAL_SURFACE ( 'NONE', #532, 1.150000000001569989 ) ;
#1182 = ORIENTED_EDGE ( 'NONE', *, *, #352, .F. ) ;
#1183 = FACE_BOUND ( 'NONE', #903, .T. ) ;
#1184 = EDGE_CURVE ( 'NONE', #457, #928, #209, .T. ) ;
#1185 = CARTESIAN_POINT ( 'NONE',  ( 10.50000000000076206, 0.000000000000000000, -7.627928006531509042E-13 ) ) ;
#1186 = EDGE_LOOP ( 'NONE', ( #926, #413, #598, #1143 ) ) ;
#1187 = DIRECTION ( 'NONE',  ( 0.000000000000000000, 0.000000000000000000, 1.000000000000000000 ) ) ;
#1188 = VERTEX_POINT ( 'NONE', #665 ) ;
#1189 = DIRECTION ( 'NONE',  ( 0.000000000000000000, 1.000000000000000000, 0.000000000000000000 ) ) ;
#1190 = DIRECTION ( 'NONE',  ( -0.000000000000000000, 1.000000000000000000, -0.000000000000000000 ) ) ;
#1191 = ORIENTED_EDGE ( 'NONE', *, *, #477, .F. ) ;
#1192 = EDGE_CURVE ( 'NONE', #75, #450, #797, .T. ) ;
#1193 = AXIS2_PLACEMENT_3D ( 'NONE', #189, #558, #170 ) ;
#1194 = EDGE_LOOP ( 'NONE', ( #484, #1241 ) ) ;
#1195 = CARTESIAN_POINT ( 'NONE',  ( 0.000000000000000000, 2.000000000000000000, -15.35000000000000142 ) ) ;
#1196 = DIRECTION ( 'NONE',  ( 0.000000000000000000, 0.000000000000000000, -1.000000000000000000 ) ) ;
#1197 = DIRECTION ( 'NONE',  ( -0.000000000000000000, -1.000000000000000000, -0.000000000000000000 ) ) ;
#1198 = ORIENTED_EDGE ( 'NONE', *, *, #32, .F. ) ;
#1199 = EDGE_CURVE ( 'NONE', #403, #724, #99, .T. ) ;
#1200 = ORIENTED_EDGE ( 'NONE', *, *, #390, .T. ) ;
#1201 = CARTESIAN_POINT ( 'NONE',  ( 3.000000000000000444, 2.000000000000000000, -11.00000000000005507 ) ) ;
#1202 = FACE_OUTER_BOUND ( 'NONE', #265, .T. ) ;
#1203 = ORIENTED_EDGE ( 'NONE', *, *, #156, .F. ) ;
#1204 = VERTEX_POINT ( 'NONE', #865 ) ;
#1205 = DIRECTION ( 'NONE',  ( 0.000000000000000000, -1.000000000000000000, 0.000000000000000000 ) ) ;
#1206 = CARTESIAN_POINT ( 'NONE',  ( 1.526320389385790169E-12, -10.00000000000000000, 16.50000000000000000 ) ) ;
#1207 = ORIENTED_EDGE ( 'NONE', *, *, #550, .T. ) ;
#1208 = AXIS2_PLACEMENT_3D ( 'NONE', #507, #585, #16 ) ;
#1209 =( NAMED_UNIT ( * ) SI_UNIT ( $, .STERADIAN. ) SOLID_ANGLE_UNIT ( ) );
#1210 = CIRCLE ( 'NONE', #123, 1.150000000000541922 ) ;
#1211 = ORIENTED_EDGE ( 'NONE', *, *, #1093, .F. ) ;
#1212 = AXIS2_PLACEMENT_3D ( 'NONE', #693, #293, #879 ) ;
#1213 = DIRECTION ( 'NONE',  ( 0.000000000000000000, 0.000000000000000000, -1.000000000000000000 ) ) ;
#1214 = EDGE_CURVE ( 'NONE', #450, #75, #456, .T. ) ;
#1215 = DIRECTION ( 'NONE',  ( -0.000000000000000000, -1.000000000000000000, -0.000000000000000000 ) ) ;
#1216 = VERTEX_POINT ( 'NONE', #486 ) ;
#1217 = ORIENTED_EDGE ( 'NONE', *, *, #192, .T. ) ;
#1218 = CARTESIAN_POINT ( 'NONE',  ( 0.000000000000000000, 2.000000000000000000, -25.00000000000000000 ) ) ;
#1219 = CARTESIAN_POINT ( 'NONE',  ( -24.99999999999999645, 2.000000000000000000, 0.000000000000000000 ) ) ;
#1220 = EDGE_CURVE ( 'NONE', #724, #626, #475, .T. ) ;
#1221 = EDGE_LOOP ( 'NONE', ( #61, #867 ) ) ;
#1222 = CARTESIAN_POINT ( 'NONE',  ( 1.836970198721030181E-16, 2.000000000000000000, 1.500000000000000222 ) ) ;
#1223 = DIRECTION ( 'NONE',  ( 0.000000000000000000, 1.000000000000000000, 0.000000000000000000 ) ) ;
#1224 = VERTEX_POINT ( 'NONE', #397 ) ;
#1225 = EDGE_CURVE ( 'NONE', #1216, #781, #878, .T. ) ;
#1226 = CIRCLE ( 'NONE', #1040, 1.150000000001116129 ) ;
#1227 = ORIENTED_EDGE ( 'NONE', *, *, #988, .F. ) ;
#1228 = VECTOR ( 'NONE', #127, 1000.000000000000000 ) ;
#1229 = DIRECTION ( 'NONE',  ( -0.000000000000000000, 1.000000000000000000, -0.000000000000000000 ) ) ;
#1230 = DIRECTION ( 'NONE',  ( -0.000000000000000000, 1.000000000000000000, -0.000000000000000000 ) ) ;
#1231 = EDGE_LOOP ( 'NONE', ( #990, #416, #330, #1200 ) ) ;
#1232 = EDGE_CURVE ( 'NONE', #1204, #645, #1066, .T. ) ;
#1233 = ORIENTED_EDGE ( 'NONE', *, *, #233, .F. ) ;
#1234 = CARTESIAN_POINT ( 'NONE',  ( 0.000000000000000000, 0.000000000000000000, -25.00000000000000000 ) ) ;
#1235 = DIRECTION ( 'NONE',  ( 0.000000000000000000, 0.000000000000000000, 1.000000000000000000 ) ) ;
#1236 = ORIENTED_EDGE ( 'NONE', *, *, #621, .F. ) ;
#1237 = CARTESIAN_POINT ( 'NONE',  ( -10.49999999999923794, 2.000000000000000000, 7.615069215140461221E-13 ) ) ;
#1238 = DIRECTION ( 'NONE',  ( -0.000000000000000000, 1.000000000000000000, -0.000000000000000000 ) ) ;
#1239 = CARTESIAN_POINT ( 'NONE',  ( 3.000000000000000444, 2.000000000000000000, -25.00000000000000000 ) ) ;
#1240 = DIRECTION ( 'NONE',  ( 0.000000000000000000, 0.000000000000000000, -1.000000000000000000 ) ) ;
#1241 = ORIENTED_EDGE ( 'NONE', *, *, #1047, .T. ) ;
#1242 = DIRECTION ( 'NONE',  ( 0.7071067811865515695, -0.000000000000000000, -0.7071067811865435759 ) ) ;
#1243 = CIRCLE ( 'NONE', #876, 1.150000000000562350 ) ;
#1244 = CARTESIAN_POINT ( 'NONE',  ( -2.999999999999999556, 2.000000000000000000, 11.00000000000005507 ) ) ;
#1245 = VECTOR ( 'NONE', #1205, 1000.000000000000000 ) ;
#1246 = CARTESIAN_POINT ( 'NONE',  ( -10.49999999999923794, 0.000000000000000000, -1.150000000000294342 ) ) ;
#1247 = CIRCLE ( 'NONE', #1025, 1.500000000000000222 ) ;
#1248 = ADVANCED_FACE ( 'NONE', ( #120 ), #1181, .F. ) ;
#1249 = CYLINDRICAL_SURFACE ( 'NONE', #1103, 1.149999999999999911 ) ;
ENDSEC;
END-ISO-10303-21;
