ISO-10303-21;
HEADER;
FILE_DESCRIPTION (( 'STEP AP214' ),
    '1' );
FILE_NAME ('HC_loa.STEP',
    '2026-04-30T08:29:41',
    ( '' ),
    ( '' ),
    'SwSTEP 2.0',
    'SolidWorks 2025',
    '' );
FILE_SCHEMA (( 'AUTOMOTIVE_DESIGN' ));
ENDSEC;

DATA;
#1 = CARTESIAN_POINT ( 'NONE',  ( -21.41000000000000369, 2.000000000000000000, 9.919999999999998153 ) ) ;
#2 = STYLED_ITEM ( 'NONE', ( #249 ), #614 ) ;
#3 = AXIS2_PLACEMENT_3D ( 'NONE', #275, #183, #905 ) ;
#4 = FACE_OUTER_BOUND ( 'NONE', #447, .T. ) ;
#5 = ORIENTED_EDGE ( 'NONE', *, *, #238, .F. ) ;
#6 = ORIENTED_EDGE ( 'NONE', *, *, #442, .F. ) ;
#7 = ORIENTED_EDGE ( 'NONE', *, *, #327, .T. ) ;
#8 = EDGE_CURVE ( 'NONE', #1072, #1152, #838, .T. ) ;
#9 = AXIS2_PLACEMENT_3D ( 'NONE', #924, #735, #468 ) ;
#10 = DIRECTION ( 'NONE',  ( 1.000000000000000000, 0.000000000000000000, 0.000000000000000000 ) ) ;
#11 = DIRECTION ( 'NONE',  ( 0.000000000000000000, 0.000000000000000000, 1.000000000000000000 ) ) ;
#12 = CARTESIAN_POINT ( 'NONE',  ( -24.99999999999998934, 0.000000000000000000, 11.00000000000000000 ) ) ;
#13 = ORIENTED_EDGE ( 'NONE', *, *, #764, .T. ) ;
#14 = ORIENTED_EDGE ( 'NONE', *, *, #62, .T. ) ;
#15 = DIRECTION ( 'NONE',  ( 0.000000000000000000, 0.000000000000000000, 1.000000000000000000 ) ) ;
#16 = DIRECTION ( 'NONE',  ( 0.000000000000000000, 1.000000000000000000, -0.000000000000000000 ) ) ;
#17 = CARTESIAN_POINT ( 'NONE',  ( -21.41000000000000369, 2.000000000000000000, -8.869999999999999218 ) ) ;
#18 = ORIENTED_EDGE ( 'NONE', *, *, #197, .T. ) ;
#19 = FACE_BOUND ( 'NONE', #231, .T. ) ;
#20 = DIRECTION ( 'NONE',  ( 1.000000000000000000, 0.000000000000000000, -0.000000000000000000 ) ) ;
#21 = EDGE_CURVE ( 'NONE', #88, #873, #171, .T. ) ;
#22 = ORIENTED_EDGE ( 'NONE', *, *, #180, .T. ) ;
#23 = DIRECTION ( 'NONE',  ( 0.000000000000000000, -1.000000000000000000, 0.000000000000000000 ) ) ;
#24 = VECTOR ( 'NONE', #653, 1000.000000000000000 ) ;
#25 = DIRECTION ( 'NONE',  ( 0.000000000000000000, 0.000000000000000000, -1.000000000000000000 ) ) ;
#26 = CARTESIAN_POINT ( 'NONE',  ( 21.40999999999999304, 0.000000000000000000, -8.870000000000008100 ) ) ;
#27 = CARTESIAN_POINT ( 'NONE',  ( -12.50000000000000000, 2.000000000000000000, 0.9999999999999997780 ) ) ;
#28 = AXIS2_PLACEMENT_3D ( 'NONE', #324, #782, #128 ) ;
#29 = ORIENTED_EDGE ( 'NONE', *, *, #279, .T. ) ;
#30 = EDGE_CURVE ( 'NONE', #992, #424, #541, .T. ) ;
#31 = DIRECTION ( 'NONE',  ( -0.000000000000000000, -0.000000000000000000, 1.000000000000000000 ) ) ;
#32 = FACE_OUTER_BOUND ( 'NONE', #297, .T. ) ;
#33 = ORIENTED_EDGE ( 'NONE', *, *, #30, .F. ) ;
#34 = VERTEX_POINT ( 'NONE', #1038 ) ;
#35 = DIRECTION ( 'NONE',  ( 0.000000000000000000, 0.000000000000000000, -1.000000000000000000 ) ) ;
#36 = UNCERTAINTY_MEASURE_WITH_UNIT (LENGTH_MEASURE( 1.000000000000000082E-05 ), #233, 'distance_accuracy_value', 'NONE');
#37 = CARTESIAN_POINT ( 'NONE',  ( 21.40999999999999304, 0.000000000000000000, -8.870000000000008100 ) ) ;
#38 = CARTESIAN_POINT ( 'NONE',  ( 21.41000000000000369, 2.000000000000000000, 7.820000000000000284 ) ) ;
#39 = ORIENTED_EDGE ( 'NONE', *, *, #590, .F. ) ;
#40 = FACE_OUTER_BOUND ( 'NONE', #839, .T. ) ;
#41 = EDGE_CURVE ( 'NONE', #826, #1172, #654, .T. ) ;
#42 = LINE ( 'NONE', #509, #1060 ) ;
#43 = CARTESIAN_POINT ( 'NONE',  ( -24.99999999999998934, 2.000000000000000000, 11.00000000000000000 ) ) ;
#44 = EDGE_LOOP ( 'NONE', ( #151, #903, #816, #466 ) ) ;
#45 = DIRECTION ( 'NONE',  ( -0.000000000000000000, -1.000000000000000000, -0.000000000000000000 ) ) ;
#46 = VECTOR ( 'NONE', #706, 1000.000000000000000 ) ;
#47 = PLANE ( 'NONE',  #94 ) ;
#48 = PLANE ( 'NONE',  #311 ) ;
#49 = ORIENTED_EDGE ( 'NONE', *, *, #469, .F. ) ;
#50 = CARTESIAN_POINT ( 'NONE',  ( -5.000000000000000000, 22.00000000000000000, 0.9999999999999997780 ) ) ;
#51 = ADVANCED_FACE ( 'NONE', ( #767 ), #588, .F. ) ;
#52 = DIRECTION ( 'NONE',  ( -1.000000000000000000, -0.000000000000000000, -0.000000000000000000 ) ) ;
#53 = ORIENTED_EDGE ( 'NONE', *, *, #158, .F. ) ;
#54 = EDGE_CURVE ( 'NONE', #873, #545, #401, .T. ) ;
#55 = AXIS2_PLACEMENT_3D ( 'NONE', #1155, #528, #1076 ) ;
#56 = CIRCLE ( 'NONE', #727, 1.049999999999998934 ) ;
#57 = CARTESIAN_POINT ( 'NONE',  ( 6.650000000000000355, 12.00000000000000000, -1.000000000000000888 ) ) ;
#58 = LINE ( 'NONE', #802, #1023 ) ;
#59 = AXIS2_PLACEMENT_3D ( 'NONE', #255, #23, #721 ) ;
#60 = LINE ( 'NONE', #38, #627 ) ;
#61 = VERTEX_POINT ( 'NONE', #1147 ) ;
#62 = EDGE_CURVE ( 'NONE', #1010, #441, #505, .T. ) ;
#63 = DIRECTION ( 'NONE',  ( 1.000000000000000000, 0.000000000000000000, 0.000000000000000000 ) ) ;
#64 = CYLINDRICAL_SURFACE ( 'NONE', #55, 1.649999999999999467 ) ;
#65 = CARTESIAN_POINT ( 'NONE',  ( 5.000000000000000000, 12.00000000000000000, -28.99999999999999645 ) ) ;
#66 = EDGE_LOOP ( 'NONE', ( #1142, #772, #642, #33 ) ) ;
#67 = AXIS2_PLACEMENT_3D ( 'NONE', #556, #823, #20 ) ;
#68 = CYLINDRICAL_SURFACE ( 'NONE', #980, 1.650000000000000355 ) ;
#69 = FACE_OUTER_BOUND ( 'NONE', #725, .T. ) ;
#70 = DIRECTION ( 'NONE',  ( -0.000000000000000000, -1.000000000000000000, -0.000000000000000000 ) ) ;
#71 = ORIENTED_EDGE ( 'NONE', *, *, #460, .T. ) ;
#72 = ORIENTED_EDGE ( 'NONE', *, *, #1053, .F. ) ;
#73 = LINE ( 'NONE', #606, #575 ) ;
#74 = ADVANCED_FACE ( 'NONE', ( #943 ), #677, .F. ) ;
#75 = DIRECTION ( 'NONE',  ( 1.000000000000000000, 0.000000000000000000, 0.000000000000000000 ) ) ;
#76 = ADVANCED_FACE ( 'NONE', ( #584 ), #854, .F. ) ;
#77 = LINE ( 'NONE', #524, #502 ) ;
#78 = ORIENTED_EDGE ( 'NONE', *, *, #335, .F. ) ;
#79 = ORIENTED_EDGE ( 'NONE', *, *, #308, .T. ) ;
#80 = DIRECTION ( 'NONE',  ( 0.000000000000000000, 0.000000000000000000, -1.000000000000000000 ) ) ;
#81 = DIRECTION ( 'NONE',  ( -1.000000000000000000, 0.000000000000000000, 0.000000000000000000 ) ) ;
#82 = VECTOR ( 'NONE', #1136, 1000.000000000000000 ) ;
#83 = CARTESIAN_POINT ( 'NONE',  ( -12.50000000000000000, 22.00000000000000000, 0.9999999999999997780 ) ) ;
#84 = ORIENTED_EDGE ( 'NONE', *, *, #690, .F. ) ;
#85 = ORIENTED_EDGE ( 'NONE', *, *, #158, .T. ) ;
#86 = CARTESIAN_POINT ( 'NONE',  ( 12.50000000000000000, 22.00000000000000000, -1.000000000000000222 ) ) ;
#87 = LINE ( 'NONE', #83, #572 ) ;
#88 = VERTEX_POINT ( 'NONE', #939 ) ;
#89 = EDGE_CURVE ( 'NONE', #553, #928, #683, .T. ) ;
#90 = EDGE_LOOP ( 'NONE', ( #860, #506, #833, #855 ) ) ;
#91 =( GEOMETRIC_REPRESENTATION_CONTEXT ( 3 ) GLOBAL_UNCERTAINTY_ASSIGNED_CONTEXT ( ( #36 ) ) GLOBAL_UNIT_ASSIGNED_CONTEXT ( ( #233, #534, #615 ) ) REPRESENTATION_CONTEXT ( 'NONE', 'WORKASPACE' ) );
#92 = LINE ( 'NONE', #369, #167 ) ;
#93 = CARTESIAN_POINT ( 'NONE',  ( -24.99999999999998934, 2.000000000000000000, -11.00000000000000000 ) ) ;
#94 = AXIS2_PLACEMENT_3D ( 'NONE', #774, #808, #243 ) ;
#95 = DIRECTION ( 'NONE',  ( 0.000000000000000000, 1.000000000000000000, -0.000000000000000000 ) ) ;
#96 = ORIENTED_EDGE ( 'NONE', *, *, #1082, .F. ) ;
#97 = EDGE_LOOP ( 'NONE', ( #71, #1004, #471, #315 ) ) ;
#98 = DIRECTION ( 'NONE',  ( -0.000000000000000000, 0.000000000000000000, -1.000000000000000000 ) ) ;
#99 = DIRECTION ( 'NONE',  ( -0.000000000000000000, -1.000000000000000000, -0.000000000000000000 ) ) ;
#100 = ORIENTED_EDGE ( 'NONE', *, *, #663, .F. ) ;
#101 = LINE ( 'NONE', #565, #260 ) ;
#102 = DIRECTION ( 'NONE',  ( 1.000000000000000000, 0.000000000000000000, 0.000000000000000000 ) ) ;
#103 = VECTOR ( 'NONE', #569, 1000.000000000000000 ) ;
#104 = EDGE_CURVE ( 'NONE', #362, #211, #412, .T. ) ;
#105 = DIRECTION ( 'NONE',  ( 1.000000000000000000, 0.000000000000000000, 0.000000000000000000 ) ) ;
#106 = ORIENTED_EDGE ( 'NONE', *, *, #690, .T. ) ;
#107 = LINE ( 'NONE', #632, #673 ) ;
#108 = LINE ( 'NONE', #567, #329 ) ;
#109 = AXIS2_PLACEMENT_3D ( 'NONE', #809, #628, #160 ) ;
#110 = EDGE_CURVE ( 'NONE', #241, #563, #771, .T. ) ;
#111 = CYLINDRICAL_SURFACE ( 'NONE', #358, 1.049999999999998934 ) ;
#112 = AXIS2_PLACEMENT_3D ( 'NONE', #359, #310, #686 ) ;
#113 = EDGE_CURVE ( 'NONE', #192, #284, #223, .T. ) ;
#114 = ORIENTED_EDGE ( 'NONE', *, *, #1080, .T. ) ;
#115 = EDGE_LOOP ( 'NONE', ( #526, #944, #961, #246 ) ) ;
#116 = DIRECTION ( 'NONE',  ( 0.000000000000000000, 0.000000000000000000, -1.000000000000000000 ) ) ;
#117 = VECTOR ( 'NONE', #647, 1000.000000000000000 ) ;
#118 = LINE ( 'NONE', #650, #415 ) ;
#119 = ORIENTED_EDGE ( 'NONE', *, *, #373, .F. ) ;
#120 = ORIENTED_EDGE ( 'NONE', *, *, #89, .F. ) ;
#121 = LINE ( 'NONE', #661, #837 ) ;
#122 = CARTESIAN_POINT ( 'NONE',  ( 21.41000000000000369, 0.000000000000000000, 8.869999999999999218 ) ) ;
#123 = CARTESIAN_POINT ( 'NONE',  ( -17.49999999999999645, 2.000000000000000000, 18.50000000000000000 ) ) ;
#124 = ORIENTED_EDGE ( 'NONE', *, *, #390, .F. ) ;
#125 = EDGE_CURVE ( 'NONE', #991, #1115, #225, .T. ) ;
#126 = CARTESIAN_POINT ( 'NONE',  ( -12.50000000000000000, 22.00000000000000000, 0.9999999999999997780 ) ) ;
#127 = DIRECTION ( 'NONE',  ( 0.000000000000000000, -0.000000000000000000, -1.000000000000000000 ) ) ;
#128 = DIRECTION ( 'NONE',  ( 0.000000000000000000, -0.000000000000000000, -1.000000000000000000 ) ) ;
#129 = ORIENTED_EDGE ( 'NONE', *, *, #917, .F. ) ;
#130 = CARTESIAN_POINT ( 'NONE',  ( 21.40999999999999304, 2.000000000000000000, -7.820000000000009166 ) ) ;
#131 = FACE_OUTER_BOUND ( 'NONE', #929, .T. ) ;
#132 = DIRECTION ( 'NONE',  ( 1.000000000000000000, 0.000000000000000000, 0.000000000000000000 ) ) ;
#133 = VERTEX_POINT ( 'NONE', #1141 ) ;
#134 = AXIS2_PLACEMENT_3D ( 'NONE', #214, #1126, #1028 ) ;
#135 = FACE_OUTER_BOUND ( 'NONE', #805, .T. ) ;
#136 = ADVANCED_FACE ( 'NONE', ( #859 ), #48, .F. ) ;
#137 = PLANE ( 'NONE',  #853 ) ;
#138 = DIRECTION ( 'NONE',  ( 0.000000000000000000, 0.000000000000000000, -1.000000000000000000 ) ) ;
#139 = ORIENTED_EDGE ( 'NONE', *, *, #831, .T. ) ;
#140 = CARTESIAN_POINT ( 'NONE',  ( -24.99999999999998934, 2.000000000000000000, 11.00000000000000000 ) ) ;
#141 = FACE_BOUND ( 'NONE', #580, .T. ) ;
#142 = DIRECTION ( 'NONE',  ( 0.000000000000000000, 0.000000000000000000, 1.000000000000000000 ) ) ;
#143 = VECTOR ( 'NONE', #164, 1000.000000000000000 ) ;
#144 = ORIENTED_EDGE ( 'NONE', *, *, #749, .T. ) ;
#145 = EDGE_CURVE ( 'NONE', #1107, #362, #488, .T. ) ;
#146 = VECTOR ( 'NONE', #1069, 1000.000000000000000 ) ;
#147 = AXIS2_PLACEMENT_3D ( 'NONE', #794, #1154, #98 ) ;
#148 = DIRECTION ( 'NONE',  ( -1.000000000000000000, -0.000000000000000000, -0.000000000000000000 ) ) ;
#149 = VECTOR ( 'NONE', #757, 1000.000000000000000 ) ;
#150 = DIRECTION ( 'NONE',  ( -0.000000000000000000, -1.000000000000000000, -0.000000000000000000 ) ) ;
#151 = ORIENTED_EDGE ( 'NONE', *, *, #811, .T. ) ;
#152 = FACE_OUTER_BOUND ( 'NONE', #788, .T. ) ;
#153 = CARTESIAN_POINT ( 'NONE',  ( 17.50000000000000711, 2.000000000000000000, 3.499999999999999556 ) ) ;
#154 = DIRECTION ( 'NONE',  ( 1.000000000000000000, 0.000000000000000000, 0.000000000000000000 ) ) ;
#155 = ORIENTED_EDGE ( 'NONE', *, *, #904, .T. ) ;
#156 = EDGE_CURVE ( 'NONE', #501, #495, #508, .T. ) ;
#157 = CARTESIAN_POINT ( 'NONE',  ( -21.41000000000000369, 2.000000000000000000, -7.820000000000000284 ) ) ;
#158 = EDGE_CURVE ( 'NONE', #377, #278, #60, .T. ) ;
#159 = CARTESIAN_POINT ( 'NONE',  ( 21.41000000000000369, 2.000000000000000000, 8.869999999999999218 ) ) ;
#160 = DIRECTION ( 'NONE',  ( 0.000000000000000000, 0.000000000000000000, -1.000000000000000000 ) ) ;
#161 = EDGE_LOOP ( 'NONE', ( #666, #923, #114, #472 ) ) ;
#162 = VERTEX_POINT ( 'NONE', #1151 ) ;
#163 = DIRECTION ( 'NONE',  ( 0.000000000000000000, 0.000000000000000000, 1.000000000000000000 ) ) ;
#164 = DIRECTION ( 'NONE',  ( -0.000000000000000000, -1.000000000000000000, -0.000000000000000000 ) ) ;
#165 = DIRECTION ( 'NONE',  ( -0.000000000000000000, -1.000000000000000000, -0.000000000000000000 ) ) ;
#166 = ORIENTED_EDGE ( 'NONE', *, *, #390, .T. ) ;
#167 = VECTOR ( 'NONE', #10, 1000.000000000000000 ) ;
#168 = EDGE_LOOP ( 'NONE', ( #739, #338 ) ) ;
#169 = LINE ( 'NONE', #86, #117 ) ;
#170 = DIRECTION ( 'NONE',  ( -0.000000000000000000, -0.000000000000000000, 1.000000000000000000 ) ) ;
#171 = CIRCLE ( 'NONE', #841, 1.650000000000000355 ) ;
#172 = EDGE_CURVE ( 'NONE', #261, #977, #87, .T. ) ;
#173 = PLANE ( 'NONE',  #403 ) ;
#174 = ORIENTED_EDGE ( 'NONE', *, *, #775, .F. ) ;
#175 = CARTESIAN_POINT ( 'NONE',  ( 21.41000000000000369, 2.000000000000000000, 8.869999999999999218 ) ) ;
#176 = ADVANCED_FACE ( 'NONE', ( #250 ), #445, .F. ) ;
#177 = DIRECTION ( 'NONE',  ( -0.000000000000000000, -1.000000000000000000, -0.000000000000000000 ) ) ;
#178 = ORIENTED_EDGE ( 'NONE', *, *, #904, .F. ) ;
#179 = EDGE_LOOP ( 'NONE', ( #155, #402, #193, #53 ) ) ;
#180 = EDGE_CURVE ( 'NONE', #261, #1152, #1077, .T. ) ;
#181 = ORIENTED_EDGE ( 'NONE', *, *, #920, .T. ) ;
#182 = AXIS2_PLACEMENT_3D ( 'NONE', #913, #655, #475 ) ;
#183 = DIRECTION ( 'NONE',  ( 0.000000000000000000, 1.000000000000000000, -0.000000000000000000 ) ) ;
#184 = CARTESIAN_POINT ( 'NONE',  ( -3.349999999999999645, 12.00000000000000000, -28.99999999999999645 ) ) ;
#185 = DIRECTION ( 'NONE',  ( 0.000000000000000000, 1.000000000000000000, 0.000000000000000000 ) ) ;
#186 = VERTEX_POINT ( 'NONE', #804 ) ;
#187 = VECTOR ( 'NONE', #766, 1000.000000000000000 ) ;
#188 = ORIENTED_EDGE ( 'NONE', *, *, #933, .T. ) ;
#189 = DIRECTION ( 'NONE',  ( -0.000000000000000000, -0.000000000000000000, -1.000000000000000000 ) ) ;
#190 = DIRECTION ( 'NONE',  ( 1.000000000000000000, 0.000000000000000000, 0.000000000000000000 ) ) ;
#191 = AXIS2_PLACEMENT_3D ( 'NONE', #65, #423, #154 ) ;
#192 = VERTEX_POINT ( 'NONE', #537 ) ;
#193 = ORIENTED_EDGE ( 'NONE', *, *, #485, .F. ) ;
#194 = ADVANCED_FACE ( 'NONE', ( #1170 ), #975, .F. ) ;
#195 = DIRECTION ( 'NONE',  ( 1.000000000000000000, 0.000000000000000000, 0.000000000000000000 ) ) ;
#196 = CARTESIAN_POINT ( 'NONE',  ( 25.00000000000001066, 0.000000000000000000, 11.00000000000000000 ) ) ;
#197 = EDGE_CURVE ( 'NONE', #754, #916, #293, .T. ) ;
#198 = VERTEX_POINT ( 'NONE', #877 ) ;
#199 = ORIENTED_EDGE ( 'NONE', *, *, #54, .T. ) ;
#200 = CARTESIAN_POINT ( 'NONE',  ( 6.650000000000000355, 12.00000000000000000, -28.99999999999999645 ) ) ;
#201 = EDGE_CURVE ( 'NONE', #553, #1096, #529, .T. ) ;
#202 = LINE ( 'NONE', #1106, #368 ) ;
#203 = VECTOR ( 'NONE', #1144, 1000.000000000000000 ) ;
#204 = ORIENTED_EDGE ( 'NONE', *, *, #819, .T. ) ;
#205 = ORIENTED_EDGE ( 'NONE', *, *, #551, .T. ) ;
#206 = DIRECTION ( 'NONE',  ( 0.000000000000000000, -1.000000000000000000, 0.000000000000000000 ) ) ;
#207 = VECTOR ( 'NONE', #251, 1000.000000000000000 ) ;
#208 = DIRECTION ( 'NONE',  ( -0.000000000000000000, -0.000000000000000000, 1.000000000000000000 ) ) ;
#209 = ADVANCED_FACE ( 'NONE', ( #815 ), #622, .F. ) ;
#210 = DIRECTION ( 'NONE',  ( 0.000000000000000000, 0.000000000000000000, -1.000000000000000000 ) ) ;
#211 = VERTEX_POINT ( 'NONE', #1085 ) ;
#212 = LINE ( 'NONE', #126, #149 ) ;
#213 = DIRECTION ( 'NONE',  ( 1.000000000000000000, 0.000000000000000000, 0.000000000000000000 ) ) ;
#214 = CARTESIAN_POINT ( 'NONE',  ( -21.41000000000000369, 2.000000000000000000, -8.869999999999999218 ) ) ;
#215 = ORIENTED_EDGE ( 'NONE', *, *, #409, .F. ) ;
#216 = LINE ( 'NONE', #404, #581 ) ;
#217 = CARTESIAN_POINT ( 'NONE',  ( 5.000000000000000000, 12.00000000000000000, -1.000000000000000888 ) ) ;
#218 = DIRECTION ( 'NONE',  ( -0.000000000000000000, -0.000000000000000000, 1.000000000000000000 ) ) ;
#219 = ORIENTED_EDGE ( 'NONE', *, *, #710, .T. ) ;
#220 = PLANE ( 'NONE',  #934 ) ;
#221 = FACE_OUTER_BOUND ( 'NONE', #1087, .T. ) ;
#222 = CARTESIAN_POINT ( 'NONE',  ( -6.650000000000001243, 12.00000000000000000, 0.9999999999999997780 ) ) ;
#223 = LINE ( 'NONE', #500, #751 ) ;
#224 = ORIENTED_EDGE ( 'NONE', *, *, #1082, .T. ) ;
#225 = CIRCLE ( 'NONE', #867, 1.649999999999999467 ) ;
#226 = ADVANCED_FACE ( 'NONE', ( #518 ), #336, .F. ) ;
#227 = FACE_OUTER_BOUND ( 'NONE', #733, .T. ) ;
#228 = EDGE_CURVE ( 'NONE', #645, #241, #330, .T. ) ;
#229 = DIRECTION ( 'NONE',  ( 1.000000000000000000, 0.000000000000000000, 0.000000000000000000 ) ) ;
#230 = CARTESIAN_POINT ( 'NONE',  ( -21.41000000000000369, 0.000000000000000000, 8.869999999999999218 ) ) ;
#231 = EDGE_LOOP ( 'NONE', ( #922, #571 ) ) ;
#232 = CARTESIAN_POINT ( 'NONE',  ( -12.50000000000000000, 22.00000000000000000, -1.000000000000000222 ) ) ;
#233 =( LENGTH_UNIT ( ) NAMED_UNIT ( * ) SI_UNIT ( .MILLI., .METRE. ) );
#234 = VECTOR ( 'NONE', #11, 1000.000000000000000 ) ;
#235 = DIRECTION ( 'NONE',  ( -0.000000000000000000, 1.000000000000000000, -0.000000000000000000 ) ) ;
#236 = ORIENTED_EDGE ( 'NONE', *, *, #89, .T. ) ;
#237 = CARTESIAN_POINT ( 'NONE',  ( -17.49999999999999645, -0.000000000000000000, 0.000000000000000000 ) ) ;
#238 = EDGE_CURVE ( 'NONE', #1115, #618, #635, .T. ) ;
#239 = DIRECTION ( 'NONE',  ( 0.000000000000000000, 0.000000000000000000, 1.000000000000000000 ) ) ;
#240 = SHAPE_DEFINITION_REPRESENTATION ( #962, #496 ) ;
#241 = VERTEX_POINT ( 'NONE', #427 ) ;
#242 = CARTESIAN_POINT ( 'NONE',  ( -17.49999999999999645, -27.99999999999999645, -18.50000000000000000 ) ) ;
#243 = DIRECTION ( 'NONE',  ( 0.000000000000000000, -0.000000000000000000, -1.000000000000000000 ) ) ;
#244 = DIRECTION ( 'NONE',  ( -0.000000000000000000, -0.000000000000000000, 1.000000000000000000 ) ) ;
#245 = APPLICATION_PROTOCOL_DEFINITION ( 'draft international standard', 'automotive_design', 1998, #806 ) ;
#246 = ORIENTED_EDGE ( 'NONE', *, *, #1150, .T. ) ;
#247 = EDGE_LOOP ( 'NONE', ( #483, #100 ) ) ;
#248 = LINE ( 'NONE', #969, #669 ) ;
#249 = PRESENTATION_STYLE_ASSIGNMENT (( #334 ) ) ;
#250 = FACE_OUTER_BOUND ( 'NONE', #419, .T. ) ;
#251 = DIRECTION ( 'NONE',  ( 0.000000000000000000, 1.000000000000000000, 0.000000000000000000 ) ) ;
#252 = ORIENTED_EDGE ( 'NONE', *, *, #862, .T. ) ;
#253 = ORIENTED_EDGE ( 'NONE', *, *, #1073, .F. ) ;
#254 = ADVANCED_FACE ( 'NONE', ( #4 ), #173, .F. ) ;
#255 = CARTESIAN_POINT ( 'NONE',  ( 0.000000000000000000, 2.000000000000000000, 0.000000000000000000 ) ) ;
#256 = AXIS2_PLACEMENT_3D ( 'NONE', #789, #868, #1046 ) ;
#257 = EDGE_CURVE ( 'NONE', #441, #325, #1055, .T. ) ;
#258 = CARTESIAN_POINT ( 'NONE',  ( -17.49999999999999645, 2.000000000000000000, 3.499999999999999556 ) ) ;
#259 = ORIENTED_EDGE ( 'NONE', *, *, #785, .T. ) ;
#260 = VECTOR ( 'NONE', #262, 1000.000000000000000 ) ;
#261 = VERTEX_POINT ( 'NONE', #971 ) ;
#262 = DIRECTION ( 'NONE',  ( -0.000000000000000000, -1.000000000000000000, -0.000000000000000000 ) ) ;
#263 = ADVANCED_FACE ( 'NONE', ( #610 ), #966, .F. ) ;
#264 = EDGE_CURVE ( 'NONE', #651, #645, #77, .T. ) ;
#265 = CARTESIAN_POINT ( 'NONE',  ( -21.41000000000000369, 0.000000000000000000, -8.869999999999999218 ) ) ;
#266 = ORIENTED_EDGE ( 'NONE', *, *, #785, .F. ) ;
#267 = EDGE_LOOP ( 'NONE', ( #623, #849 ) ) ;
#268 = EDGE_LOOP ( 'NONE', ( #266, #996, #1097, #39 ) ) ;
#269 = FACE_BOUND ( 'NONE', #595, .T. ) ;
#270 = CARTESIAN_POINT ( 'NONE',  ( 17.50000000000000711, 2.000000000000000000, 11.00000000000000000 ) ) ;
#271 = CARTESIAN_POINT ( 'NONE',  ( -12.50000000000000000, 22.00000000000000000, -1.000000000000000222 ) ) ;
#272 = ORIENTED_EDGE ( 'NONE', *, *, #104, .F. ) ;
#273 = EDGE_LOOP ( 'NONE', ( #342, #337 ) ) ;
#274 = ORIENTED_EDGE ( 'NONE', *, *, #335, .T. ) ;
#275 = CARTESIAN_POINT ( 'NONE',  ( -21.41000000000000369, 0.000000000000000000, 8.869999999999999218 ) ) ;
#276 = DIRECTION ( 'NONE',  ( -1.000000000000000000, -0.000000000000000000, -0.000000000000000000 ) ) ;
#277 = ADVANCED_FACE ( 'NONE', ( #797 ), #1157, .F. ) ;
#278 = VERTEX_POINT ( 'NONE', #657 ) ;
#279 = EDGE_CURVE ( 'NONE', #991, #646, #561, .T. ) ;
#280 = LINE ( 'NONE', #993, #24 ) ;
#281 = DIRECTION ( 'NONE',  ( 0.000000000000000000, 0.000000000000000000, 1.000000000000000000 ) ) ;
#282 = AXIS2_PLACEMENT_3D ( 'NONE', #43, #138, #306 ) ;
#283 = DIRECTION ( 'NONE',  ( 0.000000000000000000, 0.000000000000000000, -1.000000000000000000 ) ) ;
#284 = VERTEX_POINT ( 'NONE', #1101 ) ;
#285 = VERTEX_POINT ( 'NONE', #994 ) ;
#286 = CARTESIAN_POINT ( 'NONE',  ( 17.50000000000000711, 2.000000000000000000, 18.50000000000000000 ) ) ;
#287 = DIRECTION ( 'NONE',  ( -0.000000000000000000, -0.000000000000000000, 1.000000000000000000 ) ) ;
#288 = CARTESIAN_POINT ( 'NONE',  ( 12.50000000000000000, 22.00000000000000000, -1.000000000000000222 ) ) ;
#289 = ORIENTED_EDGE ( 'NONE', *, *, #238, .T. ) ;
#290 = VERTEX_POINT ( 'NONE', #549 ) ;
#291 = DIRECTION ( 'NONE',  ( 1.000000000000000000, -0.000000000000000000, 0.000000000000000000 ) ) ;
#292 = EDGE_CURVE ( 'NONE', #424, #992, #621, .T. ) ;
#293 = CIRCLE ( 'NONE', #109, 1.049999999999998934 ) ;
#294 = DIRECTION ( 'NONE',  ( 0.000000000000000000, 0.000000000000000000, 1.000000000000000000 ) ) ;
#295 = PRESENTATION_LAYER_ASSIGNMENT (  '', '', ( #2 ) ) ;
#296 = VECTOR ( 'NONE', #716, 1000.000000000000000 ) ;
#297 = EDGE_LOOP ( 'NONE', ( #13, #1008, #658, #611 ) ) ;
#298 = ORIENTED_EDGE ( 'NONE', *, *, #125, .F. ) ;
#299 = DIRECTION ( 'NONE',  ( 0.000000000000000000, 0.000000000000000000, -1.000000000000000000 ) ) ;
#300 = UNCERTAINTY_MEASURE_WITH_UNIT (LENGTH_MEASURE( 1.000000000000000082E-05 ), #446, 'distance_accuracy_value', 'NONE');
#301 = CARTESIAN_POINT ( 'NONE',  ( 0.000000000000000000, 0.000000000000000000, 0.000000000000000000 ) ) ;
#302 = DIRECTION ( 'NONE',  ( -1.000000000000000000, 0.000000000000000000, 0.000000000000000000 ) ) ;
#303 = ORIENTED_EDGE ( 'NONE', *, *, #485, .T. ) ;
#304 = CARTESIAN_POINT ( 'NONE',  ( -3.350000000000000533, 22.00000000000000000, -1.000000000000000888 ) ) ;
#305 = DIRECTION ( 'NONE',  ( 0.000000000000000000, 0.000000000000000000, -1.000000000000000000 ) ) ;
#306 = DIRECTION ( 'NONE',  ( -1.000000000000000000, 0.000000000000000000, -0.000000000000000000 ) ) ;
#307 = ORIENTED_EDGE ( 'NONE', *, *, #113, .F. ) ;
#308 = EDGE_CURVE ( 'NONE', #198, #768, #745, .T. ) ;
#309 = DIRECTION ( 'NONE',  ( -0.000000000000000000, -1.000000000000000000, -0.000000000000000000 ) ) ;
#310 = DIRECTION ( 'NONE',  ( 0.000000000000000000, 1.000000000000000000, 0.000000000000000000 ) ) ;
#311 = AXIS2_PLACEMENT_3D ( 'NONE', #320, #695, #1050 ) ;
#312 = DIRECTION ( 'NONE',  ( 0.000000000000000000, 0.000000000000000000, -1.000000000000000000 ) ) ;
#313 = DIRECTION ( 'NONE',  ( 0.000000000000000000, 0.000000000000000000, 1.000000000000000000 ) ) ;
#314 = VECTOR ( 'NONE', #973, 1000.000000000000000 ) ;
#315 = ORIENTED_EDGE ( 'NONE', *, *, #590, .T. ) ;
#316 = EDGE_CURVE ( 'NONE', #1015, #162, #523, .T. ) ;
#317 = ADVANCED_FACE ( 'NONE', ( #644 ), #641, .F. ) ;
#318 = AXIS2_PLACEMENT_3D ( 'NONE', #846, #1041, #950 ) ;
#319 = CARTESIAN_POINT ( 'NONE',  ( -12.50000000000000000, 2.000000000000000000, 0.9999999999999997780 ) ) ;
#320 = CARTESIAN_POINT ( 'NONE',  ( -17.49999999999999645, -27.99999999999999645, 3.499999999999999556 ) ) ;
#321 = ORIENTED_EDGE ( 'NONE', *, *, #279, .F. ) ;
#322 = LINE ( 'NONE', #532, #413 ) ;
#323 = CYLINDRICAL_SURFACE ( 'NONE', #704, 1.049999999999998934 ) ;
#324 = CARTESIAN_POINT ( 'NONE',  ( 0.000000000000000000, 22.00000000000000000, 0.000000000000000000 ) ) ;
#325 = VERTEX_POINT ( 'NONE', #12 ) ;
#326 = DIRECTION ( 'NONE',  ( 0.000000000000000000, 0.000000000000000000, -1.000000000000000000 ) ) ;
#327 = EDGE_CURVE ( 'NONE', #192, #332, #376, .T. ) ;
#328 = CARTESIAN_POINT ( 'NONE',  ( 12.50000000000000000, 2.000000000000000000, -1.000000000000000222 ) ) ;
#329 = VECTOR ( 'NONE', #925, 1000.000000000000000 ) ;
#330 = LINE ( 'NONE', #258, #46 ) ;
#331 = CARTESIAN_POINT ( 'NONE',  ( -21.41000000000000369, 2.000000000000000000, -9.919999999999998153 ) ) ;
#332 = VERTEX_POINT ( 'NONE', #927 ) ;
#333 = CARTESIAN_POINT ( 'NONE',  ( 3.350000000000000533, 22.00000000000000000, -28.99999999999999645 ) ) ;
#334 = SURFACE_STYLE_USAGE ( .BOTH. , #796 ) ;
#335 = EDGE_CURVE ( 'NONE', #325, #1109, #202, .T. ) ;
#336 = CYLINDRICAL_SURFACE ( 'NONE', #858, 1.049999999999998934 ) ;
#337 = ORIENTED_EDGE ( 'NONE', *, *, #477, .T. ) ;
#338 = ORIENTED_EDGE ( 'NONE', *, *, #41, .F. ) ;
#339 = DIRECTION ( 'NONE',  ( 0.000000000000000000, 0.000000000000000000, -1.000000000000000000 ) ) ;
#340 = FILL_AREA_STYLE_COLOUR ( '', #510 ) ;
#341 = CARTESIAN_POINT ( 'NONE',  ( 21.40999999999999304, 2.000000000000000000, -8.870000000000008100 ) ) ;
#342 = ORIENTED_EDGE ( 'NONE', *, *, #536, .T. ) ;
#343 = EDGE_CURVE ( 'NONE', #646, #261, #365, .T. ) ;
#344 = ORIENTED_EDGE ( 'NONE', *, *, #498, .F. ) ;
#345 = ADVANCED_FACE ( 'NONE', ( #464 ), #111, .F. ) ;
#346 = CARTESIAN_POINT ( 'NONE',  ( -17.49999999999999645, 2.000000000000000000, -11.00000000000000000 ) ) ;
#347 = SURFACE_STYLE_FILL_AREA ( #717 ) ;
#348 = DIRECTION ( 'NONE',  ( 1.000000000000000000, -0.000000000000000000, 0.000000000000000000 ) ) ;
#349 = ORIENTED_EDGE ( 'NONE', *, *, #343, .T. ) ;
#350 = AXIS2_PLACEMENT_3D ( 'NONE', #122, #487, #1125 ) ;
#351 = ORIENTED_EDGE ( 'NONE', *, *, #917, .T. ) ;
#352 = VECTOR ( 'NONE', #848, 1000.000000000000000 ) ;
#353 = EDGE_CURVE ( 'NONE', #1056, #377, #453, .T. ) ;
#354 = AXIS2_PLACEMENT_3D ( 'NONE', #217, #1032, #1119 ) ;
#355 = CARTESIAN_POINT ( 'NONE',  ( 17.50000000000000711, 2.000000000000000000, -18.50000000000000000 ) ) ;
#356 = CIRCLE ( 'NONE', #112, 1.049999999999998934 ) ;
#357 = EDGE_CURVE ( 'NONE', #570, #1072, #372, .T. ) ;
#358 = AXIS2_PLACEMENT_3D ( 'NONE', #17, #177, #283 ) ;
#359 = CARTESIAN_POINT ( 'NONE',  ( -21.41000000000000369, 2.000000000000000000, -8.869999999999999218 ) ) ;
#360 = CARTESIAN_POINT ( 'NONE',  ( 21.41000000000000369, 2.000000000000000000, 7.820000000000000284 ) ) ;
#361 = ORIENTED_EDGE ( 'NONE', *, *, #21, .F. ) ;
#362 = VERTEX_POINT ( 'NONE', #288 ) ;
#363 = ORIENTED_EDGE ( 'NONE', *, *, #951, .T. ) ;
#364 = CARTESIAN_POINT ( 'NONE',  ( -6.649999999999999467, 22.00000000000000000, -1.000000000000000222 ) ) ;
#365 = LINE ( 'NONE', #999, #1035 ) ;
#366 = VERTEX_POINT ( 'NONE', #664 ) ;
#367 = VERTEX_POINT ( 'NONE', #1020 ) ;
#368 = VECTOR ( 'NONE', #105, 1000.000000000000000 ) ;
#369 = CARTESIAN_POINT ( 'NONE',  ( -12.50000000000000000, 22.00000000000000000, 0.9999999999999997780 ) ) ;
#370 = DIRECTION ( 'NONE',  ( -0.000000000000000000, -0.000000000000000000, 1.000000000000000000 ) ) ;
#371 = ADVANCED_FACE ( 'NONE', ( #577 ), #1095, .F. ) ;
#372 = LINE ( 'NONE', #1113, #395 ) ;
#373 = EDGE_CURVE ( 'NONE', #928, #1010, #118, .T. ) ;
#374 = ORIENTED_EDGE ( 'NONE', *, *, #592, .F. ) ;
#375 = PLANE ( 'NONE',  #59 ) ;
#376 = LINE ( 'NONE', #836, #883 ) ;
#377 = VERTEX_POINT ( 'NONE', #360 ) ;
#378 = CIRCLE ( 'NONE', #1140, 1.650000000000000355 ) ;
#379 = LINE ( 'NONE', #750, #947 ) ;
#380 = CARTESIAN_POINT ( 'NONE',  ( 17.50000000000000711, 0.000000000000000000, 0.000000000000000000 ) ) ;
#381 = CLOSED_SHELL ( 'NONE', ( #263, #893, #176, #640, #277, #511, #254, #51, #1145, #566, #1001, #406, #965, #317, #209, #371, #345, #1143, #226, #194, #953, #865, #1110, #822, #74, #576, #1116, #715, #602, #76, #676, #136, #765, #896, #385 ) ) ;
#382 = DIRECTION ( 'NONE',  ( 0.000000000000000000, 0.000000000000000000, 1.000000000000000000 ) ) ;
#383 = ORIENTED_EDGE ( 'NONE', *, *, #699, .T. ) ;
#384 = ORIENTED_EDGE ( 'NONE', *, *, #803, .F. ) ;
#385 = ADVANCED_FACE ( 'NONE', ( #732 ), #1007, .F. ) ;
#386 = DIRECTION ( 'NONE',  ( 1.000000000000000000, 0.000000000000000000, 0.000000000000000000 ) ) ;
#387 = CARTESIAN_POINT ( 'NONE',  ( -21.41000000000000369, 2.000000000000000000, -8.869999999999999218 ) ) ;
#388 = EDGE_LOOP ( 'NONE', ( #303, #531 ) ) ;
#389 = ORIENTED_EDGE ( 'NONE', *, *, #729, .T. ) ;
#390 = EDGE_CURVE ( 'NONE', #61, #563, #921, .T. ) ;
#391 = VECTOR ( 'NONE', #987, 1000.000000000000000 ) ;
#392 = EDGE_CURVE ( 'NONE', #1152, #285, #598, .T. ) ;
#393 = DIRECTION ( 'NONE',  ( 0.000000000000000000, 1.000000000000000000, -0.000000000000000000 ) ) ;
#394 = VECTOR ( 'NONE', #75, 1000.000000000000000 ) ;
#395 = VECTOR ( 'NONE', #482, 1000.000000000000000 ) ;
#396 = DIRECTION ( 'NONE',  ( -0.000000000000000000, -1.000000000000000000, -0.000000000000000000 ) ) ;
#397 = ORIENTED_EDGE ( 'NONE', *, *, #373, .T. ) ;
#398 = AXIS2_PLACEMENT_3D ( 'NONE', #1090, #907, #190 ) ;
#399 = CARTESIAN_POINT ( 'NONE',  ( 17.50000000000000711, 2.000000000000000000, -3.499999999999999556 ) ) ;
#400 = DIRECTION ( 'NONE',  ( 0.000000000000000000, -1.000000000000000000, 0.000000000000000000 ) ) ;
#401 = LINE ( 'NONE', #688, #952 ) ;
#402 = ORIENTED_EDGE ( 'NONE', *, *, #1017, .T. ) ;
#403 = AXIS2_PLACEMENT_3D ( 'NONE', #1063, #239, #701 ) ;
#404 = CARTESIAN_POINT ( 'NONE',  ( -24.99999999999998934, 0.000000000000000000, -11.00000000000000000 ) ) ;
#405 = FACE_OUTER_BOUND ( 'NONE', #558, .T. ) ;
#406 = ADVANCED_FACE ( 'NONE', ( #405, #770, #603, #141, #942 ), #137, .T. ) ;
#407 = DIRECTION ( 'NONE',  ( 1.000000000000000000, 0.000000000000000000, 0.000000000000000000 ) ) ;
#408 = ORIENTED_EDGE ( 'NONE', *, *, #327, .F. ) ;
#409 = EDGE_CURVE ( 'NONE', #983, #278, #866, .T. ) ;
#410 = DIRECTION ( 'NONE',  ( 0.000000000000000000, 1.000000000000000000, 0.000000000000000000 ) ) ;
#411 = AXIS2_PLACEMENT_3D ( 'NONE', #426, #517, #81 ) ;
#412 = LINE ( 'NONE', #604, #694 ) ;
#413 = VECTOR ( 'NONE', #698, 1000.000000000000000 ) ;
#414 = VERTEX_POINT ( 'NONE', #587 ) ;
#415 = VECTOR ( 'NONE', #842, 1000.000000000000000 ) ;
#416 = DIRECTION ( 'NONE',  ( -0.000000000000000000, -1.000000000000000000, -0.000000000000000000 ) ) ;
#417 = VECTOR ( 'NONE', #309, 1000.000000000000000 ) ;
#418 = CARTESIAN_POINT ( 'NONE',  ( -5.000000000000000000, 22.00000000000000000, -1.000000000000000888 ) ) ;
#419 = EDGE_LOOP ( 'NONE', ( #550, #1086, #1078, #49 ) ) ;
#420 = EDGE_CURVE ( 'NONE', #977, #618, #926, .T. ) ;
#421 = FACE_OUTER_BOUND ( 'NONE', #520, .T. ) ;
#422 = LINE ( 'NONE', #974, #146 ) ;
#423 = DIRECTION ( 'NONE',  ( -0.000000000000000000, -0.000000000000000000, 1.000000000000000000 ) ) ;
#424 = VERTEX_POINT ( 'NONE', #1135 ) ;
#425 = PLANE ( 'NONE',  #147 ) ;
#426 = CARTESIAN_POINT ( 'NONE',  ( 5.000000000000000000, 12.00000000000000000, 0.9999999999999997780 ) ) ;
#427 = CARTESIAN_POINT ( 'NONE',  ( -17.49999999999999645, 2.000000000000000000, 3.499999999999999556 ) ) ;
#428 = LINE ( 'NONE', #538, #207 ) ;
#429 = ORIENTED_EDGE ( 'NONE', *, *, #460, .F. ) ;
#430 = LINE ( 'NONE', #237, #296 ) ;
#431 = CARTESIAN_POINT ( 'NONE',  ( 5.000000000000000000, 12.00000000000000000, -28.99999999999999645 ) ) ;
#432 = PRODUCT_DEFINITION_FORMATION_WITH_SPECIFIED_SOURCE ( 'ไป', '', #1057, .NOT_KNOWN. ) ;
#433 = DIRECTION ( 'NONE',  ( 0.000000000000000000, 0.000000000000000000, -1.000000000000000000 ) ) ;
#434 =( NAMED_UNIT ( * ) SI_UNIT ( $, .STERADIAN. ) SOLID_ANGLE_UNIT ( ) );
#435 = ORIENTED_EDGE ( 'NONE', *, *, #264, .T. ) ;
#436 = AXIS2_PLACEMENT_3D ( 'NONE', #1131, #132, #210 ) ;
#437 = DIRECTION ( 'NONE',  ( 0.000000000000000000, 0.000000000000000000, 1.000000000000000000 ) ) ;
#438 = CARTESIAN_POINT ( 'NONE',  ( 21.40999999999999304, 2.000000000000000000, -8.870000000000008100 ) ) ;
#439 =( NAMED_UNIT ( * ) PLANE_ANGLE_UNIT ( ) SI_UNIT ( $, .RADIAN. ) );
#440 = ORIENTED_EDGE ( 'NONE', *, *, #1150, .F. ) ;
#441 = VERTEX_POINT ( 'NONE', #861 ) ;
#442 = EDGE_CURVE ( 'NONE', #284, #1096, #959, .T. ) ;
#443 = PLANE ( 'NONE',  #9 ) ;
#444 = DIRECTION ( 'NONE',  ( -1.000000000000000000, 0.000000000000000000, 0.000000000000000000 ) ) ;
#445 = CYLINDRICAL_SURFACE ( 'NONE', #779, 1.049999999999998934 ) ;
#446 =( LENGTH_UNIT ( ) NAMED_UNIT ( * ) SI_UNIT ( .MILLI., .METRE. ) );
#447 = EDGE_LOOP ( 'NONE', ( #408, #760, #14, #440 ) ) ;
#448 = VECTOR ( 'NONE', #998, 1000.000000000000000 ) ;
#449 = VERTEX_POINT ( 'NONE', #946 ) ;
#450 = ORIENTED_EDGE ( 'NONE', *, *, #845, .F. ) ;
#451 = AXIS2_PLACEMENT_3D ( 'NONE', #1026, #410, #583 ) ;
#452 = DIRECTION ( 'NONE',  ( 1.000000000000000000, 0.000000000000000000, 0.000000000000000000 ) ) ;
#453 = CIRCLE ( 'NONE', #515, 1.049999999999998934 ) ;
#454 = FACE_OUTER_BOUND ( 'NONE', #44, .T. ) ;
#455 = DIRECTION ( 'NONE',  ( 0.000000000000000000, 0.000000000000000000, 1.000000000000000000 ) ) ;
#456 = ORIENTED_EDGE ( 'NONE', *, *, #1162, .T. ) ;
#457 = AXIS2_PLACEMENT_3D ( 'NONE', #1171, #712, #990 ) ;
#458 = ORIENTED_EDGE ( 'NONE', *, *, #568, .T. ) ;
#459 = ORIENTED_EDGE ( 'NONE', *, *, #795, .T. ) ;
#460 = EDGE_CURVE ( 'NONE', #696, #908, #1139, .T. ) ;
#461 = DIRECTION ( 'NONE',  ( 0.000000000000000000, 0.000000000000000000, 1.000000000000000000 ) ) ;
#462 = CARTESIAN_POINT ( 'NONE',  ( -5.000000000000000000, 12.00000000000000000, -28.99999999999999645 ) ) ;
#463 = APPLICATION_CONTEXT ( 'automotive_design' ) ;
#464 = FACE_OUTER_BOUND ( 'NONE', #66, .T. ) ;
#465 = ORIENTED_EDGE ( 'NONE', *, *, #697, .F. ) ;
#466 = ORIENTED_EDGE ( 'NONE', *, *, #1167, .F. ) ;
#467 = AXIS2_PLACEMENT_3D ( 'NONE', #265, #185, #455 ) ;
#468 = DIRECTION ( 'NONE',  ( 0.000000000000000000, 0.000000000000000000, 1.000000000000000000 ) ) ;
#469 = EDGE_CURVE ( 'NONE', #367, #1015, #499, .T. ) ;
#470 = DIRECTION ( 'NONE',  ( -0.000000000000000000, -0.000000000000000000, 1.000000000000000000 ) ) ;
#471 = ORIENTED_EDGE ( 'NONE', *, *, #1027, .F. ) ;
#472 = ORIENTED_EDGE ( 'NONE', *, *, #988, .T. ) ;
#473 = DIRECTION ( 'NONE',  ( 0.000000000000000000, 0.000000000000000000, 1.000000000000000000 ) ) ;
#474 = VECTOR ( 'NONE', #703, 1000.000000000000000 ) ;
#475 = DIRECTION ( 'NONE',  ( -0.000000000000000000, 0.000000000000000000, 1.000000000000000000 ) ) ;
#476 = DIRECTION ( 'NONE',  ( 0.000000000000000000, 1.000000000000000000, 0.000000000000000000 ) ) ;
#477 = EDGE_CURVE ( 'NONE', #198, #829, #656, .T. ) ;
#478 = ORIENTED_EDGE ( 'NONE', *, *, #660, .T. ) ;
#479 = ORIENTED_EDGE ( 'NONE', *, *, #612, .F. ) ;
#480 = VECTOR ( 'NONE', #31, 1000.000000000000000 ) ;
#481 = CARTESIAN_POINT ( 'NONE',  ( 12.50000000000000000, 22.00000000000000000, 0.9999999999999997780 ) ) ;
#482 = DIRECTION ( 'NONE',  ( -1.000000000000000000, -0.000000000000000000, -0.000000000000000000 ) ) ;
#483 = ORIENTED_EDGE ( 'NONE', *, *, #1118, .F. ) ;
#484 = EDGE_LOOP ( 'NONE', ( #458, #435, #1051, #465 ) ) ;
#485 = EDGE_CURVE ( 'NONE', #278, #983, #763, .T. ) ;
#486 = DIRECTION ( 'NONE',  ( 0.000000000000000000, 0.000000000000000000, -1.000000000000000000 ) ) ;
#487 = DIRECTION ( 'NONE',  ( 0.000000000000000000, 1.000000000000000000, 0.000000000000000000 ) ) ;
#488 = LINE ( 'NONE', #787, #352 ) ;
#489 = ORIENTED_EDGE ( 'NONE', *, *, #986, .F. ) ;
#490 = LINE ( 'NONE', #200, #480 ) ;
#491 = CIRCLE ( 'NONE', #1156, 1.650000000000000355 ) ;
#492 = CARTESIAN_POINT ( 'NONE',  ( -17.49999999999999645, 2.000000000000000000, -3.499999999999999556 ) ) ;
#493 = MECHANICAL_DESIGN_GEOMETRIC_PRESENTATION_REPRESENTATION (  '', ( #2 ), #91 ) ;
#494 = CARTESIAN_POINT ( 'NONE',  ( 0.000000000000000000, -0.000000000000000000, -3.499999999999999556 ) ) ;
#495 = VERTEX_POINT ( 'NONE', #687 ) ;
#496 = ADVANCED_BREP_SHAPE_REPRESENTATION ( 'HC_loa', ( #614, #457 ), #1104 ) ;
#497 = DIRECTION ( 'NONE',  ( 0.000000000000000000, -1.000000000000000000, 0.000000000000000000 ) ) ;
#498 = EDGE_CURVE ( 'NONE', #211, #1000, #42, .T. ) ;
#499 = LINE ( 'NONE', #1048, #1133 ) ;
#500 = CARTESIAN_POINT ( 'NONE',  ( -17.49999999999999645, 2.000000000000000000, -18.50000000000000000 ) ) ;
#501 = VERTEX_POINT ( 'NONE', #781 ) ;
#502 = VECTOR ( 'NONE', #884, 1000.000000000000000 ) ;
#503 = DIRECTION ( 'NONE',  ( 0.000000000000000000, -0.000000000000000000, -1.000000000000000000 ) ) ;
#504 = DIRECTION ( 'NONE',  ( 1.000000000000000000, 0.000000000000000000, 0.000000000000000000 ) ) ;
#505 = LINE ( 'NONE', #863, #1047 ) ;
#506 = ORIENTED_EDGE ( 'NONE', *, *, #392, .F. ) ;
#507 = LINE ( 'NONE', #140, #203 ) ;
#508 = CIRCLE ( 'NONE', #1137, 1.049999999999998934 ) ;
#509 = CARTESIAN_POINT ( 'NONE',  ( 6.649999999999999467, 22.00000000000000000, -28.99999999999999645 ) ) ;
#510 = COLOUR_RGB ( '',0.7921568627450980005, 0.8196078431372548767, 0.9333333333333333481 ) ;
#511 = ADVANCED_FACE ( 'NONE', ( #32 ), #857, .F. ) ;
#512 = DIRECTION ( 'NONE',  ( 0.000000000000000000, 1.000000000000000000, -0.000000000000000000 ) ) ;
#513 = AXIS2_PLACEMENT_3D ( 'NONE', #957, #326, #801 ) ;
#514 = EDGE_LOOP ( 'NONE', ( #1022, #1138 ) ) ;
#515 = AXIS2_PLACEMENT_3D ( 'NONE', #737, #476, #382 ) ;
#516 = CARTESIAN_POINT ( 'NONE',  ( -5.000000000000000000, 12.00000000000000000, -28.99999999999999645 ) ) ;
#517 = DIRECTION ( 'NONE',  ( 0.000000000000000000, 0.000000000000000000, 1.000000000000000000 ) ) ;
#518 = FACE_OUTER_BOUND ( 'NONE', #617, .T. ) ;
#519 = ORIENTED_EDGE ( 'NONE', *, *, #1094, .T. ) ;
#520 = EDGE_LOOP ( 'NONE', ( #383, #1039, #936, #479 ) ) ;
#521 = PLANE ( 'NONE',  #1084 ) ;
#522 = LINE ( 'NONE', #705, #394 ) ;
#523 = CIRCLE ( 'NONE', #564, 1.049999999999998934 ) ;
#524 = CARTESIAN_POINT ( 'NONE',  ( 17.50000000000000711, -27.99999999999999645, 3.499999999999999556 ) ) ;
#525 = ORIENTED_EDGE ( 'NONE', *, *, #778, .F. ) ;
#526 = ORIENTED_EDGE ( 'NONE', *, *, #257, .T. ) ;
#527 = CARTESIAN_POINT ( 'NONE',  ( -6.650000000000001243, 12.00000000000000000, -1.000000000000000888 ) ) ;
#528 = DIRECTION ( 'NONE',  ( -0.000000000000000000, -0.000000000000000000, 1.000000000000000000 ) ) ;
#529 = LINE ( 'NONE', #894, #1163 ) ;
#530 = EDGE_LOOP ( 'NONE', ( #743, #890, #783, #456 ) ) ;
#531 = ORIENTED_EDGE ( 'NONE', *, *, #409, .T. ) ;
#532 = CARTESIAN_POINT ( 'NONE',  ( 17.50000000000000711, 0.000000000000000000, 0.000000000000000000 ) ) ;
#533 = EDGE_CURVE ( 'NONE', #826, #992, #758, .T. ) ;
#534 =( NAMED_UNIT ( * ) PLANE_ANGLE_UNIT ( ) SI_UNIT ( $, .RADIAN. ) );
#535 = VECTOR ( 'NONE', #189, 1000.000000000000000 ) ;
#536 = EDGE_CURVE ( 'NONE', #829, #198, #574, .T. ) ;
#537 = CARTESIAN_POINT ( 'NONE',  ( -17.49999999999999645, 2.000000000000000000, -11.00000000000000000 ) ) ;
#538 = CARTESIAN_POINT ( 'NONE',  ( -17.49999999999999645, 2.000000000000000000, 11.00000000000000000 ) ) ;
#539 = ORIENTED_EDGE ( 'NONE', *, *, #845, .T. ) ;
#540 = ORIENTED_EDGE ( 'NONE', *, *, #353, .F. ) ;
#541 = CIRCLE ( 'NONE', #1161, 1.049999999999998934 ) ;
#542 = DIRECTION ( 'NONE',  ( -1.000000000000000000, 0.000000000000000000, 0.000000000000000000 ) ) ;
#543 = FACE_OUTER_BOUND ( 'NONE', #1021, .T. ) ;
#544 = CARTESIAN_POINT ( 'NONE',  ( 21.41000000000000369, 2.000000000000000000, 8.869999999999999218 ) ) ;
#545 = VERTEX_POINT ( 'NONE', #222 ) ;
#546 = ORIENTED_EDGE ( 'NONE', *, *, #1080, .F. ) ;
#547 = CARTESIAN_POINT ( 'NONE',  ( 17.50000000000000355, 0.000000000000000000, 11.00000000000000000 ) ) ;
#548 = CARTESIAN_POINT ( 'NONE',  ( 12.50000000000000000, 2.000000000000000000, 0.9999999999999997780 ) ) ;
#549 = CARTESIAN_POINT ( 'NONE',  ( -3.349999999999999645, 12.00000000000000000, 0.9999999999999997780 ) ) ;
#550 = ORIENTED_EDGE ( 'NONE', *, *, #775, .T. ) ;
#551 = EDGE_CURVE ( 'NONE', #162, #1015, #726, .T. ) ;
#552 = VECTOR ( 'NONE', #25, 1000.000000000000000 ) ;
#553 = VERTEX_POINT ( 'NONE', #1037 ) ;
#554 = CARTESIAN_POINT ( 'NONE',  ( 25.00000000000001066, 2.000000000000000000, 11.00000000000000000 ) ) ;
#555 = VECTOR ( 'NONE', #312, 1000.000000000000000 ) ;
#556 = CARTESIAN_POINT ( 'NONE',  ( -24.99999999999998934, 2.000000000000000000, -11.00000000000000000 ) ) ;
#557 = ORIENTED_EDGE ( 'NONE', *, *, #469, .T. ) ;
#558 = EDGE_LOOP ( 'NONE', ( #889, #880, #1127, #78, #864, #902, #119, #120, #810, #96, #429, #759 ) ) ;
#559 = DIRECTION ( 'NONE',  ( 0.000000000000000000, 0.000000000000000000, 1.000000000000000000 ) ) ;
#560 = LINE ( 'NONE', #639, #1058 ) ;
#561 = LINE ( 'NONE', #271, #680 ) ;
#562 = ORIENTED_EDGE ( 'NONE', *, *, #392, .T. ) ;
#563 = VERTEX_POINT ( 'NONE', #593 ) ;
#564 = AXIS2_PLACEMENT_3D ( 'NONE', #26, #95, #832 ) ;
#565 = CARTESIAN_POINT ( 'NONE',  ( -21.41000000000000369, 2.000000000000000000, -9.919999999999998153 ) ) ;
#566 = ADVANCED_FACE ( 'NONE', ( #131 ), #47, .F. ) ;
#567 = CARTESIAN_POINT ( 'NONE',  ( -17.49999999999999645, -27.99999999999999645, 3.499999999999999556 ) ) ;
#568 = EDGE_CURVE ( 'NONE', #449, #651, #522, .T. ) ;
#569 = DIRECTION ( 'NONE',  ( -0.000000000000000000, -0.000000000000000000, 1.000000000000000000 ) ) ;
#570 = VERTEX_POINT ( 'NONE', #328 ) ;
#571 = ORIENTED_EDGE ( 'NONE', *, *, #197, .F. ) ;
#572 = VECTOR ( 'NONE', #718, 1000.000000000000000 ) ;
#573 = CARTESIAN_POINT ( 'NONE',  ( -5.000000000000000000, 12.00000000000000000, 0.9999999999999997780 ) ) ;
#574 = CIRCLE ( 'NONE', #354, 1.650000000000000355 ) ;
#575 = VECTOR ( 'NONE', #148, 1000.000000000000000 ) ;
#576 = ADVANCED_FACE ( 'NONE', ( #69 ), #64, .F. ) ;
#577 = FACE_OUTER_BOUND ( 'NONE', #967, .T. ) ;
#578 = EDGE_CURVE ( 'NONE', #768, #34, #668, .T. ) ;
#579 = ORIENTED_EDGE ( 'NONE', *, *, #551, .F. ) ;
#580 = EDGE_LOOP ( 'NONE', ( #351, #879 ) ) ;
#581 = VECTOR ( 'NONE', #769, 1000.000000000000000 ) ;
#582 = LINE ( 'NONE', #586, #784 ) ;
#583 = DIRECTION ( 'NONE',  ( 0.000000000000000000, 0.000000000000000000, 1.000000000000000000 ) ) ;
#584 = FACE_OUTER_BOUND ( 'NONE', #672, .T. ) ;
#585 = ORIENTED_EDGE ( 'NONE', *, *, #625, .T. ) ;
#586 = CARTESIAN_POINT ( 'NONE',  ( -24.99999999999998934, 2.000000000000000000, -11.00000000000000000 ) ) ;
#587 = CARTESIAN_POINT ( 'NONE',  ( 25.00000000000001066, 2.000000000000000000, 11.00000000000000000 ) ) ;
#588 = PLANE ( 'NONE',  #282 ) ;
#589 = ORIENTED_EDGE ( 'NONE', *, *, #660, .F. ) ;
#590 = EDGE_CURVE ( 'NONE', #414, #696, #876, .T. ) ;
#591 = FACE_OUTER_BOUND ( 'NONE', #530, .T. ) ;
#592 = EDGE_CURVE ( 'NONE', #928, #284, #422, .T. ) ;
#593 = CARTESIAN_POINT ( 'NONE',  ( -17.49999999999999645, 2.000000000000000000, 11.00000000000000000 ) ) ;
#594 = CARTESIAN_POINT ( 'NONE',  ( -21.41000000000000369, 0.000000000000000000, -8.869999999999999218 ) ) ;
#595 = EDGE_LOOP ( 'NONE', ( #174, #384 ) ) ;
#596 = DIRECTION ( 'NONE',  ( -0.000000000000000000, -1.000000000000000000, -0.000000000000000000 ) ) ;
#597 = PLANE ( 'NONE',  #964 ) ;
#598 = LINE ( 'NONE', #319, #187 ) ;
#599 = CARTESIAN_POINT ( 'NONE',  ( -5.000000000000000000, 12.00000000000000000, -1.000000000000000888 ) ) ;
#600 = ORIENTED_EDGE ( 'NONE', *, *, #1027, .T. ) ;
#601 = LINE ( 'NONE', #1068, #314 ) ;
#602 = ADVANCED_FACE ( 'NONE', ( #790 ), #722, .F. ) ;
#603 = FACE_BOUND ( 'NONE', #514, .T. ) ;
#604 = CARTESIAN_POINT ( 'NONE',  ( -12.50000000000000000, 22.00000000000000000, -1.000000000000000222 ) ) ;
#605 = EDGE_LOOP ( 'NONE', ( #178, #540 ) ) ;
#606 = CARTESIAN_POINT ( 'NONE',  ( -12.50000000000000000, 22.00000000000000000, -1.000000000000000222 ) ) ;
#607 = AXIS2_PLACEMENT_3D ( 'NONE', #736, #16, #835 ) ;
#608 = CARTESIAN_POINT ( 'NONE',  ( -12.50000000000000000, 22.00000000000000000, -1.000000000000000222 ) ) ;
#609 = AXIS2_PLACEMENT_3D ( 'NONE', #847, #670, #229 ) ;
#610 = FACE_OUTER_BOUND ( 'NONE', #684, .T. ) ;
#611 = ORIENTED_EDGE ( 'NONE', *, *, #958, .F. ) ;
#612 = EDGE_CURVE ( 'NONE', #186, #1034, #58, .T. ) ;
#613 = CARTESIAN_POINT ( 'NONE',  ( 3.349999999999999201, 12.00000000000000000, 0.9999999999999997780 ) ) ;
#614 = MANIFOLD_SOLID_BREP ( '\X2\52079664\X0\-\X2\62c94f38\X0\2', #381 ) ;
#615 =( NAMED_UNIT ( * ) SI_UNIT ( $, .STERADIAN. ) SOLID_ANGLE_UNIT ( ) );
#616 = DIRECTION ( 'NONE',  ( 0.000000000000000000, 0.000000000000000000, -1.000000000000000000 ) ) ;
#617 = EDGE_LOOP ( 'NONE', ( #897, #1166, #85, #215 ) ) ;
#618 = VERTEX_POINT ( 'NONE', #709 ) ;
#619 = DIRECTION ( 'NONE',  ( 0.000000000000000000, -1.000000000000000000, 0.000000000000000000 ) ) ;
#620 = DIRECTION ( 'NONE',  ( -0.000000000000000000, -1.000000000000000000, -0.000000000000000000 ) ) ;
#621 = CIRCLE ( 'NONE', #467, 1.049999999999998934 ) ;
#622 = PLANE ( 'NONE',  #898 ) ;
#623 = ORIENTED_EDGE ( 'NONE', *, *, #988, .F. ) ;
#624 = ORIENTED_EDGE ( 'NONE', *, *, #21, .T. ) ;
#625 = EDGE_CURVE ( 'NONE', #61, #325, #1160, .T. ) ;
#626 = FACE_OUTER_BOUND ( 'NONE', #637, .T. ) ;
#627 = VECTOR ( 'NONE', #396, 1000.000000000000000 ) ;
#628 = DIRECTION ( 'NONE',  ( 0.000000000000000000, 1.000000000000000000, -0.000000000000000000 ) ) ;
#629 = ORIENTED_EDGE ( 'NONE', *, *, #803, .T. ) ;
#630 = VECTOR ( 'NONE', #416, 1000.000000000000000 ) ;
#631 = ORIENTED_EDGE ( 'NONE', *, *, #578, .T. ) ;
#632 = CARTESIAN_POINT ( 'NONE',  ( 25.00000000000001066, 2.000000000000000000, -11.00000000000000000 ) ) ;
#633 = CARTESIAN_POINT ( 'NONE',  ( -24.99999999999998934, 2.000000000000000000, 11.00000000000000000 ) ) ;
#634 = AXIS2_PLACEMENT_3D ( 'NONE', #1025, #762, #299 ) ;
#635 = LINE ( 'NONE', #1071, #1049 ) ;
#636 = ORIENTED_EDGE ( 'NONE', *, *, #420, .T. ) ;
#637 = EDGE_LOOP ( 'NONE', ( #84, #199, #793, #885 ) ) ;
#638 = LINE ( 'NONE', #740, #891 ) ;
#639 = CARTESIAN_POINT ( 'NONE',  ( -21.41000000000000369, 2.000000000000000000, 9.919999999999998153 ) ) ;
#640 = ADVANCED_FACE ( 'NONE', ( #1146 ), #323, .F. ) ;
#641 = PLANE ( 'NONE',  #67 ) ;
#642 = ORIENTED_EDGE ( 'NONE', *, *, #958, .T. ) ;
#643 = CARTESIAN_POINT ( 'NONE',  ( -17.49999999999999645, 0.000000000000000000, -3.499999999999999556 ) ) ;
#644 = FACE_OUTER_BOUND ( 'NONE', #1014, .T. ) ;
#645 = VERTEX_POINT ( 'NONE', #153 ) ;
#646 = VERTEX_POINT ( 'NONE', #608 ) ;
#647 = DIRECTION ( 'NONE',  ( -0.000000000000000000, -1.000000000000000000, -0.000000000000000000 ) ) ;
#648 = AXIS2_PLACEMENT_3D ( 'NONE', #1112, #1100, #1012 ) ;
#649 = CARTESIAN_POINT ( 'NONE',  ( -5.000000000000000000, 12.00000000000000000, 0.9999999999999997780 ) ) ;
#650 = CARTESIAN_POINT ( 'NONE',  ( -17.49999999999999645, -0.000000000000000000, 0.000000000000000000 ) ) ;
#651 = VERTEX_POINT ( 'NONE', #970 ) ;
#652 = ORIENTED_EDGE ( 'NONE', *, *, #264, .F. ) ;
#653 = DIRECTION ( 'NONE',  ( -0.000000000000000000, -1.000000000000000000, -0.000000000000000000 ) ) ;
#654 = CIRCLE ( 'NONE', #134, 1.049999999999998934 ) ;
#655 = DIRECTION ( 'NONE',  ( -1.000000000000000000, 0.000000000000000000, -0.000000000000000000 ) ) ;
#656 = CIRCLE ( 'NONE', #609, 1.650000000000000355 ) ;
#657 = CARTESIAN_POINT ( 'NONE',  ( 21.41000000000000369, 0.000000000000000000, 7.820000000000000284 ) ) ;
#658 = ORIENTED_EDGE ( 'NONE', *, *, #292, .F. ) ;
#659 = EDGE_LOOP ( 'NONE', ( #1067, #777, #259, #600, #389, #489, #6, #307, #7, #204, #166, #713 ) ) ;
#660 = EDGE_CURVE ( 'NONE', #754, #501, #560, .T. ) ;
#661 = CARTESIAN_POINT ( 'NONE',  ( 17.50000000000000355, 2.000000000000000000, 11.00000000000000000 ) ) ;
#662 = DIRECTION ( 'NONE',  ( 1.000000000000000000, 0.000000000000000000, 0.000000000000000000 ) ) ;
#663 = EDGE_CURVE ( 'NONE', #545, #290, #491, .T. ) ;
#664 = CARTESIAN_POINT ( 'NONE',  ( 3.350000000000002309, 22.00000000000000000, -1.000000000000000222 ) ) ;
#665 = ORIENTED_EDGE ( 'NONE', *, *, #442, .T. ) ;
#666 = ORIENTED_EDGE ( 'NONE', *, *, #308, .F. ) ;
#667 = FACE_OUTER_BOUND ( 'NONE', #1045, .T. ) ;
#668 = CIRCLE ( 'NONE', #411, 1.650000000000000355 ) ;
#669 = VECTOR ( 'NONE', #80, 1000.000000000000000 ) ;
#670 = DIRECTION ( 'NONE',  ( 0.000000000000000000, 0.000000000000000000, 1.000000000000000000 ) ) ;
#671 = ORIENTED_EDGE ( 'NONE', *, *, #357, .T. ) ;
#672 = EDGE_LOOP ( 'NONE', ( #252, #253, #1092, #652 ) ) ;
#673 = VECTOR ( 'NONE', #596, 1000.000000000000000 ) ;
#674 = CARTESIAN_POINT ( 'NONE',  ( 3.350000000000000533, 22.00000000000000000, 0.9999999999999997780 ) ) ;
#675 = DIRECTION ( 'NONE',  ( -0.000000000000000000, -1.000000000000000000, -0.000000000000000000 ) ) ;
#676 = ADVANCED_FACE ( 'NONE', ( #454 ), #813, .F. ) ;
#677 = PLANE ( 'NONE',  #28 ) ;
#678 = ORIENTED_EDGE ( 'NONE', *, *, #592, .T. ) ;
#679 = PLANE ( 'NONE',  #731 ) ;
#680 = VECTOR ( 'NONE', #914, 1000.000000000000000 ) ;
#681 = DIRECTION ( 'NONE',  ( 0.000000000000000000, 0.000000000000000000, -1.000000000000000000 ) ) ;
#682 = PRODUCT_RELATED_PRODUCT_CATEGORY ( 'part', '', ( #1057 ) ) ;
#683 = LINE ( 'NONE', #494, #1108 ) ;
#684 = EDGE_LOOP ( 'NONE', ( #707, #79, #631, #546 ) ) ;
#685 = CYLINDRICAL_SURFACE ( 'NONE', #318, 1.649999999999999467 ) ;
#686 = DIRECTION ( 'NONE',  ( 0.000000000000000000, 0.000000000000000000, 1.000000000000000000 ) ) ;
#687 = CARTESIAN_POINT ( 'NONE',  ( -21.41000000000000369, 0.000000000000000000, 7.820000000000000284 ) ) ;
#688 = CARTESIAN_POINT ( 'NONE',  ( -6.650000000000000355, 12.00000000000000000, -28.99999999999999645 ) ) ;
#689 = ORIENTED_EDGE ( 'NONE', *, *, #951, .F. ) ;
#690 = EDGE_CURVE ( 'NONE', #873, #88, #963, .T. ) ;
#691 = AXIS2_PLACEMENT_3D ( 'NONE', #554, #542, #15 ) ;
#692 = EDGE_CURVE ( 'NONE', #916, #754, #850, .T. ) ;
#693 = CARTESIAN_POINT ( 'NONE',  ( 25.00000000000001066, 0.000000000000000000, 11.00000000000000000 ) ) ;
#694 = VECTOR ( 'NONE', #1033, 1000.000000000000000 ) ;
#695 = DIRECTION ( 'NONE',  ( 0.000000000000000000, 0.000000000000000000, -1.000000000000000000 ) ) ;
#696 = VERTEX_POINT ( 'NONE', #196 ) ;
#697 = EDGE_CURVE ( 'NONE', #449, #241, #108, .T. ) ;
#698 = DIRECTION ( 'NONE',  ( -0.000000000000000000, 0.000000000000000000, 1.000000000000000000 ) ) ;
#699 = EDGE_CURVE ( 'NONE', #186, #553, #1006, .T. ) ;
#700 = DIRECTION ( 'NONE',  ( 0.000000000000000000, 0.000000000000000000, -1.000000000000000000 ) ) ;
#701 = DIRECTION ( 'NONE',  ( 1.000000000000000000, 0.000000000000000000, -0.000000000000000000 ) ) ;
#702 = ORIENTED_EDGE ( 'NONE', *, *, #612, .T. ) ;
#703 = DIRECTION ( 'NONE',  ( 0.000000000000000000, 0.000000000000000000, -1.000000000000000000 ) ) ;
#704 = AXIS2_PLACEMENT_3D ( 'NONE', #159, #620, #700 ) ;
#705 = CARTESIAN_POINT ( 'NONE',  ( 0.000000000000000000, -0.000000000000000000, 3.499999999999999556 ) ) ;
#706 = DIRECTION ( 'NONE',  ( -1.000000000000000000, -0.000000000000000000, -0.000000000000000000 ) ) ;
#707 = ORIENTED_EDGE ( 'NONE', *, *, #477, .F. ) ;
#708 = LINE ( 'NONE', #333, #474 ) ;
#709 = CARTESIAN_POINT ( 'NONE',  ( -3.350000000000000533, 22.00000000000000000, 0.9999999999999997780 ) ) ;
#710 = EDGE_CURVE ( 'NONE', #285, #570, #919, .T. ) ;
#711 = CARTESIAN_POINT ( 'NONE',  ( -24.99999999999998934, 0.000000000000000000, 11.00000000000000000 ) ) ;
#712 = DIRECTION ( 'NONE',  ( 0.000000000000000000, 0.000000000000000000, 1.000000000000000000 ) ) ;
#713 = ORIENTED_EDGE ( 'NONE', *, *, #110, .F. ) ;
#714 = ORIENTED_EDGE ( 'NONE', *, *, #920, .F. ) ;
#715 = ADVANCED_FACE ( 'NONE', ( #543 ), #752, .F. ) ;
#716 = DIRECTION ( 'NONE',  ( 0.000000000000000000, 0.000000000000000000, -1.000000000000000000 ) ) ;
#717 = FILL_AREA_STYLE ('',( #340 ) ) ;
#718 = DIRECTION ( 'NONE',  ( 1.000000000000000000, 0.000000000000000000, 0.000000000000000000 ) ) ;
#719 = VERTEX_POINT ( 'NONE', #270 ) ;
#720 = ORIENTED_EDGE ( 'NONE', *, *, #747, .T. ) ;
#721 = DIRECTION ( 'NONE',  ( 0.000000000000000000, -0.000000000000000000, -1.000000000000000000 ) ) ;
#722 = CYLINDRICAL_SURFACE ( 'NONE', #869, 1.650000000000000355 ) ;
#723 = AXIS2_PLACEMENT_3D ( 'NONE', #341, #150, #433 ) ;
#724 = DIRECTION ( 'NONE',  ( 0.000000000000000000, 0.000000000000000000, -1.000000000000000000 ) ) ;
#725 = EDGE_LOOP ( 'NONE', ( #298, #450, #636, #5 ) ) ;
#726 = CIRCLE ( 'NONE', #909, 1.049999999999998934 ) ;
#727 = AXIS2_PLACEMENT_3D ( 'NONE', #175, #1081, #473 ) ;
#728 = EDGE_LOOP ( 'NONE', ( #738, #539, #29, #349 ) ) ;
#729 = EDGE_CURVE ( 'NONE', #133, #1034, #1018, .T. ) ;
#730 = DIRECTION ( 'NONE',  ( -1.000000000000000000, 0.000000000000000000, 0.000000000000000000 ) ) ;
#731 = AXIS2_PLACEMENT_3D ( 'NONE', #931, #206, #503 ) ;
#732 = FACE_OUTER_BOUND ( 'NONE', #910, .T. ) ;
#733 = EDGE_LOOP ( 'NONE', ( #714, #1132, #1098, #1065, #935, #22, #562, #940 ) ) ;
#734 = ORIENTED_EDGE ( 'NONE', *, *, #729, .F. ) ;
#735 = DIRECTION ( 'NONE',  ( -1.000000000000000000, 0.000000000000000000, 0.000000000000000000 ) ) ;
#736 = CARTESIAN_POINT ( 'NONE',  ( -21.41000000000000369, 2.000000000000000000, 8.869999999999999218 ) ) ;
#737 = CARTESIAN_POINT ( 'NONE',  ( 21.41000000000000369, 2.000000000000000000, 8.869999999999999218 ) ) ;
#738 = ORIENTED_EDGE ( 'NONE', *, *, #172, .T. ) ;
#739 = ORIENTED_EDGE ( 'NONE', *, *, #764, .F. ) ;
#740 = CARTESIAN_POINT ( 'NONE',  ( -24.99999999999998934, 0.000000000000000000, 11.00000000000000000 ) ) ;
#741 = CARTESIAN_POINT ( 'NONE',  ( 5.000000000000000000, 22.00000000000000000, 0.9999999999999997780 ) ) ;
#742 = DIRECTION ( 'NONE',  ( 0.000000000000000000, 0.000000000000000000, -1.000000000000000000 ) ) ;
#743 = ORIENTED_EDGE ( 'NONE', *, *, #8, .T. ) ;
#744 = CARTESIAN_POINT ( 'NONE',  ( -17.49999999999999645, 0.000000000000000000, -11.00000000000000000 ) ) ;
#745 = LINE ( 'NONE', #1013, #103 ) ;
#746 = CIRCLE ( 'NONE', #1088, 1.650000000000000355 ) ;
#747 = EDGE_CURVE ( 'NONE', #88, #290, #900, .T. ) ;
#748 = ORIENTED_EDGE ( 'NONE', *, *, #1019, .T. ) ;
#749 = EDGE_CURVE ( 'NONE', #1091, #1000, #814, .T. ) ;
#750 = CARTESIAN_POINT ( 'NONE',  ( -12.50000000000000000, 22.00000000000000000, -1.000000000000000222 ) ) ;
#751 = VECTOR ( 'NONE', #142, 1000.000000000000000 ) ;
#752 = CYLINDRICAL_SURFACE ( 'NONE', #1120, 1.650000000000000355 ) ;
#753 = DIRECTION ( 'NONE',  ( 0.000000000000000000, 0.000000000000000000, -1.000000000000000000 ) ) ;
#754 = VERTEX_POINT ( 'NONE', #1 ) ;
#755 = PRODUCT_DEFINITION ( 'ๆ', '', #432, #1031 ) ;
#756 = ORIENTED_EDGE ( 'NONE', *, *, #54, .F. ) ;
#757 = DIRECTION ( 'NONE',  ( 1.000000000000000000, 0.000000000000000000, 0.000000000000000000 ) ) ;
#758 = LINE ( 'NONE', #1042, #1083 ) ;
#759 = ORIENTED_EDGE ( 'NONE', *, *, #978, .F. ) ;
#760 = ORIENTED_EDGE ( 'NONE', *, *, #778, .T. ) ;
#761 = AXIS2_PLACEMENT_3D ( 'NONE', #741, #906, #444 ) ;
#762 = DIRECTION ( 'NONE',  ( -0.000000000000000000, -1.000000000000000000, -0.000000000000000000 ) ) ;
#763 = CIRCLE ( 'NONE', #451, 1.049999999999998934 ) ;
#764 = EDGE_CURVE ( 'NONE', #1172, #826, #356, .T. ) ;
#765 = ADVANCED_FACE ( 'NONE', ( #221 ), #597, .F. ) ;
#766 = DIRECTION ( 'NONE',  ( 1.000000000000000000, 0.000000000000000000, 0.000000000000000000 ) ) ;
#767 = FACE_OUTER_BOUND ( 'NONE', #268, .T. ) ;
#768 = VERTEX_POINT ( 'NONE', #613 ) ;
#769 = DIRECTION ( 'NONE',  ( -1.000000000000000000, -0.000000000000000000, -0.000000000000000000 ) ) ;
#770 = FACE_BOUND ( 'NONE', #388, .T. ) ;
#771 = LINE ( 'NONE', #123, #82 ) ;
#772 = ORIENTED_EDGE ( 'NONE', *, *, #41, .T. ) ;
#773 = CARTESIAN_POINT ( 'NONE',  ( 21.41000000000000369, 2.000000000000000000, 9.919999999999998153 ) ) ;
#774 = CARTESIAN_POINT ( 'NONE',  ( 0.000000000000000000, 22.00000000000000000, 0.000000000000000000 ) ) ;
#775 = EDGE_CURVE ( 'NONE', #367, #1158, #1024, .T. ) ;
#776 = DIRECTION ( 'NONE',  ( 0.000000000000000000, 0.000000000000000000, 1.000000000000000000 ) ) ;
#777 = ORIENTED_EDGE ( 'NONE', *, *, #1040, .F. ) ;
#778 = EDGE_CURVE ( 'NONE', #192, #1010, #1074, .T. ) ;
#779 = AXIS2_PLACEMENT_3D ( 'NONE', #438, #70, #616 ) ;
#780 = CIRCLE ( 'NONE', #256, 1.049999999999998934 ) ;
#781 = CARTESIAN_POINT ( 'NONE',  ( -21.41000000000000369, 0.000000000000000000, 9.919999999999998153 ) ) ;
#782 = DIRECTION ( 'NONE',  ( 0.000000000000000000, -1.000000000000000000, 0.000000000000000000 ) ) ;
#783 = ORIENTED_EDGE ( 'NONE', *, *, #343, .F. ) ;
#784 = VECTOR ( 'NONE', #1036, 1000.000000000000000 ) ;
#785 = EDGE_CURVE ( 'NONE', #719, #414, #507, .T. ) ;
#786 = CARTESIAN_POINT ( 'NONE',  ( -21.41000000000000369, 2.000000000000000000, 7.820000000000000284 ) ) ;
#787 = CARTESIAN_POINT ( 'NONE',  ( 12.50000000000000000, 22.00000000000000000, 0.9999999999999997780 ) ) ;
#788 = EDGE_LOOP ( 'NONE', ( #844, #363, #272, #188, #671, #1029, #321, #1002 ) ) ;
#789 = CARTESIAN_POINT ( 'NONE',  ( 21.40999999999999304, 2.000000000000000000, -8.870000000000008100 ) ) ;
#790 = FACE_OUTER_BOUND ( 'NONE', #161, .T. ) ;
#791 = DIRECTION ( 'NONE',  ( -0.000000000000000000, -1.000000000000000000, -0.000000000000000000 ) ) ;
#792 = ORIENTED_EDGE ( 'NONE', *, *, #104, .T. ) ;
#793 = ORIENTED_EDGE ( 'NONE', *, *, #663, .T. ) ;
#794 = CARTESIAN_POINT ( 'NONE',  ( 17.50000000000000711, -27.99999999999999645, -18.50000000000000000 ) ) ;
#795 = EDGE_CURVE ( 'NONE', #1091, #366, #708, .T. ) ;
#796 = SURFACE_SIDE_STYLE ('',( #347 ) ) ;
#797 = FACE_OUTER_BOUND ( 'NONE', #1122, .T. ) ;
#798 = ORIENTED_EDGE ( 'NONE', *, *, #795, .F. ) ;
#799 = ORIENTED_EDGE ( 'NONE', *, *, #1118, .T. ) ;
#800 = VECTOR ( 'NONE', #45, 1000.000000000000000 ) ;
#801 = DIRECTION ( 'NONE',  ( -1.000000000000000000, 0.000000000000000000, -0.000000000000000000 ) ) ;
#802 = CARTESIAN_POINT ( 'NONE',  ( 17.50000000000000355, 2.000000000000000000, -11.00000000000000000 ) ) ;
#803 = EDGE_CURVE ( 'NONE', #1158, #367, #780, .T. ) ;
#804 = CARTESIAN_POINT ( 'NONE',  ( 17.50000000000000355, 0.000000000000000000, -11.00000000000000000 ) ) ;
#805 = EDGE_LOOP ( 'NONE', ( #792, #982, #181, #1114 ) ) ;
#806 = APPLICATION_CONTEXT ( 'automotive_design' ) ;
#807 = FACE_BOUND ( 'NONE', #247, .T. ) ;
#808 = DIRECTION ( 'NONE',  ( 0.000000000000000000, -1.000000000000000000, 0.000000000000000000 ) ) ;
#809 = CARTESIAN_POINT ( 'NONE',  ( -21.41000000000000369, 2.000000000000000000, 8.869999999999999218 ) ) ;
#810 = ORIENTED_EDGE ( 'NONE', *, *, #699, .F. ) ;
#811 = EDGE_CURVE ( 'NONE', #1109, #449, #430, .T. ) ;
#812 = CARTESIAN_POINT ( 'NONE',  ( 5.000000000000000000, 12.00000000000000000, 0.9999999999999997780 ) ) ;
#813 = PLANE ( 'NONE',  #182 ) ;
#814 = CIRCLE ( 'NONE', #761, 1.649999999999999467 ) ;
#815 = FACE_OUTER_BOUND ( 'NONE', #115, .T. ) ;
#816 = ORIENTED_EDGE ( 'NONE', *, *, #110, .T. ) ;
#817 = VECTOR ( 'NONE', #1169, 1000.000000000000000 ) ;
#818 = VECTOR ( 'NONE', #619, 1000.000000000000000 ) ;
#819 = EDGE_CURVE ( 'NONE', #332, #61, #601, .T. ) ;
#820 = AXIS2_PLACEMENT_3D ( 'NONE', #828, #742, #932 ) ;
#821 = LINE ( 'NONE', #355, #535 ) ;
#822 = ADVANCED_FACE ( 'NONE', ( #887, #807, #227 ), #1149, .F. ) ;
#823 = DIRECTION ( 'NONE',  ( 0.000000000000000000, 0.000000000000000000, 1.000000000000000000 ) ) ;
#824 = ORIENTED_EDGE ( 'NONE', *, *, #1167, .T. ) ;
#825 = EDGE_LOOP ( 'NONE', ( #72, #629, #557, #579 ) ) ;
#826 = VERTEX_POINT ( 'NONE', #157 ) ;
#827 = FACE_BOUND ( 'NONE', #90, .T. ) ;
#828 = CARTESIAN_POINT ( 'NONE',  ( -24.99999999999998934, 2.000000000000000000, 11.00000000000000000 ) ) ;
#829 = VERTEX_POINT ( 'NONE', #57 ) ;
#830 = FACE_BOUND ( 'NONE', #605, .T. ) ;
#831 = EDGE_CURVE ( 'NONE', #916, #495, #1159, .T. ) ;
#832 = DIRECTION ( 'NONE',  ( 0.000000000000000000, 0.000000000000000000, -1.000000000000000000 ) ) ;
#833 = ORIENTED_EDGE ( 'NONE', *, *, #8, .F. ) ;
#834 = CARTESIAN_POINT ( 'NONE',  ( 21.41000000000000369, 0.000000000000000000, 9.919999999999998153 ) ) ;
#835 = DIRECTION ( 'NONE',  ( 0.000000000000000000, 0.000000000000000000, -1.000000000000000000 ) ) ;
#836 = CARTESIAN_POINT ( 'NONE',  ( -24.99999999999998934, 2.000000000000000000, -11.00000000000000000 ) ) ;
#837 = VECTOR ( 'NONE', #497, 1000.000000000000000 ) ;
#838 = LINE ( 'NONE', #27, #1009 ) ;
#839 = EDGE_LOOP ( 'NONE', ( #689, #798, #144, #344 ) ) ;
#840 = LINE ( 'NONE', #286, #968 ) ;
#841 = AXIS2_PLACEMENT_3D ( 'NONE', #599, #960, #407 ) ;
#842 = DIRECTION ( 'NONE',  ( 0.000000000000000000, 0.000000000000000000, -1.000000000000000000 ) ) ;
#843 = ORIENTED_EDGE ( 'NONE', *, *, #1130, .T. ) ;
#844 = ORIENTED_EDGE ( 'NONE', *, *, #881, .F. ) ;
#845 = EDGE_CURVE ( 'NONE', #977, #991, #248, .T. ) ;
#846 = CARTESIAN_POINT ( 'NONE',  ( 5.000000000000000000, 22.00000000000000000, -28.99999999999999645 ) ) ;
#847 = CARTESIAN_POINT ( 'NONE',  ( 5.000000000000000000, 12.00000000000000000, -1.000000000000000888 ) ) ;
#848 = DIRECTION ( 'NONE',  ( 0.000000000000000000, 0.000000000000000000, -1.000000000000000000 ) ) ;
#849 = ORIENTED_EDGE ( 'NONE', *, *, #578, .F. ) ;
#850 = CIRCLE ( 'NONE', #607, 1.049999999999998934 ) ;
#851 = LINE ( 'NONE', #1117, #1043 ) ;
#852 = DIRECTION ( 'NONE',  ( 1.000000000000000000, 0.000000000000000000, 0.000000000000000000 ) ) ;
#853 = AXIS2_PLACEMENT_3D ( 'NONE', #301, #400, #127 ) ;
#854 = PLANE ( 'NONE',  #436 ) ;
#855 = ORIENTED_EDGE ( 'NONE', *, *, #357, .F. ) ;
#856 = CARTESIAN_POINT ( 'NONE',  ( 12.50000000000000000, 22.00000000000000000, 0.9999999999999997780 ) ) ;
#857 = CYLINDRICAL_SURFACE ( 'NONE', #1123, 1.049999999999998934 ) ;
#858 = AXIS2_PLACEMENT_3D ( 'NONE', #544, #791, #989 ) ;
#859 = FACE_OUTER_BOUND ( 'NONE', #484, .T. ) ;
#860 = ORIENTED_EDGE ( 'NONE', *, *, #710, .F. ) ;
#861 = CARTESIAN_POINT ( 'NONE',  ( -24.99999999999998934, 0.000000000000000000, -11.00000000000000000 ) ) ;
#862 = EDGE_CURVE ( 'NONE', #651, #915, #322, .T. ) ;
#863 = CARTESIAN_POINT ( 'NONE',  ( -24.99999999999998934, 0.000000000000000000, -11.00000000000000000 ) ) ;
#864 = ORIENTED_EDGE ( 'NONE', *, *, #257, .F. ) ;
#865 = ADVANCED_FACE ( 'NONE', ( #979, #1052, #152 ), #521, .F. ) ;
#866 = CIRCLE ( 'NONE', #350, 1.049999999999998934 ) ;
#867 = AXIS2_PLACEMENT_3D ( 'NONE', #418, #313, #1044 ) ;
#868 = DIRECTION ( 'NONE',  ( 0.000000000000000000, 1.000000000000000000, -0.000000000000000000 ) ) ;
#869 = AXIS2_PLACEMENT_3D ( 'NONE', #431, #170, #1061 ) ;
#870 = CIRCLE ( 'NONE', #3, 1.049999999999998934 ) ;
#871 = CARTESIAN_POINT ( 'NONE',  ( 25.00000000000001066, 2.000000000000000000, 11.00000000000000000 ) ) ;
#872 = DIRECTION ( 'NONE',  ( 0.000000000000000000, 0.000000000000000000, -1.000000000000000000 ) ) ;
#873 = VERTEX_POINT ( 'NONE', #527 ) ;
#874 = AXIS2_PLACEMENT_3D ( 'NONE', #1011, #461, #195 ) ;
#875 = DIRECTION ( 'NONE',  ( -0.000000000000000000, -0.000000000000000000, 1.000000000000000000 ) ) ;
#876 = LINE ( 'NONE', #871, #817 ) ;
#877 = CARTESIAN_POINT ( 'NONE',  ( 3.349999999999999201, 12.00000000000000000, -1.000000000000000888 ) ) ;
#878 = CARTESIAN_POINT ( 'NONE',  ( -12.50000000000000000, 2.000000000000000000, 0.9999999999999997780 ) ) ;
#879 = ORIENTED_EDGE ( 'NONE', *, *, #156, .T. ) ;
#880 = ORIENTED_EDGE ( 'NONE', *, *, #568, .F. ) ;
#881 = EDGE_CURVE ( 'NONE', #366, #1115, #73, .T. ) ;
#882 = DIRECTION ( 'NONE',  ( 1.000000000000000000, 0.000000000000000000, -0.000000000000000000 ) ) ;
#883 = VECTOR ( 'NONE', #276, 1000.000000000000000 ) ;
#884 = DIRECTION ( 'NONE',  ( -0.000000000000000000, 1.000000000000000000, -0.000000000000000000 ) ) ;
#885 = ORIENTED_EDGE ( 'NONE', *, *, #747, .F. ) ;
#886 = ORIENTED_EDGE ( 'NONE', *, *, #692, .T. ) ;
#887 = FACE_BOUND ( 'NONE', #267, .T. ) ;
#888 = CARTESIAN_POINT ( 'NONE',  ( -24.99999999999998934, 2.000000000000000000, 11.00000000000000000 ) ) ;
#889 = ORIENTED_EDGE ( 'NONE', *, *, #862, .F. ) ;
#890 = ORIENTED_EDGE ( 'NONE', *, *, #180, .F. ) ;
#891 = VECTOR ( 'NONE', #452, 1000.000000000000000 ) ;
#892 = DIRECTION ( 'NONE',  ( 0.000000000000000000, 1.000000000000000000, -0.000000000000000000 ) ) ;
#893 = ADVANCED_FACE ( 'NONE', ( #626 ), #68, .F. ) ;
#894 = CARTESIAN_POINT ( 'NONE',  ( 17.50000000000000711, -27.99999999999999645, -3.499999999999999556 ) ) ;
#895 = ORIENTED_EDGE ( 'NONE', *, *, #831, .F. ) ;
#896 = ADVANCED_FACE ( 'NONE', ( #421 ), #425, .F. ) ;
#897 = ORIENTED_EDGE ( 'NONE', *, *, #1017, .F. ) ;
#898 = AXIS2_PLACEMENT_3D ( 'NONE', #888, #348, #724 ) ;
#899 = CARTESIAN_POINT ( 'NONE',  ( -6.649999999999999467, 22.00000000000000000, 0.9999999999999997780 ) ) ;
#900 = LINE ( 'NONE', #184, #1003 ) ;
#901 = DIRECTION ( 'NONE',  ( -0.000000000000000000, -0.000000000000000000, 1.000000000000000000 ) ) ;
#902 = ORIENTED_EDGE ( 'NONE', *, *, #62, .F. ) ;
#903 = ORIENTED_EDGE ( 'NONE', *, *, #697, .T. ) ;
#904 = EDGE_CURVE ( 'NONE', #377, #1056, #56, .T. ) ;
#905 = DIRECTION ( 'NONE',  ( 0.000000000000000000, 0.000000000000000000, -1.000000000000000000 ) ) ;
#906 = DIRECTION ( 'NONE',  ( 0.000000000000000000, 0.000000000000000000, 1.000000000000000000 ) ) ;
#907 = DIRECTION ( 'NONE',  ( -0.000000000000000000, 0.000000000000000000, 1.000000000000000000 ) ) ;
#908 = VERTEX_POINT ( 'NONE', #985 ) ;
#909 = AXIS2_PLACEMENT_3D ( 'NONE', #37, #393, #681 ) ;
#910 = EDGE_LOOP ( 'NONE', ( #236, #678, #665, #1079 ) ) ;
#911 = VECTOR ( 'NONE', #852, 1000.000000000000000 ) ;
#912 = FACE_BOUND ( 'NONE', #168, .T. ) ;
#913 = CARTESIAN_POINT ( 'NONE',  ( -17.49999999999999645, -27.99999999999999645, 18.50000000000000000 ) ) ;
#914 = DIRECTION ( 'NONE',  ( -1.000000000000000000, -0.000000000000000000, -0.000000000000000000 ) ) ;
#915 = VERTEX_POINT ( 'NONE', #547 ) ;
#916 = VERTEX_POINT ( 'NONE', #1099 ) ;
#917 = EDGE_CURVE ( 'NONE', #495, #501, #870, .T. ) ;
#918 = CARTESIAN_POINT ( 'NONE',  ( -21.41000000000000369, 0.000000000000000000, -7.820000000000000284 ) ) ;
#919 = LINE ( 'NONE', #548, #552 ) ;
#920 = EDGE_CURVE ( 'NONE', #1000, #1107, #92, .T. ) ;
#921 = LINE ( 'NONE', #954, #1066 ) ;
#922 = ORIENTED_EDGE ( 'NONE', *, *, #692, .F. ) ;
#923 = ORIENTED_EDGE ( 'NONE', *, *, #536, .F. ) ;
#924 = CARTESIAN_POINT ( 'NONE',  ( 12.50000000000000000, 22.00000000000000000, 0.9999999999999997780 ) ) ;
#925 = DIRECTION ( 'NONE',  ( -0.000000000000000000, 1.000000000000000000, -0.000000000000000000 ) ) ;
#926 = CIRCLE ( 'NONE', #1062, 1.649999999999999467 ) ;
#927 = CARTESIAN_POINT ( 'NONE',  ( -24.99999999999998934, 2.000000000000000000, -11.00000000000000000 ) ) ;
#928 = VERTEX_POINT ( 'NONE', #643 ) ;
#929 = EDGE_LOOP ( 'NONE', ( #843, #459, #972, #289 ) ) ;
#930 = AXIS2_PLACEMENT_3D ( 'NONE', #1168, #892, #339 ) ;
#931 = CARTESIAN_POINT ( 'NONE',  ( 0.000000000000000000, 22.00000000000000000, 0.000000000000000000 ) ) ;
#932 = DIRECTION ( 'NONE',  ( -1.000000000000000000, 0.000000000000000000, -0.000000000000000000 ) ) ;
#933 = EDGE_CURVE ( 'NONE', #362, #570, #169, .T. ) ;
#934 = AXIS2_PLACEMENT_3D ( 'NONE', #941, #291, #35 ) ;
#935 = ORIENTED_EDGE ( 'NONE', *, *, #172, .F. ) ;
#936 = ORIENTED_EDGE ( 'NONE', *, *, #986, .T. ) ;
#937 = LINE ( 'NONE', #856, #800 ) ;
#938 = DIRECTION ( 'NONE',  ( -0.000000000000000000, -1.000000000000000000, -0.000000000000000000 ) ) ;
#939 = CARTESIAN_POINT ( 'NONE',  ( -3.349999999999999645, 12.00000000000000000, -1.000000000000000888 ) ) ;
#940 = ORIENTED_EDGE ( 'NONE', *, *, #1094, .F. ) ;
#941 = CARTESIAN_POINT ( 'NONE',  ( -12.50000000000000000, 22.00000000000000000, 0.9999999999999997780 ) ) ;
#942 = FACE_BOUND ( 'NONE', #1121, .T. ) ;
#943 = FACE_OUTER_BOUND ( 'NONE', #728, .T. ) ;
#944 = ORIENTED_EDGE ( 'NONE', *, *, #625, .F. ) ;
#945 = LINE ( 'NONE', #130, #417 ) ;
#946 = CARTESIAN_POINT ( 'NONE',  ( -17.49999999999999645, 0.000000000000000000, 3.499999999999999556 ) ) ;
#947 = VECTOR ( 'NONE', #165, 1000.000000000000000 ) ;
#948 = DIRECTION ( 'NONE',  ( -0.000000000000000000, -0.000000000000000000, 1.000000000000000000 ) ) ;
#949 = ORIENTED_EDGE ( 'NONE', *, *, #933, .F. ) ;
#950 = DIRECTION ( 'NONE',  ( 1.000000000000000000, 0.000000000000000000, 0.000000000000000000 ) ) ;
#951 = EDGE_CURVE ( 'NONE', #366, #211, #984, .T. ) ;
#952 = VECTOR ( 'NONE', #948, 1000.000000000000000 ) ;
#953 = ADVANCED_FACE ( 'NONE', ( #997 ), #443, .F. ) ;
#954 = CARTESIAN_POINT ( 'NONE',  ( -24.99999999999998934, 2.000000000000000000, 11.00000000000000000 ) ) ;
#955 = DIRECTION ( 'NONE',  ( 0.000000000000000000, 1.000000000000000000, 0.000000000000000000 ) ) ;
#956 = ORIENTED_EDGE ( 'NONE', *, *, #156, .F. ) ;
#957 = CARTESIAN_POINT ( 'NONE',  ( -12.50000000000000000, 22.00000000000000000, 0.9999999999999997780 ) ) ;
#958 = EDGE_CURVE ( 'NONE', #1172, #424, #101, .T. ) ;
#959 = LINE ( 'NONE', #492, #911 ) ;
#960 = DIRECTION ( 'NONE',  ( 0.000000000000000000, 0.000000000000000000, 1.000000000000000000 ) ) ;
#961 = ORIENTED_EDGE ( 'NONE', *, *, #819, .F. ) ;
#962 = PRODUCT_DEFINITION_SHAPE ( 'NONE', 'NONE',  #755 ) ;
#963 = CIRCLE ( 'NONE', #648, 1.650000000000000355 ) ;
#964 = AXIS2_PLACEMENT_3D ( 'NONE', #242, #1059, #163 ) ;
#965 = ADVANCED_FACE ( 'NONE', ( #1005 ), #1173, .F. ) ;
#966 = CYLINDRICAL_SURFACE ( 'NONE', #191, 1.650000000000000355 ) ;
#967 = EDGE_LOOP ( 'NONE', ( #274, #824, #124, #585 ) ) ;
#968 = VECTOR ( 'NONE', #486, 1000.000000000000000 ) ;
#969 = CARTESIAN_POINT ( 'NONE',  ( -6.649999999999999467, 22.00000000000000000, -28.99999999999999645 ) ) ;
#970 = CARTESIAN_POINT ( 'NONE',  ( 17.50000000000000711, 0.000000000000000000, 3.499999999999999556 ) ) ;
#971 = CARTESIAN_POINT ( 'NONE',  ( -12.50000000000000000, 22.00000000000000000, 0.9999999999999997780 ) ) ;
#972 = ORIENTED_EDGE ( 'NONE', *, *, #881, .T. ) ;
#973 = DIRECTION ( 'NONE',  ( -0.000000000000000000, -0.000000000000000000, 1.000000000000000000 ) ) ;
#974 = CARTESIAN_POINT ( 'NONE',  ( -17.49999999999999645, -27.99999999999999645, -3.499999999999999556 ) ) ;
#975 = CYLINDRICAL_SURFACE ( 'NONE', #723, 1.049999999999998934 ) ;
#976 = APPLICATION_PROTOCOL_DEFINITION ( 'draft international standard', 'automotive_design', 1998, #463 ) ;
#977 = VERTEX_POINT ( 'NONE', #899 ) ;
#978 = EDGE_CURVE ( 'NONE', #915, #696, #638, .T. ) ;
#979 = FACE_BOUND ( 'NONE', #273, .T. ) ;
#980 = AXIS2_PLACEMENT_3D ( 'NONE', #516, #875, #63 ) ;
#981 = CARTESIAN_POINT ( 'NONE',  ( -12.50000000000000000, 22.00000000000000000, 0.9999999999999997780 ) ) ;
#982 = ORIENTED_EDGE ( 'NONE', *, *, #498, .T. ) ;
#983 = VERTEX_POINT ( 'NONE', #834 ) ;
#984 = CIRCLE ( 'NONE', #874, 1.649999999999999467 ) ;
#985 = CARTESIAN_POINT ( 'NONE',  ( 25.00000000000001066, 0.000000000000000000, -11.00000000000000000 ) ) ;
#986 = EDGE_CURVE ( 'NONE', #1096, #1034, #821, .T. ) ;
#987 = DIRECTION ( 'NONE',  ( -0.000000000000000000, -1.000000000000000000, -0.000000000000000000 ) ) ;
#988 = EDGE_CURVE ( 'NONE', #34, #768, #746, .T. ) ;
#989 = DIRECTION ( 'NONE',  ( 0.000000000000000000, 0.000000000000000000, -1.000000000000000000 ) ) ;
#990 = DIRECTION ( 'NONE',  ( 1.000000000000000000, 0.000000000000000000, 0.000000000000000000 ) ) ;
#991 = VERTEX_POINT ( 'NONE', #364 ) ;
#992 = VERTEX_POINT ( 'NONE', #918 ) ;
#993 = CARTESIAN_POINT ( 'NONE',  ( 21.41000000000000369, 2.000000000000000000, 9.919999999999998153 ) ) ;
#994 = CARTESIAN_POINT ( 'NONE',  ( 12.50000000000000000, 2.000000000000000000, 0.9999999999999997780 ) ) ;
#995 = ORIENTED_EDGE ( 'NONE', *, *, #113, .T. ) ;
#996 = ORIENTED_EDGE ( 'NONE', *, *, #1073, .T. ) ;
#997 = FACE_OUTER_BOUND ( 'NONE', #1165, .T. ) ;
#998 = DIRECTION ( 'NONE',  ( -1.000000000000000000, -0.000000000000000000, -0.000000000000000000 ) ) ;
#999 = CARTESIAN_POINT ( 'NONE',  ( -12.50000000000000000, 22.00000000000000000, 0.9999999999999997780 ) ) ;
#1000 = VERTEX_POINT ( 'NONE', #1093 ) ;
#1001 = ADVANCED_FACE ( 'NONE', ( #269, #830, #19, #912, #1089, #827 ), #375, .F. ) ;
#1002 = ORIENTED_EDGE ( 'NONE', *, *, #125, .T. ) ;
#1003 = VECTOR ( 'NONE', #370, 1000.000000000000000 ) ;
#1004 = ORIENTED_EDGE ( 'NONE', *, *, #1019, .F. ) ;
#1005 = FACE_OUTER_BOUND ( 'NONE', #97, .T. ) ;
#1006 = LINE ( 'NONE', #380, #234 ) ;
#1007 = PLANE ( 'NONE',  #398 ) ;
#1008 = ORIENTED_EDGE ( 'NONE', *, *, #533, .T. ) ;
#1009 = VECTOR ( 'NONE', #218, 1000.000000000000000 ) ;
#1010 = VERTEX_POINT ( 'NONE', #744 ) ;
#1011 = CARTESIAN_POINT ( 'NONE',  ( 5.000000000000000000, 22.00000000000000000, -1.000000000000000888 ) ) ;
#1012 = DIRECTION ( 'NONE',  ( 1.000000000000000000, 0.000000000000000000, 0.000000000000000000 ) ) ;
#1013 = CARTESIAN_POINT ( 'NONE',  ( 3.349999999999999645, 12.00000000000000000, -28.99999999999999645 ) ) ;
#1014 = EDGE_LOOP ( 'NONE', ( #224, #702, #734, #748 ) ) ;
#1015 = VERTEX_POINT ( 'NONE', #1103 ) ;
#1016 = CARTESIAN_POINT ( 'NONE',  ( 17.50000000000000355, 2.000000000000000000, -11.00000000000000000 ) ) ;
#1017 = EDGE_CURVE ( 'NONE', #1056, #983, #280, .T. ) ;
#1018 = LINE ( 'NONE', #93, #448 ) ;
#1019 = EDGE_CURVE ( 'NONE', #133, #908, #107, .T. ) ;
#1020 = CARTESIAN_POINT ( 'NONE',  ( 21.40999999999999304, 2.000000000000000000, -9.920000000000007034 ) ) ;
#1021 = EDGE_LOOP ( 'NONE', ( #756, #361, #720, #799 ) ) ;
#1022 = ORIENTED_EDGE ( 'NONE', *, *, #292, .T. ) ;
#1023 = VECTOR ( 'NONE', #1054, 1000.000000000000000 ) ;
#1024 = CIRCLE ( 'NONE', #930, 1.049999999999998934 ) ;
#1025 = CARTESIAN_POINT ( 'NONE',  ( -21.41000000000000369, 2.000000000000000000, 8.869999999999999218 ) ) ;
#1026 = CARTESIAN_POINT ( 'NONE',  ( 21.41000000000000369, 0.000000000000000000, 8.869999999999999218 ) ) ;
#1027 = EDGE_CURVE ( 'NONE', #414, #133, #851, .T. ) ;
#1028 = DIRECTION ( 'NONE',  ( 0.000000000000000000, 0.000000000000000000, 1.000000000000000000 ) ) ;
#1029 = ORIENTED_EDGE ( 'NONE', *, *, #1162, .F. ) ;
#1030 = CARTESIAN_POINT ( 'NONE',  ( -17.49999999999999645, 0.000000000000000000, 11.00000000000000000 ) ) ;
#1031 = PRODUCT_DEFINITION_CONTEXT ( 'detailed design', #806, 'design' ) ;
#1032 = DIRECTION ( 'NONE',  ( 0.000000000000000000, 0.000000000000000000, 1.000000000000000000 ) ) ;
#1033 = DIRECTION ( 'NONE',  ( -1.000000000000000000, -0.000000000000000000, -0.000000000000000000 ) ) ;
#1034 = VERTEX_POINT ( 'NONE', #1016 ) ;
#1035 = VECTOR ( 'NONE', #470, 1000.000000000000000 ) ;
#1036 = DIRECTION ( 'NONE',  ( -0.000000000000000000, -1.000000000000000000, -0.000000000000000000 ) ) ;
#1037 = CARTESIAN_POINT ( 'NONE',  ( 17.50000000000000711, 0.000000000000000000, -3.499999999999999556 ) ) ;
#1038 = CARTESIAN_POINT ( 'NONE',  ( 6.650000000000001243, 12.00000000000000000, 0.9999999999999997780 ) ) ;
#1039 = ORIENTED_EDGE ( 'NONE', *, *, #201, .T. ) ;
#1040 = EDGE_CURVE ( 'NONE', #719, #645, #840, .T. ) ;
#1041 = DIRECTION ( 'NONE',  ( -0.000000000000000000, -0.000000000000000000, 1.000000000000000000 ) ) ;
#1042 = CARTESIAN_POINT ( 'NONE',  ( -21.41000000000000369, 2.000000000000000000, -7.820000000000000284 ) ) ;
#1043 = VECTOR ( 'NONE', #116, 1000.000000000000000 ) ;
#1044 = DIRECTION ( 'NONE',  ( 1.000000000000000000, 0.000000000000000000, 0.000000000000000000 ) ) ;
#1045 = EDGE_LOOP ( 'NONE', ( #589, #18, #139, #956 ) ) ;
#1046 = DIRECTION ( 'NONE',  ( 0.000000000000000000, 0.000000000000000000, -1.000000000000000000 ) ) ;
#1047 = VECTOR ( 'NONE', #52, 1000.000000000000000 ) ;
#1048 = CARTESIAN_POINT ( 'NONE',  ( 21.40999999999999304, 2.000000000000000000, -9.920000000000007034 ) ) ;
#1049 = VECTOR ( 'NONE', #244, 1000.000000000000000 ) ;
#1050 = DIRECTION ( 'NONE',  ( -1.000000000000000000, 0.000000000000000000, -0.000000000000000000 ) ) ;
#1051 = ORIENTED_EDGE ( 'NONE', *, *, #228, .T. ) ;
#1052 = FACE_BOUND ( 'NONE', #1148, .T. ) ;
#1053 = EDGE_CURVE ( 'NONE', #1158, #162, #945, .T. ) ;
#1054 = DIRECTION ( 'NONE',  ( -0.000000000000000000, 1.000000000000000000, 0.000000000000000000 ) ) ;
#1055 = LINE ( 'NONE', #711, #1070 ) ;
#1056 = VERTEX_POINT ( 'NONE', #773 ) ;
#1057 = PRODUCT ( 'HC_loa', 'HC_loa', '', ( #1064 ) ) ;
#1058 = VECTOR ( 'NONE', #1105, 1000.000000000000000 ) ;
#1059 = DIRECTION ( 'NONE',  ( -1.000000000000000000, 0.000000000000000000, 0.000000000000000000 ) ) ;
#1060 = VECTOR ( 'NONE', #208, 1000.000000000000000 ) ;
#1061 = DIRECTION ( 'NONE',  ( 1.000000000000000000, 0.000000000000000000, 0.000000000000000000 ) ) ;
#1062 = AXIS2_PLACEMENT_3D ( 'NONE', #50, #294, #504 ) ;
#1063 = CARTESIAN_POINT ( 'NONE',  ( -24.99999999999998934, 2.000000000000000000, -11.00000000000000000 ) ) ;
#1064 = PRODUCT_CONTEXT ( 'NONE', #463, 'mechanical' ) ;
#1065 = ORIENTED_EDGE ( 'NONE', *, *, #420, .F. ) ;
#1066 = VECTOR ( 'NONE', #213, 1000.000000000000000 ) ;
#1067 = ORIENTED_EDGE ( 'NONE', *, *, #228, .F. ) ;
#1068 = CARTESIAN_POINT ( 'NONE',  ( -24.99999999999998934, 2.000000000000000000, 11.00000000000000000 ) ) ;
#1069 = DIRECTION ( 'NONE',  ( -0.000000000000000000, 1.000000000000000000, -0.000000000000000000 ) ) ;
#1070 = VECTOR ( 'NONE', #901, 1000.000000000000000 ) ;
#1071 = CARTESIAN_POINT ( 'NONE',  ( -3.350000000000000533, 22.00000000000000000, -28.99999999999999645 ) ) ;
#1072 = VERTEX_POINT ( 'NONE', #1134 ) ;
#1073 = EDGE_CURVE ( 'NONE', #719, #915, #121, .T. ) ;
#1074 = LINE ( 'NONE', #346, #818 ) ;
#1075 = AXIS2_PLACEMENT_3D ( 'NONE', #1164, #99, #753 ) ;
#1076 = DIRECTION ( 'NONE',  ( 1.000000000000000000, 0.000000000000000000, 0.000000000000000000 ) ) ;
#1077 = LINE ( 'NONE', #981, #143 ) ;
#1078 = ORIENTED_EDGE ( 'NONE', *, *, #316, .F. ) ;
#1079 = ORIENTED_EDGE ( 'NONE', *, *, #201, .F. ) ;
#1080 = EDGE_CURVE ( 'NONE', #829, #34, #490, .T. ) ;
#1081 = DIRECTION ( 'NONE',  ( 0.000000000000000000, 1.000000000000000000, 0.000000000000000000 ) ) ;
#1082 = EDGE_CURVE ( 'NONE', #908, #186, #216, .T. ) ;
#1083 = VECTOR ( 'NONE', #938, 1000.000000000000000 ) ;
#1084 = AXIS2_PLACEMENT_3D ( 'NONE', #232, #437, #882 ) ;
#1085 = CARTESIAN_POINT ( 'NONE',  ( 6.649999999999999467, 22.00000000000000000, -1.000000000000000888 ) ) ;
#1086 = ORIENTED_EDGE ( 'NONE', *, *, #1053, .T. ) ;
#1087 = EDGE_LOOP ( 'NONE', ( #397, #525, #995, #374 ) ) ;
#1088 = AXIS2_PLACEMENT_3D ( 'NONE', #812, #559, #730 ) ;
#1089 = FACE_OUTER_BOUND ( 'NONE', #659, .T. ) ;
#1090 = CARTESIAN_POINT ( 'NONE',  ( -17.49999999999999645, -27.99999999999999645, -3.499999999999999556 ) ) ;
#1091 = VERTEX_POINT ( 'NONE', #674 ) ;
#1092 = ORIENTED_EDGE ( 'NONE', *, *, #1040, .T. ) ;
#1093 = CARTESIAN_POINT ( 'NONE',  ( 6.649999999999999467, 22.00000000000000000, 0.9999999999999997780 ) ) ;
#1094 = EDGE_CURVE ( 'NONE', #1107, #285, #937, .T. ) ;
#1095 = PLANE ( 'NONE',  #820 ) ;
#1096 = VERTEX_POINT ( 'NONE', #399 ) ;
#1097 = ORIENTED_EDGE ( 'NONE', *, *, #978, .T. ) ;
#1098 = ORIENTED_EDGE ( 'NONE', *, *, #1130, .F. ) ;
#1099 = CARTESIAN_POINT ( 'NONE',  ( -21.41000000000000369, 2.000000000000000000, 7.820000000000000284 ) ) ;
#1100 = DIRECTION ( 'NONE',  ( 0.000000000000000000, 0.000000000000000000, 1.000000000000000000 ) ) ;
#1101 = CARTESIAN_POINT ( 'NONE',  ( -17.49999999999999645, 2.000000000000000000, -3.499999999999999556 ) ) ;
#1102 = ORIENTED_EDGE ( 'NONE', *, *, #145, .F. ) ;
#1103 = CARTESIAN_POINT ( 'NONE',  ( 21.40999999999999304, 0.000000000000000000, -9.920000000000007034 ) ) ;
#1104 =( GEOMETRIC_REPRESENTATION_CONTEXT ( 3 ) GLOBAL_UNCERTAINTY_ASSIGNED_CONTEXT ( ( #300 ) ) GLOBAL_UNIT_ASSIGNED_CONTEXT ( ( #446, #439, #434 ) ) REPRESENTATION_CONTEXT ( 'NONE', 'WORKASPACE' ) );
#1105 = DIRECTION ( 'NONE',  ( -0.000000000000000000, -1.000000000000000000, -0.000000000000000000 ) ) ;
#1106 = CARTESIAN_POINT ( 'NONE',  ( -24.99999999999998934, 0.000000000000000000, 11.00000000000000000 ) ) ;
#1107 = VERTEX_POINT ( 'NONE', #481 ) ;
#1108 = VECTOR ( 'NONE', #302, 1000.000000000000000 ) ;
#1109 = VERTEX_POINT ( 'NONE', #1030 ) ;
#1110 = ADVANCED_FACE ( 'NONE', ( #591 ), #220, .F. ) ;
#1111 = CARTESIAN_POINT ( 'NONE',  ( 21.40999999999999304, 2.000000000000000000, -7.820000000000009166 ) ) ;
#1112 = CARTESIAN_POINT ( 'NONE',  ( -5.000000000000000000, 12.00000000000000000, -1.000000000000000888 ) ) ;
#1113 = CARTESIAN_POINT ( 'NONE',  ( -12.50000000000000000, 2.000000000000000000, -1.000000000000000222 ) ) ;
#1114 = ORIENTED_EDGE ( 'NONE', *, *, #145, .T. ) ;
#1115 = VERTEX_POINT ( 'NONE', #304 ) ;
#1116 = ADVANCED_FACE ( 'NONE', ( #40 ), #685, .F. ) ;
#1117 = CARTESIAN_POINT ( 'NONE',  ( 25.00000000000001066, 2.000000000000000000, 11.00000000000000000 ) ) ;
#1118 = EDGE_CURVE ( 'NONE', #290, #545, #378, .T. ) ;
#1119 = DIRECTION ( 'NONE',  ( 1.000000000000000000, 0.000000000000000000, 0.000000000000000000 ) ) ;
#1120 = AXIS2_PLACEMENT_3D ( 'NONE', #462, #287, #662 ) ;
#1121 = EDGE_LOOP ( 'NONE', ( #1153, #205 ) ) ;
#1122 = EDGE_LOOP ( 'NONE', ( #886, #478, #129, #895 ) ) ;
#1123 = AXIS2_PLACEMENT_3D ( 'NONE', #387, #1129, #305 ) ;
#1124 = DIRECTION ( 'NONE',  ( 0.000000000000000000, 0.000000000000000000, 1.000000000000000000 ) ) ;
#1125 = DIRECTION ( 'NONE',  ( 0.000000000000000000, 0.000000000000000000, 1.000000000000000000 ) ) ;
#1126 = DIRECTION ( 'NONE',  ( 0.000000000000000000, 1.000000000000000000, 0.000000000000000000 ) ) ;
#1127 = ORIENTED_EDGE ( 'NONE', *, *, #811, .F. ) ;
#1128 = CYLINDRICAL_SURFACE ( 'NONE', #634, 1.049999999999998934 ) ;
#1129 = DIRECTION ( 'NONE',  ( -0.000000000000000000, -1.000000000000000000, -0.000000000000000000 ) ) ;
#1130 = EDGE_CURVE ( 'NONE', #618, #1091, #212, .T. ) ;
#1131 = CARTESIAN_POINT ( 'NONE',  ( 17.50000000000000711, -27.99999999999999645, 18.50000000000000000 ) ) ;
#1132 = ORIENTED_EDGE ( 'NONE', *, *, #749, .F. ) ;
#1133 = VECTOR ( 'NONE', #675, 1000.000000000000000 ) ;
#1134 = CARTESIAN_POINT ( 'NONE',  ( -12.50000000000000000, 2.000000000000000000, -1.000000000000000222 ) ) ;
#1135 = CARTESIAN_POINT ( 'NONE',  ( -21.41000000000000369, 0.000000000000000000, -9.919999999999998153 ) ) ;
#1136 = DIRECTION ( 'NONE',  ( -0.000000000000000000, -0.000000000000000000, 1.000000000000000000 ) ) ;
#1137 = AXIS2_PLACEMENT_3D ( 'NONE', #230, #512, #872 ) ;
#1138 = ORIENTED_EDGE ( 'NONE', *, *, #30, .T. ) ;
#1139 = LINE ( 'NONE', #693, #555 ) ;
#1140 = AXIS2_PLACEMENT_3D ( 'NONE', #573, #1124, #386 ) ;
#1141 = CARTESIAN_POINT ( 'NONE',  ( 25.00000000000001066, 2.000000000000000000, -11.00000000000000000 ) ) ;
#1142 = ORIENTED_EDGE ( 'NONE', *, *, #533, .F. ) ;
#1143 = ADVANCED_FACE ( 'NONE', ( #667 ), #1128, .F. ) ;
#1144 = DIRECTION ( 'NONE',  ( 1.000000000000000000, 0.000000000000000000, 0.000000000000000000 ) ) ;
#1145 = ADVANCED_FACE ( 'NONE', ( #135 ), #679, .F. ) ;
#1146 = FACE_OUTER_BOUND ( 'NONE', #179, .T. ) ;
#1147 = CARTESIAN_POINT ( 'NONE',  ( -24.99999999999998934, 2.000000000000000000, 11.00000000000000000 ) ) ;
#1148 = EDGE_LOOP ( 'NONE', ( #624, #106 ) ) ;
#1149 = PLANE ( 'NONE',  #513 ) ;
#1150 = EDGE_CURVE ( 'NONE', #332, #441, #582, .T. ) ;
#1151 = CARTESIAN_POINT ( 'NONE',  ( 21.40999999999999304, 0.000000000000000000, -7.820000000000009166 ) ) ;
#1152 = VERTEX_POINT ( 'NONE', #878 ) ;
#1153 = ORIENTED_EDGE ( 'NONE', *, *, #316, .T. ) ;
#1154 = DIRECTION ( 'NONE',  ( 1.000000000000000000, 0.000000000000000000, -0.000000000000000000 ) ) ;
#1155 = CARTESIAN_POINT ( 'NONE',  ( -5.000000000000000000, 22.00000000000000000, -28.99999999999999645 ) ) ;
#1156 = AXIS2_PLACEMENT_3D ( 'NONE', #649, #281, #102 ) ;
#1157 = CYLINDRICAL_SURFACE ( 'NONE', #1075, 1.049999999999998934 ) ;
#1158 = VERTEX_POINT ( 'NONE', #1111 ) ;
#1159 = LINE ( 'NONE', #786, #630 ) ;
#1160 = LINE ( 'NONE', #633, #391 ) ;
#1161 = AXIS2_PLACEMENT_3D ( 'NONE', #594, #955, #776 ) ;
#1162 = EDGE_CURVE ( 'NONE', #646, #1072, #379, .T. ) ;
#1163 = VECTOR ( 'NONE', #235, 1000.000000000000000 ) ;
#1164 = CARTESIAN_POINT ( 'NONE',  ( -21.41000000000000369, 2.000000000000000000, 8.869999999999999218 ) ) ;
#1165 = EDGE_LOOP ( 'NONE', ( #219, #949, #1102, #519 ) ) ;
#1166 = ORIENTED_EDGE ( 'NONE', *, *, #353, .T. ) ;
#1167 = EDGE_CURVE ( 'NONE', #1109, #563, #428, .T. ) ;
#1168 = CARTESIAN_POINT ( 'NONE',  ( 21.40999999999999304, 2.000000000000000000, -8.870000000000008100 ) ) ;
#1169 = DIRECTION ( 'NONE',  ( -0.000000000000000000, -1.000000000000000000, -0.000000000000000000 ) ) ;
#1170 = FACE_OUTER_BOUND ( 'NONE', #825, .T. ) ;
#1171 = CARTESIAN_POINT ( 'NONE',  ( 0.000000000000000000, 0.000000000000000000, 0.000000000000000000 ) ) ;
#1172 = VERTEX_POINT ( 'NONE', #331 ) ;
#1173 = PLANE ( 'NONE',  #691 ) ;
ENDSEC;
END-ISO-10303-21;
