ISO-10303-21;
HEADER;
FILE_DESCRIPTION (( 'STEP AP214' ),
    '1' );
FILE_NAME ('22.STEP',
    '2026-04-27T02:51:53',
    ( '' ),
    ( '' ),
    'SwSTEP 2.0',
    'SolidWorks 2025',
    '' );
FILE_SCHEMA (( 'AUTOMOTIVE_DESIGN' ));
ENDSEC;

DATA;
#1 = DIRECTION ( 'NONE',  ( 0.000000000000000000, 1.000000000000000000, -0.000000000000000000 ) ) ;
#2 = ORIENTED_EDGE ( 'NONE', *, *, #218, .T. ) ;
#3 = CYLINDRICAL_SURFACE ( 'NONE', #192, 1.600000000000001865 ) ;
#4 = EDGE_LOOP ( 'NONE', ( #127, #156, #147, #23 ) ) ;
#5 = DIRECTION ( 'NONE',  ( -0.000000000000000000, -1.000000000000000000, -0.000000000000000000 ) ) ;
#6 = ORIENTED_EDGE ( 'NONE', *, *, #18, .F. ) ;
#7 = PRODUCT_DEFINITION ( 'ๆ', '', #264, #290 ) ;
#8 = DIRECTION ( 'NONE',  ( 0.000000000000000000, 0.000000000000000000, -1.000000000000000000 ) ) ;
#9 = CYLINDRICAL_SURFACE ( 'NONE', #118, 1.600000000000001865 ) ;
#10 = FACE_OUTER_BOUND ( 'NONE', #4, .T. ) ;
#11 = DIRECTION ( 'NONE',  ( -0.000000000000000000, -1.000000000000000000, -0.000000000000000000 ) ) ;
#12 = ORIENTED_EDGE ( 'NONE', *, *, #256, .T. ) ;
#13 = DIRECTION ( 'NONE',  ( 0.000000000000000000, 1.000000000000000000, 0.000000000000000000 ) ) ;
#14 = ADVANCED_FACE ( 'NONE', ( #108, #59, #61 ), #212, .T. ) ;
#15 = SURFACE_STYLE_USAGE ( .BOTH. , #112 ) ;
#16 = DIRECTION ( 'NONE',  ( 0.000000000000000000, -0.000000000000000000, -1.000000000000000000 ) ) ;
#17 = VECTOR ( 'NONE', #163, 1000.000000000000000 ) ;
#18 = EDGE_CURVE ( 'NONE', #258, #161, #34, .T. ) ;
#19 = DIRECTION ( 'NONE',  ( 1.000000000000000000, 0.000000000000000000, 0.000000000000000000 ) ) ;
#20 =( NAMED_UNIT ( * ) PLANE_ANGLE_UNIT ( ) SI_UNIT ( $, .RADIAN. ) );
#21 = VERTEX_POINT ( 'NONE', #267 ) ;
#22 =( NAMED_UNIT ( * ) PLANE_ANGLE_UNIT ( ) SI_UNIT ( $, .RADIAN. ) );
#23 = ORIENTED_EDGE ( 'NONE', *, *, #93, .F. ) ;
#24 = ORIENTED_EDGE ( 'NONE', *, *, #93, .T. ) ;
#25 = DIRECTION ( 'NONE',  ( -0.000000000000000000, -1.000000000000000000, -0.000000000000000000 ) ) ;
#26 = EDGE_LOOP ( 'NONE', ( #33, #283, #6, #318 ) ) ;
#27 = LINE ( 'NONE', #233, #142 ) ;
#28 = VERTEX_POINT ( 'NONE', #62 ) ;
#29 =( GEOMETRIC_REPRESENTATION_CONTEXT ( 3 ) GLOBAL_UNCERTAINTY_ASSIGNED_CONTEXT ( ( #131 ) ) GLOBAL_UNIT_ASSIGNED_CONTEXT ( ( #216, #20, #324 ) ) REPRESENTATION_CONTEXT ( 'NONE', 'WORKASPACE' ) );
#30 = VECTOR ( 'NONE', #228, 1000.000000000000000 ) ;
#31 = APPLICATION_PROTOCOL_DEFINITION ( 'draft international standard', 'automotive_design', 1998, #282 ) ;
#32 = CARTESIAN_POINT ( 'NONE',  ( 0.000000000000000000, 0.000000000000000000, 0.000000000000000000 ) ) ;
#33 = ORIENTED_EDGE ( 'NONE', *, *, #98, .F. ) ;
#34 = LINE ( 'NONE', #159, #17 ) ;
#35 = VECTOR ( 'NONE', #241, 1000.000000000000000 ) ;
#36 = CIRCLE ( 'NONE', #328, 1.600000000000001865 ) ;
#37 = FACE_OUTER_BOUND ( 'NONE', #226, .T. ) ;
#38 = CARTESIAN_POINT ( 'NONE',  ( -24.00000000000000000, 5.000000000000000000, -1.600000000000001865 ) ) ;
#39 = DIRECTION ( 'NONE',  ( 0.000000000000000000, 0.000000000000000000, 1.000000000000000000 ) ) ;
#40 = ADVANCED_FACE ( 'NONE', ( #37 ), #262, .F. ) ;
#41 = VECTOR ( 'NONE', #8, 1000.000000000000000 ) ;
#42 = CIRCLE ( 'NONE', #176, 1.600000000000001865 ) ;
#43 = LINE ( 'NONE', #68, #214 ) ;
#44 = DIRECTION ( 'NONE',  ( 0.000000000000000000, 0.000000000000000000, -1.000000000000000000 ) ) ;
#45 = EDGE_CURVE ( 'NONE', #202, #179, #113, .T. ) ;
#46 = PRESENTATION_STYLE_ASSIGNMENT (( #15 ) ) ;
#47 = STYLED_ITEM ( 'NONE', ( #46 ), #154 ) ;
#48 = FACE_OUTER_BOUND ( 'NONE', #252, .T. ) ;
#49 = CARTESIAN_POINT ( 'NONE',  ( 24.00000000000000000, 5.000000000000000000, 0.000000000000000000 ) ) ;
#50 = ORIENTED_EDGE ( 'NONE', *, *, #321, .T. ) ;
#51 = ORIENTED_EDGE ( 'NONE', *, *, #98, .T. ) ;
#52 = AXIS2_PLACEMENT_3D ( 'NONE', #205, #1, #155 ) ;
#53 = CARTESIAN_POINT ( 'NONE',  ( -24.00000000000000000, 5.000000000000000000, 1.600000000000001865 ) ) ;
#54 = EDGE_LOOP ( 'NONE', ( #79, #50, #2, #209 ) ) ;
#55 = EDGE_CURVE ( 'NONE', #332, #258, #160, .T. ) ;
#56 = DIRECTION ( 'NONE',  ( -0.000000000000000000, -1.000000000000000000, -0.000000000000000000 ) ) ;
#57 = EDGE_LOOP ( 'NONE', ( #255, #117 ) ) ;
#58 = ORIENTED_EDGE ( 'NONE', *, *, #287, .T. ) ;
#59 = FACE_OUTER_BOUND ( 'NONE', #26, .T. ) ;
#60 = CARTESIAN_POINT ( 'NONE',  ( 30.00000000000000355, 5.000000000000000000, 5.000000000000000000 ) ) ;
#61 = FACE_BOUND ( 'NONE', #123, .T. ) ;
#62 = CARTESIAN_POINT ( 'NONE',  ( -29.99999999999999645, 5.000000000000000000, 5.000000000000000000 ) ) ;
#63 = ADVANCED_FACE ( 'NONE', ( #109 ), #85, .F. ) ;
#64 = CARTESIAN_POINT ( 'NONE',  ( -24.00000000000000000, 5.000000000000000000, 0.000000000000000000 ) ) ;
#65 = PLANE ( 'NONE',  #308 ) ;
#66 = CARTESIAN_POINT ( 'NONE',  ( -24.00000000000000000, 0.000000000000000000, 1.600000000000001865 ) ) ;
#67 = CARTESIAN_POINT ( 'NONE',  ( -24.00000000000000000, 5.000000000000000000, 0.000000000000000000 ) ) ;
#68 = CARTESIAN_POINT ( 'NONE',  ( -29.99999999999999645, 5.000000000000000000, 5.000000000000000000 ) ) ;
#69 =( LENGTH_UNIT ( ) NAMED_UNIT ( * ) SI_UNIT ( .MILLI., .METRE. ) );
#70 = EDGE_CURVE ( 'NONE', #161, #96, #88, .T. ) ;
#71 = CARTESIAN_POINT ( 'NONE',  ( 30.00000000000000355, 5.000000000000000000, 5.000000000000000000 ) ) ;
#72 = ORIENTED_EDGE ( 'NONE', *, *, #190, .T. ) ;
#73 = LINE ( 'NONE', #334, #114 ) ;
#74 = EDGE_LOOP ( 'NONE', ( #51, #80, #210, #311 ) ) ;
#75 = DIRECTION ( 'NONE',  ( 0.000000000000000000, 0.000000000000000000, -1.000000000000000000 ) ) ;
#76 = VERTEX_POINT ( 'NONE', #38 ) ;
#77 = EDGE_CURVE ( 'NONE', #199, #103, #261, .T. ) ;
#78 = FACE_OUTER_BOUND ( 'NONE', #136, .T. ) ;
#79 = ORIENTED_EDGE ( 'NONE', *, *, #143, .T. ) ;
#80 = ORIENTED_EDGE ( 'NONE', *, *, #256, .F. ) ;
#81 = ORIENTED_EDGE ( 'NONE', *, *, #287, .F. ) ;
#82 = DIRECTION ( 'NONE',  ( 0.000000000000000000, 0.000000000000000000, 1.000000000000000000 ) ) ;
#83 = UNCERTAINTY_MEASURE_WITH_UNIT (LENGTH_MEASURE( 1.000000000000000082E-05 ), #69, 'distance_accuracy_value', 'NONE');
#84 = CARTESIAN_POINT ( 'NONE',  ( 24.00000000000000000, 5.000000000000000000, 1.600000000000001865 ) ) ;
#85 = PLANE ( 'NONE',  #245 ) ;
#86 = ADVANCED_FACE ( 'NONE', ( #10 ), #9, .F. ) ;
#87 = VECTOR ( 'NONE', #115, 1000.000000000000000 ) ;
#88 = LINE ( 'NONE', #158, #238 ) ;
#89 = CARTESIAN_POINT ( 'NONE',  ( 24.00000000000000000, 0.000000000000000000, -1.600000000000001865 ) ) ;
#90 = DIRECTION ( 'NONE',  ( 0.000000000000000000, 0.000000000000000000, -1.000000000000000000 ) ) ;
#91 = FACE_BOUND ( 'NONE', #186, .T. ) ;
#92 = DIRECTION ( 'NONE',  ( 0.000000000000000000, -1.000000000000000000, 0.000000000000000000 ) ) ;
#93 = EDGE_CURVE ( 'NONE', #76, #179, #135, .T. ) ;
#94 = EDGE_LOOP ( 'NONE', ( #313, #279 ) ) ;
#95 = DIRECTION ( 'NONE',  ( -0.000000000000000000, -1.000000000000000000, -0.000000000000000000 ) ) ;
#96 = VERTEX_POINT ( 'NONE', #187 ) ;
#97 = DIRECTION ( 'NONE',  ( -1.000000000000000000, 0.000000000000000000, -0.000000000000000000 ) ) ;
#98 = EDGE_CURVE ( 'NONE', #96, #177, #189, .T. ) ;
#99 = ORIENTED_EDGE ( 'NONE', *, *, #55, .T. ) ;
#100 = DIRECTION ( 'NONE',  ( 0.000000000000000000, 1.000000000000000000, 0.000000000000000000 ) ) ;
#101 = ORIENTED_EDGE ( 'NONE', *, *, #266, .T. ) ;
#102 = DIRECTION ( 'NONE',  ( 0.000000000000000000, 0.000000000000000000, -1.000000000000000000 ) ) ;
#103 = VERTEX_POINT ( 'NONE', #104 ) ;
#104 = CARTESIAN_POINT ( 'NONE',  ( 24.00000000000000000, 0.000000000000000000, 1.600000000000001865 ) ) ;
#105 = DIRECTION ( 'NONE',  ( 0.000000000000000000, 0.000000000000000000, -1.000000000000000000 ) ) ;
#106 = COLOUR_RGB ( '',0.7921568627450980005, 0.8196078431372548767, 0.9333333333333333481 ) ;
#107 = VERTEX_POINT ( 'NONE', #330 ) ;
#108 = FACE_BOUND ( 'NONE', #57, .T. ) ;
#109 = FACE_OUTER_BOUND ( 'NONE', #74, .T. ) ;
#110 = PRESENTATION_LAYER_ASSIGNMENT (  '', '', ( #47 ) ) ;
#111 = FACE_OUTER_BOUND ( 'NONE', #234, .T. ) ;
#112 = SURFACE_SIDE_STYLE ('',( #271 ) ) ;
#113 = CIRCLE ( 'NONE', #141, 1.600000000000001865 ) ;
#114 = VECTOR ( 'NONE', #95, 1000.000000000000000 ) ;
#115 = DIRECTION ( 'NONE',  ( -1.000000000000000000, -0.000000000000000000, -0.000000000000000000 ) ) ;
#116 = CARTESIAN_POINT ( 'NONE',  ( 24.00000000000000000, 5.000000000000000000, -1.600000000000001865 ) ) ;
#117 = ORIENTED_EDGE ( 'NONE', *, *, #45, .T. ) ;
#118 = AXIS2_PLACEMENT_3D ( 'NONE', #211, #235, #105 ) ;
#119 = APPLICATION_PROTOCOL_DEFINITION ( 'draft international standard', 'automotive_design', 1998, #193 ) ;
#120 = VERTEX_POINT ( 'NONE', #89 ) ;
#121 = EDGE_CURVE ( 'NONE', #28, #161, #297, .T. ) ;
#122 =( NAMED_UNIT ( * ) SI_UNIT ( $, .STERADIAN. ) SOLID_ANGLE_UNIT ( ) );
#123 = EDGE_LOOP ( 'NONE', ( #101, #58 ) ) ;
#124 = CARTESIAN_POINT ( 'NONE',  ( -29.99999999999999645, 5.000000000000000000, 5.000000000000000000 ) ) ;
#125 = ORIENTED_EDGE ( 'NONE', *, *, #121, .F. ) ;
#126 = DIRECTION ( 'NONE',  ( 0.000000000000000000, 0.000000000000000000, 1.000000000000000000 ) ) ;
#127 = ORIENTED_EDGE ( 'NONE', *, *, #134, .T. ) ;
#128 = CARTESIAN_POINT ( 'NONE',  ( -29.99999999999999645, 5.000000000000000000, -5.000000000000000000 ) ) ;
#129 = ADVANCED_FACE ( 'NONE', ( #137, #221, #91 ), #65, .F. ) ;
#130 = CARTESIAN_POINT ( 'NONE',  ( -24.00000000000000000, 0.000000000000000000, 0.000000000000000000 ) ) ;
#131 = UNCERTAINTY_MEASURE_WITH_UNIT (LENGTH_MEASURE( 1.000000000000000082E-05 ), #216, 'distance_accuracy_value', 'NONE');
#132 = DIRECTION ( 'NONE',  ( 0.000000000000000000, 0.000000000000000000, 1.000000000000000000 ) ) ;
#133 = AXIS2_PLACEMENT_3D ( 'NONE', #257, #25, #198 ) ;
#134 = EDGE_CURVE ( 'NONE', #76, #315, #162, .T. ) ;
#135 = LINE ( 'NONE', #242, #175 ) ;
#136 = EDGE_LOOP ( 'NONE', ( #320, #152, #304, #305 ) ) ;
#137 = FACE_OUTER_BOUND ( 'NONE', #54, .T. ) ;
#138 = LINE ( 'NONE', #167, #317 ) ;
#139 = PLANE ( 'NONE',  #240 ) ;
#140 = DIRECTION ( 'NONE',  ( 1.000000000000000000, -0.000000000000000000, 0.000000000000000000 ) ) ;
#141 = AXIS2_PLACEMENT_3D ( 'NONE', #130, #295, #323 ) ;
#142 = VECTOR ( 'NONE', #254, 1000.000000000000000 ) ;
#143 = EDGE_CURVE ( 'NONE', #21, #107, #138, .T. ) ;
#144 = DIRECTION ( 'NONE',  ( 0.000000000000000000, 0.000000000000000000, 1.000000000000000000 ) ) ;
#145 = FACE_OUTER_BOUND ( 'NONE', #307, .T. ) ;
#146 = CARTESIAN_POINT ( 'NONE',  ( 30.00000000000000355, 5.000000000000000000, -5.000000000000000000 ) ) ;
#147 = ORIENTED_EDGE ( 'NONE', *, *, #229, .F. ) ;
#148 = AXIS2_PLACEMENT_3D ( 'NONE', #67, #13, #144 ) ;
#149 = CARTESIAN_POINT ( 'NONE',  ( 24.00000000000000000, 0.000000000000000000, 0.000000000000000000 ) ) ;
#150 = ORIENTED_EDGE ( 'NONE', *, *, #77, .T. ) ;
#151 = DIRECTION ( 'NONE',  ( 0.000000000000000000, 1.000000000000000000, -0.000000000000000000 ) ) ;
#152 = ORIENTED_EDGE ( 'NONE', *, *, #223, .F. ) ;
#153 = PRODUCT_DEFINITION_SHAPE ( 'NONE', 'NONE',  #7 ) ;
#154 = MANIFOLD_SOLID_BREP ( '\X2\51f853f0\X0\-\X2\62c94f38\X0\1', #326 ) ;
#155 = DIRECTION ( 'NONE',  ( 0.000000000000000000, 0.000000000000000000, -1.000000000000000000 ) ) ;
#156 = ORIENTED_EDGE ( 'NONE', *, *, #274, .T. ) ;
#157 = EDGE_CURVE ( 'NONE', #28, #21, #43, .T. ) ;
#158 = CARTESIAN_POINT ( 'NONE',  ( -29.99999999999999645, 0.000000000000000000, 5.000000000000000000 ) ) ;
#159 = CARTESIAN_POINT ( 'NONE',  ( -29.99999999999999645, 0.000000000000000000, 5.000000000000000000 ) ) ;
#160 = LINE ( 'NONE', #128, #273 ) ;
#161 = VERTEX_POINT ( 'NONE', #164 ) ;
#162 = CIRCLE ( 'NONE', #148, 1.600000000000001865 ) ;
#163 = DIRECTION ( 'NONE',  ( -0.000000000000000000, -0.000000000000000000, 1.000000000000000000 ) ) ;
#164 = CARTESIAN_POINT ( 'NONE',  ( -29.99999999999999645, 0.000000000000000000, 5.000000000000000000 ) ) ;
#165 = DIRECTION ( 'NONE',  ( 0.000000000000000000, 0.000000000000000000, -1.000000000000000000 ) ) ;
#166 = CIRCLE ( 'NONE', #253, 1.600000000000001865 ) ;
#167 = CARTESIAN_POINT ( 'NONE',  ( 30.00000000000000355, 5.000000000000000000, 5.000000000000000000 ) ) ;
#168 = PRODUCT_RELATED_PRODUCT_CATEGORY ( 'part', '', ( #333 ) ) ;
#169 = FILL_AREA_STYLE ('',( #300 ) ) ;
#170 = DIRECTION ( 'NONE',  ( 0.000000000000000000, 0.000000000000000000, -1.000000000000000000 ) ) ;
#171 = CARTESIAN_POINT ( 'NONE',  ( -24.00000000000000000, 0.000000000000000000, 0.000000000000000000 ) ) ;
#172 = ORIENTED_EDGE ( 'NONE', *, *, #251, .F. ) ;
#173 = LINE ( 'NONE', #146, #281 ) ;
#174 = ORIENTED_EDGE ( 'NONE', *, *, #251, .T. ) ;
#175 = VECTOR ( 'NONE', #11, 1000.000000000000000 ) ;
#176 = AXIS2_PLACEMENT_3D ( 'NONE', #298, #299, #44 ) ;
#177 = VERTEX_POINT ( 'NONE', #327 ) ;
#178 = LINE ( 'NONE', #310, #232 ) ;
#179 = VERTEX_POINT ( 'NONE', #247 ) ;
#180 = ADVANCED_FACE ( 'NONE', ( #111 ), #268, .F. ) ;
#181 = ADVANCED_BREP_SHAPE_REPRESENTATION ( '22', ( #154, #204 ), #302 ) ;
#182 = ORIENTED_EDGE ( 'NONE', *, *, #218, .F. ) ;
#183 = AXIS2_PLACEMENT_3D ( 'NONE', #124, #170, #97 ) ;
#184 = CARTESIAN_POINT ( 'NONE',  ( -29.99999999999999645, 5.000000000000000000, -5.000000000000000000 ) ) ;
#185 = EDGE_CURVE ( 'NONE', #315, #76, #166, .T. ) ;
#186 = EDGE_LOOP ( 'NONE', ( #260, #172 ) ) ;
#187 = CARTESIAN_POINT ( 'NONE',  ( 30.00000000000000355, 0.000000000000000000, 5.000000000000000000 ) ) ;
#188 = AXIS2_PLACEMENT_3D ( 'NONE', #171, #100, #126 ) ;
#189 = LINE ( 'NONE', #296, #41 ) ;
#190 = EDGE_CURVE ( 'NONE', #177, #258, #191, .T. ) ;
#191 = LINE ( 'NONE', #272, #87 ) ;
#192 = AXIS2_PLACEMENT_3D ( 'NONE', #49, #201, #306 ) ;
#193 = APPLICATION_CONTEXT ( 'automotive_design' ) ;
#194 = CARTESIAN_POINT ( 'NONE',  ( -24.00000000000000000, 5.000000000000000000, 0.000000000000000000 ) ) ;
#195 = EDGE_CURVE ( 'NONE', #277, #199, #42, .T. ) ;
#196 = DIRECTION ( 'NONE',  ( 0.000000000000000000, 0.000000000000000000, -1.000000000000000000 ) ) ;
#197 = VECTOR ( 'NONE', #56, 1000.000000000000000 ) ;
#198 = DIRECTION ( 'NONE',  ( 0.000000000000000000, 0.000000000000000000, -1.000000000000000000 ) ) ;
#199 = VERTEX_POINT ( 'NONE', #244 ) ;
#200 = CARTESIAN_POINT ( 'NONE',  ( -29.99999999999999645, 5.000000000000000000, -5.000000000000000000 ) ) ;
#201 = DIRECTION ( 'NONE',  ( -0.000000000000000000, -1.000000000000000000, -0.000000000000000000 ) ) ;
#202 = VERTEX_POINT ( 'NONE', #66 ) ;
#203 = AXIS2_PLACEMENT_3D ( 'NONE', #32, #265, #322 ) ;
#204 = AXIS2_PLACEMENT_3D ( 'NONE', #239, #319, #312 ) ;
#205 = CARTESIAN_POINT ( 'NONE',  ( 24.00000000000000000, 0.000000000000000000, 0.000000000000000000 ) ) ;
#206 = ORIENTED_EDGE ( 'NONE', *, *, #292, .F. ) ;
#207 = ADVANCED_FACE ( 'NONE', ( #329 ), #139, .F. ) ;
#208 = ORIENTED_EDGE ( 'NONE', *, *, #18, .T. ) ;
#209 = ORIENTED_EDGE ( 'NONE', *, *, #157, .T. ) ;
#210 = ORIENTED_EDGE ( 'NONE', *, *, #143, .F. ) ;
#211 = CARTESIAN_POINT ( 'NONE',  ( -24.00000000000000000, 5.000000000000000000, 0.000000000000000000 ) ) ;
#212 = PLANE ( 'NONE',  #203 ) ;
#213 = DIRECTION ( 'NONE',  ( 1.000000000000000000, 0.000000000000000000, 0.000000000000000000 ) ) ;
#214 = VECTOR ( 'NONE', #19, 1000.000000000000000 ) ;
#215 = ADVANCED_FACE ( 'NONE', ( #48 ), #3, .F. ) ;
#216 =( LENGTH_UNIT ( ) NAMED_UNIT ( * ) SI_UNIT ( .MILLI., .METRE. ) );
#217 = CARTESIAN_POINT ( 'NONE',  ( 0.000000000000000000, 5.000000000000000000, 0.000000000000000000 ) ) ;
#218 = EDGE_CURVE ( 'NONE', #332, #28, #178, .T. ) ;
#219 = VECTOR ( 'NONE', #325, 1000.000000000000000 ) ;
#220 = DIRECTION ( 'NONE',  ( -0.000000000000000000, -1.000000000000000000, -0.000000000000000000 ) ) ;
#221 = FACE_BOUND ( 'NONE', #94, .T. ) ;
#222 = EDGE_LOOP ( 'NONE', ( #208, #125, #182, #99 ) ) ;
#223 = EDGE_CURVE ( 'NONE', #21, #96, #284, .T. ) ;
#224 = CIRCLE ( 'NONE', #294, 1.600000000000001865 ) ;
#225 = CARTESIAN_POINT ( 'NONE',  ( 24.00000000000000000, 5.000000000000000000, 0.000000000000000000 ) ) ;
#226 = EDGE_LOOP ( 'NONE', ( #72, #227, #285, #12 ) ) ;
#227 = ORIENTED_EDGE ( 'NONE', *, *, #55, .F. ) ;
#228 = DIRECTION ( 'NONE',  ( -0.000000000000000000, -1.000000000000000000, -0.000000000000000000 ) ) ;
#229 = EDGE_CURVE ( 'NONE', #179, #202, #309, .T. ) ;
#230 = ORIENTED_EDGE ( 'NONE', *, *, #292, .T. ) ;
#231 = MECHANICAL_DESIGN_GEOMETRIC_PRESENTATION_REPRESENTATION (  '', ( #47 ), #29 ) ;
#232 = VECTOR ( 'NONE', #301, 1000.000000000000000 ) ;
#233 = CARTESIAN_POINT ( 'NONE',  ( -29.99999999999999645, 5.000000000000000000, -5.000000000000000000 ) ) ;
#234 = EDGE_LOOP ( 'NONE', ( #263, #250, #24, #335 ) ) ;
#235 = DIRECTION ( 'NONE',  ( -0.000000000000000000, -1.000000000000000000, -0.000000000000000000 ) ) ;
#236 = SHAPE_DEFINITION_REPRESENTATION ( #153, #181 ) ;
#237 = DIRECTION ( 'NONE',  ( -1.000000000000000000, 0.000000000000000000, 0.000000000000000000 ) ) ;
#238 = VECTOR ( 'NONE', #213, 1000.000000000000000 ) ;
#239 = CARTESIAN_POINT ( 'NONE',  ( 0.000000000000000000, 0.000000000000000000, 0.000000000000000000 ) ) ;
#240 = AXIS2_PLACEMENT_3D ( 'NONE', #270, #140, #196 ) ;
#241 = DIRECTION ( 'NONE',  ( -0.000000000000000000, -1.000000000000000000, -0.000000000000000000 ) ) ;
#242 = CARTESIAN_POINT ( 'NONE',  ( -24.00000000000000000, 5.000000000000000000, -1.600000000000001865 ) ) ;
#243 = ORIENTED_EDGE ( 'NONE', *, *, #195, .T. ) ;
#244 = CARTESIAN_POINT ( 'NONE',  ( 24.00000000000000000, 5.000000000000000000, 1.600000000000001865 ) ) ;
#245 = AXIS2_PLACEMENT_3D ( 'NONE', #60, #237, #132 ) ;
#246 = DIRECTION ( 'NONE',  ( 0.000000000000000000, 1.000000000000000000, 0.000000000000000000 ) ) ;
#247 = CARTESIAN_POINT ( 'NONE',  ( -24.00000000000000000, 0.000000000000000000, -1.600000000000001865 ) ) ;
#248 = AXIS2_PLACEMENT_3D ( 'NONE', #184, #82, #289 ) ;
#249 = CIRCLE ( 'NONE', #52, 1.600000000000001865 ) ;
#250 = ORIENTED_EDGE ( 'NONE', *, *, #185, .T. ) ;
#251 = EDGE_CURVE ( 'NONE', #199, #277, #36, .T. ) ;
#252 = EDGE_LOOP ( 'NONE', ( #243, #150, #286, #206 ) ) ;
#253 = AXIS2_PLACEMENT_3D ( 'NONE', #64, #246, #39 ) ;
#254 = DIRECTION ( 'NONE',  ( -1.000000000000000000, -0.000000000000000000, -0.000000000000000000 ) ) ;
#255 = ORIENTED_EDGE ( 'NONE', *, *, #229, .T. ) ;
#256 = EDGE_CURVE ( 'NONE', #107, #177, #173, .T. ) ;
#257 = CARTESIAN_POINT ( 'NONE',  ( 24.00000000000000000, 5.000000000000000000, 0.000000000000000000 ) ) ;
#258 = VERTEX_POINT ( 'NONE', #278 ) ;
#259 = DIRECTION ( 'NONE',  ( 0.000000000000000000, 1.000000000000000000, -0.000000000000000000 ) ) ;
#260 = ORIENTED_EDGE ( 'NONE', *, *, #195, .F. ) ;
#261 = LINE ( 'NONE', #84, #35 ) ;
#262 = PLANE ( 'NONE',  #248 ) ;
#263 = ORIENTED_EDGE ( 'NONE', *, *, #274, .F. ) ;
#264 = PRODUCT_DEFINITION_FORMATION_WITH_SPECIFIED_SOURCE ( 'ไป', '', #333, .NOT_KNOWN. ) ;
#265 = DIRECTION ( 'NONE',  ( 0.000000000000000000, -1.000000000000000000, 0.000000000000000000 ) ) ;
#266 = EDGE_CURVE ( 'NONE', #120, #103, #249, .T. ) ;
#267 = CARTESIAN_POINT ( 'NONE',  ( 30.00000000000000355, 5.000000000000000000, 5.000000000000000000 ) ) ;
#268 = CYLINDRICAL_SURFACE ( 'NONE', #316, 1.600000000000001865 ) ;
#269 = CARTESIAN_POINT ( 'NONE',  ( -29.99999999999999645, 5.000000000000000000, 5.000000000000000000 ) ) ;
#270 = CARTESIAN_POINT ( 'NONE',  ( -29.99999999999999645, 5.000000000000000000, 5.000000000000000000 ) ) ;
#271 = SURFACE_STYLE_FILL_AREA ( #169 ) ;
#272 = CARTESIAN_POINT ( 'NONE',  ( -29.99999999999999645, 0.000000000000000000, -5.000000000000000000 ) ) ;
#273 = VECTOR ( 'NONE', #288, 1000.000000000000000 ) ;
#274 = EDGE_CURVE ( 'NONE', #315, #202, #73, .T. ) ;
#275 = LINE ( 'NONE', #116, #30 ) ;
#276 = CARTESIAN_POINT ( 'NONE',  ( 24.00000000000000000, 5.000000000000000000, -1.600000000000001865 ) ) ;
#277 = VERTEX_POINT ( 'NONE', #276 ) ;
#278 = CARTESIAN_POINT ( 'NONE',  ( -29.99999999999999645, 0.000000000000000000, -5.000000000000000000 ) ) ;
#279 = ORIENTED_EDGE ( 'NONE', *, *, #185, .F. ) ;
#280 = ADVANCED_FACE ( 'NONE', ( #145 ), #331, .F. ) ;
#281 = VECTOR ( 'NONE', #5, 1000.000000000000000 ) ;
#282 = APPLICATION_CONTEXT ( 'automotive_design' ) ;
#283 = ORIENTED_EDGE ( 'NONE', *, *, #70, .F. ) ;
#284 = LINE ( 'NONE', #71, #197 ) ;
#285 = ORIENTED_EDGE ( 'NONE', *, *, #321, .F. ) ;
#286 = ORIENTED_EDGE ( 'NONE', *, *, #266, .F. ) ;
#287 = EDGE_CURVE ( 'NONE', #103, #120, #224, .T. ) ;
#288 = DIRECTION ( 'NONE',  ( -0.000000000000000000, -1.000000000000000000, -0.000000000000000000 ) ) ;
#289 = DIRECTION ( 'NONE',  ( 1.000000000000000000, 0.000000000000000000, -0.000000000000000000 ) ) ;
#290 = PRODUCT_DEFINITION_CONTEXT ( 'detailed design', #282, 'design' ) ;
#291 = ORIENTED_EDGE ( 'NONE', *, *, #77, .F. ) ;
#292 = EDGE_CURVE ( 'NONE', #277, #120, #275, .T. ) ;
#293 = PRODUCT_CONTEXT ( 'NONE', #193, 'mechanical' ) ;
#294 = AXIS2_PLACEMENT_3D ( 'NONE', #149, #259, #75 ) ;
#295 = DIRECTION ( 'NONE',  ( 0.000000000000000000, 1.000000000000000000, 0.000000000000000000 ) ) ;
#296 = CARTESIAN_POINT ( 'NONE',  ( 30.00000000000000355, 0.000000000000000000, 5.000000000000000000 ) ) ;
#297 = LINE ( 'NONE', #269, #219 ) ;
#298 = CARTESIAN_POINT ( 'NONE',  ( 24.00000000000000000, 5.000000000000000000, 0.000000000000000000 ) ) ;
#299 = DIRECTION ( 'NONE',  ( 0.000000000000000000, 1.000000000000000000, -0.000000000000000000 ) ) ;
#300 = FILL_AREA_STYLE_COLOUR ( '', #106 ) ;
#301 = DIRECTION ( 'NONE',  ( -0.000000000000000000, -0.000000000000000000, 1.000000000000000000 ) ) ;
#302 =( GEOMETRIC_REPRESENTATION_CONTEXT ( 3 ) GLOBAL_UNCERTAINTY_ASSIGNED_CONTEXT ( ( #83 ) ) GLOBAL_UNIT_ASSIGNED_CONTEXT ( ( #69, #22, #122 ) ) REPRESENTATION_CONTEXT ( 'NONE', 'WORKASPACE' ) );
#303 = PLANE ( 'NONE',  #183 ) ;
#304 = ORIENTED_EDGE ( 'NONE', *, *, #157, .F. ) ;
#305 = ORIENTED_EDGE ( 'NONE', *, *, #121, .T. ) ;
#306 = DIRECTION ( 'NONE',  ( 0.000000000000000000, 0.000000000000000000, -1.000000000000000000 ) ) ;
#307 = EDGE_LOOP ( 'NONE', ( #291, #174, #230, #81 ) ) ;
#308 = AXIS2_PLACEMENT_3D ( 'NONE', #217, #92, #16 ) ;
#309 = CIRCLE ( 'NONE', #188, 1.600000000000001865 ) ;
#310 = CARTESIAN_POINT ( 'NONE',  ( -29.99999999999999645, 5.000000000000000000, 5.000000000000000000 ) ) ;
#311 = ORIENTED_EDGE ( 'NONE', *, *, #223, .T. ) ;
#312 = DIRECTION ( 'NONE',  ( 1.000000000000000000, 0.000000000000000000, 0.000000000000000000 ) ) ;
#313 = ORIENTED_EDGE ( 'NONE', *, *, #134, .F. ) ;
#314 = ADVANCED_FACE ( 'NONE', ( #78 ), #303, .F. ) ;
#315 = VERTEX_POINT ( 'NONE', #53 ) ;
#316 = AXIS2_PLACEMENT_3D ( 'NONE', #194, #220, #90 ) ;
#317 = VECTOR ( 'NONE', #165, 1000.000000000000000 ) ;
#318 = ORIENTED_EDGE ( 'NONE', *, *, #190, .F. ) ;
#319 = DIRECTION ( 'NONE',  ( 0.000000000000000000, 0.000000000000000000, 1.000000000000000000 ) ) ;
#320 = ORIENTED_EDGE ( 'NONE', *, *, #70, .T. ) ;
#321 = EDGE_CURVE ( 'NONE', #107, #332, #27, .T. ) ;
#322 = DIRECTION ( 'NONE',  ( 0.000000000000000000, -0.000000000000000000, -1.000000000000000000 ) ) ;
#323 = DIRECTION ( 'NONE',  ( 0.000000000000000000, 0.000000000000000000, 1.000000000000000000 ) ) ;
#324 =( NAMED_UNIT ( * ) SI_UNIT ( $, .STERADIAN. ) SOLID_ANGLE_UNIT ( ) );
#325 = DIRECTION ( 'NONE',  ( -0.000000000000000000, -1.000000000000000000, -0.000000000000000000 ) ) ;
#326 = CLOSED_SHELL ( 'NONE', ( #215, #86, #129, #14, #63, #40, #207, #314, #180, #280 ) ) ;
#327 = CARTESIAN_POINT ( 'NONE',  ( 30.00000000000000355, 0.000000000000000000, -5.000000000000000000 ) ) ;
#328 = AXIS2_PLACEMENT_3D ( 'NONE', #225, #151, #102 ) ;
#329 = FACE_OUTER_BOUND ( 'NONE', #222, .T. ) ;
#330 = CARTESIAN_POINT ( 'NONE',  ( 30.00000000000000355, 5.000000000000000000, -5.000000000000000000 ) ) ;
#331 = CYLINDRICAL_SURFACE ( 'NONE', #133, 1.600000000000001865 ) ;
#332 = VERTEX_POINT ( 'NONE', #200 ) ;
#333 = PRODUCT ( '22', '22', '', ( #293 ) ) ;
#334 = CARTESIAN_POINT ( 'NONE',  ( -24.00000000000000000, 5.000000000000000000, 1.600000000000001865 ) ) ;
#335 = ORIENTED_EDGE ( 'NONE', *, *, #45, .F. ) ;
ENDSEC;
END-ISO-10303-21;
