ISO-10303-21;
HEADER;
FILE_DESCRIPTION (( 'STEP AP214' ),
    '1' );
FILE_NAME ('¼Ü.STEP',
    '2026-04-27T02:50:39',
    ( '' ),
    ( '' ),
    'SwSTEP 2.0',
    'SolidWorks 2025',
    '' );
FILE_SCHEMA (( 'AUTOMOTIVE_DESIGN' ));
ENDSEC;

DATA;
#1 = ORIENTED_EDGE ( 'NONE', *, *, #976, .F. ) ;
#2 = AXIS2_PLACEMENT_3D ( 'NONE', #15, #1055, #459 ) ;
#3 = ORIENTED_EDGE ( 'NONE', *, *, #242, .T. ) ;
#4 = CARTESIAN_POINT ( 'NONE',  ( 32.00000000000000000, 2.750000000000000000, -70.00000000000000000 ) ) ;
#5 = CARTESIAN_POINT ( 'NONE',  ( 24.00000000000000000, 2.750000000000000000, 65.00000000000000000 ) ) ;
#6 = EDGE_CURVE ( 'NONE', #443, #1057, #940, .T. ) ;
#7 = FACE_OUTER_BOUND ( 'NONE', #616, .T. ) ;
#8 = LINE ( 'NONE', #343, #217 ) ;
#9 = VERTEX_POINT ( 'NONE', #1102 ) ;
#10 = DIRECTION ( 'NONE',  ( -0.000000000000000000, 1.000000000000000000, -0.000000000000000000 ) ) ;
#11 = FACE_OUTER_BOUND ( 'NONE', #517, .T. ) ;
#12 = ORIENTED_EDGE ( 'NONE', *, *, #299, .T. ) ;
#13 = AXIS2_PLACEMENT_3D ( 'NONE', #847, #503, #423 ) ;
#14 = DIRECTION ( 'NONE',  ( 1.734723475976807094E-16, 0.000000000000000000, -1.000000000000000000 ) ) ;
#15 = CARTESIAN_POINT ( 'NONE',  ( 14.00000000000000000, -2.750000000000000000, -65.00000000000000000 ) ) ;
#16 = FACE_BOUND ( 'NONE', #746, .T. ) ;
#17 = CARTESIAN_POINT ( 'NONE',  ( -14.89338951290753243, 2.750000000000000000, 40.00000000000000000 ) ) ;
#18 = ORIENTED_EDGE ( 'NONE', *, *, #383, .T. ) ;
#19 = EDGE_LOOP ( 'NONE', ( #394, #297 ) ) ;
#20 = CARTESIAN_POINT ( 'NONE',  ( 0.000000000000000000, 0.000000000000000000, 0.000000000000000000 ) ) ;
#21 = DIRECTION ( 'NONE',  ( 0.000000000000000000, 0.000000000000000000, -1.000000000000000000 ) ) ;
#22 = AXIS2_PLACEMENT_3D ( 'NONE', #600, #588, #1031 ) ;
#23 = VERTEX_POINT ( 'NONE', #657 ) ;
#24 = AXIS2_PLACEMENT_3D ( 'NONE', #859, #80, #427 ) ;
#25 = CLOSED_SHELL ( 'NONE', ( #1026, #763, #870, #312, #56, #1040, #838, #298, #386, #876, #853, #350, #132, #413, #824, #73, #39, #1092, #280, #823, #1009, #462, #915, #945, #415, #936, #146, #101, #560, #1104, #1085, #221 ) ) ;
#26 = ORIENTED_EDGE ( 'NONE', *, *, #383, .F. ) ;
#27 = EDGE_CURVE ( 'NONE', #1024, #476, #927, .T. ) ;
#28 = VECTOR ( 'NONE', #374, 1000.000000000000000 ) ;
#29 = DIRECTION ( 'NONE',  ( -0.000000000000000000, 1.000000000000000000, -0.000000000000000000 ) ) ;
#30 = ORIENTED_EDGE ( 'NONE', *, *, #203, .F. ) ;
#31 = ORIENTED_EDGE ( 'NONE', *, *, #484, .T. ) ;
#32 = APPLICATION_PROTOCOL_DEFINITION ( 'draft international standard', 'automotive_design', 1998, #767 ) ;
#33 = DIRECTION ( 'NONE',  ( 0.000000000000000000, 0.000000000000000000, -1.000000000000000000 ) ) ;
#34 = ORIENTED_EDGE ( 'NONE', *, *, #314, .F. ) ;
#35 = ORIENTED_EDGE ( 'NONE', *, *, #541, .T. ) ;
#36 = DIRECTION ( 'NONE',  ( 0.000000000000000000, -1.000000000000000000, 0.000000000000000000 ) ) ;
#37 = LINE ( 'NONE', #639, #344 ) ;
#38 = LINE ( 'NONE', #969, #430 ) ;
#39 = ADVANCED_FACE ( 'NONE', ( #138 ), #661, .F. ) ;
#40 = VERTEX_POINT ( 'NONE', #863 ) ;
#41 = AXIS2_PLACEMENT_3D ( 'NONE', #934, #416, #501 ) ;
#42 = DIRECTION ( 'NONE',  ( 0.000000000000000000, 1.000000000000000000, -0.000000000000000000 ) ) ;
#43 = LINE ( 'NONE', #631, #436 ) ;
#44 = DIRECTION ( 'NONE',  ( 0.000000000000000000, 0.000000000000000000, -1.000000000000000000 ) ) ;
#45 = AXIS2_PLACEMENT_3D ( 'NONE', #1074, #886, #533 ) ;
#46 = ORIENTED_EDGE ( 'NONE', *, *, #672, .T. ) ;
#47 = LINE ( 'NONE', #60, #682 ) ;
#48 = CARTESIAN_POINT ( 'NONE',  ( 14.00000000000000000, -2.750000000000000000, -65.00000000000000000 ) ) ;
#49 = SURFACE_SIDE_STYLE ('',( #369 ) ) ;
#50 = AXIS2_PLACEMENT_3D ( 'NONE', #603, #597, #14 ) ;
#51 = ORIENTED_EDGE ( 'NONE', *, *, #753, .T. ) ;
#52 = ORIENTED_EDGE ( 'NONE', *, *, #110, .T. ) ;
#53 = ORIENTED_EDGE ( 'NONE', *, *, #722, .F. ) ;
#54 = ORIENTED_EDGE ( 'NONE', *, *, #1123, .F. ) ;
#55 = CARTESIAN_POINT ( 'NONE',  ( 10.89338951290753421, 2.750000000000000000, 40.00000000000000000 ) ) ;
#56 = ADVANCED_FACE ( 'NONE', ( #785 ), #881, .F. ) ;
#57 = CARTESIAN_POINT ( 'NONE',  ( 10.89338951290754309, -2.750000000000000000, 2.125914583612530367E-15 ) ) ;
#58 = VECTOR ( 'NONE', #769, 1000.000000000000000 ) ;
#59 = DIRECTION ( 'NONE',  ( 0.000000000000000000, 0.000000000000000000, -1.000000000000000000 ) ) ;
#60 = CARTESIAN_POINT ( 'NONE',  ( -10.89338951290754309, -2.750000000000000000, 2.125914583612530367E-15 ) ) ;
#61 = CARTESIAN_POINT ( 'NONE',  ( -14.00000000000000000, 2.750000000000000000, -65.00000000000000000 ) ) ;
#62 = VERTEX_POINT ( 'NONE', #587 ) ;
#63 = DIRECTION ( 'NONE',  ( 0.000000000000000000, 1.000000000000000000, 0.000000000000000000 ) ) ;
#64 = EDGE_CURVE ( 'NONE', #702, #226, #319, .T. ) ;
#65 = EDGE_CURVE ( 'NONE', #888, #702, #433, .T. ) ;
#66 = CARTESIAN_POINT ( 'NONE',  ( 14.00000000000000000, 2.750000000000000000, -66.70000000000000284 ) ) ;
#67 = CIRCLE ( 'NONE', #706, 1.700000000000007061 ) ;
#68 = DIRECTION ( 'NONE',  ( 0.000000000000000000, 1.000000000000000000, 0.000000000000000000 ) ) ;
#69 = AXIS2_PLACEMENT_3D ( 'NONE', #495, #482, #329 ) ;
#70 = ORIENTED_EDGE ( 'NONE', *, *, #196, .T. ) ;
#71 = DIRECTION ( 'NONE',  ( 0.000000000000000000, 0.000000000000000000, 1.000000000000000000 ) ) ;
#72 = DIRECTION ( 'NONE',  ( -0.000000000000000000, 1.000000000000000000, -0.000000000000000000 ) ) ;
#73 = ADVANCED_FACE ( 'NONE', ( #330, #352, #708, #699, #1050, #269, #1035, #162, #259, #336, #680 ), #580, .T. ) ;
#74 = CYLINDRICAL_SURFACE ( 'NONE', #377, 3.999999999999996447 ) ;
#75 = CARTESIAN_POINT ( 'NONE',  ( -24.00000000000000000, -5.250000000000000000, 63.29999999999999716 ) ) ;
#76 = ORIENTED_EDGE ( 'NONE', *, *, #6, .T. ) ;
#77 = VECTOR ( 'NONE', #653, 1000.000000000000000 ) ;
#78 = CARTESIAN_POINT ( 'NONE',  ( 24.00000000000000000, 2.750000000000000000, -66.70000000000000284 ) ) ;
#79 = DIRECTION ( 'NONE',  ( 0.000000000000000000, 0.000000000000000000, 1.000000000000000000 ) ) ;
#80 = DIRECTION ( 'NONE',  ( -0.000000000000000000, 1.000000000000000000, -0.000000000000000000 ) ) ;
#81 = AXIS2_PLACEMENT_3D ( 'NONE', #240, #256, #758 ) ;
#82 = DIRECTION ( 'NONE',  ( 0.000000000000000000, 0.000000000000000000, 1.000000000000000000 ) ) ;
#83 = ORIENTED_EDGE ( 'NONE', *, *, #450, .T. ) ;
#84 = CARTESIAN_POINT ( 'NONE',  ( -18.89338951290754665, 2.750000000000000000, -40.00000000000000000 ) ) ;
#85 = AXIS2_PLACEMENT_3D ( 'NONE', #521, #441, #1068 ) ;
#86 = ORIENTED_EDGE ( 'NONE', *, *, #782, .T. ) ;
#87 = DIRECTION ( 'NONE',  ( 0.000000000000000000, 1.000000000000000000, 0.000000000000000000 ) ) ;
#88 = CARTESIAN_POINT ( 'NONE',  ( 0.000000000000000000, 2.750000000000000000, 0.000000000000000000 ) ) ;
#89 = ORIENTED_EDGE ( 'NONE', *, *, #994, .T. ) ;
#90 = ORIENTED_EDGE ( 'NONE', *, *, #1027, .F. ) ;
#91 = AXIS2_PLACEMENT_3D ( 'NONE', #567, #87, #703 ) ;
#92 = ORIENTED_EDGE ( 'NONE', *, *, #750, .T. ) ;
#93 = DIRECTION ( 'NONE',  ( 0.000000000000000000, 0.000000000000000000, 1.000000000000000000 ) ) ;
#94 = CARTESIAN_POINT ( 'NONE',  ( -14.89338951290753243, -2.750000000000000000, 40.00000000000000000 ) ) ;
#95 = EDGE_CURVE ( 'NONE', #712, #550, #421, .T. ) ;
#96 = EDGE_CURVE ( 'NONE', #906, #889, #965, .T. ) ;
#97 = ORIENTED_EDGE ( 'NONE', *, *, #478, .F. ) ;
#98 = ORIENTED_EDGE ( 'NONE', *, *, #497, .F. ) ;
#99 = ORIENTED_EDGE ( 'NONE', *, *, #182, .F. ) ;
#100 = DIRECTION ( 'NONE',  ( 0.000000000000000000, -1.000000000000000000, 0.000000000000000000 ) ) ;
#101 = ADVANCED_FACE ( 'NONE', ( #187 ), #557, .F. ) ;
#102 = AXIS2_PLACEMENT_3D ( 'NONE', #677, #1029, #935 ) ;
#103 = AXIS2_PLACEMENT_3D ( 'NONE', #937, #952, #168 ) ;
#104 = EDGE_LOOP ( 'NONE', ( #46, #12, #392, #1118 ) ) ;
#105 = CYLINDRICAL_SURFACE ( 'NONE', #781, 1.700000000000007061 ) ;
#106 = LINE ( 'NONE', #419, #964 ) ;
#107 = DIRECTION ( 'NONE',  ( 0.000000000000000000, -1.000000000000000000, 0.000000000000000000 ) ) ;
#108 = EDGE_LOOP ( 'NONE', ( #614, #788 ) ) ;
#109 = ORIENTED_EDGE ( 'NONE', *, *, #1120, .F. ) ;
#110 = EDGE_CURVE ( 'NONE', #652, #454, #869, .T. ) ;
#111 = LINE ( 'NONE', #987, #77 ) ;
#112 = AXIS2_PLACEMENT_3D ( 'NONE', #660, #1109, #839 ) ;
#113 = DIRECTION ( 'NONE',  ( 0.000000000000000000, 0.000000000000000000, -1.000000000000000000 ) ) ;
#114 = EDGE_LOOP ( 'NONE', ( #92, #216, #794, #787 ) ) ;
#115 = EDGE_CURVE ( 'NONE', #134, #296, #360, .T. ) ;
#116 = EDGE_LOOP ( 'NONE', ( #367, #643 ) ) ;
#117 = DIRECTION ( 'NONE',  ( 0.000000000000000000, 0.000000000000000000, -1.000000000000000000 ) ) ;
#118 = DIRECTION ( 'NONE',  ( -0.000000000000000000, 1.000000000000000000, -0.000000000000000000 ) ) ;
#119 = CYLINDRICAL_SURFACE ( 'NONE', #842, 1.700000000000007061 ) ;
#120 = SURFACE_STYLE_USAGE ( .BOTH. , #49 ) ;
#121 = VECTOR ( 'NONE', #206, 1000.000000000000000 ) ;
#122 = ORIENTED_EDGE ( 'NONE', *, *, #613, .F. ) ;
#123 = AXIS2_PLACEMENT_3D ( 'NONE', #774, #1112, #571 ) ;
#124 = CARTESIAN_POINT ( 'NONE',  ( 10.89338951290755020, 2.750000000000000000, -40.00000000000000000 ) ) ;
#125 = DIRECTION ( 'NONE',  ( -0.000000000000000000, 1.000000000000000000, -0.000000000000000000 ) ) ;
#126 = CARTESIAN_POINT ( 'NONE',  ( 24.00000000000000000, -5.250000000000000000, 65.00000000000000000 ) ) ;
#127 = FACE_BOUND ( 'NONE', #894, .T. ) ;
#128 = CARTESIAN_POINT ( 'NONE',  ( 14.89338951290753243, 2.750000000000000000, 40.00000000000000000 ) ) ;
#129 = ORIENTED_EDGE ( 'NONE', *, *, #710, .F. ) ;
#130 = DIRECTION ( 'NONE',  ( -0.000000000000000000, -1.000000000000000000, -0.000000000000000000 ) ) ;
#131 = ORIENTED_EDGE ( 'NONE', *, *, #396, .F. ) ;
#132 = ADVANCED_FACE ( 'NONE', ( #278 ), #721, .F. ) ;
#133 = ORIENTED_EDGE ( 'NONE', *, *, #1069, .F. ) ;
#134 = VERTEX_POINT ( 'NONE', #201 ) ;
#135 = DIRECTION ( 'NONE',  ( 0.000000000000000000, 0.000000000000000000, 1.000000000000000000 ) ) ;
#136 = ORIENTED_EDGE ( 'NONE', *, *, #585, .F. ) ;
#137 = MECHANICAL_DESIGN_GEOMETRIC_PRESENTATION_REPRESENTATION (  '', ( #751 ), #286 ) ;
#138 = FACE_OUTER_BOUND ( 'NONE', #784, .T. ) ;
#139 = VECTOR ( 'NONE', #673, 1000.000000000000000 ) ;
#140 = DIRECTION ( 'NONE',  ( 1.951563910473907981E-16, 0.000000000000000000, -1.000000000000000000 ) ) ;
#141 = AXIS2_PLACEMENT_3D ( 'NONE', #981, #266, #605 ) ;
#142 = CARTESIAN_POINT ( 'NONE',  ( -32.00000000000000000, -2.750000000000000000, 70.00000000000000000 ) ) ;
#143 = DIRECTION ( 'NONE',  ( -0.000000000000000000, 1.000000000000000000, -0.000000000000000000 ) ) ;
#144 = DIRECTION ( 'NONE',  ( -0.000000000000000000, -0.000000000000000000, 1.000000000000000000 ) ) ;
#145 = EDGE_CURVE ( 'NONE', #62, #361, #38, .T. ) ;
#146 = ADVANCED_FACE ( 'NONE', ( #223 ), #1006, .F. ) ;
#147 = DIRECTION ( 'NONE',  ( 0.000000000000000000, -1.000000000000000000, 0.000000000000000000 ) ) ;
#148 = FACE_OUTER_BOUND ( 'NONE', #873, .T. ) ;
#149 = ORIENTED_EDGE ( 'NONE', *, *, #955, .F. ) ;
#150 = DIRECTION ( 'NONE',  ( 0.000000000000000000, 1.000000000000000000, 0.000000000000000000 ) ) ;
#151 = CARTESIAN_POINT ( 'NONE',  ( -14.00000000000000000, -2.750000000000000000, -65.00000000000000000 ) ) ;
#152 = VECTOR ( 'NONE', #140, 1000.000000000000000 ) ;
#153 = CARTESIAN_POINT ( 'NONE',  ( -10.89338951290755020, 2.750000000000000000, -40.00000000000000000 ) ) ;
#154 = DIRECTION ( 'NONE',  ( 1.951563910473907981E-16, 0.000000000000000000, 1.000000000000000000 ) ) ;
#155 = CARTESIAN_POINT ( 'NONE',  ( -18.89338951290754665, -2.750000000000000000, -40.00000000000000000 ) ) ;
#156 = VECTOR ( 'NONE', #494, 1000.000000000000000 ) ;
#157 = VECTOR ( 'NONE', #1064, 1000.000000000000000 ) ;
#158 = CARTESIAN_POINT ( 'NONE',  ( 32.00000000000000000, 2.750000000000000000, 70.00000000000000000 ) ) ;
#159 = CARTESIAN_POINT ( 'NONE',  ( -14.89338951290754842, 2.750000000000000000, -40.00000000000000000 ) ) ;
#160 = CARTESIAN_POINT ( 'NONE',  ( 14.00000000000000000, -5.250000000000000000, 65.00000000000000000 ) ) ;
#161 =( GEOMETRIC_REPRESENTATION_CONTEXT ( 3 ) GLOBAL_UNCERTAINTY_ASSIGNED_CONTEXT ( ( #646 ) ) GLOBAL_UNIT_ASSIGNED_CONTEXT ( ( #733, #796, #727 ) ) REPRESENTATION_CONTEXT ( 'NONE', 'WORKASPACE' ) );
#162 = FACE_BOUND ( 'NONE', #513, .T. ) ;
#163 = CARTESIAN_POINT ( 'NONE',  ( 32.00000000000000000, 2.750000000000000000, 70.00000000000000000 ) ) ;
#164 = EDGE_CURVE ( 'NONE', #904, #822, #804, .T. ) ;
#165 = CYLINDRICAL_SURFACE ( 'NONE', #310, 3.999999999999996447 ) ;
#166 = CARTESIAN_POINT ( 'NONE',  ( 14.89338951290753243, -2.750000000000000000, 40.00000000000000000 ) ) ;
#167 = CARTESIAN_POINT ( 'NONE',  ( -24.00000000000000000, -2.750000000000000000, -65.00000000000000000 ) ) ;
#168 = DIRECTION ( 'NONE',  ( 0.000000000000000000, 0.000000000000000000, -1.000000000000000000 ) ) ;
#169 = ORIENTED_EDGE ( 'NONE', *, *, #115, .T. ) ;
#170 = EDGE_LOOP ( 'NONE', ( #184, #52, #770, #3 ) ) ;
#171 = CARTESIAN_POINT ( 'NONE',  ( -14.00000000000000000, -5.250000000000000000, -65.00000000000000000 ) ) ;
#172 = LINE ( 'NONE', #868, #938 ) ;
#173 = CIRCLE ( 'NONE', #41, 1.700000000000007061 ) ;
#174 = CARTESIAN_POINT ( 'NONE',  ( -14.00000000000000000, -2.750000000000000000, -65.00000000000000000 ) ) ;
#175 = CIRCLE ( 'NONE', #490, 1.700000000000007061 ) ;
#176 = ORIENTED_EDGE ( 'NONE', *, *, #110, .F. ) ;
#177 = EDGE_LOOP ( 'NONE', ( #53, #212, #195, #627 ) ) ;
#178 = FACE_OUTER_BOUND ( 'NONE', #698, .T. ) ;
#179 = CARTESIAN_POINT ( 'NONE',  ( -14.00000000000000000, -5.250000000000000000, 63.29999999999999716 ) ) ;
#180 = FACE_BOUND ( 'NONE', #619, .T. ) ;
#181 = EDGE_CURVE ( 'NONE', #23, #874, #651, .T. ) ;
#182 = EDGE_CURVE ( 'NONE', #40, #801, #1019, .T. ) ;
#183 = ORIENTED_EDGE ( 'NONE', *, *, #722, .T. ) ;
#184 = ORIENTED_EDGE ( 'NONE', *, *, #1086, .F. ) ;
#185 = CIRCLE ( 'NONE', #990, 1.700000000000007061 ) ;
#186 = ORIENTED_EDGE ( 'NONE', *, *, #370, .T. ) ;
#187 = FACE_OUTER_BOUND ( 'NONE', #378, .T. ) ;
#188 = PLANE ( 'NONE',  #215 ) ;
#189 = ORIENTED_EDGE ( 'NONE', *, *, #569, .T. ) ;
#190 = ADVANCED_BREP_SHAPE_REPRESENTATION ( '\X2\67b6\X0\', ( #675, #1125 ), #161 ) ;
#191 = ORIENTED_EDGE ( 'NONE', *, *, #1119, .T. ) ;
#192 = ORIENTED_EDGE ( 'NONE', *, *, #911, .F. ) ;
#193 = DIRECTION ( 'NONE',  ( 0.000000000000000000, 1.000000000000000000, -0.000000000000000000 ) ) ;
#194 = LINE ( 'NONE', #909, #768 ) ;
#195 = ORIENTED_EDGE ( 'NONE', *, *, #225, .T. ) ;
#196 = EDGE_CURVE ( 'NONE', #809, #606, #897, .T. ) ;
#197 = ORIENTED_EDGE ( 'NONE', *, *, #145, .T. ) ;
#198 = AXIS2_PLACEMENT_3D ( 'NONE', #1124, #593, #82 ) ;
#199 = VERTEX_POINT ( 'NONE', #798 ) ;
#200 = CARTESIAN_POINT ( 'NONE',  ( -14.00000000000000000, -5.250000000000000000, -66.70000000000000284 ) ) ;
#201 = CARTESIAN_POINT ( 'NONE',  ( 24.00000000000000000, -2.750000000000000000, -63.29999999999999716 ) ) ;
#202 = CARTESIAN_POINT ( 'NONE',  ( -14.89338951290753243, -2.750000000000000000, 44.00000000000000000 ) ) ;
#203 = EDGE_CURVE ( 'NONE', #555, #62, #510, .T. ) ;
#204 = ORIENTED_EDGE ( 'NONE', *, *, #341, .F. ) ;
#205 = ORIENTED_EDGE ( 'NONE', *, *, #835, .T. ) ;
#206 = DIRECTION ( 'NONE',  ( -1.951563910473907981E-16, 0.000000000000000000, 1.000000000000000000 ) ) ;
#207 = DIRECTION ( 'NONE',  ( 0.000000000000000000, 0.000000000000000000, 1.000000000000000000 ) ) ;
#208 = AXIS2_PLACEMENT_3D ( 'NONE', #514, #440, #789 ) ;
#209 = CARTESIAN_POINT ( 'NONE',  ( -14.00000000000000000, 2.750000000000000000, -65.00000000000000000 ) ) ;
#210 = ORIENTED_EDGE ( 'NONE', *, *, #412, .T. ) ;
#211 = EDGE_LOOP ( 'NONE', ( #338, #659, #335, #512 ) ) ;
#212 = ORIENTED_EDGE ( 'NONE', *, *, #808, .T. ) ;
#213 = FACE_BOUND ( 'NONE', #647, .T. ) ;
#214 = LINE ( 'NONE', #996, #445 ) ;
#215 = AXIS2_PLACEMENT_3D ( 'NONE', #88, #528, #591 ) ;
#216 = ORIENTED_EDGE ( 'NONE', *, *, #396, .T. ) ;
#217 = VECTOR ( 'NONE', #244, 1000.000000000000000 ) ;
#218 = FACE_BOUND ( 'NONE', #719, .T. ) ;
#219 = DIRECTION ( 'NONE',  ( 0.000000000000000000, 0.000000000000000000, -1.000000000000000000 ) ) ;
#220 = EDGE_CURVE ( 'NONE', #650, #882, #670, .T. ) ;
#221 = ADVANCED_FACE ( 'NONE', ( #365 ), #618, .F. ) ;
#222 = ORIENTED_EDGE ( 'NONE', *, *, #342, .T. ) ;
#223 = FACE_OUTER_BOUND ( 'NONE', #1101, .T. ) ;
#224 = VERTEX_POINT ( 'NONE', #515 ) ;
#225 = EDGE_CURVE ( 'NONE', #134, #476, #877, .T. ) ;
#226 = VERTEX_POINT ( 'NONE', #611 ) ;
#227 = CARTESIAN_POINT ( 'NONE',  ( -32.00000000000000000, 2.750000000000000000, -70.00000000000000000 ) ) ;
#228 = VECTOR ( 'NONE', #737, 1000.000000000000000 ) ;
#229 = EDGE_CURVE ( 'NONE', #476, #1024, #775, .T. ) ;
#230 = VECTOR ( 'NONE', #411, 1000.000000000000000 ) ;
#231 = DIRECTION ( 'NONE',  ( -0.000000000000000000, 1.000000000000000000, -0.000000000000000000 ) ) ;
#232 = AXIS2_PLACEMENT_3D ( 'NONE', #472, #1081, #305 ) ;
#233 = CARTESIAN_POINT ( 'NONE',  ( -14.00000000000000000, -2.750000000000000000, -63.29999999999999716 ) ) ;
#234 = FACE_OUTER_BOUND ( 'NONE', #177, .T. ) ;
#235 = AXIS2_PLACEMENT_3D ( 'NONE', #581, #941, #771 ) ;
#236 = CARTESIAN_POINT ( 'NONE',  ( -14.00000000000000000, 2.750000000000000000, -66.70000000000000284 ) ) ;
#237 = LINE ( 'NONE', #843, #488 ) ;
#238 = DIRECTION ( 'NONE',  ( 0.000000000000000000, 0.000000000000000000, 1.000000000000000000 ) ) ;
#239 = AXIS2_PLACEMENT_3D ( 'NONE', #820, #908, #542 ) ;
#240 = CARTESIAN_POINT ( 'NONE',  ( -14.89338951290753243, 2.750000000000000000, 40.00000000000000000 ) ) ;
#241 = AXIS2_PLACEMENT_3D ( 'NONE', #414, #759, #1089 ) ;
#242 = EDGE_CURVE ( 'NONE', #913, #376, #175, .T. ) ;
#243 = VECTOR ( 'NONE', #946, 1000.000000000000000 ) ;
#244 = DIRECTION ( 'NONE',  ( -1.000000000000000000, -0.000000000000000000, -0.000000000000000000 ) ) ;
#245 = LINE ( 'NONE', #153, #931 ) ;
#246 = DIRECTION ( 'NONE',  ( 0.000000000000000000, 0.000000000000000000, 1.000000000000000000 ) ) ;
#247 = LINE ( 'NONE', #681, #648 ) ;
#248 = DIRECTION ( 'NONE',  ( 0.000000000000000000, -1.000000000000000000, 0.000000000000000000 ) ) ;
#249 = CARTESIAN_POINT ( 'NONE',  ( 24.00000000000000000, 2.750000000000000000, 66.70000000000000284 ) ) ;
#250 = CIRCLE ( 'NONE', #1045, 1.700000000000007061 ) ;
#251 = ORIENTED_EDGE ( 'NONE', *, *, #669, .T. ) ;
#252 = DIRECTION ( 'NONE',  ( 0.000000000000000000, 0.000000000000000000, 1.000000000000000000 ) ) ;
#253 = FACE_OUTER_BOUND ( 'NONE', #985, .T. ) ;
#254 = ORIENTED_EDGE ( 'NONE', *, *, #741, .T. ) ;
#255 = CYLINDRICAL_SURFACE ( 'NONE', #572, 1.700000000000007061 ) ;
#256 = DIRECTION ( 'NONE',  ( 0.000000000000000000, 1.000000000000000000, 0.000000000000000000 ) ) ;
#257 = CYLINDRICAL_SURFACE ( 'NONE', #893, 1.700000000000007061 ) ;
#258 = ORIENTED_EDGE ( 'NONE', *, *, #655, .T. ) ;
#259 = FACE_BOUND ( 'NONE', #523, .T. ) ;
#260 = CARTESIAN_POINT ( 'NONE',  ( -18.89338951290754665, 2.750000000000000000, -40.00000000000000000 ) ) ;
#261 = CIRCLE ( 'NONE', #905, 3.999999999999996447 ) ;
#262 = EDGE_CURVE ( 'NONE', #366, #1007, #106, .T. ) ;
#263 = EDGE_CURVE ( 'NONE', #23, #609, #942, .T. ) ;
#264 = EDGE_LOOP ( 'NONE', ( #205, #303, #1096, #971 ) ) ;
#265 = DIRECTION ( 'NONE',  ( -0.000000000000000000, 1.000000000000000000, -0.000000000000000000 ) ) ;
#266 = DIRECTION ( 'NONE',  ( -1.000000000000000000, 0.000000000000000000, 1.734723475976807094E-16 ) ) ;
#267 = AXIS2_PLACEMENT_3D ( 'NONE', #410, #1122, #760 ) ;
#268 = ORIENTED_EDGE ( 'NONE', *, *, #993, .F. ) ;
#269 = FACE_BOUND ( 'NONE', #846, .T. ) ;
#270 = FACE_OUTER_BOUND ( 'NONE', #104, .T. ) ;
#271 = EDGE_CURVE ( 'NONE', #9, #916, #289, .T. ) ;
#272 = VERTEX_POINT ( 'NONE', #158 ) ;
#273 = ORIENTED_EDGE ( 'NONE', *, *, #634, .F. ) ;
#274 = DIRECTION ( 'NONE',  ( -0.000000000000000000, 1.000000000000000000, -0.000000000000000000 ) ) ;
#275 = VERTEX_POINT ( 'NONE', #236 ) ;
#276 = VERTEX_POINT ( 'NONE', #249 ) ;
#277 = CARTESIAN_POINT ( 'NONE',  ( 14.00000000000000000, -5.250000000000000000, -65.00000000000000000 ) ) ;
#278 = FACE_OUTER_BOUND ( 'NONE', #880, .T. ) ;
#279 =( LENGTH_UNIT ( ) NAMED_UNIT ( * ) SI_UNIT ( .MILLI., .METRE. ) );
#280 = ADVANCED_FACE ( 'NONE', ( #683 ), #257, .F. ) ;
#281 = EDGE_LOOP ( 'NONE', ( #779, #1065 ) ) ;
#282 = ORIENTED_EDGE ( 'NONE', *, *, #181, .F. ) ;
#283 = ORIENTED_EDGE ( 'NONE', *, *, #299, .F. ) ;
#284 = DIRECTION ( 'NONE',  ( 0.000000000000000000, 0.000000000000000000, 1.000000000000000000 ) ) ;
#285 = CARTESIAN_POINT ( 'NONE',  ( 14.89338951290753243, -7.250000000000000000, 40.00000000000000000 ) ) ;
#286 =( GEOMETRIC_REPRESENTATION_CONTEXT ( 3 ) GLOBAL_UNCERTAINTY_ASSIGNED_CONTEXT ( ( #742 ) ) GLOBAL_UNIT_ASSIGNED_CONTEXT ( ( #279, #389, #810 ) ) REPRESENTATION_CONTEXT ( 'NONE', 'WORKASPACE' ) );
#287 = ORIENTED_EDGE ( 'NONE', *, *, #64, .T. ) ;
#288 = AXIS2_PLACEMENT_3D ( 'NONE', #167, #328, #1126 ) ;
#289 = CIRCLE ( 'NONE', #103, 1.700000000000007061 ) ;
#290 = CARTESIAN_POINT ( 'NONE',  ( 14.00000000000000000, -2.750000000000000000, 63.29999999999999716 ) ) ;
#291 = CARTESIAN_POINT ( 'NONE',  ( 32.00000000000000000, -2.750000000000000000, 70.00000000000000000 ) ) ;
#292 = ORIENTED_EDGE ( 'NONE', *, *, #65, .T. ) ;
#293 = CARTESIAN_POINT ( 'NONE',  ( -18.89338951290753243, 2.750000000000000000, 40.00000000000000000 ) ) ;
#294 = DIRECTION ( 'NONE',  ( 0.000000000000000000, 0.000000000000000000, 1.000000000000000000 ) ) ;
#295 = AXIS2_PLACEMENT_3D ( 'NONE', #209, #498, #246 ) ;
#296 = VERTEX_POINT ( 'NONE', #1117 ) ;
#297 = ORIENTED_EDGE ( 'NONE', *, *, #491, .F. ) ;
#298 = ADVANCED_FACE ( 'NONE', ( #574 ), #861, .F. ) ;
#299 = EDGE_CURVE ( 'NONE', #424, #9, #1048, .T. ) ;
#300 = DIRECTION ( 'NONE',  ( 0.000000000000000000, -1.000000000000000000, 0.000000000000000000 ) ) ;
#301 = CARTESIAN_POINT ( 'NONE',  ( -14.00000000000000000, -2.750000000000000000, -66.70000000000000284 ) ) ;
#302 = AXIS2_PLACEMENT_3D ( 'NONE', #128, #821, #219 ) ;
#303 = ORIENTED_EDGE ( 'NONE', *, *, #782, .F. ) ;
#304 = ORIENTED_EDGE ( 'NONE', *, *, #895, .T. ) ;
#305 = DIRECTION ( 'NONE',  ( 0.000000000000000000, 0.000000000000000000, -1.000000000000000000 ) ) ;
#306 = AXIS2_PLACEMENT_3D ( 'NONE', #679, #1030, #238 ) ;
#307 = CARTESIAN_POINT ( 'NONE',  ( -24.00000000000000000, 2.750000000000000000, 65.00000000000000000 ) ) ;
#308 = VECTOR ( 'NONE', #274, 1000.000000000000000 ) ;
#309 = ORIENTED_EDGE ( 'NONE', *, *, #220, .F. ) ;
#310 = AXIS2_PLACEMENT_3D ( 'NONE', #803, #379, #284 ) ;
#311 = DIRECTION ( 'NONE',  ( -0.000000000000000000, 1.000000000000000000, -0.000000000000000000 ) ) ;
#312 = ADVANCED_FACE ( 'NONE', ( #148 ), #320, .F. ) ;
#313 = ORIENTED_EDGE ( 'NONE', *, *, #912, .T. ) ;
#314 = EDGE_CURVE ( 'NONE', #443, #276, #1034, .T. ) ;
#315 = CYLINDRICAL_SURFACE ( 'NONE', #899, 1.700000000000007061 ) ;
#316 = AXIS2_PLACEMENT_3D ( 'NONE', #151, #1023, #486 ) ;
#317 = DIRECTION ( 'NONE',  ( 0.000000000000000000, 0.000000000000000000, 1.000000000000000000 ) ) ;
#318 = CARTESIAN_POINT ( 'NONE',  ( -24.00000000000000000, 2.750000000000000000, -66.70000000000000284 ) ) ;
#319 = CIRCLE ( 'NONE', #479, 3.999999999999996447 ) ;
#320 = CYLINDRICAL_SURFACE ( 'NONE', #198, 1.700000000000007061 ) ;
#321 = CARTESIAN_POINT ( 'NONE',  ( 14.00000000000000000, 2.750000000000000000, -63.29999999999999716 ) ) ;
#322 = DIRECTION ( 'NONE',  ( 0.000000000000000000, 1.000000000000000000, 0.000000000000000000 ) ) ;
#323 = CARTESIAN_POINT ( 'NONE',  ( 14.89338951290753243, 2.750000000000000000, 44.00000000000000000 ) ) ;
#324 = AXIS2_PLACEMENT_3D ( 'NONE', #171, #311, #506 ) ;
#325 = CYLINDRICAL_SURFACE ( 'NONE', #306, 1.700000000000007061 ) ;
#326 = DIRECTION ( 'NONE',  ( 0.000000000000000000, 0.000000000000000000, 1.000000000000000000 ) ) ;
#327 = EDGE_CURVE ( 'NONE', #716, #272, #840, .T. ) ;
#328 = DIRECTION ( 'NONE',  ( 0.000000000000000000, -1.000000000000000000, 0.000000000000000000 ) ) ;
#329 = DIRECTION ( 'NONE',  ( 1.000000000000000000, 0.000000000000000000, -0.000000000000000000 ) ) ;
#330 = FACE_BOUND ( 'NONE', #818, .T. ) ;
#331 = CIRCLE ( 'NONE', #860, 1.700000000000007061 ) ;
#332 = DIRECTION ( 'NONE',  ( 0.000000000000000000, -1.000000000000000000, 0.000000000000000000 ) ) ;
#333 = CARTESIAN_POINT ( 'NONE',  ( -24.00000000000000000, -2.750000000000000000, 65.00000000000000000 ) ) ;
#334 = LINE ( 'NONE', #689, #816 ) ;
#335 = ORIENTED_EDGE ( 'NONE', *, *, #544, .T. ) ;
#336 = FACE_BOUND ( 'NONE', #992, .T. ) ;
#337 = CARTESIAN_POINT ( 'NONE',  ( -14.00000000000000000, 2.750000000000000000, 63.29999999999999716 ) ) ;
#338 = ORIENTED_EDGE ( 'NONE', *, *, #1069, .T. ) ;
#339 = CARTESIAN_POINT ( 'NONE',  ( -18.89338951290753954, -2.750000000000000000, 3.277480632881471879E-15 ) ) ;
#340 = DIRECTION ( 'NONE',  ( -0.000000000000000000, 1.000000000000000000, -0.000000000000000000 ) ) ;
#341 = EDGE_CURVE ( 'NONE', #366, #705, #173, .T. ) ;
#342 = EDGE_CURVE ( 'NONE', #674, #709, #334, .T. ) ;
#343 = CARTESIAN_POINT ( 'NONE',  ( -32.00000000000000000, -2.750000000000000000, -70.00000000000000000 ) ) ;
#344 = VECTOR ( 'NONE', #125, 1000.000000000000000 ) ;
#345 = CARTESIAN_POINT ( 'NONE',  ( -14.00000000000000000, -5.250000000000000000, 66.70000000000000284 ) ) ;
#346 = ORIENTED_EDGE ( 'NONE', *, *, #484, .F. ) ;
#347 = ORIENTED_EDGE ( 'NONE', *, *, #628, .T. ) ;
#348 = FACE_OUTER_BOUND ( 'NONE', #1110, .T. ) ;
#349 = DIRECTION ( 'NONE',  ( 0.000000000000000000, 0.000000000000000000, -1.000000000000000000 ) ) ;
#350 = ADVANCED_FACE ( 'NONE', ( #431 ), #1127, .F. ) ;
#351 = ORIENTED_EDGE ( 'NONE', *, *, #463, .F. ) ;
#352 = FACE_BOUND ( 'NONE', #739, .T. ) ;
#353 = CARTESIAN_POINT ( 'NONE',  ( 32.00000000000000000, 2.750000000000000000, 70.00000000000000000 ) ) ;
#354 = ORIENTED_EDGE ( 'NONE', *, *, #688, .F. ) ;
#355 = CIRCLE ( 'NONE', #831, 1.700000000000007061 ) ;
#356 = ORIENTED_EDGE ( 'NONE', *, *, #922, .T. ) ;
#357 = DIRECTION ( 'NONE',  ( 1.000000000000000000, 0.000000000000000000, 0.000000000000000000 ) ) ;
#358 = CARTESIAN_POINT ( 'NONE',  ( 24.00000000000000000, -5.250000000000000000, -63.29999999999999716 ) ) ;
#359 = VECTOR ( 'NONE', #1047, 1000.000000000000000 ) ;
#360 = CIRCLE ( 'NONE', #731, 1.700000000000007061 ) ;
#361 = VERTEX_POINT ( 'NONE', #586 ) ;
#362 = ORIENTED_EDGE ( 'NONE', *, *, #6, .F. ) ;
#363 = ORIENTED_EDGE ( 'NONE', *, *, #27, .F. ) ;
#364 = DIRECTION ( 'NONE',  ( -0.000000000000000000, 1.000000000000000000, -0.000000000000000000 ) ) ;
#365 = FACE_OUTER_BOUND ( 'NONE', #449, .T. ) ;
#366 = VERTEX_POINT ( 'NONE', #777 ) ;
#367 = ORIENTED_EDGE ( 'NONE', *, *, #922, .F. ) ;
#368 = CARTESIAN_POINT ( 'NONE',  ( 14.89338951290754842, -2.750000000000000000, -40.00000000000000000 ) ) ;
#369 = SURFACE_STYLE_FILL_AREA ( #903 ) ;
#370 = EDGE_CURVE ( 'NONE', #606, #550, #8, .T. ) ;
#371 = ORIENTED_EDGE ( 'NONE', *, *, #27, .T. ) ;
#372 = CARTESIAN_POINT ( 'NONE',  ( 24.00000000000000000, -5.250000000000000000, -66.70000000000000284 ) ) ;
#373 = LINE ( 'NONE', #520, #1011 ) ;
#374 = DIRECTION ( 'NONE',  ( -0.000000000000000000, -1.000000000000000000, -0.000000000000000000 ) ) ;
#375 = DIRECTION ( 'NONE',  ( 0.000000000000000000, -1.000000000000000000, 0.000000000000000000 ) ) ;
#376 = VERTEX_POINT ( 'NONE', #66 ) ;
#377 = AXIS2_PLACEMENT_3D ( 'NONE', #417, #850, #71 ) ;
#378 = EDGE_LOOP ( 'NONE', ( #829, #492, #254, #757 ) ) ;
#379 = DIRECTION ( 'NONE',  ( -0.000000000000000000, 1.000000000000000000, -0.000000000000000000 ) ) ;
#380 = FACE_OUTER_BOUND ( 'NONE', #707, .T. ) ;
#381 = ORIENTED_EDGE ( 'NONE', *, *, #994, .F. ) ;
#382 = EDGE_CURVE ( 'NONE', #40, #786, #406, .T. ) ;
#383 = EDGE_CURVE ( 'NONE', #1062, #637, #666, .T. ) ;
#384 = CIRCLE ( 'NONE', #295, 1.700000000000007061 ) ;
#385 = PRESENTATION_STYLE_ASSIGNMENT (( #120 ) ) ;
#386 = ADVANCED_FACE ( 'NONE', ( #844 ), #325, .F. ) ;
#387 = ORIENTED_EDGE ( 'NONE', *, *, #617, .F. ) ;
#388 = ORIENTED_EDGE ( 'NONE', *, *, #612, .F. ) ;
#389 =( NAMED_UNIT ( * ) PLANE_ANGLE_UNIT ( ) SI_UNIT ( $, .RADIAN. ) );
#390 = LINE ( 'NONE', #558, #551 ) ;
#391 = CIRCLE ( 'NONE', #1032, 1.700000000000007061 ) ;
#392 = ORIENTED_EDGE ( 'NONE', *, *, #271, .T. ) ;
#393 = EDGE_LOOP ( 'NONE', ( #268, #464, #35, #287 ) ) ;
#394 = ORIENTED_EDGE ( 'NONE', *, *, #960, .F. ) ;
#395 = VECTOR ( 'NONE', #113, 1000.000000000000000 ) ;
#396 = EDGE_CURVE ( 'NONE', #1053, #778, #579, .T. ) ;
#397 = CIRCLE ( 'NONE', #678, 1.700000000000007061 ) ;
#398 = FACE_OUTER_BOUND ( 'NONE', #1077, .T. ) ;
#399 = CARTESIAN_POINT ( 'NONE',  ( -24.00000000000000000, -5.250000000000000000, 65.00000000000000000 ) ) ;
#400 = DIRECTION ( 'NONE',  ( 0.000000000000000000, 0.000000000000000000, 1.000000000000000000 ) ) ;
#401 = DIRECTION ( 'NONE',  ( 0.000000000000000000, 0.000000000000000000, -1.000000000000000000 ) ) ;
#402 = CARTESIAN_POINT ( 'NONE',  ( -14.00000000000000000, 2.750000000000000000, -63.29999999999999716 ) ) ;
#403 = DIRECTION ( 'NONE',  ( -1.000000000000000000, 0.000000000000000000, -0.000000000000000000 ) ) ;
#404 = DIRECTION ( 'NONE',  ( 0.000000000000000000, 0.000000000000000000, -1.000000000000000000 ) ) ;
#405 = CIRCLE ( 'NONE', #239, 1.700000000000007061 ) ;
#406 = LINE ( 'NONE', #855, #139 ) ;
#407 = ORIENTED_EDGE ( 'NONE', *, *, #370, .F. ) ;
#408 = DIRECTION ( 'NONE',  ( 0.000000000000000000, 0.000000000000000000, 1.000000000000000000 ) ) ;
#409 = LINE ( 'NONE', #598, #156 ) ;
#410 = CARTESIAN_POINT ( 'NONE',  ( -24.00000000000000000, 2.750000000000000000, -65.00000000000000000 ) ) ;
#411 = DIRECTION ( 'NONE',  ( 1.000000000000000000, 0.000000000000000000, 0.000000000000000000 ) ) ;
#412 = EDGE_CURVE ( 'NONE', #471, #1007, #428, .T. ) ;
#413 = ADVANCED_FACE ( 'NONE', ( #418 ), #765, .F. ) ;
#414 = CARTESIAN_POINT ( 'NONE',  ( -14.00000000000000000, 2.750000000000000000, 65.00000000000000000 ) ) ;
#415 = ADVANCED_FACE ( 'NONE', ( #398 ), #500, .F. ) ;
#416 = DIRECTION ( 'NONE',  ( 0.000000000000000000, -1.000000000000000000, 0.000000000000000000 ) ) ;
#417 = CARTESIAN_POINT ( 'NONE',  ( -14.89338951290754842, -7.250000000000000000, -40.00000000000000000 ) ) ;
#418 = FACE_OUTER_BOUND ( 'NONE', #264, .T. ) ;
#419 = CARTESIAN_POINT ( 'NONE',  ( -24.00000000000000000, -5.250000000000000000, -63.29999999999999716 ) ) ;
#420 = DIRECTION ( 'NONE',  ( 0.000000000000000000, 0.000000000000000000, 1.000000000000000000 ) ) ;
#421 = LINE ( 'NONE', #691, #28 ) ;
#422 = CIRCLE ( 'NONE', #1097, 1.700000000000007061 ) ;
#423 = DIRECTION ( 'NONE',  ( 0.000000000000000000, 0.000000000000000000, 1.000000000000000000 ) ) ;
#424 = VERTEX_POINT ( 'NONE', #776 ) ;
#425 = PLANE ( 'NONE',  #50 ) ;
#426 = CARTESIAN_POINT ( 'NONE',  ( 24.00000000000000000, 2.750000000000000000, -63.29999999999999716 ) ) ;
#427 = DIRECTION ( 'NONE',  ( 0.000000000000000000, 0.000000000000000000, 1.000000000000000000 ) ) ;
#428 = CIRCLE ( 'NONE', #267, 1.700000000000007061 ) ;
#429 = EDGE_CURVE ( 'NONE', #705, #366, #1017, .T. ) ;
#430 = VECTOR ( 'NONE', #452, 1000.000000000000000 ) ;
#431 = FACE_OUTER_BOUND ( 'NONE', #884, .T. ) ;
#432 = ORIENTED_EDGE ( 'NONE', *, *, #792, .F. ) ;
#433 = LINE ( 'NONE', #84, #833 ) ;
#434 = EDGE_LOOP ( 'NONE', ( #54, #1004, #575, #356 ) ) ;
#435 = LINE ( 'NONE', #773, #1025 ) ;
#436 = VECTOR ( 'NONE', #885, 1000.000000000000000 ) ;
#437 = AXIS2_PLACEMENT_3D ( 'NONE', #174, #658, #921 ) ;
#438 = CYLINDRICAL_SURFACE ( 'NONE', #235, 1.700000000000007061 ) ;
#439 = VERTEX_POINT ( 'NONE', #1022 ) ;
#440 = DIRECTION ( 'NONE',  ( -0.000000000000000000, 1.000000000000000000, -0.000000000000000000 ) ) ;
#441 = DIRECTION ( 'NONE',  ( -1.000000000000000000, 0.000000000000000000, -1.951563910473907981E-16 ) ) ;
#442 = DIRECTION ( 'NONE',  ( 1.000000000000000000, 0.000000000000000000, 0.000000000000000000 ) ) ;
#443 = VERTEX_POINT ( 'NONE', #858 ) ;
#444 = CARTESIAN_POINT ( 'NONE',  ( 24.00000000000000000, -5.250000000000000000, -65.00000000000000000 ) ) ;
#445 = VECTOR ( 'NONE', #549, 1000.000000000000000 ) ;
#446 = CARTESIAN_POINT ( 'NONE',  ( 24.00000000000000000, 2.750000000000000000, -65.00000000000000000 ) ) ;
#447 = CIRCLE ( 'NONE', #102, 1.700000000000007061 ) ;
#448 = AXIS2_PLACEMENT_3D ( 'NONE', #94, #100, #21 ) ;
#449 = EDGE_LOOP ( 'NONE', ( #862, #531, #292, #602 ) ) ;
#450 = EDGE_CURVE ( 'NONE', #424, #961, #772, .T. ) ;
#451 = ORIENTED_EDGE ( 'NONE', *, *, #468, .T. ) ;
#452 = DIRECTION ( 'NONE',  ( -0.000000000000000000, 1.000000000000000000, -0.000000000000000000 ) ) ;
#453 = CARTESIAN_POINT ( 'NONE',  ( 14.89338951290753243, 2.750000000000000000, 40.00000000000000000 ) ) ;
#454 = VERTEX_POINT ( 'NONE', #590 ) ;
#455 = AXIS2_PLACEMENT_3D ( 'NONE', #466, #458, #1073 ) ;
#456 = ORIENTED_EDGE ( 'NONE', *, *, #802, .F. ) ;
#457 = LINE ( 'NONE', #372, #975 ) ;
#458 = DIRECTION ( 'NONE',  ( 1.000000000000000000, 0.000000000000000000, -1.951563910473907981E-16 ) ) ;
#459 = DIRECTION ( 'NONE',  ( 0.000000000000000000, 0.000000000000000000, -1.000000000000000000 ) ) ;
#460 = ORIENTED_EDGE ( 'NONE', *, *, #1129, .F. ) ;
#461 = DIRECTION ( 'NONE',  ( -0.000000000000000000, -0.000000000000000000, 1.000000000000000000 ) ) ;
#462 = ADVANCED_FACE ( 'NONE', ( #234 ), #933, .F. ) ;
#463 = EDGE_CURVE ( 'NONE', #199, #674, #845, .T. ) ;
#464 = ORIENTED_EDGE ( 'NONE', *, *, #220, .T. ) ;
#465 = AXIS2_PLACEMENT_3D ( 'NONE', #1016, #686, #403 ) ;
#466 = CARTESIAN_POINT ( 'NONE',  ( -10.89338951290755020, -7.250000000000000000, -40.00000000000000000 ) ) ;
#467 = CARTESIAN_POINT ( 'NONE',  ( -24.00000000000000000, -2.750000000000000000, 65.00000000000000000 ) ) ;
#468 = EDGE_CURVE ( 'NONE', #1057, #439, #944, .T. ) ;
#469 = ORIENTED_EDGE ( 'NONE', *, *, #871, .F. ) ;
#470 = CARTESIAN_POINT ( 'NONE',  ( 14.00000000000000000, -2.750000000000000000, 65.00000000000000000 ) ) ;
#471 = VERTEX_POINT ( 'NONE', #318 ) ;
#472 = CARTESIAN_POINT ( 'NONE',  ( -32.00000000000000000, 2.750000000000000000, 70.00000000000000000 ) ) ;
#473 = EDGE_LOOP ( 'NONE', ( #18, #977, #667, #511 ) ) ;
#474 = DIRECTION ( 'NONE',  ( 0.000000000000000000, 0.000000000000000000, 1.000000000000000000 ) ) ;
#475 = AXIS2_PLACEMENT_3D ( 'NONE', #1080, #907, #117 ) ;
#476 = VERTEX_POINT ( 'NONE', #426 ) ;
#477 = VERTEX_POINT ( 'NONE', #507 ) ;
#478 = EDGE_CURVE ( 'NONE', #555, #888, #247, .T. ) ;
#479 = AXIS2_PLACEMENT_3D ( 'NONE', #17, #762, #252 ) ;
#480 = CARTESIAN_POINT ( 'NONE',  ( -10.89338951290753421, -2.750000000000000000, 40.00000000000000000 ) ) ;
#481 = DIRECTION ( 'NONE',  ( 0.000000000000000000, 0.000000000000000000, 1.000000000000000000 ) ) ;
#482 = DIRECTION ( 'NONE',  ( 0.000000000000000000, 0.000000000000000000, 1.000000000000000000 ) ) ;
#483 = DIRECTION ( 'NONE',  ( 0.000000000000000000, 0.000000000000000000, -1.000000000000000000 ) ) ;
#484 = EDGE_CURVE ( 'NONE', #226, #778, #604, .T. ) ;
#485 = EDGE_CURVE ( 'NONE', #889, #887, #1002, .T. ) ;
#486 = DIRECTION ( 'NONE',  ( 0.000000000000000000, 0.000000000000000000, -1.000000000000000000 ) ) ;
#487 = DIRECTION ( 'NONE',  ( -1.951563910473907981E-16, -0.000000000000000000, -1.000000000000000000 ) ) ;
#488 = VECTOR ( 'NONE', #340, 1000.000000000000000 ) ;
#489 = FACE_OUTER_BOUND ( 'NONE', #841, .T. ) ;
#490 = AXIS2_PLACEMENT_3D ( 'NONE', #1005, #193, #891 ) ;
#491 = EDGE_CURVE ( 'NONE', #439, #276, #756, .T. ) ;
#492 = ORIENTED_EDGE ( 'NONE', *, *, #382, .T. ) ;
#493 = CARTESIAN_POINT ( 'NONE',  ( 24.00000000000000000, -5.250000000000000000, 66.70000000000000284 ) ) ;
#494 = DIRECTION ( 'NONE',  ( -0.000000000000000000, -1.000000000000000000, -0.000000000000000000 ) ) ;
#495 = CARTESIAN_POINT ( 'NONE',  ( -32.00000000000000000, 2.750000000000000000, -70.00000000000000000 ) ) ;
#496 = DIRECTION ( 'NONE',  ( 0.000000000000000000, -1.000000000000000000, 0.000000000000000000 ) ) ;
#497 = EDGE_CURVE ( 'NONE', #801, #822, #237, .T. ) ;
#498 = DIRECTION ( 'NONE',  ( 0.000000000000000000, 1.000000000000000000, 0.000000000000000000 ) ) ;
#499 = CARTESIAN_POINT ( 'NONE',  ( 24.00000000000000000, -5.250000000000000000, 63.29999999999999716 ) ) ;
#500 = CYLINDRICAL_SURFACE ( 'NONE', #24, 3.999999999999996447 ) ;
#501 = DIRECTION ( 'NONE',  ( 0.000000000000000000, 0.000000000000000000, -1.000000000000000000 ) ) ;
#502 = ORIENTED_EDGE ( 'NONE', *, *, #612, .T. ) ;
#503 = DIRECTION ( 'NONE',  ( -0.000000000000000000, 1.000000000000000000, -0.000000000000000000 ) ) ;
#504 = EDGE_CURVE ( 'NONE', #361, #888, #730, .T. ) ;
#505 = ORIENTED_EDGE ( 'NONE', *, *, #164, .T. ) ;
#506 = DIRECTION ( 'NONE',  ( 0.000000000000000000, 0.000000000000000000, 1.000000000000000000 ) ) ;
#507 = CARTESIAN_POINT ( 'NONE',  ( -14.00000000000000000, 2.750000000000000000, 66.70000000000000284 ) ) ;
#508 = AXIS2_PLACEMENT_3D ( 'NONE', #752, #950, #79 ) ;
#509 = FACE_BOUND ( 'NONE', #281, .T. ) ;
#510 = CIRCLE ( 'NONE', #45, 3.999999999999996447 ) ;
#511 = ORIENTED_EDGE ( 'NONE', *, *, #668, .F. ) ;
#512 = ORIENTED_EDGE ( 'NONE', *, *, #895, .F. ) ;
#513 = EDGE_LOOP ( 'NONE', ( #381, #354 ) ) ;
#514 = CARTESIAN_POINT ( 'NONE',  ( -14.89338951290753243, -7.250000000000000000, 40.00000000000000000 ) ) ;
#515 = CARTESIAN_POINT ( 'NONE',  ( 18.89338951290753243, -2.750000000000000000, 40.00000000000000000 ) ) ;
#516 = CIRCLE ( 'NONE', #91, 1.700000000000007061 ) ;
#517 = EDGE_LOOP ( 'NONE', ( #70, #1000, #601, #86 ) ) ;
#518 = ORIENTED_EDGE ( 'NONE', *, *, #497, .T. ) ;
#519 = VERTEX_POINT ( 'NONE', #402 ) ;
#520 = CARTESIAN_POINT ( 'NONE',  ( -32.00000000000000000, -2.750000000000000000, 70.00000000000000000 ) ) ;
#521 = CARTESIAN_POINT ( 'NONE',  ( 10.89338951290755020, -7.250000000000000000, -40.00000000000000000 ) ) ;
#522 = EDGE_CURVE ( 'NONE', #961, #916, #957, .T. ) ;
#523 = EDGE_LOOP ( 'NONE', ( #456, #176 ) ) ;
#524 = ORIENTED_EDGE ( 'NONE', *, *, #504, .F. ) ;
#525 = CIRCLE ( 'NONE', #475, 3.999999999999996447 ) ;
#526 = ORIENTED_EDGE ( 'NONE', *, *, #64, .F. ) ;
#527 = CARTESIAN_POINT ( 'NONE',  ( 14.00000000000000000, -5.250000000000000000, 66.70000000000000284 ) ) ;
#528 = DIRECTION ( 'NONE',  ( 0.000000000000000000, -1.000000000000000000, 0.000000000000000000 ) ) ;
#529 = EDGE_LOOP ( 'NONE', ( #89, #644, #656, #559 ) ) ;
#530 = EDGE_LOOP ( 'NONE', ( #1079, #827, #795, #991, #273 ) ) ;
#531 = ORIENTED_EDGE ( 'NONE', *, *, #478, .T. ) ;
#532 = FACE_OUTER_BOUND ( 'NONE', #170, .T. ) ;
#533 = DIRECTION ( 'NONE',  ( 0.000000000000000000, 0.000000000000000000, -1.000000000000000000 ) ) ;
#534 = CARTESIAN_POINT ( 'NONE',  ( 24.00000000000000000, -2.750000000000000000, -65.00000000000000000 ) ) ;
#535 = CARTESIAN_POINT ( 'NONE',  ( 32.00000000000000000, 2.750000000000000000, -70.00000000000000000 ) ) ;
#536 = EDGE_LOOP ( 'NONE', ( #830, #552 ) ) ;
#537 = CIRCLE ( 'NONE', #437, 1.700000000000007061 ) ;
#538 = ORIENTED_EDGE ( 'NONE', *, *, #429, .F. ) ;
#539 = EDGE_CURVE ( 'NONE', #716, #1049, #409, .T. ) ;
#540 = PRODUCT_CONTEXT ( 'NONE', #767, 'mechanical' ) ;
#541 = EDGE_CURVE ( 'NONE', #882, #702, #172, .T. ) ;
#542 = DIRECTION ( 'NONE',  ( 0.000000000000000000, 0.000000000000000000, -1.000000000000000000 ) ) ;
#543 = VERTEX_POINT ( 'NONE', #323 ) ;
#544 = EDGE_CURVE ( 'NONE', #874, #477, #447, .T. ) ;
#545 = AXIS2_PLACEMENT_3D ( 'NONE', #48, #375, #624 ) ;
#546 = CARTESIAN_POINT ( 'NONE',  ( -32.00000000000000000, 2.750000000000000000, 70.00000000000000000 ) ) ;
#547 = FACE_OUTER_BOUND ( 'NONE', #114, .T. ) ;
#548 = CARTESIAN_POINT ( 'NONE',  ( -14.00000000000000000, -5.250000000000000000, 65.00000000000000000 ) ) ;
#549 = DIRECTION ( 'NONE',  ( -1.734723475976807094E-16, 0.000000000000000000, 1.000000000000000000 ) ) ;
#550 = VERTEX_POINT ( 'NONE', #577 ) ;
#551 = VECTOR ( 'NONE', #144, 1000.000000000000000 ) ;
#552 = ORIENTED_EDGE ( 'NONE', *, *, #450, .F. ) ;
#553 = DIRECTION ( 'NONE',  ( 0.000000000000000000, 0.000000000000000000, -1.000000000000000000 ) ) ;
#554 = FILL_AREA_STYLE_COLOUR ( '', #561 ) ;
#555 = VERTEX_POINT ( 'NONE', #155 ) ;
#556 = ORIENTED_EDGE ( 'NONE', *, *, #182, .T. ) ;
#557 = PLANE ( 'NONE',  #85 ) ;
#558 = CARTESIAN_POINT ( 'NONE',  ( -32.00000000000000000, 2.750000000000000000, 70.00000000000000000 ) ) ;
#559 = ORIENTED_EDGE ( 'NONE', *, *, #96, .F. ) ;
#560 = ADVANCED_FACE ( 'NONE', ( #489 ), #74, .F. ) ;
#561 = COLOUR_RGB ( '',0.7921568627450980005, 0.8196078431372548767, 0.9333333333333333481 ) ;
#562 = FACE_OUTER_BOUND ( 'NONE', #473, .T. ) ;
#563 = VECTOR ( 'NONE', #1039, 1000.000000000000000 ) ;
#564 = DIRECTION ( 'NONE',  ( 0.000000000000000000, -1.000000000000000000, 0.000000000000000000 ) ) ;
#565 = ORIENTED_EDGE ( 'NONE', *, *, #412, .F. ) ;
#566 = AXIS2_PLACEMENT_3D ( 'NONE', #939, #496, #856 ) ;
#567 = CARTESIAN_POINT ( 'NONE',  ( 24.00000000000000000, 2.750000000000000000, 65.00000000000000000 ) ) ;
#568 = LINE ( 'NONE', #57, #152 ) ;
#569 = EDGE_CURVE ( 'NONE', #477, #874, #744, .T. ) ;
#570 = PRODUCT_DEFINITION ( 'æœ', '', #1106, #1105 ) ;
#571 = DIRECTION ( 'NONE',  ( 0.000000000000000000, 0.000000000000000000, 1.000000000000000000 ) ) ;
#572 = AXIS2_PLACEMENT_3D ( 'NONE', #399, #857, #93 ) ;
#573 = DIRECTION ( 'NONE',  ( -0.000000000000000000, 1.000000000000000000, -0.000000000000000000 ) ) ;
#574 = FACE_OUTER_BOUND ( 'NONE', #529, .T. ) ;
#575 = ORIENTED_EDGE ( 'NONE', *, *, #668, .T. ) ;
#576 = EDGE_CURVE ( 'NONE', #887, #889, #625, .T. ) ;
#577 = CARTESIAN_POINT ( 'NONE',  ( -32.00000000000000000, -2.750000000000000000, -70.00000000000000000 ) ) ;
#578 = CIRCLE ( 'NONE', #545, 1.700000000000007061 ) ;
#579 = LINE ( 'NONE', #851, #1098 ) ;
#580 = PLANE ( 'NONE',  #566 ) ;
#581 = CARTESIAN_POINT ( 'NONE',  ( -24.00000000000000000, -5.250000000000000000, 65.00000000000000000 ) ) ;
#582 = CARTESIAN_POINT ( 'NONE',  ( -24.00000000000000000, 2.750000000000000000, -65.00000000000000000 ) ) ;
#583 = DIRECTION ( 'NONE',  ( 0.000000000000000000, -1.000000000000000000, 0.000000000000000000 ) ) ;
#584 = AXIS2_PLACEMENT_3D ( 'NONE', #687, #248, #697 ) ;
#585 = EDGE_CURVE ( 'NONE', #376, #913, #1078, .T. ) ;
#586 = CARTESIAN_POINT ( 'NONE',  ( -10.89338951290755020, 2.750000000000000000, -40.00000000000000000 ) ) ;
#587 = CARTESIAN_POINT ( 'NONE',  ( -10.89338951290755020, -2.750000000000000000, -40.00000000000000000 ) ) ;
#588 = DIRECTION ( 'NONE',  ( -0.000000000000000000, 1.000000000000000000, -0.000000000000000000 ) ) ;
#589 = CYLINDRICAL_SURFACE ( 'NONE', #324, 1.700000000000007061 ) ;
#590 = CARTESIAN_POINT ( 'NONE',  ( 14.00000000000000000, -2.750000000000000000, -63.29999999999999716 ) ) ;
#591 = DIRECTION ( 'NONE',  ( 0.000000000000000000, -0.000000000000000000, -1.000000000000000000 ) ) ;
#592 = CIRCLE ( 'NONE', #112, 3.999999999999996447 ) ;
#593 = DIRECTION ( 'NONE',  ( -0.000000000000000000, 1.000000000000000000, -0.000000000000000000 ) ) ;
#594 = EDGE_LOOP ( 'NONE', ( #258, #718, #505, #98 ) ) ;
#595 = LINE ( 'NONE', #345, #1091 ) ;
#596 = ORIENTED_EDGE ( 'NONE', *, *, #522, .T. ) ;
#597 = DIRECTION ( 'NONE',  ( 1.000000000000000000, 0.000000000000000000, 1.734723475976807094E-16 ) ) ;
#598 = CARTESIAN_POINT ( 'NONE',  ( -32.00000000000000000, 2.750000000000000000, 70.00000000000000000 ) ) ;
#599 = DIRECTION ( 'NONE',  ( 0.000000000000000000, 0.000000000000000000, 1.000000000000000000 ) ) ;
#600 = CARTESIAN_POINT ( 'NONE',  ( -14.00000000000000000, -5.250000000000000000, 65.00000000000000000 ) ) ;
#601 = ORIENTED_EDGE ( 'NONE', *, *, #912, .F. ) ;
#602 = ORIENTED_EDGE ( 'NONE', *, *, #541, .F. ) ;
#603 = CARTESIAN_POINT ( 'NONE',  ( 18.89338951290754665, -7.250000000000000000, -40.00000000000000000 ) ) ;
#604 = CIRCLE ( 'NONE', #81, 3.999999999999996447 ) ;
#605 = DIRECTION ( 'NONE',  ( 1.734723475976807094E-16, 0.000000000000000000, 1.000000000000000000 ) ) ;
#606 = VERTEX_POINT ( 'NONE', #664 ) ;
#607 = DIRECTION ( 'NONE',  ( 0.000000000000000000, 0.000000000000000000, 1.000000000000000000 ) ) ;
#608 = EDGE_LOOP ( 'NONE', ( #460, #901, #1013, #615 ) ) ;
#609 = VERTEX_POINT ( 'NONE', #929 ) ;
#610 = LINE ( 'NONE', #200, #948 ) ;
#611 = CARTESIAN_POINT ( 'NONE',  ( -14.89338951290753243, 2.750000000000000000, 44.00000000000000000 ) ) ;
#612 = EDGE_CURVE ( 'NONE', #712, #716, #390, .T. ) ;
#613 = EDGE_CURVE ( 'NONE', #674, #40, #568, .T. ) ;
#614 = ORIENTED_EDGE ( 'NONE', *, *, #115, .F. ) ;
#615 = ORIENTED_EDGE ( 'NONE', *, *, #485, .T. ) ;
#616 = EDGE_LOOP ( 'NONE', ( #1042, #813, #1056, #972 ) ) ;
#617 = EDGE_CURVE ( 'NONE', #454, #913, #1103, .T. ) ;
#618 = PLANE ( 'NONE',  #141 ) ;
#619 = EDGE_LOOP ( 'NONE', ( #896, #565 ) ) ;
#620 = AXIS2_PLACEMENT_3D ( 'NONE', #453, #983, #641 ) ;
#621 = ORIENTED_EDGE ( 'NONE', *, *, #539, .F. ) ;
#622 = CYLINDRICAL_SURFACE ( 'NONE', #989, 1.700000000000007061 ) ;
#623 = DIRECTION ( 'NONE',  ( 0.000000000000000000, -1.000000000000000000, 0.000000000000000000 ) ) ;
#624 = DIRECTION ( 'NONE',  ( 0.000000000000000000, 0.000000000000000000, -1.000000000000000000 ) ) ;
#625 = CIRCLE ( 'NONE', #925, 1.700000000000007061 ) ;
#626 = AXIS2_PLACEMENT_3D ( 'NONE', #285, #918, #135 ) ;
#627 = ORIENTED_EDGE ( 'NONE', *, *, #229, .T. ) ;
#628 = EDGE_CURVE ( 'NONE', #958, #606, #1095, .T. ) ;
#629 = ORIENTED_EDGE ( 'NONE', *, *, #585, .T. ) ;
#630 = LINE ( 'NONE', #124, #121 ) ;
#631 = CARTESIAN_POINT ( 'NONE',  ( 14.00000000000000000, -5.250000000000000000, 63.29999999999999716 ) ) ;
#632 = CARTESIAN_POINT ( 'NONE',  ( 18.89338951290754665, 2.750000000000000000, -40.00000000000000000 ) ) ;
#633 = CARTESIAN_POINT ( 'NONE',  ( 14.00000000000000000, -5.250000000000000000, -63.29999999999999716 ) ) ;
#634 = EDGE_CURVE ( 'NONE', #709, #543, #793, .T. ) ;
#635 = ORIENTED_EDGE ( 'NONE', *, *, #783, .F. ) ;
#636 = VECTOR ( 'NONE', #401, 1000.000000000000000 ) ;
#637 = VERTEX_POINT ( 'NONE', #301 ) ;
#638 = DIRECTION ( 'NONE',  ( 0.000000000000000000, 0.000000000000000000, -1.000000000000000000 ) ) ;
#639 = CARTESIAN_POINT ( 'NONE',  ( 14.00000000000000000, -5.250000000000000000, -66.70000000000000284 ) ) ;
#640 = FACE_BOUND ( 'NONE', #872, .T. ) ;
#641 = DIRECTION ( 'NONE',  ( 0.000000000000000000, 0.000000000000000000, -1.000000000000000000 ) ) ;
#642 = APPLICATION_CONTEXT ( 'automotive_design' ) ;
#643 = ORIENTED_EDGE ( 'NONE', *, *, #999, .F. ) ;
#644 = ORIENTED_EDGE ( 'NONE', *, *, #1129, .T. ) ;
#645 = AXIS2_PLACEMENT_3D ( 'NONE', #353, #953, #607 ) ;
#646 = UNCERTAINTY_MEASURE_WITH_UNIT (LENGTH_MEASURE( 1.000000000000000082E-05 ), #733, 'distance_accuracy_value', 'NONE');
#647 = EDGE_LOOP ( 'NONE', ( #129, #800 ) ) ;
#648 = VECTOR ( 'NONE', #1033, 1000.000000000000000 ) ;
#649 = VECTOR ( 'NONE', #714, 1000.000000000000000 ) ;
#650 = VERTEX_POINT ( 'NONE', #202 ) ;
#651 = LINE ( 'NONE', #179, #649 ) ;
#652 = VERTEX_POINT ( 'NONE', #974 ) ;
#653 = DIRECTION ( 'NONE',  ( -0.000000000000000000, 1.000000000000000000, -0.000000000000000000 ) ) ;
#654 = DIRECTION ( 'NONE',  ( 0.000000000000000000, 1.000000000000000000, 0.000000000000000000 ) ) ;
#655 = EDGE_CURVE ( 'NONE', #801, #224, #214, .T. ) ;
#656 = ORIENTED_EDGE ( 'NONE', *, *, #576, .T. ) ;
#657 = CARTESIAN_POINT ( 'NONE',  ( -14.00000000000000000, -2.750000000000000000, 63.29999999999999716 ) ) ;
#658 = DIRECTION ( 'NONE',  ( 0.000000000000000000, -1.000000000000000000, 0.000000000000000000 ) ) ;
#659 = ORIENTED_EDGE ( 'NONE', *, *, #181, .T. ) ;
#660 = CARTESIAN_POINT ( 'NONE',  ( -14.89338951290753243, -2.750000000000000000, 40.00000000000000000 ) ) ;
#661 = CYLINDRICAL_SURFACE ( 'NONE', #1003, 1.700000000000007061 ) ;
#662 = PRODUCT_DEFINITION_SHAPE ( 'NONE', 'NONE',  #570 ) ;
#663 = CARTESIAN_POINT ( 'NONE',  ( -24.00000000000000000, 2.750000000000000000, 66.70000000000000284 ) ) ;
#664 = CARTESIAN_POINT ( 'NONE',  ( 32.00000000000000000, -2.750000000000000000, -70.00000000000000000 ) ) ;
#665 = CARTESIAN_POINT ( 'NONE',  ( -14.00000000000000000, -5.250000000000000000, -65.00000000000000000 ) ) ;
#666 = CIRCLE ( 'NONE', #316, 1.700000000000007061 ) ;
#667 = ORIENTED_EDGE ( 'NONE', *, *, #999, .T. ) ;
#668 = EDGE_CURVE ( 'NONE', #1062, #519, #194, .T. ) ;
#669 = EDGE_CURVE ( 'NONE', #543, #904, #923, .T. ) ;
#670 = CIRCLE ( 'NONE', #448, 3.999999999999996447 ) ;
#671 = DIRECTION ( 'NONE',  ( 0.000000000000000000, 0.000000000000000000, 1.000000000000000000 ) ) ;
#672 = EDGE_CURVE ( 'NONE', #961, #424, #331, .T. ) ;
#673 = DIRECTION ( 'NONE',  ( -0.000000000000000000, 1.000000000000000000, -0.000000000000000000 ) ) ;
#674 = VERTEX_POINT ( 'NONE', #914 ) ;
#675 = MANIFOLD_SOLID_BREP ( '\X2\52079664\X0\-\X2\62c94f38\X0\2', #25 ) ;
#676 = CARTESIAN_POINT ( 'NONE',  ( -10.89338951290753421, 2.750000000000000000, 40.00000000000000000 ) ) ;
#677 = CARTESIAN_POINT ( 'NONE',  ( -14.00000000000000000, 2.750000000000000000, 65.00000000000000000 ) ) ;
#678 = AXIS2_PLACEMENT_3D ( 'NONE', #61, #63, #481 ) ;
#679 = CARTESIAN_POINT ( 'NONE',  ( 14.00000000000000000, -5.250000000000000000, -65.00000000000000000 ) ) ;
#680 = FACE_OUTER_BOUND ( 'NONE', #986, .T. ) ;
#681 = CARTESIAN_POINT ( 'NONE',  ( -18.89338951290754665, -7.250000000000000000, -40.00000000000000000 ) ) ;
#682 = VECTOR ( 'NONE', #154, 1000.000000000000000 ) ;
#683 = FACE_OUTER_BOUND ( 'NONE', #608, .T. ) ;
#684 = FACE_OUTER_BOUND ( 'NONE', #594, .T. ) ;
#685 = DIRECTION ( 'NONE',  ( 0.000000000000000000, -1.000000000000000000, 0.000000000000000000 ) ) ;
#686 = DIRECTION ( 'NONE',  ( 0.000000000000000000, 0.000000000000000000, -1.000000000000000000 ) ) ;
#687 = CARTESIAN_POINT ( 'NONE',  ( -14.00000000000000000, -2.750000000000000000, 65.00000000000000000 ) ) ;
#688 = EDGE_CURVE ( 'NONE', #738, #906, #355, .T. ) ;
#689 = CARTESIAN_POINT ( 'NONE',  ( 10.89338951290753421, -7.250000000000000000, 40.00000000000000000 ) ) ;
#690 = ORIENTED_EDGE ( 'NONE', *, *, #65, .F. ) ;
#691 = CARTESIAN_POINT ( 'NONE',  ( -32.00000000000000000, 2.750000000000000000, -70.00000000000000000 ) ) ;
#692 = CARTESIAN_POINT ( 'NONE',  ( -18.89338951290753243, -2.750000000000000000, 40.00000000000000000 ) ) ;
#693 = ORIENTED_EDGE ( 'NONE', *, *, #225, .F. ) ;
#694 = LINE ( 'NONE', #339, #825 ) ;
#695 = CARTESIAN_POINT ( 'NONE',  ( -24.00000000000000000, -5.250000000000000000, 66.70000000000000284 ) ) ;
#696 = VECTOR ( 'NONE', #265, 1000.000000000000000 ) ;
#697 = DIRECTION ( 'NONE',  ( 0.000000000000000000, 0.000000000000000000, -1.000000000000000000 ) ) ;
#698 = EDGE_LOOP ( 'NONE', ( #283, #83, #596, #900 ) ) ;
#699 = FACE_BOUND ( 'NONE', #1020, .T. ) ;
#700 = DIRECTION ( 'NONE',  ( -0.000000000000000000, 1.000000000000000000, -0.000000000000000000 ) ) ;
#701 = ORIENTED_EDGE ( 'NONE', *, *, #569, .F. ) ;
#702 = VERTEX_POINT ( 'NONE', #293 ) ;
#703 = DIRECTION ( 'NONE',  ( 0.000000000000000000, 0.000000000000000000, 1.000000000000000000 ) ) ;
#704 = CARTESIAN_POINT ( 'NONE',  ( 18.89338951290754665, 2.750000000000000000, -40.00000000000000000 ) ) ;
#705 = VERTEX_POINT ( 'NONE', #826 ) ;
#706 = AXIS2_PLACEMENT_3D ( 'NONE', #534, #1082, #553 ) ;
#707 = EDGE_LOOP ( 'NONE', ( #282, #962, #304, #189 ) ) ;
#708 = FACE_BOUND ( 'NONE', #536, .T. ) ;
#709 = VERTEX_POINT ( 'NONE', #55 ) ;
#710 = EDGE_CURVE ( 'NONE', #916, #9, #422, .T. ) ;
#711 = EDGE_CURVE ( 'NONE', #224, #904, #111, .T. ) ;
#712 = VERTEX_POINT ( 'NONE', #1008 ) ;
#713 = SHAPE_DEFINITION_REPRESENTATION ( #662, #190 ) ;
#714 = DIRECTION ( 'NONE',  ( -0.000000000000000000, 1.000000000000000000, -0.000000000000000000 ) ) ;
#715 = ORIENTED_EDGE ( 'NONE', *, *, #976, .T. ) ;
#716 = VERTEX_POINT ( 'NONE', #546 ) ;
#717 = DIRECTION ( 'NONE',  ( 0.000000000000000000, 1.000000000000000000, -0.000000000000000000 ) ) ;
#718 = ORIENTED_EDGE ( 'NONE', *, *, #711, .T. ) ;
#719 = EDGE_LOOP ( 'NONE', ( #701, #1100 ) ) ;
#720 = ORIENTED_EDGE ( 'NONE', *, *, #955, .T. ) ;
#721 = PLANE ( 'NONE',  #232 ) ;
#722 = EDGE_CURVE ( 'NONE', #296, #1024, #457, .T. ) ;
#723 = ORIENTED_EDGE ( 'NONE', *, *, #242, .F. ) ;
#724 = VECTOR ( 'NONE', #130, 1000.000000000000000 ) ;
#725 = ORIENTED_EDGE ( 'NONE', *, *, #993, .T. ) ;
#726 = DIRECTION ( 'NONE',  ( -0.000000000000000000, 1.000000000000000000, -0.000000000000000000 ) ) ;
#727 =( NAMED_UNIT ( * ) SI_UNIT ( $, .STERADIAN. ) SOLID_ANGLE_UNIT ( ) );
#728 = CARTESIAN_POINT ( 'NONE',  ( 24.00000000000000000, -2.750000000000000000, -65.00000000000000000 ) ) ;
#729 = EDGE_CURVE ( 'NONE', #822, #786, #525, .T. ) ;
#730 = CIRCLE ( 'NONE', #797, 3.999999999999996447 ) ;
#731 = AXIS2_PLACEMENT_3D ( 'NONE', #728, #812, #33 ) ;
#732 = ORIENTED_EDGE ( 'NONE', *, *, #229, .F. ) ;
#733 =( LENGTH_UNIT ( ) NAMED_UNIT ( * ) SI_UNIT ( .MILLI., .METRE. ) );
#734 = DIRECTION ( 'NONE',  ( -0.000000000000000000, 1.000000000000000000, -0.000000000000000000 ) ) ;
#735 = EDGE_LOOP ( 'NONE', ( #807, #1067, #629, #387 ) ) ;
#736 = FACE_BOUND ( 'NONE', #19, .T. ) ;
#737 = DIRECTION ( 'NONE',  ( -0.000000000000000000, 1.000000000000000000, -0.000000000000000000 ) ) ;
#738 = VERTEX_POINT ( 'NONE', #290 ) ;
#739 = EDGE_LOOP ( 'NONE', ( #99, #122, #351, #635, #1107 ) ) ;
#740 = AXIS2_PLACEMENT_3D ( 'NONE', #849, #231, #924 ) ;
#741 = EDGE_CURVE ( 'NONE', #786, #709, #630, .T. ) ;
#742 = UNCERTAINTY_MEASURE_WITH_UNIT (LENGTH_MEASURE( 1.000000000000000082E-05 ), #279, 'distance_accuracy_value', 'NONE');
#743 = ORIENTED_EDGE ( 'NONE', *, *, #327, .T. ) ;
#744 = CIRCLE ( 'NONE', #241, 1.700000000000007061 ) ;
#745 = DIRECTION ( 'NONE',  ( 0.000000000000000000, 0.000000000000000000, -1.000000000000000000 ) ) ;
#746 = EDGE_LOOP ( 'NONE', ( #723, #136 ) ) ;
#747 = ORIENTED_EDGE ( 'NONE', *, *, #203, .T. ) ;
#748 = DIRECTION ( 'NONE',  ( 0.000000000000000000, 0.000000000000000000, -1.000000000000000000 ) ) ;
#749 = FACE_OUTER_BOUND ( 'NONE', #434, .T. ) ;
#750 = EDGE_CURVE ( 'NONE', #62, #1053, #47, .T. ) ;
#751 = STYLED_ITEM ( 'NONE', ( #385 ), #675 ) ;
#752 = CARTESIAN_POINT ( 'NONE',  ( 24.00000000000000000, -5.250000000000000000, -65.00000000000000000 ) ) ;
#753 = EDGE_CURVE ( 'NONE', #1007, #471, #391, .T. ) ;
#754 = FACE_OUTER_BOUND ( 'NONE', #393, .T. ) ;
#755 = CARTESIAN_POINT ( 'NONE',  ( 14.00000000000000000, -5.250000000000000000, 65.00000000000000000 ) ) ;
#756 = CIRCLE ( 'NONE', #910, 1.700000000000007061 ) ;
#757 = ORIENTED_EDGE ( 'NONE', *, *, #342, .F. ) ;
#758 = DIRECTION ( 'NONE',  ( 0.000000000000000000, 0.000000000000000000, 1.000000000000000000 ) ) ;
#759 = DIRECTION ( 'NONE',  ( 0.000000000000000000, 1.000000000000000000, -0.000000000000000000 ) ) ;
#760 = DIRECTION ( 'NONE',  ( 0.000000000000000000, 0.000000000000000000, 1.000000000000000000 ) ) ;
#761 = DIRECTION ( 'NONE',  ( -0.000000000000000000, 1.000000000000000000, -0.000000000000000000 ) ) ;
#762 = DIRECTION ( 'NONE',  ( 0.000000000000000000, 1.000000000000000000, 0.000000000000000000 ) ) ;
#763 = ADVANCED_FACE ( 'NONE', ( #943 ), #932, .F. ) ;
#764 = DIRECTION ( 'NONE',  ( 0.000000000000000000, 0.000000000000000000, -1.000000000000000000 ) ) ;
#765 = PLANE ( 'NONE',  #465 ) ;
#766 = DIRECTION ( 'NONE',  ( -0.000000000000000000, 1.000000000000000000, -0.000000000000000000 ) ) ;
#767 = APPLICATION_CONTEXT ( 'automotive_design' ) ;
#768 = VECTOR ( 'NONE', #898, 1000.000000000000000 ) ;
#769 = DIRECTION ( 'NONE',  ( -0.000000000000000000, 1.000000000000000000, -0.000000000000000000 ) ) ;
#770 = ORIENTED_EDGE ( 'NONE', *, *, #617, .T. ) ;
#771 = DIRECTION ( 'NONE',  ( 0.000000000000000000, 0.000000000000000000, 1.000000000000000000 ) ) ;
#772 = CIRCLE ( 'NONE', #865, 1.700000000000007061 ) ;
#773 = CARTESIAN_POINT ( 'NONE',  ( -14.89338951290753243, -7.250000000000000000, 44.00000000000000000 ) ) ;
#774 = CARTESIAN_POINT ( 'NONE',  ( 14.00000000000000000, 2.750000000000000000, 65.00000000000000000 ) ) ;
#775 = CIRCLE ( 'NONE', #1099, 1.700000000000007061 ) ;
#776 = CARTESIAN_POINT ( 'NONE',  ( -24.00000000000000000, -2.750000000000000000, 63.29999999999999716 ) ) ;
#777 = CARTESIAN_POINT ( 'NONE',  ( -24.00000000000000000, -2.750000000000000000, -63.29999999999999716 ) ) ;
#778 = VERTEX_POINT ( 'NONE', #676 ) ;
#779 = ORIENTED_EDGE ( 'NONE', *, *, #485, .F. ) ;
#780 = CYLINDRICAL_SURFACE ( 'NONE', #208, 3.999999999999996447 ) ;
#781 = AXIS2_PLACEMENT_3D ( 'NONE', #126, #364, #408 ) ;
#782 = EDGE_CURVE ( 'NONE', #272, #809, #1028, .T. ) ;
#783 = EDGE_CURVE ( 'NONE', #224, #199, #261, .T. ) ;
#784 = EDGE_LOOP ( 'NONE', ( #149, #1044, #819, #51 ) ) ;
#785 = FACE_OUTER_BOUND ( 'NONE', #1115, .T. ) ;
#786 = VERTEX_POINT ( 'NONE', #1001 ) ;
#787 = ORIENTED_EDGE ( 'NONE', *, *, #145, .F. ) ;
#788 = ORIENTED_EDGE ( 'NONE', *, *, #808, .F. ) ;
#789 = DIRECTION ( 'NONE',  ( 0.000000000000000000, 0.000000000000000000, 1.000000000000000000 ) ) ;
#790 = CARTESIAN_POINT ( 'NONE',  ( 32.00000000000000000, -2.750000000000000000, 70.00000000000000000 ) ) ;
#791 = CYLINDRICAL_SURFACE ( 'NONE', #22, 1.700000000000007061 ) ;
#792 = EDGE_CURVE ( 'NONE', #1057, #443, #405, .T. ) ;
#793 = CIRCLE ( 'NONE', #620, 3.999999999999996447 ) ;
#794 = ORIENTED_EDGE ( 'NONE', *, *, #871, .T. ) ;
#795 = ORIENTED_EDGE ( 'NONE', *, *, #164, .F. ) ;
#796 =( NAMED_UNIT ( * ) PLANE_ANGLE_UNIT ( ) SI_UNIT ( $, .RADIAN. ) );
#797 = AXIS2_PLACEMENT_3D ( 'NONE', #159, #68, #854 ) ;
#798 = CARTESIAN_POINT ( 'NONE',  ( 14.89338951290753243, -2.750000000000000000, 44.00000000000000000 ) ) ;
#799 = AXIS2_PLACEMENT_3D ( 'NONE', #368, #623, #349 ) ;
#800 = ORIENTED_EDGE ( 'NONE', *, *, #271, .F. ) ;
#801 = VERTEX_POINT ( 'NONE', #1075 ) ;
#802 = EDGE_CURVE ( 'NONE', #454, #652, #578, .T. ) ;
#803 = CARTESIAN_POINT ( 'NONE',  ( -14.89338951290753243, -7.250000000000000000, 40.00000000000000000 ) ) ;
#804 = LINE ( 'NONE', #704, #157 ) ;
#805 = LINE ( 'NONE', #951, #998 ) ;
#806 = DIRECTION ( 'NONE',  ( 0.000000000000000000, 0.000000000000000000, -1.000000000000000000 ) ) ;
#807 = ORIENTED_EDGE ( 'NONE', *, *, #802, .T. ) ;
#808 = EDGE_CURVE ( 'NONE', #296, #134, #67, .T. ) ;
#809 = VERTEX_POINT ( 'NONE', #291 ) ;
#810 =( NAMED_UNIT ( * ) SI_UNIT ( $, .STERADIAN. ) SOLID_ANGLE_UNIT ( ) );
#811 = PLANE ( 'NONE',  #455 ) ;
#812 = DIRECTION ( 'NONE',  ( 0.000000000000000000, -1.000000000000000000, 0.000000000000000000 ) ) ;
#813 = ORIENTED_EDGE ( 'NONE', *, *, #792, .T. ) ;
#814 = DIRECTION ( 'NONE',  ( 0.000000000000000000, 0.000000000000000000, -1.000000000000000000 ) ) ;
#815 = LINE ( 'NONE', #980, #1090 ) ;
#816 = VECTOR ( 'NONE', #761, 1000.000000000000000 ) ;
#817 = AXIS2_PLACEMENT_3D ( 'NONE', #444, #10, #326 ) ;
#818 = EDGE_LOOP ( 'NONE', ( #30, #1093, #309, #90, #919 ) ) ;
#819 = ORIENTED_EDGE ( 'NONE', *, *, #262, .T. ) ;
#820 = CARTESIAN_POINT ( 'NONE',  ( 24.00000000000000000, -2.750000000000000000, 65.00000000000000000 ) ) ;
#821 = DIRECTION ( 'NONE',  ( 0.000000000000000000, 1.000000000000000000, -0.000000000000000000 ) ) ;
#822 = VERTEX_POINT ( 'NONE', #632 ) ;
#823 = ADVANCED_FACE ( 'NONE', ( #380 ), #119, .F. ) ;
#824 = ADVANCED_FACE ( 'NONE', ( #640, #995, #213, #736, #127, #1094, #218, #509, #16, #180, #878 ), #188, .F. ) ;
#825 = VECTOR ( 'NONE', #1046, 1000.000000000000000 ) ;
#826 = CARTESIAN_POINT ( 'NONE',  ( -24.00000000000000000, -2.750000000000000000, -66.70000000000000284 ) ) ;
#827 = ORIENTED_EDGE ( 'NONE', *, *, #729, .F. ) ;
#828 = ORIENTED_EDGE ( 'NONE', *, *, #263, .F. ) ;
#829 = ORIENTED_EDGE ( 'NONE', *, *, #613, .T. ) ;
#830 = ORIENTED_EDGE ( 'NONE', *, *, #672, .F. ) ;
#831 = AXIS2_PLACEMENT_3D ( 'NONE', #470, #36, #814 ) ;
#832 = DIRECTION ( 'NONE',  ( 0.000000000000000000, 1.000000000000000000, -0.000000000000000000 ) ) ;
#833 = VECTOR ( 'NONE', #1058, 1000.000000000000000 ) ;
#834 = PRODUCT ( '\X2\67b6\X0\', '\X2\67b6\X0\', '', ( #540 ) ) ;
#835 = EDGE_CURVE ( 'NONE', #1049, #809, #805, .T. ) ;
#836 = CARTESIAN_POINT ( 'NONE',  ( 14.00000000000000000, -2.750000000000000000, 65.00000000000000000 ) ) ;
#837 = EDGE_LOOP ( 'NONE', ( #133, #828 ) ) ;
#838 = ADVANCED_FACE ( 'NONE', ( #892 ), #791, .F. ) ;
#839 = DIRECTION ( 'NONE',  ( 0.000000000000000000, 0.000000000000000000, -1.000000000000000000 ) ) ;
#840 = LINE ( 'NONE', #852, #230 ) ;
#841 = EDGE_LOOP ( 'NONE', ( #747, #197, #979, #97 ) ) ;
#842 = AXIS2_PLACEMENT_3D ( 'NONE', #548, #734, #1088 ) ;
#843 = CARTESIAN_POINT ( 'NONE',  ( 18.89338951290754665, -7.250000000000000000, -40.00000000000000000 ) ) ;
#844 = FACE_OUTER_BOUND ( 'NONE', #735, .T. ) ;
#845 = CIRCLE ( 'NONE', #1113, 3.999999999999996447 ) ;
#846 = EDGE_LOOP ( 'NONE', ( #26, #192 ) ) ;
#847 = CARTESIAN_POINT ( 'NONE',  ( -24.00000000000000000, -5.250000000000000000, -65.00000000000000000 ) ) ;
#848 = LINE ( 'NONE', #163, #636 ) ;
#849 = CARTESIAN_POINT ( 'NONE',  ( 14.89338951290753243, -7.250000000000000000, 40.00000000000000000 ) ) ;
#850 = DIRECTION ( 'NONE',  ( -0.000000000000000000, 1.000000000000000000, -0.000000000000000000 ) ) ;
#851 = CARTESIAN_POINT ( 'NONE',  ( -10.89338951290753421, -7.250000000000000000, 40.00000000000000000 ) ) ;
#852 = CARTESIAN_POINT ( 'NONE',  ( -32.00000000000000000, 2.750000000000000000, 70.00000000000000000 ) ) ;
#853 = ADVANCED_FACE ( 'NONE', ( #11 ), #1059, .F. ) ;
#854 = DIRECTION ( 'NONE',  ( 0.000000000000000000, 0.000000000000000000, 1.000000000000000000 ) ) ;
#855 = CARTESIAN_POINT ( 'NONE',  ( 10.89338951290755020, -7.250000000000000000, -40.00000000000000000 ) ) ;
#856 = DIRECTION ( 'NONE',  ( 0.000000000000000000, -0.000000000000000000, -1.000000000000000000 ) ) ;
#857 = DIRECTION ( 'NONE',  ( -0.000000000000000000, 1.000000000000000000, -0.000000000000000000 ) ) ;
#858 = CARTESIAN_POINT ( 'NONE',  ( 24.00000000000000000, -2.750000000000000000, 66.70000000000000284 ) ) ;
#859 = CARTESIAN_POINT ( 'NONE',  ( 14.89338951290754842, -7.250000000000000000, -40.00000000000000000 ) ) ;
#860 = AXIS2_PLACEMENT_3D ( 'NONE', #467, #107, #806 ) ;
#861 = CYLINDRICAL_SURFACE ( 'NONE', #1036, 1.700000000000007061 ) ;
#862 = ORIENTED_EDGE ( 'NONE', *, *, #928, .T. ) ;
#863 = CARTESIAN_POINT ( 'NONE',  ( 10.89338951290755020, -2.750000000000000000, -40.00000000000000000 ) ) ;
#864 = CARTESIAN_POINT ( 'NONE',  ( 14.00000000000000000, 2.750000000000000000, 66.70000000000000284 ) ) ;
#865 = AXIS2_PLACEMENT_3D ( 'NONE', #333, #685, #483 ) ;
#866 = ORIENTED_EDGE ( 'NONE', *, *, #1027, .T. ) ;
#867 = LINE ( 'NONE', #1054, #696 ) ;
#868 = CARTESIAN_POINT ( 'NONE',  ( -18.89338951290753243, -7.250000000000000000, 40.00000000000000000 ) ) ;
#869 = CIRCLE ( 'NONE', #2, 1.700000000000007061 ) ;
#870 = ADVANCED_FACE ( 'NONE', ( #270 ), #438, .F. ) ;
#871 = EDGE_CURVE ( 'NONE', #778, #361, #245, .T. ) ;
#872 = EDGE_LOOP ( 'NONE', ( #690, #524, #469, #346, #526 ) ) ;
#873 = EDGE_LOOP ( 'NONE', ( #76, #451, #966, #34 ) ) ;
#874 = VERTEX_POINT ( 'NONE', #337 ) ;
#875 = DIRECTION ( 'NONE',  ( 0.000000000000000000, 0.000000000000000000, -1.000000000000000000 ) ) ;
#876 = ADVANCED_FACE ( 'NONE', ( #253 ), #947, .F. ) ;
#877 = LINE ( 'NONE', #358, #308 ) ;
#878 = FACE_OUTER_BOUND ( 'NONE', #1108, .T. ) ;
#879 = VECTOR ( 'NONE', #956, 1000.000000000000000 ) ;
#880 = EDGE_LOOP ( 'NONE', ( #191, #621, #388, #883 ) ) ;
#881 = CYLINDRICAL_SURFACE ( 'NONE', #817, 1.700000000000007061 ) ;
#882 = VERTEX_POINT ( 'NONE', #692 ) ;
#883 = ORIENTED_EDGE ( 'NONE', *, *, #95, .T. ) ;
#884 = EDGE_LOOP ( 'NONE', ( #186, #1052, #1, #347 ) ) ;
#885 = DIRECTION ( 'NONE',  ( -0.000000000000000000, 1.000000000000000000, -0.000000000000000000 ) ) ;
#886 = DIRECTION ( 'NONE',  ( 0.000000000000000000, -1.000000000000000000, 0.000000000000000000 ) ) ;
#887 = VERTEX_POINT ( 'NONE', #1043 ) ;
#888 = VERTEX_POINT ( 'NONE', #260 ) ;
#889 = VERTEX_POINT ( 'NONE', #864 ) ;
#890 = DIRECTION ( 'NONE',  ( -0.000000000000000000, 1.000000000000000000, -0.000000000000000000 ) ) ;
#891 = DIRECTION ( 'NONE',  ( 0.000000000000000000, 0.000000000000000000, -1.000000000000000000 ) ) ;
#892 = FACE_OUTER_BOUND ( 'NONE', #211, .T. ) ;
#893 = AXIS2_PLACEMENT_3D ( 'NONE', #755, #1041, #420 ) ;
#894 = EDGE_LOOP ( 'NONE', ( #732, #363 ) ) ;
#895 = EDGE_CURVE ( 'NONE', #609, #477, #595, .T. ) ;
#896 = ORIENTED_EDGE ( 'NONE', *, *, #753, .F. ) ;
#897 = LINE ( 'NONE', #790, #395 ) ;
#898 = DIRECTION ( 'NONE',  ( -0.000000000000000000, 1.000000000000000000, -0.000000000000000000 ) ) ;
#899 = AXIS2_PLACEMENT_3D ( 'NONE', #665, #1014, #926 ) ;
#900 = ORIENTED_EDGE ( 'NONE', *, *, #710, .T. ) ;
#901 = ORIENTED_EDGE ( 'NONE', *, *, #688, .T. ) ;
#902 = CARTESIAN_POINT ( 'NONE',  ( 14.89338951290753243, -2.750000000000000000, 40.00000000000000000 ) ) ;
#903 = FILL_AREA_STYLE ('',( #554 ) ) ;
#904 = VERTEX_POINT ( 'NONE', #1051 ) ;
#905 = AXIS2_PLACEMENT_3D ( 'NONE', #902, #300, #44 ) ;
#906 = VERTEX_POINT ( 'NONE', #959 ) ;
#907 = DIRECTION ( 'NONE',  ( 0.000000000000000000, 1.000000000000000000, -0.000000000000000000 ) ) ;
#908 = DIRECTION ( 'NONE',  ( 0.000000000000000000, -1.000000000000000000, 0.000000000000000000 ) ) ;
#909 = CARTESIAN_POINT ( 'NONE',  ( -14.00000000000000000, -5.250000000000000000, -63.29999999999999716 ) ) ;
#910 = AXIS2_PLACEMENT_3D ( 'NONE', #5, #150, #671 ) ;
#911 = EDGE_CURVE ( 'NONE', #637, #1062, #537, .T. ) ;
#912 = EDGE_CURVE ( 'NONE', #272, #958, #848, .T. ) ;
#913 = VERTEX_POINT ( 'NONE', #321 ) ;
#914 = CARTESIAN_POINT ( 'NONE',  ( 10.89338951290753599, -2.750000000000000000, 40.00000000000000000 ) ) ;
#915 = ADVANCED_FACE ( 'NONE', ( #7 ), #105, .F. ) ;
#916 = VERTEX_POINT ( 'NONE', #663 ) ;
#917 = CARTESIAN_POINT ( 'NONE',  ( 24.00000000000000000, -2.750000000000000000, 65.00000000000000000 ) ) ;
#918 = DIRECTION ( 'NONE',  ( -0.000000000000000000, 1.000000000000000000, -0.000000000000000000 ) ) ;
#919 = ORIENTED_EDGE ( 'NONE', *, *, #750, .F. ) ;
#920 = DIRECTION ( 'NONE',  ( 0.000000000000000000, 1.000000000000000000, -0.000000000000000000 ) ) ;
#921 = DIRECTION ( 'NONE',  ( 0.000000000000000000, 0.000000000000000000, -1.000000000000000000 ) ) ;
#922 = EDGE_CURVE ( 'NONE', #519, #275, #384, .T. ) ;
#923 = CIRCLE ( 'NONE', #302, 3.999999999999996447 ) ;
#924 = DIRECTION ( 'NONE',  ( 0.000000000000000000, 0.000000000000000000, 1.000000000000000000 ) ) ;
#925 = AXIS2_PLACEMENT_3D ( 'NONE', #1111, #654, #474 ) ;
#926 = DIRECTION ( 'NONE',  ( 0.000000000000000000, 0.000000000000000000, 1.000000000000000000 ) ) ;
#927 = CIRCLE ( 'NONE', #1116, 1.700000000000007061 ) ;
#928 = EDGE_CURVE ( 'NONE', #882, #555, #694, .T. ) ;
#929 = CARTESIAN_POINT ( 'NONE',  ( -14.00000000000000000, -2.750000000000000000, 66.70000000000000284 ) ) ;
#930 = CARTESIAN_POINT ( 'NONE',  ( -24.00000000000000000, -2.750000000000000000, 66.70000000000000284 ) ) ;
#931 = VECTOR ( 'NONE', #487, 1000.000000000000000 ) ;
#932 = CYLINDRICAL_SURFACE ( 'NONE', #740, 3.999999999999996447 ) ;
#933 = CYLINDRICAL_SURFACE ( 'NONE', #508, 1.700000000000007061 ) ;
#934 = CARTESIAN_POINT ( 'NONE',  ( -24.00000000000000000, -2.750000000000000000, -65.00000000000000000 ) ) ;
#935 = DIRECTION ( 'NONE',  ( 0.000000000000000000, 0.000000000000000000, -1.000000000000000000 ) ) ;
#936 = ADVANCED_FACE ( 'NONE', ( #684 ), #425, .F. ) ;
#937 = CARTESIAN_POINT ( 'NONE',  ( -24.00000000000000000, 2.750000000000000000, 65.00000000000000000 ) ) ;
#938 = VECTOR ( 'NONE', #1121, 1000.000000000000000 ) ;
#939 = CARTESIAN_POINT ( 'NONE',  ( 0.000000000000000000, -2.750000000000000000, 0.000000000000000000 ) ) ;
#940 = CIRCLE ( 'NONE', #1083, 1.700000000000007061 ) ;
#941 = DIRECTION ( 'NONE',  ( -0.000000000000000000, 1.000000000000000000, -0.000000000000000000 ) ) ;
#942 = CIRCLE ( 'NONE', #584, 1.700000000000007061 ) ;
#943 = FACE_OUTER_BOUND ( 'NONE', #1061, .T. ) ;
#944 = LINE ( 'NONE', #499, #563 ) ;
#945 = ADVANCED_FACE ( 'NONE', ( #178 ), #255, .F. ) ;
#946 = DIRECTION ( 'NONE',  ( -0.000000000000000000, 1.000000000000000000, -0.000000000000000000 ) ) ;
#947 = CYLINDRICAL_SURFACE ( 'NONE', #13, 1.700000000000007061 ) ;
#948 = VECTOR ( 'NONE', #968, 1000.000000000000000 ) ;
#949 = CARTESIAN_POINT ( 'NONE',  ( 24.00000000000000000, -2.750000000000000000, 63.29999999999999716 ) ) ;
#950 = DIRECTION ( 'NONE',  ( -0.000000000000000000, 1.000000000000000000, -0.000000000000000000 ) ) ;
#951 = CARTESIAN_POINT ( 'NONE',  ( -32.00000000000000000, -2.750000000000000000, 70.00000000000000000 ) ) ;
#952 = DIRECTION ( 'NONE',  ( 0.000000000000000000, 1.000000000000000000, -0.000000000000000000 ) ) ;
#953 = DIRECTION ( 'NONE',  ( -1.000000000000000000, 0.000000000000000000, 0.000000000000000000 ) ) ;
#954 = ORIENTED_EDGE ( 'NONE', *, *, #1120, .T. ) ;
#955 = EDGE_CURVE ( 'NONE', #705, #471, #867, .T. ) ;
#956 = DIRECTION ( 'NONE',  ( -1.000000000000000000, -0.000000000000000000, -0.000000000000000000 ) ) ;
#957 = LINE ( 'NONE', #695, #359 ) ;
#958 = VERTEX_POINT ( 'NONE', #4 ) ;
#959 = CARTESIAN_POINT ( 'NONE',  ( 14.00000000000000000, -2.750000000000000000, 66.70000000000000284 ) ) ;
#960 = EDGE_CURVE ( 'NONE', #276, #439, #516, .T. ) ;
#961 = VERTEX_POINT ( 'NONE', #930 ) ;
#962 = ORIENTED_EDGE ( 'NONE', *, *, #263, .T. ) ;
#963 = CARTESIAN_POINT ( 'NONE',  ( -24.00000000000000000, 2.750000000000000000, -63.29999999999999716 ) ) ;
#964 = VECTOR ( 'NONE', #766, 1000.000000000000000 ) ;
#965 = LINE ( 'NONE', #527, #984 ) ;
#966 = ORIENTED_EDGE ( 'NONE', *, *, #491, .T. ) ;
#967 = ORIENTED_EDGE ( 'NONE', *, *, #196, .F. ) ;
#968 = DIRECTION ( 'NONE',  ( -0.000000000000000000, 1.000000000000000000, -0.000000000000000000 ) ) ;
#969 = CARTESIAN_POINT ( 'NONE',  ( -10.89338951290755020, -7.250000000000000000, -40.00000000000000000 ) ) ;
#970 = ORIENTED_EDGE ( 'NONE', *, *, #262, .F. ) ;
#971 = ORIENTED_EDGE ( 'NONE', *, *, #539, .T. ) ;
#972 = ORIENTED_EDGE ( 'NONE', *, *, #960, .T. ) ;
#973 = DIRECTION ( 'NONE',  ( 0.000000000000000000, 0.000000000000000000, -1.000000000000000000 ) ) ;
#974 = CARTESIAN_POINT ( 'NONE',  ( 14.00000000000000000, -2.750000000000000000, -66.70000000000000284 ) ) ;
#975 = VECTOR ( 'NONE', #726, 1000.000000000000000 ) ;
#976 = EDGE_CURVE ( 'NONE', #958, #712, #1114, .T. ) ;
#977 = ORIENTED_EDGE ( 'NONE', *, *, #1123, .T. ) ;
#978 = ORIENTED_EDGE ( 'NONE', *, *, #634, .T. ) ;
#979 = ORIENTED_EDGE ( 'NONE', *, *, #504, .T. ) ;
#980 = CARTESIAN_POINT ( 'NONE',  ( 14.89338951290753243, -7.250000000000000000, 44.00000000000000000 ) ) ;
#981 = CARTESIAN_POINT ( 'NONE',  ( -18.89338951290754665, -7.250000000000000000, -40.00000000000000000 ) ) ;
#982 = CARTESIAN_POINT ( 'NONE',  ( 32.00000000000000000, 2.750000000000000000, 70.00000000000000000 ) ) ;
#983 = DIRECTION ( 'NONE',  ( 0.000000000000000000, 1.000000000000000000, -0.000000000000000000 ) ) ;
#984 = VECTOR ( 'NONE', #29, 1000.000000000000000 ) ;
#985 = EDGE_LOOP ( 'NONE', ( #1066, #720, #210, #970 ) ) ;
#986 = EDGE_LOOP ( 'NONE', ( #967, #1010, #997, #407 ) ) ;
#987 = CARTESIAN_POINT ( 'NONE',  ( 18.89338951290753243, -7.250000000000000000, 40.00000000000000000 ) ) ;
#988 = DIRECTION ( 'NONE',  ( -0.000000000000000000, -1.000000000000000000, -0.000000000000000000 ) ) ;
#989 = AXIS2_PLACEMENT_3D ( 'NONE', #277, #118, #294 ) ;
#990 = AXIS2_PLACEMENT_3D ( 'NONE', #836, #332, #875 ) ;
#991 = ORIENTED_EDGE ( 'NONE', *, *, #669, .F. ) ;
#992 = EDGE_LOOP ( 'NONE', ( #204, #538 ) ) ;
#993 = EDGE_CURVE ( 'NONE', #650, #226, #435, .T. ) ;
#994 = EDGE_CURVE ( 'NONE', #906, #738, #185, .T. ) ;
#995 = FACE_BOUND ( 'NONE', #530, .T. ) ;
#996 = CARTESIAN_POINT ( 'NONE',  ( 18.89338951290753954, -2.750000000000000000, 3.277480632881471879E-15 ) ) ;
#997 = ORIENTED_EDGE ( 'NONE', *, *, #1119, .F. ) ;
#998 = VECTOR ( 'NONE', #442, 1000.000000000000000 ) ;
#999 = EDGE_CURVE ( 'NONE', #275, #519, #397, .T. ) ;
#1000 = ORIENTED_EDGE ( 'NONE', *, *, #628, .F. ) ;
#1001 = CARTESIAN_POINT ( 'NONE',  ( 10.89338951290755020, 2.750000000000000000, -40.00000000000000000 ) ) ;
#1002 = CIRCLE ( 'NONE', #123, 1.700000000000007061 ) ;
#1003 = AXIS2_PLACEMENT_3D ( 'NONE', #1015, #143, #400 ) ;
#1004 = ORIENTED_EDGE ( 'NONE', *, *, #911, .T. ) ;
#1005 = CARTESIAN_POINT ( 'NONE',  ( 14.00000000000000000, 2.750000000000000000, -65.00000000000000000 ) ) ;
#1006 = CYLINDRICAL_SURFACE ( 'NONE', #626, 3.999999999999996447 ) ;
#1007 = VERTEX_POINT ( 'NONE', #963 ) ;
#1008 = CARTESIAN_POINT ( 'NONE',  ( -32.00000000000000000, 2.750000000000000000, -70.00000000000000000 ) ) ;
#1009 = ADVANCED_FACE ( 'NONE', ( #749 ), #589, .F. ) ;
#1010 = ORIENTED_EDGE ( 'NONE', *, *, #835, .F. ) ;
#1011 = VECTOR ( 'NONE', #461, 1000.000000000000000 ) ;
#1012 = CARTESIAN_POINT ( 'NONE',  ( 24.00000000000000000, 2.750000000000000000, -65.00000000000000000 ) ) ;
#1013 = ORIENTED_EDGE ( 'NONE', *, *, #96, .T. ) ;
#1014 = DIRECTION ( 'NONE',  ( -0.000000000000000000, 1.000000000000000000, -0.000000000000000000 ) ) ;
#1015 = CARTESIAN_POINT ( 'NONE',  ( -24.00000000000000000, -5.250000000000000000, -65.00000000000000000 ) ) ;
#1016 = CARTESIAN_POINT ( 'NONE',  ( -32.00000000000000000, 2.750000000000000000, 70.00000000000000000 ) ) ;
#1017 = CIRCLE ( 'NONE', #288, 1.700000000000007061 ) ;
#1018 = DIRECTION ( 'NONE',  ( -0.000000000000000000, 1.000000000000000000, -0.000000000000000000 ) ) ;
#1019 = CIRCLE ( 'NONE', #799, 3.999999999999996447 ) ;
#1020 = EDGE_LOOP ( 'NONE', ( #362, #432 ) ) ;
#1021 = CARTESIAN_POINT ( 'NONE',  ( 14.00000000000000000, 2.750000000000000000, -65.00000000000000000 ) ) ;
#1022 = CARTESIAN_POINT ( 'NONE',  ( 24.00000000000000000, 2.750000000000000000, 63.29999999999999716 ) ) ;
#1023 = DIRECTION ( 'NONE',  ( 0.000000000000000000, -1.000000000000000000, 0.000000000000000000 ) ) ;
#1024 = VERTEX_POINT ( 'NONE', #78 ) ;
#1025 = VECTOR ( 'NONE', #1018, 1000.000000000000000 ) ;
#1026 = ADVANCED_FACE ( 'NONE', ( #348 ), #780, .F. ) ;
#1027 = EDGE_CURVE ( 'NONE', #1053, #650, #592, .T. ) ;
#1028 = LINE ( 'NONE', #982, #724 ) ;
#1029 = DIRECTION ( 'NONE',  ( 0.000000000000000000, 1.000000000000000000, -0.000000000000000000 ) ) ;
#1030 = DIRECTION ( 'NONE',  ( -0.000000000000000000, 1.000000000000000000, -0.000000000000000000 ) ) ;
#1031 = DIRECTION ( 'NONE',  ( 0.000000000000000000, 0.000000000000000000, 1.000000000000000000 ) ) ;
#1032 = AXIS2_PLACEMENT_3D ( 'NONE', #582, #322, #317 ) ;
#1033 = DIRECTION ( 'NONE',  ( -0.000000000000000000, 1.000000000000000000, -0.000000000000000000 ) ) ;
#1034 = LINE ( 'NONE', #493, #58 ) ;
#1035 = FACE_BOUND ( 'NONE', #837, .T. ) ;
#1036 = AXIS2_PLACEMENT_3D ( 'NONE', #160, #72, #599 ) ;
#1037 = PRODUCT_RELATED_PRODUCT_CATEGORY ( 'part', '', ( #834 ) ) ;
#1038 = CARTESIAN_POINT ( 'NONE',  ( -14.00000000000000000, -2.750000000000000000, 65.00000000000000000 ) ) ;
#1039 = DIRECTION ( 'NONE',  ( -0.000000000000000000, 1.000000000000000000, -0.000000000000000000 ) ) ;
#1040 = ADVANCED_FACE ( 'NONE', ( #562 ), #315, .F. ) ;
#1041 = DIRECTION ( 'NONE',  ( -0.000000000000000000, 1.000000000000000000, -0.000000000000000000 ) ) ;
#1042 = ORIENTED_EDGE ( 'NONE', *, *, #468, .F. ) ;
#1043 = CARTESIAN_POINT ( 'NONE',  ( 14.00000000000000000, 2.750000000000000000, 63.29999999999999716 ) ) ;
#1044 = ORIENTED_EDGE ( 'NONE', *, *, #429, .T. ) ;
#1045 = AXIS2_PLACEMENT_3D ( 'NONE', #1038, #147, #404 ) ;
#1046 = DIRECTION ( 'NONE',  ( -1.734723475976807094E-16, 0.000000000000000000, -1.000000000000000000 ) ) ;
#1047 = DIRECTION ( 'NONE',  ( -0.000000000000000000, 1.000000000000000000, -0.000000000000000000 ) ) ;
#1048 = LINE ( 'NONE', #75, #243 ) ;
#1049 = VERTEX_POINT ( 'NONE', #142 ) ;
#1050 = FACE_BOUND ( 'NONE', #108, .T. ) ;
#1051 = CARTESIAN_POINT ( 'NONE',  ( 18.89338951290753243, 2.750000000000000000, 40.00000000000000000 ) ) ;
#1052 = ORIENTED_EDGE ( 'NONE', *, *, #95, .F. ) ;
#1053 = VERTEX_POINT ( 'NONE', #480 ) ;
#1054 = CARTESIAN_POINT ( 'NONE',  ( -24.00000000000000000, -5.250000000000000000, -66.70000000000000284 ) ) ;
#1055 = DIRECTION ( 'NONE',  ( 0.000000000000000000, -1.000000000000000000, 0.000000000000000000 ) ) ;
#1056 = ORIENTED_EDGE ( 'NONE', *, *, #314, .T. ) ;
#1057 = VERTEX_POINT ( 'NONE', #949 ) ;
#1058 = DIRECTION ( 'NONE',  ( 1.734723475976807094E-16, 0.000000000000000000, 1.000000000000000000 ) ) ;
#1059 = PLANE ( 'NONE',  #645 ) ;
#1060 = AXIS2_PLACEMENT_3D ( 'NONE', #1021, #832, #748 ) ;
#1061 = EDGE_LOOP ( 'NONE', ( #1071, #954, #251, #1084 ) ) ;
#1062 = VERTEX_POINT ( 'NONE', #233 ) ;
#1063 = APPLICATION_PROTOCOL_DEFINITION ( 'draft international standard', 'automotive_design', 1998, #642 ) ;
#1064 = DIRECTION ( 'NONE',  ( 1.734723475976807094E-16, -0.000000000000000000, -1.000000000000000000 ) ) ;
#1065 = ORIENTED_EDGE ( 'NONE', *, *, #576, .F. ) ;
#1066 = ORIENTED_EDGE ( 'NONE', *, *, #341, .T. ) ;
#1067 = ORIENTED_EDGE ( 'NONE', *, *, #1086, .T. ) ;
#1068 = DIRECTION ( 'NONE',  ( -1.951563910473907981E-16, 0.000000000000000000, 1.000000000000000000 ) ) ;
#1069 = EDGE_CURVE ( 'NONE', #609, #23, #250, .T. ) ;
#1070 = ORIENTED_EDGE ( 'NONE', *, *, #463, .T. ) ;
#1071 = ORIENTED_EDGE ( 'NONE', *, *, #783, .T. ) ;
#1072 = ORIENTED_EDGE ( 'NONE', *, *, #382, .F. ) ;
#1073 = DIRECTION ( 'NONE',  ( -1.951563910473907981E-16, 0.000000000000000000, -1.000000000000000000 ) ) ;
#1074 = CARTESIAN_POINT ( 'NONE',  ( -14.89338951290754842, -2.750000000000000000, -40.00000000000000000 ) ) ;
#1075 = CARTESIAN_POINT ( 'NONE',  ( 18.89338951290754665, -2.750000000000000000, -40.00000000000000000 ) ) ;
#1076 = VECTOR ( 'NONE', #988, 1000.000000000000000 ) ;
#1077 = EDGE_LOOP ( 'NONE', ( #556, #518, #1087, #1072 ) ) ;
#1078 = CIRCLE ( 'NONE', #1060, 1.700000000000007061 ) ;
#1079 = ORIENTED_EDGE ( 'NONE', *, *, #741, .F. ) ;
#1080 = CARTESIAN_POINT ( 'NONE',  ( 14.89338951290754842, 2.750000000000000000, -40.00000000000000000 ) ) ;
#1081 = DIRECTION ( 'NONE',  ( 1.000000000000000000, -0.000000000000000000, 0.000000000000000000 ) ) ;
#1082 = DIRECTION ( 'NONE',  ( 0.000000000000000000, -1.000000000000000000, 0.000000000000000000 ) ) ;
#1083 = AXIS2_PLACEMENT_3D ( 'NONE', #917, #564, #745 ) ;
#1084 = ORIENTED_EDGE ( 'NONE', *, *, #711, .F. ) ;
#1085 = ADVANCED_FACE ( 'NONE', ( #754 ), #165, .F. ) ;
#1086 = EDGE_CURVE ( 'NONE', #652, #376, #37, .T. ) ;
#1087 = ORIENTED_EDGE ( 'NONE', *, *, #729, .T. ) ;
#1088 = DIRECTION ( 'NONE',  ( 0.000000000000000000, 0.000000000000000000, 1.000000000000000000 ) ) ;
#1089 = DIRECTION ( 'NONE',  ( 0.000000000000000000, 0.000000000000000000, -1.000000000000000000 ) ) ;
#1090 = VECTOR ( 'NONE', #890, 1000.000000000000000 ) ;
#1091 = VECTOR ( 'NONE', #700, 1000.000000000000000 ) ;
#1092 = ADVANCED_FACE ( 'NONE', ( #532 ), #622, .F. ) ;
#1093 = ORIENTED_EDGE ( 'NONE', *, *, #928, .F. ) ;
#1094 = FACE_BOUND ( 'NONE', #116, .T. ) ;
#1095 = LINE ( 'NONE', #535, #1076 ) ;
#1096 = ORIENTED_EDGE ( 'NONE', *, *, #327, .F. ) ;
#1097 = AXIS2_PLACEMENT_3D ( 'NONE', #307, #42, #638 ) ;
#1098 = VECTOR ( 'NONE', #573, 1000.000000000000000 ) ;
#1099 = AXIS2_PLACEMENT_3D ( 'NONE', #446, #717, #973 ) ;
#1100 = ORIENTED_EDGE ( 'NONE', *, *, #544, .F. ) ;
#1101 = EDGE_LOOP ( 'NONE', ( #109, #1070, #222, #978 ) ) ;
#1102 = CARTESIAN_POINT ( 'NONE',  ( -24.00000000000000000, 2.750000000000000000, 63.29999999999999716 ) ) ;
#1103 = LINE ( 'NONE', #633, #228 ) ;
#1104 = ADVANCED_FACE ( 'NONE', ( #547 ), #811, .F. ) ;
#1105 = PRODUCT_DEFINITION_CONTEXT ( 'detailed design', #642, 'design' ) ;
#1106 = PRODUCT_DEFINITION_FORMATION_WITH_SPECIFIED_SOURCE ( 'ä»', '', #834, .NOT_KNOWN. ) ;
#1107 = ORIENTED_EDGE ( 'NONE', *, *, #655, .F. ) ;
#1108 = EDGE_LOOP ( 'NONE', ( #313, #715, #502, #743 ) ) ;
#1109 = DIRECTION ( 'NONE',  ( 0.000000000000000000, -1.000000000000000000, 0.000000000000000000 ) ) ;
#1110 = EDGE_LOOP ( 'NONE', ( #866, #725, #31, #131 ) ) ;
#1111 = CARTESIAN_POINT ( 'NONE',  ( 14.00000000000000000, 2.750000000000000000, 65.00000000000000000 ) ) ;
#1112 = DIRECTION ( 'NONE',  ( 0.000000000000000000, 1.000000000000000000, 0.000000000000000000 ) ) ;
#1113 = AXIS2_PLACEMENT_3D ( 'NONE', #166, #583, #764 ) ;
#1114 = LINE ( 'NONE', #227, #879 ) ;
#1115 = EDGE_LOOP ( 'NONE', ( #169, #183, #371, #693 ) ) ;
#1116 = AXIS2_PLACEMENT_3D ( 'NONE', #1012, #920, #59 ) ;
#1117 = CARTESIAN_POINT ( 'NONE',  ( 24.00000000000000000, -2.750000000000000000, -66.70000000000000284 ) ) ;
#1118 = ORIENTED_EDGE ( 'NONE', *, *, #522, .F. ) ;
#1119 = EDGE_CURVE ( 'NONE', #550, #1049, #373, .T. ) ;
#1120 = EDGE_CURVE ( 'NONE', #199, #543, #815, .T. ) ;
#1121 = DIRECTION ( 'NONE',  ( -0.000000000000000000, 1.000000000000000000, -0.000000000000000000 ) ) ;
#1122 = DIRECTION ( 'NONE',  ( 0.000000000000000000, 1.000000000000000000, 0.000000000000000000 ) ) ;
#1123 = EDGE_CURVE ( 'NONE', #637, #275, #610, .T. ) ;
#1124 = CARTESIAN_POINT ( 'NONE',  ( 24.00000000000000000, -5.250000000000000000, 65.00000000000000000 ) ) ;
#1125 = AXIS2_PLACEMENT_3D ( 'NONE', #20, #207, #357 ) ;
#1126 = DIRECTION ( 'NONE',  ( 0.000000000000000000, 0.000000000000000000, -1.000000000000000000 ) ) ;
#1127 = PLANE ( 'NONE',  #69 ) ;
#1128 = PRESENTATION_LAYER_ASSIGNMENT (  '', '', ( #751 ) ) ;
#1129 = EDGE_CURVE ( 'NONE', #738, #887, #43, .T. ) ;
ENDSEC;
END-ISO-10303-21;
