ISO-10303-21;
HEADER;
FILE_DESCRIPTION (( 'STEP AP214' ),
    '1' );
FILE_NAME ('ºá_.STEP',
    '2026-04-22T09:29:36',
    ( '' ),
    ( '' ),
    'SwSTEP 2.0',
    'SolidWorks 2025',
    '' );
FILE_SCHEMA (( 'AUTOMOTIVE_DESIGN' ));
ENDSEC;

DATA;
#1 = PLANE ( 'NONE',  #418 ) ;
#2 = VECTOR ( 'NONE', #311, 1000.000000000000000 ) ;
#3 = CIRCLE ( 'NONE', #576, 2.350000000000000089 ) ;
#4 = LINE ( 'NONE', #66, #358 ) ;
#5 = CARTESIAN_POINT ( 'NONE',  ( 11.49999999999999822, 4.000000000000000000, 25.00000000000000000 ) ) ;
#6 = ORIENTED_EDGE ( 'NONE', *, *, #152, .F. ) ;
#7 = DIRECTION ( 'NONE',  ( -0.000000000000000000, -1.000000000000000000, -0.000000000000000000 ) ) ;
#8 = CARTESIAN_POINT ( 'NONE',  ( -11.50000000000000178, -10.00000000000000711, -25.00000000000000000 ) ) ;
#9 = DIRECTION ( 'NONE',  ( 1.000000000000000000, 0.000000000000000000, 0.000000000000000000 ) ) ;
#10 = VECTOR ( 'NONE', #15, 1000.000000000000000 ) ;
#11 = AXIS2_PLACEMENT_3D ( 'NONE', #276, #281, #450 ) ;
#12 = EDGE_LOOP ( 'NONE', ( #106, #373, #649, #677 ) ) ;
#13 = EDGE_CURVE ( 'NONE', #195, #402, #379, .T. ) ;
#14 = DIRECTION ( 'NONE',  ( -1.000000000000000000, -0.000000000000000000, -0.000000000000000000 ) ) ;
#15 = DIRECTION ( 'NONE',  ( -0.000000000000000000, -0.000000000000000000, -1.000000000000000000 ) ) ;
#16 = EDGE_CURVE ( 'NONE', #24, #414, #667, .T. ) ;
#17 = ORIENTED_EDGE ( 'NONE', *, *, #515, .F. ) ;
#18 = CARTESIAN_POINT ( 'NONE',  ( 0.000000000000000000, 0.000000000000000000, 0.000000000000000000 ) ) ;
#19 = VERTEX_POINT ( 'NONE', #496 ) ;
#20 = DIRECTION ( 'NONE',  ( -0.000000000000000000, 0.000000000000000000, 1.000000000000000000 ) ) ;
#21 = EDGE_CURVE ( 'NONE', #19, #420, #621, .T. ) ;
#22 = LINE ( 'NONE', #741, #126 ) ;
#23 = EDGE_CURVE ( 'NONE', #151, #262, #670, .T. ) ;
#24 = VERTEX_POINT ( 'NONE', #372 ) ;
#25 = FACE_BOUND ( 'NONE', #341, .T. ) ;
#26 = ORIENTED_EDGE ( 'NONE', *, *, #104, .F. ) ;
#27 = CIRCLE ( 'NONE', #729, 2.349999999999999645 ) ;
#28 = MECHANICAL_DESIGN_GEOMETRIC_PRESENTATION_REPRESENTATION (  '', ( #599 ), #409 ) ;
#29 = ORIENTED_EDGE ( 'NONE', *, *, #367, .F. ) ;
#30 = CARTESIAN_POINT ( 'NONE',  ( -4.924999999999999822, 0.000000000000000000, -32.00000000000000000 ) ) ;
#31 = ORIENTED_EDGE ( 'NONE', *, *, #246, .T. ) ;
#32 = VERTEX_POINT ( 'NONE', #487 ) ;
#33 = CARTESIAN_POINT ( 'NONE',  ( -4.924999999999999822, 0.000000000000000000, 32.00000000000000000 ) ) ;
#34 = ORIENTED_EDGE ( 'NONE', *, *, #13, .T. ) ;
#35 = ORIENTED_EDGE ( 'NONE', *, *, #374, .T. ) ;
#36 = DIRECTION ( 'NONE',  ( -1.000000000000000000, 0.000000000000000000, 0.000000000000000000 ) ) ;
#37 = FACE_BOUND ( 'NONE', #562, .T. ) ;
#38 = ORIENTED_EDGE ( 'NONE', *, *, #41, .F. ) ;
#39 = AXIS2_PLACEMENT_3D ( 'NONE', #149, #270, #519 ) ;
#40 = DIRECTION ( 'NONE',  ( -0.000000000000000000, -0.000000000000000000, -1.000000000000000000 ) ) ;
#41 = EDGE_CURVE ( 'NONE', #321, #623, #22, .T. ) ;
#42 = CARTESIAN_POINT ( 'NONE',  ( 2.574999999999998845, 0.000000000000000000, 32.00000000000000000 ) ) ;
#43 = ADVANCED_FACE ( 'NONE', ( #556 ), #129, .F. ) ;
#44 = ORIENTED_EDGE ( 'NONE', *, *, #123, .F. ) ;
#45 = DIRECTION ( 'NONE',  ( -0.000000000000000000, -0.000000000000000000, -1.000000000000000000 ) ) ;
#46 = DIRECTION ( 'NONE',  ( -0.000000000000000000, -0.000000000000000000, -1.000000000000000000 ) ) ;
#47 = EDGE_CURVE ( 'NONE', #260, #461, #724, .T. ) ;
#48 = VERTEX_POINT ( 'NONE', #383 ) ;
#49 = CYLINDRICAL_SURFACE ( 'NONE', #628, 2.350000000000000977 ) ;
#50 = UNCERTAINTY_MEASURE_WITH_UNIT (LENGTH_MEASURE( 1.000000000000000082E-05 ), #546, 'distance_accuracy_value', 'NONE');
#51 = DIRECTION ( 'NONE',  ( -1.000000000000000000, 0.000000000000000000, -0.000000000000000000 ) ) ;
#52 = CARTESIAN_POINT ( 'NONE',  ( 17.12499999999999645, 2.877919977996276869E-16, 32.00000000000000000 ) ) ;
#53 = VECTOR ( 'NONE', #505, 1000.000000000000000 ) ;
#54 = DIRECTION ( 'NONE',  ( -0.000000000000000000, 0.000000000000000000, 1.000000000000000000 ) ) ;
#55 = VECTOR ( 'NONE', #40, 1000.000000000000000 ) ;
#56 = DIRECTION ( 'NONE',  ( -0.000000000000000000, -0.000000000000000000, -1.000000000000000000 ) ) ;
#57 = ADVANCED_FACE ( 'NONE', ( #440 ), #679, .F. ) ;
#58 = DIRECTION ( 'NONE',  ( -1.000000000000000000, 0.000000000000000000, -0.000000000000000000 ) ) ;
#59 = CARTESIAN_POINT ( 'NONE',  ( 20.99999999999999645, -4.000000000000000000, 32.00000000000000000 ) ) ;
#60 = DIRECTION ( 'NONE',  ( -1.000000000000000000, 0.000000000000000000, 0.000000000000000000 ) ) ;
#61 = LINE ( 'NONE', #530, #65 ) ;
#62 = ORIENTED_EDGE ( 'NONE', *, *, #725, .T. ) ;
#63 = FACE_OUTER_BOUND ( 'NONE', #204, .T. ) ;
#64 = AXIS2_PLACEMENT_3D ( 'NONE', #197, #206, #86 ) ;
#65 = VECTOR ( 'NONE', #235, 1000.000000000000000 ) ;
#66 = CARTESIAN_POINT ( 'NONE',  ( 20.99999999999999645, -4.000000000000000000, -32.00000000000000000 ) ) ;
#67 = CARTESIAN_POINT ( 'NONE',  ( 11.49999999999999822, -10.00000000000000711, 25.00000000000000000 ) ) ;
#68 = ORIENTED_EDGE ( 'NONE', *, *, #344, .F. ) ;
#69 = ORIENTED_EDGE ( 'NONE', *, *, #432, .F. ) ;
#70 = DIRECTION ( 'NONE',  ( 0.000000000000000000, 0.000000000000000000, -1.000000000000000000 ) ) ;
#71 = ORIENTED_EDGE ( 'NONE', *, *, #704, .T. ) ;
#72 = EDGE_CURVE ( 'NONE', #112, #502, #82, .T. ) ;
#73 = APPLICATION_PROTOCOL_DEFINITION ( 'draft international standard', 'automotive_design', 1998, #85 ) ;
#74 = DIRECTION ( 'NONE',  ( -0.000000000000000000, -0.000000000000000000, 1.000000000000000000 ) ) ;
#75 = ORIENTED_EDGE ( 'NONE', *, *, #16, .T. ) ;
#76 = CIRCLE ( 'NONE', #684, 2.350000000000000977 ) ;
#77 = VECTOR ( 'NONE', #766, 1000.000000000000000 ) ;
#78 = AXIS2_PLACEMENT_3D ( 'NONE', #485, #722, #668 ) ;
#79 = EDGE_LOOP ( 'NONE', ( #735, #464, #192, #389 ) ) ;
#80 = ORIENTED_EDGE ( 'NONE', *, *, #180, .F. ) ;
#81 = CARTESIAN_POINT ( 'NONE',  ( -14.77499999999999858, 0.000000000000000000, 32.00000000000000000 ) ) ;
#82 = LINE ( 'NONE', #264, #2 ) ;
#83 = ORIENTED_EDGE ( 'NONE', *, *, #239, .F. ) ;
#84 = CARTESIAN_POINT ( 'NONE',  ( -2.574999999999999734, 2.877919977996279827E-16, -32.00000000000000000 ) ) ;
#85 = APPLICATION_CONTEXT ( 'automotive_design' ) ;
#86 = DIRECTION ( 'NONE',  ( -1.000000000000000000, 0.000000000000000000, 0.000000000000000000 ) ) ;
#87 = APPLICATION_PROTOCOL_DEFINITION ( 'draft international standard', 'automotive_design', 1998, #501 ) ;
#88 = ORIENTED_EDGE ( 'NONE', *, *, #318, .F. ) ;
#89 = DIRECTION ( 'NONE',  ( -0.000000000000000000, -0.000000000000000000, -1.000000000000000000 ) ) ;
#90 = ORIENTED_EDGE ( 'NONE', *, *, #457, .T. ) ;
#91 = AXIS2_PLACEMENT_3D ( 'NONE', #469, #652, #605 ) ;
#92 = VECTOR ( 'NONE', #387, 1000.000000000000000 ) ;
#93 = EDGE_LOOP ( 'NONE', ( #386, #35, #528, #6 ) ) ;
#94 = PLANE ( 'NONE',  #172 ) ;
#95 = ORIENTED_EDGE ( 'NONE', *, *, #574, .T. ) ;
#96 = EDGE_CURVE ( 'NONE', #694, #623, #160, .T. ) ;
#97 = ORIENTED_EDGE ( 'NONE', *, *, #108, .F. ) ;
#98 = DIRECTION ( 'NONE',  ( -0.000000000000000000, -0.000000000000000000, -1.000000000000000000 ) ) ;
#99 = DIRECTION ( 'NONE',  ( -0.000000000000000000, 0.000000000000000000, 1.000000000000000000 ) ) ;
#100 = VERTEX_POINT ( 'NONE', #682 ) ;
#101 = EDGE_CURVE ( 'NONE', #19, #760, #150, .T. ) ;
#102 = CARTESIAN_POINT ( 'NONE',  ( -2.574999999999999734, 2.877919977996279827E-16, 32.00000000000000000 ) ) ;
#103 = CARTESIAN_POINT ( 'NONE',  ( 11.49999999999999822, -4.000000000000000000, -25.00000000000000000 ) ) ;
#104 = EDGE_CURVE ( 'NONE', #148, #48, #697, .T. ) ;
#105 = AXIS2_PLACEMENT_3D ( 'NONE', #553, #500, #443 ) ;
#106 = ORIENTED_EDGE ( 'NONE', *, *, #488, .T. ) ;
#107 = DIRECTION ( 'NONE',  ( 0.000000000000000000, 0.000000000000000000, 1.000000000000000000 ) ) ;
#108 = EDGE_CURVE ( 'NONE', #336, #502, #463, .T. ) ;
#109 = FACE_BOUND ( 'NONE', #625, .T. ) ;
#110 = CARTESIAN_POINT ( 'NONE',  ( -21.00000000000000355, 4.000000000000000000, 32.00000000000000000 ) ) ;
#111 = DIRECTION ( 'NONE',  ( 1.000000000000000000, -0.000000000000000000, 0.000000000000000000 ) ) ;
#112 = VERTEX_POINT ( 'NONE', #103 ) ;
#113 = FACE_OUTER_BOUND ( 'NONE', #506, .T. ) ;
#114 = LINE ( 'NONE', #584, #187 ) ;
#115 = ADVANCED_FACE ( 'NONE', ( #285, #37, #401, #637, #575 ), #272, .F. ) ;
#116 = ORIENTED_EDGE ( 'NONE', *, *, #591, .F. ) ;
#117 = DIRECTION ( 'NONE',  ( -0.000000000000000000, -0.000000000000000000, -1.000000000000000000 ) ) ;
#118 = VECTOR ( 'NONE', #687, 1000.000000000000000 ) ;
#119 = DIRECTION ( 'NONE',  ( -0.000000000000000000, -0.000000000000000000, -1.000000000000000000 ) ) ;
#120 = CARTESIAN_POINT ( 'NONE',  ( 14.77499999999999858, 0.000000000000000000, -32.00000000000000000 ) ) ;
#121 = CYLINDRICAL_SURFACE ( 'NONE', #534, 2.350000000000000533 ) ;
#122 = DIRECTION ( 'NONE',  ( 1.000000000000000000, 0.000000000000000000, 0.000000000000000000 ) ) ;
#123 = EDGE_CURVE ( 'NONE', #760, #307, #279, .T. ) ;
#124 = EDGE_LOOP ( 'NONE', ( #423, #202, #582, #269 ) ) ;
#125 = CARTESIAN_POINT ( 'NONE',  ( -4.924999999999999822, 0.000000000000000000, 25.00000000000000000 ) ) ;
#126 = VECTOR ( 'NONE', #728, 1000.000000000000000 ) ;
#127 = PLANE ( 'NONE',  #470 ) ;
#128 = DIRECTION ( 'NONE',  ( 0.000000000000000000, 0.000000000000000000, 1.000000000000000000 ) ) ;
#129 = CYLINDRICAL_SURFACE ( 'NONE', #64, 2.350000000000000977 ) ;
#130 = VERTEX_POINT ( 'NONE', #527 ) ;
#131 = EDGE_CURVE ( 'NONE', #763, #32, #545, .T. ) ;
#132 = CARTESIAN_POINT ( 'NONE',  ( 14.77499999999999858, 0.000000000000000000, 32.00000000000000000 ) ) ;
#133 = EDGE_LOOP ( 'NONE', ( #323, #571, #313, #366 ) ) ;
#134 = AXIS2_PLACEMENT_3D ( 'NONE', #559, #89, #140 ) ;
#135 = CIRCLE ( 'NONE', #188, 2.349999999999997868 ) ;
#136 = EDGE_LOOP ( 'NONE', ( #95, #300 ) ) ;
#137 = FACE_OUTER_BOUND ( 'NONE', #477, .T. ) ;
#138 = EDGE_LOOP ( 'NONE', ( #236, #362, #252, #26 ) ) ;
#139 = ORIENTED_EDGE ( 'NONE', *, *, #595, .F. ) ;
#140 = DIRECTION ( 'NONE',  ( -1.000000000000000000, 0.000000000000000000, 0.000000000000000000 ) ) ;
#141 = ORIENTED_EDGE ( 'NONE', *, *, #457, .F. ) ;
#142 = ORIENTED_EDGE ( 'NONE', *, *, #271, .F. ) ;
#143 = EDGE_LOOP ( 'NONE', ( #425, #726 ) ) ;
#144 = DIRECTION ( 'NONE',  ( -0.000000000000000000, 0.000000000000000000, 1.000000000000000000 ) ) ;
#145 = ORIENTED_EDGE ( 'NONE', *, *, #292, .F. ) ;
#146 = AXIS2_PLACEMENT_3D ( 'NONE', #398, #51, #54 ) ;
#147 = CIRCLE ( 'NONE', #176, 2.349999999999999645 ) ;
#148 = VERTEX_POINT ( 'NONE', #700 ) ;
#149 = CARTESIAN_POINT ( 'NONE',  ( -4.924999999999999822, 0.000000000000000000, 32.00000000000000000 ) ) ;
#150 = LINE ( 'NONE', #520, #283 ) ;
#151 = VERTEX_POINT ( 'NONE', #282 ) ;
#152 = EDGE_CURVE ( 'NONE', #151, #763, #159, .T. ) ;
#153 = CARTESIAN_POINT ( 'NONE',  ( -12.42499999999999893, 2.877919977996280320E-16, -32.00000000000000000 ) ) ;
#154 = FACE_BOUND ( 'NONE', #143, .T. ) ;
#155 = ADVANCED_FACE ( 'NONE', ( #109, #154, #388, #215, #277 ), #578, .T. ) ;
#156 = EDGE_LOOP ( 'NONE', ( #345, #660 ) ) ;
#157 = ADVANCED_FACE ( 'NONE', ( #517 ), #459, .F. ) ;
#158 = FACE_OUTER_BOUND ( 'NONE', #535, .T. ) ;
#159 = LINE ( 'NONE', #42, #273 ) ;
#160 = CIRCLE ( 'NONE', #105, 2.349999999999999645 ) ;
#161 = ORIENTED_EDGE ( 'NONE', *, *, #478, .F. ) ;
#162 = COLOUR_RGB ( '',0.7921568627450980005, 0.8196078431372548767, 0.9333333333333333481 ) ;
#163 = DIRECTION ( 'NONE',  ( 0.000000000000000000, 0.000000000000000000, -1.000000000000000000 ) ) ;
#164 = DIRECTION ( 'NONE',  ( 0.000000000000000000, 0.000000000000000000, -1.000000000000000000 ) ) ;
#165 = ORIENTED_EDGE ( 'NONE', *, *, #394, .T. ) ;
#166 = DIRECTION ( 'NONE',  ( -0.000000000000000000, -0.000000000000000000, -1.000000000000000000 ) ) ;
#167 = DIRECTION ( 'NONE',  ( 0.000000000000000000, 0.000000000000000000, 1.000000000000000000 ) ) ;
#168 = ORIENTED_EDGE ( 'NONE', *, *, #597, .F. ) ;
#169 = LINE ( 'NONE', #705, #547 ) ;
#170 = CARTESIAN_POINT ( 'NONE',  ( -21.00000000000000355, -4.000000000000000000, 32.00000000000000000 ) ) ;
#171 = ORIENTED_EDGE ( 'NONE', *, *, #475, .F. ) ;
#172 = AXIS2_PLACEMENT_3D ( 'NONE', #250, #144, #486 ) ;
#173 = SURFACE_SIDE_STYLE ('',( #655 ) ) ;
#174 = AXIS2_PLACEMENT_3D ( 'NONE', #555, #259, #201 ) ;
#175 = DIRECTION ( 'NONE',  ( -0.000000000000000000, -0.000000000000000000, -1.000000000000000000 ) ) ;
#176 = AXIS2_PLACEMENT_3D ( 'NONE', #499, #736, #205 ) ;
#177 = EDGE_CURVE ( 'NONE', #130, #601, #343, .T. ) ;
#178 = DIRECTION ( 'NONE',  ( -1.000000000000000000, 0.000000000000000000, 0.000000000000000000 ) ) ;
#179 = ORIENTED_EDGE ( 'NONE', *, *, #480, .T. ) ;
#180 = EDGE_CURVE ( 'NONE', #420, #307, #338, .T. ) ;
#181 = LINE ( 'NONE', #352, #707 ) ;
#182 = DIRECTION ( 'NONE',  ( 0.000000000000000000, 0.000000000000000000, 1.000000000000000000 ) ) ;
#183 = CARTESIAN_POINT ( 'NONE',  ( -7.275000000000000355, 0.000000000000000000, 32.00000000000000000 ) ) ;
#184 = DIRECTION ( 'NONE',  ( -0.000000000000000000, -0.000000000000000000, -1.000000000000000000 ) ) ;
#185 = ORIENTED_EDGE ( 'NONE', *, *, #656, .T. ) ;
#186 = LINE ( 'NONE', #714, #626 ) ;
#187 = VECTOR ( 'NONE', #238, 1000.000000000000000 ) ;
#188 = AXIS2_PLACEMENT_3D ( 'NONE', #132, #128, #549 ) ;
#189 = ORIENTED_EDGE ( 'NONE', *, *, #635, .F. ) ;
#190 = ORIENTED_EDGE ( 'NONE', *, *, #101, .F. ) ;
#191 = CARTESIAN_POINT ( 'NONE',  ( -4.924999999999999822, 0.000000000000000000, 25.00000000000000000 ) ) ;
#192 = ORIENTED_EDGE ( 'NONE', *, *, #339, .T. ) ;
#193 = LINE ( 'NONE', #429, #509 ) ;
#194 = DIRECTION ( 'NONE',  ( -1.000000000000000000, 0.000000000000000000, 0.000000000000000000 ) ) ;
#195 = VERTEX_POINT ( 'NONE', #393 ) ;
#196 = CARTESIAN_POINT ( 'NONE',  ( -7.275000000000000355, 0.000000000000000000, 32.00000000000000000 ) ) ;
#197 = CARTESIAN_POINT ( 'NONE',  ( 4.924999999999999822, 0.000000000000000000, 32.00000000000000000 ) ) ;
#198 = CIRCLE ( 'NONE', #493, 2.350000000000000977 ) ;
#199 = CIRCLE ( 'NONE', #471, 2.350000000000000977 ) ;
#200 = VERTEX_POINT ( 'NONE', #335 ) ;
#201 = DIRECTION ( 'NONE',  ( 0.000000000000000000, 0.000000000000000000, -1.000000000000000000 ) ) ;
#202 = ORIENTED_EDGE ( 'NONE', *, *, #593, .F. ) ;
#203 = ORIENTED_EDGE ( 'NONE', *, *, #488, .F. ) ;
#204 = EDGE_LOOP ( 'NONE', ( #417, #168, #764, #75 ) ) ;
#205 = DIRECTION ( 'NONE',  ( 1.000000000000000000, 0.000000000000000000, 0.000000000000000000 ) ) ;
#206 = DIRECTION ( 'NONE',  ( -0.000000000000000000, -0.000000000000000000, -1.000000000000000000 ) ) ;
#207 = ORIENTED_EDGE ( 'NONE', *, *, #104, .T. ) ;
#208 = PLANE ( 'NONE',  #641 ) ;
#209 = UNCERTAINTY_MEASURE_WITH_UNIT (LENGTH_MEASURE( 1.000000000000000082E-05 ), #410, 'distance_accuracy_value', 'NONE');
#210 = EDGE_LOOP ( 'NONE', ( #551, #716, #437, #433 ) ) ;
#211 = VECTOR ( 'NONE', #119, 1000.000000000000000 ) ;
#212 = CIRCLE ( 'NONE', #396, 2.350000000000000533 ) ;
#213 = ORIENTED_EDGE ( 'NONE', *, *, #751, .F. ) ;
#214 = DIRECTION ( 'NONE',  ( -1.000000000000000000, 0.000000000000000000, 0.000000000000000000 ) ) ;
#215 = FACE_BOUND ( 'NONE', #156, .T. ) ;
#216 = ADVANCED_FACE ( 'NONE', ( #758 ), #753, .F. ) ;
#217 = PRODUCT_RELATED_PRODUCT_CATEGORY ( 'part', '', ( #431 ) ) ;
#218 = EDGE_LOOP ( 'NONE', ( #361, #240, #424, #613 ) ) ;
#219 = CARTESIAN_POINT ( 'NONE',  ( -21.00000000000000355, -4.000000000000000000, 32.00000000000000000 ) ) ;
#220 = CARTESIAN_POINT ( 'NONE',  ( 12.42500000000000071, 0.000000000000000000, 32.00000000000000000 ) ) ;
#221 = EDGE_LOOP ( 'NONE', ( #631, #698 ) ) ;
#222 = CARTESIAN_POINT ( 'NONE',  ( -4.924999999999999822, 0.000000000000000000, -32.00000000000000000 ) ) ;
#223 = CARTESIAN_POINT ( 'NONE',  ( 0.000000000000000000, 0.000000000000000000, -32.00000000000000000 ) ) ;
#224 = AXIS2_PLACEMENT_3D ( 'NONE', #8, #481, #58 ) ;
#225 = VERTEX_POINT ( 'NONE', #228 ) ;
#226 = CIRCLE ( 'NONE', #322, 2.350000000000000089 ) ;
#227 = DIRECTION ( 'NONE',  ( -1.000000000000000000, 0.000000000000000000, 0.000000000000000000 ) ) ;
#228 = CARTESIAN_POINT ( 'NONE',  ( -7.275000000000000355, 0.000000000000000000, 25.00000000000000000 ) ) ;
#229 = LINE ( 'NONE', #472, #211 ) ;
#230 = SURFACE_STYLE_USAGE ( .BOTH. , #173 ) ;
#231 = DIRECTION ( 'NONE',  ( -0.000000000000000000, 1.000000000000000000, -0.000000000000000000 ) ) ;
#232 = EDGE_CURVE ( 'NONE', #634, #492, #757, .T. ) ;
#233 = EDGE_CURVE ( 'NONE', #414, #688, #114, .T. ) ;
#234 = VECTOR ( 'NONE', #581, 1000.000000000000000 ) ;
#235 = DIRECTION ( 'NONE',  ( -0.000000000000000000, -0.000000000000000000, -1.000000000000000000 ) ) ;
#236 = ORIENTED_EDGE ( 'NONE', *, *, #595, .T. ) ;
#237 = VECTOR ( 'NONE', #267, 1000.000000000000000 ) ;
#238 = DIRECTION ( 'NONE',  ( 1.000000000000000000, 0.000000000000000000, 0.000000000000000000 ) ) ;
#239 = EDGE_CURVE ( 'NONE', #100, #148, #186, .T. ) ;
#240 = ORIENTED_EDGE ( 'NONE', *, *, #72, .F. ) ;
#241 = DIRECTION ( 'NONE',  ( 0.000000000000000000, 0.000000000000000000, -1.000000000000000000 ) ) ;
#242 = FACE_BOUND ( 'NONE', #452, .T. ) ;
#243 = ORIENTED_EDGE ( 'NONE', *, *, #656, .F. ) ;
#244 = DIRECTION ( 'NONE',  ( 0.000000000000000000, 1.000000000000000000, 0.000000000000000000 ) ) ;
#245 = FACE_BOUND ( 'NONE', #136, .T. ) ;
#246 = EDGE_CURVE ( 'NONE', #260, #565, #198, .T. ) ;
#247 = DIRECTION ( 'NONE',  ( -0.000000000000000000, 0.000000000000000000, 1.000000000000000000 ) ) ;
#248 = VECTOR ( 'NONE', #564, 1000.000000000000000 ) ;
#249 = PRODUCT_CONTEXT ( 'NONE', #501, 'mechanical' ) ;
#250 = CARTESIAN_POINT ( 'NONE',  ( -11.50000000000000178, -10.00000000000000711, 25.00000000000000000 ) ) ;
#251 = CARTESIAN_POINT ( 'NONE',  ( -21.00000000000000355, -4.000000000000000000, 32.00000000000000000 ) ) ;
#252 = ORIENTED_EDGE ( 'NONE', *, *, #340, .F. ) ;
#253 = EDGE_LOOP ( 'NONE', ( #669, #97, #333, #141 ) ) ;
#254 = CARTESIAN_POINT ( 'NONE',  ( 7.275000000000000355, 2.877919977996280813E-16, 32.00000000000000000 ) ) ;
#255 = VERTEX_POINT ( 'NONE', #296 ) ;
#256 = SHAPE_DEFINITION_REPRESENTATION ( #607, #498 ) ;
#257 = ADVANCED_FACE ( 'NONE', ( #476 ), #590, .F. ) ;
#258 = ORIENTED_EDGE ( 'NONE', *, *, #371, .T. ) ;
#259 = DIRECTION ( 'NONE',  ( 1.000000000000000000, 0.000000000000000000, 0.000000000000000000 ) ) ;
#260 = VERTEX_POINT ( 'NONE', #592 ) ;
#261 = AXIS2_PLACEMENT_3D ( 'NONE', #222, #107, #646 ) ;
#262 = VERTEX_POINT ( 'NONE', #289 ) ;
#263 = DIRECTION ( 'NONE',  ( 1.000000000000000000, 0.000000000000000000, 0.000000000000000000 ) ) ;
#264 = CARTESIAN_POINT ( 'NONE',  ( 11.49999999999999822, -10.00000000000000711, -25.00000000000000000 ) ) ;
#265 = ORIENTED_EDGE ( 'NONE', *, *, #568, .T. ) ;
#266 = ORIENTED_EDGE ( 'NONE', *, *, #620, .F. ) ;
#267 = DIRECTION ( 'NONE',  ( -0.000000000000000000, 1.000000000000000000, -0.000000000000000000 ) ) ;
#268 = DIRECTION ( 'NONE',  ( -1.000000000000000000, 0.000000000000000000, 0.000000000000000000 ) ) ;
#269 = ORIENTED_EDGE ( 'NONE', *, *, #754, .F. ) ;
#270 = DIRECTION ( 'NONE',  ( -0.000000000000000000, -0.000000000000000000, -1.000000000000000000 ) ) ;
#271 = EDGE_CURVE ( 'NONE', #634, #579, #229, .T. ) ;
#272 = PLANE ( 'NONE',  #293 ) ;
#273 = VECTOR ( 'NONE', #690, 1000.000000000000000 ) ;
#274 = AXIS2_PLACEMENT_3D ( 'NONE', #504, #458, #36 ) ;
#275 = EDGE_LOOP ( 'NONE', ( #380, #732 ) ) ;
#276 = CARTESIAN_POINT ( 'NONE',  ( 14.77499999999999858, 0.000000000000000000, -32.00000000000000000 ) ) ;
#277 = FACE_BOUND ( 'NONE', #275, .T. ) ;
#278 = DIRECTION ( 'NONE',  ( -1.000000000000000000, 0.000000000000000000, 0.000000000000000000 ) ) ;
#279 = LINE ( 'NONE', #451, #118 ) ;
#280 = VERTEX_POINT ( 'NONE', #301 ) ;
#281 = DIRECTION ( 'NONE',  ( 0.000000000000000000, 0.000000000000000000, 1.000000000000000000 ) ) ;
#282 = CARTESIAN_POINT ( 'NONE',  ( 2.574999999999998845, 0.000000000000000000, 32.00000000000000000 ) ) ;
#283 = VECTOR ( 'NONE', #570, 1000.000000000000000 ) ;
#284 = CARTESIAN_POINT ( 'NONE',  ( -7.275000000000000355, 0.000000000000000000, 32.00000000000000000 ) ) ;
#285 = FACE_OUTER_BOUND ( 'NONE', #210, .T. ) ;
#286 = EDGE_LOOP ( 'NONE', ( #456, #31 ) ) ;
#287 = ORIENTED_EDGE ( 'NONE', *, *, #318, .T. ) ;
#288 = DIRECTION ( 'NONE',  ( -0.000000000000000000, -0.000000000000000000, -1.000000000000000000 ) ) ;
#289 = CARTESIAN_POINT ( 'NONE',  ( 7.275000000000000355, 2.877919977996281306E-16, 32.00000000000000000 ) ) ;
#290 =( NAMED_UNIT ( * ) SI_UNIT ( $, .STERADIAN. ) SOLID_ANGLE_UNIT ( ) );
#291 = FACE_BOUND ( 'NONE', #286, .T. ) ;
#292 = EDGE_CURVE ( 'NONE', #307, #414, #354, .T. ) ;
#293 = AXIS2_PLACEMENT_3D ( 'NONE', #330, #511, #640 ) ;
#294 = DIRECTION ( 'NONE',  ( -1.000000000000000000, 0.000000000000000000, 0.000000000000000000 ) ) ;
#295 = AXIS2_PLACEMENT_3D ( 'NONE', #699, #166, #390 ) ;
#296 = CARTESIAN_POINT ( 'NONE',  ( -11.50000000000000178, 4.000000000000000000, -25.00000000000000000 ) ) ;
#297 = FACE_OUTER_BOUND ( 'NONE', #12, .T. ) ;
#298 = CARTESIAN_POINT ( 'NONE',  ( -4.924999999999999822, 0.000000000000000000, 32.00000000000000000 ) ) ;
#299 = DIRECTION ( 'NONE',  ( 0.000000000000000000, 0.000000000000000000, 1.000000000000000000 ) ) ;
#300 = ORIENTED_EDGE ( 'NONE', *, *, #709, .T. ) ;
#301 = CARTESIAN_POINT ( 'NONE',  ( 2.574999999999998845, 0.000000000000000000, -32.00000000000000000 ) ) ;
#302 = CARTESIAN_POINT ( 'NONE',  ( -21.00000000000000355, -4.000000000000000000, 32.00000000000000000 ) ) ;
#303 = ORIENTED_EDGE ( 'NONE', *, *, #16, .F. ) ;
#304 = DIRECTION ( 'NONE',  ( 1.000000000000000000, 0.000000000000000000, 0.000000000000000000 ) ) ;
#305 = VECTOR ( 'NONE', #490, 1000.000000000000000 ) ;
#306 = CARTESIAN_POINT ( 'NONE',  ( 20.99999999999999645, -4.000000000000000000, 32.00000000000000000 ) ) ;
#307 = VERTEX_POINT ( 'NONE', #466 ) ;
#308 = EDGE_LOOP ( 'NONE', ( #185, #444, #680, #638 ) ) ;
#309 = ADVANCED_FACE ( 'NONE', ( #245, #291, #531 ), #411, .F. ) ;
#310 = CARTESIAN_POINT ( 'NONE',  ( -21.00000000000000355, -4.000000000000000000, -32.00000000000000000 ) ) ;
#311 = DIRECTION ( 'NONE',  ( -0.000000000000000000, 1.000000000000000000, -0.000000000000000000 ) ) ;
#312 = ADVANCED_FACE ( 'NONE', ( #717 ), #596, .F. ) ;
#313 = ORIENTED_EDGE ( 'NONE', *, *, #622, .F. ) ;
#314 =( NAMED_UNIT ( * ) SI_UNIT ( $, .STERADIAN. ) SOLID_ANGLE_UNIT ( ) );
#315 = ORIENTED_EDGE ( 'NONE', *, *, #180, .T. ) ;
#316 = DIRECTION ( 'NONE',  ( -0.000000000000000000, 1.000000000000000000, -0.000000000000000000 ) ) ;
#317 = CARTESIAN_POINT ( 'NONE',  ( 4.924999999999999822, 0.000000000000000000, 32.00000000000000000 ) ) ;
#318 = EDGE_CURVE ( 'NONE', #321, #200, #27, .T. ) ;
#319 = EDGE_LOOP ( 'NONE', ( #315, #44, #190, #701 ) ) ;
#320 = DIRECTION ( 'NONE',  ( 0.000000000000000000, 0.000000000000000000, 1.000000000000000000 ) ) ;
#321 = VERTEX_POINT ( 'NONE', #657 ) ;
#322 = AXIS2_PLACEMENT_3D ( 'NONE', #30, #320, #304 ) ;
#323 = ORIENTED_EDGE ( 'NONE', *, *, #246, .F. ) ;
#324 = FACE_OUTER_BOUND ( 'NONE', #133, .T. ) ;
#325 = ORIENTED_EDGE ( 'NONE', *, *, #96, .T. ) ;
#326 = ORIENTED_EDGE ( 'NONE', *, *, #453, .T. ) ;
#327 = FACE_OUTER_BOUND ( 'NONE', #319, .T. ) ;
#328 = CARTESIAN_POINT ( 'NONE',  ( 14.77499999999999858, 0.000000000000000000, 32.00000000000000000 ) ) ;
#329 = LINE ( 'NONE', #219, #448 ) ;
#330 = CARTESIAN_POINT ( 'NONE',  ( 0.000000000000000000, 0.000000000000000000, 32.00000000000000000 ) ) ;
#331 = VECTOR ( 'NONE', #609, 1000.000000000000000 ) ;
#332 = VECTOR ( 'NONE', #263, 1000.000000000000000 ) ;
#333 = ORIENTED_EDGE ( 'NONE', *, *, #510, .F. ) ;
#334 = CYLINDRICAL_SURFACE ( 'NONE', #39, 2.350000000000000533 ) ;
#335 = CARTESIAN_POINT ( 'NONE',  ( -17.12499999999999645, 0.000000000000000000, 32.00000000000000000 ) ) ;
#336 = VERTEX_POINT ( 'NONE', #5 ) ;
#337 = DIRECTION ( 'NONE',  ( 0.000000000000000000, -1.000000000000000000, 0.000000000000000000 ) ) ;
#338 = LINE ( 'NONE', #693, #234 ) ;
#339 = EDGE_CURVE ( 'NONE', #507, #557, #359, .T. ) ;
#340 = EDGE_CURVE ( 'NONE', #48, #336, #706, .T. ) ;
#341 = EDGE_LOOP ( 'NONE', ( #586, #441 ) ) ;
#342 = DIRECTION ( 'NONE',  ( -1.000000000000000000, 0.000000000000000000, 0.000000000000000000 ) ) ;
#343 = LINE ( 'NONE', #220, #434 ) ;
#344 = EDGE_CURVE ( 'NONE', #601, #482, #653, .T. ) ;
#345 = ORIENTED_EDGE ( 'NONE', *, *, #622, .T. ) ;
#346 = CIRCLE ( 'NONE', #11, 2.349999999999997868 ) ;
#347 = LINE ( 'NONE', #284, #654 ) ;
#348 = CARTESIAN_POINT ( 'NONE',  ( 4.924999999999999822, 0.000000000000000000, -25.00000000000000000 ) ) ;
#349 = EDGE_CURVE ( 'NONE', #565, #280, #181, .T. ) ;
#350 =( NAMED_UNIT ( * ) PLANE_ANGLE_UNIT ( ) SI_UNIT ( $, .RADIAN. ) );
#351 = ADVANCED_FACE ( 'NONE', ( #242, #63 ), #1, .F. ) ;
#352 = CARTESIAN_POINT ( 'NONE',  ( 2.574999999999998845, 0.000000000000000000, 32.00000000000000000 ) ) ;
#353 = FACE_OUTER_BOUND ( 'NONE', #93, .T. ) ;
#354 = LINE ( 'NONE', #662, #77 ) ;
#355 = AXIS2_PLACEMENT_3D ( 'NONE', #223, #523, #762 ) ;
#356 = DIRECTION ( 'NONE',  ( -1.000000000000000000, 0.000000000000000000, 0.000000000000000000 ) ) ;
#357 = ORIENTED_EDGE ( 'NONE', *, *, #239, .T. ) ;
#358 = VECTOR ( 'NONE', #244, 1000.000000000000000 ) ;
#359 = LINE ( 'NONE', #183, #719 ) ;
#360 = ORIENTED_EDGE ( 'NONE', *, *, #515, .T. ) ;
#361 = ORIENTED_EDGE ( 'NONE', *, *, #108, .T. ) ;
#362 = ORIENTED_EDGE ( 'NONE', *, *, #510, .T. ) ;
#363 = DIRECTION ( 'NONE',  ( 0.000000000000000000, 0.000000000000000000, -1.000000000000000000 ) ) ;
#364 = ADVANCED_FACE ( 'NONE', ( #422 ), #127, .F. ) ;
#365 = CARTESIAN_POINT ( 'NONE',  ( -11.50000000000000178, 4.000000000000000000, 25.00000000000000000 ) ) ;
#366 = ORIENTED_EDGE ( 'NONE', *, *, #349, .F. ) ;
#367 = EDGE_CURVE ( 'NONE', #579, #225, #395, .T. ) ;
#368 = CIRCLE ( 'NONE', #573, 2.350000000000000089 ) ;
#369 = CARTESIAN_POINT ( 'NONE',  ( -11.50000000000000178, 4.000000000000000000, -25.00000000000000000 ) ) ;
#370 = CIRCLE ( 'NONE', #720, 2.349999999999999645 ) ;
#371 = EDGE_CURVE ( 'NONE', #262, #151, #76, .T. ) ;
#372 = CARTESIAN_POINT ( 'NONE',  ( -21.00000000000000355, -4.000000000000000000, 32.00000000000000000 ) ) ;
#373 = ORIENTED_EDGE ( 'NONE', *, *, #41, .T. ) ;
#374 = EDGE_CURVE ( 'NONE', #262, #32, #382, .T. ) ;
#375 = DIRECTION ( 'NONE',  ( 1.000000000000000000, 0.000000000000000000, 0.000000000000000000 ) ) ;
#376 = CARTESIAN_POINT ( 'NONE',  ( -2.574999999999999734, 2.877919977996279827E-16, 32.00000000000000000 ) ) ;
#377 = ORIENTED_EDGE ( 'NONE', *, *, #123, .T. ) ;
#378 = DIRECTION ( 'NONE',  ( 1.000000000000000000, 0.000000000000000000, 0.000000000000000000 ) ) ;
#379 = LINE ( 'NONE', #376, #408 ) ;
#380 = ORIENTED_EDGE ( 'NONE', *, *, #344, .T. ) ;
#381 = EDGE_LOOP ( 'NONE', ( #755, #71, #68, #473 ) ) ;
#382 = LINE ( 'NONE', #254, #305 ) ;
#383 = CARTESIAN_POINT ( 'NONE',  ( 11.49999999999999822, -4.000000000000000000, 25.00000000000000000 ) ) ;
#384 = AXIS2_PLACEMENT_3D ( 'NONE', #328, #46, #750 ) ;
#385 = CIRCLE ( 'NONE', #261, 2.350000000000000089 ) ;
#386 = ORIENTED_EDGE ( 'NONE', *, *, #23, .T. ) ;
#387 = DIRECTION ( 'NONE',  ( 0.000000000000000000, 1.000000000000000000, 0.000000000000000000 ) ) ;
#388 = FACE_OUTER_BOUND ( 'NONE', #567, .T. ) ;
#389 = ORIENTED_EDGE ( 'NONE', *, *, #548, .F. ) ;
#390 = DIRECTION ( 'NONE',  ( -1.000000000000000000, 0.000000000000000000, 0.000000000000000000 ) ) ;
#391 = CARTESIAN_POINT ( 'NONE',  ( 11.49999999999999822, 4.000000000000000000, 25.00000000000000000 ) ) ;
#392 = DIRECTION ( 'NONE',  ( 0.000000000000000000, 0.000000000000000000, 1.000000000000000000 ) ) ;
#393 = CARTESIAN_POINT ( 'NONE',  ( -2.574999999999999734, 2.877919977996279827E-16, -25.00000000000000000 ) ) ;
#394 = EDGE_CURVE ( 'NONE', #100, #255, #193, .T. ) ;
#395 = CIRCLE ( 'NONE', #585, 2.350000000000000089 ) ;
#396 = AXIS2_PLACEMENT_3D ( 'NONE', #412, #241, #342 ) ;
#397 = CARTESIAN_POINT ( 'NONE',  ( 20.99999999999999645, -4.000000000000000000, 32.00000000000000000 ) ) ;
#398 = CARTESIAN_POINT ( 'NONE',  ( -11.50000000000000178, -10.00000000000000711, 25.00000000000000000 ) ) ;
#399 = ORIENTED_EDGE ( 'NONE', *, *, #740, .F. ) ;
#400 = LINE ( 'NONE', #692, #92 ) ;
#401 = FACE_BOUND ( 'NONE', #221, .T. ) ;
#402 = VERTEX_POINT ( 'NONE', #84 ) ;
#403 = LINE ( 'NONE', #650, #495 ) ;
#404 = DIRECTION ( 'NONE',  ( 0.000000000000000000, -0.000000000000000000, 1.000000000000000000 ) ) ;
#405 = EDGE_LOOP ( 'NONE', ( #604, #258, #563, #213 ) ) ;
#406 = VECTOR ( 'NONE', #231, 1000.000000000000000 ) ;
#407 = ADVANCED_FACE ( 'NONE', ( #552, #25, #608 ), #94, .F. ) ;
#408 = VECTOR ( 'NONE', #629, 1000.000000000000000 ) ;
#409 =( GEOMETRIC_REPRESENTATION_CONTEXT ( 3 ) GLOBAL_UNCERTAINTY_ASSIGNED_CONTEXT ( ( #209 ) ) GLOBAL_UNIT_ASSIGNED_CONTEXT ( ( #410, #350, #290 ) ) REPRESENTATION_CONTEXT ( 'NONE', 'WORKASPACE' ) );
#410 =( LENGTH_UNIT ( ) NAMED_UNIT ( * ) SI_UNIT ( .MILLI., .METRE. ) );
#411 = PLANE ( 'NONE',  #224 ) ;
#412 = CARTESIAN_POINT ( 'NONE',  ( -4.924999999999999822, 0.000000000000000000, -25.00000000000000000 ) ) ;
#413 = DIRECTION ( 'NONE',  ( -0.000000000000000000, -0.000000000000000000, -1.000000000000000000 ) ) ;
#414 = VERTEX_POINT ( 'NONE', #310 ) ;
#415 = PRESENTATION_STYLE_ASSIGNMENT (( #230 ) ) ;
#416 = DIRECTION ( 'NONE',  ( 0.000000000000000000, -0.000000000000000000, 1.000000000000000000 ) ) ;
#417 = ORIENTED_EDGE ( 'NONE', *, *, #233, .T. ) ;
#418 = AXIS2_PLACEMENT_3D ( 'NONE', #170, #659, #416 ) ;
#419 = CARTESIAN_POINT ( 'NONE',  ( 20.99999999999999645, -4.000000000000000000, -32.00000000000000000 ) ) ;
#420 = VERTEX_POINT ( 'NONE', #494 ) ;
#421 = CIRCLE ( 'NONE', #721, 2.350000000000000977 ) ;
#422 = FACE_OUTER_BOUND ( 'NONE', #218, .T. ) ;
#423 = ORIENTED_EDGE ( 'NONE', *, *, #47, .F. ) ;
#424 = ORIENTED_EDGE ( 'NONE', *, *, #568, .F. ) ;
#425 = ORIENTED_EDGE ( 'NONE', *, *, #475, .T. ) ;
#426 = LINE ( 'NONE', #673, #708 ) ;
#427 = ADVANCED_FACE ( 'NONE', ( #324 ), #442, .F. ) ;
#428 = DIRECTION ( 'NONE',  ( 1.000000000000000000, 0.000000000000000000, 0.000000000000000000 ) ) ;
#429 = CARTESIAN_POINT ( 'NONE',  ( -11.50000000000000178, -10.00000000000000711, -25.00000000000000000 ) ) ;
#430 = DIRECTION ( 'NONE',  ( 0.000000000000000000, 0.000000000000000000, 1.000000000000000000 ) ) ;
#431 = PRODUCT ( '\X2\6a2a\X0\_', '\X2\6a2a\X0\_', '', ( #249 ) ) ;
#432 = EDGE_CURVE ( 'NONE', #225, #579, #368, .T. ) ;
#433 = ORIENTED_EDGE ( 'NONE', *, *, #767, .T. ) ;
#434 = VECTOR ( 'NONE', #455, 1000.000000000000000 ) ;
#435 = LINE ( 'NONE', #369, #513 ) ;
#436 =( GEOMETRIC_REPRESENTATION_CONTEXT ( 3 ) GLOBAL_UNCERTAINTY_ASSIGNED_CONTEXT ( ( #50 ) ) GLOBAL_UNIT_ASSIGNED_CONTEXT ( ( #546, #676, #314 ) ) REPRESENTATION_CONTEXT ( 'NONE', 'WORKASPACE' ) );
#437 = ORIENTED_EDGE ( 'NONE', *, *, #635, .T. ) ;
#438 = VERTEX_POINT ( 'NONE', #365 ) ;
#439 = LINE ( 'NONE', #678, #332 ) ;
#440 = FACE_OUTER_BOUND ( 'NONE', #308, .T. ) ;
#441 = ORIENTED_EDGE ( 'NONE', *, *, #751, .T. ) ;
#442 = CYLINDRICAL_SURFACE ( 'NONE', #134, 2.350000000000000977 ) ;
#443 = DIRECTION ( 'NONE',  ( 1.000000000000000000, 0.000000000000000000, 0.000000000000000000 ) ) ;
#444 = ORIENTED_EDGE ( 'NONE', *, *, #21, .F. ) ;
#445 = CARTESIAN_POINT ( 'NONE',  ( 4.924999999999999822, 0.000000000000000000, 32.00000000000000000 ) ) ;
#446 = CARTESIAN_POINT ( 'NONE',  ( -4.924999999999999822, 0.000000000000000000, 32.00000000000000000 ) ) ;
#447 = AXIS2_PLACEMENT_3D ( 'NONE', #306, #194, #430 ) ;
#448 = VECTOR ( 'NONE', #7, 1000.000000000000000 ) ;
#449 = EDGE_LOOP ( 'NONE', ( #624, #34, #171, #672 ) ) ;
#450 = DIRECTION ( 'NONE',  ( -1.000000000000000000, 0.000000000000000000, 0.000000000000000000 ) ) ;
#451 = CARTESIAN_POINT ( 'NONE',  ( -21.00000000000000355, 4.000000000000000000, 32.00000000000000000 ) ) ;
#452 = EDGE_LOOP ( 'NONE', ( #207, #265, #683, #357 ) ) ;
#453 = EDGE_CURVE ( 'NONE', #645, #130, #512, .T. ) ;
#454 = LINE ( 'NONE', #577, #237 ) ;
#455 = DIRECTION ( 'NONE',  ( -0.000000000000000000, -0.000000000000000000, -1.000000000000000000 ) ) ;
#456 = ORIENTED_EDGE ( 'NONE', *, *, #593, .T. ) ;
#457 = EDGE_CURVE ( 'NONE', #255, #438, #426, .T. ) ;
#458 = DIRECTION ( 'NONE',  ( 0.000000000000000000, 0.000000000000000000, -1.000000000000000000 ) ) ;
#459 = CYLINDRICAL_SURFACE ( 'NONE', #384, 2.349999999999997868 ) ;
#460 = PRESENTATION_LAYER_ASSIGNMENT (  '', '', ( #599 ) ) ;
#461 = VERTEX_POINT ( 'NONE', #666 ) ;
#462 = CARTESIAN_POINT ( 'NONE',  ( -2.574999999999999734, 2.877919977996279827E-16, 25.00000000000000000 ) ) ;
#463 = LINE ( 'NONE', #391, #558 ) ;
#464 = ORIENTED_EDGE ( 'NONE', *, *, #574, .F. ) ;
#465 = DIRECTION ( 'NONE',  ( -0.000000000000000000, -0.000000000000000000, -1.000000000000000000 ) ) ;
#466 = CARTESIAN_POINT ( 'NONE',  ( -21.00000000000000355, 4.000000000000000000, -32.00000000000000000 ) ) ;
#467 = PRODUCT_DEFINITION ( 'æœ', '', #561, #651 ) ;
#468 = ORIENTED_EDGE ( 'NONE', *, *, #292, .T. ) ;
#469 = CARTESIAN_POINT ( 'NONE',  ( -4.924999999999999822, 0.000000000000000000, 32.00000000000000000 ) ) ;
#470 = AXIS2_PLACEMENT_3D ( 'NONE', #67, #542, #363 ) ;
#471 = AXIS2_PLACEMENT_3D ( 'NONE', #756, #689, #227 ) ;
#472 = CARTESIAN_POINT ( 'NONE',  ( -2.574999999999999734, 2.877919977996279827E-16, 32.00000000000000000 ) ) ;
#473 = ORIENTED_EDGE ( 'NONE', *, *, #177, .F. ) ;
#474 = FILL_AREA_STYLE_COLOUR ( '', #162 ) ;
#475 = EDGE_CURVE ( 'NONE', #557, #402, #226, .T. ) ;
#476 = FACE_OUTER_BOUND ( 'NONE', #79, .T. ) ;
#477 = EDGE_LOOP ( 'NONE', ( #468, #303, #189, #377 ) ) ;
#478 = EDGE_CURVE ( 'NONE', #130, #645, #135, .T. ) ;
#479 = CARTESIAN_POINT ( 'NONE',  ( 4.924999999999999822, 0.000000000000000000, 32.00000000000000000 ) ) ;
#480 = EDGE_CURVE ( 'NONE', #502, #255, #435, .T. ) ;
#481 = DIRECTION ( 'NONE',  ( 0.000000000000000000, 0.000000000000000000, -1.000000000000000000 ) ) ;
#482 = VERTEX_POINT ( 'NONE', #611 ) ;
#483 = AXIS2_PLACEMENT_3D ( 'NONE', #317, #612, #268 ) ;
#484 = EDGE_LOOP ( 'NONE', ( #161, #642 ) ) ;
#485 = CARTESIAN_POINT ( 'NONE',  ( 14.77499999999999858, 0.000000000000000000, 32.00000000000000000 ) ) ;
#486 = DIRECTION ( 'NONE',  ( 1.000000000000000000, 0.000000000000000000, 0.000000000000000000 ) ) ;
#487 = CARTESIAN_POINT ( 'NONE',  ( 7.275000000000000355, 2.877919977996281306E-16, 25.00000000000000000 ) ) ;
#488 = EDGE_CURVE ( 'NONE', #200, #321, #370, .T. ) ;
#489 = ORIENTED_EDGE ( 'NONE', *, *, #271, .T. ) ;
#490 = DIRECTION ( 'NONE',  ( -0.000000000000000000, -0.000000000000000000, -1.000000000000000000 ) ) ;
#491 = ORIENTED_EDGE ( 'NONE', *, *, #740, .T. ) ;
#492 = VERTEX_POINT ( 'NONE', #196 ) ;
#493 = AXIS2_PLACEMENT_3D ( 'NONE', #348, #70, #60 ) ;
#494 = CARTESIAN_POINT ( 'NONE',  ( 20.99999999999999645, 4.000000000000000000, -32.00000000000000000 ) ) ;
#495 = VECTOR ( 'NONE', #583, 1000.000000000000000 ) ;
#496 = CARTESIAN_POINT ( 'NONE',  ( 20.99999999999999645, 4.000000000000000000, 32.00000000000000000 ) ) ;
#497 = ORIENTED_EDGE ( 'NONE', *, *, #367, .T. ) ;
#498 = ADVANCED_BREP_SHAPE_REPRESENTATION ( '\X2\6a2a\X0\_', ( #742, #514 ), #436 ) ;
#499 = CARTESIAN_POINT ( 'NONE',  ( -14.77499999999999858, 0.000000000000000000, -32.00000000000000000 ) ) ;
#500 = DIRECTION ( 'NONE',  ( 0.000000000000000000, 0.000000000000000000, 1.000000000000000000 ) ) ;
#501 = APPLICATION_CONTEXT ( 'automotive_design' ) ;
#502 = VERTEX_POINT ( 'NONE', #733 ) ;
#503 = ADVANCED_FACE ( 'NONE', ( #137 ), #614, .F. ) ;
#504 = CARTESIAN_POINT ( 'NONE',  ( -4.924999999999999822, 0.000000000000000000, -25.00000000000000000 ) ) ;
#505 = DIRECTION ( 'NONE',  ( -0.000000000000000000, -0.000000000000000000, -1.000000000000000000 ) ) ;
#506 = EDGE_LOOP ( 'NONE', ( #738, #326, #588, #266 ) ) ;
#507 = VERTEX_POINT ( 'NONE', #681 ) ;
#508 = DIRECTION ( 'NONE',  ( 0.000000000000000000, -0.000000000000000000, -1.000000000000000000 ) ) ;
#509 = VECTOR ( 'NONE', #316, 1000.000000000000000 ) ;
#510 = EDGE_CURVE ( 'NONE', #438, #336, #439, .T. ) ;
#511 = DIRECTION ( 'NONE',  ( 0.000000000000000000, 0.000000000000000000, -1.000000000000000000 ) ) ;
#512 = CIRCLE ( 'NONE', #78, 2.349999999999997868 ) ;
#513 = VECTOR ( 'NONE', #14, 1000.000000000000000 ) ;
#514 = AXIS2_PLACEMENT_3D ( 'NONE', #18, #299, #603 ) ;
#515 = EDGE_CURVE ( 'NONE', #623, #694, #147, .T. ) ;
#516 = FACE_OUTER_BOUND ( 'NONE', #610, .T. ) ;
#517 = FACE_OUTER_BOUND ( 'NONE', #381, .T. ) ;
#518 = EDGE_CURVE ( 'NONE', #712, #19, #400, .T. ) ;
#519 = DIRECTION ( 'NONE',  ( -1.000000000000000000, 0.000000000000000000, 0.000000000000000000 ) ) ;
#520 = CARTESIAN_POINT ( 'NONE',  ( -21.00000000000000355, 4.000000000000000000, 32.00000000000000000 ) ) ;
#521 = EDGE_LOOP ( 'NONE', ( #203, #88 ) ) ;
#522 = DIRECTION ( 'NONE',  ( -1.000000000000000000, 0.000000000000000000, 0.000000000000000000 ) ) ;
#523 = DIRECTION ( 'NONE',  ( 0.000000000000000000, 0.000000000000000000, -1.000000000000000000 ) ) ;
#524 = AXIS2_PLACEMENT_3D ( 'NONE', #633, #99, #748 ) ;
#525 = CIRCLE ( 'NONE', #746, 2.350000000000000977 ) ;
#526 = DIRECTION ( 'NONE',  ( -0.000000000000000000, 0.000000000000000000, 1.000000000000000000 ) ) ;
#527 = CARTESIAN_POINT ( 'NONE',  ( 12.42500000000000071, 0.000000000000000000, 32.00000000000000000 ) ) ;
#528 = ORIENTED_EDGE ( 'NONE', *, *, #131, .F. ) ;
#529 = ORIENTED_EDGE ( 'NONE', *, *, #233, .F. ) ;
#530 = CARTESIAN_POINT ( 'NONE',  ( -17.12499999999999645, 0.000000000000000000, 32.00000000000000000 ) ) ;
#531 = FACE_OUTER_BOUND ( 'NONE', #538, .T. ) ;
#532 = CARTESIAN_POINT ( 'NONE',  ( 11.49999999999999822, -10.00000000000000711, 25.00000000000000000 ) ) ;
#533 = AXIS2_PLACEMENT_3D ( 'NONE', #446, #167, #647 ) ;
#534 = AXIS2_PLACEMENT_3D ( 'NONE', #702, #56, #294 ) ;
#535 = EDGE_LOOP ( 'NONE', ( #142, #691, #491, #29 ) ) ;
#536 = ADVANCED_FACE ( 'NONE', ( #113 ), #632, .F. ) ;
#537 = FACE_OUTER_BOUND ( 'NONE', #554, .T. ) ;
#538 = EDGE_LOOP ( 'NONE', ( #618, #179, #734, #550 ) ) ;
#539 = DIRECTION ( 'NONE',  ( 0.000000000000000000, 0.000000000000000000, 1.000000000000000000 ) ) ;
#540 = ADVANCED_FACE ( 'NONE', ( #158 ), #334, .F. ) ;
#541 = CARTESIAN_POINT ( 'NONE',  ( 2.574999999999998845, 0.000000000000000000, 25.00000000000000000 ) ) ;
#542 = DIRECTION ( 'NONE',  ( 1.000000000000000000, 0.000000000000000000, 0.000000000000000000 ) ) ;
#543 = ORIENTED_EDGE ( 'NONE', *, *, #432, .T. ) ;
#544 = DIRECTION ( 'NONE',  ( -1.000000000000000000, 0.000000000000000000, 0.000000000000000000 ) ) ;
#545 = CIRCLE ( 'NONE', #524, 2.350000000000000533 ) ;
#546 =( LENGTH_UNIT ( ) NAMED_UNIT ( * ) SI_UNIT ( .MILLI., .METRE. ) );
#547 = VECTOR ( 'NONE', #465, 1000.000000000000000 ) ;
#548 = EDGE_CURVE ( 'NONE', #402, #557, #385, .T. ) ;
#549 = DIRECTION ( 'NONE',  ( -1.000000000000000000, 0.000000000000000000, 0.000000000000000000 ) ) ;
#550 = ORIENTED_EDGE ( 'NONE', *, *, #730, .F. ) ;
#551 = ORIENTED_EDGE ( 'NONE', *, *, #518, .T. ) ;
#552 = FACE_BOUND ( 'NONE', #718, .T. ) ;
#553 = CARTESIAN_POINT ( 'NONE',  ( -14.77499999999999858, 0.000000000000000000, -32.00000000000000000 ) ) ;
#554 = EDGE_LOOP ( 'NONE', ( #566, #489, #69, #399 ) ) ;
#555 = CARTESIAN_POINT ( 'NONE',  ( -21.00000000000000355, -4.000000000000000000, 32.00000000000000000 ) ) ;
#556 = FACE_OUTER_BOUND ( 'NONE', #405, .T. ) ;
#557 = VERTEX_POINT ( 'NONE', #569 ) ;
#558 = VECTOR ( 'NONE', #164, 1000.000000000000000 ) ;
#559 = CARTESIAN_POINT ( 'NONE',  ( 4.924999999999999822, 0.000000000000000000, 32.00000000000000000 ) ) ;
#560 = CIRCLE ( 'NONE', #759, 2.350000000000000533 ) ;
#561 = PRODUCT_DEFINITION_FORMATION_WITH_SPECIFIED_SOURCE ( 'ä»', '', #431, .NOT_KNOWN. ) ;
#562 = EDGE_LOOP ( 'NONE', ( #116, #743 ) ) ;
#563 = ORIENTED_EDGE ( 'NONE', *, *, #152, .T. ) ;
#564 = DIRECTION ( 'NONE',  ( -0.000000000000000000, 0.000000000000000000, -1.000000000000000000 ) ) ;
#565 = VERTEX_POINT ( 'NONE', #745 ) ;
#566 = ORIENTED_EDGE ( 'NONE', *, *, #591, .T. ) ;
#567 = EDGE_LOOP ( 'NONE', ( #243, #529, #145, #80 ) ) ;
#568 = EDGE_CURVE ( 'NONE', #48, #112, #752, .T. ) ;
#569 = CARTESIAN_POINT ( 'NONE',  ( -7.275000000000000355, 0.000000000000000000, -32.00000000000000000 ) ) ;
#570 = DIRECTION ( 'NONE',  ( -1.000000000000000000, -0.000000000000000000, -0.000000000000000000 ) ) ;
#571 = ORIENTED_EDGE ( 'NONE', *, *, #47, .T. ) ;
#572 = CARTESIAN_POINT ( 'NONE',  ( 11.49999999999999645, -4.000000000000000000, 32.00000000000000000 ) ) ;
#573 = AXIS2_PLACEMENT_3D ( 'NONE', #191, #247, #9 ) ;
#574 = EDGE_CURVE ( 'NONE', #507, #195, #686, .T. ) ;
#575 = FACE_BOUND ( 'NONE', #484, .T. ) ;
#576 = AXIS2_PLACEMENT_3D ( 'NONE', #33, #392, #685 ) ;
#577 = CARTESIAN_POINT ( 'NONE',  ( -11.50000000000000178, -10.00000000000000711, 25.00000000000000000 ) ) ;
#578 = PLANE ( 'NONE',  #355 ) ;
#579 = VERTEX_POINT ( 'NONE', #462 ) ;
#580 = FACE_OUTER_BOUND ( 'NONE', #124, .T. ) ;
#581 = DIRECTION ( 'NONE',  ( -1.000000000000000000, -0.000000000000000000, -0.000000000000000000 ) ) ;
#582 = ORIENTED_EDGE ( 'NONE', *, *, #349, .T. ) ;
#583 = DIRECTION ( 'NONE',  ( -1.000000000000000000, 0.000000000000000000, 0.000000000000000000 ) ) ;
#584 = CARTESIAN_POINT ( 'NONE',  ( -21.00000000000000355, -4.000000000000000000, -32.00000000000000000 ) ) ;
#585 = AXIS2_PLACEMENT_3D ( 'NONE', #125, #20, #378 ) ;
#586 = ORIENTED_EDGE ( 'NONE', *, *, #131, .T. ) ;
#587 = AXIS2_PLACEMENT_3D ( 'NONE', #639, #45, #278 ) ;
#588 = ORIENTED_EDGE ( 'NONE', *, *, #177, .T. ) ;
#589 = CYLINDRICAL_SURFACE ( 'NONE', #731, 2.350000000000000977 ) ;
#590 = CYLINDRICAL_SURFACE ( 'NONE', #91, 2.350000000000000533 ) ;
#591 = EDGE_CURVE ( 'NONE', #492, #634, #3, .T. ) ;
#592 = CARTESIAN_POINT ( 'NONE',  ( 7.275000000000000355, 2.877919977996281306E-16, -25.00000000000000000 ) ) ;
#593 = EDGE_CURVE ( 'NONE', #565, #260, #525, .T. ) ;
#594 = CARTESIAN_POINT ( 'NONE',  ( 4.924999999999999822, 0.000000000000000000, 25.00000000000000000 ) ) ;
#595 = EDGE_CURVE ( 'NONE', #148, #438, #454, .T. ) ;
#596 = CYLINDRICAL_SURFACE ( 'NONE', #696, 2.350000000000000533 ) ;
#597 = EDGE_CURVE ( 'NONE', #712, #688, #636, .T. ) ;
#598 = VECTOR ( 'NONE', #111, 1000.000000000000000 ) ;
#599 = STYLED_ITEM ( 'NONE', ( #415 ), #742 ) ;
#600 = CARTESIAN_POINT ( 'NONE',  ( -21.00000000000000355, 4.000000000000000000, 32.00000000000000000 ) ) ;
#601 = VERTEX_POINT ( 'NONE', #739 ) ;
#602 = DIRECTION ( 'NONE',  ( -1.000000000000000000, 0.000000000000000000, 0.000000000000000000 ) ) ;
#603 = DIRECTION ( 'NONE',  ( 1.000000000000000000, 0.000000000000000000, 0.000000000000000000 ) ) ;
#604 = ORIENTED_EDGE ( 'NONE', *, *, #374, .F. ) ;
#605 = DIRECTION ( 'NONE',  ( -1.000000000000000000, 0.000000000000000000, 0.000000000000000000 ) ) ;
#606 = ADVANCED_FACE ( 'NONE', ( #643, #327 ), #208, .F. ) ;
#607 = PRODUCT_DEFINITION_SHAPE ( 'NONE', 'NONE',  #467 ) ;
#608 = FACE_OUTER_BOUND ( 'NONE', #138, .T. ) ;
#609 = DIRECTION ( 'NONE',  ( -0.000000000000000000, -0.000000000000000000, -1.000000000000000000 ) ) ;
#610 = EDGE_LOOP ( 'NONE', ( #38, #287, #62, #17 ) ) ;
#611 = CARTESIAN_POINT ( 'NONE',  ( 17.12499999999999645, 2.877919977996276869E-16, -32.00000000000000000 ) ) ;
#612 = DIRECTION ( 'NONE',  ( 0.000000000000000000, 0.000000000000000000, 1.000000000000000000 ) ) ;
#613 = ORIENTED_EDGE ( 'NONE', *, *, #340, .T. ) ;
#614 = PLANE ( 'NONE',  #174 ) ;
#615 = CARTESIAN_POINT ( 'NONE',  ( 7.275000000000000355, 2.877919977996280813E-16, 32.00000000000000000 ) ) ;
#616 = ADVANCED_FACE ( 'NONE', ( #580 ), #49, .F. ) ;
#617 = LINE ( 'NONE', #302, #747 ) ;
#618 = ORIENTED_EDGE ( 'NONE', *, *, #72, .T. ) ;
#619 = CARTESIAN_POINT ( 'NONE',  ( 4.924999999999999822, 0.000000000000000000, 32.00000000000000000 ) ) ;
#620 = EDGE_CURVE ( 'NONE', #482, #601, #346, .T. ) ;
#621 = LINE ( 'NONE', #675, #53 ) ;
#622 = EDGE_CURVE ( 'NONE', #280, #461, #199, .T. ) ;
#623 = VERTEX_POINT ( 'NONE', #153 ) ;
#624 = ORIENTED_EDGE ( 'NONE', *, *, #709, .F. ) ;
#625 = EDGE_LOOP ( 'NONE', ( #325, #360 ) ) ;
#626 = VECTOR ( 'NONE', #404, 1000.000000000000000 ) ;
#627 = DIRECTION ( 'NONE',  ( -1.000000000000000000, 0.000000000000000000, 0.000000000000000000 ) ) ;
#628 = AXIS2_PLACEMENT_3D ( 'NONE', #445, #98, #214 ) ;
#629 = DIRECTION ( 'NONE',  ( -0.000000000000000000, -0.000000000000000000, -1.000000000000000000 ) ) ;
#630 = ADVANCED_FACE ( 'NONE', ( #516 ), #749, .F. ) ;
#631 = ORIENTED_EDGE ( 'NONE', *, *, #23, .F. ) ;
#632 = CYLINDRICAL_SURFACE ( 'NONE', #587, 2.349999999999997868 ) ;
#633 = CARTESIAN_POINT ( 'NONE',  ( 4.924999999999999822, 0.000000000000000000, 25.00000000000000000 ) ) ;
#634 = VERTEX_POINT ( 'NONE', #102 ) ;
#635 = EDGE_CURVE ( 'NONE', #760, #24, #329, .T. ) ;
#636 = LINE ( 'NONE', #397, #55 ) ;
#637 = FACE_BOUND ( 'NONE', #521, .T. ) ;
#638 = ORIENTED_EDGE ( 'NONE', *, *, #597, .T. ) ;
#639 = CARTESIAN_POINT ( 'NONE',  ( 14.77499999999999858, 0.000000000000000000, 32.00000000000000000 ) ) ;
#640 = DIRECTION ( 'NONE',  ( -1.000000000000000000, 0.000000000000000000, -0.000000000000000000 ) ) ;
#641 = AXIS2_PLACEMENT_3D ( 'NONE', #110, #337, #508 ) ;
#642 = ORIENTED_EDGE ( 'NONE', *, *, #453, .F. ) ;
#643 = FACE_BOUND ( 'NONE', #253, .T. ) ;
#644 = CARTESIAN_POINT ( 'NONE',  ( -21.00000000000000355, -4.000000000000000000, 25.00000000000000000 ) ) ;
#645 = VERTEX_POINT ( 'NONE', #52 ) ;
#646 = DIRECTION ( 'NONE',  ( 1.000000000000000000, 0.000000000000000000, 0.000000000000000000 ) ) ;
#647 = DIRECTION ( 'NONE',  ( 1.000000000000000000, 0.000000000000000000, 0.000000000000000000 ) ) ;
#648 = ADVANCED_FACE ( 'NONE', ( #297 ), #715, .F. ) ;
#649 = ORIENTED_EDGE ( 'NONE', *, *, #96, .F. ) ;
#650 = CARTESIAN_POINT ( 'NONE',  ( -21.00000000000000355, -4.000000000000000000, -25.00000000000000000 ) ) ;
#651 = PRODUCT_DEFINITION_CONTEXT ( 'detailed design', #85, 'design' ) ;
#652 = DIRECTION ( 'NONE',  ( -0.000000000000000000, -0.000000000000000000, -1.000000000000000000 ) ) ;
#653 = CIRCLE ( 'NONE', #663, 2.349999999999997868 ) ;
#654 = VECTOR ( 'NONE', #184, 1000.000000000000000 ) ;
#655 = SURFACE_STYLE_FILL_AREA ( #761 ) ;
#656 = EDGE_CURVE ( 'NONE', #688, #420, #4, .T. ) ;
#657 = CARTESIAN_POINT ( 'NONE',  ( -12.42499999999999893, 2.877919977996280320E-16, 32.00000000000000000 ) ) ;
#658 = ADVANCED_FACE ( 'NONE', ( #537 ), #121, .F. ) ;
#659 = DIRECTION ( 'NONE',  ( 0.000000000000000000, 1.000000000000000000, 0.000000000000000000 ) ) ;
#660 = ORIENTED_EDGE ( 'NONE', *, *, #754, .T. ) ;
#661 = CARTESIAN_POINT ( 'NONE',  ( -14.77499999999999858, 0.000000000000000000, 32.00000000000000000 ) ) ;
#662 = CARTESIAN_POINT ( 'NONE',  ( -21.00000000000000355, -4.000000000000000000, -32.00000000000000000 ) ) ;
#663 = AXIS2_PLACEMENT_3D ( 'NONE', #120, #703, #602 ) ;
#664 = CARTESIAN_POINT ( 'NONE',  ( -17.12499999999999645, 0.000000000000000000, -32.00000000000000000 ) ) ;
#665 = CARTESIAN_POINT ( 'NONE',  ( -14.77499999999999858, 0.000000000000000000, 32.00000000000000000 ) ) ;
#666 = CARTESIAN_POINT ( 'NONE',  ( 7.275000000000000355, 2.877919977996281306E-16, -32.00000000000000000 ) ) ;
#667 = LINE ( 'NONE', #251, #331 ) ;
#668 = DIRECTION ( 'NONE',  ( -1.000000000000000000, 0.000000000000000000, 0.000000000000000000 ) ) ;
#669 = ORIENTED_EDGE ( 'NONE', *, *, #480, .F. ) ;
#670 = CIRCLE ( 'NONE', #483, 2.350000000000000977 ) ;
#671 = AXIS2_PLACEMENT_3D ( 'NONE', #661, #117, #765 ) ;
#672 = ORIENTED_EDGE ( 'NONE', *, *, #339, .F. ) ;
#673 = CARTESIAN_POINT ( 'NONE',  ( -11.50000000000000178, 4.000000000000000000, 25.00000000000000000 ) ) ;
#674 = ADVANCED_FACE ( 'NONE', ( #353 ), #589, .F. ) ;
#675 = CARTESIAN_POINT ( 'NONE',  ( 20.99999999999999645, 4.000000000000000000, 32.00000000000000000 ) ) ;
#676 =( NAMED_UNIT ( * ) PLANE_ANGLE_UNIT ( ) SI_UNIT ( $, .RADIAN. ) );
#677 = ORIENTED_EDGE ( 'NONE', *, *, #725, .F. ) ;
#678 = CARTESIAN_POINT ( 'NONE',  ( -11.50000000000000178, 4.000000000000000000, 25.00000000000000000 ) ) ;
#679 = PLANE ( 'NONE',  #447 ) ;
#680 = ORIENTED_EDGE ( 'NONE', *, *, #518, .F. ) ;
#681 = CARTESIAN_POINT ( 'NONE',  ( -7.275000000000000355, 0.000000000000000000, -25.00000000000000000 ) ) ;
#682 = CARTESIAN_POINT ( 'NONE',  ( -11.50000000000000178, -4.000000000000000000, -25.00000000000000000 ) ) ;
#683 = ORIENTED_EDGE ( 'NONE', *, *, #730, .T. ) ;
#684 = AXIS2_PLACEMENT_3D ( 'NONE', #619, #723, #627 ) ;
#685 = DIRECTION ( 'NONE',  ( 1.000000000000000000, 0.000000000000000000, 0.000000000000000000 ) ) ;
#686 = CIRCLE ( 'NONE', #274, 2.350000000000000533 ) ;
#687 = DIRECTION ( 'NONE',  ( -0.000000000000000000, -0.000000000000000000, -1.000000000000000000 ) ) ;
#688 = VERTEX_POINT ( 'NONE', #419 ) ;
#689 = DIRECTION ( 'NONE',  ( 0.000000000000000000, 0.000000000000000000, 1.000000000000000000 ) ) ;
#690 = DIRECTION ( 'NONE',  ( -0.000000000000000000, -0.000000000000000000, -1.000000000000000000 ) ) ;
#691 = ORIENTED_EDGE ( 'NONE', *, *, #232, .T. ) ;
#692 = CARTESIAN_POINT ( 'NONE',  ( 20.99999999999999645, -4.000000000000000000, 32.00000000000000000 ) ) ;
#693 = CARTESIAN_POINT ( 'NONE',  ( -21.00000000000000355, 4.000000000000000000, -32.00000000000000000 ) ) ;
#694 = VERTEX_POINT ( 'NONE', #664 ) ;
#695 = CARTESIAN_POINT ( 'NONE',  ( 4.924999999999999822, 0.000000000000000000, -25.00000000000000000 ) ) ;
#696 = AXIS2_PLACEMENT_3D ( 'NONE', #298, #413, #544 ) ;
#697 = LINE ( 'NONE', #644, #598 ) ;
#698 = ORIENTED_EDGE ( 'NONE', *, *, #371, .F. ) ;
#699 = CARTESIAN_POINT ( 'NONE',  ( -14.77499999999999858, 0.000000000000000000, 32.00000000000000000 ) ) ;
#700 = CARTESIAN_POINT ( 'NONE',  ( -11.50000000000000178, -4.000000000000000000, 25.00000000000000000 ) ) ;
#701 = ORIENTED_EDGE ( 'NONE', *, *, #21, .T. ) ;
#702 = CARTESIAN_POINT ( 'NONE',  ( -4.924999999999999822, 0.000000000000000000, 32.00000000000000000 ) ) ;
#703 = DIRECTION ( 'NONE',  ( 0.000000000000000000, 0.000000000000000000, 1.000000000000000000 ) ) ;
#704 = EDGE_CURVE ( 'NONE', #645, #482, #169, .T. ) ;
#705 = CARTESIAN_POINT ( 'NONE',  ( 17.12499999999999645, 2.877919977996277855E-16, 32.00000000000000000 ) ) ;
#706 = LINE ( 'NONE', #532, #406 ) ;
#707 = VECTOR ( 'NONE', #175, 1000.000000000000000 ) ;
#708 = VECTOR ( 'NONE', #74, 1000.000000000000000 ) ;
#709 = EDGE_CURVE ( 'NONE', #195, #507, #212, .T. ) ;
#710 = DIRECTION ( 'NONE',  ( 1.000000000000000000, 0.000000000000000000, 0.000000000000000000 ) ) ;
#711 = DIRECTION ( 'NONE',  ( -0.000000000000000000, -0.000000000000000000, -1.000000000000000000 ) ) ;
#712 = VERTEX_POINT ( 'NONE', #59 ) ;
#713 = CARTESIAN_POINT ( 'NONE',  ( 4.924999999999999822, 0.000000000000000000, -32.00000000000000000 ) ) ;
#714 = CARTESIAN_POINT ( 'NONE',  ( -11.50000000000000178, -4.000000000000000000, 32.00000000000000000 ) ) ;
#715 = CYLINDRICAL_SURFACE ( 'NONE', #671, 2.349999999999999645 ) ;
#716 = ORIENTED_EDGE ( 'NONE', *, *, #101, .T. ) ;
#717 = FACE_OUTER_BOUND ( 'NONE', #449, .T. ) ;
#718 = EDGE_LOOP ( 'NONE', ( #543, #497 ) ) ;
#719 = VECTOR ( 'NONE', #711, 1000.000000000000000 ) ;
#720 = AXIS2_PLACEMENT_3D ( 'NONE', #81, #727, #375 ) ;
#721 = AXIS2_PLACEMENT_3D ( 'NONE', #713, #182, #356 ) ;
#722 = DIRECTION ( 'NONE',  ( 0.000000000000000000, 0.000000000000000000, 1.000000000000000000 ) ) ;
#723 = DIRECTION ( 'NONE',  ( 0.000000000000000000, 0.000000000000000000, 1.000000000000000000 ) ) ;
#724 = LINE ( 'NONE', #615, #10 ) ;
#725 = EDGE_CURVE ( 'NONE', #200, #694, #61, .T. ) ;
#726 = ORIENTED_EDGE ( 'NONE', *, *, #548, .T. ) ;
#727 = DIRECTION ( 'NONE',  ( 0.000000000000000000, 0.000000000000000000, 1.000000000000000000 ) ) ;
#728 = DIRECTION ( 'NONE',  ( -0.000000000000000000, -0.000000000000000000, -1.000000000000000000 ) ) ;
#729 = AXIS2_PLACEMENT_3D ( 'NONE', #665, #539, #122 ) ;
#730 = EDGE_CURVE ( 'NONE', #112, #100, #403, .T. ) ;
#731 = AXIS2_PLACEMENT_3D ( 'NONE', #479, #288, #178 ) ;
#732 = ORIENTED_EDGE ( 'NONE', *, *, #620, .T. ) ;
#733 = CARTESIAN_POINT ( 'NONE',  ( 11.49999999999999822, 4.000000000000000000, -25.00000000000000000 ) ) ;
#734 = ORIENTED_EDGE ( 'NONE', *, *, #394, .F. ) ;
#735 = ORIENTED_EDGE ( 'NONE', *, *, #13, .F. ) ;
#736 = DIRECTION ( 'NONE',  ( 0.000000000000000000, 0.000000000000000000, 1.000000000000000000 ) ) ;
#737 = EDGE_LOOP ( 'NONE', ( #139, #83, #165, #90 ) ) ;
#738 = ORIENTED_EDGE ( 'NONE', *, *, #704, .F. ) ;
#739 = CARTESIAN_POINT ( 'NONE',  ( 12.42500000000000071, 0.000000000000000000, -32.00000000000000000 ) ) ;
#740 = EDGE_CURVE ( 'NONE', #492, #225, #347, .T. ) ;
#741 = CARTESIAN_POINT ( 'NONE',  ( -12.42499999999999893, 2.877919977996279827E-16, 32.00000000000000000 ) ) ;
#742 = MANIFOLD_SOLID_BREP ( '\X2\52079664\X0\-\X2\62c94f38\X0\3', #744 ) ;
#743 = ORIENTED_EDGE ( 'NONE', *, *, #232, .F. ) ;
#744 = CLOSED_SHELL ( 'NONE', ( #157, #648, #427, #674, #312, #658, #540, #257, #43, #616, #115, #155, #57, #606, #503, #351, #630, #536, #309, #364, #216, #407 ) ) ;
#745 = CARTESIAN_POINT ( 'NONE',  ( 2.574999999999998845, 0.000000000000000000, -25.00000000000000000 ) ) ;
#746 = AXIS2_PLACEMENT_3D ( 'NONE', #695, #163, #522 ) ;
#747 = VECTOR ( 'NONE', #428, 1000.000000000000000 ) ;
#748 = DIRECTION ( 'NONE',  ( 1.000000000000000000, 0.000000000000000000, 0.000000000000000000 ) ) ;
#749 = CYLINDRICAL_SURFACE ( 'NONE', #295, 2.349999999999999645 ) ;
#750 = DIRECTION ( 'NONE',  ( -1.000000000000000000, 0.000000000000000000, 0.000000000000000000 ) ) ;
#751 = EDGE_CURVE ( 'NONE', #32, #763, #560, .T. ) ;
#752 = LINE ( 'NONE', #572, #248 ) ;
#753 = PLANE ( 'NONE',  #146 ) ;
#754 = EDGE_CURVE ( 'NONE', #461, #280, #421, .T. ) ;
#755 = ORIENTED_EDGE ( 'NONE', *, *, #478, .T. ) ;
#756 = CARTESIAN_POINT ( 'NONE',  ( 4.924999999999999822, 0.000000000000000000, -32.00000000000000000 ) ) ;
#757 = CIRCLE ( 'NONE', #533, 2.350000000000000089 ) ;
#758 = FACE_OUTER_BOUND ( 'NONE', #737, .T. ) ;
#759 = AXIS2_PLACEMENT_3D ( 'NONE', #594, #526, #710 ) ;
#760 = VERTEX_POINT ( 'NONE', #600 ) ;
#761 = FILL_AREA_STYLE ('',( #474 ) ) ;
#762 = DIRECTION ( 'NONE',  ( -1.000000000000000000, 0.000000000000000000, -0.000000000000000000 ) ) ;
#763 = VERTEX_POINT ( 'NONE', #541 ) ;
#764 = ORIENTED_EDGE ( 'NONE', *, *, #767, .F. ) ;
#765 = DIRECTION ( 'NONE',  ( -1.000000000000000000, 0.000000000000000000, 0.000000000000000000 ) ) ;
#766 = DIRECTION ( 'NONE',  ( -0.000000000000000000, -1.000000000000000000, -0.000000000000000000 ) ) ;
#767 = EDGE_CURVE ( 'NONE', #24, #712, #617, .T. ) ;
ENDSEC;
END-ISO-10303-21;
